<svg width="170" height="78" viewBox="0 0 170 78" fill="none" xmlns="http://www.w3.org/2000/svg">
<g id="Group 8">
<path id="path170" d="M169.727 77.8253H0.945343L11.7584 62.6347H158.913L169.727 77.8253Z" fill="#FBC341"/>
<path id="path172" d="M169.727 77.8253H0.945343L11.7584 62.6347H158.913L169.727 77.8253Z" fill="#FBC341"/>
<path id="path174" d="M166.568 73.388H40.724L40.7317 73.3867C40.8115 73.3867 40.8917 73.388 40.9724 73.388C42.1927 73.388 43.5229 73.3053 44.6787 73.224C45.8344 73.1427 46.8151 73.0613 47.338 73.0613C47.3385 73.0613 47.3391 73.0613 47.3401 73.0613L51.4812 73.0627L51.5828 73.0733C52.3989 73.0733 53.0755 72.436 53.1932 71.6067L77.3459 68.156C78.0527 68.0547 78.0281 67.0253 77.3161 66.9587L53.9568 64.7814L54.1964 63.3813L54.464 63.4307L54.4803 63.3427L86.2136 63.128C86.6688 64.6387 87.188 66.132 87.7703 67.604L88.6563 69.844C89.1307 71.0427 90.2891 71.8307 91.5787 71.8307H104.384C107.28 71.8307 110.171 71.5987 113.031 71.136L124.125 69.3373L130.372 70.8253C131.515 71.0973 132.685 71.2347 133.86 71.2347H135.615V70.196C135.615 69.4533 135.012 68.8507 134.268 68.8507C133.652 68.8507 133.04 68.7507 132.456 68.5534L130.324 67.8347C129.353 67.5053 128.489 66.9213 127.824 66.1413L125.028 62.864L158.913 62.6347L166.568 73.388ZM121.885 64.8227L106.993 63.332C106.353 63.2693 105.713 63.2373 105.073 63.2373C103.14 63.2373 101.213 63.5267 99.36 64.1L97.0293 64.8227L96.8627 64.0707C96.7893 63.7333 96.7213 63.396 96.66 63.0573L123.332 62.876C123.325 62.884 123.319 62.892 123.313 62.9L121.885 64.8227Z" fill="#DC9632"/>
<path id="path176" d="M134.268 62.168C133.652 62.168 133.04 62.068 132.456 61.8707L130.324 61.152C129.353 60.824 128.489 60.2387 127.824 59.46L125.009 56.16C124.557 55.6293 123.728 55.6573 123.313 56.2173L121.885 58.14L106.993 56.6507C104.423 56.3933 101.828 56.6547 99.36 57.4187L97.0293 58.14L96.8627 57.3894C96.3667 55.144 96.1693 52.8493 96.272 50.564H92.1255V65.1493H104.384C107.279 65.1493 110.171 64.9173 113.029 64.4533L124.125 62.656L130.372 64.1427C131.515 64.416 132.685 64.5533 133.86 64.5533H135.615V63.5147C135.615 62.7707 135.012 62.168 134.268 62.168Z" fill="#D4533A"/>
<path id="path178" d="M116.573 57.6093L106.993 56.6507C104.423 56.3933 101.828 56.6547 99.36 57.4187L97.0293 58.14L96.8627 57.3894C96.3667 55.144 96.1693 52.8493 96.272 50.564H92.1255V65.1493H104.384C107.279 65.1493 110.171 64.9173 113.029 64.4533L116.573 63.88V62.0507L110.436 61.016L116.573 59.3067V57.6093Z" fill="#223C50"/>
<path id="path180" d="M114.663 62.84L114.536 62.8134C114.381 62.744 114.312 62.5614 114.383 62.408L115.987 58.844C116.056 58.6894 116.237 58.6214 116.392 58.6894C116.547 58.7587 116.615 58.9413 116.547 59.0947L114.943 62.6587L114.663 62.84Z" fill="#223C50"/>
<path id="path182" d="M116.157 62.8853C116.033 62.8853 115.917 62.8093 115.871 62.688L114.484 59.0333C114.424 58.8747 114.504 58.6973 114.663 58.6373C114.82 58.5773 114.997 58.6573 115.057 58.816L116.444 62.4693C116.504 62.628 116.424 62.8053 116.265 62.8653L116.157 62.8853Z" fill="#223C50"/>
<path id="path184" d="M112.9 62.9667L112.775 62.94C112.62 62.8707 112.552 62.6894 112.62 62.5347L114.224 58.9707C114.295 58.816 114.476 58.7481 114.631 58.8161C114.785 58.8867 114.855 59.0681 114.784 59.2227L113.18 62.7867L112.9 62.9667Z" fill="#223C50"/>
<path id="path186" d="M114.395 63.012C114.272 63.012 114.155 62.9374 114.109 62.8134L112.723 59.16C112.663 59.0013 112.743 58.824 112.9 58.764C113.059 58.704 113.236 58.784 113.296 58.9427L114.683 62.596C114.743 62.7547 114.663 62.932 114.504 62.992L114.395 63.012Z" fill="#223C50"/>
<path id="path188" d="M111.212 62.9667L111.085 62.94C110.931 62.8707 110.861 62.6894 110.932 62.5347L112.536 58.9707C112.605 58.816 112.787 58.7481 112.941 58.8161C113.096 58.8867 113.165 59.0681 113.095 59.2227L111.492 62.7867L111.212 62.9667Z" fill="#223C50"/>
<path id="path190" d="M112.707 63.012C112.583 63.012 112.467 62.9374 112.419 62.8134L111.033 59.16C110.973 59.0013 111.053 58.824 111.212 58.764C111.369 58.704 111.547 58.784 111.608 58.9427L112.993 62.596C113.053 62.7547 112.973 62.932 112.815 62.992L112.707 63.012Z" fill="#223C50"/>
<path id="path192" d="M54.6188 47.8787C52.7765 47.9613 51.2016 46.5213 51.1193 44.68L50.1469 25.0266C50.0645 23.1853 51.5041 21.6093 53.3459 21.5266C55.1875 21.444 56.7625 22.884 56.8453 24.7253L57.8172 44.3787C57.8995 46.2213 56.4609 47.796 54.6188 47.8787Z" fill="#D4533A"/>
<path id="path194" d="M51.1745 44.748L51.3693 62.4907C51.3484 62.6054 51.3235 62.724 51.2964 62.8507L54.464 63.4307L57.674 45.94C58.0016 44.1534 56.8073 42.4227 55.0208 42.0947H55.0203C53.2328 41.7667 51.5027 42.96 51.1745 44.748Z" fill="#D4533A"/>
<path id="path196" d="M52.7631 61.1947V61.188C50.8781 61.12 47.7281 60.6147 45.4063 61.104L39.6224 63.444C39.2703 63.5867 39.2271 64.0813 39.5599 64.264C40.7052 64.8933 43.8516 64.728 46.2177 64.5613C47.3011 64.4853 48.2208 64.408 48.7099 64.4093H52.5869L52.6823 64.4187C53.524 64.4187 54.2073 63.696 54.2073 62.8027C54.2073 61.94 53.5672 61.2413 52.7631 61.1947Z" fill="#D4533A"/>
<path id="path198" d="M53.7505 21.4467L47.3125 14.6894L42.5328 17.7987L42.7421 18.6374L41.5948 20.0307L42.0312 20.1747C42.7735 20.42 43.3391 21.0294 43.5287 21.788L47.8224 26.4534L53.7505 21.4467Z" fill="#F0724E"/>
<path id="path200" d="M43.4437 21.524C43.3229 21.2067 43.1339 20.924 42.8932 20.6933C43.1339 20.924 43.3235 21.2067 43.4448 21.5227C43.4448 21.5227 43.4443 21.5227 43.4437 21.524ZM42.8907 20.6907C42.8885 20.6893 42.886 20.6867 42.8839 20.6853C42.886 20.6867 42.8885 20.6893 42.8907 20.6907ZM42.876 20.6773C42.8751 20.676 42.8745 20.676 42.8735 20.6747C42.8745 20.676 42.8751 20.676 42.876 20.6773Z" fill="#DEBAA1"/>
<path id="path202" d="M43.4448 21.5227C43.3235 21.2067 43.1339 20.924 42.8932 20.6933C42.8921 20.6933 42.8917 20.692 42.8907 20.6907C42.8885 20.6893 42.886 20.6867 42.8839 20.6854C42.8812 20.6827 42.8787 20.68 42.876 20.6774C42.8751 20.676 42.8745 20.676 42.8735 20.6747C42.636 20.452 42.35 20.28 42.0312 20.1747L41.5973 20.032C42.0229 20.0187 42.4473 19.9787 42.8683 19.9134L43.6021 19.7987C44.7927 19.612 45.8136 18.8613 46.3479 17.792C46.2385 19.8773 44.538 21.008 43.4448 21.5227Z" fill="#D3583A"/>
<path id="path204" d="M44.0703 10.204C43.9745 13.7894 46.4823 16.764 49.6713 16.8494C52.8599 16.9347 55.5229 14.0974 55.6188 10.512C55.714 6.92671 53.2063 3.9507 50.0177 3.86537C46.8287 3.78137 44.1661 6.6187 44.0703 10.204Z" fill="#682B22"/>
<path id="path206" d="M55.638 12.3427L55.5443 12.3413C54.8349 12.3133 54.2104 11.968 53.6901 11.3133L53.7297 10.964L54.0797 11.004C54.5052 11.5386 55.0047 11.8213 55.5625 11.844C56.838 11.9013 58.0604 10.6093 58.0724 10.596L58.424 10.584L58.4355 10.936C58.3812 10.9946 57.1047 12.3427 55.638 12.3427Z" fill="#682B22"/>
<path id="path208" d="M50.7188 19.696L50.6989 19.6947C50.6172 19.6894 48.6901 19.5267 47.7973 18.3121C47.3771 17.7401 47.2579 17.0361 47.4437 16.2214C47.474 16.0881 47.6047 16 47.7417 16.0347C47.8755 16.0654 47.9594 16.1987 47.9287 16.332C47.7766 17 47.8672 17.5654 48.1973 18.0161C48.9536 19.0454 50.7208 19.1974 50.7375 19.1987C50.8751 19.2107 50.9771 19.3294 50.9661 19.4667C50.9557 19.5974 50.8469 19.696 50.7188 19.696Z" fill="#682B22"/>
<path id="path210" d="M50.8563 19.3654C50.074 19.3654 48.8145 19.2294 48.1323 18.44C47.6489 17.88 47.5407 17.104 47.8115 16.1307C47.8484 15.9974 47.9823 15.92 48.1172 15.9573C48.25 15.9933 48.3276 16.132 48.2907 16.264C48.0672 17.0654 48.1412 17.6894 48.5093 18.1147C49.3511 19.0894 51.4505 18.8374 51.4729 18.836C51.6031 18.8134 51.7328 18.9147 51.7511 19.052C51.7677 19.188 51.6713 19.312 51.5355 19.3294C51.5031 19.3334 51.236 19.3654 50.8563 19.3654Z" fill="#682B22"/>
<path id="path212" d="M38.7677 4.99331C37.9344 8.08265 40.5907 11.4866 44.7 12.5946C48.8093 13.7013 52.8161 12.0947 53.6489 9.00399C54.4823 5.91332 51.826 2.51069 47.7167 1.40269C43.6073 0.294687 39.6005 1.90265 38.7677 4.99331Z" fill="#682B22"/>
<path id="path214" d="M47.564 2.28136C51.3156 3.29336 53.8479 6.21869 53.626 9.07202L53.6489 9.00402C54.4823 5.91469 51.826 2.51072 47.7167 1.40272C43.6073 0.294719 39.6005 1.90268 38.7677 4.99334C38.6953 5.26134 38.6584 5.53202 38.6375 5.80402C39.5109 2.75869 43.4849 1.18136 47.564 2.28136Z" fill="#B14B3C"/>
<path id="path216" d="M49.9093 7.09736C49.8406 9.67736 51.7625 11.8214 54.2021 11.8867C56.6421 11.9507 58.675 9.91336 58.7442 7.33336C58.8125 4.75336 56.8906 2.60934 54.451 2.54401C52.012 2.47867 49.9781 4.51736 49.9093 7.09736Z" fill="#682B22"/>
<path id="path218" d="M50.3855 7.57069C50.4536 4.99069 52.4875 2.95204 54.9271 3.01737C55.9417 3.04404 56.864 3.43468 57.5932 4.06268C56.8131 3.15868 55.7011 2.57733 54.4511 2.544C52.012 2.47867 49.9781 4.51735 49.9093 7.09735C49.8693 8.60402 50.5109 9.95869 51.536 10.84C50.7937 9.98003 50.3516 8.82936 50.3855 7.57069Z" fill="#B14B3C"/>
<path id="path220" d="M49.0703 12.092L49.0292 12.0907C45.1401 11.772 42.4896 10.608 41.1511 8.63338C39.7036 6.49605 40.3745 4.23472 40.4036 4.14006C40.4839 3.87739 40.7615 3.73203 41.0235 3.81069C41.286 3.89069 41.4344 4.16675 41.3558 4.43075C41.3495 4.44941 40.7995 6.35207 41.9839 8.08674C43.1484 9.7934 45.5459 10.8067 49.1104 11.0987C49.3839 11.1214 49.5885 11.3614 49.5667 11.6361C49.5453 11.8961 49.3265 12.092 49.0703 12.092Z" fill="#682B22"/>
<path id="path222" d="M45.8636 8.9747L46.2656 10.112C46.2656 10.112 47.1068 12.1854 49.4271 12.016L50.3271 10.6561L51.2344 9.40136L50.6016 8.34804L48.3151 7.94938L46.0729 9.01204L45.8636 8.9747Z" fill="#682B22"/>
<path id="path224" d="M43.2823 5.05999C43.2823 5.05999 40.0651 5.876 39.3891 9.872C39.3297 10.2133 39.1849 10.5347 38.9693 10.8067L37.3104 12.9C37.2 13.0387 37.1697 13.2267 37.2317 13.3933C37.2948 13.564 37.4437 13.688 37.6224 13.7187L38.0432 13.792L38.1771 13.8813L38.2735 14.0307L38.2177 14.3613L37.9016 14.6067L38.1125 15.024L37.9855 15.5213L37.886 15.8013C37.7703 16.1293 38.0125 16.3493 38.1197 16.68L37.6973 17.852C37.536 18.804 38.1907 19.7027 39.1473 19.84L39.7792 19.932C40.8047 20.0787 41.8459 20.0733 42.8683 19.9133L43.6021 19.7987C44.8588 19.6027 45.9265 18.7773 46.4323 17.6107L47.0745 16.1333C50.014 16.6453 52.7005 14.3107 52.5552 11.3307C52.4557 9.29199 51.7823 7.26668 49.75 6.35201C49.75 6.35201 46.3511 4.52799 43.2823 5.05999Z" fill="#F0724E"/>
<path id="path226" d="M38.1197 16.6801C38.0328 16.4107 37.8563 16.2147 37.8557 15.976C37.8552 15.9467 37.8579 15.9174 37.8631 15.8881C37.8953 15.8961 37.9338 15.9014 37.9802 15.9014C38.05 15.9014 38.1374 15.8907 38.2473 15.8627C38.2473 15.8627 38.9636 15.74 39.4527 15.4667C39.1459 16.1854 38.1197 16.6801 38.1197 16.6801Z" fill="#D3583A"/>
<path id="path228" d="M39.7011 15.1827C39.4729 15.1067 38.812 14.8507 38.4036 14.364C38.4036 14.364 38.2579 13.9827 37.8568 14.1547C37.8568 14.1547 37.5953 14.4987 37.974 15C37.974 15 37.6599 15.464 37.7084 15.6733C37.7084 15.6733 37.6391 16.012 38.2473 15.8627C38.2473 15.8627 39.2984 15.6813 39.7235 15.2733L39.7011 15.1827Z" fill="#B73C2B"/>
<path id="path230" d="M38.0432 13.792L38.0203 13.788L37.6224 13.7187C37.4437 13.688 37.2948 13.564 37.2317 13.3933C37.224 13.3733 37.2177 13.352 37.2131 13.3307C37.2177 13.352 37.224 13.3733 37.2317 13.3933C37.2948 13.564 37.4437 13.688 37.6224 13.7187L38.0432 13.792ZM37.2125 13.3293C37.2125 13.3267 37.212 13.3253 37.2115 13.324C37.212 13.3253 37.2125 13.3267 37.2125 13.3293ZM37.2104 13.3187C37.2104 13.3187 37.2104 13.3187 37.2104 13.3174C37.2104 13.3187 37.2104 13.3187 37.2104 13.3187Z" fill="#DEBAA1"/>
<path id="path232" d="M39.1287 13.892C39.1194 13.892 39.1099 13.892 39.1006 13.892C39.1006 13.892 39.0938 13.892 39.0823 13.892C38.974 13.892 38.4068 13.888 38.0432 13.792L37.6224 13.7187C37.4438 13.688 37.2948 13.564 37.2317 13.3933C37.224 13.3733 37.2178 13.352 37.2131 13.3306C37.2131 13.3306 37.2131 13.3293 37.2126 13.3293C37.2126 13.3266 37.212 13.3253 37.2115 13.324C37.2115 13.3226 37.211 13.32 37.2104 13.3187C37.2104 13.3187 37.2104 13.3187 37.2104 13.3173C37.1828 13.18 37.2145 13.036 37.2973 12.9213L37.3198 12.8893C37.3198 12.8893 37.3402 12.9253 37.4522 12.9253C37.5558 12.9253 37.7375 12.8947 38.0542 12.7773C38.0542 12.7773 38.1646 12.7107 38.3412 12.7107C38.5203 12.7107 38.7683 12.7787 39.0355 13.0547C39.1318 13.1533 39.2631 13.216 39.4006 13.216L39.6588 13.1227C39.6588 13.1227 39.7724 13.892 39.1287 13.892Z" fill="#D3583A"/>
<path id="path234" d="M40.1202 10.5561C40.3297 10.3907 40.5849 10.34 40.8317 10.324C40.9562 10.316 41.0812 10.3214 41.2036 10.3347L41.3869 10.3627L41.4781 10.3801L41.5593 10.3974C41.7792 10.4414 42.0036 10.476 42.2213 10.4907L42.5354 10.4841L42.7702 10.3774L42.7833 10.3614L42.8984 10.3481L42.9224 10.4454L42.8702 10.5507L42.7906 10.6334L42.6984 10.692L42.603 10.7334C42.4745 10.776 42.3458 10.7974 42.2208 10.8027C41.9693 10.8147 41.7281 10.7827 41.4891 10.7347C41.362 10.708 41.2688 10.6787 41.1546 10.6614L40.8276 10.6107C40.6098 10.5894 40.3823 10.5854 40.1724 10.6387L40.1614 10.64L40.1036 10.6067L40.1202 10.5561Z" fill="#682B22"/>
<path id="path236" d="M40.9197 10.94C40.8823 11.1587 40.7631 11.32 40.6547 11.3013C40.5464 11.2813 40.4896 11.0893 40.5271 10.8707C40.5656 10.6533 40.6844 10.4907 40.7927 10.5093C40.9011 10.528 40.9584 10.7213 40.9197 10.94Z" fill="#682B22"/>
<path id="path238" d="M40.3724 11.3787L40.3536 11.376L40.3229 11.3253L40.3729 11.2947C40.3755 11.2947 40.5527 11.336 40.6745 11.24C40.7531 11.1787 40.7943 11.0733 40.7964 10.924L40.8385 10.884L40.8797 10.9253C40.8776 11.1013 40.8255 11.2293 40.7255 11.3067C40.5959 11.408 40.4276 11.3893 40.3724 11.3787Z" fill="#682B22"/>
<path id="path240" d="M40.312 8.76667C40.4303 8.66134 40.5527 8.63333 40.6787 8.628C40.8036 8.628 40.9276 8.63201 41.0516 8.64135C41.2989 8.65735 41.5427 8.69999 41.7823 8.75733C42.0224 8.81733 42.2557 8.89467 42.4787 8.99867C42.7011 9.09867 42.9109 9.22534 43.1057 9.36667L43.1151 9.42533L43.0683 9.44135H43.0661C42.8391 9.36935 42.6203 9.29602 42.3927 9.25469C42.1683 9.20536 41.9421 9.17069 41.7156 9.15336C41.4901 9.12936 41.2636 9.12667 41.0391 9.132L40.7041 9.15336L40.3667 9.08135L40.3385 9.064L40.2771 8.80801L40.312 8.76667Z" fill="#682B22"/>
<path id="path242" d="M37.9745 13.3507C38.1098 13.3134 38.2448 13.3027 38.3833 13.3254C38.5161 13.3454 38.665 13.4014 38.7645 13.4867L39.0708 13.596L39.3812 13.468L39.4234 13.472L39.4265 13.504C39.3614 13.6214 39.2364 13.7267 39.0806 13.7454C38.925 13.7667 38.7802 13.7027 38.6682 13.6147C38.5729 13.5281 38.4817 13.4667 38.3614 13.44H38.0021L37.9978 13.4414L37.9417 13.4067L37.9745 13.3507Z" fill="#682B22"/>
<path id="path244" d="M40.6823 3.924C39.9339 6.7 42.4973 9.80533 46.4084 10.8587C50.3188 11.9133 54.0958 10.5187 54.8442 7.74268C55.5926 4.96668 53.0287 1.86135 49.1183 0.80668C45.2079 -0.247987 41.4312 1.148 40.6823 3.924Z" fill="#682B22"/>
<path id="path246" d="M40.8812 4.2667C41.6292 1.49604 45.5494 0.142683 49.6385 1.24535C50.7401 1.54268 51.7369 1.99071 52.5978 2.53604C51.6494 1.78137 50.4677 1.17068 49.1188 0.806678C45.2078 -0.247989 41.4302 1.148 40.6822 3.924C40.2989 5.34666 40.789 6.85467 41.8806 8.12933C40.9417 6.92267 40.5338 5.55604 40.8812 4.2667Z" fill="#B14B3C"/>
<path id="path248" d="M44.2896 6.45067C44.2896 6.45067 43.8303 7.22399 45.2937 8.60532C45.2937 8.60532 45.9292 9.41732 45.5573 10.0387C45.5573 10.0387 44.2849 11.556 45.188 12.276C45.188 12.276 45.8568 12.9373 46.3047 12.4707C46.3047 12.4707 47.2448 11.0773 48.4145 11.8693C48.4145 11.8693 49.6719 12.6173 48.7364 14.4306C48.7364 14.4306 48.2713 15.384 47.2792 15.5773C47.2792 15.5773 46.1188 17.612 48.9349 18.8946C48.9349 18.8946 53.0125 18.9387 54.2427 13.416C54.7536 11.1213 54.0688 8.70133 52.3645 7.084C51.3964 6.16533 50.0005 5.31733 47.9891 4.81333C47.9891 4.81333 45.4615 4.11199 44.5292 5.37332C44.5292 5.37332 44.2427 5.57733 44.2896 6.45067Z" fill="#682B22"/>
<path id="path250" d="M46.7464 15.34C46.6849 15.34 46.6292 15.324 46.5817 15.2894L46.488 15.22L46.6328 15.02C47.1448 14.2067 47.1697 13.3 46.7213 12.908C46.8478 12.7574 47.2385 12.336 47.6693 12.336C47.7734 12.336 47.8797 12.36 47.9849 12.4187C47.9849 12.4187 49.3645 13.296 47.7182 14.76C47.7182 14.76 47.1265 15.34 46.7464 15.34Z" fill="#BE462D"/>
<path id="path252" d="M46.5479 15.7134C46.5183 15.8827 46.3568 15.996 46.1875 15.9667C46.0177 15.9373 45.9041 15.776 45.9344 15.6067C45.9636 15.436 46.1251 15.3227 46.2948 15.352C46.464 15.3827 46.5776 15.544 46.5479 15.7134Z" fill="#923C1D"/>
<path id="path254" d="M47.8224 26.4533L51.5473 22.172C52.9734 20.532 55.4453 20.3253 57.1245 21.704L69.4437 31.8173C70.227 32.4613 71.2093 32.812 72.2229 32.812H74.45C75.0448 32.812 75.6344 32.6907 76.1812 32.456L84.9469 28.6827C86.1484 28.1653 87.4432 27.8987 88.7521 27.8987C93.4828 27.8987 97.3186 31.7333 97.3186 36.4653V47.848C97.3186 49.6213 97.1386 51.3906 96.7813 53.128C96.04 56.7413 96.068 60.4693 96.8626 64.0707L97.0293 64.8227L99.36 64.1C101.828 63.3373 104.423 63.076 106.993 63.332L121.885 64.8227L123.313 62.9C123.728 62.3387 124.557 62.312 125.009 62.8427L127.824 66.1413C128.489 66.9213 129.353 67.5053 130.324 67.8347L132.456 68.5533C133.04 68.7507 133.652 68.8507 134.268 68.8507C135.012 68.8507 135.615 69.4533 135.615 70.196V71.2347H133.86C132.685 71.2347 131.515 71.0973 130.372 70.8253L124.125 69.3373L113.031 71.136C110.171 71.5987 107.28 71.8307 104.384 71.8307H91.5787C90.2891 71.8307 89.1306 71.0427 88.6562 69.844L87.7702 67.604C85.527 61.9333 84.2161 55.9373 83.886 49.848L83.5891 44.3733L82.4921 44.7653C79.8708 45.7013 77.1088 46.18 74.326 46.18H64.9229C62.9661 46.18 61.0588 45.5627 59.4729 44.4147L49.526 37.2227C48.4557 36.4493 47.8224 35.2093 47.8224 33.888V26.4533Z" fill="#F0724E"/>
<path id="path256" d="M57.5937 22.0894L48.0702 33.5894L47.8224 33.888C47.8224 35.2094 48.4557 36.4494 49.526 37.2227L57.1875 42.7627L66.5521 29.444L57.5937 22.0894Z" fill="white"/>
<path id="path258" d="M64.9527 28.1307L55.5 41.5427L57.1875 42.7627L66.5521 29.444L64.9527 28.1307Z" fill="#3D7195"/>
<path id="path260" d="M59.4729 44.4147L57.7579 43.1747L59.4729 44.4147Z" fill="#DEBAA1"/>
<path id="path262" d="M57.7579 43.1747L56.7651 42.4574L57.1724 42.7521L57.7579 43.1747Z" fill="#B9412C"/>
<path id="path264" d="M59.6969 44.5653L59.4729 44.4147L57.7579 43.1747L57.1724 42.752L57.1875 42.7627L58.8823 40.352L59.6969 44.5653Z" fill="#D3583A"/>
<path id="path266" d="M55.2901 24.8707C55.1839 24.4973 55.0057 24.1547 54.7719 23.8573C55.0547 24.0653 55.3068 24.3147 55.5172 24.5973L55.2901 24.8707Z" fill="#D3583A"/>
<path id="path268" d="M56.0803 40.72L55.4245 26.1227C55.4235 26.1054 55.4229 26.0894 55.4219 26.072L55.3979 25.5387C55.3875 25.308 55.3505 25.0854 55.2901 24.8707L55.5172 24.5973C55.9255 25.1427 56.1803 25.812 56.2131 26.5414L58.3349 37.52L56.0803 40.72Z" fill="#DEC2B3"/>
<path id="path270" d="M57.1875 42.7627L57.1724 42.752L56.7651 42.4573L56.138 42.004L56.0803 40.72L58.3349 37.52L58.8823 40.352L57.1875 42.7627Z" fill="#325569"/>
<path id="path272" d="M110.436 67.6973L116.573 65.988V64.2906L106.993 63.3333C104.423 63.076 101.828 63.3373 99.36 64.1L97.0293 64.8227L96.8627 64.0707C96.068 60.4693 96.04 56.7413 96.7813 53.128C97.1387 51.3906 97.3187 49.6213 97.3187 47.848V36.4653C97.3187 31.7333 93.4828 27.8987 88.7527 27.8987C87.4432 27.8987 86.1484 28.1653 84.9469 28.6827L80.976 30.392V45.2453C81.4849 45.1 81.9917 44.944 82.4921 44.7653L83.5891 44.3733L83.886 49.848C84.2161 55.9373 85.5271 61.9333 87.7703 67.604L88.6563 69.844C89.1307 71.0427 90.2891 71.8307 91.5787 71.8307H104.384C107.279 71.8307 110.171 71.5987 113.029 71.136L116.573 70.5613V68.732L110.436 67.6973Z" fill="#3D7195"/>
<path id="path274" d="M49.2005 50.736L49.6355 69.6827C49.6145 69.8053 49.5901 69.9333 49.562 70.068L52.9531 70.648L56.1563 51.9266C56.4839 50.0133 55.186 48.1813 53.2735 47.8533C51.3604 47.5267 49.5271 48.824 49.2005 50.736Z" fill="#F0724E"/>
<path id="path276" d="M49.2005 50.736L49.6355 69.6827C49.6145 69.8053 49.5901 69.9333 49.562 70.068L52.9531 70.648L56.1563 51.9266C56.4839 50.0133 55.186 48.1813 53.2735 47.8533C51.3604 47.5267 49.5271 48.824 49.2005 50.736Z" fill="#F0724E"/>
<path id="path278" d="M53.6891 53.0867L52.5208 53.1387C50.9031 53.212 49.5203 51.948 49.4479 50.3306L48.3484 25.856C48.2755 24.2387 49.5391 22.856 51.1568 22.7827L52.3255 22.7306C53.9427 22.6573 55.3255 23.9213 55.3979 25.5387L56.4973 50.0133C56.5703 51.6307 55.3068 53.0133 53.6891 53.0867Z" fill="#F0724E"/>
<path id="path280" d="M56.162 42.536C56.1615 42.5347 56.1615 42.5347 56.1615 42.5347L56.1375 42.004H56.138L56.162 42.536Z" fill="#B9412C"/>
<path id="path282" d="M56.4729 49.4693L56.1615 42.5347C56.1615 42.5347 56.1615 42.5347 56.162 42.536L56.4713 49.4293C56.4719 49.4427 56.4724 49.456 56.4729 49.4693Z" fill="#B9412C"/>
<path id="path286" d="M56.0797 40.72L55.4219 26.072C55.4229 26.0894 55.4235 26.1054 55.4245 26.1227L56.0803 40.72H56.0797Z" fill="#C0947E"/>
<path id="path288" d="M56.138 42.004H56.1374L56.0797 40.72H56.0802L56.138 42.004Z" fill="#2B4149"/>
<path id="path290" d="M51.6995 22.7587C51.7131 22.7573 51.7271 22.7574 51.7407 22.756C51.7584 22.756 51.776 22.7547 51.7932 22.7547L51.6995 22.7587Z" fill="#D3583A"/>
<path id="path292" d="M56.1885 50.976C56.1031 50.1493 55.726 49.3867 55.1484 48.8174L54.1292 26.1227C54.0541 24.4614 52.8235 23.1134 51.2527 22.8174C51.3989 22.7894 51.5473 22.768 51.6994 22.7587L51.7932 22.7547C51.8292 22.7534 51.8645 22.7534 51.9 22.7534C53.7527 22.7534 55.3115 24.2107 55.4219 26.072L56.0797 40.72L56.1375 42.004L56.1615 42.5347L56.4729 49.4693C56.4912 50.0013 56.388 50.5133 56.1885 50.976Z" fill="#D3583A"/>
<path id="path294" d="M49.2005 50.736L49.6355 69.6827C49.6145 69.8053 49.5901 69.9333 49.562 70.068L52.9531 70.648L56.1563 51.9266C56.4839 50.0133 55.186 48.1813 53.2735 47.8533C51.3604 47.5267 49.5271 48.824 49.2005 50.736Z" fill="#F0724E"/>
<path id="path296" d="M54.1964 63.3814L56.1563 51.9267C56.1573 51.92 56.1584 51.9147 56.1593 51.908C56.1584 51.9147 56.1573 51.92 56.1563 51.9267L54.1964 63.3814ZM56.1604 51.9014C56.1615 51.896 56.162 51.8907 56.1631 51.8867C56.162 51.8907 56.1615 51.896 56.1604 51.9014ZM56.1645 51.876C56.1645 51.8747 56.1651 51.872 56.1651 51.8707C56.1651 51.872 56.1645 51.8747 56.1645 51.876Z" fill="#B9412C"/>
<path id="path298" d="M52.9839 70.4693C52.7489 70.0533 52.3527 69.752 51.8864 69.6586L55.2823 48.9613C55.976 49.7253 56.3339 50.7813 56.1651 51.8707C56.1651 51.872 56.1645 51.8747 56.1645 51.876C56.164 51.8787 56.1636 51.8827 56.1631 51.8867C56.162 51.8907 56.1615 51.896 56.1604 51.9013C56.1599 51.904 56.1599 51.9053 56.1593 51.908C56.1584 51.9147 56.1573 51.92 56.1563 51.9266L54.1964 63.3813L53.9568 64.7813L52.9839 70.4693Z" fill="#D3583A"/>
<path id="path300" d="M51.6688 69.6307V69.6213C49.6557 69.5493 46.2907 69.0093 43.812 69.532L37.6339 72.0307C37.2573 72.184 37.2115 72.712 37.5672 72.908C38.7907 73.58 42.1516 73.4026 44.6787 73.224C45.8355 73.1426 46.8177 73.0613 47.3401 73.0613L51.4812 73.0627L51.5828 73.0733C52.4823 73.0733 53.2115 72.3 53.2115 71.3467C53.2115 70.4253 52.5276 69.6787 51.6688 69.6307Z" fill="#F0724E"/>
<path id="path302" d="M53.2115 71.3307C53.2115 71.3293 53.2115 71.328 53.2115 71.328C53.2115 71.328 53.2115 71.3293 53.2115 71.3307ZM53.2115 71.3107C53.2115 71.3107 53.2115 71.3093 53.2115 71.308C53.2115 71.3093 53.2115 71.3107 53.2115 71.3107ZM53.2109 71.292C53.2104 71.292 53.2104 71.2906 53.2104 71.2906C53.2104 71.2906 53.2104 71.292 53.2109 71.292Z" fill="#DC9632"/>
<path id="path304" d="M40.9724 73.388C39.5246 73.388 38.2307 73.2733 37.5672 72.908C37.3875 72.808 37.3115 72.6254 37.3276 72.448C38.038 72.624 39.0161 72.684 40.0765 72.684C42.5131 72.684 45.3807 72.3613 46.4219 72.3613L50.5636 72.3627L50.6645 72.3733C51.5645 72.3733 52.2943 71.6014 52.2943 70.648C52.2943 70.2933 52.1921 69.9667 52.0188 69.6947C52.6787 69.888 53.1713 70.504 53.2093 71.2547C53.2093 71.2614 53.2099 71.2667 53.2099 71.2733C53.2104 71.2787 53.2104 71.2853 53.2104 71.2907C53.2104 71.2907 53.2104 71.292 53.2109 71.292C53.2109 71.2973 53.2109 71.3027 53.2115 71.308C53.2115 71.3093 53.2115 71.3107 53.2115 71.3107C53.2115 71.3173 53.2115 71.3227 53.2115 71.328C53.2115 71.328 53.2115 71.3293 53.2115 71.3307C53.2115 71.336 53.2115 71.3413 53.2115 71.3467C53.2115 72.3 52.4823 73.0733 51.5828 73.0733L51.4812 73.0627L47.3402 73.0613C47.3391 73.0613 47.3385 73.0613 47.338 73.0613C46.8151 73.0613 45.8344 73.1427 44.6787 73.224C43.523 73.3053 42.1927 73.388 40.9724 73.388Z" fill="#D3583A"/>
<path id="path306" d="M48.8932 33.7107H47.8979V26.316C47.8979 24.9774 48.5375 23.7 49.6099 22.9C50.6797 22.1013 52.0817 21.8493 53.3625 22.224L57.1516 23.336L56.8719 24.292L53.0828 23.18C52.1005 22.892 51.0255 23.084 50.2063 23.6973C49.3844 24.3107 48.8932 25.2907 48.8932 26.316V33.7107Z" fill="white"/>
<path id="path308" d="M83.5891 44.3734L83.7464 47.264C85.603 41.312 87.4197 37.9347 87.4197 37.9347C83.7374 41.7747 83.5891 44.3734 83.5891 44.3734Z" fill="#223C50"/>
<path id="path310" d="M114.663 69.5227L114.536 69.4946C114.381 69.4253 114.312 69.244 114.383 69.0893L115.987 65.5253C116.056 65.3706 116.237 65.3026 116.392 65.3706C116.547 65.4413 116.615 65.6227 116.547 65.7773L114.943 69.3413L114.663 69.5227Z" fill="#3D7195"/>
<path id="path312" d="M116.157 69.5667C116.033 69.5667 115.917 69.492 115.871 69.3693L114.484 65.7147C114.424 65.556 114.504 65.38 114.663 65.32C114.82 65.2587 114.997 65.3387 115.057 65.4973L116.444 69.152C116.504 69.3094 116.424 69.4867 116.265 69.5467L116.157 69.5667Z" fill="#3D7195"/>
<path id="path314" d="M112.9 69.6493L112.775 69.6214C112.62 69.5534 112.552 69.3707 112.62 69.216L114.224 65.652C114.295 65.4987 114.476 65.4293 114.631 65.4987C114.785 65.568 114.855 65.7507 114.784 65.904L113.18 69.468L112.9 69.6493Z" fill="#3D7195"/>
<path id="path316" d="M114.395 69.6947C114.272 69.6947 114.155 69.6187 114.109 69.496L112.723 65.8413C112.663 65.684 112.743 65.5067 112.9 65.4453C113.059 65.3853 113.236 65.4653 113.296 65.624L114.683 69.2773C114.743 69.4373 114.663 69.6133 114.504 69.6733L114.395 69.6947Z" fill="#3D7195"/>
<path id="path318" d="M111.212 69.6493L111.085 69.6214C110.931 69.5534 110.861 69.3707 110.932 69.216L112.536 65.652C112.605 65.4987 112.787 65.4293 112.941 65.4987C113.096 65.568 113.165 65.7507 113.095 65.904L111.492 69.468L111.212 69.6493Z" fill="#3D7195"/>
<path id="path320" d="M112.707 69.6947C112.583 69.6947 112.467 69.6187 112.419 69.496L111.033 65.8413C110.973 65.684 111.053 65.5067 111.212 65.4453C111.369 65.3853 111.547 65.4653 111.608 65.624L112.993 69.2773C113.053 69.4373 112.973 69.6133 112.815 69.6733L112.707 69.6947Z" fill="#3D7195"/>
<path id="path322" d="M81.7906 44.988C81.9948 44.9227 82.2011 44.864 82.4041 44.7933V29.7773L81.7906 30.0413V44.988Z" fill="#223C50"/>
</g>
</svg>
