<svg width="170" height="131" viewBox="0 0 170 131" fill="none" xmlns="http://www.w3.org/2000/svg">
<g id="Group 10">
<path id="path1090" d="M169.456 130.915H0.674683L11.4867 115.724H158.641L169.456 130.915Z" fill="#FBC341"/>
<path id="path1092" d="M162.661 121.371L159.032 116.272L162.661 121.371Z" fill="#DEBAA1"/>
<path id="path1094" d="M168.144 129.075L69.828 124.809L75.3494 124.281C75.892 124.355 76.424 124.495 76.9346 124.699C77.7253 125.015 78.568 125.177 79.4173 125.177H84.3947C85.196 125.177 85.956 124.817 86.464 124.196L86.7373 123.861L85.408 123.319L159.032 116.272L162.661 121.371L168.144 129.075Z" fill="#DC9632"/>
<path id="path1096" d="M83.2947 51.012L87.072 39.5813L92.1427 41.1813L92.164 41.9853L93.5427 42.952L93.188 43.1906C92.5814 43.596 92.2253 44.284 92.2453 45.0133L90.2373 51.6067L83.2947 51.012Z" fill="#F0724E"/>
<path id="path1098" d="M92.2533 44.7547C92.2986 44.2734 92.5093 43.8227 92.844 43.4774C92.5093 43.8214 92.3013 44.272 92.2533 44.7547ZM92.8467 43.4734C92.8493 43.472 92.8507 43.4693 92.852 43.468C92.8507 43.4693 92.8493 43.472 92.8467 43.4734ZM92.86 43.46C92.8613 43.4587 92.8613 43.4587 92.8627 43.4573C92.8613 43.4587 92.8613 43.4587 92.86 43.46Z" fill="#DEBAA1"/>
<path id="path1100" d="M92.2533 44.7547C91.6013 44.644 90.7053 44.3933 89.9533 43.8307L90.008 43.0253C90.4093 43.184 90.8413 43.268 91.28 43.268C91.4133 43.268 91.5466 43.26 91.6813 43.2454L92.368 43.164C92.764 43.1173 93.1546 43.048 93.54 42.9534L93.188 43.1907C93.0693 43.2693 92.96 43.3587 92.8627 43.4573C92.8613 43.4587 92.8613 43.4587 92.86 43.46C92.8573 43.4627 92.8547 43.4653 92.852 43.468C92.8507 43.4693 92.8493 43.472 92.8467 43.4734C92.8453 43.4747 92.8453 43.476 92.844 43.4774C92.5093 43.8227 92.2986 44.2734 92.2533 44.7547Z" fill="#D3583A"/>
<path id="path1102" d="M88.8627 34.7427C89.8454 37.9387 88.336 41.2387 85.492 42.112C82.6493 42.984 79.548 41.1 78.5667 37.904C77.5853 34.7067 79.0946 31.408 81.9373 30.5333C84.7813 29.6613 87.8814 31.5453 88.8627 34.7427Z" fill="#682B22"/>
<path id="path1104" d="M78.3293 39.6307C77.2306 39.6307 76.1999 39.012 76.1479 38.9787L76.0759 38.676L76.3773 38.6027C76.392 38.612 77.8106 39.4667 78.9533 39.0973C79.4519 38.936 79.8333 38.556 80.0826 37.9667L80.372 37.8494L80.488 38.1387C80.1866 38.852 79.7133 39.316 79.0853 39.5187C78.8373 39.5974 78.5826 39.6307 78.3293 39.6307Z" fill="#682B22"/>
<path id="path1106" d="M85.2013 44.9266L84.9946 44.7827L85.1253 44.5C85.14 44.4933 86.6946 43.9146 87.12 42.796C87.304 42.3053 87.2453 41.7693 86.9399 41.2066L87.028 40.908L87.3267 40.996C87.696 41.6786 87.764 42.3373 87.5306 42.9533C87.0346 44.2613 85.3493 44.888 85.2773 44.9133L85.2013 44.9266Z" fill="#682B22"/>
<path id="path1108" d="M84.404 44.796L84.1867 44.608C84.168 44.4867 84.2507 44.3747 84.372 44.3587C84.3907 44.3547 86.3507 44.052 86.864 42.9627C87.0893 42.484 86.9987 41.9027 86.5973 41.2347L86.672 40.9307L86.9733 41.0067C87.4586 41.8093 87.556 42.5307 87.2627 43.1507C86.6467 44.4547 84.5267 44.78 84.436 44.7933L84.404 44.796Z" fill="#682B22"/>
<path id="path1110" d="M92.3253 28.736C93.8466 31.3027 92.3093 35.024 88.896 37.0467C85.48 39.0693 81.48 38.6266 79.96 36.0586C78.4387 33.4893 79.9733 29.7693 83.3893 27.748C86.8053 25.7253 90.804 26.168 92.3253 28.736Z" fill="#682B22"/>
<path id="path1112" d="M83.7467 28.4973C80.6293 30.344 79.084 33.604 79.9973 36.1133L79.96 36.0587C78.4387 33.4893 79.9733 29.7693 83.3893 27.748C86.8053 25.7253 90.804 26.168 92.3253 28.736C92.4586 28.9587 92.5586 29.1933 92.6453 29.432C91.0986 26.9147 87.136 26.4907 83.7467 28.4973Z" fill="#B14B3C"/>
<path id="path1114" d="M82.8426 33.4107C83.5479 35.7107 82.3586 38.1174 80.1826 38.7854C78.008 39.4534 75.672 38.1293 74.9653 35.8293C74.2587 33.528 75.4493 31.1227 77.6253 30.4547C79.8 29.7867 82.1373 31.1094 82.8426 33.4107Z" fill="#682B22"/>
<path id="path1116" d="M82.5333 33.9547C81.8267 31.6534 79.4906 30.3307 77.3146 30.9987C76.412 31.276 75.68 31.8587 75.1827 32.604C75.656 31.5973 76.5107 30.7974 77.6253 30.4547C79.8 29.7867 82.1373 31.1094 82.8426 33.4107C83.2546 34.7534 83.0173 36.132 82.316 37.18C82.768 36.2214 82.8773 35.076 82.5333 33.9547Z" fill="#B14B3C"/>
<path id="path1118" d="M84.72 37.6814C84.54 37.6814 84.372 37.572 84.3067 37.3933C84.2227 37.164 84.34 36.912 84.568 36.8267C87.704 35.6707 89.6094 34.156 90.232 32.3267C90.864 30.4613 89.8894 28.88 89.88 28.864C89.7494 28.6587 89.8107 28.388 90.016 28.256C90.22 28.1267 90.4934 28.1867 90.624 28.3907C90.6734 28.4693 91.8347 30.3227 91.072 32.5933C90.364 34.6947 88.28 36.3987 84.872 37.6534L84.72 37.6814Z" fill="#682B22"/>
<path id="path1120" d="M86.9467 34.0854L86.8679 35.208C86.8679 35.208 86.632 37.28 84.5053 37.708L83.3573 36.712L82.228 35.8107L82.5333 34.7067L84.488 33.7773L86.7666 34.172L86.9467 34.0854Z" fill="#682B22"/>
<path id="path1122" d="M88.2867 29.924C88.2867 29.924 91.38 29.8546 92.9867 33.2746C93.1253 33.5666 93.336 33.8186 93.5973 34.0106L95.6107 35.4746C95.7454 35.5733 95.8173 35.7346 95.804 35.9C95.7907 36.068 95.688 36.216 95.5346 36.2893L95.176 36.46L95.0774 36.5733L95.028 36.732L95.16 37.0147L95.5054 37.156L95.42 37.5827L95.6587 37.9986L95.8173 38.2253C96.004 38.4906 95.8413 38.748 95.828 39.0733L96.5 40.0213C96.8827 40.836 96.52 41.8053 95.6934 42.1693L95.148 42.4093C94.264 42.7973 93.328 43.052 92.368 43.164L91.6813 43.2453C90.504 43.3813 89.3387 42.908 88.592 41.9853L87.6467 40.8187C85.1347 42.0147 82.1374 40.588 81.524 37.8733C81.1027 36.0186 81.2013 34.0293 82.8 32.7C82.8 32.7 85.3973 30.2133 88.2867 29.924Z" fill="#F0724E"/>
<path id="path1124" d="M95.828 39.0733C95.828 39.0733 94.7813 38.8853 94.3267 38.316C94.5693 38.3747 94.8493 38.3893 95.0759 38.3893C95.3239 38.3893 95.5093 38.3707 95.5093 38.3707C95.6839 38.3653 95.7933 38.336 95.86 38.2973C95.8947 38.368 95.9066 38.44 95.9066 38.512C95.9066 38.6853 95.836 38.8653 95.828 39.0733Z" fill="#D3583A"/>
<path id="path1126" d="M94.032 38.124C94.2186 37.9973 94.7493 37.6027 94.9946 37.064C94.9946 37.064 95.0293 36.6853 95.432 36.7387C95.432 36.7387 95.7533 36.9827 95.5373 37.5267C95.5373 37.5267 95.9359 37.8653 95.9453 38.0667C95.9453 38.0667 96.0919 38.3533 95.5093 38.3707C95.5093 38.3707 94.5199 38.4707 94.0346 38.2093L94.032 38.124Z" fill="#B73C2B"/>
<path id="path1128" d="M95.176 36.46L95.5346 36.2894C95.688 36.2161 95.7906 36.068 95.804 35.9C95.808 35.8614 95.8067 35.824 95.8 35.788C95.8067 35.824 95.808 35.8614 95.804 35.9C95.7906 36.068 95.688 36.2161 95.5346 36.2894L95.1946 36.4507L95.176 36.46Z" fill="#DEBAA1"/>
<path id="path1130" d="M94.0653 36.844C93.6293 36.844 93.556 36.2626 93.556 36.2626L93.8107 36.2813C93.9347 36.2467 94.0373 36.1573 94.0987 36.0453C94.34 35.604 94.648 35.54 94.8066 35.54C94.872 35.54 94.912 35.5507 94.912 35.5507C95.02 35.56 95.112 35.564 95.1893 35.564C95.5746 35.564 95.5987 35.4693 95.5987 35.4693L95.628 35.4906C95.72 35.5653 95.7813 35.672 95.8 35.788C95.8066 35.824 95.808 35.8613 95.804 35.9C95.7906 36.068 95.6879 36.216 95.5346 36.2893L95.176 36.46C94.8386 36.656 94.2506 36.8133 94.2506 36.8133C94.1826 36.8347 94.12 36.844 94.0653 36.844Z" fill="#D3583A"/>
<path id="path1132" d="M92.5 34.0733C92.2707 33.9747 92.0293 33.9933 91.8027 34.04L91.4706 34.144L91.3133 34.2147L91.2373 34.252L91.168 34.2893C90.9813 34.3827 90.788 34.4707 90.596 34.5373L90.312 34.6093L90.076 34.5733L90.06 34.5613L89.9533 34.5787L89.956 34.672L90.028 34.7533L90.1213 34.808L90.2187 34.8373L90.3133 34.852C90.44 34.8573 90.5613 34.8453 90.6747 34.8173C90.904 34.7653 91.1133 34.6773 91.3146 34.5747L91.5973 34.424L91.8786 34.2987C92.0693 34.2253 92.272 34.164 92.4733 34.1586H92.484L92.528 34.112L92.5 34.0733Z" fill="#682B22"/>
<path id="path1134" d="M91.8773 34.616C91.9667 34.804 92.1133 34.9174 92.2066 34.8747C92.3 34.8307 92.3027 34.6427 92.2133 34.4573C92.1253 34.2693 91.9773 34.1534 91.884 34.1974C91.792 34.2427 91.7893 34.4294 91.8773 34.616Z" fill="#682B22"/>
<path id="path1136" d="M92.48 34.8733L92.496 34.8653L92.5106 34.8133L92.4586 34.7986C92.456 34.8 92.3066 34.88 92.1733 34.8253C92.0866 34.7893 92.0253 34.704 91.9853 34.572L91.9373 34.5453L91.9106 34.5933C91.9573 34.7506 92.0346 34.8533 92.144 34.8973C92.2866 34.956 92.432 34.8973 92.48 34.8733Z" fill="#682B22"/>
<path id="path1138" d="M91.8813 32.512C91.748 32.4467 91.632 32.452 91.5173 32.4787L91.1867 32.5854C90.968 32.66 90.7574 32.7587 90.5574 32.8707C90.3574 32.984 90.1667 33.112 89.9934 33.26C89.8174 33.4067 89.6614 33.5747 89.5214 33.748L89.5267 33.8054L89.5747 33.8067H89.576C89.7613 33.6854 89.94 33.564 90.1346 33.4707C90.3226 33.3694 90.5187 33.2827 90.716 33.2094C90.9147 33.1334 91.116 33.0747 91.3187 33.0227L91.6253 32.9574L91.912 32.808L91.932 32.7867L91.9214 32.54L91.8813 32.512Z" fill="#682B22"/>
<path id="path1140" d="M95.1267 36.0453C94.9947 36.0467 94.8707 36.0706 94.752 36.1253L94.4506 36.3653L94.2013 36.54L93.892 36.5027L93.856 36.5173L93.8613 36.5467C93.948 36.636 94.0866 36.6987 94.2306 36.6773C94.376 36.6573 94.4906 36.564 94.5693 36.456L94.8013 36.2227L95.124 36.1333H95.128L95.1706 36.0867L95.1267 36.0453Z" fill="#682B22"/>
<path id="path1142" d="M90.3387 28.2546C91.704 30.5613 90.1774 33.9906 86.9267 35.916C83.6787 37.84 79.936 37.5293 78.5707 35.2227C77.204 32.9147 78.732 29.4853 81.9813 27.5613C85.232 25.6386 88.972 25.948 90.3387 28.2546Z" fill="#682B22"/>
<path id="path1144" d="M90.2453 28.612C88.8813 26.3093 85.0226 26.0733 81.624 28.084C80.708 28.628 79.924 29.2787 79.288 29.984C79.9506 29.0707 80.8613 28.2253 81.9813 27.5613C85.2319 25.6387 88.9719 25.948 90.3386 28.2547C91.0386 29.436 90.9759 30.912 90.3119 32.3307C90.8559 31.0133 90.8799 29.684 90.2453 28.612Z" fill="#B14B3C"/>
<path id="path1146" d="M87.7293 31.424C87.7293 31.424 88.3347 32.0053 87.3653 33.6107C87.3653 33.6107 86.9973 34.5 87.4866 34.9653C87.4866 34.9653 89.0093 36.0107 88.3773 36.884C88.3773 36.884 87.9413 37.644 87.4226 37.336C87.4226 37.336 86.2306 36.3187 85.3773 37.3227C85.3773 37.3227 84.4346 38.3093 85.728 39.704C85.728 39.704 86.384 40.444 87.324 40.3706C87.324 40.3706 88.8747 41.908 86.6653 43.7653C86.6653 43.7653 83.0133 44.8226 80.5293 40.1693C79.496 38.236 79.5066 35.8907 80.6346 34.012C81.2733 32.944 82.316 31.8347 83.9973 30.8787C83.9973 30.8787 86.0919 29.6173 87.2453 30.5187C87.2453 30.5187 87.5533 30.6293 87.7293 31.424Z" fill="#682B22"/>
<path id="path1148" d="M88.0146 40.3093C88.0826 40.4547 88.256 40.5173 88.4027 40.448C88.5467 40.3787 88.608 40.2053 88.5387 40.06C88.4693 39.916 88.2973 39.8547 88.152 39.9227C88.008 39.992 87.9453 40.1653 88.0146 40.3093Z" fill="#923C1D"/>
<path id="path1150" d="M89.6214 50.228H86.2587C83.42 50.228 81.1187 52.5293 81.1187 55.368V60.2693C81.1187 66.08 76.4093 70.7894 70.6 70.7894C65.384 70.7894 61.156 75.0173 61.156 80.232C61.156 83.4747 62.6534 86.536 65.2134 88.528L65.5987 88.8267C71.184 93.1707 77.608 96.308 84.4667 98.0427C80.1987 101.677 76.644 106.071 73.9787 111.001L68.7947 120.592C68.5693 121.011 68.4693 121.484 68.5067 121.959C68.608 123.236 69.676 124.221 70.9574 124.221H74.4533C75.304 124.221 76.1453 124.383 76.9347 124.699C77.7253 125.015 78.568 125.177 79.4173 125.177H84.3947C85.196 125.177 85.956 124.817 86.464 124.196L86.7373 123.861L75.62 119.32L93.728 101.113C95.72 99.1107 95.648 95.8533 93.572 93.9387L80.64 82.0253L92.116 73.6573L97.0947 67.208C98.4973 65.3933 98.676 62.9147 97.5494 60.9174L92.452 51.8813C91.8747 50.86 90.7934 50.228 89.6214 50.228Z" fill="#F0724E"/>
<path id="path1152" d="M90.1786 75.0707L92.116 73.6573L90.1786 75.0707ZM92.116 73.6573L93.8066 71.4667C93.8066 71.4667 93.8066 71.4667 93.8066 71.468L92.116 73.6573ZM79.0893 66.4814L79.0813 66.4747C79.5893 65.78 80.0187 65.024 80.3467 64.2147C80.348 64.216 80.3507 64.2174 80.352 64.2174C80.2453 64.4827 80.128 64.74 80.0013 64.9933C79.9973 65 79.9946 65.0054 79.992 65.012C79.9893 65.0147 79.988 65.0187 79.9866 65.0214C79.9186 65.1547 79.8493 65.2854 79.776 65.4147C79.568 65.7854 79.3386 66.1414 79.0893 66.4814Z" fill="#DEBAA1"/>
<path id="path1154" d="M90.1786 75.0707L79.0893 66.4814C79.3386 66.1414 79.5679 65.7854 79.7759 65.416L92.116 73.6573L90.1786 75.0707ZM79.9866 65.0214C79.988 65.0187 79.9893 65.0147 79.992 65.012C79.9893 65.0147 79.988 65.0187 79.9866 65.0214ZM80.0013 64.9933C80.1279 64.74 80.2453 64.4827 80.352 64.2174C80.352 64.2187 80.352 64.2174 80.352 64.2187C80.2453 64.4827 80.1279 64.74 80.0013 64.9933Z" fill="#D3583A"/>
<path id="path1156" d="M92.6453 56.2533V52.2253L92.452 51.8813C92.2333 51.4947 91.9426 51.1653 91.6026 50.904V55.3973C91.6026 58.1093 89.384 60.328 86.672 60.328C83.9613 60.328 81.7426 58.1093 81.7426 55.3973V52.9147C81.3453 53.6427 81.1186 54.4787 81.1186 55.368V60.2693C81.1186 62.14 80.6319 63.8947 79.7759 65.4147L92.116 73.6573L97.0946 67.208C98.1986 65.78 98.5306 63.9427 98.0786 62.2507C95.0399 61.9507 92.6453 59.368 92.6453 56.2533Z" fill="white"/>
<path id="path1158" d="M80.7759 62.9413C80.5479 63.816 80.2093 64.6453 79.7759 65.416L92.116 73.6573L94.0106 71.204L80.7759 62.9413Z" fill="#3D7195"/>
<path id="path1160" d="M93.572 93.9387L80.64 82.0253L82.0813 80.9747L73.8453 70.2787C72.8227 70.6093 71.732 70.7894 70.6 70.7894C65.384 70.7894 61.156 75.0173 61.156 80.232C61.156 83.4747 62.6534 86.536 65.2134 88.528L65.5987 88.8267C71.184 93.1707 77.608 96.308 84.4667 98.0427C80.1987 101.677 76.644 106.071 73.9787 111.001L73.3707 112.125L75.428 112.903L81.2987 107.639L78.2813 113.979L80.2067 114.708L93.728 101.113C95.72 99.1107 95.648 95.8533 93.572 93.9387Z" fill="#3D7195"/>
<path id="path1162" d="M87.88 27.3653L87.4839 27.3387C85.7266 27.2173 84.1906 28.5547 84.0679 30.312L82.4907 53.1427C82.368 54.9 83.7067 56.4373 85.4653 56.5586L85.8586 56.5853C87.6173 56.708 89.1546 55.3693 89.2759 53.612L90.8546 30.7827C90.976 29.024 89.6373 27.4867 87.88 27.3653Z" fill="#F0724E"/>
<path id="path1164" d="M85.7226 56.576C85.7026 56.576 85.6827 56.5747 85.6627 56.5734C85.648 56.572 85.6333 56.5707 85.6173 56.5693L85.7226 56.576Z" fill="#D3583A"/>
<path id="path1166" d="M89.5106 50.228H89.5093L89.952 43.8293L89.9533 43.8307L89.5106 50.228Z" fill="#D3583A"/>
<path id="path1168" d="M89.9533 43.8307L89.952 43.8293L90.008 43.0253L89.9533 43.8307Z" fill="#B8442B"/>
<path id="path1170" d="M90.008 43.0253L90.5733 34.8373C90.5746 34.8373 90.5747 34.8373 90.5747 34.8373L90.008 43.0253ZM90.5946 34.5387L90.6853 33.2214H90.6866L90.5946 34.5373V34.5387ZM90.716 32.7867L90.8453 30.912C90.844 30.9347 90.8427 30.9573 90.8413 30.9787L90.716 32.7867Z" fill="#D3583A"/>
<path id="path1172" d="M90.5733 34.8373L90.5947 34.5387V34.5373L90.5747 34.8373C90.5747 34.8373 90.5746 34.8373 90.5733 34.8373Z" fill="#59231C"/>
<path id="path1174" d="M90.6853 33.2214L90.716 32.7867L90.6866 33.2214H90.6853Z" fill="#59231C"/>
<path id="path1176" d="M89.2853 53.4787L89.5093 50.228H89.5107L89.2907 53.4147C89.2893 53.436 89.2867 53.4574 89.2853 53.4787Z" fill="#D3583A"/>
<path id="path1178" d="M85.8973 56.5814C85.84 56.5814 85.7813 56.58 85.7227 56.576L85.6173 56.5693C85.4733 56.556 85.332 56.532 85.1934 56.5027C86.7134 56.2533 87.9307 54.984 88.0413 53.384L89.4893 32.436C89.736 32.212 89.944 31.9547 90.1107 31.676C90.608 30.8907 90.6974 30.1174 90.588 29.444C90.7774 29.896 90.8706 30.3947 90.8453 30.912L90.716 32.7867L90.6854 33.2214L90.5947 34.5387L90.5733 34.8374L90.008 43.0253L89.952 43.8293L89.5093 50.228L89.2854 53.4787C89.1307 55.2347 87.6427 56.5814 85.8973 56.5814Z" fill="#D3583A"/>
<path id="path1180" d="M84.1946 31.508L78.9146 14.0187L78.732 13.688L81.664 12.14L90.2093 28.332C91.0826 29.9866 90.444 32.0546 88.7893 32.9266C87.1346 33.8013 85.0666 33.1613 84.1946 31.508Z" fill="#F0724E"/>
<path id="path1182" d="M90.5226 29.1334C90.5146 29.1174 90.5066 29.1027 90.5 29.0881C90.4346 28.8307 90.3386 28.576 90.2093 28.332C90.3346 28.5694 90.4466 28.8387 90.5226 29.1334Z" fill="#99392D"/>
<path id="path1184" d="M90.588 29.444C90.5787 29.42 90.568 29.3974 90.5587 29.3747C90.5427 29.2787 90.5227 29.1827 90.5 29.088C90.5067 29.1027 90.5147 29.1174 90.5227 29.1334C90.5493 29.2334 90.5707 29.3374 90.588 29.444Z" fill="#D3583A"/>
<path id="path1186" d="M90.1107 31.676C90.5213 30.992 90.6866 30.1747 90.5586 29.3747C90.568 29.3973 90.5787 29.42 90.588 29.444C90.6973 30.1173 90.608 30.8907 90.1107 31.676Z" fill="#B8442B"/>
<path id="path1188" d="M89.684 32.2386L81.196 13.9093C81.56 13.5827 81.764 13.1307 81.764 12.6773C81.7653 12.5 81.7347 12.3227 81.6707 12.1533L90.2093 28.332C90.3387 28.576 90.4347 28.8307 90.5 29.088C90.5227 29.1827 90.5427 29.2786 90.5587 29.3747C90.6867 30.1746 90.5214 30.992 90.1107 31.676C89.992 31.864 89.8507 32.0506 89.684 32.2386Z" fill="#D3583A"/>
<path id="path1190" d="M78.6613 13.6427L78.6547 13.6467C77.6707 11.9733 75.6653 9.36931 74.9813 7.02397L74.3054 0.621337C74.264 0.23067 74.6987 -0.05336 75.0294 0.157307C76.692 1.21464 78.8747 6.96666 79.636 8.37599L81.532 11.8893L81.5867 11.9693C82 12.7333 81.668 13.7107 80.8467 14.1547C80.052 14.5827 79.096 14.3493 78.6613 13.6427Z" fill="#F0724E"/>
<path id="path1192" d="M80.796 14.18H80.7973H80.796ZM80.808 14.1747C80.8213 14.168 80.8333 14.1614 80.8467 14.1547C80.976 14.084 81.092 14.0014 81.196 13.9094C81.092 14.0014 80.976 14.084 80.8467 14.1547C80.8333 14.1614 80.8213 14.168 80.808 14.1747Z" fill="#D3583A"/>
<path id="path1194" d="M75.0294 0.15732C74.9814 0.126653 74.9307 0.106659 74.88 0.0959919C74.9307 0.106659 74.9814 0.126653 75.0294 0.15732Z" fill="#DEBAA1"/>
<path id="path1196" d="M80.0106 14.368C79.5813 14.368 79.1719 14.2067 78.8759 13.9107C78.9119 13.9134 78.948 13.9147 78.9853 13.9147C79.2666 13.9147 79.5547 13.8467 79.824 13.7013C80.6453 13.2573 80.976 12.28 80.5653 11.516L80.5106 11.436L78.6133 7.9227C77.9293 6.6547 76.0947 1.88668 74.524 0.168015C74.6027 0.116014 74.6946 0.0866995 74.7893 0.0866995C74.8186 0.0866995 74.8493 0.0893421 74.88 0.0960093C74.9306 0.106676 74.9813 0.126671 75.0293 0.157337C76.692 1.21467 78.8746 6.96669 79.636 8.37602L81.532 11.8894L81.5866 11.9693C81.708 12.1933 81.7653 12.436 81.764 12.6774C81.764 13.1307 81.56 13.5827 81.196 13.9094C81.092 14.0014 80.976 14.084 80.8466 14.1547C80.8333 14.1614 80.8213 14.168 80.808 14.1747C80.804 14.176 80.8013 14.1774 80.7973 14.18H80.796C80.5413 14.308 80.272 14.368 80.0106 14.368Z" fill="#D3583A"/>
<path id="path1198" d="M81.036 110.972L80.964 111.06C80.84 111.159 80.6586 111.139 80.5613 111.016L78.3039 108.184C78.2053 108.06 78.2253 107.881 78.3493 107.781C78.472 107.684 78.652 107.704 78.7506 107.827L81.008 110.659L81.036 110.972Z" fill="#3D7195"/>
<path id="path1200" d="M81.7039 109.807C81.6479 109.911 81.5333 109.973 81.412 109.957L77.82 109.453C77.664 109.431 77.5547 109.287 77.5773 109.131C77.5973 108.973 77.744 108.864 77.9 108.885L81.4907 109.389C81.6467 109.412 81.7559 109.556 81.7346 109.713L81.7039 109.807Z" fill="#3D7195"/>
<path id="path1202" d="M80.4 112.421L80.3253 112.511C80.2013 112.609 80.0213 112.588 79.9226 112.465L77.6653 109.635C77.5667 109.511 77.5853 109.332 77.7107 109.232C77.8347 109.135 78.0147 109.153 78.1133 109.277L80.3706 112.108L80.4 112.421Z" fill="#3D7195"/>
<path id="path1204" d="M81.0666 111.257C81.012 111.361 80.8959 111.423 80.7733 111.407L77.1826 110.903C77.0266 110.88 76.9173 110.736 76.9386 110.58C76.9613 110.424 77.1053 110.313 77.2613 110.336L80.8533 110.84C81.0106 110.861 81.1186 111.007 81.0973 111.163L81.0666 111.257Z" fill="#3D7195"/>
<path id="path1206" d="M79.688 113.759L79.6134 113.848C79.4894 113.947 79.3094 113.925 79.2107 113.803L76.9533 110.972C76.856 110.848 76.8734 110.669 76.9987 110.569C77.1227 110.471 77.3027 110.491 77.4013 110.615L79.6587 113.445L79.688 113.759Z" fill="#3D7195"/>
<path id="path1208" d="M80.3547 112.595C80.3 112.697 80.1853 112.76 80.0627 112.744L76.4706 112.24C76.3133 112.217 76.204 112.073 76.2267 111.917C76.2507 111.76 76.3933 111.651 76.5493 111.673L80.1413 112.177C80.2987 112.199 80.408 112.344 80.3853 112.5L80.3547 112.595Z" fill="#3D7195"/>
<path id="path1210" d="M73.056 70.5C72.7173 70.5813 72.3706 70.6387 72.02 70.6867L80.8759 81.8534L81.6267 81.3053L73.056 70.5Z" fill="#223C50"/>
</g>
</svg>
