<svg width="170" height="60" viewBox="0 0 170 60" fill="none" xmlns="http://www.w3.org/2000/svg">
<g id="Group 1">
<path id="path18" d="M44.7604 25.2373L39.4964 16.492L34.8224 20.8427L35.2145 21.7267L34.2183 23.4867L34.7265 23.5614C35.5932 23.6894 36.3344 24.252 36.6891 25.052L38.576 29.308L44.7604 25.2373Z" fill="#F0724E"/>
<path id="path20" d="M36.5448 24.776C36.2495 24.2827 35.7964 23.904 35.2625 23.7C35.7969 23.904 36.2505 24.2813 36.5459 24.776C36.5453 24.776 36.5453 24.776 36.5448 24.776ZM35.2609 23.7C35.2568 23.6987 35.2522 23.6974 35.2479 23.6947C35.2522 23.6974 35.2568 23.6987 35.2609 23.7ZM35.2421 23.6933C35.2391 23.692 35.2355 23.6907 35.2317 23.6893C35.2355 23.6907 35.2391 23.692 35.2421 23.6933ZM35.2229 23.6853C35.2203 23.6853 35.2177 23.684 35.2151 23.6826C35.2177 23.684 35.2203 23.6853 35.2229 23.6853ZM35.2016 23.6787C35.2006 23.6787 35.1995 23.6773 35.1984 23.6773C35.1995 23.6773 35.2006 23.6787 35.2016 23.6787ZM34.7473 23.564H34.7469H34.7473Z" fill="#DEBAA1"/>
<path id="path22" d="M36.5459 24.776C36.2505 24.2813 35.7969 23.904 35.2625 23.7C35.262 23.7 35.2615 23.7 35.2609 23.7C35.2568 23.6987 35.2521 23.6974 35.2479 23.6947C35.2459 23.6947 35.2443 23.6933 35.2421 23.6933C35.2391 23.692 35.2355 23.6907 35.2317 23.6893C35.2292 23.688 35.226 23.6866 35.2229 23.6853C35.2203 23.6853 35.2177 23.684 35.2151 23.6826C35.2104 23.6813 35.2063 23.68 35.2016 23.6787C35.2005 23.6787 35.1995 23.6773 35.1984 23.6773C35.0593 23.628 34.9151 23.592 34.7672 23.568C34.7604 23.5667 34.7541 23.5654 34.7473 23.564H34.7469C34.7401 23.5627 34.7333 23.5614 34.7265 23.5614L34.2219 23.4867C34.688 23.3893 35.1484 23.264 35.6005 23.1106L36.388 22.8427C37.664 22.4093 38.6459 21.384 39.0292 20.1013C39.3099 22.4227 37.6527 23.9973 36.5459 24.776Z" fill="#D3583A"/>
<path id="path24" d="M35.0563 12.1694C35.6412 16.1427 38.9797 18.9413 42.5145 18.4213C46.0479 17.9013 48.4391 14.2574 47.8536 10.284C47.2688 6.31203 43.9297 3.51205 40.3953 4.03338C36.8615 4.55205 34.4708 8.19605 35.0563 12.1694Z" fill="#682B22"/>
<path id="path26" d="M169.727 59.228H0.945343L11.7584 44.0374H158.913L169.727 59.228Z" fill="#FBC341"/>
<path id="path28" d="M52.3005 54.8347C52.5917 54.4387 52.7833 53.972 52.8516 53.48C52.8792 53.364 52.9011 53.2441 52.9161 53.1228C52.9823 52.5921 52.9287 52.0801 52.7781 51.6094C52.7771 51.6067 52.7765 51.6041 52.7755 51.6014C52.7745 51.5974 52.7735 51.5947 52.7724 51.5907C52.6568 51.2361 52.4864 50.9067 52.2713 50.6094L51.9568 49.5494C55.4448 50.08 58.9672 50.3454 62.4953 50.3454H66.6203H102.149C105.504 50.3454 108.807 49.5241 111.771 47.9534L111.94 47.8641C114.903 46.2934 118.207 45.4721 121.56 45.4721H142.744L156.421 46.0454C156.429 46.0454 156.436 46.0454 156.444 46.0454C156.895 46.0454 157.069 45.4467 156.679 45.2067L154.841 44.0374H158.913L165.235 52.9187L52.3005 54.8347ZM44.2453 48.3681L23.8885 45.3987C23.9219 45.3987 23.9557 45.3987 23.9891 45.3987C23.9907 45.3987 23.9917 45.3987 23.9932 45.3987C23.9973 45.3987 24.0016 45.3987 24.0057 45.3987C25.2864 45.3974 26.7036 45.2947 27.8287 45.2134C28.576 45.1587 29.1943 45.1134 29.5573 45.1134L38.1547 45.1147C39.214 46.6574 40.8771 47.7654 42.8391 48.0827L44.2265 48.3054L44.2453 48.3681ZM20.8027 44.6001L20.4891 44.0374H21.5073L21.0729 44.2134C20.9021 44.2827 20.8093 44.4401 20.8027 44.6001Z" fill="#DC9632"/>
<path id="path30" d="M53.0364 42.0334C53.036 43.7294 51.6479 45.1174 49.9511 45.1174L29.5573 45.1133C28.1047 45.1133 22.5735 45.836 21.0151 44.9787C20.7036 44.808 20.7437 44.3467 21.0729 44.2133L26.4735 42.0293C28.7907 41.54 31.9943 42.1133 33.6907 42.1133L49.9527 38.948C51.6484 38.948 53.0364 40.3374 53.0364 42.0334Z" fill="#D75941"/>
<path id="path32" d="M21.0505 44.9974C21.0495 44.9974 21.0489 44.9974 21.0479 44.9974C21.0489 44.9974 21.0495 44.9974 21.0505 44.9974ZM21.0271 44.9853C21.0229 44.9827 21.0188 44.9814 21.0151 44.9787C21.0125 44.9774 21.0104 44.976 21.0079 44.9747C21.0104 44.976 21.0125 44.9774 21.0151 44.9787C21.0188 44.9814 21.0229 44.9827 21.0271 44.9853ZM21.0079 44.9747C20.9645 44.9507 20.9287 44.92 20.8995 44.8853C20.9292 44.92 20.9645 44.9507 21.0079 44.9747ZM20.8984 44.8853C20.8979 44.884 20.8969 44.8827 20.8964 44.8814C20.8969 44.8827 20.8979 44.884 20.8984 44.8853Z" fill="#DC9632"/>
<path id="path34" d="M23.9932 45.3987C23.9917 45.3987 23.9907 45.3987 23.9891 45.3987C23.9907 45.3987 23.9917 45.3987 23.9932 45.3987ZM24.0057 45.3987C25.2864 45.3973 26.7036 45.2947 27.8287 45.2133C26.7036 45.2947 25.2864 45.3973 24.0057 45.3987ZM38.1547 45.1147L29.5573 45.1133L38.1547 45.1147Z" fill="#C17123"/>
<path id="path36" d="M23.9932 45.3987C23.9918 45.3987 23.9907 45.3987 23.9891 45.3987C22.7495 45.3987 21.6396 45.3014 21.0505 44.9974C21.0495 44.9974 21.049 44.9974 21.0479 44.9974C21.0407 44.992 21.0339 44.9893 21.0271 44.9853C21.0229 44.9827 21.0188 44.9814 21.0151 44.9787C21.0126 44.9774 21.0104 44.976 21.0079 44.9747C20.9645 44.9507 20.9292 44.92 20.8995 44.8853C20.8995 44.8853 20.899 44.8853 20.8984 44.8853C20.8979 44.884 20.8969 44.8827 20.8964 44.8814C20.7803 44.7427 20.776 44.54 20.8698 44.388H33.2448H37.7172C37.8484 44.6387 37.9948 44.8827 38.1547 45.1147L29.5573 45.1133C29.1943 45.1133 28.576 45.1587 27.8287 45.2133C26.7036 45.2947 25.2864 45.3973 24.0057 45.3987C24.0016 45.3987 23.9974 45.3987 23.9932 45.3987Z" fill="#BB4431"/>
<path id="path38" d="M47.7869 12.2147C47.151 12.2147 46.5396 11.9573 45.964 11.4466L45.951 11.2307L46.1683 11.2173C46.7697 11.7507 47.4088 11.9786 48.0661 11.888C49.5421 11.692 50.6702 9.99065 50.6817 9.97332L50.8937 9.92931L50.9391 10.1413C50.8901 10.216 49.724 11.976 48.1084 12.192L47.7869 12.2147Z" fill="#682B22"/>
<path id="path40" d="M43.7557 21.2534C43.062 21.2534 41.6864 21.1401 40.8156 20.3054C40.2683 19.7814 40.0145 19.0614 40.0615 18.1641L40.2219 18.0187L40.3672 18.18C40.3255 18.984 40.5479 19.624 41.0281 20.0827C42.1047 21.1147 44.1349 20.9347 44.1547 20.9321L44.3224 21.0707L44.1844 21.2374C44.1609 21.2401 44.0005 21.2534 43.7557 21.2534Z" fill="#682B22"/>
<path id="path42" d="M43.1631 20.9493C42.4812 20.9493 41.7432 20.8174 41.2027 20.376C40.5953 19.8787 40.3412 19.08 40.4479 17.9987L40.6156 17.8614L40.7531 18.0281C40.6579 19.0001 40.874 19.7107 41.3959 20.1374C42.5625 21.092 44.8973 20.392 44.9213 20.3853L45.1125 20.4867L45.0109 20.6773C44.9511 20.696 44.1104 20.9493 43.1631 20.9493Z" fill="#682B22"/>
<path id="path44" d="M151.684 24.4826C152.177 24.3373 152.163 23.6346 151.665 23.5106L150.199 23.1453C149.079 22.8667 146.095 22.9493 144.948 22.8106L143.677 22.656C143.071 22.5827 142.483 22.4 141.944 22.1147L140.96 21.5947C140.261 21.4213 139.529 21.7 139.107 22.3027L137.749 24.2333L124.069 24.9067C119.901 25.2293 115.871 26.5986 112.324 28.8986C109.26 30.8853 105.828 32.1814 102.252 32.7027L84.0631 34.2347C80.5213 30.9293 75.0573 31.3013 71.9609 35.0587L69.3041 38.284L72.8131 49.4333L103.455 43.5067C106.596 42.4373 109.437 40.5813 111.725 38.0986C113.905 35.7346 116.573 33.916 119.567 32.8973L139.436 27.8186L151.684 24.4826Z" fill="#D4533A"/>
<path id="path46" d="M123.8 27.6334L129.695 26.348V24.6293L124.069 24.9067C119.901 25.2293 115.871 26.5986 112.324 28.8987C109.26 30.8853 105.828 32.1814 102.252 32.7027L84.0631 34.2347C80.5213 30.9293 75.0573 31.3013 71.9609 35.0587L69.3041 38.284L72.8131 49.4333L103.455 43.5067C106.596 42.4373 109.437 40.5813 111.725 38.0986C113.905 35.7346 116.573 33.916 119.567 32.8973L129.695 30.308V28.508L123.8 27.6334Z" fill="#223C50"/>
<path id="path48" d="M47.3312 25.2334L55.3891 33.7546C56.7391 35.1826 58.2969 36.396 60.0104 37.356C61.3303 38.0947 62.8172 38.4826 64.3287 38.4826C65.9484 38.4826 67.5364 38.0387 68.9197 37.1974L73.164 34.6173C77.3927 32.0467 82.9084 33.46 85.3797 37.7466L104.307 39.7027C107.949 40.3534 111.689 40.2333 115.283 39.348L115.453 39.3054C120.353 38.1 128.369 38.104 133.267 39.3133L142.192 41.5173L144.133 40.1227C144.74 39.6867 145.549 39.6573 146.185 40.0493L147.009 40.864C147.199 41.0494 147.395 41.2293 147.597 41.4013C148.567 42.2213 151.991 42.8894 153.212 43.2387C153.661 43.3667 154.088 43.5587 154.483 43.8093L156.679 45.2067C157.076 45.4507 156.889 46.0653 156.421 46.0453L142.744 45.472H121.56C118.207 45.472 114.903 46.2934 111.94 47.864L111.771 47.9533C108.807 49.524 105.504 50.3453 102.149 50.3453H66.6203H62.4953C58.7531 50.3453 55.0177 50.0466 51.3229 49.4493L42.8391 48.0826C39.4271 47.5306 36.9193 44.5867 36.9193 41.1307V31.38C36.9193 28.3933 38.5625 25.6494 41.1953 24.2387C43.2312 23.148 45.7448 23.5547 47.3312 25.2334Z" fill="#F0724E"/>
<path id="path50" d="M55.3891 33.7547L49.3849 27.4054L36.9193 36.988V41.1307C36.9193 44.5867 39.4271 47.5307 42.8391 48.0827L51.3229 49.4493L56.8719 35.1667C56.3536 34.7227 55.8588 34.252 55.3891 33.7547Z" fill="white"/>
<path id="path52" d="M55.3891 33.7547L49.4167 49.1427L51.3229 49.4493L56.8719 35.1667C56.3536 34.7227 55.8588 34.252 55.3891 33.7547Z" fill="#3D7195"/>
<path id="path54" d="M37.8855 37.2947C37.7167 37.2947 37.5797 37.1587 37.5787 36.9893L37.5469 29.776C37.6197 28.1787 38.4536 26.716 39.7771 25.8466C41.676 24.6013 44.1697 24.804 45.8437 26.3373L48.0281 28.3413C48.1531 28.456 48.1615 28.6507 48.0469 28.776C47.9317 28.9 47.7375 28.908 47.6136 28.7947L45.4292 26.7906C43.9636 25.4453 41.7771 25.268 40.1145 26.36C38.9552 27.1213 38.224 28.4013 38.1599 29.788L38.1927 36.9867C38.1932 37.156 38.0568 37.2947 37.8875 37.2947H37.8855Z" fill="white"/>
<path id="path56" d="M55.9677 50.0374C54.6265 49.912 53.2891 49.7507 51.9568 49.5493L51.6656 48.568L53.2661 44.448L55.9677 50.0374ZM46.1292 29.908L45.9552 29.3227C45.9505 29.3067 45.9459 29.2893 45.9407 29.2747C45.9459 29.2893 45.9505 29.3067 45.9552 29.3227L46.2088 29.8467L46.1292 29.908Z" fill="#D3583A"/>
<path id="path58" d="M50.788 45.6094L46.1292 29.908L46.2088 29.8467L52.1417 42.1214L50.788 45.6094Z" fill="#DEC2B3"/>
<path id="path60" d="M51.6656 48.568L50.9505 46.1573L50.788 45.6093L52.1417 42.1213L53.2661 44.448L51.6656 48.568Z" fill="#325569"/>
<path id="path62" d="M41.5245 26.9561C41.5391 26.9521 41.5536 26.948 41.5683 26.944C41.5823 26.9387 41.5969 26.9347 41.6109 26.9307C41.5969 26.9347 41.5823 26.9387 41.5683 26.944L41.5631 26.9454L41.5245 26.9561Z" fill="#D3583A"/>
<path id="path64" d="M130.253 40.8733V38.8227C125.56 38.324 118.792 38.484 115.453 39.3067L115.283 39.348C111.689 40.2333 107.949 40.3534 104.307 39.7027L85.3797 37.7466C82.9084 33.46 77.3926 32.0467 73.164 34.6173L68.9197 37.1974C68.2005 37.6347 67.426 37.9613 66.6202 38.1787V50.3453H102.149C105.504 50.3453 108.807 49.524 111.771 47.9533L111.94 47.864C114.903 46.292 118.207 45.472 121.56 45.472H130.253V43.1413L123.816 42.2227L130.253 40.8733Z" fill="#3D7195"/>
<path id="path66" d="M85.3797 37.7467C85.3797 37.7467 85.7885 39.2427 85.7896 40.6747C85.7896 40.6747 86.3588 39.5347 86.3937 37.852L85.3797 37.7467Z" fill="#223C50"/>
<path id="path68" d="M129.896 44.3067C129.727 44.3067 129.589 44.1694 129.589 44.0001V40.0921C129.589 39.9227 129.727 39.7853 129.896 39.7853C130.065 39.7853 130.203 39.9227 130.203 40.0921V44.0001C130.203 44.1694 130.065 44.3067 129.896 44.3067Z" fill="#3D7195"/>
<path id="path70" d="M127.865 44.1346L127.74 44.108C127.585 44.0386 127.516 43.856 127.585 43.7027L129.191 40.1387C129.259 39.984 129.441 39.916 129.596 39.984C129.751 40.0547 129.819 40.236 129.749 40.3893L128.145 43.9546L127.865 44.1346Z" fill="#3D7195"/>
<path id="path72" d="M129.361 44.18C129.237 44.18 129.12 44.104 129.073 43.9827L127.688 40.328C127.628 40.1694 127.707 39.992 127.865 39.9334C128.024 39.872 128.201 39.952 128.261 40.1107L129.648 43.7653C129.708 43.9227 129.628 44.1 129.469 44.16L129.361 44.18Z" fill="#3D7195"/>
<path id="path74" d="M126.104 44.2627L125.979 44.2347C125.824 44.1667 125.755 43.984 125.824 43.8294L127.428 40.2654C127.499 40.112 127.68 40.0427 127.835 40.112C127.989 40.18 128.057 40.364 127.988 40.5174L126.384 44.0814L126.104 44.2627Z" fill="#3D7195"/>
<path id="path76" d="M127.599 44.3067C127.475 44.3067 127.359 44.232 127.312 44.1094L125.927 40.4547C125.865 40.296 125.945 40.1201 126.104 40.0587C126.263 39.9987 126.44 40.0787 126.5 40.2374L127.887 43.8907C127.945 44.0494 127.867 44.2267 127.708 44.2867L127.599 44.3067Z" fill="#3D7195"/>
<path id="path78" d="M124.415 44.2627L124.289 44.2347C124.135 44.1667 124.065 43.984 124.136 43.8294L125.74 40.2654C125.809 40.112 125.991 40.0427 126.145 40.112C126.3 40.18 126.368 40.364 126.299 40.5174L124.695 44.0814L124.415 44.2627Z" fill="#3D7195"/>
<path id="path80" d="M125.911 44.3067C125.787 44.3067 125.669 44.232 125.623 44.1094L124.237 40.4547C124.177 40.296 124.256 40.1201 124.416 40.0587C124.573 39.9987 124.751 40.0787 124.811 40.2374L126.196 43.8907C126.257 44.0494 126.177 44.2267 126.019 44.2867L125.911 44.3067Z" fill="#3D7195"/>
<path id="path82" d="M67.1557 50.3453H67.7697V37.916L67.7432 37.7933C67.55 37.8733 67.3541 37.948 67.1557 38.0133V50.3453Z" fill="#223C50"/>
<path id="path84" d="M50.7735 55.9079L49.6516 56.2413C48.0995 56.7013 46.4531 55.808 45.9921 54.256L39.0229 30.7693C38.5625 29.2173 39.4557 27.5706 41.0079 27.1106L42.1292 26.7773C43.6812 26.3159 45.3281 27.2093 45.7885 28.7613L52.7579 52.2493C53.2183 53.8013 52.3255 55.4479 50.7735 55.9079Z" fill="#F0724E"/>
<path id="path86" d="M46.1287 29.908L45.9407 29.2747C45.9459 29.2894 45.9505 29.3067 45.9552 29.3227L46.1292 29.908H46.1287Z" fill="#B8442B"/>
<path id="path88" d="M50.788 45.6094L46.1287 29.908H46.1292L50.788 45.6094Z" fill="#C0947E"/>
<path id="path90" d="M50.9505 46.1573L50.788 45.6094L50.9505 46.1573Z" fill="#2B4149"/>
<path id="path92" d="M41.563 26.9454L41.5682 26.944C41.5822 26.9387 41.5969 26.9347 41.6109 26.9307L41.563 26.9454Z" fill="#B8442B"/>
<path id="path94" d="M49.2156 56.22C49.1031 56.22 48.9917 56.2147 48.8807 56.204H49.2609C49.2615 56.204 49.262 56.204 49.2625 56.204C49.2651 56.204 49.2683 56.204 49.2708 56.204H49.4145C49.4151 56.204 49.4151 56.204 49.4156 56.204C49.4751 56.204 49.5344 56.2027 49.5927 56.2001C49.4667 56.2134 49.3407 56.22 49.2156 56.22ZM52.2713 50.6094C51.6844 49.8014 50.7636 49.2494 49.7161 49.1587L43.8303 29.3227C43.486 28.1614 42.5869 27.308 41.5079 26.9654L41.5631 26.9454L41.6109 26.9307C41.9287 26.8414 42.2495 26.7974 42.5656 26.7974C44.0719 26.7974 45.4719 27.7733 45.9407 29.2747L46.1287 29.908L50.788 45.6094L50.9505 46.1574L52.2713 50.6094Z" fill="#D3583A"/>
<path id="path96" d="M129.233 29.9933C129.063 29.9933 128.927 29.8559 128.927 29.6853V25.7786C128.927 25.6093 129.063 25.4706 129.233 25.4706C129.403 25.4706 129.54 25.6093 129.54 25.7786V29.6853C129.54 29.8559 129.403 29.9933 129.233 29.9933Z" fill="#223C50"/>
<path id="path98" d="M127.336 29.46L127.215 29.4347C127.059 29.368 126.988 29.1867 127.056 29.0307L128.597 25.468C128.665 25.312 128.844 25.2413 129.001 25.308C129.157 25.376 129.228 25.556 129.161 25.712L127.619 29.276L127.336 29.46Z" fill="#223C50"/>
<path id="path100" d="M128.775 29.5054C128.649 29.5054 128.532 29.428 128.487 29.3027L127.153 25.6493C127.095 25.4893 127.177 25.3147 127.336 25.256C127.495 25.1974 127.671 25.28 127.729 25.44L129.063 29.0933C129.121 29.252 129.039 29.428 128.88 29.4867L128.775 29.5054Z" fill="#223C50"/>
<path id="path102" d="M125.641 29.5867L125.521 29.5627C125.365 29.4947 125.293 29.3134 125.361 29.1587L126.903 25.5947C126.971 25.4401 127.149 25.3667 127.307 25.4347C127.463 25.5014 127.533 25.6827 127.467 25.8387L125.924 29.4027L125.641 29.5867Z" fill="#223C50"/>
<path id="path104" d="M127.08 29.632C126.955 29.632 126.837 29.5547 126.792 29.4307L125.459 25.776C125.401 25.6173 125.483 25.4413 125.641 25.3826C125.801 25.3253 125.977 25.4067 126.036 25.5667L127.368 29.22C127.427 29.38 127.344 29.5546 127.185 29.6133L127.08 29.632Z" fill="#223C50"/>
<path id="path106" d="M124.017 29.5867L123.896 29.5627C123.741 29.4947 123.669 29.3134 123.736 29.1587L125.279 25.5947C125.347 25.4401 125.525 25.3667 125.683 25.4347C125.837 25.5014 125.909 25.6827 125.843 25.8387L124.3 29.4027L124.017 29.5867Z" fill="#223C50"/>
<path id="path108" d="M125.456 29.632C125.331 29.632 125.213 29.5547 125.168 29.4307L123.835 25.776C123.777 25.6173 123.859 25.4413 124.017 25.3826C124.177 25.3253 124.353 25.4067 124.411 25.5667L125.744 29.22C125.803 29.38 125.72 29.5546 125.561 29.6133L125.456 29.632Z" fill="#223C50"/>
<path id="path110" d="M52.9432 52.676C52.9432 54.616 51.3557 56.204 49.4145 56.204L26.0849 56.2001C24.4235 56.2001 18.0964 57.0267 16.3125 56.0454C15.9573 55.8507 16.0027 55.3214 16.3787 55.1694L22.5573 52.6707C25.2079 52.112 28.8724 52.768 30.8131 52.768L49.4161 49.1467C51.3563 49.1467 52.9443 50.7347 52.9432 52.676Z" fill="#F0724E"/>
<path id="path112" d="M19.7193 56.5254C19.7183 56.5254 19.7167 56.5254 19.7151 56.5254C19.7167 56.5254 19.7183 56.5254 19.7193 56.5254ZM19.7292 56.5254C21.1953 56.5254 22.8188 56.408 24.1068 56.3134C22.8188 56.408 21.1953 56.5254 19.7292 56.5254ZM47.8688 56.2041L26.0849 56.2001C26.0807 56.2001 26.0765 56.2001 26.0724 56.2001C26.0765 56.2001 26.0807 56.2001 26.0849 56.2001L47.8688 56.2041Z" fill="#DC9632"/>
<path id="path118" d="M16.3527 56.0667C16.3489 56.0654 16.3453 56.0627 16.3417 56.0614C16.3453 56.0627 16.3489 56.0654 16.3527 56.0667ZM16.3251 56.052C16.3208 56.0507 16.3167 56.048 16.3125 56.0454C16.3099 56.044 16.3073 56.0427 16.3052 56.0413C16.3073 56.0427 16.3099 56.044 16.3125 56.0454C16.3167 56.048 16.3208 56.0507 16.3251 56.052ZM16.3031 56.04C16.3011 56.0387 16.2989 56.0387 16.2973 56.0374C16.2989 56.0387 16.3011 56.0387 16.3031 56.04ZM16.2953 56.0361C16.2932 56.0347 16.2907 56.0334 16.2885 56.032C16.2907 56.0334 16.2932 56.0347 16.2953 56.0361ZM16.2869 56.0307C16.2849 56.0294 16.2833 56.028 16.2817 56.0267C16.2833 56.028 16.2849 56.0294 16.2869 56.0307ZM16.2792 56.0254C16.2776 56.0241 16.276 56.024 16.2745 56.0227C16.276 56.024 16.2776 56.0241 16.2792 56.0254ZM16.2713 56.02C16.2697 56.02 16.2683 56.0187 16.2661 56.0174C16.2683 56.0187 16.2697 56.02 16.2713 56.02ZM16.2631 56.0147C16.262 56.0134 16.2609 56.0134 16.2599 56.012C16.2609 56.0134 16.262 56.0134 16.2631 56.0147ZM16.2563 56.0094H16.2557H16.2563Z" fill="#DC9632"/>
<path id="path120" d="M52.8516 53.48C52.8521 53.476 52.8527 53.472 52.8531 53.468C52.912 53.2133 52.9432 52.948 52.9432 52.676C52.9432 52.304 52.8855 51.9467 52.7781 51.6094C52.9287 52.08 52.9823 52.592 52.9161 53.1227C52.9011 53.244 52.8792 53.364 52.8516 53.48Z" fill="#C17123"/>
<path id="path122" d="M52.7682 53.7707C52.801 53.672 52.8292 53.5707 52.853 53.468C52.8526 53.472 52.8521 53.476 52.8516 53.48C52.8281 53.58 52.8 53.676 52.7682 53.7707Z" fill="#D3583A"/>
<path id="path124" d="M52.7755 51.6013C52.7745 51.5973 52.7735 51.5947 52.7724 51.5907C52.7735 51.5947 52.7745 51.5973 52.7755 51.6013Z" fill="#C17123"/>
<path id="path126" d="M19.7193 56.5254C19.7183 56.5254 19.7167 56.5254 19.7151 56.5254C18.2973 56.5254 17.0271 56.4147 16.3527 56.0667C16.3489 56.0654 16.3453 56.0627 16.3417 56.0614C16.336 56.0587 16.3303 56.056 16.3251 56.052C16.3208 56.0507 16.3167 56.0481 16.3125 56.0454C16.3099 56.0441 16.3073 56.0427 16.3052 56.0414C16.3041 56.0414 16.3036 56.0414 16.3031 56.0401C16.3011 56.0387 16.2989 56.0387 16.2973 56.0374C16.2969 56.0361 16.2964 56.0361 16.2953 56.0361C16.2932 56.0347 16.2907 56.0334 16.2885 56.032C16.288 56.0307 16.2875 56.0307 16.2869 56.0307C16.2849 56.0294 16.2833 56.028 16.2817 56.0267C16.2807 56.0267 16.2797 56.0267 16.2792 56.0254C16.2776 56.0241 16.276 56.0241 16.2745 56.0227C16.2735 56.0214 16.2724 56.0214 16.2713 56.0201C16.2697 56.0201 16.2683 56.0187 16.2661 56.0174C16.2651 56.0161 16.264 56.0147 16.2631 56.0147C16.262 56.0134 16.2609 56.0134 16.2599 56.0121C16.2588 56.0121 16.2573 56.0107 16.2563 56.0094H16.2557C16.0495 55.8547 16.0219 55.572 16.1473 55.368H30.3036H47.2625C47.9344 55.368 48.5812 55.116 49.076 54.6627C50.2787 53.56 50.6855 51.8347 50.1031 50.3121L49.662 49.1587C51.1167 49.2614 52.336 50.2534 52.7724 51.5907C52.7735 51.5947 52.7745 51.5974 52.7755 51.6014C52.7765 51.604 52.7771 51.6067 52.7781 51.6094C52.8855 51.9467 52.9432 52.3041 52.9432 52.6761C52.9432 52.9481 52.912 53.2134 52.8531 53.468C52.8292 53.5707 52.8011 53.6721 52.7683 53.7707C52.2828 55.2147 50.8469 56.2001 49.2708 56.2041H48.8807H47.8688L26.0849 56.2001C26.0807 56.2001 26.0765 56.2001 26.0724 56.2001C25.6552 56.2014 24.9536 56.252 24.1068 56.3134C22.8188 56.408 21.1953 56.5254 19.7292 56.5254C19.726 56.5254 19.7224 56.5254 19.7193 56.5254Z" fill="#D3583A"/>
<path id="path128" d="M28.2027 7.44265C27.8792 11.012 31.464 14.2533 36.2104 14.6853C40.9568 15.1146 45.0677 12.5706 45.3912 9.0013C45.7151 5.43197 42.1297 2.18933 37.3833 1.75866C32.6369 1.328 28.5265 3.87198 28.2027 7.44265Z" fill="#682B22"/>
<path id="path130" d="M37.3833 2.7573C41.7177 3.15063 45.0735 5.88929 45.3792 9.07996L45.3912 9.00131C45.7145 5.43198 42.1297 2.18933 37.3833 1.75867C32.6369 1.328 28.5265 3.87198 28.2027 7.44265C28.1745 7.75198 28.1864 8.05734 28.2145 8.36134C28.5927 4.83467 32.6724 2.3293 37.3833 2.7573Z" fill="#B14B3C"/>
<path id="path132" d="M40.8984 7.61737C41.3197 10.4774 43.8521 12.472 46.5563 12.0734C49.2599 11.676 51.1099 9.03469 50.6896 6.17603C50.2683 3.31736 47.7349 1.32271 45.0317 1.72004C42.3281 2.11871 40.4771 4.7587 40.8984 7.61737Z" fill="#682B22"/>
<path id="path134" d="M41.5145 8.04936C41.0937 5.18936 42.9437 2.54939 45.6479 2.15073C46.7724 1.98539 47.8645 2.2387 48.7907 2.7907C47.7557 1.94404 46.4172 1.51606 45.0317 1.72006C42.3281 2.11873 40.4781 4.75873 40.8984 7.61739C41.1448 9.28806 42.1136 10.6587 43.4136 11.4334C42.4292 10.6281 41.7203 9.44269 41.5145 8.04936Z" fill="#B14B3C"/>
<path id="path136" d="M38.7735 13.1466C35.5751 13.1466 33.2057 12.368 31.7131 10.824C29.7875 8.83062 30.0782 6.32264 30.0912 6.21731C30.1126 6.04931 30.262 5.92798 30.4339 5.95064C30.6016 5.97198 30.7214 6.12529 30.7006 6.29329C30.6979 6.31595 30.438 8.628 32.1615 10.4053C33.8281 12.1227 36.738 12.8066 40.8115 12.4346C40.9849 12.42 41.1292 12.5439 41.1448 12.7133C41.1599 12.8813 41.0355 13.0306 40.8667 13.0466C40.1344 13.1133 39.4355 13.1466 38.7735 13.1466Z" fill="#682B22"/>
<path id="path138" d="M36.7969 10.468L37.4593 11.6454C37.4593 11.6454 38.7869 13.7694 41.3131 13.136L42.0443 11.464L42.8041 9.90401L41.9027 8.86404H39.3041L37.0355 10.468" fill="#682B22"/>
<path id="path140" d="M33.1959 6.64663C33.1959 6.64663 29.8047 8.16798 29.8281 12.704C29.8281 13.0933 29.7303 13.476 29.5448 13.8173L28.1177 16.4453C28.0229 16.62 28.026 16.8334 28.1271 17.0054C28.2292 17.1814 28.4172 17.288 28.6203 17.288H29.0984L29.2631 17.3613L29.3984 17.508L29.4005 17.8826L29.0989 18.2133L29.412 18.6333L29.3677 19.2067L29.3125 19.5346C29.2473 19.9186 29.5568 20.1147 29.7391 20.4587L29.4989 21.8333C29.5036 22.9147 30.4 23.78 31.4812 23.7466L32.1959 23.7253C33.3557 23.6907 34.5027 23.484 35.6005 23.1106L36.388 22.8427C37.7349 22.3853 38.7547 21.268 39.088 19.884L39.5109 18.1307C42.8536 18.1307 45.3667 15.0373 44.6323 11.7773C44.1303 9.54796 42.9973 7.44401 40.5787 6.82534C40.5787 6.82534 36.4781 5.4693 33.1959 6.64663Z" fill="#F0724E"/>
<path id="path142" d="M29.7391 20.4587C29.574 20.1467 29.3041 19.9561 29.3036 19.6388C29.3036 19.6054 29.3063 19.5707 29.3125 19.5347L29.3677 19.2067L29.3953 18.8534C29.8197 18.6987 30.3183 18.5467 30.6427 18.5467C30.8839 18.5467 31.0292 18.6307 30.9765 18.8574C30.7807 19.712 29.7391 20.4587 29.7391 20.4587Z" fill="#D3583A"/>
<path id="path144" d="M31.1953 18.5026C30.9276 18.4626 30.1495 18.3079 29.6057 17.8493C29.6057 17.8493 29.3719 17.4573 28.9625 17.7239C28.9625 17.7239 28.7401 18.1533 29.2552 18.6333C29.2552 18.6333 28.9973 19.2066 29.0912 19.428C29.0912 19.428 29.0797 19.8146 29.7229 19.5333C29.7229 19.5333 30.8464 19.1306 31.2369 18.5973L31.1953 18.5026Z" fill="#B73C2B"/>
<path id="path146" d="M29.0984 17.288H28.6203C28.4172 17.288 28.2292 17.1813 28.1271 17.0053C28.1177 16.9893 28.1088 16.9733 28.1016 16.956C28.1088 16.9733 28.1177 16.9893 28.1271 17.0053C28.2292 17.1813 28.4172 17.288 28.6203 17.288H29.0984ZM28.1005 16.9546C28.0995 16.952 28.0989 16.9506 28.0979 16.9493C28.0989 16.9506 28.0995 16.952 28.1005 16.9546Z" fill="#DEBAA1"/>
<path id="path148" d="M29.288 17.296C29.2218 17.296 29.1584 17.2933 29.0984 17.288H28.6202C28.4172 17.288 28.2292 17.1814 28.127 17.0054C28.1177 16.9894 28.1088 16.9734 28.1016 16.956C28.101 16.956 28.1005 16.9547 28.1005 16.9547C28.0994 16.952 28.0989 16.9507 28.0978 16.9493C28.0969 16.9467 28.0964 16.9454 28.0953 16.9427C28.0306 16.792 28.0364 16.62 28.1084 16.4707L28.127 16.432C28.127 16.432 28.1442 16.452 28.2078 16.452C28.3036 16.452 28.5062 16.404 28.9145 16.1654C28.9145 16.1654 29.0781 16.0254 29.3593 16.0254C29.5432 16.0254 29.7781 16.0853 30.0505 16.2827C30.1516 16.356 30.2735 16.3987 30.3964 16.3987C30.426 16.3987 30.4552 16.396 30.4844 16.3907L30.7521 16.24C30.7521 16.24 31.0323 17.0894 30.2839 17.1947C30.2839 17.1947 29.7369 17.296 29.288 17.296Z" fill="#D3583A"/>
<path id="path150" d="M30.7661 13.3187C30.9656 13.096 31.2369 12.9907 31.5073 12.9254C31.6432 12.8934 31.7812 12.8747 31.9193 12.8667L32.126 12.8614L32.2297 12.8627L32.3229 12.8667C32.5745 12.8721 32.8287 12.8667 33.0713 12.8427C33.1927 12.8281 33.3104 12.8067 33.4167 12.7734L33.6547 12.6121L33.6661 12.5907L33.7912 12.5534L33.8364 12.6561L33.7995 12.7827L33.7265 12.8894L33.6369 12.9721L33.5391 13.0347C33.4063 13.1081 33.2683 13.156 33.1307 13.1854C32.8563 13.2467 32.5833 13.26 32.3104 13.252C32.1651 13.2467 32.0573 13.2334 31.9276 13.2347C31.8036 13.2307 31.6797 13.2347 31.5568 13.2427C31.3131 13.2614 31.0604 13.3014 30.8401 13.3987L30.8287 13.4041L30.7579 13.3774L30.7661 13.3187Z" fill="#682B22"/>
<path id="path152" d="M31.7229 13.588C31.7229 13.836 31.6224 14.0374 31.4995 14.0374C31.376 14.0374 31.2765 13.836 31.2765 13.588C31.2765 13.3387 31.376 13.1374 31.4995 13.1374C31.6224 13.1374 31.7229 13.3387 31.7229 13.588Z" fill="#682B22"/>
<path id="path154" d="M31.2027 14.1773H31.1817L31.138 14.128L31.1875 14.084C31.1901 14.084 31.3932 14.0947 31.5099 13.9667C31.5849 13.884 31.6093 13.7587 31.5828 13.5947L31.6208 13.5413L31.6751 13.58C31.7063 13.7733 31.674 13.9254 31.5787 14.0307C31.4552 14.1667 31.2661 14.1773 31.2027 14.1773Z" fill="#682B22"/>
<path id="path156" d="M30.6328 11.3079C30.7426 11.1679 30.8729 11.1146 31.0104 11.084C31.1484 11.0586 31.2864 11.0413 31.4245 11.0266C31.7005 10.9959 31.9786 10.9973 32.2536 11.0133C32.5292 11.0333 32.8021 11.0746 33.0672 11.1453C33.3328 11.2133 33.5885 11.3133 33.8302 11.432L33.8521 11.4946L33.8041 11.5213H33.801C33.5369 11.4866 33.2817 11.4466 33.0224 11.4453C32.7651 11.4333 32.5093 11.44 32.2557 11.464C32.0031 11.4813 31.7527 11.5226 31.5057 11.5706C31.3828 11.596 31.2604 11.6253 31.1406 11.6586C31.0202 11.688 30.8937 11.7 30.7536 11.6453L30.7202 11.6306L30.6036 11.3599L30.6328 11.3079Z" fill="#682B22"/>
<path id="path158" d="M28.9375 16.8133C29.0803 16.7466 29.2265 16.7093 29.3833 16.7066C29.5344 16.704 29.7093 16.7373 29.8349 16.812L30.1948 16.8733L30.5125 16.672L30.5588 16.668L30.5683 16.704C30.5203 16.8453 30.4016 16.9867 30.2344 17.036C30.0661 17.0907 29.8948 17.0467 29.7531 16.972C29.6323 16.896 29.5197 16.844 29.3812 16.8387C29.2484 16.8307 29.1057 16.8546 28.9849 16.9079L28.9807 16.9093L28.9115 16.8826L28.9375 16.8133Z" fill="#682B22"/>
<path id="path160" d="M30.1093 5.89473C29.8183 9.1014 33.2443 12.0334 37.7609 12.4427C42.2781 12.852 46.1751 10.5854 46.4661 7.37871C46.7573 4.17205 43.3312 1.2414 38.8145 0.830733C34.2973 0.4214 30.3995 2.6894 30.1093 5.89473Z" fill="#682B22"/>
<path id="path162" d="M30.3948 6.23466C30.6849 3.03333 34.7495 0.785309 39.4729 1.21331C40.7453 1.32931 41.9312 1.632 42.986 2.068C41.7948 1.41866 40.3724 0.973359 38.8145 0.830692C34.2973 0.421359 30.3995 2.68936 30.1093 5.89469C29.9604 7.53736 30.7912 9.10666 32.2412 10.3013C30.9729 9.152 30.2599 7.72266 30.3948 6.23466Z" fill="#B14B3C"/>
<path id="path164" d="M34.5751 7.98673C34.5751 7.98673 34.2167 8.92808 36.0969 10.1694C36.0969 10.1694 36.9552 10.9441 36.6645 11.7001C36.6645 11.7001 35.5536 13.6187 36.688 14.2414C36.688 14.2414 37.5536 14.8401 37.9573 14.2374C37.9573 14.2374 38.7251 12.5214 40.1688 13.1694C40.1688 13.1694 41.7 13.7534 41.0172 15.9334C41.0172 15.9334 40.6875 17.0734 39.6307 17.4787C39.6307 17.4787 38.7421 19.9454 42.0959 20.8201C42.0959 20.8201 46.6021 20.0814 46.8953 13.7534C47.0172 11.1241 45.7959 8.58675 43.6041 7.13074C42.3593 6.30408 40.6563 5.63605 38.3401 5.46805C38.3401 5.46805 35.4172 5.18137 34.6323 6.75203C34.6323 6.75203 34.3557 7.0334 34.5751 7.98673Z" fill="#682B22"/>
<path id="path166" d="M38.9339 17.3253C38.8891 17.3253 38.8464 17.316 38.8062 17.2947L38.6891 17.2373L38.8098 16.9879C39.2182 15.9919 39.0713 14.9879 38.5016 14.6413C38.6208 14.4346 39.0218 13.8173 39.5588 13.8173C39.6369 13.8173 39.7177 13.8307 39.801 13.8587C39.801 13.8587 41.4917 14.56 39.9573 16.492C39.9573 16.492 39.3604 17.3253 38.9339 17.3253Z" fill="#BE462D"/>
<path id="path168" d="M38.8505 17.768C38.8505 17.9613 38.6937 18.1173 38.5016 18.1173C38.3078 18.1173 38.1526 17.9613 38.1526 17.768C38.1526 17.576 38.3078 17.42 38.5016 17.42C38.6937 17.42 38.8505 17.576 38.8505 17.768Z" fill="#923C1D"/>
</g>
</svg>
