<svg width="170" height="67" viewBox="0 0 170 67" fill="none" xmlns="http://www.w3.org/2000/svg">
<g id="Group 4">
<path id="path464" d="M169.449 66.9734H0.667999L11.4813 51.7814H158.637L169.449 66.9734Z" fill="#FBC341"/>
<path id="path466" d="M169.449 66.9734H0.667999L11.4813 51.7814H158.637L169.449 66.9734Z" fill="#FBC341"/>
<path id="path468" d="M168.66 65.864L36.02 63.6533L38.74 61.8893L66.8893 60.02C67.552 59.9187 68.244 58.8227 64.244 58.3253L44.8293 57.94L47.604 56.1387L54.916 55.852C56.1187 56.4853 57.3667 56.8093 58.5093 56.8093C58.6227 56.8093 58.7347 56.8067 58.8453 56.8C59.3067 56.8893 59.7627 56.9334 60.2067 56.9334C61.652 56.9334 62.9693 56.4627 63.9093 55.5L131.897 52.8307L132.7 54.012C133.224 54.7813 133.093 55.8227 132.393 56.4387L127.541 60.7106C127.209 61.004 126.781 61.1653 126.337 61.1653H123.549C122.885 61.1653 122.455 61.8627 122.752 62.456C122.843 62.6387 122.995 62.7854 123.183 62.8694L127.912 65.0027H132.732L137.849 61.1653L139.865 60.3013C141.301 59.6853 141.791 57.896 140.869 56.6347L139.087 54.1973C138.707 53.6787 138.351 53.1426 138.019 52.5906L158.637 51.7813L168.66 65.864Z" fill="#DC9632"/>
<path id="path470" d="M133.415 48.7186C132.721 47.7693 132.12 46.756 131.623 45.692L127.363 36.58C126.724 35.2133 125.871 33.956 124.836 32.8587L124.057 32.032H114.089L117.856 35.3613C119.837 37.1133 121.593 39.1066 123.083 41.2933L128.029 48.56C128.472 49.2106 128.361 50.088 127.772 50.6066L123.68 54.2093C123.4 54.456 123.04 54.592 122.667 54.592H120.315C119.755 54.592 119.392 55.18 119.641 55.68C119.719 55.8346 119.847 55.9587 120.005 56.0307L123.992 57.828H128.057L132.371 54.592L134.071 53.864C135.281 53.3453 135.695 51.836 134.917 50.7733L133.415 48.7186Z" fill="#D4533A"/>
<path id="path472" d="M124.272 32.8587L123.493 32.032H113.527L117.292 35.3614C119.273 37.1134 121.029 39.1067 122.519 41.2933L125.436 45.5787L126.503 44.8573L124.511 39.3987L128.519 43.4947L129.668 42.7173L126.799 36.58C126.16 35.2133 125.307 33.956 124.272 32.8587Z" fill="#223C50"/>
<path id="path474" d="M125.005 44.2906L124.971 44.1893C124.953 44.0467 125.055 43.9187 125.196 43.9013L128.468 43.5106C128.611 43.4946 128.739 43.596 128.756 43.7373C128.773 43.8787 128.672 44.008 128.529 44.0253L125.257 44.4147L125.005 44.2906Z" fill="#223C50"/>
<path id="path476" d="M125.623 45.3907L125.641 45.0974L127.679 42.508L128.041 42.464L128.084 42.828L126.048 45.4174L125.684 45.4614L125.623 45.3907Z" fill="#223C50"/>
<path id="path478" d="M124.148 43.0734L124.112 42.9707C124.096 42.8294 124.197 42.7 124.339 42.684L127.611 42.2934C127.752 42.276 127.881 42.3787 127.899 42.5187C127.916 42.6613 127.813 42.7907 127.672 42.8067L124.4 43.1974L124.148 43.0734Z" fill="#223C50"/>
<path id="path480" d="M124.765 44.1734L124.784 43.88L126.821 41.2907L127.184 41.2467L127.228 41.6107L125.191 44.2001L124.828 44.244L124.765 44.1734Z" fill="#223C50"/>
<path id="path482" d="M123.415 41.8533L123.379 41.752C123.361 41.6093 123.464 41.48 123.605 41.464L126.877 41.0733C127.019 41.056 127.147 41.1573 127.165 41.3C127.181 41.4413 127.08 41.5707 126.939 41.5867L123.667 41.9773L123.415 41.8533Z" fill="#223C50"/>
<path id="path484" d="M124.031 42.9534L124.049 42.66L126.087 40.0707L126.451 40.028L126.493 40.3894L124.456 42.98L124.093 43.0227L124.031 42.9534Z" fill="#223C50"/>
<path id="path486" d="M52.8173 46.8947L52.0947 45.9746C51.0933 44.7013 51.3173 42.8413 52.5893 41.8413L71.8533 26.704C73.1267 25.704 74.9867 25.928 75.9867 27.2L76.7093 28.12C77.7093 29.3933 77.4867 31.2533 76.2134 32.2533L56.9494 47.3906C55.6774 48.3906 53.8173 48.168 52.8173 46.8947Z" fill="#D4533A"/>
<path id="path488" d="M52.9266 41.6987L39.292 54.8614L38.9586 55.068L40.832 57.9547L56.7667 47.62C58.3947 46.5627 58.8627 44.3667 57.8067 42.7387C56.7507 41.1107 54.5546 40.6427 52.9266 41.6987Z" fill="#D4533A"/>
<path id="path490" d="M40.0773 54.6614L40.0787 54.6533C38.0693 54.5 34.7293 53.8227 32.2307 54.2453L25.956 56.492C25.5747 56.628 25.5067 57.1547 25.8547 57.364C27.1053 58.12 30.7333 58.0387 33.2947 57.9587C34.3013 57.9267 35.144 57.8947 35.6133 57.9147L39.7507 58.0826L39.852 58.0987C40.7507 58.1347 41.5107 57.392 41.5493 56.44C41.5867 55.5187 40.9333 54.7454 40.0773 54.6614Z" fill="#D4533A"/>
<path id="path492" d="M30.7053 58.0093C28.7107 58.0093 26.7173 57.8854 25.8547 57.364C25.8147 57.34 25.7787 57.312 25.7493 57.2787C25.7787 57.312 25.8147 57.34 25.8547 57.364C26.7173 57.8854 28.7107 58.0093 30.7053 58.0093C31.6027 58.0093 32.5 57.984 33.2947 57.9587C34.088 57.9334 34.78 57.9093 35.2667 57.9093C35.3973 57.9093 35.5133 57.9107 35.6133 57.9147L36.9613 57.9694L35.6133 57.9147C35.5133 57.9107 35.3973 57.9093 35.2667 57.9093C34.78 57.9093 34.088 57.9334 33.2947 57.9587C32.5 57.984 31.6027 58.0093 30.7053 58.0093Z" fill="#F09B31"/>
<path id="path494" d="M25.7493 57.2787C25.748 57.2774 25.7467 57.276 25.7453 57.2733C25.7467 57.276 25.748 57.2774 25.7493 57.2787ZM25.744 57.272C25.7427 57.2707 25.7413 57.2693 25.74 57.268C25.7413 57.2693 25.7427 57.2707 25.744 57.272ZM25.7373 57.2653C25.7373 57.264 25.736 57.264 25.736 57.264C25.736 57.264 25.7373 57.264 25.7373 57.2653Z" fill="#F09B31"/>
<path id="path496" d="M30.7053 58.0093C28.7107 58.0093 26.7173 57.8854 25.8547 57.364C25.8147 57.34 25.7787 57.312 25.7493 57.2787C25.748 57.2773 25.7467 57.276 25.7453 57.2733C25.744 57.2733 25.744 57.272 25.744 57.272C25.7427 57.2707 25.7413 57.2693 25.74 57.268C25.74 57.2667 25.7387 57.2667 25.7373 57.2653C25.7373 57.264 25.736 57.264 25.736 57.264C25.7347 57.2614 25.7333 57.26 25.732 57.2573C25.648 57.1547 25.616 57.0214 25.6333 56.8947C26.656 57.192 28.2547 57.2707 29.8507 57.2707C30.74 57.2707 31.6293 57.2453 32.4173 57.2213C33.204 57.1973 33.8893 57.1733 34.3733 57.1733C34.5067 57.1733 34.624 57.1747 34.724 57.1787L37.6573 57.2987L36.9613 57.9694L35.6133 57.9147C35.5133 57.9107 35.3973 57.9093 35.2667 57.9093C34.78 57.9093 34.088 57.9334 33.2947 57.9587C32.5 57.984 31.6027 58.0093 30.7053 58.0093Z" fill="#C9432E"/>
<path id="path498" d="M68.46 30.8574L58.396 39.112L66.4067 42.208L66.5947 41.3641L68.244 40.6307L67.9173 40.3067C67.3627 39.7547 67.1293 38.9574 67.3 38.1934L73.4667 34.7574L68.46 30.8574Z" fill="#F0724E"/>
<path id="path500" d="M68.24 40.6267C68.1667 40.592 68.092 40.5601 68.0173 40.5281L68.0866 40.4734L68.24 40.6267Z" fill="#D3583A"/>
<path id="path502" d="M61.6373 48.3147C63.3253 45.1507 62.412 41.368 59.5973 39.8667C56.7813 38.3653 53.132 39.7133 51.444 42.8787C49.756 46.0427 50.6693 49.8253 53.484 51.3266C56.3 52.828 59.9493 51.48 61.6373 48.3147Z" fill="#682B22"/>
<path id="path504" d="M53.284 43.3227L53.04 43.1254C52.8987 42.4574 52.5787 41.9813 52.0893 41.712C50.9707 41.096 49.304 41.7 49.2867 41.7067C49.1587 41.7533 49.0146 41.688 48.9666 41.56C48.9186 41.4307 48.9853 41.288 49.1133 41.24C49.1906 41.212 51.008 40.548 52.328 41.2746C52.9506 41.6173 53.3546 42.2054 53.528 43.0227C53.556 43.1574 53.4707 43.2893 53.336 43.3187L53.284 43.3227Z" fill="#682B22"/>
<path id="path506" d="M61.1173 41.5133L60.9587 41.4587L60.924 41.1067C61.36 40.5787 61.532 40.0306 61.4373 39.48C61.2187 38.2186 59.708 37.2973 59.6933 37.288L59.608 36.9466L59.9493 36.8614C60.02 36.904 61.6707 37.9107 61.9267 39.396C62.048 40.096 61.84 40.7786 61.3093 41.424L61.1173 41.5133Z" fill="#682B22"/>
<path id="path508" d="M60.7547 41.424L60.588 41.3587L60.5707 41.008C61.128 40.3893 61.3413 39.8 61.2027 39.2534C60.884 38.0054 58.892 37.292 58.8733 37.284C58.7427 37.2387 58.6747 37.0974 58.7213 36.968C58.7667 36.8374 58.908 36.768 59.0373 36.8147C59.1307 36.8467 61.3026 37.6267 61.684 39.1307C61.8666 39.8481 61.616 40.592 60.94 41.3413L60.7547 41.424Z" fill="#682B22"/>
<path id="path510" d="M64.052 55.3467C66.1786 52.9547 65.324 48.7227 62.1427 45.8947C58.9613 43.0681 54.6586 42.7147 52.532 45.1067C50.4066 47.4987 51.2613 51.7307 54.4413 54.5574C57.6226 57.3854 61.9253 57.7387 64.052 55.3467Z" fill="#682B22"/>
<path id="path512" d="M54.972 53.8413C52.0666 51.2587 51.1106 47.5107 52.584 45.0561L52.532 45.1067C50.4066 47.4987 51.2613 51.7307 54.4413 54.5574C57.6227 57.3854 61.9253 57.7387 64.052 55.3467C64.2373 55.1387 64.3906 54.9133 64.5306 54.68C62.388 57.0133 58.1293 56.648 54.972 53.8413Z" fill="#B14B3C"/>
<path id="path514" d="M55.0253 48.484C56.24 46.2067 55.4787 43.4307 53.3253 42.2814C51.172 41.1334 48.4427 42.048 47.228 44.3254C46.0133 46.6014 46.7747 49.38 48.928 50.528C51.0813 51.676 53.8107 50.7614 55.0253 48.484Z" fill="#682B22"/>
<path id="path516" d="M54.812 47.848C53.5973 50.1254 50.8667 51.04 48.7133 49.892C47.8173 49.4134 47.1667 48.652 46.796 47.7653C47.0893 48.9213 47.824 49.94 48.928 50.528C51.0813 51.676 53.8107 50.7614 55.0253 48.484C55.7347 47.1547 55.7667 45.656 55.244 44.4093C55.5227 45.5107 55.404 46.7387 54.812 47.848Z" fill="#B14B3C"/>
<path id="path518" d="M61.848 55.5334C61.7254 55.5334 61.6027 55.488 61.5054 55.396C61.3067 55.208 61.2987 54.8933 61.4853 54.6933C61.4987 54.6787 62.8413 53.2227 62.5573 51.14C62.2787 49.0947 60.5867 47.116 57.5293 45.2627C57.2933 45.1187 57.2187 44.8134 57.36 44.5787C57.504 44.3427 57.8094 44.268 58.0454 44.4107C61.3814 46.4347 63.232 48.66 63.5467 51.0254C63.8867 53.5827 62.276 55.3067 62.2067 55.3787C62.1094 55.4814 61.9787 55.5334 61.848 55.5334Z" fill="#682B22"/>
<path id="path520" d="M59.484 48.6121L59.6333 47.416C59.6333 47.416 59.8066 45.1854 57.656 44.3001L56.2427 45.1134L54.8693 45.8307L54.9653 47.0561L56.8333 48.4347L59.3133 48.4867L59.484 48.6121Z" fill="#682B22"/>
<path id="path522" d="M60.044 53.268C60.044 53.268 63.2867 53.976 65.6774 50.704C65.884 50.424 66.156 50.2013 66.4707 50.0546L68.8893 48.924C69.0507 48.8493 69.1614 48.6947 69.18 48.5173C69.2 48.3373 69.1227 48.1586 68.976 48.052L68.6333 47.7973L68.5533 47.6587L68.5333 47.4813C68.52 47.3547 68.6053 47.2373 68.7307 47.212L69.124 47.1334L69.1213 46.6667L69.4573 46.2773L69.6707 46.0707C69.9213 45.8307 69.804 45.5253 69.8547 45.1813L70.756 44.3213C71.3267 43.5413 71.1427 42.4453 70.348 41.8947L69.824 41.5307C68.972 40.94 68.0387 40.48 67.052 40.1667L66.344 39.94C65.1334 39.5547 63.808 39.816 62.8347 40.6334L61.6 41.668C59.1987 39.8947 55.752 40.784 54.5507 43.516C53.728 45.3826 53.4253 47.496 54.836 49.2227C54.836 49.2227 57.0614 52.3733 60.044 53.268Z" fill="#F0724E"/>
<path id="path524" d="M69.7307 46.004C69.668 45.9494 69.5587 45.896 69.376 45.8547C69.376 45.8547 68.7587 45.668 68.22 45.668C68.1867 45.668 68.1533 45.6694 68.12 45.6707C68.6787 45.196 69.7147 45.1814 69.8427 45.1814C69.8507 45.1814 69.8547 45.1814 69.8547 45.1814C69.8413 45.2707 69.84 45.3561 69.84 45.4387C69.84 45.4774 69.84 45.5134 69.84 45.5507C69.84 45.716 69.8307 45.8694 69.7307 46.004Z" fill="#D3583A"/>
<path id="path526" d="M67.772 45.8134C67.9413 45.984 68.4187 46.5081 68.5667 47.1254C68.5667 47.1254 68.5253 47.532 68.9613 47.5574C68.9613 47.5574 69.3493 47.3667 69.2333 46.7494C69.2333 46.7494 69.7227 46.4734 69.7733 46.2654C69.7733 46.2654 69.9867 45.9947 69.376 45.8547C69.376 45.8547 68.3547 45.5467 67.792 45.7227L67.772 45.8134Z" fill="#B73C2B"/>
<path id="path528" d="M68.876 48.9293C68.876 48.9293 68.868 48.7774 68.1693 48.7027C68.1693 48.7027 68.1653 48.7027 68.156 48.7027C68.0746 48.7027 67.624 48.672 67.416 48.0147C67.3733 47.884 67.284 47.768 67.1613 47.7067L66.8893 47.6746C66.8893 47.6746 67.0586 47.1573 67.452 47.1573C67.5346 47.1573 67.628 47.18 67.732 47.236C67.732 47.236 68.3187 47.5227 68.6333 47.7974L68.652 47.812L68.976 48.052C69.1067 48.148 69.1826 48.3 69.184 48.4587C69.184 48.4787 69.1827 48.4973 69.18 48.5173C69.1627 48.6867 69.06 48.832 68.9107 48.9106L68.876 48.9293Z" fill="#D3583A"/>
<path id="path530" d="M65.3293 49.7653C65.068 49.8187 64.816 49.7507 64.588 49.6547L64.26 49.4787L64.1093 49.372L64.0347 49.316L63.9707 49.264C63.7933 49.1254 63.608 48.9947 63.42 48.884L63.136 48.7507L62.8787 48.7413L62.86 48.7493L62.7506 48.7106L62.772 48.612L62.8653 48.5413L62.9733 48.5027L63.0827 48.492L63.1866 48.4974C63.32 48.516 63.4453 48.5547 63.5586 48.6067C63.7893 48.708 63.992 48.844 64.184 48.9947L64.4493 49.2093L64.7213 49.4C64.9053 49.516 65.108 49.6213 65.3186 49.668L65.3293 49.6707L65.3653 49.728L65.3293 49.7653Z" fill="#682B22"/>
<path id="path532" d="M64.784 49.064C64.916 48.8854 65.0947 48.7947 65.1827 48.86C65.272 48.9253 65.2373 49.1227 65.1053 49.3014C64.9733 49.4787 64.7947 49.5707 64.7067 49.5054C64.6173 49.4401 64.6533 49.2427 64.784 49.064Z" fill="#682B22"/>
<path id="path534" d="M65.472 48.916L65.4853 48.928L65.4906 48.9867L65.432 48.992C65.4307 48.9894 65.2907 48.8747 65.1387 48.9054C65.04 48.924 64.956 49.0014 64.8893 49.1334L64.8333 49.1507L64.8147 49.0947C64.8947 48.94 64.9986 48.8467 65.1226 48.8227C65.2826 48.7907 65.4253 48.8827 65.472 48.916Z" fill="#682B22"/>
<path id="path536" d="M64.3573 51.28C64.204 51.3226 64.0827 51.292 63.968 51.2413L63.64 51.0627C63.4253 50.9373 63.2253 50.7894 63.0373 50.6307C62.8507 50.4707 62.6746 50.2974 62.5226 50.1054C62.368 49.916 62.2373 49.708 62.1266 49.4947L62.144 49.4373L62.1933 49.4453L62.1946 49.4466C62.3653 49.612 62.528 49.776 62.7147 49.9133C62.892 50.0586 63.08 50.1893 63.2747 50.3067C63.4653 50.428 63.668 50.5334 63.8707 50.628L64.1787 50.7587L64.4493 50.9746L64.4667 51.0013L64.4067 51.2587L64.3573 51.28Z" fill="#682B22"/>
<path id="path538" d="M68.4973 48.224C68.36 48.1973 68.2333 48.1467 68.12 48.064C68.0093 47.9867 67.9013 47.8693 67.852 47.7493L67.6253 47.5147C67.532 47.4627 67.4133 47.4627 67.2906 47.4907L67.2546 47.468L67.2667 47.4373C67.3773 47.3613 67.536 47.3227 67.684 47.3773C67.8333 47.4267 67.9333 47.5494 67.9946 47.6787L68.1906 47.972L68.512 48.132L68.516 48.1334L68.552 48.1894L68.4973 48.224Z" fill="#682B22"/>
<path id="path540" d="M61.8626 55.4466C63.772 53.2973 62.8667 49.3747 59.8387 46.684C56.812 43.992 52.8093 43.5533 50.8986 45.7013C48.9893 47.8506 49.8947 51.7733 52.9213 54.464C55.9493 57.156 59.952 57.596 61.8626 55.4466Z" fill="#682B22"/>
<path id="path542" d="M61.836 55.052C59.9293 57.1973 55.8173 56.6547 52.652 53.84C51.8 53.0827 51.108 52.236 50.5826 51.364C51.0933 52.4614 51.8786 53.5374 52.9213 54.464C55.9493 57.156 59.952 57.5946 61.8626 55.4466C62.84 54.3453 63.076 52.7786 62.6693 51.1493C62.9706 52.648 62.724 54.0533 61.836 55.052Z" fill="#B14B3C"/>
<path id="path544" d="M59.764 51.5746C59.764 51.5746 60.52 51.088 59.8293 49.1986C59.8293 49.1986 59.6227 48.188 60.2333 47.7986C60.2333 47.7986 62.0493 47.0093 61.564 45.9613C61.564 45.9613 61.2613 45.0707 60.6507 45.2893C60.6507 45.2893 59.188 46.1146 58.496 44.8826C58.496 44.8826 57.7053 43.652 59.352 42.448C59.352 42.448 60.1947 41.804 61.168 42.0733C61.168 42.0733 63.116 40.7733 61.1707 38.3653C61.1707 38.3653 57.5413 36.5053 53.972 40.8947C52.4907 42.7187 52.0213 45.1893 52.824 47.3986C53.2787 48.6533 54.148 50.0359 55.724 51.3853C55.724 51.3853 57.6707 53.1427 59.068 52.4307C59.068 52.4307 59.416 52.3759 59.764 51.5746Z" fill="#682B22"/>
<path id="path546" d="M61.8827 42.2787C61.9853 42.14 62.18 42.112 62.3186 42.2133C62.4573 42.316 62.4866 42.5106 62.384 42.6493C62.2813 42.788 62.0867 42.8173 61.948 42.7147C61.8093 42.612 61.78 42.4173 61.8827 42.2787Z" fill="#923C1D"/>
<path id="path548" d="M66.728 34.596L70.1453 37.8147C70.9587 38.5813 72.0733 38.9453 73.1827 38.804L80.0906 37.932C81.048 37.812 81.9386 37.38 82.6266 36.7054L90.2093 29.276C90.98 28.52 91.4533 27.5107 91.54 26.4347L91.8613 22.4373C92.012 20.568 92.8213 18.8147 94.1467 17.4893L96.264 15.3733C96.3973 15.2387 96.5787 15.164 96.768 15.164H97.9333C98.1787 15.164 98.408 15.2907 98.5387 15.5C102.349 21.628 107.168 27.0666 112.793 31.588L114.824 33.22L120.632 38.356C122.983 40.4347 125.065 42.7973 126.832 45.3906L132.7 54.012C133.224 54.7813 133.093 55.8227 132.393 56.4387L127.541 60.7106C127.209 61.004 126.781 61.1653 126.337 61.1653H123.549C122.885 61.1653 122.455 61.8627 122.752 62.456C122.843 62.6387 122.995 62.7854 123.183 62.8694L127.912 65.0027H132.732L137.849 61.1653L139.865 60.3013C141.301 59.6853 141.791 57.896 140.869 56.6347L139.087 54.1973C138.264 53.0733 137.552 51.8706 136.961 50.608L131.909 39.8C131.151 38.1787 130.139 36.6893 128.912 35.3867L121.121 27.1186L109.161 5.69064C105.832 -0.273354 97.8746 -1.69466 92.6853 2.748L89.9186 5.11597C88.8853 6.0013 88.028 7.0733 87.388 8.27463C86.92 9.15596 86.332 9.97068 85.64 10.692L66.624 30.5587C65.5306 31.7 65.5786 33.512 66.728 34.596Z" fill="#F0724E"/>
<path id="path550" d="M69.184 37.0308C69.0253 37.0308 68.8693 36.9547 68.7733 36.8134L67.5627 35.0241C66.8 33.1401 67.2107 30.9681 68.6107 29.4921L73.7987 24.0187C73.988 23.8201 74.3027 23.8108 74.5013 24.0001C74.7013 24.1894 74.7107 24.5041 74.5213 24.7041L69.332 30.1774C68.2133 31.3574 67.876 33.0894 68.4667 34.6014L69.5947 36.2521C69.7493 36.4787 69.6907 36.7881 69.464 36.9427L69.184 37.0308Z" fill="white"/>
<path id="path552" d="M123.951 41.68C124.987 42.8547 125.948 44.0947 126.832 45.3907L130.292 50.4734L131.557 49.6187L129.195 43.144L133.948 48.0028L135.312 47.08L131.909 39.8001C131.72 39.3947 131.515 38.9974 131.293 38.6094C130.632 37.4454 129.833 36.3641 128.912 35.3867L121.121 27.1187L109.161 5.69208C107.284 2.33074 103.939 0.413391 100.447 0.173393C97.7427 -0.01194 94.9506 0.809399 92.6853 2.74807L89.9186 5.11604L89.9147 5.12137C89.6467 5.35071 89.392 5.59206 89.1493 5.8454L89.1373 5.86005C88.8973 6.11205 88.6693 6.37473 88.4547 6.64807L92.8186 19.2668C93.1733 18.6201 93.6173 18.0187 94.1467 17.4894L96.264 15.3734L96.496 15.2187L96.768 15.1641H97.9333L98.1133 15.1867C98.288 15.2321 98.4413 15.3441 98.5387 15.5001C99.0147 16.2668 99.5067 17.0214 100.015 17.7654C100.521 18.5094 101.044 19.2427 101.583 19.9641C103.733 22.8467 106.124 25.5454 108.728 28.0281C109.38 28.6494 110.044 29.256 110.723 29.8494C111.399 30.4427 112.089 31.0227 112.793 31.5867L114.824 33.2201L120.632 38.3561C121.807 39.3947 122.916 40.5054 123.951 41.68Z" fill="#3D7195"/>
<path id="path554" d="M88.1213 31.3214L76.9613 19.7587L73.588 23.2827L76.404 28.5921C77.7267 31.0867 77.7466 34.072 76.4546 36.5854L75.4627 38.5174L80.0907 37.932C81.048 37.812 81.9387 37.3801 82.6267 36.7054L88.1213 31.3214Z" fill="white"/>
<path id="path556" d="M86.8427 32.5747L88.1213 31.3214L76.9613 19.7588L75.768 21.0054" fill="#3D7195"/>
<path id="path558" d="M47.392 52.9907L46.6693 52.0707C45.6693 50.7987 45.8933 48.9387 47.1653 47.9374L66.4293 32.8001C67.7013 31.8014 69.5613 32.0227 70.5613 33.2974L71.2853 34.216C72.2853 35.4894 72.0613 37.3494 70.7893 38.3494L51.5253 53.4867C50.252 54.4867 48.392 54.264 47.392 52.9907Z" fill="#F0724E"/>
<path id="path560" d="M68.0866 40.4734L70.348 38.6974C70.3413 38.7014 70.336 38.7067 70.3293 38.7107L68.0866 40.4734Z" fill="#DEBAA1"/>
<path id="path562" d="M68.0173 40.5281L68.0866 40.4734L68.0173 40.5281Z" fill="#B8442B"/>
<path id="path564" d="M62.8573 44.5826L68.0173 40.528L62.8573 44.5826Z" fill="#D3583A"/>
<path id="path566" d="M70.9493 33.7894L70.924 33.756C70.932 33.768 70.9413 33.7787 70.9493 33.7894Z" fill="#D3583A"/>
<path id="path568" d="M52.14 53.004C52.672 52.3587 52.952 51.5454 52.9467 50.7227L69.5747 37.6573C70.884 36.6293 71.2627 34.8454 70.5907 33.3947C70.708 33.5067 70.82 33.6254 70.9227 33.756H70.924L70.9494 33.7894C72.1134 35.308 71.8467 37.5041 70.348 38.6974L68.0867 40.4734L68.0173 40.5281L62.8573 44.5827L52.14 53.004Z" fill="#D3583A"/>
<path id="path570" d="M47.5013 47.7947L33.8667 60.9573L33.5333 61.164L35.4067 64.0507L51.3413 53.716C52.9693 52.6586 53.4387 50.464 52.3827 48.8346C51.3267 47.2066 49.1293 46.7387 47.5013 47.7947Z" fill="#F0724E"/>
<path id="path572" d="M51.3627 53.7014C51.3653 53.7 51.368 53.6987 51.3707 53.6974C51.368 53.6987 51.3653 53.7 51.3627 53.7014ZM51.3827 53.688C51.3853 53.6867 51.388 53.684 51.392 53.6827C51.388 53.684 51.3853 53.6867 51.3827 53.688ZM51.4027 53.6747C51.4067 53.6733 51.4093 53.6707 51.412 53.668C51.4093 53.6707 51.4067 53.6733 51.4027 53.6747ZM51.4227 53.6614C51.4267 53.6587 51.4293 53.656 51.432 53.6547C51.4293 53.656 51.4267 53.6587 51.4227 53.6614ZM51.444 53.6467C51.4467 53.6453 51.4493 53.6427 51.452 53.64C51.4493 53.6427 51.4467 53.6453 51.444 53.6467ZM51.4693 53.6293C51.4693 53.628 51.4707 53.628 51.472 53.6267C51.4707 53.628 51.4693 53.628 51.4693 53.6293ZM51.492 53.612C51.4933 53.612 51.4947 53.6107 51.4947 53.6107C51.4947 53.6107 51.4933 53.612 51.492 53.612ZM51.512 53.5974C51.5147 53.5961 51.516 53.5947 51.5173 53.5947C51.516 53.5947 51.5133 53.5961 51.512 53.5974ZM51.5333 53.5814C51.5347 53.5814 51.536 53.58 51.536 53.58C51.536 53.58 51.5347 53.5814 51.5333 53.5814ZM51.5547 53.5654C51.556 53.5654 51.556 53.5654 51.556 53.5654C51.556 53.5654 51.556 53.5654 51.5547 53.5654Z" fill="#DC9632"/>
<path id="path574" d="M35.4067 64.0507L35.3373 63.944C35.7893 63.6533 36.1 63.136 36.124 62.536C36.124 62.5307 36.1253 62.5253 36.1253 62.52C36.1253 62.5187 36.1253 62.5173 36.1253 62.516C36.1253 62.5106 36.1253 62.5066 36.1253 62.5013C36.1253 62.5 36.1253 62.4973 36.1253 62.496C36.1253 62.492 36.1253 62.4866 36.1253 62.4826C36.1253 62.48 36.1253 62.4787 36.1253 62.476C36.1253 62.4733 36.1253 62.4693 36.1253 62.4667C36.1253 62.464 36.1253 62.4613 36.1253 62.4587C36.1253 62.4547 36.1253 62.4506 36.1253 62.4466C36.1253 62.4453 36.1253 62.4426 36.1253 62.4413C36.1253 62.436 36.1253 62.432 36.1253 62.428C36.1253 62.4253 36.1253 62.424 36.1253 62.4213C36.1253 62.4173 36.1253 62.4133 36.1253 62.4093C36.1253 62.408 36.1253 62.4067 36.1253 62.4053C36.1253 62.4 36.1253 62.396 36.124 62.3906C36.124 62.3906 36.124 62.3893 36.124 62.388C36.124 62.3826 36.124 62.3773 36.124 62.372C36.124 62.3707 36.124 62.3707 36.124 62.3693C36.12 62.292 36.112 62.2173 36.0987 62.144L52.9293 51.0626C52.8427 52.0266 52.368 52.9466 51.556 53.5653C51.556 53.5653 51.556 53.5653 51.5547 53.5653C51.5493 53.5706 51.5427 53.5746 51.536 53.58C51.536 53.58 51.5347 53.5813 51.5333 53.5813C51.528 53.5853 51.5227 53.5893 51.5173 53.5947C51.516 53.5947 51.5147 53.596 51.512 53.5973C51.5067 53.6013 51.5013 53.6066 51.4947 53.6106C51.4947 53.6106 51.4933 53.612 51.492 53.612C51.4853 53.6173 51.4787 53.6213 51.472 53.6266C51.4707 53.628 51.4693 53.628 51.4693 53.6293C51.464 53.6333 51.4573 53.6373 51.452 53.64C51.4493 53.6426 51.4467 53.6453 51.444 53.6466C51.44 53.6493 51.436 53.652 51.432 53.6546C51.4293 53.656 51.4267 53.6587 51.4227 53.6613C51.42 53.664 51.416 53.6666 51.412 53.668C51.4093 53.6706 51.4067 53.6733 51.4027 53.6746C51.3987 53.6773 51.396 53.68 51.392 53.6826C51.388 53.684 51.3853 53.6866 51.3827 53.688C51.3787 53.6906 51.3747 53.6947 51.3707 53.6973C51.368 53.6987 51.3653 53.7 51.3627 53.7013C51.356 53.7066 51.348 53.7106 51.3413 53.716L35.4067 64.0507Z" fill="#D3583A"/>
<path id="path576" d="M34.6533 60.7573V60.7493C32.644 60.596 29.304 59.9186 26.8053 60.3413L20.532 62.588C20.1493 62.724 20.0827 63.2506 20.4293 63.46C21.6813 64.216 25.3093 64.136 27.8707 64.0546C28.8773 64.024 29.72 63.992 30.188 64.0106L34.3267 64.18L34.4267 64.1947C35.3253 64.2307 36.0867 63.488 36.124 62.536C36.1627 61.6147 35.5093 60.8413 34.6533 60.7573Z" fill="#F0724E"/>
<path id="path578" d="M34.4893 64.196C34.4693 64.196 34.448 64.1961 34.4266 64.1947L34.3266 64.18L30.188 64.0107C30.0893 64.0067 29.9733 64.0054 29.8413 64.0054C29.356 64.0054 28.664 64.0307 27.8707 64.0547C27.076 64.08 26.1787 64.1054 25.2813 64.1054C23.2867 64.1054 21.292 63.9814 20.4293 63.46C20.384 63.4334 20.3467 63.4001 20.3147 63.3641C20.3467 63.4001 20.384 63.4334 20.4293 63.46C21.292 63.9814 23.2867 64.1054 25.2813 64.1054C26.1787 64.1054 27.076 64.08 27.8707 64.0547C28.664 64.0307 29.356 64.0054 29.8413 64.0054C29.9733 64.0054 30.0893 64.0067 30.188 64.0107L34.3266 64.18L34.4266 64.1947C34.448 64.1961 34.4693 64.196 34.4893 64.196C34.7987 64.196 35.0893 64.104 35.3373 63.944C35.0893 64.104 34.7987 64.196 34.4893 64.196Z" fill="#DC9632"/>
<path id="path580" d="M20.3117 63.3614C20.3117 63.3604 20.3117 63.3604 20.3107 63.3604C20.3117 63.3604 20.3117 63.3604 20.3117 63.3614Z" fill="#DC9632"/>
<path id="path582" d="M36.1253 62.52C36.1253 62.5187 36.1253 62.5173 36.1253 62.516C36.1253 62.5173 36.1253 62.5187 36.1253 62.52ZM36.1253 62.5013C36.1253 62.5 36.1253 62.4973 36.1253 62.496C36.1253 62.4973 36.1253 62.5 36.1253 62.5013ZM36.1253 62.4826C36.1253 62.48 36.1253 62.4787 36.1253 62.476C36.1253 62.4787 36.1253 62.48 36.1253 62.4826ZM36.1253 62.4667C36.1253 62.464 36.1253 62.4614 36.1253 62.4587C36.1253 62.4614 36.1253 62.464 36.1253 62.4667ZM36.1253 62.4466C36.1253 62.4453 36.1253 62.4426 36.1253 62.4413C36.1253 62.4426 36.1253 62.4453 36.1253 62.4466ZM36.1253 62.428C36.1253 62.4254 36.1253 62.424 36.1253 62.4213C36.1253 62.424 36.1253 62.4254 36.1253 62.428ZM36.1253 62.4093C36.1253 62.408 36.1253 62.4067 36.1253 62.4054C36.1253 62.4067 36.1253 62.408 36.1253 62.4093ZM36.124 62.3907C36.124 62.3907 36.124 62.3893 36.124 62.388C36.124 62.3893 36.124 62.3907 36.124 62.3907ZM36.124 62.372C36.124 62.3707 36.124 62.3707 36.124 62.3694C36.124 62.3707 36.124 62.3707 36.124 62.372Z" fill="#B8442B"/>
<path id="path584" d="M34.4893 64.196C34.4693 64.196 34.448 64.1961 34.4267 64.1947L34.3267 64.18L30.188 64.0107C30.0893 64.0067 29.9733 64.0054 29.8413 64.0054C29.356 64.0054 28.664 64.0307 27.8707 64.0547C27.076 64.08 26.1787 64.1054 25.2813 64.1054C23.2867 64.1054 21.292 63.9814 20.4293 63.46C20.384 63.4334 20.3467 63.4001 20.3147 63.3641C20.3147 63.3627 20.3133 63.3627 20.312 63.3614C20.312 63.3601 20.312 63.36 20.3107 63.36C20.224 63.2547 20.192 63.1201 20.2093 62.9921C21.2307 63.2881 22.8293 63.3667 24.424 63.3667C25.316 63.3667 26.2053 63.3427 26.9947 63.3174C27.7827 63.2934 28.468 63.2694 28.952 63.2694C29.084 63.2694 29.2 63.2707 29.3 63.2747L33.4387 63.444L33.5387 63.4587C33.56 63.4587 33.58 63.46 33.6013 63.46C34.4733 63.46 35.1987 62.7307 35.236 61.8001C35.2507 61.4454 35.1613 61.1148 35 60.8361C35.6293 61.0494 36.088 61.6508 36.124 62.3694C36.124 62.3708 36.124 62.3708 36.124 62.3721C36.124 62.3774 36.124 62.3827 36.124 62.388C36.124 62.3894 36.124 62.3907 36.124 62.3907C36.1253 62.396 36.1253 62.4001 36.1253 62.4054C36.1253 62.4068 36.1253 62.4081 36.1253 62.4094C36.1253 62.4134 36.1253 62.4174 36.1253 62.4214C36.1253 62.424 36.1253 62.4254 36.1253 62.4281C36.1253 62.4321 36.1253 62.436 36.1253 62.4414C36.1253 62.4427 36.1253 62.4454 36.1253 62.4467C36.1253 62.4507 36.1253 62.4547 36.1253 62.4587C36.1253 62.4614 36.1253 62.4641 36.1253 62.4667C36.1253 62.4694 36.1253 62.4734 36.1253 62.4761C36.1253 62.4787 36.1253 62.48 36.1253 62.4827C36.1253 62.4867 36.1253 62.492 36.1253 62.496C36.1253 62.4974 36.1253 62.5001 36.1253 62.5014C36.1253 62.5067 36.1253 62.5107 36.1253 62.516C36.1253 62.5174 36.1253 62.5187 36.1253 62.5201C36.1253 62.5254 36.124 62.5308 36.124 62.5361C36.1 63.1361 35.7893 63.6534 35.3373 63.944C35.0893 64.104 34.7987 64.196 34.4893 64.196Z" fill="#D3583A"/>
<path id="path586" d="M89.964 5.07874L89.9186 5.11605L89.9147 5.12139C89.744 5.26805 89.5866 5.42808 89.4266 5.58408L93.816 17.8521C93.924 17.7294 94.0307 17.6068 94.1467 17.4894L94.336 17.3001L89.964 5.07874Z" fill="#223C50"/>
<path id="path588" d="M129.781 48.2787L129.74 48.156C129.72 47.988 129.84 47.8346 130.008 47.816L133.889 47.352C134.057 47.3333 134.209 47.4533 134.229 47.62C134.251 47.7893 134.131 47.9427 133.961 47.9614L130.081 48.424C129.957 48.44 129.843 48.3787 129.781 48.2787Z" fill="#3D7195"/>
<path id="path590" d="M130.513 49.5826L130.536 49.2347L132.952 46.164C133.056 46.0307 133.251 46.0067 133.383 46.112C133.516 46.216 133.539 46.4093 133.435 46.5427L131.017 49.6133C130.913 49.7466 130.72 49.7707 130.587 49.6653L130.513 49.5826Z" fill="#3D7195"/>
<path id="path592" d="M128.765 46.8333L128.723 46.7133C128.703 46.5439 128.823 46.3907 128.992 46.372L132.872 45.9093C133.04 45.888 133.193 46.0093 133.213 46.1773C133.233 46.3453 133.112 46.4973 132.944 46.5186L129.064 46.9813C128.94 46.9946 128.825 46.9347 128.765 46.8333Z" fill="#3D7195"/>
<path id="path594" d="M129.497 48.1387L129.519 47.7907L131.936 44.7187C132.04 44.5853 132.233 44.5627 132.365 44.668C132.5 44.772 132.523 44.9654 132.417 45.0987L130.001 48.1694C129.896 48.3027 129.703 48.3253 129.571 48.2213L129.497 48.1387Z" fill="#3D7195"/>
<path id="path596" d="M127.893 45.3867L127.852 45.2653C127.832 45.0973 127.952 44.944 128.12 44.924L132.001 44.4614C132.169 44.4414 132.321 44.5613 132.343 44.7293C132.363 44.8973 132.243 45.0507 132.075 45.0707L128.193 45.5334C128.069 45.5494 127.955 45.488 127.893 45.3867Z" fill="#3D7195"/>
<path id="path598" d="M128.627 46.692L128.648 46.3427L131.064 43.272C131.169 43.1387 131.361 43.116 131.496 43.2213C131.628 43.3253 131.652 43.5187 131.547 43.6507L129.131 46.7227C129.025 46.856 128.833 46.8787 128.699 46.7733L128.627 46.692Z" fill="#3D7195"/>
<path id="path600" d="M96.3147 15.3387L96.496 15.2186L96.768 15.164H97.9333L98.1133 15.1867C98.1133 15.1867 96.132 11.9173 96.18 8.4853C96.18 8.4853 95.504 11.444 96.3147 15.3387Z" fill="#223C50"/>
</g>
</svg>
