<svg width="170" height="97" viewBox="0 0 170 97" fill="none" xmlns="http://www.w3.org/2000/svg">
<g id="Group 15">
<path id="path1716" d="M169.055 96.3649H0.273346L11.0853 81.1744H158.243L169.055 96.3649Z" fill="#FBC341"/>
<path id="path1718" d="M168.948 96.216L76.8027 91.3255L81.1573 91.1077C82.008 91.0665 82.7947 90.6427 83.3013 89.9588L83.5733 89.5879L83.1693 89.3879L96.084 88.264C96.328 89.1171 96.6147 89.8135 96.9587 90.2171C97.0667 90.3441 97.212 90.4015 97.3573 90.4015C97.412 90.4015 97.4667 90.3947 97.5187 90.3785C97.7067 90.3239 97.868 90.1733 97.9107 89.9545L98.28 88.0733L159.367 82.7545L168.948 96.216ZM73.784 91.1655L66.932 90.8025L70.6013 90.6203C70.6987 90.6145 70.7973 90.6119 70.8947 90.6119C71.7307 90.6119 72.5547 90.7869 73.3547 91.0427C73.496 91.0879 73.64 91.1291 73.784 91.1655Z" fill="#DC9632"/>
<path id="path1720" d="M94.4093 20.3867L105.236 14.0267L109.021 18.2213L108.607 18.9707L109.351 20.596L108.896 20.624C108.455 20.6493 108.037 20.804 107.692 21.0587C106.757 21.7467 105.861 22.4813 104.861 23.0667L100.421 25.6573L94.4093 20.3867Z" fill="#F0724E"/>
<path id="path1722" d="M107.2 21.556C107.173 21.5334 107.147 21.5107 107.12 21.4867C107.309 21.3427 107.5 21.2 107.692 21.0587C108.024 20.8147 108.421 20.6627 108.844 20.628C108.184 20.6814 107.584 21.024 107.2 21.556ZM108.849 20.6267C108.853 20.6267 108.857 20.6267 108.86 20.6267C108.857 20.6267 108.853 20.6267 108.849 20.6267ZM108.869 20.6254C108.872 20.6254 108.875 20.6254 108.877 20.6254C108.875 20.6254 108.872 20.6254 108.869 20.6254Z" fill="#DEBAA1"/>
<path id="path1724" d="M107.12 21.4867C106.208 20.696 104.956 19.2107 105.369 17.244C105.609 18.404 106.396 19.3827 107.487 19.864L108.161 20.16C108.548 20.3294 108.943 20.476 109.345 20.596L108.896 20.624C108.889 20.624 108.884 20.624 108.877 20.6254C108.875 20.6254 108.872 20.6254 108.869 20.6254C108.867 20.6254 108.863 20.6254 108.86 20.6267C108.857 20.6267 108.853 20.6267 108.849 20.6267C108.848 20.6267 108.847 20.6267 108.844 20.628C108.421 20.6627 108.024 20.8147 107.692 21.0587C107.5 21.2 107.309 21.3427 107.12 21.4867Z" fill="#D3583A"/>
<path id="path1726" d="M109.48 10.5574C108.66 14.0147 105.503 16.2254 102.427 15.4947C99.352 14.7654 97.524 11.3707 98.3467 7.91338C99.1667 4.45605 102.325 2.24537 105.4 2.97471C108.475 3.70537 110.303 7.10004 109.48 10.5574Z" fill="#682B22"/>
<path id="path1728" d="M98.4373 9.74133C98.2747 9.74133 98.1133 9.72133 97.9506 9.68666C96.492 9.36 95.5773 7.67466 95.5373 7.604C95.4733 7.48266 95.52 7.33199 95.6387 7.26799C95.7613 7.20133 95.9107 7.24799 95.976 7.36799C95.984 7.38399 96.8253 8.92399 98.06 9.19999C98.5986 9.31866 99.148 9.17733 99.6933 8.77333L100.041 8.82533L99.9893 9.17467C99.4813 9.55067 98.9613 9.74133 98.4373 9.74133Z" fill="#682B22"/>
<path id="path1730" d="M101.603 18.0307C101.111 18.0307 100.751 17.9667 100.719 17.9614C100.584 17.936 100.493 17.8054 100.519 17.6707C100.544 17.536 100.676 17.4454 100.808 17.472C100.827 17.4747 102.556 17.7787 103.539 16.9854C103.972 16.6387 104.201 16.1214 104.225 15.444C104.229 15.3067 104.335 15.2174 104.481 15.204C104.62 15.2094 104.727 15.324 104.723 15.4627C104.693 16.2907 104.4 16.9334 103.851 17.3747C103.18 17.9134 102.269 18.0307 101.603 18.0307Z" fill="#682B22"/>
<path id="path1732" d="M102.032 17.8027C101.027 17.8027 100.071 17.4214 100.011 17.3974C99.884 17.3454 99.8226 17.2 99.8733 17.0733C99.924 16.9453 100.072 16.8827 100.197 16.936C100.217 16.9427 102.167 17.7173 103.217 17C103.677 16.6867 103.907 16.1093 103.896 15.2867C103.895 15.148 104.005 15.036 104.141 15.0333C104.279 15.0213 104.392 15.1427 104.393 15.28C104.405 16.2814 104.103 16.9987 103.497 17.412C103.069 17.7027 102.544 17.8027 102.032 17.8027Z" fill="#682B22"/>
<path id="path1734" d="M115.885 6.91732C115.896 10.088 112.487 12.6707 108.271 12.6867C104.053 12.7 100.627 10.1413 100.615 6.97199C100.603 3.80132 104.013 1.21732 108.229 1.20265C112.447 1.18799 115.873 3.74665 115.885 6.91732Z" fill="#682B22"/>
<path id="path1736" d="M108.152 2.08401C104.303 2.09601 101.135 4.25335 100.62 7.04135L100.615 6.97201C100.603 3.80135 104.013 1.21734 108.229 1.20268C112.447 1.18801 115.873 3.74668 115.885 6.91734C115.885 7.19334 115.853 7.46268 115.804 7.72668C115.743 4.58802 112.339 2.06801 108.152 2.08401Z" fill="#B14B3C"/>
<path id="path1738" d="M104.681 6.09735C104.089 8.58401 101.704 10.148 99.352 9.58934C97 9.03067 95.572 6.56267 96.1626 4.07467C96.752 1.58667 99.1386 0.0240126 101.491 0.581347C103.844 1.14001 105.272 3.60935 104.681 6.09735Z" fill="#682B22"/>
<path id="path1740" d="M104.105 6.42934C104.695 3.94134 103.267 1.47201 100.916 0.914678C99.936 0.681344 98.9546 0.819999 98.096 1.236C99.0733 0.569332 100.285 0.296011 101.491 0.581344C103.844 1.14001 105.272 3.60934 104.681 6.09734C104.336 7.54934 103.376 8.684 102.172 9.26666C103.1 8.63333 103.816 7.64134 104.105 6.42934Z" fill="#B14B3C"/>
<path id="path1742" d="M107.461 11.42C106.483 11.42 105.413 11.316 104.251 11.1067C103.981 11.0587 103.803 10.8001 103.851 10.5281C103.9 10.2587 104.155 10.0841 104.428 10.1281C107.925 10.7561 110.479 10.3934 112.027 9.04805C113.601 7.67872 113.547 5.74271 113.545 5.72271C113.535 5.44671 113.751 5.21604 114.024 5.20404H114.043C114.309 5.20404 114.529 5.41604 114.54 5.68404C114.544 5.78271 114.611 8.12004 112.68 9.80004C111.437 10.8787 109.689 11.42 107.461 11.42Z" fill="#682B22"/>
<path id="path1744" d="M108.077 8.92399L107.403 9.912C107.403 9.912 106.071 11.6813 103.892 10.9293L103.375 9.39865L102.825 7.96665L103.7 7.11865L105.991 7.31865L107.867 8.90666L108.077 8.92399Z" fill="#682B22"/>
<path id="path1746" d="M111.544 5.83332C111.544 5.83332 114.419 7.43333 114.048 11.4307C114.019 11.7733 114.075 12.1187 114.212 12.4333L115.268 14.86C115.339 15.0213 115.319 15.208 115.217 15.3533C115.113 15.4987 114.94 15.58 114.76 15.564L114.339 15.528L114.189 15.5787L114.057 15.6973L114.028 16.0267L114.267 16.344L113.96 16.6893L113.955 17.1973L113.977 17.4907C114.005 17.8347 113.717 17.9827 113.531 18.272L113.637 19.5027C113.549 20.456 112.693 21.148 111.744 21.0373L111.115 20.964C110.095 20.844 109.1 20.5733 108.161 20.16L107.487 19.864C106.335 19.356 105.523 18.2933 105.335 17.048L105.096 15.4693C102.149 15.2133 100.173 12.2947 101.071 9.476C101.684 7.55066 102.845 5.78266 105.024 5.42266C105.024 5.42266 108.743 4.54265 111.544 5.83332Z" fill="#F0724E"/>
<path id="path1748" d="M113.531 18.272C113.531 18.272 112.673 17.5373 112.563 16.7706C112.961 17.1573 113.616 17.4586 113.616 17.4586C113.779 17.5466 113.895 17.5786 113.977 17.58C113.953 17.8626 113.7 18.0093 113.531 18.272Z" fill="#D3583A"/>
<path id="path1750" d="M112.397 16.4373C112.637 16.4213 113.333 16.3453 113.849 15.9827C113.849 15.9827 114.084 15.656 114.425 15.9213C114.425 15.9213 114.588 16.3173 114.097 16.7C114.097 16.7 114.28 17.2253 114.181 17.4147C114.181 17.4147 114.161 17.7547 113.616 17.4587C113.616 17.4587 112.656 17.0173 112.355 16.5173L112.397 16.4373Z" fill="#B73C2B"/>
<path id="path1752" d="M114.804 15.5653C114.789 15.5653 114.775 15.5653 114.76 15.564L114.361 15.5293L114.339 15.528L114.76 15.564C114.775 15.5653 114.789 15.5653 114.804 15.5653C114.968 15.5653 115.121 15.4866 115.217 15.3533C115.121 15.4866 114.968 15.5653 114.804 15.5653Z" fill="#DEBAA1"/>
<path id="path1754" d="M114.804 15.5653C114.789 15.5653 114.775 15.5653 114.76 15.564L114.339 15.528C113.925 15.5267 113.301 15.3546 113.301 15.3546C112.649 15.2026 112.963 14.4747 112.963 14.4747L113.187 14.6307C113.225 14.64 113.264 14.6453 113.304 14.6453C113.399 14.6453 113.495 14.6173 113.577 14.568C113.799 14.4346 113.987 14.392 114.139 14.392C114.429 14.392 114.587 14.552 114.587 14.552C114.959 14.8146 115.132 14.86 115.208 14.86C115.249 14.86 115.261 14.848 115.261 14.848L115.275 14.8826C115.333 15.0386 115.313 15.2146 115.217 15.3533C115.121 15.4866 114.968 15.5653 114.804 15.5653Z" fill="#D3583A"/>
<path id="path1756" d="M113.173 11.9014C113.016 11.6894 112.784 11.5761 112.551 11.4961C112.433 11.4587 112.313 11.4307 112.193 11.4134L112.011 11.3934L111.919 11.3854L111.836 11.3814C111.615 11.3681 111.391 11.344 111.179 11.304L110.88 11.216L110.683 11.0547L110.675 11.0347L110.567 10.9934L110.519 11.0814L110.541 11.1947L110.597 11.2947L110.671 11.3734L110.751 11.4374L111.1 11.6014C111.337 11.6774 111.577 11.708 111.817 11.7227C111.947 11.7307 112.043 11.7254 112.156 11.7374L112.483 11.7734C112.695 11.808 112.916 11.8614 113.103 11.9654L113.112 11.972L113.177 11.952L113.173 11.9014Z" fill="#682B22"/>
<path id="path1758" d="M112.309 12.064C112.292 12.2827 112.363 12.468 112.472 12.4774C112.581 12.4867 112.685 12.3174 112.703 12.0974C112.723 11.8787 112.649 11.6947 112.541 11.6853C112.432 11.676 112.329 11.8454 112.309 12.064Z" fill="#682B22"/>
<path id="path1760" d="M112.723 12.624L112.743 12.6254L112.784 12.584L112.744 12.5427C112.741 12.5427 112.561 12.536 112.469 12.4147C112.409 12.336 112.397 12.224 112.432 12.0814L112.404 12.0307L112.353 12.0614C112.309 12.2294 112.327 12.364 112.404 12.4654C112.501 12.5934 112.668 12.62 112.723 12.624Z" fill="#682B22"/>
<path id="path1762" d="M113.445 10.1387C113.36 10.0067 113.249 9.94933 113.131 9.91199C113.011 9.87866 112.891 9.85333 112.769 9.82933C112.528 9.78133 112.284 9.75998 112.04 9.75332C111.796 9.75065 111.552 9.76532 111.312 9.80799C111.073 9.84799 110.84 9.91598 110.619 10.0013L110.593 10.056L110.636 10.0826H110.637C110.872 10.0733 111.1 10.0573 111.329 10.076C111.557 10.0853 111.783 10.1093 112.003 10.1506C112.225 10.1866 112.443 10.2413 112.656 10.304L112.972 10.4093C113.076 10.4427 113.185 10.464 113.313 10.4253L113.345 10.4173L113.469 10.1867L113.445 10.1387Z" fill="#682B22"/>
<path id="path1764" d="M114.517 15.1213C114.397 15.052 114.271 15.008 114.133 14.9933C114 14.9786 113.843 14.9946 113.727 15.0506L113.405 15.0773L113.14 14.876L113.099 14.868L113.088 14.9C113.12 15.028 113.213 15.1613 113.357 15.2186C113.501 15.2786 113.656 15.2533 113.787 15.1973C113.899 15.14 114.001 15.104 114.125 15.1093L114.469 15.2L114.472 15.2013L114.535 15.184L114.517 15.1213Z" fill="#682B22"/>
<path id="path1766" d="M114.323 5.40804C114.333 8.2547 111.088 10.5774 107.076 10.5907C103.064 10.604 99.8026 8.3067 99.792 5.4587C99.7813 2.6107 103.027 0.290704 107.039 0.276037C111.052 0.261371 114.313 2.5587 114.323 5.40804Z" fill="#682B22"/>
<path id="path1768" d="M114.045 5.68532C114.035 2.84132 110.627 0.546666 106.429 0.562666C105.3 0.566667 104.231 0.742665 103.268 1.04533C104.367 0.565332 105.655 0.279997 107.039 0.275996C111.052 0.26133 114.313 2.55866 114.323 5.408C114.328 6.86666 113.475 8.18533 112.105 9.12933C113.312 8.212 114.051 7.00799 114.045 5.68532Z" fill="#B14B3C"/>
<path id="path1770" d="M110.227 6.90802C110.227 6.90802 110.471 7.76403 108.717 8.7147C108.717 8.7147 107.901 9.33202 108.099 10.0214C108.099 10.0214 108.931 11.7987 107.883 12.2574C107.883 12.2574 107.075 12.72 106.765 12.1587C106.765 12.1587 106.22 10.5854 104.899 11.0467C104.899 11.0467 103.504 11.444 103.937 13.416C103.937 13.416 104.14 14.448 105.04 14.8854C105.04 14.8854 105.636 17.1294 102.612 17.6414C102.612 17.6414 98.696 16.644 98.924 11.044C99.0187 8.71736 100.291 6.57469 102.333 5.46003C103.495 4.82536 105.047 4.36935 107.101 4.40002C107.101 4.40002 109.699 4.36935 110.271 5.81602C110.271 5.81602 110.493 6.08402 110.227 6.90802Z" fill="#682B22"/>
<path id="path1772" d="M105.691 14.8054C105.312 14.8054 104.829 13.992 104.829 13.992C103.625 12.1707 105.169 11.6827 105.169 11.6827C105.225 11.668 105.279 11.6614 105.331 11.6614C105.835 11.6614 106.161 12.2747 106.255 12.472C105.725 12.7334 105.519 13.608 105.803 14.516L105.889 14.7454L105.781 14.788C105.752 14.7987 105.721 14.8054 105.691 14.8054Z" fill="#BE462D"/>
<path id="path1774" d="M105.707 15.2013C105.692 15.372 105.817 15.5227 105.987 15.536C106.157 15.5507 106.307 15.4253 106.321 15.2547C106.337 15.0853 106.211 14.936 106.041 14.92C105.871 14.9067 105.721 15.032 105.707 15.2013Z" fill="#923C1D"/>
<path id="path1776" d="M97.2386 15.5534L86.5773 13.3254L64.6573 2.73072C63.0573 1.95872 61.2466 1.67871 59.504 2.02138C52.7773 3.34138 48.6746 10.1054 50.5306 16.6374L52.3266 22.9654L57.4546 44.704L57.008 51.4094C56.496 59.0894 58.156 66.7572 61.8013 73.5374L63.352 76.4212C64.4733 78.5078 65.2587 80.7562 65.6827 83.0864L65.8426 83.9655L64.3586 87.0718C63.9346 87.9572 64.028 89.0442 64.7106 89.8802C65.2426 90.5316 66.0906 90.8452 66.932 90.8026L70.6013 90.6203C71.5373 90.5734 72.4613 90.7562 73.3546 91.0427C74.168 91.304 75.0226 91.4146 75.876 91.3718L81.1573 91.1078C82.008 91.0666 82.7946 90.6427 83.3013 89.9588L83.5733 89.5879L72.5133 84.1067L70.48 75.5228C69.192 69.5374 68.8853 65.556 68.3706 59.3147L67.6453 50.524C67.5573 49.4507 67.6853 48.3507 68.1586 47.384C68.5346 46.6134 68.7573 45.7774 68.8106 44.9214L68.9173 43.212C69.3413 36.4387 68.9346 29.64 67.7093 22.9654L70.3746 23.5814L75.616 28.8147C76.788 29.9854 78.376 30.6427 80.032 30.6427H82.2706L87.9013 34.8094C89.9066 36.2947 92.656 36.2587 94.624 34.7254L99.3 31.0774C100.7 29.984 101.449 28.252 101.283 26.4827L100.612 19.3294C100.437 17.468 99.0693 15.936 97.2386 15.5534Z" fill="#F0724E"/>
<path id="path1778" d="M86.5773 13.3253L82.5307 11.3693L78.5347 30.4533C79.0213 30.5733 79.5227 30.6427 80.032 30.6427H82.2707L83.964 31.896C85.732 26.34 88.8333 17.4187 89.6013 13.9573L86.5773 13.3253Z" fill="#223C50"/>
<path id="path1780" d="M71.2186 78.64L70.48 75.5239C69.192 69.5374 68.8853 65.556 68.3706 59.3147L67.644 50.5173C67.552 49.396 67.7506 48.2693 68.2226 47.2493C68.5613 46.516 68.76 45.728 68.8106 44.9213L68.9173 43.212C69.3413 36.4387 68.9346 29.6387 67.7093 22.9653L70.3746 23.5814L69.9746 5.30268L64.6573 2.73069C62.9173 1.88936 60.94 1.67335 59.0586 2.11735C52.5973 3.64268 48.7146 10.2507 50.5293 16.6373L52.3266 22.9653L57.4546 44.704L57.008 51.4107C56.496 59.0894 58.156 66.7572 61.8013 73.5373L63.3506 76.4212C63.7373 77.14 64.0693 77.8864 64.3746 78.64H65.4666L64.7413 69.6493L69.9746 78.64H71.2186Z" fill="#3D7195"/>
<path id="path1782" d="M97.2387 15.5533L86.5773 13.3253L84.1307 12.1427L80.708 30.6427H82.2707L87.9013 34.8093C89.9067 36.2947 92.656 36.2587 94.624 34.7253L99.3 31.0773C100.7 29.984 101.449 28.252 101.283 26.4827L100.612 19.3293C100.437 17.468 99.0693 15.936 97.2387 15.5533Z" fill="#3D7195"/>
<path id="path1784" d="M84.1307 12.1427L80.708 30.6427H82.2707L86.5773 13.3254L84.1307 12.1427Z" fill="white"/>
<path id="path1786" d="M100.681 25.6573C100.681 28.376 98.476 30.58 95.7573 30.58C93.0386 30.58 90.8347 28.376 90.8347 25.6573C90.8347 22.9387 93.0386 20.736 95.7573 20.736C98.476 20.736 100.681 22.9387 100.681 25.6573Z" fill="#F0724E"/>
<path id="path1788" d="M92.6427 56.3387L93.932 56.4667C95.716 56.6413 97.32 55.3254 97.496 53.5414L100.153 26.5427C100.329 24.7587 99.0133 23.1547 97.2293 22.9787L95.94 22.8533C94.156 22.6773 92.552 23.9934 92.376 25.7774L89.7187 52.776C89.5427 54.56 90.86 56.1627 92.6427 56.3387Z" fill="#F0724E"/>
<path id="path1790" d="M89.7853 52.928C89.7573 52.668 89.756 52.4013 89.7827 52.132L92.3133 26.4213C92.5107 24.412 94.2213 22.8973 96.2013 22.8973C96.328 22.8973 96.456 22.904 96.584 22.9173C96.768 22.9333 96.9466 22.9693 97.1213 23.012C95.3653 23.248 93.9267 24.664 93.7467 26.4986L91.408 50.248C91.292 50.3306 91.1827 50.42 91.0773 50.5146C90.2227 51.2466 89.8706 52.116 89.7853 52.928Z" fill="#D3583A"/>
<path id="path1792" d="M97.52 52.7014L97.3906 73.6879C97.416 73.8212 97.4453 73.964 97.4787 74.1119L93.736 74.816L89.84 54.148C89.4413 52.036 90.844 49.9827 92.956 49.5854C95.068 49.188 97.1213 50.5894 97.52 52.7014Z" fill="#F0724E"/>
<path id="path1794" d="M93.732 74.7958L89.84 54.148C89.8386 54.1414 89.8373 54.1334 89.836 54.1267C89.8373 54.1334 89.8386 54.1414 89.84 54.148L93.732 74.7958ZM89.8346 54.1227C89.82 54.0387 89.8066 53.952 89.796 53.8627C89.796 53.8667 89.7973 53.8694 89.7973 53.872C89.808 53.956 89.82 54.0387 89.8346 54.1227Z" fill="#DEBAA1"/>
<path id="path1796" d="M89.7973 53.872C89.7973 53.8693 89.796 53.8667 89.796 53.8627C89.76 53.5693 89.752 53.2533 89.7853 52.928C89.788 52.9547 89.792 52.9813 89.7947 53.0067C89.764 53.2907 89.764 53.58 89.7973 53.872Z" fill="#D3583A"/>
<path id="path1798" d="M89.7947 53.0067C89.792 52.9813 89.788 52.9547 89.7853 52.928C89.8706 52.116 90.2227 51.2467 91.0773 50.5147C90.3667 51.1533 89.9013 52.04 89.7947 53.0067Z" fill="#B8442B"/>
<path id="path1800" d="M93.732 74.7958L89.84 54.148C89.8387 54.1414 89.8373 54.1334 89.836 54.1267C89.836 54.1254 89.8347 54.124 89.8347 54.1227C89.82 54.0387 89.808 53.956 89.7973 53.872C89.764 53.58 89.764 53.2907 89.7946 53.0067C89.9013 52.04 90.3667 51.1534 91.0773 50.5147C91.272 50.348 91.492 50.1894 91.7413 50.0387L94.848 73.0348C94.172 73.3452 93.7293 73.9958 93.7293 74.6999C93.7293 74.7322 93.7307 74.764 93.732 74.7958Z" fill="#D3583A"/>
<path id="path1802" d="M97.54 74.1837L97.5493 74.1827C98.0627 76.3536 99.3813 79.8905 99.3373 82.6973L97.9107 89.9545C97.824 90.3957 97.2507 90.5613 96.9587 90.2171C95.4933 88.4947 95.044 81.4411 94.6866 79.6373L93.796 75.1384L93.7613 75.0291C93.568 74.0531 94.2627 73.0905 95.3147 72.8837C96.332 72.6827 97.3027 73.2613 97.54 74.1837Z" fill="#F0724E"/>
<path id="path1804" d="M97.3573 90.4015C97.212 90.4015 97.0667 90.3442 96.9587 90.2171C96.6147 89.8135 96.328 89.1171 96.084 88.264C96.328 89.1171 96.6147 89.8135 96.9587 90.2171C97.0667 90.3442 97.212 90.4015 97.3587 90.4015C97.412 90.4015 97.4667 90.3931 97.5187 90.3786C97.4667 90.3947 97.412 90.4015 97.3573 90.4015Z" fill="#C17123"/>
<path id="path1806" d="M97.3586 90.4015C97.212 90.4015 97.0666 90.3442 96.9586 90.2171C96.6146 89.8135 96.328 89.1171 96.084 88.264C95.288 85.4775 94.96 81.0187 94.6866 79.6374L93.796 75.1384L93.7613 75.0291C93.74 74.9198 93.7293 74.8094 93.7293 74.6999C93.7293 73.8452 94.3827 73.0682 95.3147 72.8838C95.4507 72.8572 95.5866 72.8442 95.7186 72.8442C96.4373 72.8442 97.0826 73.2255 97.3946 73.8171C97.1733 73.7348 96.9333 73.6879 96.684 73.6879C96.5533 73.6879 96.4186 73.7015 96.284 73.728C95.232 73.9359 94.536 74.8974 94.7306 75.8734L94.764 75.9812L95.6546 80.4802C95.976 82.104 96.3746 87.9588 97.5186 90.3786C97.4666 90.3931 97.412 90.4015 97.3586 90.4015Z" fill="#D3583A"/>
<path id="path1808" d="M68.3186 73.6561L68.3173 73.7785C68.2826 73.9426 68.1213 74.0468 67.9573 74.0134L64.1946 73.205C64.0306 73.1706 63.9266 73.0108 63.9613 72.8452C63.9973 72.6812 64.1586 72.5774 64.3226 72.6108L68.084 73.417C68.2066 73.4441 68.296 73.54 68.3186 73.6561Z" fill="#3D7195"/>
<path id="path1810" d="M68.084 72.2504C68.108 72.3717 68.056 72.5015 67.944 72.5692L64.652 74.5744C64.5093 74.6613 64.3213 74.616 64.2346 74.4717C64.1466 74.3307 64.1933 74.1411 64.336 74.0545L67.628 72.0504C67.7706 71.9624 67.9573 72.0077 68.044 72.1504L68.084 72.2504Z" fill="#3D7195"/>
<path id="path1812" d="M68.7706 75.2774V75.4014C68.736 75.5654 68.5746 75.6692 68.4093 75.6348L64.6467 74.8264C64.4827 74.793 64.3787 74.6332 64.4147 74.4665C64.4493 74.3025 64.6106 74.1973 64.7746 74.2332L68.536 75.0384C68.6586 75.0654 68.7493 75.1613 68.7706 75.2774Z" fill="#3D7195"/>
<path id="path1814" d="M68.536 73.8707C68.56 73.9931 68.508 74.1228 68.396 74.1906L65.104 76.1947C64.9613 76.2827 64.7747 76.2374 64.688 76.0931C64.6 75.9504 64.644 75.7624 64.788 75.676L68.08 73.6717C68.2227 73.5837 68.4107 73.6291 68.4973 73.7733L68.536 73.8707Z" fill="#3D7195"/>
<path id="path1816" d="M69.0866 76.8561L69.0853 76.9775C69.0506 77.1427 68.8893 77.2479 68.7253 77.2119L64.9627 76.4067C64.8 76.3707 64.6947 76.2108 64.7293 76.0441C64.764 75.8801 64.9253 75.776 65.0893 75.8108L68.8533 76.6171C68.9733 76.6427 69.064 76.74 69.0866 76.8561Z" fill="#3D7195"/>
<path id="path1818" d="M68.852 75.4493C68.8747 75.5717 68.8227 75.6999 68.7107 75.7692L65.42 77.7733C65.2773 77.8613 65.0893 77.8145 65.0027 77.6717C64.916 77.528 64.9613 77.3427 65.104 77.2531L68.3947 75.2504C68.5373 75.1624 68.7253 75.2077 68.812 75.352L68.852 75.4493Z" fill="#3D7195"/>
<path id="path1820" d="M67.5813 4.14268L68.0866 23.052L69.0626 23.2773L68.5613 4.61867L67.5813 4.14268Z" fill="#223C50"/>
</g>
</svg>
