<svg width="1302" height="887" viewBox="0 0 1302 887" fill="none" xmlns="http://www.w3.org/2000/svg">
<path d="M860.183 202.697H1182.9C1182.9 202.697 1191.97 203.837 1191.97 193.628C1191.97 193.628 1193.67 185.399 1183.75 185.399C1173.82 185.399 1181.76 185.117 1181.76 185.117H1108.67H879.471H863.021C863.021 185.117 854.797 186.251 854.797 193.341C854.797 193.341 852.811 202.697 860.183 202.697Z" fill="#FBFCFE"/>
<path d="M975.303 195.893C977.132 191.132 978.187 185.98 978.187 180.576C978.187 157.077 959.136 138.031 935.639 138.031C912.14 138.031 893.087 157.077 893.087 180.576C893.087 185.98 894.139 191.132 895.979 195.893H975.303Z" fill="#FBFCFE"/>
<path d="M1133.63 189.721C1135.07 185.98 1135.9 181.931 1135.9 177.668C1135.9 159.185 1120.91 144.195 1102.42 144.195C1083.94 144.195 1068.95 159.185 1068.95 177.668C1068.95 181.931 1069.78 185.98 1071.23 189.721H1133.63Z" fill="#FBFCFE"/>
<path d="M1090.01 193.669C1093.22 185.36 1095.06 176.356 1095.06 166.913C1095.06 125.873 1061.78 92.6 1020.73 92.6C979.688 92.6 946.417 125.873 946.417 166.913C946.417 176.356 948.248 185.36 951.467 193.669H1090.01Z" fill="#FBFCFE"/>
<path d="M1151.21 185.117C1151.21 185.117 1138.06 185.54 1135.08 170.857L1122.85 190.788L1134.76 202.136L1148.38 196.463L1151.21 185.117Z" fill="#FBFCFE"/>
<path d="M877.988 185.117C877.988 185.117 891.145 185.54 894.124 170.857L906.357 190.788L894.44 202.136L880.821 196.463L877.988 185.117Z" fill="#FBFCFE"/>
<path d="M315.439 253.913H525.628C525.628 253.913 531.539 254.656 531.539 248.005C531.539 248.005 532.647 242.645 526.185 242.645C519.716 242.645 524.891 242.463 524.891 242.463H477.284H328.001H317.287C317.287 242.463 311.931 243.2 311.931 247.82C311.931 247.82 310.635 253.913 315.439 253.913Z" fill="#FBFCFE"/>
<path d="M390.419 249.48C391.609 246.381 392.297 243.025 392.297 239.504C392.297 224.2 379.888 211.793 364.584 211.793C349.279 211.793 336.869 224.2 336.869 239.504C336.869 243.025 337.555 246.381 338.752 249.48H390.419Z" fill="#FBFCFE"/>
<path d="M493.537 245.463C494.48 243.025 495.021 240.388 495.021 237.611C495.021 225.573 485.255 215.809 473.213 215.809C461.175 215.809 451.413 225.573 451.413 237.611C451.413 240.388 451.953 243.025 452.895 245.463H493.537Z" fill="#FBFCFE"/>
<path d="M465.128 248.032C467.219 242.62 468.415 236.756 468.415 230.607C468.415 203.875 446.74 182.205 420.008 182.205C393.275 182.205 371.603 203.875 371.603 230.607C371.603 236.756 372.796 242.62 374.895 248.032H465.128Z" fill="#FBFCFE"/>
<path d="M504.991 242.463C504.991 242.463 496.421 242.737 494.487 233.175L486.515 246.156L494.275 253.547L503.145 249.852L504.991 242.463Z" fill="#FBFCFE"/>
<path d="M327.035 242.463C327.035 242.463 335.604 242.737 337.545 233.175L345.512 246.156L337.751 253.547L328.88 249.852L327.035 242.463Z" fill="#FBFCFE"/>
<path d="M0 801H1199V0H0V801Z" fill="white"/>
<path d="M752.067 86.2151C731.161 102.014 705.949 110.57 681.913 120.851C602.386 154.86 527.246 217.981 511.683 303.885C503.307 350.117 512.697 399.833 494.727 443.18C453.138 543.497 298.515 546.273 247.28 641.914C230.869 672.549 227.807 708.583 215.749 741.221C205.481 769.011 184.306 796.402 157 803H1199V0H818.139C798.448 31.189 781.091 64.2812 752.067 86.2151Z" fill="#C3E4E3"/>
<path d="M1199.01 280.608C1156.28 287.391 1111.68 282.301 1071.66 265.836C1054.92 258.953 1038.31 249.989 1020.22 249.68C986.417 249.103 958.244 278.596 924.487 280.375C890.748 282.152 862.111 256.248 829.252 248.391C803.268 242.176 776.663 247.576 750.02 252.975C724.336 258.18 698.62 263.384 673.395 258.185C649.819 253.325 628.156 239.552 604.095 238.847C577.328 238.061 550.987 253.529 525.26 257.831C519.167 271.3 514.572 285.479 511.843 300.368C503.469 346.065 512.857 395.205 494.891 438.051C486.888 457.135 474.689 472.637 459.857 485.919C477.9 502.781 498.596 517.008 519.245 530.72C530.779 538.379 542.7 546.092 556.213 549.105C568.876 551.928 582.089 550.419 594.861 548.135C640.492 539.976 683.759 522.221 728.161 508.907C781.68 492.856 837.121 483.217 892.917 480.263C939.209 477.812 985.799 479.921 1032.32 482.032C1088.19 484.565 1143.96 487.1 1199.01 481.735V280.608Z" fill="#DAF3F2"/>
<path d="M892.217 100.035H1121.99C1121.99 100.035 1128.45 100.847 1128.45 93.5773C1128.45 93.5773 1129.66 87.7187 1122.59 87.7187C1115.52 87.7187 1121.18 87.5174 1121.18 87.5174H1069.14H905.951H894.237C894.237 87.5174 888.383 88.3227 888.383 93.3734C888.383 93.3734 886.968 100.035 892.217 100.035Z" fill="#DAF3F2"/>
<path d="M974.18 95.1893C975.483 91.8013 976.235 88.1333 976.235 84.284C976.235 67.5547 962.669 53.992 945.941 53.992C929.211 53.992 915.644 67.5547 915.644 84.284C915.644 88.1333 916.393 91.8013 917.703 95.1893H974.18Z" fill="#DAF3F2"/>
<path d="M1086.9 90.796C1087.93 88.1334 1088.52 85.248 1088.52 82.2133C1088.52 69.0547 1077.85 58.3814 1064.69 58.3814C1051.53 58.3814 1040.86 69.0547 1040.86 82.2133C1040.86 85.248 1041.45 88.1334 1042.48 90.796H1086.9Z" fill="#DAF3F2"/>
<path d="M1055.85 93.6067C1058.13 87.6894 1059.44 81.2787 1059.44 74.5573C1059.44 45.336 1035.75 21.6467 1006.53 21.6467C977.303 21.6467 953.615 45.336 953.615 74.5573C953.615 81.2787 954.917 87.6894 957.209 93.6067H1055.85Z" fill="#DAF3F2"/>
<path d="M1099.43 87.5173C1099.43 87.5173 1090.06 87.8186 1087.94 77.3653L1079.23 91.556L1087.71 99.6346L1097.41 95.5947L1099.43 87.5173Z" fill="#DAF3F2"/>
<path d="M904.893 87.5173C904.893 87.5173 914.261 87.8187 916.384 77.3667L925.092 91.5546L916.607 99.6346L906.911 95.5947L904.893 87.5173Z" fill="#DAF3F2"/>
<path d="M683.421 120.404H807.4C807.4 120.404 810.887 120.841 810.887 116.919C810.887 116.919 811.54 113.757 807.729 113.757C803.913 113.757 806.964 113.649 806.964 113.649H778.884H690.832H684.511C684.511 113.649 681.352 114.085 681.352 116.809C681.352 116.809 680.588 120.404 683.421 120.404Z" fill="#ECF9FB"/>
<path d="M727.648 117.789C728.349 115.96 728.756 113.981 728.756 111.904C728.756 102.877 721.436 95.5587 712.409 95.5587C703.383 95.5587 696.063 102.877 696.063 111.904C696.063 113.981 696.465 115.96 697.173 117.789H727.648Z" fill="#ECF9FB"/>
<path d="M788.472 115.419C789.027 113.981 789.345 112.425 789.345 110.788C789.345 103.688 783.587 97.9281 776.484 97.9281C769.383 97.9281 763.624 103.688 763.624 110.788C763.624 112.425 763.944 113.981 764.5 115.419H788.472Z" fill="#ECF9FB"/>
<path d="M771.715 116.935C772.948 113.743 773.653 110.283 773.653 106.656C773.653 90.888 760.868 78.1067 745.101 78.1067C729.332 78.1067 716.551 90.888 716.551 106.656C716.551 110.283 717.253 113.743 718.491 116.935H771.715Z" fill="#ECF9FB"/>
<path d="M795.228 113.649C795.228 113.649 790.173 113.812 789.032 108.171L784.329 115.828L788.907 120.188L794.139 118.008L795.228 113.649Z" fill="#ECF9FB"/>
<path d="M690.261 113.649C690.261 113.649 695.316 113.812 696.46 108.171L701.16 115.828L696.581 120.188L691.349 118.008L690.261 113.649Z" fill="#ECF9FB"/>
<path d="M949.601 174.479C949.601 185.341 940.795 194.148 929.931 194.148C919.067 194.148 910.261 185.341 910.261 174.479C910.261 163.615 919.067 154.808 929.931 154.808C940.795 154.808 949.601 163.615 949.601 174.479Z" fill="#D7F1F2"/>
<path d="M959.009 206.121C959.009 222.181 945.991 235.199 929.931 235.199C913.872 235.199 900.853 222.181 900.853 206.121C900.853 190.063 913.872 177.044 929.931 177.044C945.991 177.044 959.009 190.063 959.009 206.121Z" fill="#D7F1F2"/>
<path d="M966.707 233.489C966.707 253.8 950.241 270.264 929.931 270.264C909.621 270.264 893.156 253.8 893.156 233.489C893.156 213.179 909.621 196.715 929.931 196.715C950.241 196.715 966.707 213.179 966.707 233.489Z" fill="#D7F1F2"/>
<path d="M932.084 336.116H927.78V177.044H932.084V336.116Z" fill="#779B97"/>
<path d="M929.765 253.752C909.621 253.752 904.896 232.111 904.849 231.891L909.065 231.017L906.957 231.455L909.065 231.013C909.224 231.767 913.149 249.448 929.765 249.448V253.752Z" fill="#779B97"/>
<path d="M930.524 232.847V228.541C945.187 228.541 946.949 216.124 947.016 215.596L951.287 216.143C951.264 216.309 948.931 232.847 930.524 232.847Z" fill="#779B97"/>
<path d="M930.145 211.94C925.056 211.94 921.132 210.435 918.484 207.465C914.379 202.864 915.052 196.507 915.083 196.239L919.36 196.72C919.355 196.767 918.892 201.483 921.717 204.623C923.515 206.621 926.351 207.636 930.145 207.636V211.94Z" fill="#779B97"/>
<path d="M895.404 199.228C895.404 206.613 889.417 212.6 882.032 212.6C874.647 212.6 868.66 206.613 868.66 199.228C868.66 191.843 874.647 185.856 882.032 185.856C889.417 185.856 895.404 191.843 895.404 199.228Z" fill="#D7F1F2"/>
<path d="M901.8 220.74C901.8 231.657 892.951 240.508 882.032 240.508C871.116 240.508 862.264 231.657 862.264 220.74C862.264 209.823 871.116 200.972 882.032 200.972C892.951 200.972 901.8 209.823 901.8 220.74Z" fill="#D7F1F2"/>
<path d="M907.033 239.345C907.033 253.152 895.84 264.345 882.032 264.345C868.225 264.345 857.032 253.152 857.032 239.345C857.032 225.537 868.225 214.344 882.032 214.344C895.84 214.344 907.033 225.537 907.033 239.345Z" fill="#D7F1F2"/>
<path d="M883.496 309.113H880.569V200.972H883.496V309.113Z" fill="#779B97"/>
<path d="M881.919 253.121C868.225 253.121 865.012 238.408 864.981 238.259L867.847 237.665L866.413 237.961L867.845 237.663C867.955 238.173 870.623 250.195 881.919 250.195V253.121Z" fill="#779B97"/>
<path d="M882.436 238.908V235.981C892.404 235.981 893.601 227.54 893.647 227.181L896.549 227.553C896.535 227.667 894.949 238.908 882.436 238.908Z" fill="#779B97"/>
<path d="M882.177 224.695C878.719 224.695 876.051 223.672 874.249 221.653C871.459 218.525 871.917 214.204 871.939 214.021L874.845 214.348C874.843 214.38 874.528 217.587 876.448 219.721C877.671 221.08 879.599 221.769 882.177 221.769V224.695Z" fill="#779B97"/>
<path d="M716.132 200.093C716.132 205.931 711.399 210.663 705.563 210.663C699.725 210.663 694.993 205.931 694.993 200.093C694.993 194.256 699.725 189.524 705.563 189.524C711.399 189.524 716.132 194.256 716.132 200.093Z" fill="#D7F1F2"/>
<path d="M721.187 217.096C721.187 225.724 714.191 232.72 705.563 232.72C696.933 232.72 689.939 225.724 689.939 217.096C689.939 208.467 696.933 201.472 705.563 201.472C714.191 201.472 721.187 208.467 721.187 217.096Z" fill="#D7F1F2"/>
<path d="M725.323 231.801C725.323 242.713 716.476 251.56 705.563 251.56C694.649 251.56 685.803 242.713 685.803 231.801C685.803 220.888 694.649 212.041 705.563 212.041C716.476 212.041 725.323 220.888 725.323 231.801Z" fill="#D7F1F2"/>
<path d="M706.72 286.944H704.405V201.472H706.72V286.944Z" fill="#779B97"/>
<path d="M705.473 242.689C694.649 242.689 692.111 231.06 692.085 230.943L694.351 230.472L693.219 230.707L694.349 230.471C694.436 230.875 696.545 240.376 705.473 240.376V242.689Z" fill="#779B97"/>
<path d="M705.881 231.455V229.143C713.76 229.143 714.707 222.471 714.743 222.187L717.036 222.48C717.025 222.571 715.772 231.455 705.881 231.455Z" fill="#779B97"/>
<path d="M705.677 220.223C702.944 220.223 700.836 219.413 699.411 217.817C697.207 215.345 697.567 211.929 697.584 211.785L699.883 212.044C699.88 212.069 699.631 214.603 701.149 216.291C702.116 217.364 703.639 217.909 705.677 217.909V220.223Z" fill="#779B97"/>
<path d="M1199 316.612C1172.24 319.971 1146.01 333.531 1119.24 340.253C1052.98 356.884 987.682 331.33 921.964 305.777C862.152 282.52 801.991 259.263 740.444 267.808C710.711 271.936 682.522 283.402 654.686 294.771C605.572 314.83 556.458 334.887 507.344 354.947C506.488 384.307 505.82 413.557 494.727 440.374C453.138 540.916 298.515 543.698 247.28 639.554C230.869 670.257 227.807 706.372 215.749 739.083C205.481 766.935 184.306 794.388 157 801H1199V316.612Z" fill="#90BAB4"/>
<path d="M1199 801V402.908C1192.71 399.262 1185.64 396.935 1178.64 394.911C1120.2 378.02 1057.24 377.694 998.634 393.981C906.731 419.52 824.416 484.879 729.15 485.202C673.254 485.394 620.03 462.811 565.357 450.969C541.677 445.842 516.341 443.205 491.958 445.068C446.708 539.985 297.445 544.645 247.28 638.887C230.869 669.717 227.807 705.981 215.749 738.827C205.481 766.794 184.306 794.36 157 801H1199Z" fill="#A8CECA"/>
<path d="M1145.73 272.755H1162.08L1131.31 223.581L1138.06 223.575L1113.01 183.632L1129.15 183.615L1109.51 152.3L1119.29 152.287L1100.87 122.927L1111.89 122.915L1098.79 102.033L1106.95 102.025L1076.26 13.98L1045.32 101.696L1053.56 101.856L1040.39 122.531L1051.52 122.748L1033.01 151.827L1042.91 152.017L1023.16 183.045L1035.56 183.288L1010.35 222.889L1023.06 223.135L992.097 271.655L1006.14 271.944L974.492 321.4L1038.49 322.707H1177.07L1145.73 272.755Z" fill="#D7F1F2"/>
<path d="M1076.17 14.2293L1045.32 101.696L1053.56 101.856L1040.39 122.531L1051.52 122.748L1033.01 151.827L1042.91 152.017L1023.16 183.045L1035.56 183.288L1010.35 222.889L1023.06 223.135L992.097 271.655L1006.14 271.944L974.492 321.4L1024.12 270.463L1076.17 14.2293Z" fill="#EEF9FB"/>
<path d="M1071.62 322.707H1038.49L974.492 321.4L1071.62 297.115V322.707ZM1079.46 313.988V299.279L1088.75 299.471L1079.46 313.988ZM1093.13 268.663L1076.17 14.2293L1076.26 13.98L1106.95 102.025L1098.79 102.033L1111.89 122.915L1100.87 122.927L1119.29 152.287L1109.51 152.3L1119.27 167.859L1117.6 170.479L1120.95 170.544L1124.61 176.376L1120 183.624L1113.01 183.632L1116.47 189.161L1107.02 204.004L1120.34 204.265L1093.27 246.792L1106.92 247.056L1093.13 268.663Z" fill="#B4CDC2"/>
<path d="M1079.46 411.979C1079.46 414.14 1077.7 415.895 1075.54 415.895C1073.38 415.895 1071.62 414.14 1071.62 411.979V172.983C1071.62 170.82 1073.38 169.064 1075.54 169.064C1077.7 169.064 1079.46 170.82 1079.46 172.983V411.979Z" fill="#779B97"/>
<path d="M1081.18 282.589C1079.65 284.117 1077.17 284.117 1075.64 282.587C1074.11 281.056 1074.11 278.576 1075.64 277.048L1107.12 245.561C1108.65 244.033 1111.13 244.033 1112.66 245.561C1114.19 247.092 1114.19 249.572 1112.66 251.103L1081.18 282.589Z" fill="#779B97"/>
<path d="M1074.79 232.64C1076.32 234.171 1076.32 236.652 1074.79 238.183C1073.26 239.713 1070.78 239.713 1069.25 238.183L1037.76 206.699C1036.23 205.168 1036.23 202.688 1037.76 201.157C1039.29 199.627 1041.77 199.627 1043.3 201.157L1074.79 232.64Z" fill="#779B97"/>
<path d="M1067.22 143.448C1064.52 143.448 1062.32 141.256 1062.32 138.552C1062.32 135.848 1064.52 133.653 1067.22 133.653C1069.92 133.653 1072.12 135.848 1072.12 138.552C1072.12 141.256 1069.92 143.448 1067.22 143.448Z" fill="#B4CDC2"/>
<path d="M1040.16 236.873C1037.79 236.873 1035.87 234.952 1035.87 232.585C1035.87 230.219 1037.79 228.301 1040.16 228.301C1042.53 228.301 1044.44 230.219 1044.44 232.585C1044.44 234.952 1042.53 236.873 1040.16 236.873Z" fill="#B4CDC2"/>
<path d="M1052.85 193.855C1048.46 193.855 1044.9 190.289 1044.9 185.895C1044.9 181.5 1048.46 177.937 1052.85 177.937C1057.25 177.937 1060.81 181.5 1060.81 185.895C1060.81 190.289 1057.25 193.855 1052.85 193.855Z" fill="#B4CDC2"/>
<path d="M1238.65 300.341H1256.21L1223.16 247.535L1230.42 247.528L1203.51 204.636L1220.85 204.615L1199.75 170.988L1210.26 170.973L1190.48 139.444L1202.31 139.432L1188.24 117.008L1197.01 116.999L1164.05 22.4493L1130.82 116.645L1139.67 116.817L1125.53 139.02L1137.48 139.255L1117.6 170.479L1128.24 170.684L1107.02 204.004L1120.34 204.265L1093.27 246.792L1106.92 247.056L1073.67 299.16L1088.75 299.471L1054.76 352.58L1123.49 353.983H1272.31L1238.65 300.341Z" fill="#D7F1F2"/>
<path d="M1163.95 22.7173L1130.82 116.645L1139.67 116.817L1125.53 139.02L1137.48 139.255L1117.6 170.479L1128.24 170.684L1107.02 204.004L1120.34 204.265L1093.27 246.792L1106.92 247.056L1073.67 299.16L1088.75 299.471L1054.76 352.58L1108.06 297.879L1163.95 22.7173Z" fill="#EEF9FB"/>
<path d="M1199.01 353.983H1123.49L1079.46 353.084L1071.62 352.925L1054.76 352.58L1183.79 320.319L1163.95 22.7173L1164.05 22.4493L1197.01 116.999L1188.24 117.008L1199.01 134.172V139.435L1190.48 139.444L1199.01 153.047V353.983Z" fill="#B4CDC2"/>
<path d="M1167.48 449.852C1167.48 452.172 1165.6 454.056 1163.28 454.056C1160.95 454.056 1159.07 452.172 1159.07 449.852V193.199C1159.07 190.876 1160.95 188.991 1163.28 188.991C1165.6 188.991 1167.48 190.876 1167.48 193.199V449.852Z" fill="#779B97"/>
<path d="M1169.33 310.903C1167.69 312.543 1165.02 312.543 1163.38 310.899C1161.74 309.256 1161.74 306.592 1163.38 304.952L1197.19 271.139C1198.84 269.499 1201.5 269.499 1203.14 271.139C1204.78 272.783 1204.78 275.445 1203.14 277.089L1169.33 310.903Z" fill="#779B97"/>
<path d="M1162.47 257.264C1164.11 258.908 1164.11 261.571 1162.47 263.215C1160.83 264.859 1158.16 264.859 1156.52 263.215L1122.71 229.405C1121.06 227.761 1121.06 225.097 1122.71 223.455C1124.35 221.811 1127.01 221.811 1128.66 223.455L1162.47 257.264Z" fill="#779B97"/>
<path d="M1154.34 161.481C1151.44 161.481 1149.08 159.129 1149.08 156.224C1149.08 153.32 1151.44 150.964 1154.34 150.964C1157.24 150.964 1159.6 153.32 1159.6 156.224C1159.6 159.129 1157.24 161.481 1154.34 161.481Z" fill="#B4CDC2"/>
<path d="M1125.28 261.808C1122.74 261.808 1120.68 259.747 1120.68 257.204C1120.68 254.663 1122.74 252.604 1125.28 252.604C1127.82 252.604 1129.88 254.663 1129.88 257.204C1129.88 259.747 1127.82 261.808 1125.28 261.808Z" fill="#B4CDC2"/>
<path d="M1138.91 215.612C1134.19 215.612 1130.37 211.784 1130.37 207.064C1130.37 202.345 1134.19 198.52 1138.91 198.52C1143.63 198.52 1147.46 202.345 1147.46 207.064C1147.46 211.784 1143.63 215.612 1138.91 215.612Z" fill="#B4CDC2"/>
<path d="M651.908 269.36H659.456L645.249 246.656L648.369 246.653L636.8 228.212L644.256 228.203L635.185 213.745L639.7 213.74L631.197 200.184L636.285 200.179L630.236 190.537L634.007 190.533L619.835 149.884L605.549 190.381L609.352 190.456L603.275 200.001L608.411 200.101L599.865 213.527L604.439 213.615L595.317 227.941L601.043 228.053L589.403 246.336L595.273 246.449L580.977 268.851L587.46 268.984L572.848 291.819L602.396 292.421H666.38L651.908 269.36Z" fill="#D7F1F2"/>
<path d="M619.793 149.999L605.549 190.381L609.352 190.456L603.275 200.001L608.411 200.101L599.865 213.527L604.439 213.615L595.317 227.941L601.043 228.053L589.403 246.336L595.273 246.449L580.977 268.851L587.46 268.984L572.848 291.819L595.761 268.301L619.793 149.999Z" fill="#EEF9FB"/>
<path d="M666.38 292.421H602.396L595.087 292.272L591.833 287.072L628.324 277.948L619.793 149.999L619.835 149.884L634.007 190.533L630.236 190.537L636.285 200.179L631.197 200.184L639.7 213.74L635.185 213.745L644.256 228.203L636.8 228.212L648.369 246.653L645.249 246.656L659.456 269.36H651.908L666.38 292.421Z" fill="#B4CDC2"/>
<path d="M621.312 333.639C621.312 334.637 620.503 335.447 619.503 335.447C618.504 335.447 617.695 334.637 617.695 333.639V223.295C617.695 222.296 618.504 221.485 619.503 221.485C620.503 221.485 621.312 222.296 621.312 223.295V333.639Z" fill="#779B97"/>
<path d="M622.107 273.9C621.399 274.605 620.253 274.605 619.548 273.899C618.843 273.192 618.843 272.047 619.548 271.341L634.084 256.804C634.791 256.099 635.936 256.099 636.643 256.804C637.348 257.511 637.348 258.656 636.643 259.363L622.107 273.9Z" fill="#779B97"/>
<path d="M619.156 250.839C619.861 251.545 619.861 252.691 619.156 253.397C618.449 254.104 617.304 254.104 616.597 253.397L602.061 238.861C601.353 238.155 601.353 237.009 602.061 236.303C602.768 235.596 603.912 235.596 604.62 236.303L619.156 250.839Z" fill="#779B97"/>
<path d="M615.661 209.659C614.412 209.659 613.4 208.647 613.4 207.397C613.4 206.149 614.412 205.136 615.661 205.136C616.909 205.136 617.923 206.149 617.923 207.397C617.923 208.647 616.909 209.659 615.661 209.659Z" fill="#B4CDC2"/>
<path d="M603.168 252.792C602.075 252.792 601.189 251.905 601.189 250.813C601.189 249.72 602.075 248.835 603.168 248.835C604.261 248.835 605.147 249.72 605.147 250.813C605.147 251.905 604.261 252.792 603.168 252.792Z" fill="#B4CDC2"/>
<path d="M609.028 232.931C606.999 232.931 605.353 231.285 605.353 229.256C605.353 227.227 606.999 225.581 609.028 225.581C611.057 225.581 612.703 227.227 612.703 229.256C612.703 231.285 611.057 232.931 609.028 232.931Z" fill="#B4CDC2"/>
<path d="M590.159 294.948H596.761L584.336 275.091L587.064 275.089L576.947 258.96L583.467 258.953L575.535 246.308L579.483 246.303L572.045 234.448L576.495 234.443L571.205 226.011L574.503 226.008L562.108 190.456L549.615 225.875L552.941 225.94L547.625 234.288L552.117 234.376L544.643 246.117L548.643 246.195L540.665 258.723L545.673 258.821L535.493 274.812L540.627 274.912L528.124 294.504L533.795 294.62L521.015 314.591L546.856 315.117H602.816L590.159 294.948Z" fill="#D7F1F2"/>
<path d="M562.072 190.556L549.615 225.875L552.941 225.94L547.625 234.288L552.117 234.376L544.643 246.117L548.643 246.195L540.665 258.723L545.673 258.821L535.493 274.812L540.627 274.912L528.124 294.504L533.795 294.62L521.015 314.591L541.055 294.023L562.072 190.556Z" fill="#EEF9FB"/>
<path d="M602.816 315.117H546.856L521.015 314.591L569.533 302.46L562.072 190.556L562.108 190.456L574.503 226.008L571.205 226.011L576.495 234.443L572.045 234.448L579.483 246.303L575.535 246.308L583.467 258.953L576.947 258.96L587.064 275.089L584.336 275.091L596.761 294.948H590.159L602.816 315.117Z" fill="#B4CDC2"/>
<path d="M563.4 351.167C563.4 352.039 562.692 352.748 561.817 352.748C560.944 352.748 560.236 352.039 560.236 351.167V254.66C560.236 253.787 560.944 253.079 561.817 253.079C562.692 253.079 563.4 253.787 563.4 254.66V351.167Z" fill="#779B97"/>
<path d="M564.095 298.919C563.477 299.536 562.475 299.536 561.857 298.917C561.239 298.3 561.239 297.299 561.857 296.681L574.571 283.968C575.188 283.351 576.191 283.351 576.808 283.968C577.425 284.585 577.425 285.587 576.808 286.204L564.095 298.919Z" fill="#779B97"/>
<path d="M561.515 278.751C562.132 279.368 562.132 280.369 561.515 280.988C560.896 281.605 559.895 281.605 559.277 280.988L546.564 268.275C545.945 267.656 545.945 266.655 546.564 266.037C547.181 265.419 548.183 265.419 548.8 266.037L561.515 278.751Z" fill="#779B97"/>
<path d="M558.457 242.735C557.367 242.735 556.48 241.849 556.48 240.757C556.48 239.665 557.367 238.78 558.457 238.78C559.549 238.78 560.436 239.665 560.436 240.757C560.436 241.849 559.549 242.735 558.457 242.735Z" fill="#B4CDC2"/>
<path d="M547.532 280.459C546.576 280.459 545.801 279.683 545.801 278.728C545.801 277.772 546.576 276.997 547.532 276.997C548.487 276.997 549.261 277.772 549.261 278.728C549.261 279.683 548.487 280.459 547.532 280.459Z" fill="#B4CDC2"/>
<path d="M552.656 263.088C550.881 263.088 549.444 261.648 549.444 259.873C549.444 258.1 550.881 256.661 552.656 256.661C554.431 256.661 555.871 258.1 555.871 259.873C555.871 261.648 554.431 263.088 552.656 263.088Z" fill="#B4CDC2"/>
<path d="M784.596 710.124C770.224 710.124 755.777 708.886 741.447 707.644C668.711 701.344 595.976 695.043 523.24 688.743C514.279 687.967 505.001 687.096 497.173 682.665C489.345 678.233 483.368 669.185 485.42 660.426C488.135 648.853 502 644.376 513.735 642.469C539.145 638.339 564.695 636.773 590.332 636.773C650.803 636.773 711.737 645.488 772.304 649.82C776.297 650.105 780.416 650.328 784.532 650.328C797.015 650.328 809.455 648.288 818.133 639.801L842.572 637.961C867.7 641.78 893.144 645.601 918.463 645.6C928.84 645.6 939.201 644.957 949.504 643.411C974.76 639.616 998.924 630.476 1024.03 625.763C1041.06 622.565 1058.36 621.439 1075.71 621.439C1088.73 621.439 1101.77 622.073 1114.75 622.944C1130.67 624.015 1150.05 628.101 1154.64 643.383C1157.69 653.54 1152.07 664.726 1143.7 671.235C1135.33 677.744 1124.72 680.532 1114.37 682.864C1075.09 691.712 1034.83 696.172 994.563 696.172C980.807 696.172 967.045 695.65 953.328 694.607C935.921 693.283 918.415 691.124 901.013 691.124C893.081 691.124 885.171 691.572 877.301 692.753C856.533 695.868 836.805 703.993 816.121 707.625C805.7 709.455 795.168 710.124 784.596 710.124Z" fill="#8BA9A1"/>
<path d="M749.879 232.095C749.879 232.095 753.656 254.092 789.252 262.643L793.751 257.915V264.112C793.751 264.112 819.437 269.359 838.549 264.112V257.915L843.391 264.112C843.391 264.112 891.155 242.977 887.292 213.009C883.431 183.043 850.304 169.177 850.304 169.177C850.304 169.177 841.032 158.637 836.121 157.841C831.213 157.047 793.429 160.427 792.733 161.023C792.037 161.62 776.128 188.019 768.372 193.313C760.616 198.608 756.839 207.296 754.055 212C751.271 216.705 748.088 228.068 748.088 228.068L749.879 232.095Z" fill="#A1643F"/>
<path d="M783.915 209.344C787.815 217.409 787.583 225.588 783.397 227.612C779.211 229.636 772.656 224.74 768.756 216.676C764.855 208.611 765.087 200.432 769.273 198.408C773.459 196.384 780.013 201.28 783.915 209.344Z" fill="#F1C596"/>
<path d="M846.171 209.344C842.271 217.409 842.503 225.588 846.688 227.612C850.875 229.636 857.429 224.74 861.329 216.676C865.229 208.611 864.999 200.432 860.812 198.408C856.625 196.384 850.069 201.28 846.171 209.344Z" fill="#F1C596"/>
<path d="M856.775 307.153C843.573 303.091 834.18 291.395 833.065 277.628L830.14 241.563L817.777 233.843V230.427L815.043 232.135L812.308 230.427V233.843L799.945 241.563L797.02 277.628C795.904 291.395 786.511 303.091 773.311 307.153L722.787 322.699H812.308H817.777H907.299L856.775 307.153Z" fill="#F1C596"/>
<path d="M797.787 268.183L798.056 264.848H798.057L797.787 268.183Z" fill="#8A9081"/>
<path d="M797.137 276.177L797.787 268.183L797.139 276.177" fill="#576A60"/>
<path d="M798.057 264.848H798.056L798.745 256.357L798.057 264.848Z" fill="#673A26"/>
<path d="M815.043 285.403C809.759 285.403 803.347 282.032 797.137 276.177L797.787 268.183L798.057 264.848L798.745 256.357C804.441 261.309 810.213 264.112 815.043 264.112C819.591 264.112 825.429 261.112 831.297 255.84L832.901 275.631C826.505 281.832 820.007 285.403 815.043 285.403Z" fill="#9B734F"/>
<path d="M722.787 322.699H907.299L894.073 361.539C891.46 369.211 884.255 374.369 876.149 374.369H751.532C743.027 374.369 735.565 368.699 733.288 360.503L722.787 322.699Z" fill="#FEF0D6"/>
<path d="M857.068 196.248C857.068 233.728 829.524 264.112 815.043 264.112C799.14 264.112 773.016 233.728 773.016 196.248C773.016 158.768 791.832 142.937 815.043 142.937C838.253 142.937 857.068 158.768 857.068 196.248Z" fill="#F1C596"/>
<path d="M850.992 227.84L850.256 227.535C853.716 219.243 855.801 210.664 856.453 202.035L857.245 202.095C856.587 210.808 854.483 219.471 850.992 227.84Z" fill="#BF641D"/>
<path d="M773.063 204.756C772.768 201.931 772.619 199.067 772.619 196.248C772.619 178.417 776.792 164.632 785.027 155.276C792.359 146.944 802.737 142.54 815.043 142.54C827.347 142.54 837.728 146.944 845.059 155.276C853.292 164.632 857.467 178.417 857.467 196.248C857.467 198.183 857.392 200.149 857.245 202.095L856.452 202.035C856.597 200.109 856.672 198.163 856.672 196.248C856.672 163.116 841.109 143.336 815.043 143.336C788.976 143.336 773.413 163.116 773.413 196.248C773.413 199.04 773.563 201.875 773.853 204.675L773.063 204.756Z" fill="#BF641D"/>
<path d="M778.82 227.835C775.82 220.375 773.883 212.611 773.063 204.756L773.853 204.675C774.667 212.453 776.585 220.147 779.559 227.539L778.82 227.835Z" fill="#BF641D"/>
<path d="M849.011 197.873C847.275 197.555 845.481 197.347 843.741 197.249C841.995 197.155 840.265 197.133 838.553 197.268C836.844 197.4 835.145 197.579 833.48 197.949C832.639 198.092 831.807 198.26 830.917 198.277C830.028 198.303 829.128 198.337 828.071 198.064L827.981 198.04C827.499 197.916 827.209 197.423 827.335 196.941C827.368 196.809 827.431 196.691 827.511 196.592C828.889 194.92 830.751 194.079 832.677 193.736C834.603 193.359 836.579 193.265 838.531 193.335C840.485 193.409 842.421 193.759 844.281 194.305C846.143 194.868 847.916 195.623 849.537 196.784C849.812 196.98 849.876 197.363 849.679 197.639C849.536 197.837 849.296 197.925 849.071 197.884L849.011 197.873Z" fill="#3E2118"/>
<path d="M782.341 201.709C784.052 201.271 785.827 200.941 787.555 200.724C789.291 200.509 791.015 200.368 792.732 200.385C794.447 200.399 796.153 200.46 797.84 200.716C798.688 200.8 799.531 200.911 800.419 200.865C801.308 200.831 802.208 200.804 803.243 200.457L803.332 200.428C803.804 200.271 804.059 199.759 803.901 199.285C803.859 199.159 803.787 199.043 803.701 198.951C802.212 197.377 800.296 196.665 798.351 196.457C796.403 196.213 794.425 196.256 792.484 196.46C790.539 196.669 788.631 197.151 786.813 197.824C784.995 198.513 783.279 199.388 781.74 200.659C781.479 200.873 781.443 201.26 781.659 201.521C781.815 201.709 782.059 201.781 782.283 201.724L782.341 201.709Z" fill="#3E2118"/>
<path d="M783.137 209.464C783.137 209.464 794.423 202.477 804.363 211.076C804.363 211.076 793.213 218.599 783.137 209.464Z" fill="#F0F5D7"/>
<path d="M794.349 214.381C791.009 214.381 787.207 213.403 783.513 210.317C783.344 210.177 783.323 209.927 783.463 209.757C783.604 209.589 783.855 209.568 784.023 209.707C792.181 216.523 800.928 212.556 803.415 211.179C803.605 211.073 803.848 211.141 803.956 211.333C804.061 211.525 803.992 211.768 803.8 211.875C802.324 212.692 798.737 214.381 794.349 214.381Z" fill="#221E1A"/>
<path d="M804.363 211.076C803.732 210.533 803.048 210.107 802.337 209.748C801.645 209.363 800.899 209.097 800.173 208.828C798.699 208.317 797.163 208.063 795.632 207.893C794.103 207.697 792.541 207.739 790.991 207.755L788.653 207.916C787.873 208.024 787.092 208.095 786.303 208.135L786.541 208.076C786.079 208.195 785.815 208.204 785.463 208.22C785.133 208.215 784.808 208.191 784.489 208.132C783.853 208.004 783.243 207.771 782.728 207.415C782.216 207.057 781.777 206.627 781.475 206.125C781.149 205.648 780.96 205.101 780.853 204.56C781.107 204.695 781.335 204.832 781.555 204.961C781.796 205.069 782.001 205.201 782.228 205.289C782.664 205.489 783.104 205.593 783.505 205.673C783.912 205.744 784.305 205.745 784.68 205.705C784.868 205.691 785.052 205.657 785.229 205.615C785.383 205.579 785.621 205.507 785.645 205.477L785.659 205.461L785.885 205.419C786.715 205.261 787.552 205.135 788.393 205.044C789.24 204.996 790.091 204.948 790.941 204.936C792.649 204.975 794.367 205.101 796.047 205.523C797.724 205.912 799.363 206.54 800.833 207.451C802.272 208.38 803.631 209.549 804.363 211.076Z" fill="#221E1A"/>
<path d="M796.975 210.011C796.975 211.791 795.531 213.235 793.751 213.235C791.969 213.235 790.527 211.791 790.527 210.011C790.527 208.229 791.969 206.787 793.751 206.787C795.531 206.787 796.975 208.229 796.975 210.011Z" fill="#221E1A"/>
<path d="M791.093 208.801C791.341 208.593 791.711 208.628 791.917 208.876C792.123 209.124 792.091 209.493 791.843 209.699C791.595 209.907 791.225 209.872 791.019 209.624C790.812 209.376 790.845 209.008 791.093 208.801Z" fill="#F0F5D7"/>
<path d="M848.02 209.464C848.02 209.464 836.735 202.477 826.795 211.076C826.795 211.076 837.945 218.599 848.02 209.464Z" fill="#F0F5D7"/>
<path d="M836.808 214.381C832.419 214.381 828.833 212.692 827.357 211.875C827.167 211.768 827.096 211.525 827.203 211.333C827.309 211.141 827.551 211.073 827.743 211.179C830.231 212.556 838.979 216.523 847.135 209.707C847.301 209.565 847.555 209.589 847.695 209.757C847.836 209.927 847.813 210.177 847.645 210.317C843.953 213.403 840.148 214.381 836.808 214.381Z" fill="#221E1A"/>
<path d="M826.795 211.076C827.425 210.533 828.111 210.107 828.82 209.748C829.512 209.363 830.26 209.097 830.985 208.828C832.459 208.317 833.996 208.063 835.525 207.893C837.056 207.697 838.617 207.739 840.168 207.755L842.505 207.917C843.285 208.024 844.065 208.095 844.855 208.135L844.617 208.076C845.079 208.195 845.344 208.204 845.695 208.22C846.024 208.215 846.349 208.191 846.669 208.132C847.304 208.004 847.915 207.771 848.431 207.415C848.943 207.057 849.381 206.627 849.683 206.125C850.009 205.648 850.197 205.101 850.304 204.56C850.052 204.695 849.824 204.833 849.604 204.961C849.361 205.069 849.157 205.201 848.931 205.289C848.495 205.489 848.055 205.593 847.653 205.673C847.245 205.744 846.852 205.745 846.477 205.705C846.289 205.691 846.107 205.657 845.929 205.613C845.776 205.579 845.536 205.507 845.512 205.477L845.5 205.461L845.273 205.419C844.444 205.261 843.607 205.135 842.765 205.044C841.917 204.996 841.067 204.948 840.217 204.936C838.509 204.975 836.791 205.101 835.112 205.523C833.435 205.912 831.795 206.54 830.325 207.451C828.887 208.38 827.527 209.549 826.795 211.076Z" fill="#221E1A"/>
<path d="M834.183 210.011C834.183 211.791 835.627 213.235 837.407 213.235C839.188 213.235 840.631 211.791 840.631 210.011C840.631 208.229 839.188 206.787 837.407 206.787C835.627 206.787 834.183 208.229 834.183 210.011Z" fill="#221E1A"/>
<path d="M840.065 208.801C839.816 208.593 839.448 208.628 839.24 208.876C839.033 209.124 839.067 209.493 839.316 209.699C839.564 209.907 839.932 209.872 840.139 209.624C840.345 209.376 840.312 209.008 840.065 208.801Z" fill="#F0F5D7"/>
<path d="M819.732 232.493C819.488 232.493 819.239 232.453 818.995 232.371L812.599 230.223L812.851 229.471L819.248 231.617C819.78 231.792 820.336 231.671 820.74 231.284C821.145 230.899 821.296 230.348 821.144 229.811L816.909 214.777C816.065 211.781 816.119 208.629 817.061 205.664L817.519 204.223L818.277 204.464L817.819 205.904C816.924 208.723 816.873 211.716 817.676 214.561L821.911 229.595C822.144 230.421 821.911 231.269 821.288 231.861C820.853 232.276 820.303 232.493 819.732 232.493Z" fill="#9D5D41"/>
<path d="M825.284 240.447C824.732 240.383 824.189 240.26 823.667 240.08L818.551 238.325C818.033 238.147 817.459 238.304 817.104 238.719L816.259 239.705C816.155 239.825 816.031 239.927 815.893 240.003L815.605 240.164L815.317 240.003C815.179 239.927 815.056 239.825 814.952 239.705L814.107 238.719C813.751 238.304 813.177 238.147 812.66 238.325L807.545 240.08C807.02 240.26 806.477 240.383 805.927 240.447L805.032 240.549L809.031 242.073C810.068 242.469 811.169 242.671 812.28 242.671H814.965H816.244H817.031H818.931C820.041 242.671 821.141 242.469 822.179 242.073L826.177 240.549L825.284 240.447Z" fill="#BF641D"/>
<path d="M815.416 246.915C810.496 246.915 806.6 244.523 806.541 244.485L806.964 243.811C807.047 243.863 815.389 248.975 822.833 243.821L823.287 244.476C820.643 246.305 817.899 246.915 815.416 246.915Z" fill="#BF641D"/>
<path d="M836.125 199.415C828.337 199.415 821.999 205.752 821.999 213.543C821.999 221.333 828.337 227.671 836.125 227.671C843.916 227.671 850.253 221.333 850.253 213.543C850.253 205.752 843.916 199.415 836.125 199.415ZM836.125 228.467C827.899 228.467 821.203 221.772 821.203 213.543C821.203 205.313 827.899 198.619 836.125 198.619C844.355 198.619 851.049 205.313 851.049 213.543C851.049 221.772 844.355 228.467 836.125 228.467Z" fill="#2D1914"/>
<path d="M809.521 212.275L808.944 211.728C809.068 211.593 812.093 208.492 815.964 208.541C818.168 208.589 820.192 209.667 821.984 211.74L821.381 212.26C819.745 210.365 817.919 209.381 815.952 209.336L815.812 209.335C812.343 209.335 809.549 212.244 809.521 212.275Z" fill="#2D1914"/>
<path d="M854.033 213.941H850.652V213.145H853.465L857.301 201.936L858.053 202.195L854.033 213.941Z" fill="#2D1914"/>
<path d="M780.153 213.941H776.771L772.752 202.195L773.504 201.936L777.34 213.145H780.153V213.941Z" fill="#2D1914"/>
<path d="M783.167 209.445C780.068 209.197 777.501 208.783 775.727 208.433L773.645 202.349C773.492 200.313 773.413 198.269 773.413 196.248C773.413 183.556 775.696 172.825 779.979 164.413C788.688 160.161 801.119 154.263 801.119 154.263C801.119 154.263 814.199 153.821 823.156 153.821C827.633 153.821 831.081 153.932 831.345 154.263C832.141 155.259 850.437 161.752 843.391 162.315C836.344 162.877 829.896 182.435 829.896 182.435C829.24 193.836 819.413 200.184 819.413 200.184C813.855 204.405 807.78 206.863 801.913 208.213C801.564 207.943 801.201 207.688 800.833 207.451C799.363 206.54 797.724 205.912 796.047 205.523C794.367 205.101 792.649 204.975 790.941 204.936C790.091 204.948 789.24 204.996 788.393 205.044C787.552 205.135 786.715 205.261 785.885 205.419L785.659 205.461L785.645 205.477C785.621 205.507 785.383 205.579 785.229 205.615C785.052 205.657 784.868 205.691 784.68 205.705C784.521 205.721 784.36 205.731 784.195 205.731C783.971 205.731 783.74 205.713 783.505 205.673C783.104 205.593 782.664 205.489 782.228 205.289C782.001 205.201 781.796 205.069 781.555 204.961C781.335 204.832 781.107 204.695 780.853 204.56C780.96 205.101 781.149 205.648 781.475 206.125C781.777 206.627 782.216 207.057 782.728 207.415C783.243 207.771 783.853 208.004 784.489 208.132C784.808 208.191 785.133 208.215 785.463 208.22C785.584 208.213 785.695 208.209 785.807 208.201C784.304 208.78 783.343 209.34 783.167 209.445ZM795.564 196.291C794.533 196.291 793.504 196.353 792.484 196.46C790.539 196.669 788.631 197.151 786.813 197.824C784.995 198.513 783.279 199.388 781.74 200.659C781.479 200.873 781.443 201.26 781.659 201.521C781.78 201.668 781.955 201.744 782.131 201.744C782.181 201.744 782.232 201.737 782.283 201.724L782.341 201.709C784.052 201.271 785.827 200.941 787.555 200.724C789.196 200.521 790.827 200.384 792.452 200.384C792.545 200.384 792.639 200.384 792.732 200.385C794.447 200.399 796.153 200.46 797.84 200.716C798.555 200.787 799.264 200.876 800.001 200.876C800.14 200.876 800.279 200.873 800.419 200.865C801.308 200.831 802.208 200.804 803.243 200.457L803.332 200.428C803.804 200.271 804.059 199.759 803.901 199.285C803.859 199.159 803.787 199.043 803.701 198.951C802.212 197.377 800.296 196.665 798.351 196.457C797.427 196.341 796.495 196.291 795.564 196.291Z" fill="#9B734F"/>
<path d="M773.645 202.349L773.504 201.936L773.231 202.029C773.091 200.124 773.016 198.197 773.016 196.248C773.016 183.224 775.292 172.819 779.232 164.779C779.479 164.659 779.727 164.536 779.979 164.413C775.696 172.825 773.413 183.556 773.413 196.248C773.413 198.269 773.492 200.313 773.645 202.349Z" fill="#7C3A1A"/>
<path d="M782.131 201.744C781.955 201.744 781.78 201.668 781.659 201.521C781.443 201.26 781.479 200.873 781.74 200.659C783.279 199.388 784.995 198.513 786.813 197.824C788.631 197.151 790.539 196.669 792.484 196.46C793.504 196.353 794.533 196.291 795.564 196.291C796.495 196.291 797.427 196.341 798.351 196.457C800.296 196.665 802.212 197.377 803.701 198.951C803.787 199.043 803.859 199.159 803.901 199.285C804.059 199.759 803.804 200.271 803.332 200.428L803.243 200.457C802.208 200.804 801.308 200.831 800.419 200.865C800.279 200.873 800.14 200.876 800.001 200.876C799.264 200.876 798.555 200.787 797.84 200.716C796.153 200.46 794.447 200.399 792.732 200.385C792.639 200.384 792.545 200.384 792.452 200.384C790.827 200.384 789.196 200.521 787.555 200.724C785.827 200.941 784.052 201.271 782.341 201.709L782.283 201.724C782.232 201.737 782.181 201.744 782.131 201.744Z" fill="#291813"/>
<path d="M788.608 209.665C786.667 209.665 784.839 209.58 783.167 209.445C783.343 209.34 784.304 208.78 785.807 208.201C785.993 208.187 786.183 208.161 786.428 208.104L786.303 208.135C787.092 208.095 787.873 208.024 788.653 207.916L790.991 207.755C791.144 207.753 791.297 207.752 791.452 207.749C790.961 208.248 790.633 208.905 790.548 209.636C789.891 209.656 789.243 209.665 788.608 209.665ZM796.852 209.128C796.731 208.697 796.52 208.303 796.244 207.965C797.408 208.115 798.571 208.325 799.701 208.673C798.741 208.852 797.792 209.003 796.852 209.128Z" fill="#9A9071"/>
<path d="M799.701 208.673C798.571 208.325 797.408 208.115 796.244 207.965C795.652 207.245 794.755 206.787 793.751 206.787C792.851 206.787 792.036 207.155 791.452 207.749C791.297 207.752 791.144 207.753 790.991 207.755L788.653 207.916C787.873 208.024 787.092 208.095 786.303 208.135L786.428 208.104C786.183 208.161 785.993 208.187 785.807 208.201C785.695 208.209 785.584 208.213 785.463 208.22C785.133 208.215 784.808 208.191 784.489 208.132C783.853 208.004 783.243 207.771 782.728 207.415C782.216 207.057 781.777 206.627 781.475 206.125C781.149 205.648 780.96 205.101 780.853 204.56C781.107 204.695 781.335 204.832 781.555 204.961C781.796 205.069 782.001 205.201 782.228 205.289C782.664 205.489 783.104 205.593 783.505 205.673C783.74 205.713 783.971 205.731 784.195 205.731C784.36 205.731 784.521 205.721 784.68 205.705C784.868 205.691 785.052 205.657 785.229 205.615C785.383 205.579 785.621 205.507 785.645 205.477L785.659 205.461L785.885 205.419C786.715 205.261 787.552 205.135 788.393 205.044C789.24 204.996 790.091 204.948 790.941 204.936C792.649 204.975 794.367 205.101 796.047 205.523C797.724 205.912 799.363 206.54 800.833 207.451C801.201 207.688 801.564 207.943 801.913 208.213C801.172 208.384 800.435 208.537 799.701 208.673Z" fill="#1B1714"/>
<path d="M790.548 209.636C790.633 208.905 790.961 208.248 791.452 207.749C792.036 207.155 792.851 206.787 793.751 206.787C794.755 206.787 795.652 207.245 796.244 207.965C796.52 208.303 796.731 208.697 796.852 209.128C795.176 209.353 793.537 209.497 791.951 209.58C792.095 209.369 792.088 209.081 791.917 208.876C791.801 208.737 791.635 208.665 791.468 208.665C791.336 208.665 791.203 208.709 791.093 208.801C790.847 209.007 790.812 209.372 791.016 209.621C790.86 209.627 790.704 209.632 790.548 209.636Z" fill="#1B1714"/>
<path d="M791.016 209.621C790.812 209.372 790.847 209.007 791.093 208.801C791.203 208.709 791.336 208.665 791.468 208.665C791.635 208.665 791.801 208.737 791.917 208.876C792.088 209.081 792.095 209.369 791.951 209.58C791.637 209.596 791.325 209.609 791.016 209.621Z" fill="#9A9071"/>
<path d="M774.823 208.248C774.631 208.207 774.452 208.167 774.288 208.131C774.173 207.345 774.068 206.559 773.976 205.772L774.823 208.248Z" fill="#9B734F"/>
<path d="M773.472 204.715C773.451 204.516 773.431 204.317 773.411 204.12L773.609 204.7L773.472 204.715Z" fill="#7C3A1A"/>
<path d="M774.288 208.131C774.144 208.097 774.011 208.067 773.891 208.037C773.731 206.939 773.591 205.831 773.472 204.715L773.609 204.7L773.976 205.772C774.068 206.559 774.173 207.345 774.288 208.131Z" fill="#7C3A1A"/>
<path d="M775.727 208.433C775.399 208.369 775.096 208.307 774.823 208.248L773.976 205.772L773.609 204.7L773.411 204.12C773.343 203.427 773.281 202.729 773.231 202.029L773.504 201.936L773.645 202.349L775.727 208.433Z" fill="#211512"/>
<path d="M833.657 164.119C833.657 164.119 827.735 170.041 822.472 183.2C822.472 183.2 814.905 207.215 778.391 202.609C778.391 202.609 757.007 227.283 762.928 244.06C762.928 244.06 767.863 256.561 784.311 247.679C784.311 247.679 781.021 255.903 776.087 256.889C776.087 256.889 781.679 271.036 768.191 271.695C768.191 271.695 776.744 265.772 768.191 257.548C768.191 257.548 751.084 254.259 751.413 240.112C751.413 240.112 748.453 239.783 749.44 249.981C749.44 249.981 732.333 246.033 734.964 228.927C734.964 228.927 731.455 233.861 734.689 241.428C734.689 241.428 721.148 225.308 720.819 220.703C720.819 220.703 714.899 214.781 739.899 202.28L744.835 198.991C744.835 198.991 717.529 202.939 732.333 173.331C732.333 173.331 727.947 188.556 740.559 191.095C740.559 191.095 755.361 188.792 759.309 182.213C759.309 182.213 748.783 166.751 766.876 156.553C766.876 156.553 783.653 145.368 789.575 139.776C789.575 139.776 818.524 113.128 830.696 142.407C830.696 142.407 833.657 150.632 833.657 164.119Z" fill="#E2A374"/>
<path d="M794.788 199.415C786.999 199.415 780.661 205.752 780.661 213.543C780.661 221.333 786.999 227.671 794.788 227.671C802.579 227.671 808.916 221.333 808.916 213.543C808.916 205.752 802.579 199.415 794.788 199.415ZM794.788 228.467C786.56 228.467 779.865 221.772 779.865 213.543C779.865 205.313 786.56 198.619 794.788 198.619C803.017 198.619 809.712 205.313 809.712 213.543C809.712 221.772 803.017 228.467 794.788 228.467Z" fill="#2D1914"/>
<path d="M757.095 162.933L756.413 162.524C756.539 162.313 759.613 157.351 770.643 153.279C770.779 153.224 785.439 147.252 796.864 138.235L797.357 138.86C785.84 147.948 771.076 153.961 770.929 154.021C760.187 157.985 757.124 162.884 757.095 162.933Z" fill="#E2A374"/>
<path d="M765.875 259.713C765.776 259.687 755.929 257.013 751.92 248.664C749.321 243.252 749.693 236.705 753.028 229.204L753.755 229.528C750.52 236.804 750.144 243.124 752.633 248.315C756.48 256.331 765.981 258.917 766.076 258.944L765.875 259.713Z" fill="#E2A374"/>
<path d="M719.275 214.171L718.568 213.805C718.697 213.555 721.841 207.617 730.767 204.323C731.511 204.048 732.212 203.789 732.887 203.5C736.28 202.044 747.712 196.983 752.337 193.013L752.855 193.616C748.144 197.66 736.62 202.763 733.2 204.231C732.508 204.528 731.796 204.791 731.109 205.044C722.404 208.257 719.305 214.111 719.275 214.171Z" fill="#E2A374"/>
<path d="M765.623 240.645C765.397 240.211 760.307 229.664 781.967 201.483L782.597 201.967C761.329 229.64 766.277 240.177 766.329 240.279L765.623 240.645Z" fill="#E2A374"/>
<path d="M899.651 230.556L898.899 230.299C898.959 230.123 904.799 212.685 895.636 207.127L896.051 206.445C905.757 212.336 899.905 229.815 899.651 230.556Z" fill="#E2A374"/>
<path d="M833.657 164.119C833.657 164.119 855.673 162.813 853.736 203.524L856.685 200.184C856.685 200.184 876.095 233.204 850.107 256.232C850.107 256.232 866.884 251.297 868.2 240.112C868.2 240.112 867.541 256.232 857.673 265.772C857.673 265.772 875.109 262.812 880.043 238.797C880.043 238.797 883.661 244.06 880.043 249.981C880.043 249.981 908.664 230.572 897.479 207.873C897.479 207.873 902.413 209.517 903.4 218.071C903.4 218.071 917.875 203.268 903.4 190.767C903.4 190.767 898.46 185.432 888.58 184.409C882.143 183.743 876.7 179.336 874.464 173.263L865.967 150.169C863.299 142.921 857.624 137.06 850.305 134.593C844.368 132.592 836.915 132.621 828.945 138.773C828.945 138.773 833.657 148.708 833.657 164.119Z" fill="#E2A374"/>
<path d="M899.037 184.344C898.993 184.309 894.523 181.02 887.763 180.444C882.621 180.005 877.953 177.38 874.955 173.241C872.675 170.089 870.341 165.997 868.019 161.08L868.739 160.74C871.039 165.613 873.347 169.663 875.6 172.775C878.461 176.725 882.919 179.232 887.831 179.651C894.831 180.248 899.327 183.565 899.513 183.707L899.037 184.344Z" fill="#E2A374"/>
<path d="M850.087 253.499L849.5 252.961C849.717 252.724 870.932 228.968 854.709 199.207L855.408 198.827C871.907 229.096 850.307 253.257 850.087 253.499Z" fill="#E2A374"/>
<path d="M778.711 227.688C778.711 229.005 777.641 230.073 776.324 230.073C775.007 230.073 773.937 229.005 773.937 227.688C773.937 226.369 775.007 225.301 776.324 225.301C777.641 225.301 778.711 226.369 778.711 227.688Z" fill="#BA4927"/>
<path d="M856.136 227.688C856.136 229.005 855.067 230.073 853.749 230.073C852.432 230.073 851.364 229.005 851.364 227.688C851.364 226.369 852.432 225.301 853.749 225.301C855.067 225.301 856.136 226.369 856.136 227.688Z" fill="#BA4927"/>
<path d="M889.468 495.283C889.075 493.117 888.399 491.024 887.46 489.051C882.197 477.983 878.899 466.085 878.899 453.831V452.525C878.899 449.191 879.572 445.889 880.876 442.819L892.133 416.328C892.976 414.345 893.557 412.259 893.861 410.127L906.329 322.7H892.325V318.092L870.283 311.309V322.7H814.2H762.199V310.572L743 316.48V322.7H726.527C724.176 322.7 722.369 324.78 722.701 327.109L734.54 410.127C734.844 412.259 735.425 414.345 736.268 416.328L747.525 442.819C748.829 445.889 749.503 449.191 749.503 452.525V453.831C749.501 466.085 746.204 477.983 740.941 489.051C740.004 491.024 739.327 493.117 738.933 495.283L722.471 586.067C722.207 587.528 722.072 589.011 722.072 590.496C722.072 623.429 748.771 650.128 781.704 650.128H814.2H846.697C879.631 650.128 906.329 623.429 906.329 590.496V590.495C906.329 589.011 906.195 587.528 905.931 586.067L889.468 495.283Z" fill="#7FA799"/>
<path d="M762.199 316.479V322.7C762.199 342.416 786.395 358.4 816.24 358.4C846.087 358.4 870.283 342.416 870.283 322.7V316.479H762.199Z" fill="#F1C596"/>
<path d="M732.693 579.389L579.699 585.288C563.476 585.913 549.561 597.055 545.403 612.749C541.572 627.204 547.788 642.448 560.633 650.105L571.092 656.339C583.595 663.792 597.881 667.725 612.437 667.725H836.96H976.259C994.316 667.725 1012.08 663.155 1027.9 654.44L1058.88 637.363C1070.93 630.728 1077.52 617.263 1075.38 603.681C1073.18 589.695 1061.13 579.389 1046.97 579.389H732.693Z" fill="#577D72"/>
<path d="M781.604 632.391L781.437 632.379L725.321 623.615C715.344 622.059 705.451 619.572 695.907 616.221C678.399 610.075 660.111 606.957 641.549 606.957H611.92C611.331 606.957 610.852 606.48 610.852 605.891C610.852 605.301 611.331 604.824 611.92 604.824H641.549C660.352 604.824 678.879 607.981 696.616 614.208C706.033 617.515 715.803 619.969 725.651 621.507L781.767 630.271C782.348 630.361 782.748 630.908 782.656 631.489C782.572 632.016 782.121 632.391 781.604 632.391Z" fill="#374C46"/>
<path d="M842.172 631.431C841.651 631.431 841.195 631.048 841.119 630.517C841.035 629.933 841.439 629.393 842.021 629.308L905.645 620.1C917.239 618.423 928.565 615.2 939.308 610.524C951.933 605.027 965.276 601.525 978.971 600.116L1017.58 596.14C1018.12 596.073 1018.69 596.504 1018.75 597.092C1018.81 597.679 1018.39 598.201 1017.8 598.261L979.187 602.237C965.713 603.624 952.583 607.069 940.159 612.477C929.241 617.233 917.732 620.509 905.951 622.212L842.327 631.42L842.172 631.431Z" fill="#374C46"/>
<path d="M829.299 629.509L818.553 618.761C811.501 611.711 800.02 611.868 793.165 619.109L777.481 635.677C775.772 637.483 773.48 638.625 771.011 638.903L764.169 639.672C762.704 639.836 761.22 639.692 759.815 639.247L739.737 632.888C731.888 630.403 723.317 631.96 716.843 637.047L713.119 639.972C711.728 641.065 710.011 641.659 708.241 641.659C706.1 641.659 704.049 642.529 702.563 644.073L696.155 650.717C692.455 654.553 692.873 660.744 697.053 664.048L701.704 667.725H714.148C715.832 667.725 717.455 667.1 718.704 665.971L722.845 662.223H737.039L746.88 664.991C756.061 667.574 765.552 668.884 775.088 668.884H810.277C815.308 668.884 820.325 668.356 825.247 667.305L835.512 665.119L847.677 665.409L842.175 630.363L836.176 631.581C833.681 632.085 831.1 631.308 829.299 629.509Z" fill="#F1C596"/>
<path d="M697.053 664.474C696.919 664.474 696.789 664.413 696.707 664.296C696.568 664.104 696.613 663.837 696.804 663.701L711.82 652.943C711.951 652.792 716.693 648.072 737.363 652.873C737.595 652.925 737.735 653.155 737.681 653.384C737.631 653.613 737.397 653.765 737.172 653.703C717.128 649.051 712.42 653.537 712.375 653.584L697.3 664.393L697.053 664.474Z" fill="#BF641D"/>
<path d="M701.704 668.152C701.537 668.152 701.377 668.052 701.311 667.886C701.221 667.668 701.325 667.42 701.541 667.331L708.499 664.472C709.764 663.95 710.899 663.197 711.872 662.233L717.021 657.197C717.344 657.093 724.965 654.569 734.228 657.192C734.455 657.256 734.585 657.492 734.521 657.719C734.456 657.947 734.232 658.072 733.995 658.013C725.521 655.609 718.272 657.701 717.387 657.977L712.472 662.841C711.42 663.883 710.191 664.695 708.823 665.257L701.867 668.119L701.704 668.152Z" fill="#BF641D"/>
<path d="M697.769 657.533C699.479 656.148 701.707 656.064 702.748 657.348C703.788 658.632 703.248 660.796 701.54 662.181C699.831 663.568 697.601 663.65 696.561 662.368C695.519 661.084 696.061 658.92 697.769 657.533Z" fill="#FDE0C4"/>
<path d="M701.869 663.765C703.147 662.731 704.812 662.668 705.589 663.626C706.367 664.584 705.963 666.201 704.685 667.238C703.409 668.273 701.744 668.336 700.965 667.377C700.188 666.417 700.592 664.803 701.869 663.765Z" fill="#FDE0C4"/>
<path d="M707.876 666.02C709.129 665.419 710.512 665.695 710.963 666.638C711.415 667.58 710.764 668.831 709.511 669.431C708.255 670.032 706.873 669.755 706.421 668.813C705.969 667.871 706.621 666.621 707.876 666.02Z" fill="#FDE0C4"/>
<path d="M734.112 418.865C735.059 418.865 735.953 418.677 736.809 418.401C736.792 418.105 736.789 417.808 736.772 417.513L737.109 418.307C740.527 417.067 743 413.811 743 409.977V316.479L735.009 318.939L725.335 321.711L725.224 321.748V409.977C725.224 414.867 729.224 418.865 734.112 418.865Z" fill="#F1C596"/>
<path d="M548.635 536.692C551.353 538.824 552.8 541.521 551.863 542.716C550.927 543.912 547.963 543.152 545.243 541.021C542.523 538.889 541.077 536.193 542.013 534.997C542.951 533.803 545.915 534.561 548.635 536.692Z" fill="#B1825C"/>
<path d="M735.011 392.831V318.937L725.335 321.709C706.613 327.197 693.885 344.499 694.255 363.957L696.256 469.117C696.571 485.68 688.511 501.289 674.809 510.652L659.923 520.827C656.323 523.287 653.093 526.251 650.333 529.629C646.767 533.995 642.421 537.664 637.52 540.452L598.451 562.665L578.379 555.328C573.353 553.492 568.657 550.857 564.471 547.524L550.829 536.665C549.133 535.316 546.689 535.476 545.185 537.037C543.632 538.648 543.623 541.197 545.164 542.819L558.944 557.327C560.884 559.368 561.995 562.057 562.063 564.872L562.175 569.597L556.961 575.664L544.283 572.631L542.408 573.497L539.777 571.057L535.936 567.492C534.253 565.932 531.72 565.728 529.809 566.997L526.912 564.479C523.845 561.813 519.187 562.167 516.559 565.264L534.508 582.491C537.811 585.661 542.011 587.741 546.535 588.445L550.732 591.005C554.432 593.263 558.683 594.457 563.017 594.457H569.344L615.395 580.645L658.452 563.895C676.44 556.897 693.395 547.496 708.861 535.951L717.72 529.336C722.56 525.721 725.685 520.261 726.349 514.256L727.771 501.428L730.853 488.203C736.489 464.037 738.427 439.157 736.603 414.411L735.011 392.831Z" fill="#F1C596"/>
<path d="M562.175 569.597L562.063 564.872C562.004 562.432 561.16 560.087 559.672 558.173C561.16 560.085 562.004 562.431 562.063 564.872L562.175 569.597ZM545.164 542.819C544.396 542.011 544.012 540.973 544.013 539.936C544.013 539.937 544.013 539.937 544.013 539.937C544.013 540.975 544.396 542.011 545.164 542.819Z" fill="#67776C"/>
<path d="M544.013 539.937C544.013 539.937 544.013 539.937 544.013 539.936C544.013 538.892 544.405 537.847 545.185 537.037C544.405 537.847 544.015 538.892 544.013 539.937Z" fill="#714A33"/>
<path d="M565.927 576.643C565.66 576.643 565.392 576.627 565.124 576.596L556.961 575.664L562.175 569.597L562.063 564.872C562.004 562.431 561.16 560.085 559.672 558.173C559.444 557.879 559.199 557.595 558.94 557.321L545.164 542.819C544.396 542.011 544.013 540.975 544.013 539.937C544.015 538.892 544.405 537.847 545.185 537.037C546.005 536.187 547.107 535.752 548.213 535.752C549.135 535.752 550.06 536.053 550.831 536.667L564.475 547.528C568.659 550.859 573.353 553.492 578.379 555.328L598.451 562.665C598.451 562.665 601.516 563.073 602.795 566.997L598.377 565.359C597.181 564.915 595.915 564.688 594.637 564.688C591.967 564.688 589.392 565.681 587.416 567.475L583.609 570.932C581.791 572.581 579.421 573.496 576.963 573.496H573.992C572.772 573.496 571.596 573.956 570.7 574.781C569.393 575.984 567.687 576.643 565.927 576.643Z" fill="#9B734F"/>
<path d="M549.937 542.589L551.32 543.36C553.977 544.839 554.893 548.208 553.348 550.823L551.387 554.144L549.213 568.443L553.481 574.831L544.283 572.631L542.408 573.497L539.777 571.057L542.119 555.3L549.937 542.589Z" fill="#C9996A"/>
<path d="M559.281 586.059L559.201 586.028L539.871 578.753C539.693 578.688 539.553 578.548 539.488 578.371C539.423 578.192 539.437 577.996 539.529 577.829L541.996 573.36C542.029 573.211 542.12 573.04 542.293 572.895C543.021 572.284 544.941 572.351 548.004 573.083L557.063 575.249L565.172 576.173C567.093 576.377 568.995 575.771 570.411 574.468C571.388 573.568 572.659 573.069 573.992 573.069H576.963C579.319 573.069 581.577 572.199 583.321 570.616L587.129 567.157C589.187 565.289 591.853 564.259 594.637 564.259C595.971 564.259 597.281 564.495 598.527 564.96L602.943 566.599C603.164 566.68 603.276 566.925 603.195 567.147C603.112 567.369 602.861 567.484 602.647 567.399L598.231 565.759C597.079 565.331 595.868 565.113 594.637 565.113C592.067 565.113 589.604 566.064 587.704 567.791L583.896 571.249C581.993 572.973 579.532 573.923 576.963 573.923H573.992C572.876 573.923 571.809 574.34 570.991 575.093C569.393 576.568 567.245 577.273 565.076 577.02L556.915 576.085L547.804 573.912C543.337 572.84 542.823 573.561 542.821 573.569L542.827 573.693L542.781 573.703L540.389 578.037L559.423 585.2L579.685 584.585C579.888 584.591 580.117 584.763 580.125 585C580.132 585.236 579.947 585.431 579.711 585.44L559.281 586.059Z" fill="#BF641D"/>
<path d="M547.527 589.479L547.237 589.364L526.136 569.739L529.523 566.683C529.697 566.527 529.965 566.536 530.125 566.713C530.284 566.888 530.268 567.157 530.093 567.315L527.399 569.747L547.816 588.74C547.989 588.9 548 589.171 547.84 589.341L547.527 589.479Z" fill="#BF641D"/>
<path d="M541.288 579.284C539.248 578.46 537.888 577.065 538.251 576.169C538.612 575.272 540.56 575.213 542.6 576.037C544.64 576.861 546 578.256 545.639 579.152C545.276 580.049 543.329 580.108 541.288 579.284Z" fill="#FDE0C4"/>
<path d="M527.032 569.712C525.459 568.173 524.732 566.365 525.408 565.675C526.084 564.983 527.907 565.671 529.48 567.208C531.053 568.748 531.78 570.555 531.104 571.247C530.428 571.937 528.605 571.251 527.032 569.712Z" fill="#FDE0C4"/>
<path d="M516.543 565.195C514.971 563.656 514.243 561.849 514.92 561.157C515.595 560.467 517.419 561.153 518.992 562.692C520.565 564.231 521.292 566.037 520.616 566.729C519.94 567.42 518.117 566.733 516.543 565.195Z" fill="#FDE0C4"/>
<path d="M548.532 544.408C549.649 542.513 551.231 541.375 552.064 541.865C552.896 542.357 552.665 544.292 551.547 546.187C550.429 548.083 548.848 549.22 548.015 548.729C547.183 548.239 547.413 546.304 548.532 544.408Z" fill="#E4B995"/>
<path d="M737.267 418.735C737.032 418.735 736.84 418.541 736.84 418.307V390.368C736.84 390.133 737.032 389.941 737.267 389.941C737.503 389.941 737.693 390.133 737.693 390.368V418.307C737.693 418.541 737.503 418.735 737.267 418.735Z" fill="#BF641D"/>
<path d="M895.736 418.865C894.789 418.865 893.896 418.677 893.039 418.401C893.055 418.105 893.059 417.808 893.076 417.513L892.739 418.307C889.321 417.067 886.848 413.811 886.848 409.977V316.479L894.84 318.939L904.513 321.711L904.624 321.748V409.977C904.624 414.867 900.624 418.865 895.736 418.865Z" fill="#F1C596"/>
<path d="M1081.21 536.692C1078.49 538.824 1077.05 541.521 1077.98 542.716C1078.92 543.912 1081.89 543.152 1084.6 541.021C1087.33 538.889 1088.77 536.193 1087.83 534.997C1086.9 533.803 1083.93 534.561 1081.21 536.692Z" fill="#B1825C"/>
<path d="M894.837 392.831V318.937L904.513 321.709C923.235 327.197 935.963 344.499 935.592 363.957L933.592 469.117C933.277 485.68 941.337 501.289 955.039 510.652L969.925 520.827C973.525 523.287 976.755 526.251 979.513 529.629C983.081 533.995 987.427 537.664 992.328 540.452L1031.4 562.665L1051.47 555.328C1056.49 553.492 1061.19 550.857 1065.38 547.524L1079.02 536.665C1080.71 535.316 1083.16 535.476 1084.66 537.037C1086.22 538.648 1086.23 541.197 1084.68 542.819L1070.9 557.327C1068.96 559.368 1067.85 562.057 1067.79 564.872L1067.67 569.597L1072.89 575.664L1085.57 572.631L1087.44 573.497L1090.07 571.057L1093.91 567.492C1095.59 565.932 1098.13 565.728 1100.04 566.997L1102.94 564.479C1106 561.813 1110.66 562.167 1113.29 565.264L1095.34 582.491C1092.04 585.661 1087.84 587.741 1083.31 588.445L1079.12 591.005C1075.42 593.263 1071.17 594.457 1066.83 594.457H1060.51L1014.45 580.645L971.395 563.895C953.408 556.897 936.452 547.496 920.987 535.951L912.128 529.336C907.287 525.721 904.163 520.261 903.499 514.256L902.077 501.428L898.995 488.203C893.359 464.037 891.421 439.157 893.245 414.411L894.837 392.831Z" fill="#F1C596"/>
<path d="M1067.79 564.74C1067.88 562.347 1068.71 560.051 1070.17 558.173C1068.71 560.052 1067.88 562.348 1067.79 564.74ZM1084.68 542.819C1085.45 542.011 1085.83 540.973 1085.83 539.937V539.936C1085.84 540.973 1085.45 542.011 1084.68 542.819Z" fill="#67776C"/>
<path d="M1085.83 539.937C1085.83 539.373 1085.72 538.811 1085.49 538.284C1085.72 538.811 1085.83 539.373 1085.83 539.936V539.937ZM1084.66 537.037C1084.64 537.016 1084.62 536.995 1084.6 536.973C1084.62 536.995 1084.64 537.016 1084.66 537.037Z" fill="#714A33"/>
<path d="M1063.92 576.643C1062.16 576.643 1060.45 575.984 1059.15 574.781C1058.25 573.956 1057.08 573.496 1055.85 573.496H1052.88C1050.43 573.496 1048.06 572.581 1046.24 570.932L1042.43 567.475C1040.46 565.681 1037.88 564.688 1035.21 564.688C1033.93 564.688 1032.67 564.915 1031.47 565.359L1027.05 566.997C1028.33 563.073 1031.4 562.665 1031.4 562.665L1051.47 555.328C1056.49 553.492 1061.19 550.859 1065.37 547.528L1079.02 536.667C1079.79 536.053 1080.71 535.752 1081.64 535.752C1082.71 535.752 1083.79 536.165 1084.6 536.973C1084.62 536.995 1084.64 537.016 1084.66 537.037C1085.02 537.411 1085.3 537.835 1085.49 538.284C1085.72 538.811 1085.83 539.373 1085.83 539.937C1085.83 540.973 1085.45 542.011 1084.68 542.819L1070.91 557.321C1070.65 557.595 1070.4 557.879 1070.17 558.173C1068.71 560.051 1067.88 562.347 1067.79 564.74C1067.79 564.751 1067.79 564.763 1067.79 564.773C1067.79 564.807 1067.79 564.839 1067.78 564.872L1067.67 569.597L1072.89 575.664L1064.72 576.596C1064.46 576.627 1064.19 576.643 1063.92 576.643Z" fill="#9B734F"/>
<path d="M1079.91 542.589L1078.53 543.36C1075.87 544.839 1074.95 548.208 1076.5 550.823L1078.46 554.144L1080.63 568.443L1076.37 574.831L1085.56 572.631L1087.44 573.497L1090.07 571.057L1087.73 555.3L1079.91 542.589Z" fill="#C9996A"/>
<path d="M1089.68 577.955L1089.68 577.957L1089.68 577.955ZM1070.57 586.059L1070.48 586.056L1050.14 585.44C1049.9 585.431 1049.71 585.236 1049.72 585C1049.73 584.764 1049.92 584.607 1050.16 584.585L1070.43 585.2L1089.46 578.037L1087.01 573.593L1087.01 573.475C1087.02 573.531 1086.8 573.321 1085.92 573.319C1085.2 573.319 1084 573.444 1082.04 573.912L1072.99 576.079L1064.77 577.02C1062.61 577.273 1060.46 576.565 1058.86 575.096C1058.04 574.34 1056.97 573.923 1055.86 573.923H1052.89C1050.31 573.923 1047.85 572.973 1045.95 571.249L1042.14 567.791C1040.24 566.064 1037.78 565.113 1035.21 565.113C1033.98 565.113 1032.77 565.331 1031.62 565.759L1027.2 567.399C1026.99 567.484 1026.74 567.369 1026.65 567.147C1026.57 566.925 1026.68 566.68 1026.9 566.599L1031.32 564.96C1032.57 564.495 1033.88 564.259 1035.21 564.259C1037.99 564.259 1040.66 565.289 1042.72 567.157L1046.53 570.616C1048.27 572.199 1050.53 573.069 1052.89 573.069H1055.86C1057.19 573.069 1058.46 573.568 1059.44 574.469C1060.85 575.771 1062.76 576.377 1064.68 576.173L1072.84 575.24L1081.84 573.083C1084.91 572.353 1086.83 572.287 1087.55 572.895C1087.73 573.04 1087.82 573.211 1087.85 573.36L1090.32 577.829C1090.41 577.996 1090.42 578.195 1090.36 578.371C1090.29 578.548 1090.15 578.688 1089.97 578.753L1070.57 586.059Z" fill="#BF641D"/>
<path d="M1082.32 589.479L1082.01 589.341C1081.85 589.171 1081.86 588.9 1082.03 588.74L1102.45 569.747L1099.75 567.315C1099.58 567.157 1099.56 566.888 1099.72 566.713C1099.88 566.536 1100.15 566.527 1100.32 566.683L1103.71 569.739L1082.61 589.364L1082.32 589.479Z" fill="#BF641D"/>
<path d="M1088.56 579.284C1090.6 578.46 1091.96 577.065 1091.6 576.169C1091.24 575.272 1089.29 575.213 1087.25 576.037C1085.21 576.861 1083.85 578.256 1084.21 579.152C1084.57 580.049 1086.52 580.108 1088.56 579.284Z" fill="#FDE0C4"/>
<path d="M1102.82 569.712C1104.39 568.173 1105.12 566.365 1104.44 565.675C1103.76 564.983 1101.94 565.671 1100.37 567.208C1098.79 568.748 1098.07 570.555 1098.74 571.247C1099.42 571.937 1101.24 571.251 1102.82 569.712Z" fill="#FDE0C4"/>
<path d="M1113.3 565.195C1114.88 563.656 1115.6 561.849 1114.93 561.157C1114.25 560.467 1112.43 561.153 1110.86 562.692C1109.28 564.231 1108.56 566.037 1109.23 566.729C1109.91 567.42 1111.73 566.733 1113.3 565.195Z" fill="#FDE0C4"/>
<path d="M1081.32 544.408C1080.2 542.513 1078.62 541.375 1077.78 541.865C1076.95 542.357 1077.18 544.292 1078.3 546.187C1079.42 548.083 1081 549.22 1081.83 548.729C1082.66 548.239 1082.43 546.304 1081.32 544.408Z" fill="#E4B995"/>
<path d="M892.581 418.735C892.345 418.735 892.155 418.541 892.155 418.307V390.368C892.155 390.133 892.345 389.941 892.581 389.941C892.817 389.941 893.009 390.133 893.009 390.368V418.307C893.009 418.541 892.817 418.735 892.581 418.735Z" fill="#BF641D"/>
<path d="M212.66 481.537H67.2521C59.186 481.537 52.586 474.939 52.586 466.871V449.275C52.586 441.207 59.186 434.608 67.2521 434.608H212.66C220.727 434.608 227.327 441.207 227.327 449.275V466.871C227.327 474.939 220.727 481.537 212.66 481.537Z" fill="#577D72"/>
<path d="M96.8401 450.819C96.814 451.356 96.6609 451.715 96.4817 452.097C96.3536 452.175 96.2516 452.073 96.1235 452.073C95.7145 451.996 95.2287 452.073 94.7421 452.073C94.4104 452.073 94.0771 452.097 93.6937 452.073H93.3355C93.2073 452.045 93.2073 451.971 93.0792 452.045C92.9511 452.737 93.0281 453.327 93.0541 454.017C93.0541 454.4 93.0027 454.785 93.0027 455.168C93.0027 455.449 93.0541 455.755 93.0541 456.064C93.0541 456.549 93.0027 457.011 92.9765 457.344C93.0792 457.649 93.0027 457.983 93.0281 458.289L93.0792 458.493C93.1557 458.98 93.0792 459.519 93.0792 460.028C93.0792 460.54 93.0541 461.051 93.0541 461.564C93.0281 461.999 93.0541 462.435 93.0541 462.92C93.0281 463.405 93.0541 463.893 93.0541 464.377C93.0541 465.324 92.9511 466.117 92.9511 467.065C92.5672 467.091 92.2093 467.217 91.8255 467.217L91.7489 467.193C91.4417 467.269 91.0584 467.168 90.726 467.14C90.4188 467.116 90.1115 467.091 89.8303 466.912C89.9073 465.991 89.8303 465.144 89.8303 464.147C89.8303 463.253 89.9323 462.435 89.9323 461.487C89.9323 460.488 89.9073 459.519 89.9073 458.493C89.9073 457.495 89.8041 456.497 89.8812 455.5C89.9584 454.708 89.8552 454.069 89.9323 453.275C89.9584 452.789 90.0344 452.584 89.9584 452.097C89.3188 452.073 88.6792 452.097 87.988 452.097C87.7068 452.097 87.3995 452.045 87.1183 452.045C86.8369 452.045 86.5557 452.045 86.3251 451.944C86.0437 451.048 86.1708 449.796 86.4781 448.951C87.0667 448.875 87.8604 449.003 88.5511 449.003C90.3927 449.028 92.4656 448.951 94.3328 449.028C95.0235 449.104 95.638 449.08 96.2255 449.055L96.4568 448.976C96.5844 448.976 96.738 449.695 96.738 449.82C96.814 450.153 96.8401 450.512 96.8401 450.819Z" fill="white"/>
<path d="M108.898 466.068C108.974 466.349 108.82 466.732 108.795 467.013L108.565 466.961L105.392 466.912C104.497 466.887 103.653 467.039 102.655 467.065C101.53 467.14 100.583 467.091 99.4817 467.091L99.2776 466.961C99.2011 465.939 99.2776 464.94 99.2011 463.943C99.1755 463.457 99.2265 462.945 99.2011 462.46C99.1245 461.463 99.1755 460.54 99.2011 459.519L99.2516 459.287C99.1755 459.16 99.2516 459.057 99.2516 458.928C99.2516 458.623 99.2011 458.313 99.2011 458.032C99.1755 457.751 99.1755 457.523 99.1755 457.241C99.1495 457.011 99.1245 456.677 99.2011 456.472C99.1755 455.473 99.2516 454.22 99.1755 453.095L99.1495 453.043V452.969H99.1755C99.2011 451.715 99.2011 450.383 99.2011 449.257L99.3287 449.08C101.58 448.9 103.832 449.104 106.108 449.003C106.825 448.976 107.542 449.055 108.257 449.055C108.463 449.055 108.642 449.003 108.846 449.08C108.846 449.129 108.872 449.233 108.898 449.411C108.923 449.539 108.923 449.744 109.001 449.872C109.001 450.512 109.051 450.972 108.923 451.56C108.923 451.764 108.872 452.097 108.795 452.329C108.513 452.404 108.283 452.329 108.053 452.329C107.567 452.303 107.208 452.329 106.723 452.329C106.287 452.329 105.879 452.277 105.469 452.277C104.471 452.303 103.473 452.277 102.424 452.277C102.424 452.456 102.424 452.532 102.45 452.559V452.611C102.45 452.917 102.424 453.197 102.399 453.507L102.373 453.531C102.348 454.579 102.194 455.653 102.502 456.549C103.499 456.549 104.778 456.448 105.699 456.549C105.98 456.472 106.236 456.525 106.544 456.525L106.775 456.549C106.953 456.549 107.208 456.497 107.387 456.575C107.567 457.393 107.644 458.521 107.439 459.543C107.26 459.568 107.082 459.568 106.902 459.568C106.263 459.543 105.648 459.519 105.009 459.543L104.983 459.568C104.19 459.491 103.397 459.568 102.502 459.568C102.424 460.797 102.322 462.536 102.45 463.865C104.113 463.865 106.006 464.02 107.644 463.943C107.772 463.943 107.874 463.917 107.976 463.865C108.155 463.943 108.412 463.841 108.591 463.917L108.846 463.865C108.974 464.456 109.102 465.376 108.898 466.068Z" fill="white"/>
<path d="M118.754 467.065C118.37 466.22 118.012 465.428 117.628 464.635C117.244 463.841 117.014 462.997 116.605 462.203C115.914 463.865 115.121 465.453 114.404 467.013C113.56 467.193 112.511 467.217 111.463 467.14L111.257 467.116L111.206 467.091C111.078 467.091 110.976 467.193 110.874 467.013C110.951 466.528 111.206 466.143 111.436 465.709C111.616 465.324 111.77 464.968 111.947 464.635C112.281 463.917 112.664 463.201 112.971 462.509L113.458 461.384L113.97 460.309C114.353 459.592 114.507 458.803 114.916 458.109C114.583 457.368 114.173 456.651 113.892 455.859C113.663 455.271 113.381 454.708 113.151 454.119C113.074 453.915 112.971 453.76 112.895 453.556L112.409 452.431L111.897 451.279L111.155 449.564C111.078 449.385 110.848 449.233 110.951 449.028C111.999 448.924 113.279 448.951 114.302 449.028C114.379 449.104 114.379 449.156 114.507 449.156C114.481 449.233 114.507 449.335 114.583 449.463L116.63 454.297C117.423 452.761 117.961 451.048 118.677 449.411L118.729 449.205C119.01 449.028 119.291 448.976 119.675 448.976C120.059 448.951 120.417 448.976 120.801 449.003L121.875 449.104L122.13 449.08C122.259 449.156 122.285 449.283 122.259 449.487L122.157 449.796L122.028 450.101L121.798 450.639C121.286 451.74 120.672 452.84 120.187 453.837C120.008 454.375 119.727 454.835 119.598 455.32L119.47 455.527C119.444 455.807 119.291 455.987 119.189 456.192C118.908 456.831 118.601 457.393 118.293 458.084C118.729 459.389 119.368 460.668 119.905 461.973C120.033 462.305 120.161 462.613 120.34 462.945C120.468 463.279 120.545 463.637 120.723 463.943C121.031 464.583 121.312 465.249 121.594 465.888C121.696 466.195 121.849 466.451 122.028 466.732L122.106 467.013C121.108 467.193 119.752 467.116 118.831 467.14L118.754 467.065Z" fill="white"/>
<path d="M134.496 450.819C134.469 451.356 134.316 451.715 134.137 452.097C134.009 452.175 133.907 452.073 133.779 452.073C133.369 451.996 132.884 452.073 132.398 452.073C132.065 452.073 131.732 452.097 131.348 452.073H130.991C130.863 452.045 130.863 451.971 130.734 452.045C130.607 452.737 130.683 453.327 130.709 454.017C130.709 454.4 130.658 454.785 130.658 455.168C130.658 455.449 130.709 455.755 130.709 456.064C130.709 456.549 130.658 457.011 130.632 457.344C130.734 457.649 130.658 457.983 130.683 458.289L130.734 458.493C130.811 458.98 130.734 459.519 130.734 460.028C130.734 460.54 130.709 461.051 130.709 461.564C130.683 461.999 130.709 462.435 130.709 462.92C130.683 463.405 130.709 463.893 130.709 464.377C130.709 465.324 130.607 466.117 130.607 467.065C130.223 467.091 129.865 467.217 129.481 467.217L129.404 467.193C129.096 467.269 128.714 467.168 128.381 467.14C128.074 467.116 127.767 467.091 127.485 466.912C127.563 465.991 127.485 465.144 127.485 464.147C127.485 463.253 127.587 462.435 127.587 461.487C127.587 460.488 127.563 459.519 127.563 458.493C127.563 457.495 127.459 456.497 127.536 455.5C127.614 454.708 127.51 454.069 127.587 453.275C127.614 452.789 127.69 452.584 127.614 452.097C126.974 452.073 126.334 452.097 125.643 452.097C125.361 452.097 125.054 452.045 124.773 452.045C124.492 452.045 124.21 452.045 123.981 451.944C123.699 451.048 123.827 449.796 124.134 448.951C124.722 448.875 125.516 449.003 126.207 449.003C128.048 449.028 130.121 448.951 131.989 449.028C132.679 449.104 133.293 449.08 133.881 449.055L134.112 448.976C134.239 448.976 134.393 449.695 134.393 449.82C134.469 450.153 134.496 450.512 134.496 450.819Z" fill="white"/>
<path d="M297.725 853.089L319.111 563.991L323.801 564.337L302.416 853.435L297.725 853.089Z" fill="#4F2B2C"/>
<path d="M337.001 524.015C335.323 546.699 321.455 564.164 321.455 564.164C321.455 564.164 310.308 544.849 311.987 522.164C313.664 499.48 327.532 482.016 327.532 482.016C327.532 482.016 338.679 501.331 337.001 524.015Z" fill="#224249"/>
<path d="M320.283 564.076L325.693 490.935L328.039 491.111L322.629 564.252L320.283 564.076Z" fill="#21181C"/>
<path d="M359.093 577.664C343.213 598.311 318.956 606.293 318.956 606.293C318.956 606.293 320.445 580.8 336.325 560.152C352.205 539.505 376.461 531.524 376.461 531.524C376.461 531.524 374.973 557.017 359.093 577.664Z" fill="#224249"/>
<path d="M319.889 607.008L318.024 605.576L369.225 539.005L371.091 540.437L319.889 607.008Z" fill="#21181C"/>
<path d="M282.496 571.997C295.165 594.756 317.984 606.221 317.984 606.221C317.984 606.221 320.263 580.787 307.593 558.028C294.924 535.268 272.105 523.805 272.105 523.805C272.105 523.805 269.828 549.24 282.496 571.997Z" fill="#224249"/>
<path d="M316.957 606.793L276.109 533.415L278.161 532.271L319.009 605.649L316.957 606.793Z" fill="#21181C"/>
<path d="M357.132 640.824C340.133 662.924 314.169 671.469 314.169 671.469C314.169 671.469 315.763 644.181 332.761 622.081C349.759 599.98 375.724 591.436 375.724 591.436C375.724 591.436 374.129 618.724 357.132 640.824Z" fill="#224249"/>
<path d="M315.101 672.185L313.236 670.752L368.04 599.496L369.905 600.928L315.101 672.185Z" fill="#21181C"/>
<path d="M275.144 634.76C288.704 659.121 313.129 671.392 313.129 671.392C313.129 671.392 315.568 644.167 302.007 619.805C288.445 595.445 264.02 583.175 264.02 583.175C264.02 583.175 261.583 610.399 275.144 634.76Z" fill="#224249"/>
<path d="M312.103 671.964L268.38 593.419L270.432 592.276L314.156 670.82L312.103 671.964Z" fill="#21181C"/>
<path d="M357.5 704.645C338.403 729.474 309.233 739.075 309.233 739.075C309.233 739.075 311.024 708.417 330.12 683.588C349.216 658.759 378.387 649.16 378.387 649.16C378.387 649.16 376.595 679.817 357.5 704.645Z" fill="#224249"/>
<path d="M310.165 739.791L308.3 738.359L369.872 658.304L371.736 659.736L310.165 739.791Z" fill="#21181C"/>
<path d="M265.389 697.833C280.624 725.201 308.065 738.986 308.065 738.986C308.065 738.986 310.804 708.401 295.569 681.032C280.335 653.664 252.893 639.877 252.893 639.877C252.893 639.877 250.153 670.465 265.389 697.833Z" fill="#224249"/>
<path d="M307.039 739.559L257.916 651.316L259.968 650.173L309.092 738.416L307.039 739.559Z" fill="#21181C"/>
<path d="M359.375 768.896C337.545 797.279 304.2 808.25 304.2 808.25C304.2 808.25 306.247 773.207 328.076 744.824C349.907 716.441 383.252 705.469 383.252 705.469C383.252 705.469 381.205 740.513 359.375 768.896Z" fill="#224249"/>
<path d="M305.132 808.968L303.267 807.535L373.651 716.024L375.516 717.456L305.132 808.968Z" fill="#21181C"/>
<path d="M254.081 761.108C271.497 792.393 302.865 808.152 302.865 808.152C302.865 808.152 305.996 773.188 288.58 741.903C271.165 710.617 239.797 694.859 239.797 694.859C239.797 694.859 236.665 729.821 254.081 761.108Z" fill="#224249"/>
<path d="M301.839 808.723L245.687 707.852L247.739 706.708L303.892 807.58L301.839 808.723Z" fill="#21181C"/>
<path d="M300.189 883.531L462.899 674.417L466.292 677.056L303.584 886.171L300.189 883.531Z" fill="#4F2B2C"/>
<path d="M496.759 653.065C483.992 669.472 464.595 675.736 464.595 675.736C464.595 675.736 465.899 655.395 478.665 638.985C491.432 622.579 510.829 616.315 510.829 616.315C510.829 616.315 509.527 636.656 496.759 653.065Z" fill="#224249"/>
<path d="M463.747 675.076L504.912 622.169L506.607 623.491L465.443 676.397L463.747 675.076Z" fill="#21181C"/>
<path d="M486.392 705.072C463.852 712.736 441.353 706.521 441.353 706.521C441.353 706.521 455.399 687.88 477.939 680.216C500.48 672.55 522.977 678.765 522.977 678.765C522.977 678.765 508.931 697.407 486.392 705.072Z" fill="#224249"/>
<path d="M441.701 707.538L441.008 705.504L513.681 680.792L514.375 682.826L441.701 707.538Z" fill="#21181C"/>
<path d="M430.987 661.962C429.097 685.695 440.651 705.973 440.651 705.973C440.651 705.973 455.267 687.777 457.157 664.045C459.047 640.313 447.492 620.032 447.492 620.032C447.492 620.032 432.876 638.231 430.987 661.962Z" fill="#224249"/>
<path d="M439.58 705.889L445.672 629.371L447.812 629.541L441.72 706.06L439.58 705.889Z" fill="#21181C"/>
<path d="M452.905 752.131C428.78 760.335 404.697 753.684 404.697 753.684C404.697 753.684 419.732 733.729 443.859 725.526C467.985 717.321 492.068 723.973 492.068 723.973C492.068 723.973 477.033 743.925 452.905 752.131Z" fill="#224249"/>
<path d="M405.044 754.7L404.351 752.665L482.14 726.213L482.833 728.248L405.044 754.7Z" fill="#21181C"/>
<path d="M393.601 705.986C391.579 731.389 403.945 753.097 403.945 753.097C403.945 753.097 419.592 733.62 421.613 708.216C423.636 682.813 411.269 661.105 411.269 661.105C411.269 661.105 395.623 680.584 393.601 705.986Z" fill="#224249"/>
<path d="M402.875 753.013L409.396 671.109L411.537 671.278L405.016 753.183L402.875 753.013Z" fill="#21181C"/>
<path d="M420.857 800.872C393.753 810.089 366.699 802.617 366.699 802.617C366.699 802.617 383.589 780.2 410.695 770.983C437.799 761.765 464.855 769.24 464.855 769.24C464.855 769.24 447.963 791.656 420.857 800.872Z" fill="#224249"/>
<path d="M367.044 803.635L366.351 801.598L453.744 771.881L454.439 773.917L367.044 803.635Z" fill="#21181C"/>
<path d="M354.232 749.032C351.96 777.572 365.853 801.96 365.853 801.96C365.853 801.96 383.431 780.077 385.703 751.537C387.975 722.999 374.081 698.611 374.081 698.611C374.081 698.611 356.504 720.493 354.232 749.032Z" fill="#224249"/>
<path d="M364.784 801.873L372.108 709.857L374.248 710.028L366.924 802.044L364.784 801.873Z" fill="#21181C"/>
<path d="M313.577 791.444C310.98 824.068 326.863 851.945 326.863 851.945C326.863 851.945 346.955 826.931 349.553 794.307C352.149 761.684 336.268 733.805 336.268 733.805C336.268 733.805 316.175 758.819 313.577 791.444Z" fill="#224249"/>
<path d="M325.792 851.861L334.167 746.674L336.308 746.844L327.933 852.029L325.792 851.861Z" fill="#21181C"/>
<path d="M1300.22 839.173L1093 748.931L1094.46 745.569L1301.68 835.81L1300.22 839.173Z" fill="#4F2B2C"/>
<path d="M1068.19 725.465C1084.45 732.545 1093.73 747.25 1093.73 747.25C1093.73 747.25 1076.64 750.474 1060.38 743.395C1044.12 736.313 1034.84 721.608 1034.84 721.608C1034.84 721.608 1051.93 718.383 1068.19 725.465Z" fill="#224249"/>
<path d="M1093.36 748.091L1040.93 725.26L1041.67 723.58L1094.1 746.411L1093.36 748.091Z" fill="#21181C"/>
<path d="M1113.36 723.033C1124.46 740.04 1124.08 759.947 1124.08 759.947C1124.08 759.947 1105.71 752.281 1094.61 735.274C1083.51 718.268 1083.88 698.361 1083.88 698.361C1083.88 698.361 1102.26 706.028 1113.36 723.033Z" fill="#224249"/>
<path d="M1124.85 759.444L1123.32 760.448L1087.52 705.616L1089.06 704.612L1124.85 759.444Z" fill="#21181C"/>
<path d="M1089.45 777.937C1109.46 774.48 1123.78 760.643 1123.78 760.643C1123.78 760.643 1105.65 752.413 1085.64 755.869C1065.63 759.326 1051.31 773.164 1051.31 773.164C1051.31 773.164 1069.44 781.396 1089.45 777.937Z" fill="#224249"/>
<path d="M1123.94 761.547L1059.41 772.695L1059.1 770.889L1123.63 759.743L1123.94 761.547Z" fill="#21181C"/>
<path d="M1159.33 740.755C1171.22 758.959 1170.81 780.267 1170.81 780.267C1170.81 780.267 1151.14 772.061 1139.26 753.859C1127.38 735.653 1127.78 714.345 1127.78 714.345C1127.78 714.345 1147.45 722.55 1159.33 740.755Z" fill="#224249"/>
<path d="M1171.58 779.764L1170.04 780.768L1131.73 722.077L1133.27 721.073L1171.58 779.764Z" fill="#21181C"/>
<path d="M1133.74 799.524C1155.16 795.823 1170.49 781.012 1170.49 781.012C1170.49 781.012 1151.08 772.2 1129.66 775.903C1108.24 779.603 1092.91 794.414 1092.91 794.414C1092.91 794.414 1112.32 803.224 1133.74 799.524Z" fill="#224249"/>
<path d="M1170.64 781.914L1101.58 793.847L1101.27 792.041L1170.33 780.109L1170.64 781.914Z" fill="#21181C"/>
<path d="M1206.39 756.932C1219.74 777.383 1219.29 801.321 1219.29 801.321C1219.29 801.321 1197.19 792.102 1183.84 771.652C1170.49 751.201 1170.95 727.262 1170.95 727.262C1170.95 727.262 1193.04 736.481 1206.39 756.932Z" fill="#224249"/>
<path d="M1220.06 800.82L1218.52 801.824L1175.48 735.885L1177.01 734.881L1220.06 800.82Z" fill="#21181C"/>
<path d="M1177.64 822.956C1201.71 818.799 1218.92 802.159 1218.92 802.159C1218.92 802.159 1197.12 792.26 1173.06 796.417C1148.99 800.576 1131.77 817.214 1131.77 817.214C1131.77 817.214 1153.57 827.113 1177.64 822.956Z" fill="#224249"/>
<path d="M1241.91 881.338L1148.6 653.829L1152.29 652.313L1245.6 879.824L1241.91 881.338Z" fill="#4F2B2C"/>
<path d="M1147.04 616.711C1154.36 634.563 1150.45 653.072 1150.45 653.072C1150.45 653.072 1134.67 642.637 1127.35 624.784C1120.03 606.932 1123.94 588.424 1123.94 588.424C1123.94 588.424 1139.71 598.86 1147.04 616.711Z" fill="#224249"/>
<path d="M1149.53 653.449L1125.92 595.889L1127.77 595.135L1151.37 652.695L1149.53 653.449Z" fill="#21181C"/>
<path d="M1184.13 649.056C1179.9 670.743 1164.51 685.991 1164.51 685.991C1164.51 685.991 1155.99 666.08 1160.21 644.393C1164.44 622.707 1179.83 607.457 1179.83 607.457C1179.83 607.457 1188.36 627.369 1184.13 649.056Z" fill="#224249"/>
<path d="M1165.5 686.181L1163.54 685.801L1177.17 615.877L1179.13 616.257L1165.5 686.181Z" fill="#21181C"/>
<path d="M1123.85 673.779C1142.09 686.25 1163.75 686.305 1163.75 686.305C1163.75 686.305 1155.84 666.138 1137.6 653.667C1119.36 641.195 1097.7 641.14 1097.7 641.14C1097.7 641.14 1105.61 661.305 1123.85 673.779Z" fill="#224249"/>
<path d="M1163.19 687.128L1104.38 646.916L1105.51 645.271L1164.31 685.483L1163.19 687.128Z" fill="#21181C"/>
<path d="M1206.57 697.735C1202.05 720.948 1185.58 737.269 1185.58 737.269C1185.58 737.269 1176.45 715.956 1180.97 692.744C1185.5 669.529 1201.97 653.207 1201.97 653.207C1201.97 653.207 1211.1 674.521 1206.57 697.735Z" fill="#224249"/>
<path d="M1186.56 737.46L1184.6 737.08L1199.19 662.236L1201.15 662.616L1186.56 737.46Z" fill="#21181C"/>
<path d="M1142.05 724.196C1161.57 737.547 1184.76 737.605 1184.76 737.605C1184.76 737.605 1176.29 716.02 1156.77 702.669C1137.25 689.319 1114.06 689.26 1114.06 689.26C1114.06 689.26 1122.53 710.847 1142.05 724.196Z" fill="#224249"/>
<path d="M1184.2 738.428L1121.25 695.384L1122.38 693.74L1185.32 736.783L1184.2 738.428Z" fill="#21181C"/>
<path d="M1231.03 746.031C1225.95 772.111 1207.45 790.448 1207.45 790.448C1207.45 790.448 1197.19 766.503 1202.28 740.424C1207.36 714.345 1225.86 696.008 1225.86 696.008C1225.86 696.008 1236.12 719.952 1231.03 746.031Z" fill="#224249"/>
<path d="M1158.55 775.76C1180.48 790.759 1206.53 790.824 1206.53 790.824C1206.53 790.824 1197.02 766.575 1175.08 751.576C1153.15 736.577 1127.1 736.512 1127.1 736.512C1127.1 736.512 1136.61 760.762 1158.55 775.76Z" fill="#224249"/>
<path d="M1205.96 791.647L1135.25 743.29L1136.37 741.644L1207.09 790.001L1205.96 791.647Z" fill="#21181C"/>
<path d="M1173.94 828.067C1199.01 845.211 1228.79 845.287 1228.79 845.287C1228.79 845.287 1217.92 817.565 1192.84 800.419C1167.77 783.274 1138 783.198 1138 783.198C1138 783.198 1148.87 810.921 1173.94 828.067Z" fill="#224249"/>
<path d="M1228.23 846.108L1147.39 790.829L1148.51 789.185L1229.35 844.464L1228.23 846.108Z" fill="#21181C"/>
<path d="M171.708 802.919H372.148L484.753 735.164L358.925 770.977L441.197 648.052L324.08 749.684L355.053 584.169L275.684 741.94L242.775 581.265L230.192 746.78L123.721 629.661L198.251 770.009L82.6552 722.854L171.708 802.919Z" fill="#2F5743"/>
<path d="M209.248 802.919L118.487 746.826L117.808 747.924L206.792 802.919H209.248Z" fill="#454243"/>
<path d="M147.72 661.831L146.653 662.557L242.261 802.919H243.823L147.72 661.831Z" fill="#454243"/>
<path d="M244.624 624.693L243.343 624.84L263.603 802.919H264.901L244.624 624.693Z" fill="#454243"/>
<path d="M281.509 802.919L342.681 620.455L341.457 620.044L280.148 802.919H281.509Z" fill="#454243"/>
<path d="M305.412 802.919L412.892 681.336L411.925 680.48L303.691 802.919H305.412Z" fill="#454243"/>
<path d="M441.099 754.403L440.507 753.255L344.441 802.919H347.252L441.099 754.403Z" fill="#454243"/>
<path d="M1108.17 467.095H1200.77L1252.8 435.793L1194.66 452.339L1232.67 395.549L1178.57 442.501L1192.88 366.036L1156.21 438.923L1141.01 364.695L1135.19 441.159L1086 387.053L1120.44 451.892L1067.03 430.105L1108.17 467.095Z" fill="#81A8A4"/>
<path d="M1125.52 467.095L1083.59 441.181L1083.27 441.689L1124.38 467.095H1125.52Z" fill="#374C46"/>
<path d="M1097.09 401.915L1096.6 402.251L1140.77 467.095H1141.49L1097.09 401.915Z" fill="#374C46"/>
<path d="M1141.86 384.757L1141.27 384.825L1150.63 467.095H1151.23L1141.86 384.757Z" fill="#374C46"/>
<path d="M1158.9 467.095L1187.16 382.799L1186.6 382.609L1158.27 467.095H1158.9Z" fill="#374C46"/>
<path d="M1169.94 467.095L1219.6 410.925L1219.15 410.529L1169.15 467.095H1169.94Z" fill="#374C46"/>
<path d="M1232.63 444.681L1232.35 444.151L1187.97 467.095H1189.27L1232.63 444.681Z" fill="#374C46"/>
<path d="M542.736 357.428H585.435L609.423 342.995L582.619 350.624L600.145 324.437L575.196 346.088L581.793 310.829L564.885 344.439L557.875 310.211L555.195 345.469L532.513 320.52L548.391 350.417L523.765 340.372L542.736 357.428Z" fill="#A6CDC4"/>
<path d="M550.732 357.428L531.399 345.479L531.253 345.713L550.209 357.428H550.732Z" fill="#779B97"/>
<path d="M537.625 327.373L537.399 327.528L557.765 357.428H558.099L537.625 327.373Z" fill="#779B97"/>
<path d="M558.269 319.461L557.996 319.493L562.312 357.428H562.589L558.269 319.461Z" fill="#779B97"/>
<path d="M566.127 357.428L579.157 318.559L578.897 318.472L565.836 357.428H566.127Z" fill="#779B97"/>
<path d="M571.219 357.428L594.115 331.528L593.909 331.345L570.852 357.428H571.219Z" fill="#779B97"/>
<path d="M600.123 347.093L599.997 346.849L579.533 357.428H580.132L600.123 347.093Z" fill="#779B97"/>
</svg>
