<svg width="961" height="500" viewBox="0 0 961 500" fill="none" xmlns="http://www.w3.org/2000/svg">
<path d="M55.9722 390.824H960.389V54.4601H55.9722V390.824Z" fill="#F5E2CA"/>
<path d="M575.376 296.708C531.163 280.796 489.469 253.791 444.989 239.193C329.923 201.423 210.288 249.576 94.3709 282.429C81.7429 286.007 68.8562 289.383 55.9722 291.129V390.824H960.389V314.976C906.856 306.805 852.403 310.136 798.056 313.468C722.749 318.084 647.616 322.701 575.376 296.708Z" fill="#9EC3BE"/>
<path d="M465.683 379.079C451.723 379.078 441.416 368.14 433.429 357.439C424.376 345.298 415.043 332.671 410.483 318.039C408.87 312.902 407.028 307.335 410.883 302.878C415.616 297.414 424.336 296.528 430.989 295.784C451.936 293.437 472.936 291.114 494.003 291.114C495.443 291.114 496.883 291.124 498.323 291.147C520.829 291.498 543.536 294.762 564.336 303.358C580.496 310.038 548.083 326.76 541.536 329.708C527.416 336.074 511.536 340.88 500.803 352.711C496.27 357.704 492.976 363.722 488.336 368.623C483.603 373.644 477.403 377.426 470.603 378.636C468.923 378.936 467.283 379.079 465.683 379.079Z" fill="#6F7268"/>
<path d="M659.536 199.16H661.123V204.179H667.39V199.16H668.99V211.18H667.39V205.544H661.123V211.18H659.536V199.16Z" fill="#2A453C"/>
<path d="M688.403 205.561H682.429V209.815H689.003L688.789 211.18H680.87V199.16H688.696V200.525H682.429V204.196H688.403V205.561Z" fill="#2A453C"/>
<path d="M706.15 206.208C705.003 203.05 704.363 201.372 704.11 200.456H704.096C703.803 201.473 703.096 203.507 702.176 206.208H706.15ZM701.763 207.573L700.47 211.18H698.883L703.163 199.16H705.123L709.59 211.18H707.883L706.55 207.573H701.763Z" fill="#2A453C"/>
<path d="M720.096 199.16H721.696V209.815H727.963L727.749 211.18H720.096V199.16Z" fill="#2A453C"/>
<path d="M739.003 200.525H735.123V199.16H744.496V200.525H740.603V211.18H739.003V200.525Z" fill="#2A453C"/>
<path d="M754.829 199.16H756.429V204.179H762.696V199.16H764.283V211.18H762.696V205.544H756.429V211.18H754.829V199.16Z" fill="#2A453C"/>
<path d="M778.789 211.18V206.771L778.709 206.452L774.469 199.16H776.296C777.389 201.112 779.136 204.21 779.683 205.268C780.203 204.23 781.989 201.103 783.123 199.16H784.829L780.456 206.478C780.416 206.554 780.389 206.616 780.389 206.788V211.18H778.789Z" fill="#2A453C"/>
<path d="M163.177 240.025C168.416 244.913 174.779 248.675 179.123 254.373C186.695 264.301 186.653 277.879 186.279 290.36C186.161 294.277 185.973 298.425 183.801 301.688C183.099 302.743 182.163 303.797 182.209 305.065C182.313 307.893 186.337 308.083 189.043 308.912C194.179 310.484 195.575 316.105 196.239 320.767C196.676 323.829 199.779 330.843 198.257 333.365C197.336 334.893 195.291 335.276 193.509 335.208C186.867 334.957 184.181 330.977 179.784 326.959C177.115 324.519 173.701 320.977 170.955 319.005C166.937 316.123 164.096 320.015 159.58 318.859C156.585 318.092 153.755 316.555 150.668 316.392C146.336 316.163 141.9 318.664 137.812 317.216C136.169 316.633 134.8 315.464 133.611 314.192C129.063 309.328 126.516 302.625 121.144 298.692C117.759 296.213 113.593 295.103 109.803 293.307C100.019 288.669 93.1375 279.725 85.8188 271.747C67.8001 252.104 44.5748 235.936 34.1881 211.388C29.5668 200.464 27.8401 188.571 26.1548 176.829C25.5028 172.281 23.5708 165.988 23.9948 161.475C24.2228 159.048 25.8215 156.568 28.2215 156.144C29.6548 155.892 31.1015 156.391 32.4708 156.881C37.3561 158.633 42.2415 160.384 47.1268 162.135C49.5908 163.017 52.0708 163.909 54.3241 165.243C58.7921 167.889 62.2135 172.188 66.9708 174.269C72.9508 176.887 79.4295 178.039 85.3455 180.832C92.5442 184.231 99.2121 188.633 105.847 193C115.503 199.352 125.159 205.707 134.813 212.059C140.639 215.892 148.445 219.623 152.585 225.381C156.213 230.428 158.453 235.619 163.177 240.025Z" fill="#2B5E45"/>
<path d="M27.2335 155.848C33.8188 163.767 39.3828 172.331 45.0215 180.852C50.6895 189.345 56.2308 197.961 62.1135 206.268C67.9775 214.588 74.2308 222.567 81.4882 229.596C88.6655 236.717 96.5695 243.124 104.697 249.261C112.832 255.392 121.186 261.312 129.382 267.459C137.599 273.573 145.659 279.931 153.441 286.625C157.327 289.987 161.16 293.381 164.852 296.988C168.512 300.609 172.006 304.363 175.504 308.084C182.508 315.495 189.559 322.908 198.01 328.619L197.551 329.331C188.78 323.905 181.238 316.748 174.066 309.476C170.456 305.848 166.877 302.211 163.169 298.741C159.484 295.268 155.611 291.933 151.711 288.668C143.891 282.143 135.757 275.989 127.552 269.924C119.344 263.856 110.968 258.008 102.73 251.888C94.5028 245.761 86.4255 239.328 79.0362 232.08C71.6375 224.819 65.2762 216.58 59.4242 208.156C53.5442 199.733 48.0788 191.105 42.4535 182.552C36.8508 173.991 31.1748 165.471 26.5201 156.305L27.2335 155.848Z" fill="#4E8B72"/>
<path d="M375.544 117.697C382.116 120.556 388.1 124.891 395.06 126.605C407.183 129.591 419.616 124.141 430.91 118.824C434.456 117.155 438.19 115.329 440.323 112.039C441.003 110.972 441.603 109.693 442.776 109.231C445.416 108.199 447.19 111.813 449.03 113.965C452.523 118.049 458.23 117.088 462.776 115.84C465.763 115.02 473.43 115.069 475.136 112.669C476.163 111.216 475.696 109.188 474.923 107.58C472.056 101.588 467.336 100.712 461.896 98.2801C458.59 96.8041 453.99 95.0854 451.083 93.3521C446.83 90.8174 449.27 86.6601 446.416 82.9787C444.51 80.5387 441.976 78.5548 440.603 75.7881C438.656 71.9054 439.19 66.8428 436.23 63.6694C435.043 62.3948 433.416 61.6054 431.776 61.0214C425.51 58.7895 418.35 59.1255 412.59 55.7655C408.976 53.6481 406.295 50.2708 403.138 47.5108C394.986 40.3854 384.039 37.6387 373.804 34.1067C348.608 25.4107 324.523 10.5547 297.87 10.8121C286.008 10.9267 274.412 14.0841 262.972 17.2174C258.542 18.4321 252 19.1681 248.028 21.3561C245.895 22.5321 244.256 24.9868 244.826 27.3575C245.166 28.7721 246.199 29.9001 247.195 30.9614C250.748 34.7441 254.3 38.5268 257.854 42.3081C259.646 44.2161 261.452 46.1361 263.572 47.6694C267.782 50.7148 273.087 52.1388 276.894 55.6721C281.676 60.1121 285.315 65.5961 290.234 69.9081C296.222 75.1548 302.916 79.5175 309.566 83.8628C319.24 90.1855 328.915 96.5081 338.591 102.831C344.427 106.645 350.962 112.319 357.892 113.82C363.966 115.137 369.62 115.121 375.544 117.697Z" fill="#2B5E45"/>
<path d="M244.293 25.7335C254.556 26.3481 264.632 28.1588 274.717 29.8841C284.804 31.6361 294.895 33.2082 304.964 35.2442C315.021 37.2522 325.113 39.8042 334.723 43.6962C344.313 47.5842 353.433 52.4281 362.332 57.5308C371.229 62.6481 379.931 68.0001 388.765 73.1082C397.6 78.2161 406.484 83.2228 415.589 87.7948C420.136 90.0695 424.736 92.2935 429.389 94.2882C434.056 96.3068 438.816 98.1401 443.576 100.003C453.109 103.684 462.683 107.748 471.149 113.63L470.683 114.335C462.069 108.86 452.469 105.348 442.869 101.877C438.069 100.151 433.229 98.4455 428.456 96.5308C423.669 94.5828 419.029 92.4188 414.403 90.1962C405.161 85.7255 396.119 80.8682 387.235 75.7682C378.331 70.7028 369.571 65.4002 360.707 60.3828C351.839 55.3762 342.812 50.6788 333.421 46.9348C324.08 43.0802 314.272 40.5255 304.304 38.4628C294.341 36.3775 284.231 34.7308 274.181 32.9175C264.119 31.1428 254.047 29.4535 244.159 26.5695L244.293 25.7335Z" fill="#4E8B72"/>
<path d="M146.164 26.6188C149.443 29.7281 153.56 31.4761 157.674 33.5148C161.77 35.5388 165.838 37.6188 169.971 39.5761C178.226 43.5174 186.616 47.1908 195.043 50.8094C203.47 54.4294 211.937 57.9921 220.351 61.7161C228.737 65.4975 237.071 69.4441 245.224 73.7721C261.523 82.3961 277.121 92.7254 290.395 105.681C303.684 118.507 314.547 134.296 319.932 152.008L319.127 152.275C316.043 143.66 311.641 135.597 306.461 128.127C305.121 126.288 303.863 124.393 302.392 122.653C300.97 120.879 299.568 119.089 298.016 117.424L295.763 114.865C294.999 114.024 294.187 113.225 293.401 112.404L291.028 109.956L288.544 107.617C275.236 95.1854 259.892 85.0641 243.698 76.6788C235.6 72.4574 227.298 68.6134 218.926 64.9028C210.579 61.1334 202.149 57.5121 193.735 53.8241C185.32 50.1361 176.918 46.3814 168.632 42.3508C164.491 40.3361 160.363 38.2761 156.352 35.9961C154.35 34.8721 152.343 33.6841 150.435 32.2721C148.538 30.8654 146.772 29.1628 145.505 27.1508L146.164 26.6188Z" fill="#2A453C"/>
<path d="M281.909 100.359C282.996 103.223 283.672 106.06 284.18 108.897C284.71 111.741 284.997 114.581 285.14 117.429C285.279 120.28 285.241 123.137 284.935 125.973C284.767 127.392 284.545 128.808 284.307 130.217L283.448 134.445L282.411 138.66C282.028 140.06 281.592 141.453 281.129 142.831C280.636 144.207 280.067 145.563 279.467 146.897C278.832 148.225 278.122 149.525 277.398 150.804C274.395 155.873 270.469 160.569 265.139 163.623C266.079 157.588 267.231 152.401 268.27 147.205C268.494 145.892 268.765 144.613 269.049 143.341C269.283 142.045 269.58 140.781 269.891 139.517C270.155 138.235 270.48 136.976 270.795 135.708L271.661 131.865C272.221 129.288 272.663 126.679 273.252 124.075C273.811 121.46 274.544 118.853 275.367 116.228C276.168 113.596 277.054 110.952 278.126 108.304C279.163 105.649 280.344 102.992 281.909 100.359Z" fill="#2A453C"/>
<path d="M267.12 88.3561C267.672 89.8614 268.032 91.3654 268.407 92.8828C268.707 94.3921 268.97 95.9081 269.17 97.4268C269.362 98.9441 269.465 100.459 269.563 101.98C269.607 103.492 269.627 105.009 269.599 106.523C269.547 108.031 269.454 109.539 269.332 111.044C269.162 112.539 268.955 114.031 268.695 115.512C268.397 116.984 268.064 118.448 267.704 119.905L266.494 124.245L265.139 128.541C264.649 129.961 264.141 131.375 263.591 132.771C263.013 134.159 262.396 135.531 261.732 136.881C261.043 138.221 260.312 139.543 259.55 140.845C256.447 146.023 252.739 150.901 247.695 154.824C248.043 148.456 249.211 142.775 250.45 137.179C250.738 135.772 251.06 134.387 251.423 133.021C251.743 131.639 252.111 130.279 252.517 128.933C252.884 127.575 253.292 126.232 253.722 124.897L254.912 120.861L256.044 116.808C256.395 115.451 256.773 114.099 257.185 112.755C257.568 111.404 258.003 110.063 258.472 108.725C258.924 107.384 259.4 106.043 259.92 104.705C260.394 103.357 260.914 102.013 261.459 100.664C261.984 99.3147 262.517 97.9574 263.14 96.6014C263.697 95.2374 264.318 93.8721 264.976 92.5001C265.635 91.1267 266.283 89.7414 267.12 88.3561Z" fill="#2A453C"/>
<path d="M249.693 77.212C250.856 80.62 251.604 84.0214 252.148 87.4427C252.719 90.8654 253.027 94.3041 253.136 97.7627C253.256 101.219 253.161 104.697 252.725 108.155C252.303 111.615 251.559 115.045 250.715 118.464C249.828 121.88 248.831 125.288 247.485 128.584C246.153 131.881 244.457 135.052 242.465 138.028C238.503 143.957 233.336 149.292 226.797 152.384C229.416 145.7 231.713 139.749 233.669 133.684C234.64 130.66 235.532 127.645 236.451 124.643C237.356 121.636 238.275 118.624 239.007 115.547C239.781 112.472 240.368 109.339 241.053 106.199C241.723 103.056 242.508 99.8974 243.347 96.7027C244.177 93.5067 245.044 90.276 246.077 87.0227C247.083 83.768 248.197 80.488 249.693 77.212Z" fill="#2A453C"/>
<path d="M297.675 116.041C298.379 118.567 299 120.929 299.585 123.303C300.168 125.672 300.743 128.039 301.155 130.481C301.588 132.919 301.905 135.435 301.905 138.037C301.917 140.637 301.62 143.313 301.067 145.999C300.484 148.679 299.655 151.289 298.508 153.712C297.37 156.139 295.911 158.36 294.276 160.38C290.995 164.42 287.115 167.744 282.463 170.147C284.099 165.167 286.228 160.831 287.983 156.567C289.687 152.288 291.348 148.291 292.207 144.155C292.643 142.089 292.83 139.921 293.038 137.676C293.235 135.429 293.469 133.091 293.772 130.681C294.053 128.273 294.447 125.791 295.021 123.308C295.601 120.831 296.394 118.336 297.675 116.041Z" fill="#2A453C"/>
<path d="M306.58 126.136C307.21 128.143 307.991 129.919 308.756 131.769C309.52 133.605 310.308 135.544 310.764 137.675C311.29 139.775 311.471 141.943 311.455 144.096C311.368 146.241 311.13 148.376 310.692 150.447C309.887 154.609 308.505 158.571 306.551 162.196C304.631 165.833 302.358 169.217 299.476 172.273C299.956 168.092 301.015 164.217 301.999 160.42C302.903 156.601 304.077 152.964 304.773 149.283C305.46 145.592 305.788 141.957 305.873 138.244C305.955 136.396 305.784 134.447 305.773 132.371C305.753 130.315 305.871 128.128 306.58 126.136Z" fill="#2A453C"/>
<path d="M314.429 139.608C316.04 142.693 316.784 146.047 317.088 149.42C317.43 152.807 317.017 156.204 316.268 159.499C315.551 162.8 314.516 166.057 312.835 169.009C311.177 171.959 309.139 174.72 306.359 176.843C306.831 173.389 307.59 170.312 308.259 167.241C308.902 164.173 309.724 161.228 310.372 158.221C310.99 155.207 311.458 152.191 312.175 149.133C312.854 146.064 313.468 142.943 314.429 139.608Z" fill="#2A453C"/>
<path d="M320.661 150.72C322.664 152.227 323.935 154.313 324.775 156.527C325.656 158.749 325.804 161.16 325.601 163.505C325.436 165.852 324.948 168.209 323.788 170.295C322.663 172.371 321.135 174.273 318.904 175.464C318.819 172.955 318.987 170.9 319.091 168.881C319.164 166.871 319.445 164.996 319.583 163.077C319.681 161.156 319.667 159.268 319.907 157.264C320.107 155.249 320.259 153.179 320.661 150.72Z" fill="#2A453C"/>
<path d="M298.001 113.471C299.431 111.919 301.859 111.697 303.854 112.331C305.928 112.925 307.568 114.515 308.56 116.444C309.558 118.289 309.995 120.387 309.606 122.309C309.244 124.221 308.38 125.983 306.707 127.232C305.788 125.372 305.276 123.915 304.711 122.627C304.118 121.36 303.767 120.276 303.244 119.296C302.718 118.405 302.05 117.607 301.364 116.579C300.61 115.591 299.755 114.543 298.001 113.471Z" fill="#2A453C"/>
<path d="M310.455 130.692C310.542 129.819 311.346 129.01 312.27 128.75C313.203 128.438 314.227 128.501 315.189 128.873C317.319 129.749 318.163 131.747 318.424 133.309C318.717 134.921 318.635 136.275 318.042 137.594C317.46 138.891 316.578 140.109 314.971 140.881C314.012 139.388 313.555 138.276 313.149 137.223C312.717 136.195 312.64 135.168 312.501 134.46C312.321 133.739 312.16 133.404 312.342 132.889C312.339 132.591 312.233 132.196 311.991 131.78C311.743 131.388 311.33 130.875 310.455 130.692Z" fill="#2A453C"/>
<path d="M281.487 97.2054C283.326 96.2294 285.863 96.6241 287.78 97.8534C288.759 98.4561 289.636 99.3001 290.342 100.263C291.019 101.219 291.559 102.275 291.938 103.36C292.695 105.536 292.908 107.781 292.795 109.869C292.711 111.979 292.348 114.023 291.892 115.993C290.991 119.955 289.664 123.603 288.148 127.067C286.636 130.557 285.199 133.892 283.76 137.681C282.52 133.784 282.804 129.573 283.435 125.708C284.032 121.799 285.222 118.181 286.01 114.655C286.402 112.888 286.724 111.143 286.899 109.421C287.12 107.697 287.258 106.056 287.144 104.489C287.078 103.711 286.978 102.939 286.734 102.213C286.538 101.48 286.202 100.804 285.754 100.124C284.836 98.8148 283.491 97.6081 281.487 97.2054Z" fill="#2A453C"/>
<path d="M232.559 68.3174C233.174 69.72 233.596 71.1374 234.032 72.5707C234.383 73.9974 234.694 75.4387 234.942 76.8867C235.172 78.3334 235.311 79.7814 235.442 81.2414C235.51 82.6894 235.552 84.1454 235.544 85.6001C235.503 87.0494 235.416 88.4974 235.304 89.948C235.13 91.3827 234.918 92.8147 234.654 94.2374C234.34 95.648 233.991 97.0494 233.614 98.4454L232.318 102.58L230.844 106.655C230.304 107.995 229.746 109.328 229.144 110.641C228.508 111.939 227.831 113.217 227.108 114.469C226.351 115.707 225.555 116.92 224.729 118.109C221.351 122.819 217.308 127.121 212.011 130.179C212.923 124.151 214.436 118.921 215.931 113.765C216.279 112.467 216.658 111.192 217.075 109.941C217.442 108.668 217.852 107.419 218.304 106.191C218.704 104.941 219.144 103.711 219.607 102.488L220.868 98.7774L222.039 95.0374C222.394 93.78 222.775 92.5308 223.192 91.2881C223.568 90.0361 223.996 88.7921 224.46 87.5521C224.896 86.3054 225.356 85.0587 225.862 83.8107C226.307 82.5534 226.802 81.2961 227.323 80.0307C227.811 78.7614 228.308 77.4828 228.896 76.2014C229.405 74.9108 229.979 73.6134 230.591 72.3027C231.191 70.9894 231.78 69.66 232.559 68.3174Z" fill="#2A453C"/>
<path d="M215.632 62.5882C216.255 64.0948 216.694 65.6228 217.131 67.1682C217.478 68.7082 217.797 70.2641 218.032 71.8281C218.248 73.3881 218.388 74.9562 218.495 76.5295C218.54 78.0935 218.572 79.6681 218.532 81.2374C218.461 82.8001 218.356 84.3668 218.204 85.9295C217.993 87.4762 217.749 89.0241 217.444 90.5588C217.084 92.0788 216.694 93.5935 216.27 95.0975L214.815 99.5588L213.155 103.949C212.549 105.393 211.912 106.825 211.242 108.239C210.531 109.637 209.764 111.009 208.96 112.356C208.121 113.687 207.223 114.981 206.304 116.255C202.545 121.288 198.001 125.853 192.201 128.864C193.841 122.568 195.793 117.092 197.655 111.625C198.087 110.245 198.56 108.898 199.051 107.566C199.488 106.206 199.98 104.877 200.496 103.564C200.959 102.224 201.468 100.908 201.988 99.5962L203.416 95.6055L204.731 91.5721C205.127 90.2161 205.547 88.8642 206.005 87.5215C206.42 86.1682 206.875 84.8202 207.375 83.4775C207.844 82.1282 208.323 80.7748 208.855 79.4215C209.331 78.0602 209.835 76.6935 210.375 75.3201C210.888 73.9455 211.384 72.5561 211.984 71.1641L212.793 69.0548L213.687 66.9268C214.288 65.5002 214.86 64.0535 215.632 62.5882Z" fill="#2A453C"/>
<path d="M73.2269 134.583C76.5055 137.692 80.6215 139.44 84.7349 141.479C88.8322 143.503 92.9002 145.583 97.0335 147.54C105.288 151.481 113.678 155.155 122.106 158.773C130.532 162.393 139 165.956 147.414 169.68C155.8 173.463 164.134 177.408 172.287 181.736C188.586 190.36 204.183 200.689 217.457 213.647C230.747 226.471 241.609 242.26 246.995 259.972L246.189 260.239C243.105 251.624 238.704 243.561 233.524 236.092C232.184 234.252 230.926 232.357 229.455 230.619C228.032 228.843 226.631 227.053 225.079 225.388L222.826 222.829C222.062 221.988 221.25 221.189 220.464 220.368L218.091 217.92L215.607 215.581C202.299 203.149 186.955 193.028 170.76 184.643C162.663 180.421 154.36 176.577 145.989 172.867C137.641 169.097 129.212 165.476 120.797 161.788C112.384 158.1 103.98 154.345 95.6948 150.315C91.5535 148.3 87.4255 146.24 83.4149 143.96C81.4122 142.836 79.4042 141.648 77.4975 140.236C75.6015 138.829 73.8348 137.127 72.5668 135.115L73.2269 134.583Z" fill="#6CA840"/>
<path d="M208.972 208.323C210.059 211.187 210.735 214.024 211.243 216.863C211.772 219.705 212.06 222.545 212.203 225.393C212.342 228.244 212.306 231.101 211.998 233.937C211.831 235.356 211.61 236.772 211.37 238.181L210.511 242.409L209.473 246.624C209.092 248.024 208.655 249.417 208.192 250.796C207.7 252.172 207.128 253.527 206.529 254.861C205.895 256.189 205.183 257.489 204.459 258.768C201.456 263.839 197.533 268.533 192.201 271.588C193.141 265.552 194.292 260.365 195.332 255.169C195.556 253.856 195.828 252.577 196.112 251.305C196.345 250.009 196.643 248.745 196.953 247.483C197.217 246.199 197.543 244.939 197.857 243.671L198.724 239.829C199.284 237.253 199.725 234.643 200.316 232.039C200.875 229.425 201.607 226.817 202.429 224.192C203.231 221.561 204.116 218.916 205.188 216.268C206.227 213.613 207.405 210.956 208.972 208.323Z" fill="#6CA840"/>
<path d="M194.182 196.32C194.734 197.825 195.095 199.329 195.47 200.847C195.771 202.356 196.032 203.872 196.232 205.391C196.424 206.908 196.528 208.424 196.624 209.944C196.669 211.456 196.689 212.973 196.661 214.487C196.611 215.996 196.515 217.503 196.396 219.008C196.224 220.504 196.016 221.995 195.757 223.476C195.459 224.948 195.127 226.412 194.767 227.871L193.557 232.209L192.201 236.505C191.713 237.925 191.204 239.339 190.654 240.735C190.076 242.123 189.459 243.495 188.794 244.845C188.106 246.185 187.375 247.508 186.612 248.809C183.509 253.987 179.801 258.867 174.757 262.788C175.105 256.42 176.273 250.739 177.511 245.143C177.8 243.736 178.121 242.351 178.485 240.984C178.805 239.603 179.174 238.243 179.58 236.899C179.948 235.54 180.355 234.197 180.784 232.861L181.976 228.825L183.107 224.772C183.456 223.415 183.836 222.064 184.248 220.72C184.631 219.368 185.066 218.027 185.536 216.689C185.987 215.348 186.463 214.008 186.984 212.669C187.455 211.321 187.976 209.977 188.522 208.629C189.048 207.279 189.58 205.921 190.203 204.567C190.76 203.203 191.38 201.837 192.039 200.464C192.699 199.091 193.344 197.705 194.182 196.32Z" fill="#6CA840"/>
<path d="M176.756 185.176C177.912 188.72 178.7 192.235 179.271 195.793C179.868 199.352 180.192 202.951 180.244 206.605C180.306 210.259 180.076 213.976 179.357 217.671C178.656 221.368 177.479 225.024 175.999 228.592C174.478 232.133 172.827 235.384 170.816 238.551C168.822 241.693 166.476 244.607 163.888 247.261C158.719 252.559 152.595 256.981 145.499 259.317C149.231 252.88 152.835 247.18 156.056 241.352C157.662 238.445 159.178 235.544 160.684 232.663C162.163 229.799 163.695 226.836 164.863 223.949C166.066 221.085 166.952 218.064 167.835 214.977L170.466 205.449C171.338 202.184 172.188 198.833 173.196 195.436C174.176 192.04 175.254 188.591 176.756 185.176Z" fill="#6CA840"/>
<path d="M224.736 224.007C225.442 226.531 226.063 228.895 226.648 231.267C227.231 233.636 227.805 236.003 228.217 238.444C228.651 240.883 228.968 243.4 228.968 246.001C228.98 248.601 228.683 251.277 228.128 253.963C227.547 256.643 226.718 259.255 225.57 261.676C224.432 264.103 222.973 266.324 221.339 268.344C218.057 272.384 214.178 275.708 209.526 278.111C211.162 273.131 213.291 268.793 215.045 264.531C216.749 260.252 218.411 256.255 219.27 252.12C219.706 250.053 219.892 247.885 220.1 245.64C220.297 243.393 220.532 241.056 220.836 238.645C221.116 236.237 221.509 233.756 222.084 231.272C222.664 228.795 223.455 226.3 224.736 224.007Z" fill="#6CA840"/>
<path d="M233.643 234.1C234.272 236.107 235.053 237.883 235.819 239.735C236.583 241.569 237.371 243.508 237.827 245.639C238.352 247.739 238.533 249.908 238.516 252.06C238.431 254.205 238.192 256.34 237.755 258.411C236.95 262.573 235.567 266.536 233.614 270.16C231.694 273.797 229.421 277.18 226.539 280.237C227.019 276.056 228.079 272.181 229.063 268.384C229.965 264.565 231.14 260.928 231.836 257.245C232.523 253.556 232.851 249.923 232.936 246.208C233.016 244.36 232.846 242.411 232.838 240.335C232.816 238.28 232.934 236.092 233.643 234.1Z" fill="#6CA840"/>
<path d="M241.492 247.572C243.103 250.657 243.845 254.012 244.151 257.384C244.492 260.771 244.08 264.168 243.331 267.463C242.614 270.763 241.579 274.021 239.898 276.973C238.239 279.923 236.202 282.684 233.422 284.807C233.894 281.353 234.652 278.276 235.322 275.205C235.964 272.136 236.787 269.192 237.435 266.184C238.052 263.172 238.52 260.155 239.236 257.097C239.916 254.028 240.531 250.908 241.492 247.572Z" fill="#6CA840"/>
<path d="M247.724 258.684C249.727 260.191 250.998 262.277 251.838 264.491C252.719 266.713 252.867 269.124 252.664 271.469C252.499 273.816 252.011 276.175 250.851 278.259C249.726 280.335 248.199 282.237 245.968 283.428C245.882 280.919 246.05 278.864 246.154 276.845C246.227 274.835 246.51 272.96 246.646 271.041C246.746 269.121 246.73 267.233 246.97 265.228C247.17 263.213 247.322 261.144 247.724 258.684Z" fill="#6CA840"/>
<path d="M225.064 221.433C226.494 219.883 228.921 219.663 230.916 220.295C232.991 220.889 234.631 222.479 235.622 224.408C236.622 226.253 237.057 228.351 236.668 230.275C236.307 232.185 235.444 233.947 233.771 235.196C232.851 233.336 232.339 231.879 231.773 230.591C231.179 229.324 230.829 228.241 230.307 227.261C229.78 226.371 229.112 225.571 228.427 224.543C227.674 223.555 226.818 222.507 225.064 221.433Z" fill="#6CA840"/>
<path d="M237.519 238.656C237.604 237.784 238.408 236.975 239.334 236.713C240.266 236.401 241.288 236.465 242.252 236.837C244.381 237.713 245.226 239.711 245.487 241.275C245.78 242.885 245.698 244.239 245.104 245.559C244.523 246.855 243.64 248.073 242.034 248.845C241.075 247.352 240.617 246.239 240.212 245.187C239.78 244.159 239.704 243.132 239.566 242.424C239.384 241.704 239.223 241.368 239.403 240.853C239.4 240.555 239.296 240.16 239.054 239.744C238.806 239.352 238.392 238.839 237.519 238.656Z" fill="#6CA840"/>
<path d="M208.549 205.171C210.389 204.193 212.925 204.588 214.843 205.817C215.821 206.42 216.699 207.264 217.404 208.227C218.081 209.183 218.621 210.239 219 211.324C219.759 213.5 219.971 215.745 219.857 217.835C219.775 219.943 219.411 221.987 218.955 223.957C218.053 227.92 216.727 231.567 215.211 235.031C213.7 238.521 212.261 241.856 210.823 245.647C209.583 241.748 209.867 237.537 210.497 233.673C211.095 229.763 212.284 226.147 213.071 222.619C213.464 220.852 213.787 219.108 213.961 217.387C214.181 215.661 214.321 214.02 214.207 212.453C214.14 211.675 214.04 210.903 213.795 210.177C213.6 209.444 213.264 208.768 212.817 208.088C211.899 206.779 210.553 205.572 208.549 205.171Z" fill="#6CA840"/>
<path d="M159.621 176.281C160.801 179.725 161.472 183.229 161.855 186.765C162.275 190.307 162.304 193.879 162.059 197.456C161.821 201.036 161.284 204.631 160.261 208.133C159.26 211.641 157.868 215.061 156.213 218.389C154.515 221.695 152.567 224.929 150.196 227.873C147.813 230.803 145.012 233.377 141.92 235.501C135.807 239.767 128.4 242.409 121.104 241.807C126.811 237.315 131.416 232.989 135.377 228.189C139.281 223.373 142.648 218.487 145.413 213.009C146.792 210.269 147.88 207.36 149.019 204.439L152.415 195.461L155.811 186.072C156.956 182.872 158.141 179.612 159.621 176.281Z" fill="#6CA840"/>
<path d="M142.695 170.551C143.312 172.116 143.736 173.704 144.176 175.312C144.511 176.916 144.788 178.539 145.012 180.173C145.208 181.808 145.271 183.448 145.344 185.103C145.346 186.749 145.262 188.401 145.158 190.06C145.007 191.713 144.738 193.36 144.478 195.013C144.139 196.651 143.682 198.273 143.214 199.889C142.667 201.484 142.01 203.052 141.36 204.617C140.614 206.148 139.81 207.66 139.028 209.177C138.122 210.639 137.203 212.095 136.263 213.536C135.207 214.911 134.167 216.296 133.016 217.591C132.415 218.22 131.788 218.825 131.163 219.428C130.531 220.024 129.935 220.651 129.231 221.169C128.543 221.705 127.835 222.215 127.128 222.716C126.41 223.205 125.756 223.763 124.967 224.149C119.04 227.708 112.194 229.553 105.511 228.768C110.684 224.457 115.104 220.676 118.836 216.489C119.776 215.459 120.595 214.321 121.512 213.32C122.366 212.247 123.144 211.116 124.018 210.085C124.804 208.973 125.564 207.839 126.382 206.755L128.524 203.243L130.414 199.543C130.955 198.253 131.559 196.995 132.14 195.713C132.658 194.399 133.267 193.115 133.848 191.801C134.386 190.468 134.99 189.145 135.574 187.796C136.091 186.425 136.69 185.061 137.262 183.669C137.794 182.265 138.358 180.853 138.975 179.425L139.811 177.252L140.734 175.055C141.332 173.575 141.918 172.075 142.695 170.551Z" fill="#6CA840"/>
<path d="M208.815 52.9241C211.508 56.5387 214.92 59.5414 218.307 62.5147C225.709 69.0174 233.112 75.5174 240.514 82.0187C244.108 85.1761 247.735 88.3561 251.912 90.6854C250.715 84.0454 249.518 77.404 248.322 70.764C250.516 78.1534 252.979 85.9667 258.827 90.9894C264.018 95.448 271.561 96.9894 278.084 94.9254C274.369 87.6667 270.655 80.4081 266.94 73.1494C271.416 77.0334 273.645 82.824 276.885 87.7867C280.125 92.7494 285.492 97.3227 291.329 96.3C290.004 93.652 288.679 91.0027 287.354 88.3547C289.306 93.0534 294.861 95.4121 299.944 95.1961C305.027 94.9787 309.773 92.728 314.356 90.52C321.843 86.912 327.179 82.6094 333.373 77.0854C333.933 76.5854 334.524 76.0347 334.684 75.3014C334.783 74.8521 334.706 74.3867 334.627 73.9334C334.104 70.8787 333.58 67.824 333.059 64.7707C332.414 61.0133 331.72 57.1254 329.567 53.9787C327.416 50.8334 323.375 48.6374 319.755 49.8334C321.687 48.576 323.96 47.8507 326.263 47.756C324.413 42.624 319.788 39.084 315.336 35.9334C313.9 34.9187 312.432 33.8974 310.76 33.3521C304.608 31.3454 298.145 36.248 291.712 35.556C294.769 32.788 298.524 30.7961 302.531 29.8187C304.898 29.2414 308.032 28.2014 307.823 25.7734C307.717 24.5467 306.696 23.6241 305.735 22.8547C301.785 19.6974 297.491 16.8174 292.64 15.3854C287.789 13.9521 282.286 14.1147 277.971 16.7534C274.66 18.78 271.341 22.3227 267.656 21.1027C271.052 17.1547 274.448 13.2081 277.844 9.26007C278.604 8.37474 279.376 7.02674 278.594 6.16007C278.254 5.78541 277.723 5.66005 277.226 5.56671C269.331 4.06271 261.15 5.17069 253.187 4.08136C243.819 2.80003 234.501 -1.50265 225.268 0.542686C216.535 2.47602 205.25 12.012 202.616 20.628C199.499 30.82 202.575 44.5547 208.815 52.9241Z" fill="#567D4D"/>
<path d="M204.86 15.5228C210.238 18.3348 214.964 21.8761 219.914 25.1735C224.847 28.4788 229.947 31.5375 235.085 34.5255C240.215 37.5308 245.436 40.3882 250.714 43.1468C255.968 45.9482 261.267 48.6814 266.608 51.3428L282.678 59.2588C288.056 61.8615 293.351 64.5335 298.876 66.5788C301.636 67.6148 304.451 68.5188 307.295 69.3361C310.133 70.1788 313.01 70.9268 315.903 71.6068C321.695 72.9561 327.555 74.1175 333.414 75.3188L333.278 76.1561C327.34 75.4415 321.397 74.6775 315.491 73.5668C312.537 73.0188 309.59 72.4028 306.66 71.6841C303.736 70.9388 300.836 70.0842 297.971 69.0988C292.227 67.1348 286.736 64.5962 281.347 62.0242L265.156 54.2868C259.768 51.6801 254.405 49.0028 249.084 46.2361C243.783 43.4335 238.528 40.5281 233.359 37.4668C228.204 34.3828 223.112 31.1815 218.171 27.7522C213.23 24.3362 208.299 20.8215 204.329 16.1841L204.86 15.5228Z" fill="#81B178"/>
<path d="M275.957 58.2467C276.261 58.2574 276.543 58.3094 276.822 58.3694L276.114 58.7721L276.243 59.1214L276.342 59.2001L276.34 59.2494L276.385 59.2521L276.511 59.1667L276.571 59.1081C276.582 59.1254 276.626 59.2627 276.66 59.4374L276.764 59.9241C276.879 60.5774 276.987 61.2307 277.126 61.8787C277.378 63.1787 277.686 64.4681 278 65.7521C278.642 68.3201 279.37 70.8667 280.222 73.3747C281.079 75.8814 282.091 78.3334 283.168 80.7601C284.271 83.1761 285.432 85.5694 286.667 87.9494L286.31 88.176C284.676 86.032 283.222 83.7414 281.975 81.3427C280.703 78.9547 279.632 76.4627 278.685 73.9241C277.732 71.3894 276.931 68.7934 276.335 66.1494C276.015 64.8307 275.786 63.4947 275.567 62.1587C275.451 61.492 275.364 60.8201 275.273 60.1494L275.223 59.6441C275.208 59.4881 275.184 59.2934 275.227 58.9747C275.251 58.8227 275.307 58.62 275.444 58.4454L275.748 58.1867L276.026 58.0961C276.194 58.0694 276.339 58.0654 276.522 58.1147C276.611 58.1414 276.717 58.1734 276.852 58.2787C276.989 58.3694 277.13 58.6414 277.09 58.8427L276.918 59.7134L276.382 59.2441C276.168 59.0574 275.957 58.8627 275.768 58.6254L275.957 58.2467Z" fill="#81B178"/>
<path d="M237.284 37.4467C237.713 38.8454 237.692 40.1147 237.885 41.4373C238.067 42.748 238.383 44.0467 238.757 45.336C239.477 47.9214 240.471 50.4933 241.394 53.0733C242.319 55.652 243.275 58.2213 244.145 60.8227C245.051 63.412 245.867 66.036 246.614 68.6907L246.219 68.8453C245.033 66.36 243.917 63.8427 242.891 61.2907C241.829 58.752 240.851 56.1814 239.845 53.6187L238.345 49.7733C237.907 48.464 237.474 47.1427 237.114 45.7867C236.759 44.4307 236.485 43.04 236.34 41.624C236.183 40.2227 236.136 38.728 236.863 37.3974L237.284 37.4467Z" fill="#81B178"/>
<path d="M255.62 48.8508C256.37 49.5628 256.532 50.3921 256.771 51.2108C257.014 52.0268 257.276 52.8361 257.54 53.6454C258.064 55.2628 258.618 56.8694 259.192 58.4694C259.78 60.0681 260.458 61.6294 261.118 63.2028C261.811 64.7628 262.482 66.3388 263.156 67.9348L262.791 68.1508C261.707 66.7854 260.738 65.3281 259.915 63.7921C259.059 62.2734 258.344 60.6801 257.666 59.0721C256.976 57.4694 256.391 55.8214 255.908 54.1427C255.675 53.3027 255.466 52.4548 255.266 51.6054C255.072 50.7574 254.832 49.9108 255.206 48.9414L255.62 48.8508Z" fill="#81B178"/>
<path d="M297.999 68.4522C298.899 68.6482 299.321 69.2202 299.801 69.7522L301.256 71.3268L304.148 74.4868C306.076 76.5988 308.103 78.6055 309.955 80.8535L309.677 81.1735C307.175 79.6481 305.012 77.6855 302.943 75.6495C301.907 74.6295 300.917 73.5615 299.976 72.4535L298.611 70.7548C298.164 70.1815 297.673 69.6415 297.668 68.7175L297.999 68.4522Z" fill="#81B178"/>
<path d="M278.766 56.4641C279.586 55.7001 280.547 55.5414 281.492 55.3361C282.439 55.1374 283.388 54.9427 284.342 54.7707C286.251 54.4414 288.176 54.2041 290.11 54.0654C292.039 53.9161 293.972 53.7907 295.91 53.8094C297.844 53.792 299.783 53.9268 301.703 54.1934L301.696 54.6174C299.776 54.8214 297.87 55.0054 295.966 55.1481C294.064 55.3267 292.163 55.4708 290.271 55.6988C288.38 55.9388 286.492 56.1894 284.607 56.4561L281.777 56.8667C280.835 57.0187 279.912 57.2414 278.854 56.8787L278.766 56.4641Z" fill="#81B178"/>
<path d="M36.1802 239.763C37.2842 243.964 38.4362 248.273 40.9802 251.795C44.2082 256.261 49.3082 258.965 53.1722 262.895C56.2628 266.037 58.5015 269.897 61.1429 273.425C71.1015 286.721 88.5202 295.269 104.652 291.297C106.48 290.847 108.59 290.296 110.106 291.415C111.163 292.196 111.567 293.556 112.168 294.727C113.988 298.279 117.932 300.347 121.88 300.929C125.227 301.424 130.935 301.596 134.166 300.577C135.8 300.061 140.334 294.267 138.682 294.468C135.986 294.796 133.398 293.345 131.247 291.685C129.099 290.024 127.098 288.065 124.566 287.083C123.119 286.52 121.52 286.288 120.23 285.428C117.511 283.616 119.736 281.547 118.859 279.279C118.128 277.391 115.807 276.359 114.836 274.571C113.832 272.727 114.219 270.48 114.153 268.381C113.981 262.832 110.094 257.584 104.835 255.804C102.156 254.899 98.8309 254.549 97.4989 252.057C96.5935 250.365 97.0082 248.309 96.8735 246.395C96.6042 242.563 94.0668 239.245 91.1575 236.736C88.2482 234.228 84.8828 232.276 82.0722 229.656C73.7135 221.861 71.5935 209.703 67.9095 198.881C66.6842 195.284 64.9455 191.433 61.4841 189.86C56.9455 187.793 52.9002 189.441 48.6335 186.539C44.4442 183.688 40.9735 179.841 38.6642 175.32C37.8028 173.636 36.7455 171.605 34.8561 171.484C33.4401 171.392 32.1815 172.543 31.6789 173.872C31.1775 175.199 31.2642 176.667 31.3695 178.083C31.5095 179.984 31.6695 181.9 31.4548 183.795C31.1055 186.885 29.7815 189.767 28.8575 192.736C25.7322 202.789 28.3668 210.493 31.0082 220.067C32.8122 226.608 34.4562 233.199 36.1802 239.763Z" fill="#5C9955"/>
<path d="M34.0108 172.611C36.4708 179.229 38.4988 185.959 40.7001 192.635C42.9174 199.304 45.3135 205.912 47.9681 212.411C50.6321 218.905 53.5668 225.285 56.8361 231.488C60.0761 237.704 63.6441 243.748 67.6241 249.512C75.6055 261.015 85.2188 271.433 96.4001 279.873C102.005 284.064 108.02 287.711 114.355 290.7C120.66 293.692 127.368 296.151 134.396 296.44L134.387 296.864C127.265 296.781 120.348 294.532 113.939 291.609C107.468 288.736 101.312 285.145 95.6028 280.951C84.1601 272.564 74.4082 262.027 66.2788 250.451C62.2255 244.643 58.5855 238.556 55.2881 232.297C52.0215 226.023 49.0961 219.579 46.4468 213.03C43.8068 206.476 41.4308 199.823 39.2375 193.117C37.0268 186.416 35.0028 179.654 33.6028 172.727L34.0108 172.611Z" fill="#99D875"/>
<path d="M15.0535 176.769C17.1841 171.693 19.3175 166.619 21.4495 161.541C17.0882 169.905 18.8735 180.407 23.6135 188.561C28.3522 196.716 35.6522 203.015 42.8135 209.152C40.7428 202.904 41.0588 195.896 43.6841 189.86C43.5241 196.524 43.5175 203.717 47.4042 209.132C52.0962 215.665 60.8548 217.501 68.7868 218.843C64.4908 209.424 63.8402 198.397 66.9962 188.537C70.3495 192.221 71.2295 197.499 71.5108 202.473C71.7908 207.448 71.6495 212.583 73.4868 217.213C75.3228 221.845 79.8562 225.893 84.7962 225.241C83.2922 221.731 81.7881 218.22 80.2841 214.709C84.2655 224.004 94.3842 226.221 103.272 224.803C105.128 224.505 107.131 224.133 108.411 222.756C109.609 221.465 110.046 219.412 111.64 218.667C113.708 217.7 115.897 219.616 118.103 220.201C123.575 221.651 127.863 214.847 133.467 214.045C134.404 213.912 135.472 213.904 136.117 213.211C136.572 212.72 136.683 212.012 136.775 211.349C137.6 205.325 138.425 199.3 139.251 193.276C139.864 188.805 140.396 183.921 138.03 180.079C134.888 174.979 128.09 173.848 122.132 173.221C126.772 172.767 131.484 173.057 136.032 174.079C137.328 169.703 134.06 165.408 131.013 162.009C128.14 158.8 125.267 155.593 122.394 152.384C121.519 151.408 120.6 150.4 119.383 149.909C115.714 148.433 110.879 149.109 107.038 149.42C109.418 148.611 111.797 147.801 114.177 146.993C115.708 146.473 117.403 145.808 118.051 144.327C118.629 143 118.151 141.447 117.455 140.176C115.946 137.409 113.501 135.293 111.108 133.241C109.28 131.673 107.452 130.105 105.622 128.536C104.92 127.935 104.195 127.319 103.317 127.024C102.549 126.765 101.72 126.775 100.908 126.801C97.9215 126.9 94.9428 127.212 92.0002 127.733C94.8561 125.585 98.2988 124.227 101.852 123.845C102.211 123.807 102.6 123.764 102.858 123.512C103.424 122.959 102.895 122.017 102.35 121.441C97.8015 116.625 92.0802 112.857 85.7335 110.965C83.4935 110.297 81.1908 109.864 78.8935 109.432C73.6042 108.436 68.2788 107.669 63.0242 106.488C57.5295 105.252 51.9402 103.767 46.2655 104.609C38.7082 105.731 31.8815 109.476 24.2308 110.328C20.8441 110.705 17.6335 109.273 14.3682 109.813C10.0708 110.524 9.2268 119.263 8.32547 122.775C6.78814 128.771 6.0255 134.963 6.0215 141.151C6.0135 153.525 9.0508 165.929 15.0535 176.769Z" fill="#2C6F5D"/>
<path d="M13.2776 110.791C15.7922 117.141 19.0429 122.857 23.1362 128.251C27.2296 133.596 31.9322 138.619 36.4749 143.736C41.0362 148.84 45.6616 153.879 50.4002 158.799C55.1082 163.749 59.9256 168.588 64.9096 173.243C74.8576 182.572 85.5522 191.103 96.9989 198.46C102.738 202.083 108.742 205.224 115.196 207.263C121.648 209.311 128.391 210.505 135.188 211.259L135.126 212.103C128.254 211.841 121.339 211.04 114.626 209.181C111.271 208.273 107.971 207.076 104.79 205.649C101.619 204.2 98.5669 202.52 95.5949 200.741C83.7335 193.597 72.8536 184.967 62.6816 175.655C57.5936 170.996 52.6722 166.164 47.8802 161.217C43.1216 156.237 38.4882 151.149 33.9269 146.005C29.4242 140.815 24.8203 135.728 20.6429 130.116C18.5709 127.313 16.6309 124.357 15.1136 121.163C13.6216 117.967 12.6029 114.485 12.4469 110.963L13.2776 110.791Z" fill="#528979"/>
<path d="M75.2575 183.94C75.7229 185.144 75.6215 186.263 75.6228 187.405C75.6402 188.545 75.7042 189.68 75.7962 190.815C75.9882 193.08 76.3335 195.331 76.8242 197.553C77.3255 199.776 78.0415 201.944 78.8562 204.079C79.7055 206.2 80.6482 208.292 81.7215 210.352L81.3668 210.585C79.8882 208.764 78.6215 206.751 77.6269 204.611C76.5975 202.484 75.8322 200.233 75.2295 197.944C74.6162 195.655 74.2348 193.303 74.0948 190.936C74.0375 189.752 74.0335 188.567 74.0668 187.384C74.1042 186.792 74.1216 186.201 74.2069 185.613C74.3256 185.029 74.4989 184.449 74.8362 183.897L75.2575 183.94Z" fill="#528979"/>
<path d="M63.9362 169.109C64.6362 168.544 65.4095 168.131 66.2015 167.768C67.0109 167.455 67.8442 167.207 68.6695 166.939L71.1841 166.269L73.7335 165.731C77.1548 165.115 80.6415 164.873 84.1122 165.013C87.5789 165.141 91.0402 165.575 94.4002 166.429C97.7642 167.248 101.021 168.493 104.056 170.117L103.882 170.504C100.68 169.321 97.4135 168.412 94.1069 167.736C90.7935 167.097 87.4375 166.699 84.0695 166.653C80.7055 166.623 77.3415 166.872 74.0228 167.412L71.5415 167.865L69.0841 168.439C68.2748 168.668 67.4709 168.919 66.6455 169.101C65.8309 169.32 64.9961 169.487 64.0895 169.504L63.9362 169.109Z" fill="#528979"/>
<path d="M40.3442 145.451C41.5095 144.548 42.8508 144.26 44.1775 143.941C45.5082 143.633 46.8429 143.345 48.1855 143.097C50.8775 142.619 53.5962 142.308 56.3255 142.169C59.0522 142.02 61.7869 141.971 64.5095 142.141C67.2335 142.275 69.9455 142.635 72.6082 143.2L72.5562 143.62C69.8482 143.525 67.1588 143.485 64.4748 143.48C61.7895 143.511 59.1095 143.58 56.4402 143.807C53.7709 144.045 51.1135 144.368 48.4668 144.78C47.1442 144.987 45.8229 145.208 44.5069 145.463C43.1895 145.727 41.9042 146.073 40.4549 145.86L40.3442 145.451Z" fill="#528979"/>
<path d="M96.5775 197.837C97.3655 197.113 98.2789 197.008 99.1762 196.86C100.075 196.723 100.977 196.595 101.884 196.499C103.697 196.32 105.524 196.268 107.344 196.347C109.164 196.413 110.984 196.537 112.779 196.837C114.576 197.1 116.348 197.544 118.064 198.145L117.976 198.56L112.631 198.168C110.859 198.072 109.091 197.972 107.322 197.988C105.552 198.015 103.787 198.083 102.023 198.199C101.14 198.255 100.258 198.317 99.3775 198.404C98.4948 198.497 97.6335 198.667 96.6535 198.255L96.5775 197.837Z" fill="#528979"/>
<path d="M102.551 203.488C103.301 203.728 103.504 204.201 103.78 204.652C104.059 205.1 104.353 205.535 104.651 205.967C105.239 206.835 105.86 207.679 106.511 208.503C107.815 210.159 109.318 211.616 110.807 213.233L110.567 213.581C108.477 212.735 106.736 211.244 105.233 209.587C104.477 208.753 103.803 207.848 103.217 206.889C102.931 206.404 102.671 205.907 102.417 205.407C102.173 204.904 101.881 204.411 102.167 203.668L102.551 203.488Z" fill="#528979"/>
<path d="M133.94 129.191C132.66 123.836 131.379 118.481 130.099 113.127C131.524 122.451 139.172 129.867 147.815 133.643C156.458 137.419 166.068 138.184 175.472 138.903C170.11 135.087 166.223 129.247 164.772 122.827C168.582 128.296 172.828 134.103 179.164 136.172C186.81 138.669 194.96 134.973 202.151 131.367C193.119 126.309 186.075 117.8 182.794 107.981C187.678 108.969 191.505 112.707 194.673 116.553C197.84 120.399 200.76 124.625 204.979 127.276C209.197 129.925 215.247 130.509 218.845 127.065C215.559 125.123 212.271 123.18 208.982 121.237C217.687 126.38 227.159 122.189 233.489 115.791C234.812 114.453 236.208 112.969 236.426 111.101C236.628 109.353 235.767 107.439 236.614 105.895C237.71 103.893 240.608 104.145 242.734 103.312C248.004 101.247 247.44 93.2254 251.488 89.2667C252.166 88.604 253.022 87.9667 253.131 87.0267C253.208 86.3614 252.88 85.7253 252.563 85.1373C249.667 79.7893 246.772 74.4414 243.876 69.0934C241.73 65.1267 239.271 60.872 235.091 59.172C229.541 56.9147 223.391 60.02 218.215 63.036C221.688 59.9267 225.661 57.376 229.934 55.512C228.392 51.216 223.217 49.6853 218.751 48.7427C214.536 47.8533 210.323 46.964 206.11 46.0747C204.826 45.804 203.488 45.5334 202.217 45.8587C198.385 46.836 194.884 50.2387 191.97 52.7601C193.411 50.7001 194.853 48.6414 196.295 46.5827C197.223 45.2587 198.196 43.72 197.844 42.1427C197.526 40.7293 196.222 39.76 194.91 39.1453C192.056 37.808 188.835 37.5454 185.691 37.3054C183.288 37.12 180.888 36.9361 178.485 36.7521C177.563 36.6814 176.614 36.6134 175.733 36.8947C174.959 37.14 174.295 37.6374 173.657 38.1387C171.307 39.984 169.088 41.996 167.023 44.156C168.057 40.736 170.031 37.6041 172.672 35.1961C172.938 34.9534 173.227 34.6894 173.285 34.3347C173.415 33.5521 172.431 33.1067 171.651 32.9627C165.136 31.7667 158.293 32.1094 152.056 34.3347C149.853 35.1201 147.74 36.1307 145.632 37.1414C140.778 39.464 136.028 41.992 131.092 44.1453C125.929 46.3973 120.543 48.5027 116.463 52.536C111.031 57.908 107.736 64.964 102.07 70.1733C99.5615 72.4787 96.1256 73.2227 93.8122 75.5881C90.7656 78.7001 95.2482 86.248 96.5989 89.6147C98.9015 95.3587 101.947 100.804 105.602 105.799C112.91 115.784 122.691 123.995 133.94 129.191Z" fill="#2C6F5D"/>
<path d="M93.5096 77.0227C99.2909 80.6574 105.291 83.3468 111.783 85.2774C118.242 87.1694 125.006 88.4414 131.694 89.8841C138.39 91.3054 145.099 92.6348 151.83 93.8015C158.552 95.0121 165.299 96.0668 172.071 96.8774C185.61 98.5228 199.279 99.0814 212.859 98.2521C219.63 97.7801 226.329 96.7641 232.74 94.5947C239.156 92.4334 245.299 89.4121 251.229 86.0015L251.678 86.7188C245.979 90.5694 239.928 94.0108 233.415 96.4801C230.172 97.7308 226.803 98.7147 223.394 99.4427C219.978 100.151 216.524 100.597 213.075 100.92C199.286 102.169 185.408 101.639 171.7 100.139C164.842 99.3894 158.015 98.4001 151.227 97.2427C144.444 96.0387 137.699 94.6734 130.979 93.2201C124.28 91.6947 117.56 90.3134 110.874 88.2548C107.546 87.2188 104.234 85.9814 101.122 84.3028C98.0269 82.6068 95.1482 80.4001 92.9415 77.6507L93.5096 77.0227Z" fill="#528979"/>
<path d="M186.74 99.3894C187.827 100.085 188.407 101.047 189.084 101.968C189.771 102.877 190.494 103.756 191.238 104.615C192.732 106.329 194.341 107.941 196.051 109.444C197.768 110.94 199.627 112.265 201.547 113.507C203.486 114.715 205.483 115.845 207.566 116.872L207.417 117.269C205.148 116.676 202.938 115.8 200.87 114.661C198.782 113.555 196.833 112.192 194.995 110.701C193.147 109.219 191.451 107.545 189.938 105.72C189.191 104.799 188.488 103.845 187.815 102.869C187.496 102.372 187.159 101.884 186.882 101.36C186.632 100.819 186.43 100.248 186.375 99.6027L186.74 99.3894Z" fill="#528979"/>
<path d="M151.535 95.3667C152.267 95.9747 152.416 96.6947 152.647 97.4081C152.884 98.1147 153.143 98.8134 153.41 99.5094C153.938 100.9 154.52 102.269 155.158 103.617C156.431 106.317 158.022 108.835 159.622 111.443L159.3 111.719C156.928 109.705 155.123 107.109 153.66 104.369C152.927 102.995 152.307 101.56 151.804 100.085C151.563 99.3454 151.351 98.596 151.154 97.8427C150.964 97.0907 150.734 96.3361 151.122 95.4601L151.535 95.3667Z" fill="#528979"/>
<path d="M117.228 89.4628C118.099 90.3281 118.398 91.3588 118.772 92.3721C119.151 93.3814 119.55 94.3827 119.954 95.3814C120.755 97.3814 121.594 99.3641 122.462 101.339C123.342 103.307 124.316 105.231 125.282 107.163L128.252 112.952L127.899 113.184C126.507 111.491 125.234 109.697 124.112 107.816C122.955 105.952 121.946 104.003 120.976 102.036C119.996 100.072 119.124 98.0548 118.362 95.9961C117.987 94.9641 117.639 93.9241 117.3 92.8801C116.97 91.8361 116.595 90.7988 116.822 89.5881L117.228 89.4628Z" fill="#528979"/>
<path d="M168.842 94.1187C169.074 93.2494 169.453 92.4574 169.877 91.6974C170.344 90.9654 170.868 90.2747 171.376 89.5694L173.011 87.5427L174.748 85.6014C177.143 83.0827 179.813 80.828 182.695 78.8893C185.567 76.9427 188.616 75.2467 191.831 73.9507C195.027 72.6213 198.392 71.7 201.799 71.2173L201.887 71.6321C198.606 72.5707 195.433 73.768 192.367 75.1787C189.316 76.62 186.374 78.2827 183.631 80.2373C180.899 82.2 178.332 84.3907 175.975 86.7867L174.24 88.6187L172.598 90.5347C172.08 91.1974 171.58 91.8747 171.023 92.5107C170.495 93.1694 169.92 93.796 169.199 94.3453L168.842 94.1187Z" fill="#528979"/>
<path d="M135.828 88.9801C136.233 87.5641 137.147 86.5361 138.027 85.4961C138.919 84.4627 139.825 83.4414 140.763 82.4467C142.651 80.4707 144.66 78.6107 146.78 76.8867C148.891 75.1547 151.067 73.4987 153.364 72.0267C155.64 70.5254 158.04 69.2121 160.521 68.0934L160.729 68.464C158.488 69.9867 156.296 71.5454 154.127 73.1267C151.98 74.7387 149.859 76.3787 147.84 78.14C145.828 79.9107 143.875 81.7414 141.984 83.6374C141.039 84.5854 140.104 85.5454 139.192 86.528C138.287 87.52 137.455 88.56 136.159 89.2454L135.828 88.9801Z" fill="#528979"/>
<path d="M212.152 97.9961C212.359 96.9481 213.034 96.3214 213.67 95.6747C214.314 95.0307 214.965 94.3947 215.64 93.7814C216.999 92.564 218.44 91.4427 219.955 90.4307C221.462 89.4094 223.004 88.4334 224.628 87.6147C226.233 86.7627 227.927 86.0747 229.666 85.5454L229.84 85.9307L225.296 88.7747C223.809 89.7454 222.325 90.7094 220.905 91.7681C219.496 92.8361 218.112 93.9347 216.757 95.0694C216.079 95.6374 215.404 96.2081 214.744 96.8001C214.087 97.3961 213.494 98.0414 212.459 98.2881L212.152 97.9961Z" fill="#528979"/>
<path d="M220.31 99.0254C221.058 98.7734 221.5 99.036 221.989 99.2374C222.479 99.4334 222.973 99.6094 223.468 99.7814C224.456 100.135 225.456 100.448 226.468 100.729C228.499 101.293 230.571 101.581 232.729 102.005L232.74 102.428C230.556 102.98 228.271 102.807 226.076 102.359C224.976 102.132 223.897 101.801 222.856 101.375C222.341 101.152 221.836 100.905 221.336 100.651C220.843 100.391 220.315 100.164 220.107 99.3974L220.31 99.0254Z" fill="#528979"/>
<path d="M100.303 79.0227C100.983 77.8761 102.016 77.2454 103.019 76.5774C104.026 75.9134 105.038 75.2547 106.063 74.6174C108.12 73.3547 110.231 72.1788 112.388 71.0961C114.54 70.0054 116.707 68.9427 118.936 68.0201C121.15 67.0641 123.427 66.2521 125.744 65.5761L125.902 65.9694C123.767 67.0801 121.639 68.1734 119.5 69.2348C117.376 70.3294 115.244 71.3974 113.155 72.5481C111.071 73.7081 108.999 74.8841 106.938 76.0814L103.851 77.8921C102.831 78.5107 101.855 79.1894 100.539 79.3748L100.303 79.0227Z" fill="#528979"/>
<path d="M103.249 36.1867C106.597 37.0894 110.028 38.0308 112.835 40.0681C114.999 41.6387 116.691 43.7934 118.876 45.3361C127.319 51.2934 141.611 47.4081 147.037 56.2001C148.877 59.1814 149.06 62.9227 150.692 66.0227C155.752 75.6294 170.049 73.6974 179.697 78.676C186.352 82.112 190.799 89.448 190.765 96.9373C190.74 102.329 188.593 107.696 189.555 113.001C190.993 120.943 198.635 125.9 204.179 131.765C215.333 143.568 218.646 160.537 221.48 176.527C222.539 182.493 223.599 188.609 222.532 194.575C221.4 200.911 217.965 206.561 215.673 212.575C212.375 221.221 211.455 230.761 213.04 239.88C213.444 242.196 215.709 253.843 211.323 254.184C209.797 254.303 208.665 252.891 207.584 251.808C204.577 248.793 200.235 247.656 196.391 245.827C187.375 241.539 190.82 233.047 184.773 227.417C182.867 225.643 180.203 225.003 177.688 224.321C156.351 218.543 137.207 205.003 124.652 186.809C121.835 182.727 119.179 178.263 114.916 175.728C109.8 172.685 103.241 172.967 98.0775 170.008C90.3188 165.565 88.2068 155.84 82.3241 149.653C77.1135 144.173 69.8441 138.108 62.9015 135.027C57.8495 132.784 52.2001 131.545 47.9841 127.971C41.8508 122.772 40.3281 114.109 36.9868 106.796C29.9854 91.4668 12.7708 82.56 6.57082 67.1974C0.988156 53.364 -2.81984 32.0254 2.67349 17.7147C4.56682 12.7774 9.84544 8.70404 14.9588 10.0507C18.2028 10.9054 20.5628 13.6187 23.3762 15.4441C32.7748 21.5481 47.7068 20.5121 58.4855 23.9321C73.2028 28.6028 88.3415 32.164 103.249 36.1867Z" fill="#4A9D49"/>
<path d="M9.97756 9.55612C19.0309 19.3281 29.8069 26.9748 41.3895 33.4174C52.9735 39.8615 65.2443 45.1428 77.1709 51.3242C80.1469 52.8802 83.1189 54.4601 85.9949 56.2162L90.3442 58.7855C91.0642 59.2202 91.8029 59.6255 92.5096 60.0855L94.6069 61.4921L98.8016 64.3041C100.2 65.2414 101.616 66.1575 102.938 67.2001C105.614 69.2428 108.347 71.2135 110.974 73.3174C121.471 81.7628 131.014 91.3361 139.75 101.548C157.18 122.032 171.231 145.265 181.839 169.897C187.156 182.213 191.504 194.933 195.354 207.721C199.31 220.477 202.999 233.301 208.026 245.653L207.246 245.985C201.819 233.743 197.607 221.007 193.447 208.329C191.338 202 189.252 195.667 186.866 189.457C185.659 186.36 184.548 183.224 183.274 180.153L179.385 170.971C168.511 146.725 154.58 123.792 137.26 103.687C119.996 83.5574 99.1202 66.5521 75.6509 54.2361C63.8989 48.0655 51.6202 42.7081 39.8856 36.1055C34.0282 32.8028 28.2736 29.2188 23.0069 24.9508C17.7443 20.6974 12.9976 15.7281 9.30823 10.0761L9.97756 9.55612Z" fill="#9BD86E"/>
<path d="M65.5295 435.34C72.4589 422.847 81.5028 411.697 91.1335 401.204C100.766 390.691 111.12 380.832 122.111 371.736C133.102 362.641 144.732 354.308 156.91 346.856C169.128 339.472 181.892 332.987 195.073 327.505C221.44 316.556 249.483 309.617 277.912 307.307L288.583 306.628L299.27 306.373L309.954 306.595L320.616 307.241C334.814 308.348 348.887 310.793 362.638 314.337L362.391 315.376C348.571 312.347 334.519 310.579 320.444 309.757L309.876 309.385L299.305 309.435L288.747 309.845L278.216 310.665C250.192 313.448 222.579 320.341 196.673 331.317C183.72 336.799 171.191 343.276 159.194 350.613C147.152 357.881 135.636 366.027 124.739 374.933C113.843 383.84 103.563 393.509 93.9868 403.833C84.4082 414.179 75.6669 425.179 66.4055 435.949L65.5295 435.34Z" fill="#2A4A46"/>
<path d="M190.88 330.679C193.711 331.951 196.349 333.455 199.019 334.956C201.579 336.564 204.153 338.187 206.628 339.927C209.072 341.695 211.455 343.54 213.822 345.417C216.116 347.357 218.391 349.332 220.614 351.363C222.792 353.429 224.926 355.547 227.032 357.695C229.06 359.905 231.045 362.157 232.968 364.46C234.825 366.815 236.638 369.203 238.415 371.619L243.526 379.019L248.391 386.583C249.943 389.148 251.467 391.729 252.929 394.345C254.339 396.993 255.686 399.675 256.959 402.391C257.582 403.757 258.163 405.144 258.736 406.532C259.323 407.915 259.893 409.303 260.435 410.704C261.476 413.528 262.49 416.357 263.414 419.217C264.291 422.1 265.074 425.016 265.81 427.937C266.486 430.885 267.02 433.881 267.52 436.868C267.911 439.901 268.276 442.928 268.359 446.039C266.192 443.768 264.308 441.412 262.451 439.067C260.561 436.733 258.707 434.408 256.992 432.037C255.199 429.703 253.455 427.363 251.803 424.991C250.063 422.664 248.41 420.305 246.787 417.941C245.93 416.785 245.1 415.615 244.287 414.439C243.46 413.269 242.643 412.097 241.864 410.905C240.207 408.58 238.623 406.219 237.101 403.825C235.501 401.477 233.965 399.095 232.456 396.696L227.756 389.611L222.924 382.615C221.264 380.317 219.64 377.996 218.059 375.637C216.423 373.32 214.85 370.952 213.32 368.541C211.748 366.164 210.206 363.755 208.708 361.293C207.135 358.896 205.617 356.441 204.117 353.952C202.573 351.501 201.049 349.017 199.584 346.456C198.039 343.972 196.592 341.371 195.131 338.755C193.671 336.139 192.179 333.525 190.88 330.679Z" fill="#2A4A46"/>
<path d="M165.351 344.343C168.076 345.793 170.532 347.488 173.027 349.181C175.424 350.948 177.735 352.805 179.994 354.723C182.202 356.673 184.326 358.705 186.423 360.772C188.439 362.892 190.426 365.048 192.342 367.263C194.215 369.503 196.024 371.793 197.796 374.117C199.481 376.492 201.109 378.908 202.652 381.375C204.124 383.88 205.539 386.421 206.904 388.985L210.768 396.801L214.357 404.745C215.483 407.425 216.571 410.121 217.579 412.845C218.535 415.592 219.412 418.368 220.196 421.172C220.576 422.577 220.906 424.003 221.228 425.425C221.563 426.845 221.88 428.268 222.16 429.701C222.684 432.58 223.173 435.461 223.552 438.363C223.889 441.279 224.108 444.217 224.27 447.153C224.355 450.112 224.33 453.083 224.198 456.059C223.954 459.064 223.702 462.048 223.088 465.087C221.076 462.687 219.427 460.232 217.784 457.797C216.112 455.371 214.545 452.943 213.091 450.5C211.572 448.075 210.111 445.655 208.767 443.212C207.327 440.799 205.996 438.367 204.7 435.932C204.004 434.733 203.343 433.524 202.699 432.311C202.043 431.103 201.394 429.895 200.795 428.668C199.488 426.259 198.275 423.821 197.139 421.355C195.922 418.924 194.786 416.463 193.683 413.985L190.201 406.636L186.6 399.345C185.35 396.941 184.147 394.512 183.003 392.048C181.802 389.615 180.684 387.129 179.624 384.604C178.527 382.1 177.468 379.564 176.472 376.975C175.394 374.437 174.387 371.843 173.408 369.209C172.39 366.604 171.398 363.963 170.488 361.241C169.51 358.569 168.584 355.837 167.743 353.012C166.883 350.203 165.983 347.395 165.351 344.343Z" fill="#2A4A46"/>
<path d="M143.931 359.869C146.212 362.095 148.164 364.477 150.153 366.863C152.044 369.287 153.827 371.772 155.54 374.295C157.211 376.835 158.779 379.427 160.31 382.041C161.764 384.681 163.182 387.347 164.514 390.049C165.815 392.76 167.04 395.504 168.222 398.267C169.32 401.055 170.351 403.868 171.291 406.709C172.167 409.568 172.978 412.445 173.738 415.337L175.803 424.063L177.622 432.843C178.166 435.781 178.671 438.729 179.091 441.687C179.472 444.655 179.771 447.633 179.972 450.623C180.068 452.12 180.111 453.623 180.147 455.123C180.195 456.623 180.227 458.123 180.22 459.627C180.183 462.639 180.112 465.647 179.929 468.657C179.719 471.672 179.388 474.689 179.004 477.697C178.555 480.713 177.994 483.725 177.331 486.728C176.564 489.736 175.796 492.731 174.663 495.723C173.1 492.903 171.903 490.084 170.707 487.284C169.497 484.483 168.392 481.692 167.398 478.905C166.351 476.123 165.36 473.351 164.488 470.575C163.531 467.809 162.684 465.041 161.872 462.277C161.42 460.901 161.007 459.521 160.611 458.141C160.202 456.764 159.799 455.387 159.451 454.003C158.648 451.251 157.943 448.491 157.32 445.716C156.624 442.956 156.012 440.183 155.44 437.401L153.568 429.092L151.608 420.804C150.914 418.052 150.272 415.287 149.694 412.501C149.068 409.728 148.535 406.928 148.068 404.101C147.574 401.283 147.123 398.445 146.748 395.575C146.295 392.729 145.926 389.847 145.595 386.94C145.231 384.044 144.902 381.124 144.678 378.153C144.387 375.205 144.164 372.217 144.05 369.169C143.924 366.124 143.764 363.075 143.931 359.869Z" fill="#2A4A46"/>
<path d="M127.594 372.867C127.964 375.876 128.012 378.712 128.104 381.521C128.267 384.351 128.324 387.104 128.312 389.805C128.432 392.541 128.448 395.217 128.425 397.857C128.499 400.52 128.534 403.147 128.478 405.737C128.567 408.353 128.573 410.936 128.533 413.497C128.581 416.071 128.56 418.623 128.44 421.159C128.428 423.704 128.348 426.237 128.212 428.771L128.1 436.379L128.246 443.988C128.403 446.519 128.519 449.053 128.548 451.603C128.711 454.137 128.788 456.687 128.769 459.263C128.844 460.54 128.863 461.827 128.876 463.12C128.902 464.409 128.911 465.708 128.883 467.016C128.978 469.607 129.042 472.221 129.002 474.885C129.106 477.513 129.098 480.195 129.047 482.924C129.107 485.621 129.067 488.379 128.944 491.211C128.896 494.019 128.859 496.864 128.502 499.891C126.335 497.824 124.488 495.576 122.631 493.291C120.935 490.953 119.322 488.54 117.808 486.067C116.42 483.559 115.074 481.004 113.842 478.396C112.699 475.768 111.66 473.091 110.655 470.391C110.194 469.032 109.77 467.661 109.363 466.285C108.944 464.909 108.53 463.529 108.172 462.139C107.523 459.347 106.971 456.528 106.507 453.695C106.142 450.853 105.864 447.997 105.63 445.139L105.304 436.541L105.432 427.937C105.612 425.072 105.847 422.212 106.151 419.363C106.583 416.521 107.115 413.696 107.715 410.895C108.463 408.109 109.262 405.345 110.138 402.613C111.108 399.899 112.17 397.219 113.268 394.573C114.51 391.959 115.787 389.379 117.169 386.86C118.657 384.369 120.215 381.929 121.876 379.568C123.703 377.259 125.487 374.975 127.594 372.867Z" fill="#2A4A46"/>
<path d="M227.992 317.235C234.339 319.252 240.24 322.4 245.757 326.113C251.277 329.836 256.367 334.2 261.014 338.973C265.678 343.735 269.908 348.915 273.557 354.447C277.228 359.968 280.329 365.813 283.244 371.707C286.097 377.62 288.775 383.589 290.996 389.703C293.235 395.807 294.992 402.053 296.415 408.351C297.858 414.643 298.965 420.992 299.712 427.408C300.101 430.613 300.339 433.853 300.536 437.1C300.69 440.359 300.821 443.62 300.668 446.965C298.673 444.276 296.955 441.501 295.254 438.728C293.594 435.943 291.952 433.159 290.442 430.343C287.38 424.725 284.559 419.076 281.833 413.453C279.087 407.836 276.434 402.249 273.91 396.665C271.368 391.088 268.927 385.511 266.201 380.099C263.54 374.669 260.587 369.421 257.665 364.177C254.721 358.944 251.82 353.685 248.756 348.465C245.675 343.26 242.435 338.101 238.992 332.932C235.55 327.757 231.854 322.647 227.992 317.235Z" fill="#2A4A46"/>
<path d="M259.225 309.841C262.185 311.123 264.977 312.657 267.808 314.197C270.488 315.892 273.192 317.611 275.804 319.456C278.341 321.371 280.824 323.371 283.293 325.411C285.644 327.551 287.979 329.732 290.263 331.973C292.455 334.285 294.604 336.651 296.724 339.053C298.715 341.544 300.663 344.08 302.544 346.665C304.305 349.327 306.023 352.023 307.699 354.743L312.343 363.124L316.563 371.728C317.841 374.653 319.089 377.595 320.268 380.56C321.337 383.571 322.339 386.607 323.256 389.66C323.673 391.203 324.044 392.76 324.409 394.315C324.785 395.865 325.145 397.419 325.473 398.977C326.029 402.127 326.552 405.273 326.979 408.424C327.299 411.605 327.513 414.791 327.68 417.961C327.723 421.16 327.613 424.363 327.469 427.535C327.147 430.739 326.796 433.915 326.151 437.084C324.569 434.209 323.287 431.344 322.028 428.505C320.677 425.681 319.359 422.892 318.193 420.096C316.884 417.332 315.624 414.585 314.468 411.832C313.159 409.12 311.944 406.403 310.763 403.692C310.093 402.36 309.457 401.023 308.837 399.684C308.204 398.348 307.58 397.015 307 395.668C305.675 393.032 304.432 390.38 303.256 387.704C301.945 385.083 300.705 382.44 299.496 379.781L295.529 371.968L291.285 364.304C289.769 361.809 288.293 359.289 286.864 356.735C285.331 354.248 283.863 351.712 282.439 349.132C280.925 346.616 279.439 344.065 277.999 341.457C276.436 338.947 274.925 336.375 273.429 333.761C271.844 331.224 270.275 328.647 268.757 325.983C267.116 323.436 265.567 320.764 263.991 318.067C262.372 315.413 260.715 312.753 259.225 309.841Z" fill="#2A4A46"/>
<path d="M300.632 307.503C303.4 308.461 306.014 309.685 308.671 310.919C311.176 312.315 313.712 313.74 316.164 315.299C318.535 316.932 320.858 318.656 323.17 320.424C325.358 322.297 327.535 324.215 329.661 326.197C331.693 328.253 333.683 330.367 335.644 332.517C337.471 334.763 339.258 337.053 340.975 339.396C342.568 341.815 344.117 344.271 345.623 346.751L349.742 354.416L353.414 362.304C354.504 364.992 355.562 367.695 356.547 370.417C357.418 373.187 358.218 375.977 358.934 378.78C359.246 380.197 359.512 381.627 359.772 383.053C360.043 384.477 360.296 385.901 360.519 387.329C360.855 390.216 361.157 393.095 361.361 395.969C361.452 398.872 361.436 401.771 361.37 404.645C361.172 407.543 360.822 410.431 360.439 413.28C359.866 416.149 359.268 418.984 358.375 421.781C357.026 419.113 355.972 416.481 354.944 413.887C353.815 411.301 352.719 408.756 351.775 406.22C350.678 403.707 349.634 401.22 348.694 398.735C347.591 396.283 346.586 393.835 345.616 391.395C345.048 390.196 344.513 388.995 343.996 387.791C343.465 386.592 342.944 385.395 342.467 384.185C341.342 381.823 340.3 379.447 339.329 377.049C338.216 374.705 337.175 372.341 336.166 369.961L332.787 362.984L329.119 356.153C327.791 353.937 326.507 351.697 325.267 349.421C323.919 347.215 322.638 344.959 321.4 342.656C320.068 340.42 318.764 338.148 317.504 335.817C316.119 333.588 314.783 331.293 313.459 328.955C312.046 326.697 310.642 324.396 309.288 322.005C307.807 319.739 306.411 317.341 304.985 314.913C303.511 312.537 301.998 310.151 300.632 307.503Z" fill="#2A4A46"/>
<path d="M331.621 306.455C335.768 307.893 339.436 309.775 342.955 311.849C346.467 313.928 349.763 316.263 352.879 318.828C356.011 321.377 358.963 324.164 361.567 327.281C364.191 330.385 366.473 333.792 368.695 337.268C370.868 340.788 372.969 344.392 374.635 348.239C376.316 352.075 377.527 356.152 378.276 360.332C379.044 364.503 379.346 368.789 379.014 373.056C378.652 377.319 377.768 381.564 375.8 385.529L363.772 365.652C361.864 362.595 359.963 359.605 358.168 356.561C356.356 353.528 354.619 350.439 352.659 347.453C350.747 344.42 348.619 341.5 346.632 338.425C344.625 335.365 342.772 332.123 340.968 328.752C339.149 325.395 337.384 321.913 335.776 318.232C334.173 314.547 332.659 310.721 331.621 306.455Z" fill="#2A4A46"/>
<path d="M356.707 312.087C358.385 312.632 359.974 313.335 361.587 314.041C363.123 314.836 364.653 315.671 366.156 316.561C367.619 317.492 369.023 318.504 370.464 319.5C371.82 320.577 373.168 321.68 374.487 322.823C375.756 324.007 377.001 325.224 378.229 326.465C379.387 327.761 380.517 329.085 381.612 330.441C382.639 331.844 383.64 333.268 384.617 334.708L387.332 339.167L389.807 343.761C390.561 345.331 391.295 346.908 391.988 348.501C392.62 350.124 393.211 351.761 393.752 353.412C394.233 355.087 394.669 356.773 395.067 358.461C396.527 365.249 397.001 372.296 395.511 379.221C392.055 373.068 389.281 367.232 386.329 361.552C385.553 360.149 384.815 358.745 384.121 357.331C383.345 355.947 382.622 354.552 381.938 353.141C381.176 351.765 380.455 350.375 379.755 348.973L377.464 344.871L375.02 340.857C374.151 339.556 373.304 338.239 372.484 336.899C371.608 335.6 370.768 334.271 369.955 332.912C369.091 331.592 368.243 330.251 367.422 328.873C366.532 327.555 365.671 326.199 364.817 324.816C363.936 323.457 363.019 322.117 362.16 320.695C361.232 319.344 360.329 317.939 359.435 316.492C358.511 315.079 357.564 313.661 356.707 312.087Z" fill="#2A4A46"/>
<path d="M367.136 311.965C368.311 311.589 369.483 311.396 370.682 311.197C371.854 311.097 373.041 311.04 374.233 311.048C375.408 311.089 376.577 311.219 377.757 311.363C378.905 311.579 380.062 311.824 381.206 312.119C382.328 312.457 383.441 312.84 384.551 313.252C385.62 313.729 386.677 314.243 387.712 314.803C388.709 315.416 389.689 316.063 390.652 316.733L393.41 318.915L396.012 321.28C396.835 322.116 397.639 322.969 398.41 323.851C399.142 324.768 399.839 325.715 400.491 326.687C401.104 327.693 401.676 328.723 402.21 329.763C404.25 333.981 405.482 338.676 404.816 343.583C400.871 340.639 397.823 337.905 394.779 335.304C393.991 334.679 393.243 334.041 392.533 333.381C391.769 332.767 391.052 332.125 390.367 331.457C389.631 330.836 388.934 330.187 388.248 329.521L386.083 327.647L383.839 325.869C383.062 325.317 382.299 324.743 381.556 324.135C380.783 323.575 380.031 322.971 379.292 322.329C378.531 321.728 377.773 321.1 377.024 320.428C376.243 319.823 375.469 319.169 374.691 318.485C373.893 317.847 373.084 317.196 372.284 316.456C371.452 315.804 370.619 315.087 369.768 314.328C368.908 313.599 368.02 312.873 367.136 311.965Z" fill="#2A4A46"/>
<path d="M113.271 376.807C109.678 374.891 106.502 372.695 103.403 370.944C100.339 369.207 97.2935 367.795 94.1282 366.408C90.9749 365.048 87.6869 363.703 84.4496 362.157C81.2202 360.649 78.0882 358.971 74.8642 357.497C71.6642 355.977 68.4122 354.591 65.1869 353.145C61.9549 351.719 58.7696 350.149 55.5469 348.565C52.3149 347.011 49.0655 345.397 45.7562 343.684C42.4442 341.968 39.0709 340.232 35.6002 338.059C43.3722 335.635 51.3763 335.639 59.1096 336.731C62.9843 337.28 66.7976 338.16 70.4909 339.371C74.1896 340.572 77.7403 342.136 81.2709 343.716C84.7803 345.344 88.2456 347.052 91.5442 349.047C94.8269 351.023 97.9936 353.339 101.011 356.089C104.011 358.803 106.834 361.993 108.919 365.593C110.984 369.168 112.344 372.853 113.271 376.807Z" fill="#2A4A46"/>
<path d="M126.305 368.076C123.388 367.189 120.868 365.815 118.523 364.236C116.177 362.653 114.068 360.813 112.171 358.795C110.255 356.787 108.54 354.6 107.159 352.228C105.768 349.857 104.703 347.321 103.669 344.783C102.673 342.201 101.747 339.695 101.089 336.913C100.427 334.107 100.081 330.859 100.576 327.428C100.837 325.695 101.269 324.032 102.048 322.313C102.821 320.635 103.9 319.172 105.169 317.963C106.44 316.752 107.995 315.848 109.603 315.335C111.232 314.853 112.953 314.805 114.391 315.409C112.296 317.701 111.929 319.96 111.86 321.931C111.824 323.967 112.339 325.401 112.932 327.117C113.567 328.787 114.385 330.545 115.207 332.601C116.063 334.68 116.855 336.972 117.768 339.111C118.639 341.292 119.651 343.408 120.513 345.604C121.404 347.789 122.132 350.072 122.821 352.44C123.521 354.8 124.192 357.229 124.796 359.797C125.396 362.373 125.975 365.041 126.305 368.076Z" fill="#2A4A46"/>
<path d="M144.25 357.704C141.112 355.841 138.524 353.309 136.322 350.471C134.119 347.625 132.355 344.431 131.034 341.043C129.694 337.66 128.793 334.068 128.492 330.409C128.169 326.749 128.424 323.051 128.942 319.399L129.042 318.713L129.095 318.363L129.178 317.901C129.299 317.275 129.458 316.592 129.7 315.833C129.947 315.075 130.271 314.232 130.807 313.28C131.344 312.339 132.122 311.249 133.327 310.248C134.526 309.244 136.126 308.448 137.739 308.151C139.376 307.819 141.138 307.969 142.494 308.387C145.244 309.257 146.607 310.609 147.646 311.66C148.16 312.209 148.595 312.731 148.963 313.249L149.226 313.628L149.406 313.917L149.767 314.496C150.266 315.253 150.685 316.061 151.12 316.856C151.955 318.465 152.703 320.116 153.312 321.816C155.79 328.563 156.708 335.928 154.72 342.957C150.159 337.311 146.467 332.421 142.566 327.919L139.643 324.637L138.186 323.045L137.827 322.649L137.647 322.451L137.536 322.351C137.4 322.239 137.299 322.151 137.242 322.129C137.144 322.047 137.178 322.38 138.37 322.791C138.951 322.984 139.883 323.081 140.728 322.912C141.547 322.771 142.4 322.341 142.98 321.855C144.135 320.823 144.122 320.315 144.152 320.376L144.1 320.663L143.984 321.564C143.579 324.313 143.492 327.097 143.391 329.9C143.308 332.704 143.19 335.555 143.174 338.501C143.175 341.444 143.276 344.465 143.46 347.629C143.647 350.801 143.972 354.072 144.25 357.704Z" fill="#2A4A46"/>
<path d="M161.872 345.001C160.207 341.447 159.062 337.895 158.076 334.343C157.096 330.791 156.35 327.241 155.763 323.691C155.46 321.916 155.212 320.141 154.995 318.367C154.803 316.635 154.611 314.611 154.791 312.208C154.983 309.841 155.576 306.951 157.223 304.156C158.15 302.583 159.418 301.167 160.779 300.095C162.158 299.005 163.7 298.147 165.487 297.564C167.267 296.999 169.343 296.711 171.614 297.067C172.734 297.232 173.902 297.597 174.99 298.123C176.067 298.647 177.112 299.363 177.888 300.087C179.495 301.568 180.301 302.989 180.879 303.996L181.564 305.284L182.157 306.477C183.74 309.656 185.111 312.956 186.342 316.335C188.792 323.097 190.838 330.089 191.416 337.908C185.024 333.369 180.098 328.003 175.576 322.408C173.32 319.608 171.204 316.729 169.301 313.729L167.956 311.581C167.635 311.065 167.456 310.983 167.743 311.268C168.023 311.58 168.806 311.984 169.288 312.036C169.804 312.119 170.072 312.045 170.167 312.023L170.219 312.005L170.285 311.921C170.109 312.187 169.817 312.816 169.596 313.959C169.36 315.084 169.191 316.616 168.982 318.428C168.748 320.201 168.484 321.973 168.167 323.745C167.55 327.289 166.772 330.833 165.76 334.376C164.744 337.92 163.568 341.461 161.872 345.001Z" fill="#2A4A46"/>
<path d="M192.629 328.948C190.725 325.267 189.705 321.225 189.267 317.096C188.832 312.961 189.048 308.727 189.852 304.564C190.241 302.523 190.788 300.335 191.811 298.007C192.844 295.712 194.423 293.193 196.968 291.111C198.168 290.14 199.832 289.06 201.745 288.467C203.644 287.877 206.016 287.484 208.815 288.235C210.178 288.599 211.624 289.324 212.743 290.219C213.86 291.1 214.628 292.028 215.187 292.804C216.319 294.427 216.602 295.203 217.175 296.283C219.208 300.412 220.52 304.579 221.329 308.579C222.148 312.584 222.442 316.44 222.654 320.141C222.886 323.844 223.008 327.391 223.356 330.936C223.697 334.5 224.328 338.033 225.664 341.983C221.779 340.424 218.559 337.279 216.127 333.809C213.687 330.311 211.981 326.481 210.584 322.799C209.171 319.108 208.051 315.523 207.016 312.189C205.972 308.859 204.987 305.763 203.607 303.131C203.315 302.531 202.819 301.569 202.833 301.656C202.833 301.656 202.98 301.872 203.352 302.168C203.731 302.473 204.314 302.767 204.764 302.881C205.728 303.128 206.138 302.929 206.238 302.899C206.332 302.852 206.346 302.757 206.047 302.935C205.579 303.161 204.846 303.747 204.06 304.757C203.252 305.745 202.431 307.103 201.57 308.631C199.9 311.623 198.348 314.784 196.88 318.147C195.406 321.516 194.084 325.073 192.629 328.948Z" fill="#2A4A46"/>
<path d="M224.628 316.381C223.28 312.221 222.673 307.959 222.455 303.679C222.237 299.395 222.497 295.097 223.132 290.851C223.305 289.765 223.443 288.78 223.693 287.616C223.973 286.413 224.309 285.179 224.792 283.908C225.804 281.428 227.208 278.541 230.633 276.021C232.336 274.812 234.645 273.859 236.949 273.668C239.233 273.436 241.711 273.868 243.685 274.788C245.677 275.693 247.183 276.905 248.371 278.088C249.56 279.283 250.464 280.484 251.237 281.661C252.004 282.844 252.628 284.011 253.179 285.165L253.893 286.733L254.543 288.24C255.387 290.257 256.139 292.313 256.769 294.405C258.053 298.584 258.808 302.915 259.113 307.257C259.425 311.619 259.189 315.311 259.539 318.823C259.907 322.259 260.748 325.865 263.787 329.041C261.56 329.131 259.26 328.229 257.292 326.888C255.333 325.521 253.629 323.732 252.311 321.7C249.667 317.681 248.345 313.297 247.012 309.773C245.667 306.213 244.26 302.748 242.849 299.316C242.136 297.601 241.421 295.896 240.673 294.204L240.103 292.941L239.543 291.763C239.215 291.101 238.864 290.496 238.525 289.989C237.889 288.941 237.128 288.428 237.417 288.631C237.557 288.712 237.984 288.776 238.259 288.725C238.549 288.696 238.909 288.476 238.944 288.399C239.012 288.173 238.135 288.807 237.413 289.937C237.031 290.491 236.629 291.137 236.265 291.847L235.019 294.392L230.008 305.092C228.308 308.747 226.631 312.496 224.628 316.381Z" fill="#2A4A46"/>
<path d="M262.288 308.712C260.832 305.276 260.927 300.709 263.664 296.917C265.055 295.005 267.047 293.54 269.399 292.647C271.739 291.787 274.624 291.607 277.359 292.563C280.038 293.487 282.024 295.123 283.58 296.624C285.09 298.136 286.359 299.673 287.507 301.309C289.792 304.563 291.43 307.963 293.023 311.124C294.572 314.325 296.111 317.208 297.731 320.223C299.343 323.216 300.932 326.267 302.529 329.372C305.72 335.581 309.035 341.935 311.385 349.085C305.081 344.997 299.746 340.099 294.892 334.623C292.471 331.881 290.207 328.975 288.204 325.863C286.194 322.784 284.427 319.384 282.832 316.228C281.251 313.051 279.708 310.095 278.127 307.395C277.346 306.055 276.511 304.728 275.703 303.553C274.924 302.408 274.224 301.588 273.634 301.085C273.108 300.619 272.275 300.233 271.174 300.196C270.074 300.116 268.843 300.421 267.71 301.001C265.368 302.256 263.318 305.117 262.288 308.712Z" fill="#2A4A46"/>
<path d="M299.434 303.815C298.627 302.423 298.105 300.877 297.884 299.163C297.693 297.465 297.851 295.509 298.901 293.592C299.884 291.653 301.979 290.047 304.191 289.399C306.411 288.728 308.687 288.764 310.832 289.329C315.232 290.555 318.173 293.475 320.245 295.977C322.297 298.497 323.966 301.195 325.527 303.861C327.048 306.549 328.46 309.197 329.71 311.861C330.963 314.528 332.016 317.196 333.055 319.843C335.134 325.185 337.129 330.203 339.923 335.941C333.787 333.996 328.825 329.335 325.052 324.519C321.119 319.685 318.466 314.401 315.667 309.58C314.274 307.171 312.767 304.917 311.323 302.715C309.897 300.571 308.69 298.959 307.544 298.032C306.946 297.569 306.207 297.208 305.527 297.037C304.843 296.86 304.207 296.799 303.384 297.192C302.595 297.577 301.742 298.488 301.104 299.681C300.407 300.869 299.934 302.289 299.434 303.815Z" fill="#2A4A46"/>
<path d="M335.082 305.875C334.162 305.239 333.189 304.368 332.944 302.809C332.847 302.435 332.891 302.033 332.944 301.609C332.972 301.399 333.005 301.18 333.051 300.967C333.12 300.771 333.196 300.569 333.284 300.368C333.457 299.957 333.679 299.56 333.939 299.256C334.189 298.943 334.484 298.555 334.765 298.324C335.959 297.179 337.245 296.621 338.537 296.149C339.84 295.699 341.128 295.504 342.489 295.444C343.852 295.405 345.248 295.519 346.961 296.145L347.624 296.436L347.951 296.591L348.172 296.715C348.465 296.884 348.768 297.048 349.057 297.232C349.621 297.607 350.257 297.953 350.723 298.397C352.86 300.091 354.187 302.136 355.433 304.035C356.6 305.973 357.54 307.791 358.315 309.608C359.068 311.372 359.615 313.136 360.111 314.785C360.637 316.401 361.084 317.967 361.721 319.512C362.375 321.035 363.313 322.549 364.949 324.275C362.804 325.131 360.204 324.908 357.903 323.916C355.618 322.904 353.777 321.301 352.229 319.664C350.697 318.015 349.483 316.331 348.463 314.657C347.459 313.04 346.638 311.408 345.759 310.063C344.899 308.733 344.015 307.543 343.22 306.687C343.032 306.409 342.824 306.259 342.627 306.039L342.345 305.693L342.277 305.603L342.282 305.588L342.3 305.541C342.269 305.341 341.772 304.955 341.219 304.659C340.1 304.047 338.64 303.588 337.632 303.307L337.276 303.207C337.121 303.168 337.052 303.157 336.939 303.139L336.726 303.112L336.557 303.14C336.433 303.165 336.252 303.203 336.165 303.321C335.537 303.707 335.327 304.731 335.082 305.875Z" fill="#2A4A46"/>
<path d="M571.536 299.124C571.323 295.865 570.296 292.783 567.736 290.62C565.75 288.955 563.31 287.953 560.856 287.139C549.043 283.217 536.203 282.868 523.95 281.449C521.963 281.219 519.403 280.603 516.883 280.317C516.256 276.18 512.91 272.553 508.83 271.385C504.216 270.067 499.056 271.64 495.51 274.867C493.843 276.38 492.456 278.243 490.896 279.856C486.923 280.152 482.95 280.521 479.15 279.496C478.736 279.387 478.323 279.251 478.016 278.959L477.803 278.675C477.496 278.212 477.43 277.612 477.39 277.048C476.963 269.139 478.243 261.141 481.096 253.753C483.136 248.471 485.976 243.485 487.483 238.028C488.123 235.723 488.51 233.361 488.83 230.989C488.523 230.257 488.23 229.515 487.95 228.771C487.576 227.8 487.216 226.824 486.883 225.84C487.483 227.58 488.123 229.303 488.83 230.989C490.603 235.205 492.79 239.188 495.83 242.593C496.896 243.793 498.136 244.951 499.683 245.38C501.843 245.976 504.216 244.992 505.723 243.347C507.23 241.703 508.003 239.501 508.416 237.305C509.71 230.344 507.376 223.837 503.99 217.845C503.136 216.339 502.203 214.845 501.763 213.171C501.376 211.711 501.39 210.181 501.39 208.672C501.456 201.119 502.483 192.753 500.256 185.437C500.096 184.932 499.923 184.421 499.603 183.999C499.296 183.575 498.803 183.247 498.283 183.244C497.643 183.24 497.083 183.703 496.79 184.259C496.576 184.655 496.483 185.097 496.416 185.544L496.35 185.533C495.67 185.533 495.256 186.293 495.083 186.96C494.75 188.259 494.896 189.412 494.896 190.732C494.883 191.151 494.723 191.724 494.31 191.663C493.976 191.615 493.87 191.195 493.91 190.867C494.136 188.328 493.603 185.349 493.336 182.813C493.27 182.136 493.136 181.467 493.043 180.793C493.056 178.6 492.936 176.413 492.603 174.239C491.67 167.981 488.856 161.747 483.75 158.011C479.95 155.237 475.31 154.088 470.63 153.301C473.19 150.491 473.523 145.181 474.87 141.779C475.43 140.348 476.27 139.029 476.776 137.579C477.536 135.433 477.563 133.111 477.563 130.837C477.563 125.141 478.75 116.285 477.056 109.756C478.923 106.192 479.99 102.356 478.403 98.8188C476.536 94.6601 471.79 92.8254 467.83 90.5801C460.643 86.5148 454.056 79.7401 445.816 80.2348C443.403 80.3788 441.096 81.1721 438.896 82.2014C438.083 82.2721 437.283 82.3814 436.483 82.5787C434.136 83.1641 431.963 84.3001 429.816 85.4254C423.443 88.7614 411.776 91.9214 411.99 100.884C412.03 103.067 412.923 105.129 413.43 107.252C413.936 109.375 414.003 111.819 412.643 113.521C409.23 117.779 401.759 110.107 397.894 109.843C391.132 109.38 386.052 115.643 382.244 121.248C380.994 123.088 379.743 124.929 378.494 126.771C376.619 129.529 374.686 133.063 376.284 135.991C378.462 139.979 385.818 139.915 386.339 144.428C386.83 148.68 380.9 149.972 377.175 152.075C370.747 155.703 370.459 166.532 376.686 170.496C377.636 171.101 378.715 171.584 379.398 172.481C380.495 173.925 380.236 175.933 380.412 177.739C380.811 181.833 383.955 185.519 387.935 186.559C393.787 188.088 395.95 183.82 400.436 181.789C402.32 180.935 404.46 180.789 406.576 180.593C405.75 182.948 405.21 185.476 404.996 188.312C404.311 197.408 405.322 206.559 407.003 215.496C409.563 229.095 414.136 243.031 420.643 255.661C420.23 257.843 419.616 259.987 418.776 262.044C417.083 266.217 414.536 270.089 413.616 274.496C413.19 276.501 413.11 278.573 412.603 280.559C412.563 280.74 412.496 280.916 412.443 281.095C411.603 283.917 409.976 286.448 408.643 289.084C406.814 292.7 405.491 296.009 404.955 300.121C404.392 304.447 404.56 308.857 405.299 313.152C406.574 320.552 409.483 327.587 413.016 334.212C419.936 347.172 429.336 358.796 440.576 368.263C445.643 372.533 451.23 376.443 457.643 378.113C461.736 379.177 466.176 379.212 470.216 377.903C474.363 376.56 477.23 374.22 480.23 371.06C481.843 369.355 484.163 367.295 485.03 365.068C485.856 362.931 486.456 360.453 486.976 358.208C488.216 352.871 488.496 347.373 488.95 341.929C489.403 336.545 490.15 331.065 491.75 325.891C504.723 325.352 517.683 324.483 530.603 323.241C540.15 322.325 549.71 320.484 558.67 316.913C562.51 315.383 566.31 313.121 568.95 309.877C571.376 306.901 571.79 302.827 571.536 299.124Z" fill="#B16561"/>
<path d="M471.149 157.103C473.523 158.463 475.309 160.607 476.963 162.772C479.229 165.737 481.349 168.911 482.629 172.396L482.669 172.291C482.789 172.057 482.949 171.793 483.216 171.773C483.656 171.739 483.789 172.341 483.776 172.777C483.683 175.005 483.576 177.233 483.483 179.46C484.069 177.497 484.363 175.448 484.349 173.401C484.336 172.695 484.309 171.965 484.563 171.311C484.829 170.655 485.483 170.095 486.176 170.209C486.829 170.316 487.216 171.069 487.443 172.103C487.683 171.511 487.923 170.924 488.203 170.356C488.336 170.097 488.509 169.812 488.803 169.783C489.136 169.749 489.376 170.073 489.523 170.371C489.963 171.263 490.149 172.244 490.283 173.237C490.523 173.145 490.789 173.129 491.029 173.232C491.523 173.441 491.709 174.027 491.843 174.545C492.376 176.603 492.749 178.693 493.043 180.793C493.056 178.6 492.936 176.413 492.603 174.239C491.669 167.981 488.856 161.747 483.749 158.011C479.949 155.237 475.309 154.088 470.629 153.301C469.803 154.201 468.749 154.836 467.363 155.076C468.523 155.86 469.936 156.397 471.149 157.103Z" fill="#F47580"/>
<path d="M478.056 182.727C477.443 182.736 476.91 183.207 476.643 183.764C476.376 184.32 476.336 184.952 476.296 185.568C476.256 186.358 476.243 187.149 476.243 187.941C477.616 189.205 477.67 192.298 479.59 192.224C479.576 189.682 479.71 187.14 479.99 184.614C479.923 184.446 479.87 184.272 479.79 184.109C479.443 183.411 478.83 182.715 478.056 182.727Z" fill="#D75052"/>
<path d="M471.15 157.103C469.936 156.397 468.523 155.86 467.363 155.076C466.883 155.159 466.376 155.209 465.816 155.191C465.19 155.169 464.496 155.099 463.763 155.007C469.949 161.909 476.87 168.291 481.283 176.371C481.603 174.973 482.016 173.617 482.629 172.396C481.349 168.911 479.229 165.737 476.963 162.772C475.309 160.607 473.523 158.463 471.15 157.103Z" fill="#2B5E45"/>
<path d="M450.776 151.405C447.856 150.136 444.483 147.791 442.496 145.273C440.363 142.585 440.536 138.467 438.443 135.957C438.243 135.712 437.963 135.473 437.656 135.519C437.203 135.583 437.043 136.113 436.896 136.532C436.443 137.825 435.323 138.664 434.016 139.123C434.149 139.477 434.229 139.851 434.309 140.221C435.403 146.129 432.243 152.073 428.109 156.441C424.803 159.943 420.856 162.777 417.256 165.967C421.976 166.849 426.523 168.868 430.576 171.505C436.176 175.147 440.95 179.9 445.536 184.744C447.43 186.744 449.323 188.78 451.549 190.393C457.669 194.816 466.256 195.425 473.016 192.157C472.816 191.593 472.669 191.015 472.643 190.409C472.576 188.764 474.136 186.929 475.656 187.559C475.869 187.649 476.069 187.784 476.243 187.941C476.243 187.149 476.256 186.357 476.296 185.568C476.336 184.952 476.376 184.32 476.643 183.764C476.909 183.207 477.443 182.736 478.056 182.727C478.829 182.715 479.443 183.411 479.789 184.109C479.869 184.272 479.923 184.445 479.989 184.613C480.096 183.615 480.216 182.617 480.376 181.624C480.629 179.935 480.883 178.123 481.283 176.371C476.869 168.291 469.949 161.909 463.763 155.007C459.589 154.473 454.136 152.869 450.776 151.405Z" fill="#F47580"/>
<path d="M508.829 271.385C504.216 270.067 499.056 271.64 495.509 274.867C493.843 276.38 492.456 278.243 490.896 279.856C489.789 280.999 488.603 282.02 487.163 282.689C483.109 284.572 477.549 283.495 474.696 286.945C473.123 288.863 472.989 291.605 473.429 294.053C473.696 295.601 474.149 297.117 474.509 298.648C476.363 298.849 478.336 298.565 480.216 298.391C487.229 297.741 494.389 299.071 500.749 302.091C502.643 295.471 504.029 288.776 507.989 282.975C509.909 280.165 513.376 279.924 516.869 280.317C516.256 276.18 512.909 272.553 508.829 271.385Z" fill="#F47580"/>
<path d="M465.763 301.162C462.016 299.214 457.163 300.908 454.336 304.054C453.083 305.451 452.056 307.144 450.429 308.071C449.509 308.592 448.456 308.83 447.429 309.06C444.269 309.767 441.096 310.475 437.936 311.183C436.123 311.59 434.163 312.078 432.963 313.508C431.723 314.988 431.629 317.087 431.656 319.015C431.683 320.302 431.896 321.85 433.07 322.383C433.896 322.759 434.896 322.45 435.75 322.758C436.39 322.986 436.856 323.522 437.456 323.838C438.576 324.434 439.976 324.155 441.11 323.566C442.243 322.974 443.19 322.104 444.283 321.447C447.736 319.364 452.056 319.628 456.083 319.959C459.59 320.248 463.11 320.538 466.616 320.827C468.43 318.014 470.443 315.32 472.07 312.395C473.203 310.368 474.123 308.179 474.629 305.923C473.763 305.843 472.896 305.731 472.07 305.456C469.616 304.64 468.043 302.342 465.763 301.162Z" fill="#F47580"/>
<path d="M503.99 217.845C503.136 216.339 502.203 214.845 501.763 213.171C501.376 211.711 501.39 210.181 501.39 208.672C501.456 201.119 502.483 192.755 500.256 185.437C500.096 184.932 499.923 184.421 499.603 183.999C499.296 183.575 498.803 183.247 498.283 183.244C497.643 183.24 497.083 183.703 496.79 184.259C496.576 184.655 496.483 185.097 496.416 185.544C496.83 185.573 497.176 185.891 497.35 186.269C497.536 186.668 497.563 187.117 497.576 187.555C497.71 191.997 497.47 196.523 497.35 200.972C497.083 210.811 492.096 218.235 486.883 225.84C487.483 227.58 488.123 229.303 488.83 230.989C490.603 235.205 492.79 239.189 495.83 242.593C496.896 243.793 498.136 244.951 499.683 245.38C501.843 245.976 504.216 244.992 505.723 243.347C507.23 241.703 508.003 239.501 508.416 237.305C509.71 230.344 507.376 223.837 503.99 217.845Z" fill="#D75052"/>
<path d="M451.549 190.393C449.323 188.78 447.43 186.744 445.536 184.744C440.95 179.9 436.176 175.147 430.576 171.505C426.523 168.868 421.976 166.849 417.256 165.967C416.363 166.755 415.483 167.559 414.643 168.405C413.323 169.743 412.163 171.073 411.109 172.424C413.683 172.645 416.243 172.907 418.803 173.247C420.83 173.517 422.883 173.832 424.776 174.595C431.683 177.364 434.949 185.121 437.123 192.228C438.083 195.4 438.976 198.608 439.416 201.893C439.563 203.001 439.643 204.205 439.056 205.157C438.589 205.92 437.776 206.389 437.123 206.989C434.096 209.727 434.576 214.569 435.696 218.489C437.376 224.313 439.923 229.857 441.563 235.692C442.736 239.879 443.403 244.333 442.923 248.62C445.469 246.757 448.176 245.071 450.709 243.207C460.15 236.271 467.203 226.655 474.096 217.196C474.656 216.44 475.216 215.645 475.376 214.721C475.549 213.645 475.136 212.576 474.87 211.517C473.55 206.136 476.243 200.213 474.283 195.036C473.909 194.063 473.376 193.129 473.016 192.157C466.256 195.425 457.669 194.816 451.549 190.393Z" fill="#2B5E45"/>
<path d="M488.803 169.783C488.509 169.812 488.336 170.098 488.203 170.356C487.923 170.924 487.683 171.511 487.443 172.103C487.963 174.366 487.723 177.974 487.843 179.08C487.883 179.399 487.923 179.736 488.136 179.98C488.336 180.224 488.763 180.304 488.963 180.055C488.829 178.419 488.896 176.766 489.163 175.146C489.243 174.635 489.349 174.108 489.669 173.698C489.816 173.494 490.043 173.328 490.283 173.238C490.149 172.244 489.963 171.263 489.523 170.371C489.376 170.074 489.136 169.75 488.803 169.783Z" fill="#D75052"/>
<path d="M472.069 312.395C470.443 315.32 468.429 318.013 466.616 320.827C463.109 320.537 459.589 320.248 456.083 319.959C452.056 319.628 447.736 319.364 444.283 321.447C443.189 322.104 442.243 322.973 441.109 323.565C439.976 324.155 438.576 324.433 437.456 323.837C436.856 323.521 436.389 322.985 435.749 322.757C434.896 322.449 433.896 322.759 433.069 322.383C431.896 321.849 431.683 320.301 431.656 319.015C431.629 317.087 431.723 314.988 432.963 313.508C434.163 312.077 436.123 311.589 437.936 311.183C441.096 310.475 444.269 309.767 447.429 309.06C448.456 308.829 449.509 308.592 450.429 308.071C452.056 307.144 453.083 305.451 454.336 304.053C457.163 300.908 462.016 299.213 465.763 301.161C468.043 302.341 469.616 304.64 472.069 305.456C472.896 305.731 473.763 305.843 474.629 305.923C474.123 308.179 473.203 310.368 472.069 312.395ZM571.536 299.124C571.323 295.865 570.296 292.783 567.736 290.62C565.749 288.955 563.309 287.953 560.856 287.139C549.043 283.217 536.203 282.868 523.949 281.449C521.963 281.219 519.403 280.603 516.869 280.317C513.376 279.924 509.909 280.165 507.989 282.975C504.029 288.776 502.643 295.471 500.749 302.091C494.389 299.071 487.229 297.741 480.216 298.391C478.336 298.565 476.363 298.849 474.509 298.648C474.149 297.117 473.696 295.601 473.429 294.053C472.989 291.605 473.123 288.863 474.696 286.945C477.549 283.495 483.109 284.572 487.163 282.689C488.603 282.02 489.789 280.999 490.896 279.856C486.923 280.152 482.949 280.521 479.149 279.496C478.736 279.387 478.323 279.251 478.016 278.959L477.803 278.675C475.923 281.253 473.816 283.635 471.296 285.588C466.269 289.476 459.936 291.368 453.616 291.968C447.296 292.568 440.923 291.956 434.616 291.285C431.469 290.951 428.296 290.596 425.296 289.604C420.376 287.972 416.216 284.731 412.443 281.095C411.603 283.916 409.976 286.448 408.643 289.084C406.813 292.7 405.491 296.011 404.955 300.121C404.392 304.447 404.56 308.857 405.299 313.152C406.573 320.552 409.483 327.588 413.016 334.212C419.936 347.172 429.336 358.797 440.576 368.263C445.643 372.533 451.229 376.443 457.643 378.113C461.736 379.177 466.176 379.212 470.216 377.903C474.363 376.56 477.229 374.22 480.229 371.06C481.843 369.355 484.163 367.295 485.029 365.068C485.856 362.931 486.456 360.453 486.976 358.208C488.216 352.871 488.496 347.373 488.949 341.929C489.403 336.545 490.149 331.065 491.749 325.891C504.723 325.352 517.683 324.483 530.603 323.241C540.149 322.325 549.709 320.484 558.669 316.913C562.509 315.383 566.309 313.121 568.949 309.877C571.376 306.901 571.789 302.827 571.536 299.124Z" fill="#272626"/>
<path d="M478.403 98.8188C476.536 94.6602 471.789 92.8255 467.816 90.5802C460.643 86.5148 454.056 79.7402 445.816 80.2348C443.403 80.3802 441.096 81.1721 438.896 82.2028C438.083 82.2721 437.283 82.3815 436.483 82.5788C434.136 83.1641 431.963 84.3001 429.816 85.4255C423.443 88.7615 411.776 91.9215 411.989 100.884C412.029 103.067 412.923 105.131 413.429 107.252C413.936 109.375 414.003 111.819 412.643 113.521C409.229 117.779 401.759 110.108 397.893 109.843C391.132 109.38 386.053 115.643 382.244 121.248C380.993 123.088 379.743 124.929 378.493 126.771C376.619 129.529 374.685 133.063 376.284 135.991C378.461 139.979 385.817 139.915 386.339 144.428C386.829 148.68 380.9 149.972 377.175 152.075C370.747 155.704 370.459 166.532 376.684 170.496C377.636 171.102 378.715 171.584 379.397 172.481C380.495 173.925 380.236 175.933 380.412 177.739C380.811 181.833 383.955 185.519 387.935 186.559C393.787 188.088 395.948 183.82 400.436 181.789C402.32 180.935 404.46 180.79 406.576 180.594C407.607 177.654 409.109 174.993 411.109 172.424C412.163 171.073 413.323 169.743 414.643 168.405C415.483 167.559 416.363 166.755 417.256 165.967C420.856 162.777 424.803 159.943 428.109 156.441C432.243 152.073 435.403 146.129 434.309 140.222C434.229 139.851 434.149 139.477 434.016 139.123C433.896 138.816 433.749 138.523 433.563 138.26C432.976 137.476 432.043 137.056 431.203 136.549C430.043 135.843 429.043 134.888 428.229 133.802C426.416 131.423 425.523 128.347 425.949 125.387C426.109 124.319 426.456 123.233 427.189 122.447C428.429 121.124 430.603 120.979 432.229 121.775C433.856 122.571 435.003 124.132 435.723 125.796C436.363 127.267 436.936 129.075 438.469 129.539C438.883 124.929 441.469 120.56 445.296 117.967C449.163 115.353 454.123 114.502 457.576 111.357C461.056 108.18 463.003 102.736 467.629 101.837C470.443 101.291 473.376 102.836 475.043 105.168C475.963 106.464 476.603 108.033 477.056 109.756C478.923 106.192 479.989 102.356 478.403 98.8188Z" fill="#2A1B19"/>
<path d="M497.576 187.555C497.563 187.117 497.536 186.668 497.349 186.269C497.176 185.891 496.829 185.573 496.416 185.544L496.349 185.533C495.669 185.533 495.256 186.293 495.083 186.96C494.749 188.259 494.896 189.413 494.896 190.732C494.883 191.151 494.723 191.724 494.309 191.663C493.976 191.615 493.869 191.195 493.909 190.867C494.136 188.329 493.603 185.349 493.336 182.813C493.27 182.137 493.136 181.467 493.043 180.793C492.749 178.693 492.376 176.603 491.843 174.545C491.709 174.027 491.523 173.441 491.029 173.232C490.789 173.129 490.523 173.145 490.283 173.237C490.043 173.328 489.816 173.493 489.67 173.697C489.35 174.108 489.243 174.635 489.163 175.145C488.896 176.765 488.829 178.419 488.963 180.055C488.763 180.304 488.336 180.224 488.136 179.98C487.923 179.736 487.883 179.399 487.843 179.08C487.723 177.973 487.963 174.365 487.443 172.103C487.216 171.069 486.829 170.316 486.176 170.209C485.483 170.095 484.829 170.655 484.563 171.311C484.309 171.965 484.336 172.695 484.349 173.401C484.363 175.448 484.069 177.497 483.483 179.46C483.576 177.233 483.683 175.005 483.776 172.777C483.789 172.341 483.656 171.739 483.216 171.773C482.949 171.793 482.79 172.057 482.67 172.291L482.629 172.396C482.016 173.617 481.603 174.973 481.283 176.371C480.883 178.123 480.629 179.935 480.376 181.624C480.216 182.617 480.096 183.615 479.989 184.613C479.709 187.14 479.576 189.681 479.589 192.224C477.669 192.297 477.616 189.205 476.243 187.941C476.069 187.784 475.869 187.649 475.656 187.559C474.136 186.929 472.576 188.764 472.643 190.409C472.669 191.015 472.816 191.593 473.016 192.157C473.376 193.129 473.909 194.063 474.283 195.036C476.243 200.213 473.55 206.136 474.87 211.517C475.136 212.576 475.549 213.645 475.376 214.721C475.216 215.645 474.656 216.44 474.096 217.196C467.203 226.655 460.149 236.271 450.709 243.207C448.176 245.071 445.469 246.757 442.923 248.62C443.403 244.333 442.736 239.879 441.563 235.692C439.923 229.857 437.376 224.313 435.696 218.489C434.576 214.569 434.096 209.727 437.123 206.989C437.776 206.389 438.589 205.92 439.056 205.157C439.643 204.205 439.563 203.001 439.416 201.893C438.976 198.608 438.083 195.4 437.123 192.228C434.949 185.121 431.683 177.364 424.776 174.595C422.883 173.832 420.83 173.517 418.803 173.247C416.243 172.907 413.683 172.645 411.109 172.424C409.109 174.993 407.607 177.653 406.576 180.593C405.749 182.948 405.209 185.476 404.996 188.312C404.311 197.408 405.322 206.559 407.003 215.496C409.563 229.095 414.136 243.031 420.643 255.661C423.269 260.757 426.216 265.647 429.47 270.207C431.03 272.384 432.723 274.528 434.936 276.028C445.683 283.296 453.683 267.504 459.789 260.567C468.149 251.064 476.536 241.52 483.456 230.92C484.576 229.199 485.736 227.515 486.883 225.84C492.096 218.235 497.083 210.811 497.349 200.972C497.469 196.523 497.709 191.997 497.576 187.555Z" fill="#F47580"/>
<path d="M477.056 109.756C476.603 108.033 475.963 106.464 475.043 105.168C473.376 102.836 470.443 101.291 467.63 101.837C463.003 102.736 461.056 108.18 457.576 111.357C454.123 114.501 449.163 115.353 445.296 117.967C441.47 120.56 438.883 124.929 438.47 129.539C436.936 129.075 436.363 127.267 435.723 125.796C435.003 124.132 433.856 122.571 432.23 121.775C430.603 120.979 428.43 121.124 427.19 122.447C426.456 123.233 426.11 124.319 425.95 125.387C425.523 128.347 426.416 131.423 428.23 133.801C429.043 134.888 430.043 135.843 431.203 136.549C432.043 137.056 432.976 137.476 433.563 138.26C433.75 138.523 433.896 138.816 434.016 139.123C435.323 138.664 436.443 137.825 436.896 136.532C437.043 136.113 437.203 135.583 437.656 135.519C437.963 135.473 438.243 135.712 438.443 135.957C440.536 138.467 440.363 142.585 442.496 145.273C444.483 147.791 447.856 150.136 450.776 151.405C454.136 152.869 459.59 154.473 463.763 155.007C464.496 155.099 465.19 155.169 465.816 155.191C466.376 155.209 466.883 155.159 467.363 155.076C468.75 154.836 469.803 154.201 470.63 153.301C473.19 150.491 473.523 145.181 474.87 141.779C475.43 140.348 476.27 139.029 476.776 137.579C477.536 135.433 477.563 133.111 477.563 130.837C477.563 125.141 478.75 116.285 477.056 109.756Z" fill="#F47580"/>
<path d="M486.883 225.84C486.016 227.111 485.136 228.401 484.283 229.695C485.51 229.415 486.736 229.113 487.95 228.771C487.576 227.8 487.216 226.824 486.883 225.84Z" fill="#2B5E45"/>
<path d="M484.283 229.695C484.003 230.105 483.723 230.504 483.456 230.92C476.536 241.52 468.149 251.064 459.789 260.567C453.683 267.504 445.683 283.296 434.936 276.028C432.723 274.528 431.03 272.384 429.47 270.207C426.216 265.647 423.27 260.757 420.643 255.661C420.23 257.844 419.616 259.987 418.776 262.044C417.083 266.217 414.536 270.089 413.616 274.496C413.19 276.501 413.11 278.573 412.603 280.559C412.563 280.74 412.496 280.916 412.443 281.095C416.216 284.731 420.376 287.972 425.296 289.604C428.296 290.596 431.47 290.951 434.616 291.285C440.923 291.956 447.296 292.568 453.616 291.968C459.936 291.368 466.269 289.476 471.296 285.588C473.816 283.635 475.923 281.253 477.803 278.675C477.496 278.212 477.429 277.612 477.389 277.048C476.963 269.139 478.243 261.141 481.096 253.753C483.136 248.471 485.976 243.485 487.483 238.028C488.123 235.723 488.509 233.361 488.829 230.989C488.523 230.257 488.23 229.515 487.95 228.771C486.736 229.113 485.51 229.415 484.283 229.695Z" fill="#F47580"/>
<path d="M483.483 179.46C484.069 177.498 484.363 175.448 484.349 173.402C484.336 172.695 484.309 171.966 484.563 171.311C484.723 170.91 485.043 170.566 485.416 170.368L485.136 170.291C484.763 170.283 484.47 170.618 484.27 170.935C484.043 171.314 483.843 171.718 483.67 172.132C483.75 172.328 483.776 172.57 483.776 172.778C483.683 175.006 483.576 177.234 483.483 179.46Z" fill="#D75052"/>
<path d="M465.123 156.495C464.669 156 464.216 155.507 463.763 155.007C459.589 154.473 454.136 152.869 450.776 151.405C447.87 150.136 444.483 147.791 442.496 145.273C440.363 142.585 440.536 138.467 438.443 135.956C438.243 135.712 437.963 135.473 437.656 135.519C437.203 135.583 437.043 136.113 436.896 136.532C436.443 137.825 435.323 138.664 434.016 139.123C434.15 139.477 434.23 139.849 434.31 140.221C434.763 142.685 434.443 145.149 433.67 147.509C437.576 149.851 441.63 151.916 445.936 153.443C452.083 155.621 458.616 156.609 465.123 156.495Z" fill="#D75052"/>
<path d="M432.256 276.618C434.576 278.687 437.576 280.172 440.683 280.023C444.79 279.826 448.216 276.904 451.11 273.987C463.55 261.494 473.163 245.084 488.096 235.332C488.39 233.894 488.63 232.447 488.83 230.99C488.523 230.258 488.23 229.515 487.95 228.771C486.736 229.114 485.51 229.415 484.283 229.695C484.003 230.106 483.723 230.504 483.456 230.92C476.536 241.52 468.15 251.064 459.79 260.567C453.696 267.504 445.683 283.295 434.936 276.028C432.723 274.528 431.03 272.384 429.47 270.207C426.216 265.647 423.27 260.758 420.643 255.662C420.403 256.915 420.083 258.148 419.71 259.367C421.163 261.671 422.656 263.944 424.216 266.167C426.723 269.715 428.99 273.702 432.256 276.618Z" fill="#D75052"/>
<path d="M921.213 360.688H825.347C819.08 360.688 814 355.609 814 349.344C814 343.079 819.08 338 825.347 338H921.213C927.48 338 932.547 343.079 932.547 349.344C932.547 355.609 927.48 360.688 921.213 360.688Z" fill="#F5E2CA"/>
<path d="M837.747 354.427L834.173 344.625H835.573L837.293 349.512C837.8 350.949 838.307 352.399 838.52 353.295H838.547C838.76 352.492 839.307 350.98 839.827 349.559L841.627 344.625H842.96L839.28 354.427H837.747Z" fill="#9EC3BE"/>
<path d="M847.133 344.625V354.427H845.827V344.625H847.133Z" fill="#9EC3BE"/>
<path d="M851.693 351.697C851.96 352.873 852.76 353.508 854.187 353.508C855.707 353.508 856.32 352.792 856.32 351.867C856.32 350.883 855.84 350.332 853.867 349.857C851.56 349.295 850.76 348.505 850.76 347.127C850.76 345.669 851.827 344.485 854.027 344.485C856.36 344.485 857.32 345.833 857.44 347.121H856.12C855.947 346.249 855.4 345.533 853.973 345.533C852.773 345.533 852.107 346.071 852.107 347.004C852.107 347.924 852.667 348.288 854.373 348.703C857.173 349.384 857.667 350.471 857.667 351.729C857.667 353.309 856.493 354.548 854.093 354.548C851.64 354.548 850.573 353.203 850.373 351.697H851.693Z" fill="#9EC3BE"/>
<path d="M862.267 344.625V354.427H860.96V344.625H862.267Z" fill="#9EC3BE"/>
<path d="M868.333 345.739H865.173V344.625H872.813V345.739H869.653V354.427H868.333V345.739Z" fill="#9EC3BE"/>
<path d="M880.573 354.427V344.625H882.293C883.693 346.916 886.76 351.792 887.307 352.857H887.32C887.227 351.6 887.24 350.053 887.24 348.453V344.625H888.467V354.427H886.853C885.56 352.299 882.373 347.053 881.76 345.953H881.733C881.8 347.071 881.8 348.733 881.8 350.501V354.427H880.573Z" fill="#9EC3BE"/>
<path d="M893.253 349.484C893.253 351.601 894.333 353.459 896.44 353.459C898.72 353.459 899.627 351.583 899.627 349.491C899.627 347.377 898.6 345.592 896.453 345.592C894.227 345.592 893.253 347.392 893.253 349.484ZM900.987 349.469C900.987 352.167 899.48 354.568 896.387 354.568C893.507 354.568 891.893 352.337 891.893 349.525C891.893 346.721 893.533 344.485 896.507 344.485C899.267 344.485 900.987 346.557 900.987 349.469Z" fill="#9EC3BE"/>
<path d="M906.027 354.427L903.4 344.625H904.76C905.533 347.835 906.587 351.891 906.76 353.011H906.787C907.04 351.745 908.387 347.127 909.027 344.625H910.293C910.88 346.815 912.213 351.792 912.44 352.961H912.453C912.76 351.268 914.133 346.639 914.68 344.625H915.96L913.093 354.427H911.707C911.107 352.172 909.853 347.499 909.613 346.325H909.6C909.307 347.787 908.04 352.175 907.413 354.427H906.027Z" fill="#9EC3BE"/>
</svg>
