<svg width="170" height="82" viewBox="0 0 170 82" fill="none" xmlns="http://www.w3.org/2000/svg">
<g id="Group 2">
<path id="path1212" d="M169.76 81.3387H0.97998L11.7933 66.1481H158.948L169.76 81.3387Z" fill="#FBC341"/>
<path id="path1214" d="M167.952 78.7987L161.673 69.9761L167.952 78.7987Z" fill="#DEBAA1"/>
<path id="path1216" d="M167.952 78.7987L27.428 75.3121H38.6093L38.536 74.8694L121.923 71.5561L121.501 73.3667C121.247 74.4641 122.08 75.5134 123.205 75.5134H125.661C125.989 75.5134 126.312 75.428 126.599 75.268C126.887 75.1054 127.208 75.0214 127.536 75.0214C127.597 75.0214 127.659 75.0241 127.72 75.0307L132.724 75.5134H138.283C138.681 75.5134 139.003 75.1907 139.003 74.7921V74.0734H138.581C138.153 74.0734 137.735 73.9401 137.383 73.6947C137.031 73.4467 136.612 73.3147 136.183 73.3147H135.787C135.532 73.3147 135.281 73.2681 135.044 73.1787L131.184 71.7094C130.832 71.5761 130.495 71.4134 130.176 71.2281L161.673 69.9761L167.952 78.7987Z" fill="#DC9632"/>
<path id="path1218" d="M50.808 7.79872L50.7653 8.76272C50.704 10.0974 51.7466 11.2388 53.08 11.3001L73.2706 12.224C74.6039 12.2854 75.7466 11.2441 75.8066 9.9094L75.852 8.9454C75.9133 7.61073 74.8706 6.46806 73.536 6.40673L53.3466 5.48407C52.012 5.42274 50.8693 6.46406 50.808 7.79872Z" fill="#D4533A"/>
<path id="path1220" d="M71.5226 7.38531L66.3039 7.14534L65.8666 6.84397C65.7866 6.82131 65.708 6.79336 65.632 6.76136C65.6333 6.76136 65.6333 6.75999 65.6333 6.75999C65.2613 6.60132 64.948 6.33733 64.728 6.004L73.0547 6.38532C73.152 6.39065 73.2493 6.39998 73.344 6.41331C72.6346 6.50398 71.988 6.85331 71.5226 7.38531Z" fill="#B9412C"/>
<path id="path1222" d="M54.412 11.1827L39.5533 16.048L39.2746 16.212L37.892 13.732L51.576 6.09869C52.9733 5.31869 54.7546 5.82405 55.536 7.22271C56.316 8.62005 55.8093 10.4027 54.412 11.1827Z" fill="#D4533A"/>
<path id="path1224" d="M39.4133 14.0974C39.1347 13.8001 38.7546 13.6347 38.376 13.6347C38.216 13.6347 38.056 13.6654 37.9026 13.7254L46.648 8.84806C46.6293 9.38006 46.6627 9.93071 46.7493 10.4907L39.4133 14.0974Z" fill="#B9412C"/>
<path id="path1226" d="M39.2373 16.2707L39.2413 16.2787C37.828 17.1534 35.64 18.9214 33.6453 19.552L28.1827 20.2574C27.8493 20.3014 27.5973 19.9347 27.7706 19.6481C28.6413 18.2054 33.52 16.2214 34.7106 15.5427L37.68 13.8507L37.748 13.8014C38.392 13.4334 39.236 13.6987 39.632 14.3921C40.0133 15.0627 39.8319 15.8854 39.2373 16.2707Z" fill="#D4533A"/>
<path id="path1228" d="M39.7987 14.8253C39.7973 14.8253 39.7973 14.824 39.7973 14.824C39.7973 14.824 39.7973 14.8253 39.7987 14.8253ZM39.796 14.8133C39.764 14.6733 39.7119 14.5346 39.6373 14.4013C39.7119 14.5346 39.764 14.6733 39.796 14.8133Z" fill="#B9412C"/>
<path id="path1230" d="M27.7893 20.08C27.7039 19.9573 27.6839 19.792 27.7706 19.648C28.6412 18.2053 33.5199 16.2213 34.7106 15.5427L37.6799 13.8507L37.7479 13.8013C37.9439 13.6893 38.1599 13.6346 38.3759 13.6346C38.8666 13.6346 39.356 13.9107 39.632 14.392C39.6333 14.3947 39.6346 14.3986 39.6372 14.4013C39.7119 14.5346 39.764 14.6733 39.796 14.8133C39.796 14.8173 39.7973 14.8213 39.7973 14.824C39.7973 14.824 39.7973 14.8253 39.7986 14.8253C39.8973 15.2867 39.7706 15.7587 39.4626 16.0813C39.4733 15.8133 39.4106 15.5333 39.2626 15.276C38.9893 14.7947 38.4986 14.52 38.0092 14.52C37.7932 14.52 37.5773 14.5733 37.3799 14.6853L37.3119 14.7346L34.3439 16.4266C33.2719 17.0373 29.2279 18.7013 27.7893 20.08Z" fill="#B9412C"/>
<path id="path1232" d="M68.752 16.7986L59.3787 10.0013L62.3253 5.82L63.0694 6.03465L64.3574 5.05333L64.4707 5.4493C64.6667 6.12263 65.1933 6.64929 65.8667 6.84396L71.324 10.6093L68.752 16.7986Z" fill="#F0724E"/>
<path id="path1234" d="M64.7279 6.00403C64.6706 5.91869 64.6199 5.82669 64.5759 5.73202C64.6199 5.82669 64.6706 5.91869 64.7279 6.00403Z" fill="#DEBAA1"/>
<path id="path1238" d="M65.632 6.76135C65.2613 6.60135 64.9466 6.33733 64.728 6.004C64.948 6.33733 65.2613 6.60132 65.6333 6.75999C65.6333 6.75999 65.6333 6.76135 65.632 6.76135Z" fill="#A03320"/>
<path id="path1240" d="M64.576 5.73071C64.5746 5.72671 64.5719 5.72267 64.5706 5.71867C64.5719 5.72267 64.5746 5.72671 64.576 5.73071ZM64.5693 5.71737C64.568 5.71337 64.5667 5.70936 64.5653 5.70669C64.5667 5.70936 64.568 5.71337 64.5693 5.71737ZM64.564 5.70272C64.5613 5.70005 64.56 5.69604 64.5586 5.69204C64.56 5.69604 64.5613 5.70005 64.564 5.70272ZM64.5573 5.69067C64.5547 5.68267 64.5506 5.67472 64.548 5.66672C64.5506 5.67472 64.5547 5.68267 64.5573 5.69067ZM64.548 5.66672C64.5466 5.66405 64.5453 5.66134 64.544 5.65734C64.5453 5.66134 64.5466 5.66405 64.548 5.66672ZM64.5413 5.652C64.5413 5.64934 64.54 5.64669 64.5386 5.64536C64.54 5.64669 64.5413 5.64934 64.5413 5.652ZM64.536 5.63735C64.5346 5.63469 64.5346 5.63338 64.5333 5.63071C64.5346 5.63338 64.5346 5.63469 64.536 5.63735ZM64.5306 5.62271C64.5293 5.62004 64.528 5.61867 64.528 5.616C64.528 5.61867 64.5293 5.62004 64.5306 5.62271ZM64.524 5.60799C64.524 5.60532 64.5226 5.60405 64.5226 5.60272C64.5226 5.60405 64.524 5.60532 64.524 5.60799ZM64.5187 5.59204C64.5173 5.59071 64.5173 5.58934 64.5173 5.588C64.5173 5.58934 64.5173 5.59071 64.5187 5.59204ZM64.5013 5.54399C64.5013 5.54266 64.5 5.54266 64.5 5.54132C64.5 5.54266 64.5013 5.54266 64.5013 5.54399ZM64.496 5.52804C64.496 5.52804 64.4946 5.52671 64.4946 5.52537L64.496 5.52804ZM64.4907 5.51333C64.4907 5.512 64.4906 5.51069 64.4893 5.50936C64.4906 5.51069 64.4907 5.512 64.4907 5.51333ZM64.4866 5.49868C64.4853 5.49735 64.4853 5.49604 64.4853 5.49471C64.4853 5.49604 64.4853 5.49735 64.4866 5.49868ZM64.4813 5.48403C64.4813 5.4827 64.4813 5.48003 64.48 5.47869C64.4813 5.48003 64.4813 5.4827 64.4813 5.48403ZM64.4773 5.46802C64.476 5.46668 64.476 5.46538 64.476 5.46405C64.476 5.46538 64.476 5.46668 64.4773 5.46802Z" fill="#DEBAA1"/>
<path id="path1242" d="M62.192 9.23877C63.1693 8.79477 63.876 7.90541 64.0826 6.84541L64.208 6.19072C64.2813 5.81472 64.3307 5.43609 64.3573 5.05609L64.4706 5.44938C64.4733 5.45472 64.4746 5.45876 64.4759 5.4641C64.4759 5.46543 64.476 5.46673 64.4773 5.46807C64.4773 5.47207 64.4786 5.47608 64.48 5.47874C64.4813 5.48008 64.4813 5.48275 64.4813 5.48408C64.4826 5.48808 64.484 5.49076 64.4853 5.49476C64.4853 5.49609 64.4853 5.4974 64.4866 5.49873C64.488 5.50273 64.4893 5.50674 64.4893 5.50941C64.4906 5.51074 64.4907 5.51205 64.4907 5.51338C64.492 5.51738 64.4933 5.52142 64.4946 5.52542C64.4946 5.52676 64.496 5.52809 64.496 5.52809C64.4973 5.53343 64.4986 5.53737 64.5 5.54137C64.5 5.54271 64.5013 5.54271 64.5013 5.54404C64.5066 5.55871 64.5119 5.57339 64.5173 5.58805C64.5173 5.58939 64.5173 5.59076 64.5186 5.59209C64.52 5.59476 64.5213 5.59877 64.5226 5.60277C64.5226 5.6041 64.524 5.60537 64.524 5.60804C64.5253 5.61071 64.5266 5.61338 64.528 5.61605C64.528 5.61872 64.5293 5.62009 64.5306 5.62275C64.5306 5.62542 64.532 5.6281 64.5333 5.63076C64.5346 5.63343 64.5346 5.63474 64.536 5.6374C64.5373 5.64007 64.5373 5.64274 64.5386 5.64541C64.54 5.64674 64.5413 5.64938 64.5413 5.65205C64.5426 5.65338 64.544 5.65606 64.544 5.65739C64.5453 5.66139 64.5466 5.6641 64.5479 5.66676C64.5506 5.67476 64.5547 5.68272 64.5573 5.69072C64.5587 5.69072 64.5586 5.69209 64.5586 5.69209C64.56 5.69609 64.5613 5.7001 64.564 5.70277C64.564 5.7041 64.564 5.70541 64.5653 5.70674C64.5667 5.70941 64.568 5.71342 64.5693 5.71742L64.5706 5.71872C64.5719 5.72272 64.5746 5.72676 64.5759 5.73076C64.5759 5.73076 64.5759 5.73073 64.5759 5.73206C64.6199 5.82673 64.6706 5.91874 64.728 6.00407C64.9466 6.3374 65.2613 6.60143 65.632 6.76143C65.1347 7.72276 64.0653 9.21077 62.192 9.23877Z" fill="#D3583A"/>
<path id="path1244" d="M55.4667 6.94535C58.684 6.97868 61.2666 9.32532 61.2373 12.1853C61.2066 15.0467 58.576 17.3387 55.3587 17.3067C52.1413 17.2733 49.5587 14.9267 49.588 12.0653C49.6187 9.204 52.2507 6.91201 55.4667 6.94535Z" fill="#682B22"/>
<path id="path1246" d="M55.5 19.9254L55.312 19.84L55.336 19.488C55.348 19.4787 56.5333 18.4334 56.5293 17.3C56.528 16.8067 56.2946 16.356 55.8346 15.9627L55.808 15.612L56.1586 15.5853C56.7346 16.0786 57.0266 16.6547 57.028 17.3C57.0293 18.664 55.7187 19.816 55.6627 19.864L55.5 19.9254Z" fill="#682B22"/>
<path id="path1248" d="M63.5293 13.46C63.3973 13.46 63.2879 13.3547 63.2812 13.2214C63.2812 13.2054 63.2026 11.6294 62.3146 10.924C61.9292 10.6174 61.4306 10.5187 60.8372 10.6334C60.7026 10.6561 60.5719 10.5694 60.5452 10.4347C60.5199 10.3 60.6079 10.1693 60.7439 10.144C61.4906 10.004 62.1213 10.1347 62.6266 10.5347C63.6946 11.3827 63.7759 13.1267 63.7786 13.2014C63.7839 13.3387 63.6786 13.4547 63.5399 13.4587L63.5293 13.46Z" fill="#682B22"/>
<path id="path1250" d="M63.1774 14.152L63.1387 14.148C63.0014 14.1253 62.9107 13.9987 62.9307 13.8627C62.9347 13.844 63.2267 11.98 62.392 11.2054C62.0293 10.868 61.4853 10.784 60.764 10.9546C60.6267 10.9893 60.496 10.9027 60.4654 10.7707C60.432 10.636 60.516 10.5014 60.6494 10.4694C61.5374 10.2574 62.2414 10.3826 62.732 10.8413C63.76 11.7986 63.4373 13.856 63.4227 13.9427C63.4027 14.0653 63.2987 14.152 63.1774 14.152Z" fill="#682B22"/>
<path id="path1252" d="M50.972 2.0186C53.7693 1.37593 56.732 3.8693 57.588 7.5893C58.4453 11.3093 56.8706 14.8466 54.0746 15.4906C51.276 16.1346 48.3133 13.6413 47.4586 9.92127C46.6013 6.20127 48.1746 2.66393 50.972 2.0186Z" fill="#682B22"/>
<path id="path1254" d="M48.2506 9.81326C49.0319 13.2106 51.5706 15.576 54.136 15.4733L54.0746 15.4906C51.276 16.1346 48.3133 13.6413 47.4586 9.92127C46.6013 6.20127 48.1746 2.66393 50.972 2.0186C51.2146 1.96393 51.46 1.93994 51.7026 1.92928C48.9453 2.61194 47.3999 6.12126 48.2506 9.81326Z" fill="#B14B3C"/>
<path id="path1256" d="M52.488 12.076C54.804 12.1 56.6613 13.8934 56.6386 16.0814C56.6159 18.2707 54.7212 20.0253 52.4066 20.0013C50.0919 19.9787 48.2346 18.184 48.2559 15.9947C48.2799 13.8067 50.1746 12.052 52.488 12.076Z" fill="#682B22"/>
<path id="path1258" d="M52.8973 12.5174C50.5839 12.4947 48.688 14.248 48.6653 16.4374C48.656 17.3467 48.9746 18.1881 49.5146 18.8614C48.7292 18.1334 48.2452 17.1174 48.2559 15.9947C48.2799 13.8067 50.1746 12.052 52.4879 12.076C53.8399 12.0894 55.0319 12.7107 55.7892 13.6574C55.0426 12.964 54.0266 12.5294 52.8973 12.5174Z" fill="#B14B3C"/>
<path id="path1260" d="M56.5466 11.9707C56.2813 11.9707 56.0626 11.7614 56.0506 11.4947C55.9066 8.29739 55.0826 6.12674 53.5973 5.03874C52.0906 3.93474 50.4146 4.3654 50.3973 4.3694C50.1279 4.44273 49.86 4.28138 49.788 4.01738C49.7173 3.75205 49.8746 3.47871 50.1413 3.40938C50.2266 3.38538 52.2986 2.85207 54.1866 4.23607C55.9253 5.51074 56.8879 7.93738 57.0439 11.4507C57.0559 11.7254 56.8439 11.9574 56.5693 11.9694L56.5466 11.9707Z" fill="#682B22"/>
<path id="path1262" d="M54.3053 8.51197L55.3106 8.9106C55.3106 8.9106 57.1413 9.7333 56.9133 11.8066L55.6653 12.568L54.5093 13.34L53.5866 12.7373L53.3053 10.6746L54.332 8.70129L54.3053 8.51197Z" fill="#682B22"/>
<path id="path1264" d="M50.8827 6.06804C50.8827 6.06804 51.7213 3.21207 55.324 2.73874C55.6333 2.69741 55.9253 2.57869 56.1773 2.39336L58.1066 0.976044C58.2359 0.881377 58.4053 0.86139 58.5533 0.922723C58.7026 0.984056 58.8093 1.12135 58.832 1.28268L58.8827 1.6627L58.9586 1.78535L59.0893 1.87735L59.3866 1.83737L59.6173 1.5627L59.984 1.76537L60.4346 1.66804L60.6893 1.58802C60.9866 1.49469 61.176 1.72003 61.4693 1.82669L62.532 1.48802C63.392 1.37469 64.176 1.99069 64.2666 2.85202L64.328 3.42272C64.4253 4.34672 64.3853 5.27869 64.208 6.19069L64.0827 6.84538C63.864 7.96405 63.088 8.89338 62.0267 9.30938L60.6813 9.8347C61.0426 12.4867 58.8613 14.8174 56.1933 14.588C54.3707 14.4307 52.5786 13.76 51.8253 11.908C51.8253 11.908 50.304 8.80137 50.8827 6.06804Z" fill="#F0724E"/>
<path id="path1266" d="M60.336 2.98132C60.5987 2.55199 60.7333 1.91466 60.7333 1.91466C60.7787 1.75199 60.7826 1.64398 60.768 1.57065C60.788 1.56798 60.808 1.56667 60.828 1.56667C61.052 1.56667 61.224 1.7373 61.4693 1.82664C61.4693 1.82664 60.9907 2.73066 60.336 2.98132Z" fill="#D3583A"/>
<path id="path1268" d="M60.0746 3.19469C60.0133 2.98802 59.8053 2.38667 59.3839 2.004C59.3839 2.004 59.0466 1.8613 59.2133 1.50797C59.2133 1.50797 59.5306 1.28397 59.9679 1.6413C59.9679 1.6413 60.3946 1.37469 60.5813 1.42535C60.5813 1.42535 60.8853 1.37334 60.7333 1.91468C60.7333 1.91468 60.5346 2.85068 60.1533 3.21735L60.0746 3.19469Z" fill="#B73C2B"/>
<path id="path1270" d="M58.8826 1.66266L58.832 1.28265L58.88 1.64267L58.8826 1.66266ZM58.5533 0.922685C58.5266 0.912018 58.4999 0.904026 58.4733 0.897359C58.4999 0.902693 58.5266 0.912018 58.5533 0.922685Z" fill="#DEBAA1"/>
<path id="path1272" d="M58.384 3.1001C58.2947 3.1001 58.2307 3.08805 58.2307 3.08805L58.3214 2.86006C58.3254 2.73739 58.2734 2.61609 58.1894 2.52809C57.7174 2.03476 57.9734 1.63877 57.9734 1.63877C58.2134 1.0561 58.0974 0.984082 58.0974 0.984082L58.1267 0.965397C58.2027 0.914731 58.292 0.888053 58.3814 0.888053C58.412 0.888053 58.4427 0.890762 58.4734 0.897429C58.5 0.904095 58.5267 0.912087 58.5534 0.922754C58.7027 0.984087 58.8094 1.12138 58.8321 1.28271L58.8827 1.66273C58.9654 2.02806 58.9374 2.61338 58.9374 2.61338C58.936 3.03605 58.592 3.1001 58.384 3.1001Z" fill="#D3583A"/>
<path id="path1274" d="M55.9147 3.41735C55.7587 3.59868 55.704 3.82531 55.6827 4.04664L55.68 4.37998L55.6987 4.54534L55.7107 4.62802L55.724 4.70133C55.7547 4.9 55.7787 5.10136 55.7854 5.29736L55.768 5.57998L55.6654 5.78531L55.6494 5.79736L55.6346 5.90003L55.7214 5.92535L55.8173 5.88265L55.8947 5.81201L55.9494 5.73199L55.9893 5.64801L56.064 5.30797C56.084 5.08264 56.064 4.86531 56.028 4.64931L55.972 4.34664L55.9387 4.05198C55.928 3.85731 55.9307 3.65203 55.9854 3.4667L55.988 3.45732L55.9587 3.404L55.9147 3.41735Z" fill="#682B22"/>
<path id="path1276" d="M56.2306 4.1466C56.428 4.11993 56.5773 4.01864 56.564 3.91997C56.5493 3.82264 56.38 3.76531 56.1827 3.79198C55.9853 3.81998 55.8373 3.91994 55.8506 4.0186C55.8626 4.11594 56.0333 4.17327 56.2306 4.1466Z" fill="#682B22"/>
<path id="path1278" d="M56.6426 3.66938L56.6399 3.65336L56.596 3.624L56.5666 3.66801L56.5093 3.93735C56.4506 4.00535 56.3547 4.03868 56.2213 4.03468L56.184 4.07205L56.22 4.10935C56.376 4.11335 56.4933 4.07203 56.5666 3.98403L56.6426 3.66938Z" fill="#682B22"/>
<path id="path1280" d="M54.3039 3.52929L54.1666 3.85195V4.18795C54.172 4.41061 54.2026 4.63061 54.2466 4.84661C54.292 5.06394 54.3533 5.27597 54.4386 5.47864C54.5213 5.6813 54.6293 5.87465 54.7493 6.05331L54.8013 6.06262L54.816 6.02265V6.01998C54.76 5.81465 54.7 5.61594 54.672 5.4106C54.636 5.20794 54.612 5.00399 54.6026 4.79999C54.5893 4.59733 54.5946 4.39462 54.6066 4.19329L54.6373 3.89329L54.5839 3.58795L54.5693 3.56262L54.3413 3.49999L54.3039 3.52929Z" fill="#682B22"/>
<path id="path1282" d="M58.488 1.58675C58.452 1.70675 58.4373 1.82805 58.4533 1.95205C58.4666 2.07205 58.512 2.20806 58.5853 2.29873L58.6733 2.57738L58.5479 2.85205L58.5493 2.88805L58.58 2.89209C58.6866 2.83876 58.7853 2.72939 58.8053 2.59072C58.8306 2.45206 58.7786 2.32005 58.7026 2.21605L58.5559 1.9361L58.5693 1.61338V1.61071L58.5399 1.55876L58.488 1.58675Z" fill="#682B22"/>
<path id="path1284" d="M49.952 3.70005C52.464 3.12138 55.1613 5.52268 55.9759 9.06268C56.7919 12.6027 55.4146 15.9414 52.9026 16.52C50.3906 17.0987 47.6933 14.6973 46.8773 11.1573C46.0626 7.61734 47.4387 4.27872 49.952 3.70005Z" fill="#682B22"/>
<path id="path1286" d="M50.2506 3.89067C47.7426 4.468 46.4 7.93738 47.252 11.6387C47.4813 12.636 47.8506 13.544 48.3106 14.3334C47.6666 13.4587 47.1586 12.3787 46.8773 11.1573C46.0626 7.61733 47.4387 4.27871 49.952 3.70004C51.2387 3.40404 52.5733 3.89332 53.68 4.91332C52.6306 4.03332 51.4173 3.62133 50.2506 3.89067Z" fill="#B14B3C"/>
<path id="path1288" d="M52.0946 7.01741C52.0946 7.01741 52.8039 6.63071 53.9919 7.98805C53.9919 7.98805 54.6999 8.5854 55.2693 8.2734C55.2693 8.2734 56.672 7.18271 57.288 8.01604C57.288 8.01604 57.8586 8.63741 57.4226 9.02275C57.4226 9.02275 56.1426 9.82009 56.8146 10.8948C56.8146 10.8948 57.4439 12.0467 59.0999 11.2681C59.0999 11.2681 59.9692 10.8828 60.1759 10.0001C60.1759 10.0001 62.0373 9.02809 63.0946 11.5948C63.0946 11.5948 62.9986 15.2494 58.0079 16.1694C55.9346 16.5521 53.7879 15.8574 52.3946 14.2761C51.6039 13.3774 50.8906 12.0987 50.5053 10.2787C50.5053 10.2787 49.9599 7.98939 51.1226 7.19605C51.1226 7.19605 51.3146 6.94674 52.0946 7.01741Z" fill="#682B22"/>
<path id="path1290" d="M58.2013 11.0454C57.6253 11.0454 57.3226 10.5281 57.3226 10.5281C57.0693 10.0321 57.6306 9.54541 57.8039 9.41208C57.9706 9.61874 58.2573 9.72406 58.596 9.72406C58.9347 9.72406 59.324 9.61873 59.6973 9.4014L59.8827 9.27874L59.9413 9.36676C60.156 9.67743 59.4293 10.3668 59.4293 10.3668C58.9373 10.8801 58.5253 11.0454 58.2013 11.0454Z" fill="#BE462D"/>
<path id="path1292" d="M60.3213 9.34936C60.4746 9.32803 60.5826 9.18805 60.5613 9.03471C60.54 8.88138 60.4 8.77471 60.2466 8.79604C60.0933 8.81604 59.9866 8.95739 60.008 9.10939C60.028 9.26272 60.1693 9.3707 60.3213 9.34936Z" fill="#923C1D"/>
<path id="path1294" d="M91.8373 36.108C98.5359 34.5773 110.791 33.804 117.661 33.804C121.103 33.804 123.996 36.388 124.384 39.8067L126.833 66.1067C127.121 68.6413 128.8 70.8013 131.184 71.7093L135.044 73.1787C135.281 73.268 135.532 73.3147 135.787 73.3147H136.183C136.612 73.3147 137.031 73.4467 137.383 73.6947C137.735 73.94 138.153 74.0733 138.581 74.0733H139.003V74.792C139.003 75.1907 138.681 75.5133 138.283 75.5133H132.724L127.72 75.0307C127.331 74.992 126.94 75.076 126.599 75.268C126.312 75.428 125.989 75.5133 125.661 75.5133H123.205C122.08 75.5133 121.247 74.464 121.501 73.3667L122.201 70.3533L116.991 55.588C116.163 53.2386 116.013 45.956 116.563 43.5254L105.147 45.008C103.647 45.3786 102.195 45.9227 100.821 46.6307C98.648 47.7507 96.2866 48.4586 93.856 48.7186L80.6773 50.1254L91.8373 36.108Z" fill="#D4533A"/>
<path id="path1296" d="M121.447 54.0493L124.617 61.936H126.36L124.384 39.8067C123.996 36.388 121.103 33.804 117.661 33.804C110.791 33.804 98.5359 34.5773 91.8373 36.108L80.6773 50.1254L93.856 48.7187C96.2866 48.4587 98.648 47.7507 100.821 46.6307C102.195 45.9227 103.647 45.3786 105.147 45.008L116.563 43.5254C116.013 45.956 116.163 53.2387 116.991 55.588L119.232 61.936H120.959L121.447 54.0493Z" fill="#223C50"/>
<path id="path1298" d="M81.4813 50.0387L82.42 49.508C82.42 49.508 82.5027 49.512 82.6533 49.512C82.948 49.512 83.5067 49.4973 84.244 49.4093C89.8467 48.744 91.9147 45.8333 94.208 40.6147C94.768 39.3987 95.2973 38.1106 95.8346 36.788C96.0333 36.2986 96.204 35.8 96.344 35.2947C101.291 34.5734 107.399 34.1147 112.489 33.9173L88.9854 49.2373L81.4813 50.0387Z" fill="#1D2F38"/>
<path id="path1300" d="M124.073 56.7867L124.059 56.916C124.003 57.0813 123.824 57.1693 123.66 57.1133L119.869 55.828C119.705 55.7734 119.619 55.5947 119.673 55.4307C119.729 55.2667 119.908 55.1774 120.072 55.2334L123.861 56.5187C123.981 56.5587 124.061 56.6667 124.073 56.7867Z" fill="#223C50"/>
<path id="path1302" d="M123.972 55.2573C123.984 55.384 123.919 55.5107 123.799 55.5694L120.211 57.3413C120.055 57.4186 119.867 57.3547 119.791 57.1987C119.712 57.044 119.777 56.8547 119.932 56.7787L123.521 55.0067C123.676 54.9293 123.864 54.9933 123.941 55.1493L123.972 55.2573Z" fill="#223C50"/>
<path id="path1304" d="M124.375 58.5693L124.361 58.7C124.305 58.864 124.127 58.952 123.963 58.896L120.172 57.612C120.008 57.556 119.92 57.3773 119.975 57.2133C120.031 57.0493 120.209 56.9613 120.373 57.016L124.164 58.3013C124.285 58.3426 124.364 58.4493 124.375 58.5693Z" fill="#223C50"/>
<path id="path1306" d="M124.275 57.0413C124.287 57.1666 124.221 57.2933 124.101 57.352L120.513 59.124C120.357 59.2013 120.169 59.1373 120.092 58.9813C120.016 58.8253 120.08 58.6373 120.235 58.56L123.823 56.7893C123.977 56.712 124.167 56.776 124.244 56.932L124.275 57.0413Z" fill="#223C50"/>
<path id="path1308" d="M124.541 60.2907L124.527 60.4213C124.471 60.5853 124.292 60.6733 124.128 60.6173L120.339 59.3334C120.175 59.2774 120.087 59.0987 120.141 58.9347C120.196 58.7707 120.376 58.6827 120.54 58.7373L124.329 60.0227C124.451 60.064 124.529 60.1707 124.541 60.2907Z" fill="#223C50"/>
<path id="path1310" d="M124.44 58.7627C124.453 58.888 124.387 59.0146 124.267 59.0746L120.679 60.8453C120.524 60.9227 120.335 60.8587 120.257 60.7027C120.181 60.5467 120.245 60.3587 120.401 60.2813L123.988 58.5106C124.144 58.4333 124.332 58.4974 124.409 58.6534L124.44 58.7627Z" fill="#223C50"/>
<path id="path1312" d="M96.54 25.8853C96.2226 20.3307 93.8506 15.0947 89.8866 11.192L87.828 9.1667C86.0213 7.38804 83.5853 6.38936 81.0493 6.38936H73.7146C72.604 6.38936 71.5893 7.02269 71.1 8.02003L67.416 15.5307L63.8853 19.0614C63.1907 19.756 63.2493 20.8987 64.012 21.5187L69.828 26.244C70.4986 26.7893 71.3373 27.0867 72.2013 27.0867H78.364C78.5093 27.0867 78.6267 27.204 78.6267 27.3493V29.7667C78.6267 30.2414 78.3667 30.6773 77.952 30.904C75.908 32.0187 74.1933 33.6507 72.976 35.6347L71.2693 38.4213C70.828 39.1413 70.32 39.8187 69.7506 40.4427L57.068 54.336V54.3373C52.9693 55.3613 49.1133 57.188 45.724 59.7093L35.2187 67.5227L35.2093 67.5106L27.428 73.2466V75.312H38.6093L38.1413 72.5106C38.0587 72.0133 38.3106 71.5187 38.764 71.296L53.416 64.0827C54.7867 63.4067 56.2506 62.9574 57.74 62.6174C59.424 62.232 61.044 61.604 62.548 60.7534L82.42 49.508C82.42 49.508 83.128 49.5413 84.244 49.4093C90.9133 48.616 93.2639 43.1093 95.8346 36.788C96.6026 34.9 96.9413 32.8627 96.824 30.828L96.54 25.8853Z" fill="#F0724E"/>
<path id="path1314" d="M42.4719 69.4707H42.4706L44.1479 68.6454L48.0679 66.7147C48.0679 66.7147 48.0679 66.7147 48.0679 66.716L42.4719 69.4707Z" fill="#DC9632"/>
<path id="path1316" d="M39.556 64.296V64.2947L40.596 63.5213L40.5973 63.5227L39.556 64.296Z" fill="#DEBAA1"/>
<path id="path1318" d="M42.4706 69.4707L39.556 64.296L40.5973 63.5227L44.148 68.6454L42.4706 69.4707Z" fill="#D3583A"/>
<path id="path1320" d="M78.364 27.0867H77.3306L89.8866 11.1921L87.828 9.16674L89.8866 11.1921C90.7173 12.0121 91.4626 12.9 92.1493 13.8267L78.364 27.0867Z" fill="#D3583A"/>
<path id="path1322" d="M87.8013 9.14001C87.7987 9.13735 87.7973 9.13601 87.7947 9.13468C87.7973 9.13601 87.7987 9.13735 87.8013 9.14001Z" fill="#DEBAA1"/>
<path id="path1324" d="M87.8279 9.16674C86.0213 7.38808 83.5853 6.3894 81.0493 6.3894H73.7146C72.6039 6.3894 71.5893 7.02273 71.0999 8.02007L67.416 15.5307L63.8853 19.0614C63.1906 19.7561 63.2493 20.8987 64.0119 21.5187L69.8279 26.244C70.4986 26.7894 71.3372 27.0867 72.2012 27.0867H77.3306L89.8866 11.1921L87.8279 9.16674Z" fill="white"/>
<path id="path1326" d="M68.2119 18.556C66.6826 17.672 64.7266 18.196 63.844 19.7266L63.4226 20.4546C63.4773 20.856 63.6693 21.24 64.0119 21.5186L68.2199 24.9373L69.3826 22.924C70.2653 21.3946 69.7426 19.4387 68.2119 18.556Z" fill="#F0724E"/>
<path id="path1328" d="M87.828 9.16674L74.9907 27.0867H77.3306L89.8866 11.1921L87.828 9.16674Z" fill="#3D7195"/>
<path id="path1330" d="M96.8213 30.7814H78.1173L77.952 30.904C75.908 32.0187 74.1933 33.6507 72.976 35.6347L71.2693 38.4214C70.828 39.1414 70.32 39.8187 69.7506 40.4427L57.0679 54.3361V54.3374C52.9693 55.3614 49.1133 57.188 45.724 59.7094L40.596 63.5214L44.148 68.6454L53.4146 64.0827C54.7866 63.4067 56.248 62.9587 57.74 62.6174C59.424 62.2321 61.044 61.6041 62.548 60.7534L82.42 49.508C82.42 49.508 83.128 49.5414 84.244 49.4094C91.0853 48.596 92.6573 44.4347 95.8026 36.812C96.5893 34.9054 96.94 32.8401 96.8213 30.7814Z" fill="#3D7195"/>
<path id="path1332" d="M61.1013 43.4254L60.1706 43.1774C58.8826 42.8347 58.1093 41.5001 58.4533 40.2121L63.644 20.7187C63.9867 19.4307 65.3213 18.6574 66.6107 19.0001L67.54 19.2481C68.8293 19.5921 69.6013 20.9267 69.2586 22.2147L64.068 41.7067C63.7253 42.9947 62.3906 43.7681 61.1013 43.4254Z" fill="#F0724E"/>
<path id="path1334" d="M66.6639 31.9614L68.4786 25.1467L66.6639 31.9614Z" fill="#DEBAA1"/>
<path id="path1336" d="M68.4786 25.1466L68.8027 23.928L68.4786 25.1466Z" fill="#DEC2B3"/>
<path id="path1338" d="M68.8026 23.928L69.1453 22.644C69.1413 22.656 69.1386 22.668 69.1359 22.68L68.8026 23.928Z" fill="#D3583A"/>
<path id="path1340" d="M63.5627 42.4133C63.8373 41.8987 63.98 41.2494 63.7946 40.476C63.736 40.204 63.6386 39.94 63.5013 39.6907L68.1173 22.3587C68.4706 21.036 67.8373 19.6733 66.6773 19.052C66.8093 19.068 66.9426 19.0894 67.076 19.1254C68.608 19.5334 69.532 21.112 69.1453 22.644L68.8026 23.928L68.4786 25.1467L66.664 31.9614L64.1907 41.2427C64.072 41.6907 63.852 42.0867 63.5627 42.4133Z" fill="#D3583A"/>
<path id="path1342" d="M58.9654 38.9787L49.8654 51.656L49.628 51.8734L51.5706 53.9347L62.9506 43.2067C64.1133 42.112 64.168 40.2627 63.072 39.1001C61.9747 37.9374 60.128 37.8827 58.9654 38.9787Z" fill="#F0724E"/>
<path id="path1344" d="M51.584 53.9214L62.9507 43.2067C62.9546 43.2027 62.9587 43.1988 62.9627 43.1948C62.9587 43.1988 62.9546 43.2027 62.9507 43.2067L51.584 53.9214ZM62.964 43.1934C62.992 43.1667 63.02 43.1401 63.0467 43.1121C63.0467 43.1121 63.0466 43.1121 63.048 43.1121C63.02 43.1401 62.992 43.1667 62.964 43.1934Z" fill="#DEBAA1"/>
<path id="path1346" d="M63.0466 43.1121C63.2386 42.9134 63.3959 42.6947 63.5199 42.46C63.5346 42.4454 63.5493 42.4294 63.5626 42.4134C63.4186 42.684 63.2373 42.9174 63.0479 43.1121C63.0466 43.1121 63.0466 43.1121 63.0466 43.1121Z" fill="#D3583A"/>
<path id="path1348" d="M63.52 42.46C63.844 41.8494 63.9373 41.1427 63.7946 40.476C63.98 41.2494 63.8373 41.8987 63.5627 42.4133C63.5493 42.4293 63.5346 42.4454 63.52 42.46Z" fill="#B8442B"/>
<path id="path1350" d="M51.584 53.9214C51.7747 53.6867 51.8706 53.3948 51.8706 53.0974C51.872 52.8521 51.808 52.6027 51.6813 52.3761L63.604 39.9041C63.688 40.1014 63.7507 40.2921 63.7947 40.4761C63.9373 41.1427 63.844 41.8494 63.52 42.4601C63.396 42.6947 63.2387 42.9134 63.0467 43.1121C63.02 43.1401 62.992 43.1667 62.964 43.1934C62.964 43.1947 62.964 43.1948 62.9627 43.1948C62.9587 43.1988 62.9546 43.2027 62.9507 43.2067L51.584 53.9214Z" fill="#D3583A"/>
<path id="path1352" d="M49.5587 51.8894L49.5547 51.8853C48.2974 52.9667 45.9574 54.516 44.7547 56.224L42.4414 61.2133C42.3 61.5173 42.5734 61.8667 42.8987 61.788C44.5334 61.392 47.8867 57.3467 48.892 56.416L51.3947 54.1014L51.4627 54.052C52.0054 53.548 52.008 52.6667 51.4667 52.08C50.9427 51.516 50.1053 51.44 49.5587 51.8894Z" fill="#F0724E"/>
<path id="path1354" d="M42.8053 61.7987C42.6773 61.7987 42.5653 61.7347 42.4919 61.64C44.2373 60.6854 47.0359 57.3361 47.9399 56.5001L50.4426 54.1854L50.5106 54.1347C51.0533 53.632 51.0559 52.7494 50.5146 52.1641C50.3133 51.9481 50.0666 51.8041 49.8066 51.7334C49.9893 51.6441 50.188 51.6001 50.3906 51.6001C50.776 51.6001 51.1706 51.7614 51.4666 52.08C51.7373 52.3734 51.8719 52.7401 51.8706 53.0974C51.8706 53.4534 51.7333 53.8 51.4626 54.052L51.3946 54.1014L48.8919 56.416C48.3293 56.936 47.0333 58.4307 45.7133 59.716C44.696 60.708 43.664 61.576 42.944 61.776C42.9293 61.78 42.9133 61.784 42.8986 61.788C42.8666 61.7947 42.836 61.7987 42.8053 61.7987Z" fill="#D3583A"/>
<path id="path1356" d="M76.1107 32.1453H96.9L96.8493 31.252H77.4026C76.9546 31.5253 76.5227 31.8213 76.1107 32.1453Z" fill="#223C50"/>
<path id="path1358" d="M74.1039 7.86943L71.4293 7.50804C71.3053 7.66671 71.1919 7.83475 71.0999 8.02008L67.416 15.5308L66.5399 16.4067L72.8399 17.2561C75.4199 17.6041 77.8173 15.7761 78.1653 13.1948C78.5133 10.6134 76.6866 8.2161 74.1039 7.86943Z" fill="#F0724E"/>
</g>
</svg>
