<svg width="169" height="135" viewBox="0 0 169 135" fill="none" xmlns="http://www.w3.org/2000/svg">
<g id="Group 6">
<path id="path1470" d="M168.772 134.296H-0.0093689L10.804 119.105H157.96L168.772 134.296Z" fill="#FBC341"/>
<path id="path1472" d="M165.324 129.451L89.9373 127.861C90.44 127.755 90.9547 127.701 91.4707 127.701H95.2747C96.156 127.701 97.0267 127.331 97.5493 126.62C97.6307 126.511 97.7013 126.397 97.764 126.281L159.925 121.868L163.533 126.936L165.324 129.451Z" fill="#DC9632"/>
<path id="path1474" d="M108.073 70.628L67.5467 49.5094L65.7186 58.7814L63.4986 65.9627L62.5933 73.2027C62.4346 74.4774 63.1507 75.7014 64.3427 76.1854L76.7827 81.2467C77.4107 81.5014 78.0813 81.6334 78.7573 81.6334C79.792 81.6334 80.8026 81.3267 81.664 80.7521L85.436 78.2374H90.8213C91.3813 78.2374 91.836 78.6921 91.836 79.2521C91.836 79.6641 91.584 80.036 91.2013 80.192L89.5186 80.8747C84.64 82.852 80.028 85.4321 75.792 88.5547L72.3 91.128C70.1146 92.74 69.636 95.812 71.2266 98.0134L80.2573 109.412L90.172 122.245L77.7973 127.303L78.1013 127.673C78.6666 128.365 79.512 128.765 80.4053 128.765H85.9906C86.9733 128.765 87.9293 128.524 88.8506 128.179C89.688 127.863 90.576 127.701 91.4706 127.701H95.2747C96.156 127.701 97.0267 127.331 97.5493 126.62C98.2187 125.709 98.2586 124.567 97.7706 123.663L93.124 115.064C91.2293 109.172 88.2107 103.7 84.2133 98.9694L82.6946 97.172L87.436 95.968C94.8506 94.0827 101.953 91.14 108.527 87.2254C114.923 83.416 114.676 74.0694 108.073 70.628Z" fill="#F0724E"/>
<path id="path1476" d="M84.5573 58.3734C83.5746 58.752 82.768 59.1747 82.8293 59.528C82.9826 60.408 81.664 80.752 81.664 80.752L85.436 78.2373H87.8453L93.4546 63.0107L84.5573 58.3734Z" fill="#223C50"/>
<path id="path1478" d="M67.5467 49.5094L65.7186 58.7814L63.4986 65.9627L62.5933 73.2027C62.4346 74.4774 63.1507 75.7014 64.3427 76.1854L76.7827 81.2467C77.4107 81.5014 78.0813 81.6334 78.7573 81.6334C79.792 81.6334 80.8026 81.3267 81.664 80.7521L85.436 78.2374H86.8506L90.5666 61.5054L67.5467 49.5094Z" fill="#3D7195"/>
<path id="path1480" d="M70.6973 58.812L66.0027 57.3427L65.7186 58.78L63.4987 65.9627L63.4733 66.1587L67.96 67.5627C70.3653 68.316 72.952 66.9627 73.704 64.556C74.4573 62.1507 73.104 59.5654 70.6973 58.812Z" fill="#F0724E"/>
<path id="path1482" d="M67.0027 53.4321C66.7053 55.4894 68.1453 57.4147 70.2013 57.7107C72.2587 58.0067 74.184 56.5667 74.48 54.5107C74.5507 54.02 74.5173 53.5387 74.4053 53.0827L69.3853 50.4681C68.156 50.9467 67.2027 52.0414 67.0027 53.4321Z" fill="#F0724E"/>
<path id="path1484" d="M66.5906 78.556L65.3519 78.3773C63.6359 78.1307 62.4346 76.524 62.6826 74.808L62.86 73.5693C63.108 71.8533 64.7133 70.652 66.4293 70.9L67.6693 71.0787C69.384 71.3267 70.5853 72.932 70.3386 74.648L70.16 75.8867C69.9133 77.6027 68.3053 78.804 66.5906 78.556Z" fill="#F0724E"/>
<path id="path1486" d="M88.6213 60.4921L85.1627 78.4201L85.436 78.2374H86.8506L90.5667 61.5054L88.6213 60.4921Z" fill="white"/>
<path id="path1488" d="M108.073 70.628L105.684 69.384L90.8213 78.2374C91.3813 78.2374 91.836 78.6921 91.836 79.252C91.836 79.6641 91.584 80.036 91.2013 80.192L89.5186 80.8747C84.64 82.852 80.028 85.4321 75.792 88.5547L72.3 91.128C70.1147 92.74 69.636 95.812 71.2266 98.0134L80.2573 109.412L86.9853 118.121L88.504 117.364L85.1627 108.924L91.7467 115.751L93.124 115.064C91.2293 109.172 88.2107 103.7 84.2133 98.9694L82.6947 97.172L87.436 95.968C94.8507 94.0827 101.953 91.14 108.527 87.2254C114.923 83.416 114.676 74.0694 108.073 70.628Z" fill="#3D7195"/>
<path id="path1490" d="M80.06 97.0987L79.0906 97.696C77.7506 98.524 75.9786 98.104 75.1506 96.764L62.6306 76.4894C61.8013 75.1494 62.2213 73.376 63.5613 72.5493L64.5293 71.9507C65.868 71.124 67.6413 71.5427 68.4706 72.8827L80.9906 93.1573C81.8186 94.4973 81.4 96.2707 80.06 97.0987Z" fill="#F0724E"/>
<path id="path1492" d="M77.428 87.3894L73.2293 80.5894L77.4293 87.3881C77.428 87.3881 77.428 87.3881 77.428 87.3894Z" fill="#DEBAA1"/>
<path id="path1494" d="M80.7293 92.7347L77.428 87.3894C77.428 87.388 77.428 87.388 77.4293 87.388L80.692 92.6734C80.7053 92.6934 80.7173 92.7134 80.7293 92.7347Z" fill="#325569"/>
<path id="path1496" d="M64.0386 72.2547C64.0413 72.252 64.044 72.2507 64.0453 72.2494C64.0506 72.2467 64.0546 72.244 64.06 72.2414L64.0386 72.2547Z" fill="#D3583A"/>
<path id="path1498" d="M81.1213 93.7307C80.8826 93.2681 80.5093 92.8281 79.9426 92.4707C79.596 92.2414 79.2053 92.0721 78.784 91.9801L67.668 73.9801C67.0213 72.9334 65.8933 72.3574 64.7413 72.3574C64.3786 72.3574 64.012 72.4147 63.6586 72.5321C63.7786 72.4334 63.904 72.3388 64.0386 72.2548L64.06 72.2414C64.6146 71.9027 65.2293 71.7414 65.8386 71.7414C66.992 71.7414 68.1213 72.3187 68.768 73.3667L73.2293 80.5894L77.428 87.3894L80.7293 92.7347C80.916 93.0507 81.0453 93.3867 81.1213 93.7307Z" fill="#D3583A"/>
<path id="path1500" d="M74.628 95.172L77.292 113.412C77.2867 113.532 77.2773 113.659 77.2653 113.792L80.6093 113.949L81.484 95.4974C81.5733 93.6107 80.104 91.996 78.2186 91.9067C76.332 91.816 74.716 93.2867 74.628 95.172Z" fill="#F0724E"/>
<path id="path1502" d="M80.792 110.103L81.484 95.4974C81.4853 95.4907 81.4853 95.484 81.4853 95.4774C81.4853 95.484 81.4853 95.4907 81.484 95.4974L80.792 110.103ZM81.4853 95.4734C81.4973 95.1867 81.472 94.9067 81.416 94.636C81.416 94.6147 81.416 94.5934 81.4147 94.5707C81.4787 94.884 81.4973 95.1907 81.4853 95.4734Z" fill="#325569"/>
<path id="path1504" d="M81.416 94.636C81.3574 94.3587 81.2654 94.092 81.144 93.8427C81.1374 93.8053 81.1293 93.7667 81.1213 93.7307C81.264 94.0067 81.3574 94.292 81.4147 94.5707C81.416 94.5933 81.416 94.6147 81.416 94.636Z" fill="#D3583A"/>
<path id="path1506" d="M81.144 93.8427C80.8733 93.2867 80.4573 92.812 79.9427 92.4707C80.5093 92.828 80.8826 93.268 81.1213 93.7307C81.1293 93.7667 81.1373 93.8053 81.144 93.8427Z" fill="#B8442B"/>
<path id="path1508" d="M80.6093 113.939C80.5586 113.287 80.0813 112.733 79.424 112.535L79.3306 92.1521C79.556 92.2481 79.76 92.3547 79.9426 92.4707C80.4573 92.812 80.8733 93.2867 81.144 93.8427C81.2653 94.092 81.3573 94.3587 81.416 94.636C81.472 94.9067 81.4973 95.1867 81.4853 95.4734C81.4853 95.4747 81.4853 95.476 81.4853 95.4774C81.4853 95.484 81.4853 95.4907 81.4839 95.4974L80.792 110.103L80.6093 113.939Z" fill="#D3583A"/>
<path id="path1510" d="M77.2213 113.863H77.2133C77.0306 115.813 76.3133 119.051 76.6946 121.488L78.8173 127.627C78.9466 128 79.4653 128.075 79.6786 127.74C80.744 126.063 80.2759 119.872 80.3666 118.259L80.5946 114.236L80.612 114.139C80.6613 113.265 79.9399 112.513 78.9999 112.46C78.0893 112.409 77.3159 113.031 77.2213 113.863Z" fill="#F0724E"/>
<path id="path1512" d="M79.5467 127.875C79.5973 127.841 79.6427 127.796 79.6787 127.74C79.8813 127.419 80.0293 126.933 80.136 126.347C80.0293 126.933 79.8813 127.419 79.6787 127.74C79.6427 127.796 79.5973 127.841 79.5467 127.875Z" fill="#D3583A"/>
<path id="path1514" d="M79 112.46C78.9653 112.459 78.9293 112.457 78.8947 112.457C78.9293 112.457 78.9653 112.459 79 112.46ZM78.8773 112.457H78.8787H78.8773Z" fill="#D3583A"/>
<path id="path1516" d="M79.2853 127.952C79.26 127.952 79.236 127.951 79.2107 127.947C79.912 125.704 79.544 120.561 79.628 119.111L79.856 115.088L79.872 114.991C79.9213 114.117 79.1986 113.365 78.2586 113.312C78.224 113.311 78.1893 113.309 78.1546 113.309C77.844 113.309 77.5533 113.389 77.304 113.527C77.528 112.905 78.148 112.464 78.8773 112.457H78.8787C78.884 112.457 78.8893 112.457 78.8946 112.457C78.9293 112.457 78.9653 112.459 79 112.46C79.9106 112.512 80.616 113.219 80.6147 114.057C80.6147 114.084 80.6133 114.112 80.612 114.139L80.5946 114.236L80.3666 118.259C80.3586 118.419 80.3546 118.625 80.3546 118.868C80.3546 119.681 80.3933 120.904 80.3933 122.197C80.3933 123.652 80.344 125.195 80.136 126.347C80.0293 126.933 79.8813 127.419 79.6787 127.74C79.6427 127.796 79.5973 127.841 79.5467 127.875C79.468 127.928 79.3773 127.952 79.2853 127.952Z" fill="#D3583A"/>
<path id="path1518" d="M72.9026 29.0334L71.8253 28.9508C70.336 28.8361 69.0226 29.9628 68.9093 31.4534L67.1813 54.0067C67.0667 55.4987 68.192 56.8107 69.6827 56.9241L70.7586 57.0067C72.2506 57.1214 73.5626 55.9961 73.6773 54.5054L75.4053 31.9508C75.52 30.4601 74.3933 29.1481 72.9026 29.0334Z" fill="#F0724E"/>
<path id="path1520" d="M70.268 56.9694C70.252 56.968 70.2373 56.968 70.2213 56.9667C70.208 56.9654 70.1933 56.964 70.18 56.9627L70.268 56.9694Z" fill="#D3583A"/>
<path id="path1522" d="M73.8107 52.7733H73.8093L75.3693 32.4133C75.368 32.4386 75.3666 32.464 75.364 32.4893L73.8107 52.7733Z" fill="#DEBAA1"/>
<path id="path1524" d="M73.7133 54.0227L73.8093 52.7734H73.8106L73.7186 53.9667C73.7173 53.9854 73.716 54.0041 73.7133 54.0227Z" fill="#D3583A"/>
<path id="path1526" d="M70.4707 56.976C70.4027 56.976 70.336 56.9734 70.268 56.9694L70.18 56.9627C70.0413 56.9493 69.9053 56.9253 69.772 56.896C71.2307 56.668 72.4053 55.46 72.524 53.9293L74.0787 33.6254C74.6093 33.2027 75.004 32.6173 75.192 31.952C75.192 31.952 75.192 31.952 75.192 31.9507C75.1933 31.948 75.1947 31.944 75.1947 31.9413C75.196 31.936 75.1973 31.9307 75.1987 31.9254C75.2 31.924 75.2 31.924 75.2 31.924C75.2387 31.7827 75.2667 31.6387 75.2867 31.4907C75.356 31.7867 75.3867 32.096 75.3693 32.4133L73.8093 52.7734L73.7133 54.0227C73.5573 55.6987 72.1333 56.976 70.4707 56.976Z" fill="#D3583A"/>
<path id="path1528" d="M68.804 31.2787L71.0747 13.9293C71.068 13.8147 71.0573 13.6947 71.0453 13.568L74.216 13.372L75.3053 30.8733C75.4187 32.6627 74.0453 34.2174 72.2573 34.328C70.4693 34.44 68.9147 33.068 68.804 31.2787Z" fill="#F0724E"/>
<path id="path1530" d="M75.312 31.0106C75.3107 30.9653 75.3093 30.92 75.3053 30.8733C75.3093 30.92 75.3107 30.9653 75.312 31.0106Z" fill="#DEBAA1"/>
<path id="path1532" d="M75.2866 31.4907C75.2866 31.4907 75.2866 31.4907 75.2853 31.4907C75.3066 31.3333 75.3147 31.1733 75.312 31.0107C75.3147 31.1733 75.3066 31.3333 75.2866 31.4907Z" fill="#D3583A"/>
<path id="path1534" d="M75.192 31.952C75.192 31.952 75.192 31.9521 75.192 31.9507C75.192 31.9521 75.192 31.952 75.192 31.952ZM75.1946 31.9414C75.196 31.936 75.1973 31.9307 75.1986 31.9254C75.1973 31.9307 75.196 31.936 75.1946 31.9414ZM75.2 31.924C75.2373 31.7827 75.2666 31.6387 75.2853 31.4907C75.2866 31.4907 75.2866 31.4907 75.2866 31.4907C75.2666 31.6387 75.2386 31.7827 75.2 31.924Z" fill="#B8442B"/>
<path id="path1536" d="M74.0506 33.6454L73.1573 14.716C73.7533 14.508 74.1786 13.9867 74.2173 13.3827L74.76 22.1227L75.3053 30.8734C75.3093 30.9201 75.3106 30.9654 75.312 31.0107C75.3146 31.1734 75.3066 31.3334 75.2853 31.4907C75.2666 31.6387 75.2373 31.7827 75.2 31.924C75.2 31.924 75.2 31.9241 75.1986 31.9254C75.1973 31.9307 75.196 31.936 75.1946 31.9414C75.1946 31.944 75.1933 31.9481 75.192 31.9507C75.192 31.9521 75.192 31.952 75.192 31.952C75.0013 32.628 74.5946 33.2201 74.0506 33.6454Z" fill="#D3583A"/>
<path id="path1538" d="M71.0027 13.5027H70.9933C70.7946 11.6533 70.068 8.59064 70.3933 6.27331L72.3226 0.415952C72.44 0.0586185 72.9307 -0.0187016 73.1373 0.295965C74.172 1.8733 73.8146 7.75462 73.9253 9.28529L74.1987 13.1L74.216 13.192C74.2747 14.0213 73.6 14.7439 72.7093 14.8079C71.848 14.8693 71.104 14.2893 71.0027 13.5027Z" fill="#F0724E"/>
<path id="path1540" d="M72.584 14.812C72.5813 14.812 72.5787 14.812 72.576 14.812C72.5787 14.812 72.5813 14.812 72.584 14.812C72.6253 14.812 72.668 14.8107 72.7093 14.808C72.8667 14.7973 73.0173 14.7653 73.1573 14.716C73.0173 14.7653 72.8667 14.7973 72.7093 14.808C72.668 14.8107 72.6253 14.812 72.584 14.812ZM72.5733 14.812C72.564 14.812 72.556 14.812 72.5467 14.812C72.556 14.812 72.564 14.812 72.5733 14.812ZM72.5453 14.812C72.54 14.812 72.5347 14.812 72.5293 14.812C72.5347 14.812 72.54 14.812 72.5453 14.812ZM72.5253 14.812C72.5213 14.812 72.516 14.8107 72.512 14.8107C72.516 14.8107 72.5213 14.812 72.5253 14.812ZM72.508 14.8107C72.5053 14.8107 72.5027 14.8107 72.5 14.8107C72.5027 14.8107 72.5053 14.8107 72.508 14.8107ZM72.4946 14.8107C72.4906 14.8107 72.4867 14.8094 72.4827 14.8094C72.4867 14.8094 72.4906 14.8107 72.4946 14.8107ZM72.476 14.8094C72.4733 14.8094 72.4707 14.8093 72.468 14.808C72.4707 14.8093 72.4733 14.8094 72.476 14.8094ZM72.4586 14.808C72.4573 14.808 72.456 14.808 72.4533 14.808C72.456 14.808 72.4573 14.808 72.4586 14.808ZM72.4413 14.8067C72.4413 14.8067 72.44 14.8067 72.4387 14.8067C72.44 14.8067 72.44 14.8067 72.4413 14.8067Z" fill="#D3583A"/>
<path id="path1542" d="M72.584 14.812C72.5813 14.812 72.5787 14.812 72.576 14.812C72.5747 14.812 72.5747 14.812 72.5733 14.812C72.564 14.812 72.556 14.812 72.5467 14.812C72.5454 14.812 72.5454 14.812 72.5454 14.812C72.54 14.812 72.5347 14.812 72.5293 14.812C72.528 14.812 72.5267 14.812 72.5253 14.812C72.5213 14.812 72.516 14.8107 72.512 14.8107C72.5107 14.8107 72.5093 14.8107 72.508 14.8107C72.5053 14.8107 72.5027 14.8107 72.5 14.8107C72.4987 14.8107 72.496 14.8107 72.4947 14.8107C72.4907 14.8107 72.4867 14.8094 72.4827 14.8094C72.4814 14.8094 72.4787 14.8094 72.476 14.8094C72.4734 14.8094 72.4707 14.8093 72.468 14.808C72.4653 14.808 72.4627 14.808 72.4587 14.808C72.4573 14.808 72.456 14.808 72.4533 14.808C72.4493 14.8067 72.4453 14.8067 72.4413 14.8067C72.44 14.8067 72.44 14.8067 72.4387 14.8067C71.8133 14.7534 71.2893 14.3627 71.0853 13.82C71.3173 13.944 71.5853 14.0147 71.8693 14.0147C71.9107 14.0147 71.9533 14.0134 71.9947 14.0094C72.8867 13.9454 73.5613 13.2227 73.5013 12.3933L73.484 12.3027L73.2107 8.488C73.112 7.11067 73.388 2.22402 72.6907 0.106689C72.7173 0.101356 72.744 0.100049 72.7693 0.100049C72.9107 0.100049 73.0493 0.162679 73.1373 0.296012C73.8493 1.38001 73.9027 4.50002 73.9027 6.84002C73.9027 7.25869 73.9 7.65336 73.9 8.00669C73.9 8.54936 73.9053 8.996 73.9253 9.28533L74.1987 13.1L74.216 13.192C74.2187 13.224 74.22 13.256 74.22 13.288C74.22 13.32 74.2187 13.352 74.2173 13.3827C74.1787 13.9867 73.7533 14.508 73.1573 14.716C73.0173 14.7653 72.8667 14.7973 72.7094 14.808C72.668 14.8107 72.6253 14.812 72.584 14.812Z" fill="#D3583A"/>
<path id="path1544" d="M66.5093 66.2227L54.952 60.9561L57.208 55.8214L58.0546 55.8907L59.2253 54.5547L59.4346 54.9547C59.792 55.6374 60.4733 56.0881 61.24 56.1507L67.924 59.0094L66.5093 66.2227Z" fill="#F0724E"/>
<path id="path1546" d="M60.968 56.1121C60.5093 56.0174 60.0933 55.7801 59.7773 55.4401C60.0933 55.7801 60.5093 56.0161 60.968 56.1121ZM59.776 55.4388C59.7733 55.4361 59.7706 55.4321 59.768 55.4294C59.7706 55.4321 59.7733 55.4361 59.776 55.4388ZM59.764 55.4254C59.7613 55.4228 59.76 55.42 59.7573 55.4187C59.76 55.42 59.7613 55.4228 59.764 55.4254ZM59.7506 55.4107C59.7493 55.4094 59.748 55.4081 59.7466 55.4067C59.748 55.4081 59.7493 55.4094 59.7506 55.4107Z" fill="#DEBAA1"/>
<path id="path1548" d="M57.8107 59.524C58.7627 58.8347 59.3293 57.724 59.32 56.54L59.3133 55.8094C59.3107 55.3907 59.2813 54.9734 59.2267 54.5587L59.4347 54.9547C59.5213 55.1187 59.6267 55.2707 59.7467 55.4067C59.748 55.408 59.7493 55.4093 59.7506 55.4107C59.7533 55.4133 59.7546 55.416 59.7573 55.4187C59.76 55.42 59.7613 55.4227 59.764 55.4254C59.7653 55.4267 59.7667 55.428 59.768 55.4293C59.7707 55.432 59.7733 55.436 59.776 55.4387L59.7773 55.44C60.0933 55.78 60.5093 56.0174 60.968 56.112C60.644 57.2547 59.8173 59.0853 57.8107 59.524Z" fill="#D3583A"/>
<path id="path1550" d="M50.0813 58.524C53.5453 57.86 56.8347 59.8187 57.424 62.9013C58.016 65.9827 55.6867 69.02 52.2213 69.684C48.756 70.348 45.4693 68.388 44.8773 65.3067C44.2867 62.2253 46.616 59.1893 50.0813 58.524Z" fill="#682B22"/>
<path id="path1552" d="M52.8893 72.4507L52.7373 72.3987L52.692 72.0507C52.7027 72.036 53.7547 70.6467 53.5013 69.4174C53.3907 68.8814 53.0373 68.444 52.452 68.116C52.332 68.0494 52.2893 67.8974 52.3573 67.7774L52.6947 67.6814C53.4133 68.0827 53.8493 68.6347 53.9893 69.32C54.288 70.7734 53.136 72.2894 53.0853 72.3534L52.8893 72.4507Z" fill="#682B22"/>
<path id="path1554" d="M60.1133 63.752L59.8707 63.5627C59.8667 63.5453 59.4387 61.8573 58.32 61.288C57.832 61.0387 57.2667 61.0427 56.6467 61.296C56.5173 61.348 56.372 61.2854 56.3227 61.1587C56.2707 61.032 56.3307 60.8867 56.4587 60.8347C57.224 60.524 57.9253 60.5294 58.548 60.8454C59.8693 61.5187 60.336 63.3654 60.356 63.444C60.3867 63.5774 60.3053 63.712 60.172 63.7454L60.1133 63.752Z" fill="#682B22"/>
<path id="path1556" d="M59.8853 64.5734C59.7506 64.5734 59.6413 64.468 59.636 64.3334C59.636 64.312 59.5427 62.2334 58.4667 61.5747C57.9947 61.2854 57.3787 61.3147 56.6387 61.6587C56.5133 61.7134 56.364 61.6614 56.3067 61.5361C56.2507 61.4121 56.304 61.2641 56.428 61.2054C57.3307 60.7881 58.104 60.7707 58.7267 61.1507C60.0293 61.9494 60.1307 64.2174 60.1347 64.3147C60.1387 64.4521 60.0307 64.5667 59.8947 64.572L59.8853 64.5734Z" fill="#682B22"/>
<path id="path1558" d="M44.1773 54.208C47.044 52.9067 50.7706 54.9427 52.5026 58.7534C54.2333 62.5667 53.3106 66.712 50.4453 68.0134C47.5786 69.3147 43.852 67.2787 42.1213 63.4667C40.3893 59.6547 41.3106 55.5093 44.1773 54.208Z" fill="#682B22"/>
<path id="path1560" d="M42.948 63.1774C44.528 66.6587 47.772 68.6494 50.5066 67.98L50.4453 68.0134C47.5786 69.3147 43.852 67.2787 42.1213 63.4667C40.3893 59.6547 41.3106 55.5093 44.1773 54.208C44.4266 54.0947 44.684 54.016 44.944 53.952C42.128 55.2853 41.2307 59.3947 42.948 63.1774Z" fill="#B14B3C"/>
<path id="path1562" d="M47.9973 64.6867C50.4907 64.2094 52.8773 65.732 53.3307 68.0894C53.7827 70.448 52.128 72.7467 49.6347 73.224C47.1413 73.7027 44.7534 72.1787 44.3027 69.8214C43.8494 67.464 45.504 65.1654 47.9973 64.6867Z" fill="#682B22"/>
<path id="path1564" d="M48.532 65.0734C46.04 65.552 44.3854 67.8507 44.8374 70.208C45.0254 71.188 45.5507 72.0213 46.2774 72.6293C45.2747 72.016 44.5334 71.0294 44.3027 69.8214C43.8494 67.464 45.504 65.1654 47.9973 64.6867C49.4533 64.408 50.8693 64.8147 51.8893 65.668C50.936 65.0854 49.7493 64.84 48.532 65.0734Z" fill="#B14B3C"/>
<path id="path1566" d="M52.2293 63.6534C52.0053 63.6534 51.8013 63.5027 51.7467 63.2761C50.8947 59.8654 49.5293 57.7014 47.692 56.844C45.8227 55.9734 44.0654 56.8081 44.048 56.8174C43.8014 56.9374 43.504 56.8347 43.3814 56.5894C43.2614 56.3441 43.3613 56.0467 43.6067 55.924C43.696 55.8814 45.7853 54.8694 48.0933 55.9334C50.2267 56.9187 51.7813 59.308 52.712 63.0347C52.7787 63.3014 52.616 63.572 52.3507 63.6387L52.2293 63.6534Z" fill="#682B22"/>
<path id="path1568" d="M49.1747 60.46L50.3427 60.6694C50.3427 60.6694 52.488 61.156 52.6933 63.4347L51.5187 64.5254L50.4454 65.6067L49.3213 65.16L48.5707 63.0027L49.244 60.6587L49.1747 60.46Z" fill="#682B22"/>
<path id="path1570" d="M44.964 58.58C44.964 58.58 45.2427 55.3267 49.0133 54.0334C49.3347 53.9201 49.6253 53.7294 49.8547 53.476L51.62 51.532C51.7387 51.4027 51.916 51.344 52.0867 51.3773C52.2627 51.412 52.4067 51.5361 52.4653 51.7054L52.604 52.1014L52.7107 52.2174L52.872 52.2867L53.184 52.18L53.3707 51.8347L53.8093 51.9734L54.272 51.7707L54.5293 51.6293C54.828 51.464 55.08 51.664 55.4173 51.716L56.488 51.1187C57.388 50.8093 58.364 51.3027 58.6493 52.2094L58.84 52.808C59.1453 53.7787 59.3053 54.7907 59.3133 55.8094L59.32 56.54C59.3293 57.7907 58.6973 58.9587 57.6467 59.6361L56.3147 60.4947C57.2827 63.2667 55.444 66.2454 52.528 66.58C50.5333 66.8094 48.46 66.4774 47.248 64.6507C47.248 64.6507 44.936 61.6427 44.964 58.58Z" fill="#F0724E"/>
<path id="path1572" d="M54.4533 53.2027C54.64 52.684 54.6453 51.9694 54.6453 51.9694C54.66 51.7867 54.6413 51.668 54.608 51.5933C54.664 51.5733 54.7187 51.5653 54.7733 51.5653C54.9773 51.5653 55.176 51.6787 55.4173 51.716C55.4173 51.716 55.1013 52.7907 54.4533 53.2027Z" fill="#D3583A"/>
<path id="path1574" d="M54.2173 53.4893C54.1067 53.28 53.7534 52.6787 53.216 52.36C53.216 52.36 52.8227 52.28 52.9253 51.8627C52.9253 51.8627 53.2173 51.5547 53.764 51.8427C53.764 51.8427 54.1653 51.4627 54.376 51.476C54.376 51.476 54.692 51.3547 54.6453 51.9694C54.6453 51.9694 54.6373 53.0187 54.308 53.496L54.2173 53.4893Z" fill="#B73C2B"/>
<path id="path1576" d="M52.0866 51.3773C52.0613 51.3733 52.036 51.3694 52.0107 51.3694C52.036 51.3694 52.0613 51.3733 52.0866 51.3773Z" fill="#DEBAA1"/>
<path id="path1578" d="M52.212 53.7774L52.26 53.5107C52.2386 53.3774 52.156 53.26 52.0453 53.1827C51.4307 52.7547 51.62 52.2747 51.62 52.2747C51.752 51.596 51.612 51.544 51.612 51.544L51.6387 51.5174C51.7347 51.4227 51.8613 51.368 51.9933 51.368C51.9986 51.368 52.0053 51.3694 52.0107 51.3694C52.036 51.3694 52.0613 51.3734 52.0866 51.3774C52.2626 51.412 52.4067 51.5361 52.4653 51.7054L52.596 52.08L52.604 52.1014C52.7707 52.476 52.868 53.1121 52.868 53.1121C52.9987 53.7627 52.212 53.7774 52.212 53.7774Z" fill="#D3583A"/>
<path id="path1580" d="M49.7946 54.6347C49.6666 54.8627 49.6573 55.1187 49.6813 55.3614C49.6946 55.4841 49.7186 55.604 49.7519 55.7214L49.808 55.8934L49.8386 55.98L49.8693 56.0561C49.9466 56.2627 50.016 56.4747 50.0653 56.6841L50.108 56.9894L50.0426 57.2347L50.028 57.2494L50.0333 57.3641L50.1333 57.3721L50.2266 57.3054L50.2946 57.2134L50.336 57.1147L50.3613 57.016C50.3826 56.884 50.3826 56.7561 50.3666 56.6334C50.3386 56.3881 50.2706 56.1574 50.1853 55.9334L50.06 55.6214L49.96 55.3107C49.9053 55.104 49.864 54.8828 49.8813 54.6721L49.8826 54.6614L49.8386 54.6094L49.7946 54.6347Z" fill="#682B22"/>
<path id="path1582" d="M50.2933 55.3494C50.4986 55.2774 50.6386 55.1361 50.6013 55.0334C50.5666 54.9321 50.3693 54.9067 50.164 54.9787C49.9586 55.0507 49.82 55.1921 49.856 55.2948C49.892 55.3961 50.0866 55.42 50.2933 55.3494Z" fill="#682B22"/>
<path id="path1584" d="M50.6333 54.7467L50.6267 54.7293L50.5734 54.708L50.5507 54.7614C50.5507 54.764 50.62 54.9293 50.5467 55.0627C50.4987 55.1493 50.4027 55.2054 50.2587 55.2307L50.2253 55.2787L50.2734 55.312C50.4427 55.2814 50.56 55.2107 50.6187 55.1013C50.6947 54.96 50.6507 54.8 50.6333 54.7467Z" fill="#682B22"/>
<path id="path1586" d="M48.0867 55.1054C48.0027 55.2374 47.996 55.36 48.0107 55.4827C48.0293 55.604 48.0547 55.724 48.084 55.8427C48.1387 56.0813 48.2187 56.3107 48.312 56.5347C48.4093 56.7573 48.5213 56.972 48.6573 57.1707C48.7907 57.372 48.9467 57.5547 49.116 57.7213H49.1747L49.1814 57.6733V57.6707C49.076 57.4627 48.9693 57.2613 48.892 57.0467C48.808 56.8373 48.74 56.6227 48.6867 56.4067C48.628 56.1907 48.588 55.972 48.5573 55.752L48.5253 55.424L48.4013 55.108L48.38 55.084L48.1213 55.0653L48.0867 55.1054Z" fill="#682B22"/>
<path id="path1588" d="M52.1627 52.1054C52.1493 52.2428 52.16 52.3761 52.204 52.5067C52.2453 52.6321 52.3226 52.7681 52.4213 52.8507L52.5773 53.1308L52.5013 53.452L52.512 53.4921L52.544 53.4907C52.648 53.4094 52.7307 53.2707 52.724 53.116C52.72 52.9614 52.6347 52.8321 52.5293 52.7361L52.312 52.4668L52.2546 52.1174V52.1134L52.212 52.0641L52.1627 52.1054Z" fill="#682B22"/>
<path id="path1590" d="M43.4467 56.2374C46.0213 55.068 49.444 57.0614 51.0906 60.6894C52.7386 64.3161 51.9853 68.2054 49.4107 69.3747C46.8347 70.5427 43.4133 68.5507 41.7653 64.9214C40.1187 61.2947 40.8707 57.4054 43.4467 56.2374Z" fill="#682B22"/>
<path id="path1592" d="M43.8093 56.376C41.24 57.5427 40.5507 61.564 42.2733 65.3573C42.7373 66.38 43.332 67.276 43.9987 68.024C43.116 67.224 42.3333 66.1734 41.7653 64.9214C40.1187 61.2947 40.8707 57.4053 43.4467 56.2373C44.7653 55.6373 46.3066 55.8733 47.7186 56.7293C46.3973 56.0107 45.0067 55.8334 43.8093 56.376Z" fill="#B14B3C"/>
<path id="path1594" d="M46.472 59.3347C46.472 59.3347 47.1493 58.7667 48.724 59.9667C48.724 59.9667 49.6146 60.4534 50.1573 59.9947C50.1573 59.9947 51.428 58.5174 52.272 59.2787C52.272 59.2787 53.02 59.8227 52.6373 60.3307C52.6373 60.3307 51.4346 61.4667 52.3906 62.4747C52.3906 62.4747 53.3173 63.576 54.928 62.38C54.928 62.38 55.7786 61.776 55.808 60.7814C55.808 60.7814 57.5973 59.332 59.2933 61.86C59.2933 61.86 59.9853 65.8107 54.8213 67.8854C52.676 68.748 50.2173 68.4694 48.3746 67.072C47.3293 66.2787 46.284 65.0587 45.4733 63.1867C45.4733 63.1867 44.3906 60.8467 45.4666 59.74C45.4666 59.74 45.6186 59.4294 46.472 59.3347Z" fill="#682B22"/>
<path id="path1596" d="M53.7107 62.356C53.2013 62.356 52.856 61.9693 52.856 61.9693C52.4746 61.4933 52.9733 60.848 53.1293 60.6667C53.2893 60.7987 53.5027 60.8627 53.7427 60.8627C54.18 60.8627 54.7066 60.648 55.164 60.244L55.336 60.0707L55.4186 60.1507C55.7173 60.44 55.0853 61.3373 55.0853 61.3373C54.584 62.1307 54.0987 62.356 53.7107 62.356Z" fill="#BE462D"/>
<path id="path1598" d="M55.824 60.0507C55.984 59.9947 56.068 59.82 56.0134 59.66C55.9574 59.5 55.7813 59.416 55.6227 59.472C55.4627 59.528 55.3773 59.7027 55.4333 59.8613C55.4893 60.0227 55.664 60.1067 55.824 60.0507Z" fill="#923C1D"/>
<path id="path1600" d="M107.855 70.5147L106.889 70.012L91.712 78.792C91.784 78.932 91.836 79.084 91.836 79.252C91.836 79.5227 91.72 79.7681 91.5386 79.9534L107.855 70.5147Z" fill="#223C50"/>
<path id="path1602" d="M89.3133 111.421L89.3467 111.544C89.3573 111.716 89.224 111.864 89.052 111.875L85.0973 112.103C84.924 112.112 84.7773 111.981 84.7667 111.808C84.756 111.635 84.8893 111.488 85.0613 111.477L89.016 111.249C89.144 111.243 89.2587 111.313 89.3133 111.421Z" fill="#3D7195"/>
<path id="path1604" d="M88.6946 110.091L88.6426 110.445L85.9253 113.335C85.8066 113.461 85.6093 113.467 85.4826 113.349C85.3573 113.231 85.352 113.032 85.4693 112.907L88.1879 110.017C88.3053 109.891 88.5039 109.885 88.6306 110.003L88.6946 110.091Z" fill="#3D7195"/>
<path id="path1606" d="M90.2053 112.907L90.2387 113.029C90.2493 113.201 90.116 113.349 89.944 113.36L85.9893 113.588C85.8173 113.599 85.6693 113.468 85.6587 113.293C85.6493 113.121 85.7813 112.973 85.9533 112.963L89.908 112.735C90.036 112.727 90.1507 112.799 90.2053 112.907Z" fill="#3D7195"/>
<path id="path1608" d="M89.5867 111.576L89.536 111.931L86.8173 114.82C86.6986 114.947 86.5013 114.952 86.3747 114.833C86.2507 114.716 86.244 114.517 86.3613 114.391L89.08 111.501C89.1973 111.376 89.3973 111.371 89.5227 111.489L89.5867 111.576Z" fill="#3D7195"/>
<path id="path1610" d="M90.9506 114.388L90.9827 114.509C90.9933 114.683 90.8613 114.831 90.6893 114.84L86.7346 115.068C86.5626 115.079 86.4146 114.948 86.404 114.773C86.3933 114.601 86.5266 114.453 86.6973 114.443L90.652 114.215C90.7813 114.208 90.896 114.279 90.9506 114.388Z" fill="#3D7195"/>
<path id="path1612" d="M90.332 113.056L90.2813 113.412L87.5626 116.301C87.444 116.427 87.2466 116.433 87.12 116.315C86.9933 116.195 86.988 115.999 87.1067 115.872L89.824 112.983C89.9426 112.857 90.14 112.851 90.2666 112.969L90.332 113.056Z" fill="#3D7195"/>
</g>
</svg>
