<svg width="170" height="91" viewBox="0 0 170 91" fill="none" xmlns="http://www.w3.org/2000/svg">
<g id="Group 12">
<path id="path756" d="M169.449 90.7707H0.667999L11.4813 75.58H158.637L169.449 90.7707Z" fill="#FBC341"/>
<path id="path758" d="M169.449 90.7707L50.4466 88.4694L50.256 84.9147C50.7146 84.864 51.1773 84.7693 51.6373 84.628C53.476 84.0627 54.924 82.8667 55.7573 81.4067C57.2666 80.2 57.8933 78.8894 58.1306 77.8227L61.264 77.752L61.7613 77.916C61.7253 79.476 62.9333 80.8134 64.504 80.92L88.3813 82.552L89.3013 82.6147C89.3026 82.6147 89.304 82.6147 89.304 82.6147L90.008 82.6627C90.076 82.668 90.1427 82.6694 90.2093 82.6694C90.5107 82.6694 90.8027 82.624 91.0773 82.5374C91.0893 82.5374 91.1 82.536 91.112 82.5347L104.099 81.6174L106.947 81.9187C107.352 81.9627 107.753 81.9827 108.151 81.9827C108.153 81.9827 108.156 81.9827 108.159 81.9827C109.789 81.9827 111.329 81.6267 112.713 80.9933L115.299 80.7867C117.013 80.6494 123.609 80.9947 125.368 79.82C125.719 79.5854 125.628 79.036 125.227 78.908L118.643 76.8C118.293 76.7534 117.928 76.728 117.552 76.7214C117.599 76.6454 117.645 76.5693 117.689 76.4933L158.637 75.58L169.449 90.7707Z" fill="#DC9632"/>
<path id="path760" d="M66.1893 79.38L53.5 75.1867L55.2747 69.5587L56.1693 69.5333L57.2413 68.004L57.5053 68.3987C57.956 69.072 58.72 69.4667 59.5293 69.444L66.848 71.6747L66.1893 79.38Z" fill="#F0724E"/>
<path id="path762" d="M59.2427 69.4347C58.588 69.372 57.9853 69.0387 57.5853 68.5093C57.9853 69.0373 58.588 69.372 59.2427 69.4333V69.4347ZM57.5827 68.5067C57.58 68.5027 57.5787 68.5 57.576 68.4973C57.5787 68.5 57.58 68.5027 57.5827 68.5067ZM57.572 68.492C57.5693 68.4893 57.568 68.4867 57.5666 68.484C57.568 68.4867 57.5693 68.4893 57.572 68.492ZM57.5613 68.4773C57.56 68.4747 57.5573 68.4733 57.556 68.4707C57.5573 68.4733 57.56 68.4747 57.5613 68.4773ZM57.5506 68.4627C57.5493 68.46 57.548 68.4587 57.5467 68.456C57.548 68.4587 57.5493 68.46 57.5506 68.4627ZM57.54 68.448C57.5386 68.4453 57.5373 68.444 57.536 68.4427C57.5373 68.444 57.5386 68.4453 57.54 68.448ZM57.5293 68.432C57.528 68.4307 57.5266 68.4293 57.5253 68.428C57.5266 68.4293 57.528 68.4307 57.5293 68.432ZM57.5186 68.4173C57.5173 68.416 57.5173 68.4147 57.516 68.4133C57.5173 68.4147 57.5173 68.416 57.5186 68.4173Z" fill="#DEBAA1"/>
<path id="path764" d="M56.3267 73.364C57.2453 72.5333 57.7107 71.3067 57.5653 70.0707L57.476 69.3067C57.4253 68.8694 57.348 68.4347 57.244 68.008L57.5053 68.3987C57.5093 68.4027 57.512 68.408 57.516 68.4134C57.5173 68.4147 57.5173 68.416 57.5187 68.4174C57.5213 68.4214 57.524 68.424 57.5253 68.428C57.5267 68.4293 57.528 68.4307 57.5293 68.432C57.532 68.436 57.5333 68.4387 57.536 68.4427C57.5373 68.444 57.5387 68.4454 57.54 68.448C57.5413 68.4507 57.544 68.4534 57.5467 68.456C57.548 68.4587 57.5493 68.46 57.5507 68.4627C57.552 68.4653 57.5547 68.468 57.556 68.4707C57.5573 68.4734 57.56 68.4747 57.5613 68.4774C57.5627 68.48 57.564 68.4814 57.5667 68.484C57.568 68.4867 57.5693 68.4893 57.572 68.492C57.5733 68.4933 57.5747 68.496 57.576 68.4973C57.5787 68.5 57.58 68.5027 57.5827 68.5067C57.5827 68.5067 57.584 68.508 57.5853 68.5094C57.9853 69.0387 58.588 69.372 59.2427 69.4347C59.032 70.668 58.376 72.676 56.3267 73.364Z" fill="#D3583A"/>
<path id="path766" d="M48.128 73.1973C51.6773 72.108 55.3387 73.784 56.308 76.94C57.2773 80.096 55.1867 83.5373 51.6373 84.628C48.0893 85.7173 44.4267 84.0413 43.4573 80.8853C42.488 77.7293 44.58 74.288 48.128 73.1973Z" fill="#682B22"/>
<path id="path768" d="M52.6226 87.4427L52.4893 87.4054C52.3666 87.3307 52.3293 87.1734 52.4026 87.0507C52.412 87.0347 53.356 85.4627 52.9506 84.2027C52.7733 83.652 52.3533 83.2333 51.7013 82.9573C51.5706 82.9013 51.5093 82.7507 51.5653 82.62C51.62 82.488 51.772 82.4267 51.9026 82.4827C52.6986 82.82 53.2173 83.348 53.4426 84.0467C53.9186 85.5307 52.8866 87.248 52.8426 87.3187L52.6226 87.4427Z" fill="#682B22"/>
<path id="path770" d="M59.1893 77.5214L58.9467 77.352C58.9413 77.3347 58.3 75.6147 57.0627 75.1467C56.5227 74.9414 55.932 75.0094 55.3093 75.3454C55.1853 75.4134 55.028 75.3667 54.9613 75.2427C54.892 75.116 54.94 74.96 55.064 74.892C55.8253 74.48 56.5587 74.4053 57.248 74.6653C58.7053 75.22 59.4027 77.096 59.4307 77.176C59.48 77.3094 59.4107 77.4573 59.2773 77.5067L59.1893 77.5214Z" fill="#682B22"/>
<path id="path772" d="M59.0427 78.4067C58.9173 78.4067 58.8066 78.3134 58.788 78.1867C58.7853 78.164 58.4507 75.996 57.2467 75.4293C56.7187 75.1813 56.0787 75.28 55.3413 75.7253C55.2213 75.8 55.0613 75.76 54.988 75.6387C54.9147 75.516 54.9533 75.3574 55.076 75.284C55.9707 74.7454 56.776 74.6373 57.468 74.964C58.92 75.6493 59.2826 78.0107 59.2986 78.1107C59.3186 78.2507 59.2213 78.3813 59.0813 78.4027L59.0427 78.4067Z" fill="#682B22"/>
<path id="path774" d="M41.4613 69.3547C44.3106 67.6667 48.4427 69.3707 50.6867 73.1627C52.9307 76.9534 52.44 81.3947 49.588 83.0814C46.7387 84.7694 42.608 83.0654 40.364 79.2747C38.1186 75.484 38.6106 71.0427 41.4613 69.3547Z" fill="#682B22"/>
<path id="path776" d="M41.196 78.8773C43.2467 82.34 46.8653 84.052 49.6493 83.04L49.588 83.0827C46.7387 84.7693 42.608 83.0653 40.3627 79.2746C38.1187 75.484 38.6107 71.0427 41.4613 69.3547C41.708 69.208 41.9693 69.096 42.2333 69C39.44 70.716 38.9693 75.116 41.196 78.8773Z" fill="#B14B3C"/>
<path id="path778" d="M46.6493 79.8813C49.2026 79.0973 51.8746 80.4187 52.616 82.8347C53.3573 85.2493 51.888 87.8427 49.3346 88.6267C46.7813 89.4107 44.1106 88.088 43.368 85.6733C42.6266 83.2587 44.096 80.6653 46.6493 79.8813Z" fill="#682B22"/>
<path id="path780" d="M47.2533 80.2253C44.7 81.0093 43.232 83.6013 43.9733 86.0173C44.2813 87.0213 44.9266 87.832 45.7546 88.3853C44.6373 87.8587 43.7493 86.912 43.368 85.6733C42.6266 83.2587 44.096 80.6653 46.6493 79.8813C48.1413 79.4227 49.6693 79.6893 50.8333 80.4653C49.7706 79.964 48.4986 79.8427 47.2533 80.2253Z" fill="#B14B3C"/>
<path id="path782" d="M50.9013 78.312C50.692 78.312 50.496 78.184 50.4173 77.9747C49.1347 74.4933 47.4547 72.3813 45.424 71.6987C43.356 71.004 41.6373 72.08 41.6187 72.0907C41.3787 72.244 41.0613 72.1733 40.908 71.9333C40.7547 71.6947 40.824 71.376 41.064 71.2227C41.1507 71.1667 43.22 69.8694 45.752 70.7227C48.0933 71.5094 49.988 73.8294 51.3853 77.62C51.4827 77.8867 51.3466 78.1827 51.08 78.2813L50.9013 78.312Z" fill="#682B22"/>
<path id="path784" d="M47.4 75.3267L48.6453 75.412C48.6453 75.412 50.9453 75.676 51.42 78.036L50.3147 79.3107L49.3147 80.564L48.0893 80.2253L47.056 78.056L47.4947 75.5253L47.4 75.3267Z" fill="#682B22"/>
<path id="path786" d="M42.78 73.8386C42.78 73.8386 42.7027 70.404 46.4987 68.6213C46.8227 68.468 47.104 68.2347 47.316 67.9427L48.9413 65.708C49.0507 65.56 49.228 65.4773 49.4133 65.4933C49.6 65.5093 49.7653 65.624 49.8453 65.7933L50.0347 66.192L50.1613 66.3013L50.3373 66.356C50.464 66.3947 50.6 66.3307 50.6507 66.208L50.808 65.8253L51.2827 65.9187L51.7427 65.6547L51.996 65.4773C52.2893 65.272 52.576 65.452 52.9347 65.468L53.9867 64.7213C54.892 64.296 55.9707 64.7 56.372 65.616L56.6387 66.2213C57.0693 67.2013 57.352 68.2427 57.476 69.3067L57.5653 70.0706C57.7187 71.376 57.192 72.6706 56.1693 73.4986L54.8733 74.548C56.2 77.3387 54.6173 80.664 51.604 81.3467C49.5453 81.812 47.3373 81.7026 45.8627 79.9293C45.8627 79.9293 43.1013 77.0453 42.78 73.8386Z" fill="#F0724E"/>
<path id="path788" d="M52.9347 65.468C52.7053 65.4574 52.504 65.38 52.312 65.38C52.504 65.38 52.7053 65.4574 52.9347 65.468Z" fill="#DEBAA1"/>
<path id="path790" d="M52.0946 67.1333C52.232 66.5707 52.1573 65.8214 52.1573 65.8214C52.1506 65.628 52.1173 65.5067 52.0746 65.4307C52.1533 65.3933 52.232 65.38 52.312 65.38C52.504 65.38 52.7053 65.4573 52.9346 65.468C52.9346 65.468 52.9346 65.468 52.936 65.468C52.936 65.468 52.7266 66.628 52.0946 67.1333Z" fill="#D3583A"/>
<path id="path792" d="M51.8827 67.46C51.7413 67.2533 51.304 66.6653 50.7053 66.3933C50.7053 66.3933 50.2853 66.3533 50.344 65.9067C50.344 65.9067 50.6147 65.5494 51.2187 65.7894C51.2187 65.7894 51.596 65.3467 51.8187 65.336C51.8187 65.336 52.136 65.1734 52.1573 65.8214C52.1573 65.8214 52.2667 66.9187 51.9773 67.4573L51.8827 67.46Z" fill="#B73C2B"/>
<path id="path794" d="M49.816 67.988L49.836 67.7054C49.7987 67.5694 49.6987 67.4547 49.5747 67.3867C48.884 67.0094 49.0253 66.484 49.0253 66.484C49.0867 65.76 48.9347 65.7214 48.9347 65.7214L48.96 65.6907C49.06 65.5653 49.2107 65.492 49.3707 65.492C49.384 65.492 49.3987 65.492 49.4133 65.4933C49.6 65.5093 49.7653 65.624 49.8453 65.7933L50.0253 66.1707L50.0347 66.192C50.252 66.5653 50.428 67.2187 50.428 67.2187C50.6373 67.8854 49.816 67.988 49.816 67.988Z" fill="#D3583A"/>
<path id="path796" d="M47.3853 69.16C47.2773 69.416 47.2973 69.684 47.3493 69.9347C47.3773 70.0613 47.4173 70.1853 47.464 70.3027L47.5426 70.4773L47.584 70.564L47.6253 70.6387C47.7293 70.8467 47.8266 71.0613 47.9013 71.2733L47.9813 71.5893L47.9413 71.8533L47.928 71.8693L47.9453 71.9893L48.0506 71.9853L48.1413 71.9053L48.2013 71.8027L48.2346 71.6947L48.2493 71.5867C48.256 71.448 48.2426 71.3133 48.212 71.188C48.1546 70.9333 48.056 70.7 47.9413 70.476L47.776 70.164L47.6346 69.8507C47.5546 69.64 47.4866 69.4147 47.48 69.1907V69.1787L47.4293 69.1307L47.3853 69.16Z" fill="#682B22"/>
<path id="path798" d="M47.988 69.852C48.1947 69.7534 48.324 69.5894 48.2747 69.4867C48.2253 69.384 48.0187 69.3813 47.8107 69.4787C47.604 69.5787 47.476 69.7413 47.5253 69.844C47.5733 69.9467 47.7813 69.9507 47.988 69.852Z" fill="#682B22"/>
<path id="path800" d="M48.2747 69.184L48.2653 69.1667L48.2066 69.1494L48.1906 69.208C48.192 69.2107 48.2813 69.376 48.22 69.524C48.1813 69.62 48.0853 69.6907 47.9386 69.732L47.9093 69.7867L47.9626 69.8147C48.1373 69.764 48.2506 69.6774 48.3 69.556C48.364 69.3987 48.3 69.2374 48.2747 69.184Z" fill="#682B22"/>
<path id="path802" d="M45.6533 69.848C45.58 69.996 45.5867 70.1254 45.616 70.252C45.6493 70.376 45.6893 70.4987 45.732 70.62C45.816 70.8627 45.928 71.0947 46.0507 71.3174C46.1773 71.5387 46.3187 71.7507 46.484 71.944C46.6453 72.1387 46.832 72.312 47.0267 72.468L47.0867 72.4613L47.0893 72.4107L47.088 72.408C46.9547 72.2014 46.82 72.004 46.716 71.788C46.6053 71.5787 46.508 71.3614 46.428 71.14C46.3413 70.9227 46.276 70.6974 46.2187 70.472L46.1467 70.132L45.9813 69.8147L45.956 69.792L45.684 69.8027L45.6533 69.848Z" fill="#682B22"/>
<path id="path804" d="M49.5746 66.2467C49.576 66.392 49.6026 66.528 49.6626 66.6613C49.72 66.788 49.8173 66.92 49.9306 66.996L50.124 67.272L50.0826 67.6173L50.0973 67.6573L50.132 67.6507C50.2306 67.5547 50.3013 67.4 50.276 67.24C50.2546 67.0787 50.1506 66.952 50.0306 66.864L49.772 66.6067C49.712 66.5 49.676 66.3693 49.672 66.2493V66.2453L49.6213 66.1973L49.5746 66.2467Z" fill="#682B22"/>
<path id="path806" d="M40.9266 71.56C43.488 70.044 47.2946 71.74 49.4306 75.3467C51.5666 78.9547 51.2226 83.108 48.6613 84.624C46.1013 86.14 42.2933 84.444 40.1573 80.8373C38.0227 77.2307 38.3653 73.0773 40.9266 71.56Z" fill="#682B22"/>
<path id="path808" d="M41.324 71.664C38.7667 73.1773 38.5053 77.4627 40.7387 81.2347C41.34 82.2507 42.064 83.12 42.8466 83.8267C41.832 83.0907 40.8947 82.0827 40.1573 80.8373C38.0227 77.2307 38.3653 73.0773 40.9266 71.56C42.2386 70.784 43.8773 70.8547 45.452 71.5894C43.988 70.9867 42.512 70.96 41.324 71.664Z" fill="#B14B3C"/>
<path id="path810" d="M44.4453 74.4573C44.4453 74.4573 45.0893 73.7853 46.872 74.8613C46.872 74.8613 47.86 75.2693 48.376 74.7266C48.376 74.7266 49.536 73.036 50.5053 73.7373C50.5053 73.7373 51.3493 74.2213 51.0067 74.7973C51.0067 74.7973 49.8787 76.1213 50.9933 77.068C50.9933 77.068 52.0893 78.1133 53.6373 76.6787C53.6373 76.6787 54.4587 75.9507 54.3773 74.908C54.3773 74.908 56.0827 73.1866 58.144 75.6386C58.144 75.6386 59.3173 79.692 54.152 82.4507C52.0067 83.596 49.4027 83.5853 47.3173 82.3333C46.1333 81.624 44.9 80.4666 43.84 78.5986C43.84 78.5986 42.4387 76.2746 43.4387 74.9946C43.4387 74.9946 43.5627 74.652 44.4453 74.4573Z" fill="#682B22"/>
<path id="path812" d="M52.244 76.8C51.7693 76.8 51.4227 76.4867 51.4227 76.4867C50.9707 76.0293 51.4173 75.3 51.56 75.0906C51.708 75.188 51.8867 75.2347 52.0813 75.2347C52.5693 75.2347 53.164 74.944 53.64 74.4173L53.8013 74.2173L53.896 74.292C54.2413 74.56 53.684 75.572 53.684 75.572C53.2067 76.544 52.6733 76.8 52.244 76.8Z" fill="#BE462D"/>
<path id="path814" d="M54.3093 74.14C54.4706 74.064 54.5386 73.8707 54.4613 73.7107C54.3853 73.5494 54.1933 73.4813 54.032 73.5573C53.8707 73.6347 53.8027 73.8267 53.8787 73.988C53.956 74.148 54.148 74.2174 54.3093 74.14Z" fill="#923C1D"/>
<path id="path816" d="M63.32 75.564L67.8787 67.2933L73.0827 64.0907C74.196 63.4067 75.4387 62.96 76.7333 62.7774L78.5787 62.5187C80.048 62.312 81.5453 62.4533 82.9506 62.932L84.6213 63.5013C85.4 63.7653 86.216 63.9013 87.0373 63.9013H102.865V43.2307C102.865 40.6373 103.355 38.0654 104.305 35.6507C105.177 33.4374 105.66 31.0907 105.735 28.7134L106.297 10.6307C106.336 9.37868 105.743 7.29335 104.509 7.06934L93.14 4.90401C92.7453 4.79068 92.4787 4.42002 92.4987 4.00935L92.536 3.2187C92.5573 2.76403 92.8213 2.35736 93.2266 2.15203L95.6427 0.929337C96.3347 0.448006 97.1786 0.230698 98.0186 0.31736L106.365 1.18403L110.644 0.886696C111.999 0.793365 113.149 1.86533 113.149 3.22533V8.55867L114.565 29.4973C114.68 31.2093 114.439 32.928 113.856 34.5427L113.361 35.912C112.188 39.1547 112.039 42.6814 112.932 46.0134L118.829 68.0187C120.844 75.5374 114.688 82.74 106.947 81.9187L97.9893 80.9707L83.252 80.228L64.8053 79.38L63.32 75.564Z" fill="#F0724E"/>
<path id="path818" d="M118.829 68.0187L112.932 46.0134C112.039 42.6814 112.188 39.1547 113.361 35.912L113.856 34.5427C114.439 32.928 114.68 31.2093 114.565 29.4973L113.752 17.464H111.979L109.96 24.976L107.9 17.464H106.084L105.735 28.7134C105.66 31.0907 105.177 33.4374 104.305 35.6507C103.355 38.0654 102.865 40.6373 102.865 43.2307V63.9013H96.2933V80.8854L97.9893 80.9707L106.947 81.9187C114.688 82.74 120.844 75.5374 118.829 68.0187Z" fill="#3D7195"/>
<path id="path820" d="M97.2427 80.932L97.9347 80.968V63.9014H97.2427V80.932Z" fill="#223C50"/>
<path id="path822" d="M85.6907 80.352V63.7747C85.3293 63.708 84.972 63.62 84.6213 63.5013L82.9506 62.932C81.62 62.4787 80.2067 62.3387 78.812 62.5L78.74 63.1147C78.6427 63.9534 78.1973 64.7133 77.5133 65.208L70.5293 70.2613L77.2107 79.9507L83.252 80.228L85.6907 80.352Z" fill="white"/>
<path id="path824" d="M84.6213 63.5013L83.1413 62.9973V80.2227L83.252 80.228L85.6906 80.352V63.7747C85.3293 63.708 84.972 63.62 84.6213 63.5013Z" fill="#3D7195"/>
<path id="path826" d="M62.9946 75.8507C62.8213 75.8507 62.652 75.764 62.556 75.6053C62.4066 75.3627 62.4813 75.0467 62.7226 74.8973L71.2013 69.6627C71.444 69.5133 71.7613 69.588 71.9107 69.8307C72.0587 70.0733 71.984 70.3893 71.7427 70.5387L63.264 75.7733L62.9946 75.8507Z" fill="white"/>
<path id="path828" d="M93.1453 79.9266L93.2413 78.5133C93.352 76.8973 92.1213 75.4853 90.5053 75.3747L65.0013 73.6333C63.3853 73.5226 61.9733 74.7533 61.8626 76.3693L61.7666 77.7827C61.6573 79.3987 62.888 80.8093 64.504 80.92L90.008 82.6626C91.6227 82.7733 93.0347 81.5413 93.1453 79.9266Z" fill="#F0724E"/>
<path id="path830" d="M89.304 82.6147C89.304 82.6147 89.3027 82.6147 89.3013 82.6147L88.3813 82.552L89.304 82.6147Z" fill="#C17123"/>
<path id="path832" d="M89.5506 82.6227C89.4693 82.6227 89.3867 82.62 89.304 82.6147L88.3813 82.552L65.2107 80.9693C63.2067 80.832 61.6787 79.08 61.8147 77.0773C61.8267 76.904 61.8546 76.7373 61.8893 76.5733C62.1586 78.2053 63.5227 79.5107 65.2413 79.6293L88.0147 81.184C88.6027 81.908 89.4587 82.4013 90.416 82.5173C90.1373 82.5867 89.848 82.6227 89.5506 82.6227Z" fill="#D3583A"/>
<path id="path834" d="M90.596 75.248L110.067 77.6347C110.195 77.6253 110.329 77.6133 110.471 77.5973L110.721 81.1493L91.112 82.5347C89.108 82.6773 87.352 81.152 87.2107 79.1493C87.0694 77.1453 88.5933 75.3907 90.596 75.248Z" fill="#F0724E"/>
<path id="path836" d="M90.856 82.544C89.7093 82.544 88.668 82.004 87.9933 81.1533L109.205 79.9773C109.444 80.6413 110.029 81.112 110.704 81.1507L100.916 81.8427L91.112 82.5347C91.0253 82.5413 90.94 82.544 90.856 82.544Z" fill="#D3583A"/>
<path id="path838" d="M110.544 77.548V77.54C112.615 77.2987 116.041 76.456 118.643 76.8L125.227 78.908C125.628 79.036 125.719 79.5854 125.368 79.82C123.609 80.9947 117.013 80.6494 115.299 80.7867L111.025 81.1294L110.921 81.148C109.993 81.2227 109.176 80.4734 109.096 79.4734C109.02 78.5094 109.663 77.6707 110.544 77.548Z" fill="#F0724E"/>
<path id="path840" d="M109.095 79.4573C109.095 79.456 109.095 79.4547 109.095 79.452C109.095 79.4547 109.095 79.456 109.095 79.4573ZM109.093 79.4387C109.093 79.436 109.093 79.4333 109.093 79.4307C109.093 79.4333 109.093 79.436 109.093 79.4387ZM109.093 79.4227C109.093 79.4187 109.092 79.4134 109.092 79.408C109.092 79.4134 109.093 79.4187 109.093 79.4227ZM109.092 79.404C109.088 79.3227 109.089 79.2413 109.096 79.1627C109.089 79.2413 109.088 79.3227 109.092 79.404ZM109.096 79.1613C109.097 79.156 109.097 79.1494 109.097 79.144C109.097 79.1494 109.097 79.156 109.096 79.1613ZM109.099 79.136C109.099 79.1333 109.099 79.1307 109.1 79.128C109.099 79.1307 109.099 79.1333 109.099 79.136ZM109.101 79.1147C109.101 79.1134 109.101 79.112 109.101 79.1107C109.101 79.112 109.101 79.1134 109.101 79.1147Z" fill="#D3583A"/>
<path id="path842" d="M110.795 81.1534C110.764 81.1534 110.735 81.152 110.704 81.1507C110.029 81.112 109.444 80.6413 109.205 79.9773C109.148 79.82 109.111 79.6507 109.096 79.4733C109.096 79.468 109.096 79.4627 109.095 79.4573C109.095 79.456 109.095 79.4547 109.095 79.452C109.095 79.448 109.095 79.4427 109.093 79.4387C109.093 79.436 109.093 79.4333 109.093 79.4307C109.093 79.428 109.093 79.4254 109.093 79.4227C109.093 79.4187 109.092 79.4133 109.092 79.408C109.092 79.4067 109.092 79.4053 109.092 79.404C109.088 79.3227 109.089 79.2413 109.096 79.1627V79.1613C109.097 79.156 109.097 79.1493 109.097 79.144C109.099 79.1413 109.099 79.1387 109.099 79.136C109.099 79.1333 109.099 79.1307 109.1 79.128C109.1 79.1227 109.1 79.1187 109.101 79.1147C109.101 79.1133 109.101 79.112 109.101 79.1107C109.101 79.1053 109.103 79.0987 109.103 79.0933C109.181 78.4267 109.605 77.8707 110.189 77.644C110.033 77.944 109.955 78.296 109.984 78.6667C110.061 79.62 110.808 80.3453 111.683 80.3453C111.725 80.3453 111.768 80.3427 111.809 80.34L111.913 80.32L116.187 79.9787C117.728 79.856 123.208 80.1187 125.577 79.3187C125.608 79.5027 125.545 79.7014 125.368 79.82C123.609 80.9947 117.013 80.6494 115.299 80.7867L111.025 81.1293L110.921 81.148C110.88 81.152 110.837 81.1534 110.795 81.1534Z" fill="#D3583A"/>
<path id="path844" d="M102.865 69.6653V63.9013H101.372L102.865 69.6653Z" fill="#223C50"/>
<path id="path846" d="M108.096 21.932L108.112 21.8053C108.168 21.6387 108.349 21.5493 108.516 21.6053L112.321 22.8973C112.488 22.9547 112.576 23.1333 112.52 23.3013C112.464 23.4667 112.283 23.556 112.117 23.4987L108.311 22.208C108.188 22.1653 108.107 22.0547 108.096 21.932Z" fill="#3D7195"/>
<path id="path848" d="M108.171 23.4187C108.161 23.2907 108.231 23.1627 108.355 23.1053L112.012 21.4227C112.172 21.3493 112.361 21.4187 112.433 21.5787C112.507 21.7373 112.437 21.9253 112.279 22L108.62 23.6827C108.461 23.7547 108.273 23.6866 108.199 23.5266L108.171 23.4187Z" fill="#3D7195"/>
<path id="path850" d="M107.823 20.1947L107.839 20.068C107.895 19.9013 108.076 19.812 108.241 19.868L112.048 21.16C112.215 21.216 112.304 21.396 112.247 21.564C112.191 21.7293 112.011 21.8173 111.844 21.7613L108.037 20.4707C107.915 20.428 107.833 20.3173 107.823 20.1947Z" fill="#3D7195"/>
<path id="path852" d="M107.897 21.6827C107.888 21.5534 107.957 21.4253 108.081 21.368L111.739 19.6867C111.899 19.612 112.087 19.6827 112.16 19.8414C112.233 20 112.164 20.1907 112.004 20.2627L108.347 21.9454C108.188 22.0187 108 21.9494 107.925 21.7894L107.897 21.6827Z" fill="#3D7195"/>
<path id="path854" d="M107.687 18.52L107.703 18.392C107.759 18.2253 107.939 18.1373 108.105 18.1933L111.912 19.484C112.077 19.54 112.168 19.72 112.111 19.888C112.055 20.0534 111.873 20.1414 111.708 20.0854L107.901 18.7947C107.777 18.752 107.696 18.6414 107.687 18.52Z" fill="#3D7195"/>
<path id="path856" d="M107.761 20.0067C107.751 19.8773 107.82 19.7507 107.945 19.6933L111.603 18.0093C111.761 17.936 111.951 18.0067 112.024 18.1653C112.096 18.3253 112.028 18.5133 111.868 18.5867L108.211 20.2693C108.051 20.3427 107.863 20.2733 107.789 20.1133L107.761 20.0067Z" fill="#3D7195"/>
<path id="path858" d="M94.7346 3.78134L94.7 3.78001L92.52 3.56533L92.536 3.21868L92.6013 2.87734L94.768 3.09065C94.9586 3.11065 95.0973 3.28 95.0786 3.46933C95.06 3.648 94.9106 3.78134 94.7346 3.78134Z" fill="#D3583A"/>
</g>
</svg>
