<svg width="170" height="97" viewBox="0 0 170 97" fill="none" xmlns="http://www.w3.org/2000/svg">
<g id="Group 14">
<path id="path986" d="M169.2 96.4854H0.418655L11.232 81.2947H158.388L169.2 96.4854Z" fill="#FBC341"/>
<path id="path988" d="M169.2 96.4854H164.845L91.4573 88.8171C91.8147 88.7015 92.156 88.5348 92.468 88.316L95.088 86.9906C95.52 86.7718 95.804 86.3411 95.836 85.8597L159.877 83.3879L169.2 96.4854ZM73.7413 86.9655L71.976 86.7812L73.6333 86.7171C73.6653 86.8025 73.7013 86.8853 73.7413 86.9655Z" fill="#DC9632"/>
<path id="path990" d="M101.12 43.1653L91.3547 58.9747L85.7533 55.8733L85.92 54.9173L84.5253 53.448L85.0027 53.2507C85.8147 52.9173 86.3987 52.1907 86.5507 51.3253L92.1547 40.8253L101.12 43.1653Z" fill="#F0724E"/>
<path id="path992" d="M85.0027 53.2507C85.7173 52.9573 86.2547 52.3573 86.4773 51.6293C86.4773 51.6293 86.4773 51.6293 86.4787 51.6293C86.256 52.3587 85.7173 52.9573 85.0027 53.2507Z" fill="#DEBAA1"/>
<path id="path994" d="M90.0266 55.576C89.3426 54.4213 88.1386 53.6613 86.792 53.548L85.9613 53.4773C85.6346 53.4507 85.3093 53.4373 84.9827 53.4373C84.832 53.4373 84.6813 53.44 84.5306 53.4453L85.0026 53.2506C85.7173 52.9573 86.256 52.3587 86.4787 51.6293C87.744 52.1187 89.7373 53.2493 90.0266 55.576Z" fill="#D3583A"/>
<path id="path996" d="M88.08 64.2573C87.688 60.2507 90.26 56.7173 93.8253 56.368C97.3893 56.02 100.599 58.9853 100.991 62.9933C101.384 67.0025 98.8107 70.5348 95.2467 70.8837C91.6813 71.2332 88.4733 68.2665 88.08 64.2573Z" fill="#682B22"/>
<path id="path998" d="M103.923 62.748L103.753 62.6813C103.739 62.6667 102.239 61.304 100.819 61.476C100.185 61.5467 99.6427 61.908 99.2027 62.548L98.856 62.612L98.792 62.2667C99.3173 61.5 99.9813 61.068 100.765 60.9813C102.448 60.784 104.024 62.2533 104.091 62.316L104.105 62.668L103.923 62.748Z" fill="#682B22"/>
<path id="path1000" d="M91.6467 57.4174L91.408 57.2414C91.1387 56.3507 91.2147 55.5627 91.6347 54.896C92.5307 53.476 94.664 53.1427 94.7546 53.1307C94.8946 53.1067 95.0173 53.2027 95.0373 53.3387C95.0573 53.4747 94.964 53.6014 94.828 53.6214C94.808 53.624 92.828 53.9374 92.0546 55.1627C91.716 55.7014 91.6586 56.352 91.8853 57.0934C91.924 57.2267 91.8506 57.3654 91.72 57.4054L91.6467 57.4174Z" fill="#682B22"/>
<path id="path1002" d="M92.0613 57.4774L91.8267 57.312C91.4507 56.2534 91.508 55.384 92 54.728C93.032 53.344 95.6027 53.468 95.7134 53.472C95.8507 53.48 95.956 53.5973 95.9494 53.736C95.9414 53.872 95.812 53.972 95.6867 53.9707C95.664 53.9653 93.2693 53.8574 92.3973 55.0267C92.012 55.5414 91.9787 56.2534 92.296 57.144C92.3413 57.2747 92.2747 57.4174 92.1454 57.4627L92.0613 57.4774Z" fill="#682B22"/>
<path id="path1004" d="M82.5546 70.5187C81.376 67.1228 84.08 63.0987 88.5947 61.5294C93.1093 59.9627 97.7253 61.444 98.9053 64.8387C100.084 68.2348 97.38 72.2572 92.8653 73.8255C88.3507 75.3931 83.7346 73.9135 82.5546 70.5187Z" fill="#682B22"/>
<path id="path1006" d="M92.624 72.8546C96.7466 71.4212 99.3493 67.9442 98.8733 64.7654L98.9053 64.8387C100.084 68.2348 97.38 72.2572 92.8653 73.8255C88.3506 75.3931 83.7346 73.9135 82.556 70.5187C82.452 70.2228 82.3893 69.9212 82.344 69.6198C83.5653 72.9614 88.1426 74.4108 92.624 72.8546Z" fill="#B14B3C"/>
<path id="path1008" d="M94.868 67.2733C94.5853 64.388 96.5666 61.8347 99.2946 61.5667C102.023 61.3 104.463 63.4213 104.745 66.3051C105.028 69.1905 103.045 71.7452 100.317 72.0119C97.5906 72.2785 95.1506 70.1572 94.868 67.2733Z" fill="#682B22"/>
<path id="path1010" d="M95.3627 66.704C95.6453 69.5879 98.0853 71.7108 100.813 71.4427C101.947 71.3316 102.949 70.8212 103.716 70.0597C102.915 71.1348 101.716 71.8744 100.317 72.0119C97.5906 72.2785 95.1507 70.1572 94.868 67.2733C94.7027 65.5879 95.3133 64.02 96.3906 62.9507C95.6293 63.972 95.2253 65.2987 95.3627 66.704Z" fill="#B14B3C"/>
<path id="path1012" d="M84.976 71.6384C84.7773 71.6384 84.5893 71.5171 84.512 71.3198C84.4733 71.2171 83.552 68.764 84.988 66.2812C86.32 63.9774 89.1813 62.4734 93.4933 61.8107C93.7666 61.772 94.02 61.956 94.0613 62.2267C94.1026 62.4987 93.9173 62.752 93.6453 62.7947C89.6546 63.4094 87.0346 64.7454 85.8573 66.7655C84.6546 68.8307 85.4333 70.9411 85.4413 70.964C85.5386 71.2198 85.4106 71.5067 85.1546 71.604L84.976 71.6384Z" fill="#682B22"/>
<path id="path1014" d="M90.1866 65.4921L90.5467 64.1867C90.5467 64.1867 91.324 61.7973 93.936 61.8027L95.052 63.252L96.168 64.5853L95.5427 65.816L93.0133 66.4452L90.4173 65.4332" fill="#682B22"/>
<path id="path1016" d="M87.6067 70.0827C87.6067 70.0827 83.9387 69.4239 82.8627 65.0027C82.768 64.6253 82.5813 64.276 82.3173 63.988L80.2933 61.7773C80.1587 61.6293 80.1093 61.4213 80.1653 61.2293C80.224 61.0333 80.38 60.8826 80.5773 60.8346L81.0427 60.7186L81.1853 60.608L81.2813 60.432C81.352 60.3066 81.312 60.148 81.1933 60.068L80.82 59.8173C80.7173 59.7493 80.9973 59.4546 81.0227 59.3333L80.8413 58.7867L80.7067 58.48C80.552 58.1227 80.8053 57.8573 80.8987 57.4773L80.332 56.1986C80.076 55.144 80.7373 54.0853 81.7987 53.856L82.4987 53.7027C83.636 53.4573 84.8027 53.38 85.9613 53.4773L86.792 53.548C88.2147 53.668 89.476 54.508 90.136 55.7733L90.9733 57.3773C94.2253 56.5693 97.4187 58.9693 97.4947 62.3213C97.5453 64.612 96.952 66.9348 94.7493 68.1212C94.7493 68.1212 91.0853 70.4332 87.6067 70.0827Z" fill="#F0724E"/>
<path id="path1018" d="M81.708 59.1693C81.636 59.1693 81.5626 59.168 81.488 59.1653L81.5186 58.172C81.5226 58.0493 81.528 57.928 81.5333 57.8053C81.884 58.0226 82.2893 58.34 82.4906 58.7373C82.6613 59.0733 82.2413 59.1693 81.708 59.1693Z" fill="#D3583A"/>
<path id="path1020" d="M82.7893 59.028C82.54 59.1333 81.82 59.472 81.4013 60.0493C81.4013 60.0493 81.268 60.4867 80.8053 60.328C80.8053 60.328 80.4853 59.964 80.8693 59.372C80.8693 59.372 80.48 58.876 80.5186 58.6387C80.5186 58.6387 80.4133 58.264 81.1066 58.3827C81.1066 58.3827 82.2986 58.5027 82.8066 58.9267L82.7893 59.028Z" fill="#B73C2B"/>
<path id="path1022" d="M81.4067 61.908C81.4053 61.908 81.404 61.908 81.4026 61.908L81.4427 60.6187C81.8267 60.5467 82.2186 60.5227 82.2186 60.5227C82.2506 60.5187 82.2813 60.5173 82.3093 60.5173C82.968 60.5173 82.9067 61.34 82.9067 61.34L82.6093 61.256C82.456 61.2667 82.312 61.348 82.2133 61.4667C81.9093 61.828 81.612 61.908 81.4067 61.908Z" fill="#D3583A"/>
<path id="path1024" d="M83.628 64.1773C83.8747 64.3467 84.1654 64.3826 84.444 64.3813C84.584 64.38 84.7227 64.364 84.8587 64.34L85.0613 64.2933L85.1627 64.2666L85.252 64.2413C85.4947 64.1746 85.744 64.1186 85.9853 64.084C86.108 64.068 86.2267 64.06 86.3387 64.0666L86.6094 64.1666L86.6253 64.1853L86.756 64.1906L86.776 64.08L86.7094 63.9653L86.612 63.8786L86.504 63.82L86.3947 63.7826C86.248 63.744 86.1013 63.7306 85.9613 63.736C85.6787 63.7413 85.4107 63.796 85.1467 63.8693C85.0054 63.9093 84.904 63.9493 84.7787 63.9786C84.6587 64.0133 84.5374 64.0386 84.4147 64.06C84.1734 64.1 83.9174 64.124 83.68 64.0826L83.668 64.08L83.6053 64.124L83.628 64.1773Z" fill="#682B22"/>
<path id="path1026" d="M84.4933 63.6853C84.432 63.4427 84.2867 63.2707 84.1667 63.3013C84.0467 63.3307 83.9987 63.5507 84.0587 63.7933C84.1187 64.0333 84.264 64.2053 84.384 64.176C84.504 64.1453 84.5533 63.9253 84.4933 63.6853Z" fill="#682B22"/>
<path id="path1028" d="M83.844 63.236L83.824 63.2427L83.7933 63.3014L83.852 63.3307C83.8547 63.3307 84.0493 63.2707 84.1947 63.3667C84.2867 63.4294 84.3413 63.5454 84.3547 63.7107L84.4053 63.7534L84.448 63.7027C84.432 63.508 84.364 63.368 84.2454 63.2894C84.092 63.1867 83.9054 63.22 83.844 63.236Z" fill="#682B22"/>
<path id="path1030" d="M83.984 66.1665C84.1253 66.276 84.2653 66.2973 84.4067 66.2946C84.5467 66.2837 84.6853 66.2681 84.8226 66.2493C85.0986 66.2119 85.3693 66.1441 85.6333 66.0613C85.896 65.9744 86.152 65.8692 86.392 65.7359C86.6346 65.6051 86.86 65.4468 87.0653 65.272L87.072 65.2053L87.0186 65.1933H87.016C86.768 65.2907 86.528 65.3905 86.276 65.4561C86.028 65.528 85.7786 65.5837 85.5266 65.6228C85.276 65.6665 85.0227 65.6879 84.7707 65.6983C84.644 65.7051 84.5186 65.7051 84.3933 65.7025C84.2693 65.7025 84.1426 65.7212 84.02 65.8093L83.9906 65.8316L83.9427 66.1239L83.984 66.1665Z" fill="#682B22"/>
<path id="path1032" d="M81.0013 61.2187C81.156 61.2493 81.308 61.2507 81.4613 61.2147C81.6093 61.1827 81.772 61.1067 81.8747 61.004L82.2107 60.8574L82.568 60.9747L82.6147 60.9694V60.9307C82.5333 60.8054 82.3853 60.696 82.2093 60.6894C82.0333 60.6774 81.876 60.76 81.756 60.868C81.6573 60.972 81.56 61.048 81.4267 61.088C81.3 61.128 81.1547 61.1387 81.0253 61.1173L81.02 61.116L80.96 61.1587L81.0013 61.2187Z" fill="#682B22"/>
<path id="path1034" d="M84.784 71.5613C83.7253 68.5118 86.3493 64.8293 90.6467 63.3373C94.9427 61.8453 99.284 63.108 100.344 66.1572C101.403 69.2067 98.7787 72.8894 94.4827 74.3812C90.1853 75.8733 85.844 74.6118 84.784 71.5613Z" fill="#682B22"/>
<path id="path1036" d="M84.98 71.1624C86.0387 74.2067 90.5373 75.4108 95.0307 73.8504C96.2413 73.429 97.3213 72.8478 98.2427 72.1681C97.24 73.0878 95.9653 73.8665 94.4827 74.3812C90.1853 75.8733 85.844 74.6118 84.784 71.5613C84.2426 69.9982 84.6706 68.2706 85.792 66.7561C84.836 68.1826 84.4893 69.7468 84.98 71.1624Z" fill="#B14B3C"/>
<path id="path1038" d="M88.624 68.4452C88.624 68.4452 88.048 67.616 89.5773 65.952C89.5773 65.952 90.224 64.9907 89.7587 64.3253C89.7587 64.3253 88.2133 62.7267 89.1667 61.848C89.1667 61.848 89.864 61.0533 90.4027 61.5413C90.4027 61.5413 91.5653 63.028 92.8133 62.0467C92.8133 62.0467 94.1627 61.108 92.9693 59.152C92.9693 59.152 92.3733 58.1227 91.2467 57.9827C91.2467 57.9827 89.784 55.7987 92.8373 54.1347C92.8373 54.1347 97.4013 53.7627 99.2186 59.8507C99.9733 62.3787 99.3986 65.144 97.6186 67.0921C96.608 68.1973 95.112 69.2588 92.8987 69.9827C92.8987 69.9827 90.124 70.9707 88.9787 69.6321C88.9787 69.6321 88.6413 69.4255 88.624 68.4452Z" fill="#682B22"/>
<path id="path1040" d="M91.888 61.5853C91.424 61.5853 90.9813 61.1707 90.8333 61.0187C91.3053 60.5427 91.2053 59.5293 90.5667 58.66L90.3893 58.4467L90.4893 58.36C90.5466 58.312 90.6187 58.2907 90.7 58.2907C91.128 58.2907 91.8027 58.864 91.8027 58.864C93.764 60.3733 92.288 61.4653 92.288 61.4653C92.1573 61.5507 92.0213 61.5853 91.888 61.5853Z" fill="#BE462D"/>
<path id="path1042" d="M90.4173 57.8893C90.3693 57.7013 90.18 57.588 89.9933 57.636C89.8053 57.6813 89.6907 57.8707 89.7373 58.0587C89.784 58.2467 89.9733 58.3614 90.1613 58.3134C90.3493 58.2667 90.464 58.0773 90.4173 57.8893Z" fill="#923C1D"/>
<path id="path1044" d="M84.8347 44.9706L89.28 48.9813C94.0987 48.9813 98.3853 46.7026 101.12 43.1653C103.625 39.924 104.505 35.708 103.859 31.664L102.619 23.92C99.9146 15.08 94.008 7.56399 86.056 2.84665L85.5573 2.5653C79.2707 0.665306 78.2 0.115982 73.7893 2.20932C72.2733 2.92932 71.3067 4.45731 71.3067 6.13597V15.1906H81.116L84.6733 31.52L84.8347 44.9706Z" fill="#F0724E"/>
<path id="path1046" d="M103.859 31.664L103.489 29.3613H84.2027L84.672 31.52L84.8347 44.9707L86.6733 46.6307V44.524C86.6733 41.9253 88.8 39.8013 91.396 39.8013C93.9947 39.8013 96.1186 41.9253 96.1186 44.524V47.32C98.0746 46.312 99.784 44.892 101.12 43.1653C103.625 39.924 104.505 35.708 103.859 31.664Z" fill="white"/>
<path id="path1048" d="M84.68 32.156H103.913C103.892 31.992 103.884 31.8267 103.859 31.664L103.489 29.3613H84.2027L84.672 31.52L84.68 32.156Z" fill="#3D7195"/>
<path id="path1050" d="M95.1827 84.0051L82.848 81.6561C81.5107 81.4135 80.8667 79.1493 80.9093 77.7921L81.5186 58.172C81.6 55.5773 82.1413 53.0187 83.088 50.6C84.108 47.9947 84.6307 45.2213 84.6307 42.4227V19.9973H85.5573V2.56532L82.3893 1.312C80.0706 0.396004 77.4853 0.199997 75.1186 0.990669C69.3533 2.91734 65.5947 9.11734 67.312 15.5307L73.7107 39.4053C74.68 43.02 74.5173 46.844 73.2453 50.364L72.708 51.8493C72.0747 53.6 71.8133 55.4653 71.9387 57.3227L73.4733 80.04V85.8264C73.4733 87.3015 74.7227 88.4665 76.1933 88.3624L80.8347 88.0411L89.8906 88.9801C90.8013 89.076 91.716 88.84 92.468 88.316L95.088 86.9905C95.528 86.7681 95.8147 86.3255 95.8373 85.8332L95.8787 84.9744C95.9 84.5291 95.612 84.128 95.1827 84.0051Z" fill="#F0724E"/>
<path id="path1052" d="M85.5573 2.56534L82.3893 1.31202C80.0706 0.396019 77.4853 0.200012 75.1186 0.990677C69.3533 2.91734 65.5947 9.11735 67.312 15.5307L73.7107 39.4053C74.68 43.02 74.5173 46.844 73.2453 50.3627L72.708 51.8493C72.0747 53.6 71.8133 55.4653 71.9387 57.3227L72.8213 70.3785H74.744L76.9347 62.2267L79.1693 70.3785H81.14L81.5186 58.172C81.6 55.5773 82.1413 53.02 83.088 50.6C84.108 47.9947 84.6307 45.2213 84.6307 42.4227V19.9973L85.5573 2.56534Z" fill="#3D7195"/>
<path id="path1054" d="M78.956 65.5291L78.9387 65.6682C78.8773 65.8494 78.6813 65.9452 78.5013 65.8838L74.372 64.4827C74.192 64.4214 74.096 64.228 74.156 64.0454C74.2186 63.8654 74.4133 63.7694 74.5933 63.8307L78.7226 65.232C78.8573 65.2774 78.9453 65.3974 78.956 65.5291Z" fill="#3D7195"/>
<path id="path1056" d="M78.8747 63.9174C78.8867 64.0574 78.8107 64.1947 78.676 64.2574L74.708 66.0838C74.5347 66.1624 74.3306 66.0864 74.2506 65.9146C74.1706 65.7427 74.2466 65.5359 74.4186 65.4572L78.388 63.632C78.56 63.552 78.7653 63.628 78.844 63.8014L78.8747 63.9174Z" fill="#3D7195"/>
<path id="path1058" d="M79.252 67.416L79.236 67.5531C79.1746 67.7332 78.9786 67.829 78.7986 67.7692L74.668 66.3681C74.4893 66.3066 74.3906 66.1134 74.4533 65.9306C74.5146 65.7504 74.7106 65.6531 74.8893 65.7145L79.02 67.116C79.1546 67.1613 79.2426 67.2827 79.252 67.416Z" fill="#3D7195"/>
<path id="path1060" d="M79.172 65.8015C79.184 65.9411 79.108 66.0801 78.9733 66.1411L75.004 67.9681C74.832 68.0468 74.6267 67.9717 74.548 67.7988C74.468 67.6264 74.5427 67.4197 74.716 67.3411L78.684 65.516C78.8573 65.4359 79.0613 65.5135 79.1413 65.6853L79.172 65.8015Z" fill="#3D7195"/>
<path id="path1062" d="M79.4013 69.2332L79.384 69.3707C79.3226 69.552 79.1267 69.6479 78.9467 69.5864L74.8173 68.1869C74.6373 68.1255 74.54 67.9307 74.6013 67.7493C74.6627 67.5692 74.8587 67.4717 75.0387 67.5316L79.168 68.9332C79.3027 68.9785 79.3893 69.0999 79.4013 69.2332Z" fill="#3D7195"/>
<path id="path1064" d="M79.32 67.6197C79.332 67.7588 79.256 67.8988 79.1213 67.9613L75.152 69.7864C74.98 69.8649 74.7747 69.7905 74.6947 69.6171C74.616 69.4441 74.692 69.24 74.864 69.1597L78.8333 67.3348C79.0053 67.2545 79.2106 67.3307 79.2893 67.504L79.32 67.6197Z" fill="#3D7195"/>
<path id="path1066" d="M95.836 85.8597C95.836 85.8588 95.836 85.8572 95.836 85.8561C95.836 85.8572 95.836 85.8588 95.836 85.8597ZM95.8373 85.8536C95.8373 85.8468 95.8373 85.84 95.8373 85.8332L95.856 85.4572L95.8373 85.8332C95.8373 85.84 95.8373 85.8468 95.8373 85.8536Z" fill="#DC9632"/>
<path id="path1068" d="M95.7667 86.2025L93.4173 85.9717C93.2106 85.9504 93.06 85.7665 93.08 85.5613C93.1 85.3665 93.2626 85.2228 93.4533 85.2228L93.4906 85.2239L95.856 85.4572L95.8373 85.8332C95.8373 85.84 95.8373 85.8468 95.8373 85.8536C95.8373 85.8545 95.8373 85.8561 95.836 85.8561C95.836 85.8572 95.836 85.8588 95.836 85.8597C95.828 85.9775 95.804 86.093 95.7667 86.2025Z" fill="#D3583A"/>
<path id="path1070" d="M90.72 42.3293L67.7413 43.3427C67.1106 43.1707 66.432 43.1507 65.7613 43.344C63.8146 43.9067 62.6813 45.9587 63.2426 47.9053L68.7413 66.9572L72.192 65.9613C72.148 65.8255 72.1066 65.6947 72.0706 65.5707L70.716 50.3067L91.032 49.4093C92.9786 49.3227 94.5013 47.66 94.416 45.7133C94.3307 43.7653 92.6666 42.244 90.72 42.3293Z" fill="#F0724E"/>
<path id="path1072" d="M87.4907 49.5653L90.328 49.44C90.3267 49.44 90.3267 49.44 90.3253 49.44L87.4907 49.5653Z" fill="#D3583A"/>
<path id="path1074" d="M72.124 65.7468C71.912 65.3931 71.5747 65.136 71.18 65.008L69.6333 49.704C69.5933 49.3134 69.8933 48.9707 70.2867 48.9587L90.7627 48.2934C90.7627 48.2934 94.3 48.1534 94.2333 44.788C94.4867 45.5667 94.5733 46.42 93.8733 47.488C93.0947 48.676 91.7467 49.3774 90.328 49.44L87.4907 49.5653L83.4027 49.7454L73.3053 50.192L70.716 50.3067L72.0707 65.5707C72.088 65.628 72.1053 65.687 72.124 65.7468Z" fill="#D3583A"/>
<path id="path1076" d="M72.256 66.0254L72.2653 66.0228C72.94 68.0134 74.4933 71.216 74.7013 73.8561L74.0093 80.793C73.9667 81.216 73.4427 81.4212 73.1387 81.1254C71.6107 79.6373 70.56 73.0588 70.0627 71.3957L68.8267 67.252L68.784 67.1545C68.516 66.2545 69.0826 65.2906 70.052 65.0013C70.988 64.7213 71.9493 65.18 72.256 66.0254Z" fill="#F0724E"/>
<path id="path1078" d="M73.4813 81.2655C73.48 81.2655 73.48 81.2655 73.4787 81.2655C73.48 81.2655 73.48 81.2655 73.4813 81.2655ZM73.488 81.2655C73.7213 81.2624 73.9507 81.0988 74.0013 80.8452C73.9507 81.0988 73.7213 81.2624 73.488 81.2655Z" fill="#D3583A"/>
<path id="path1080" d="M72.256 66.0255L72.264 66.0228L72.256 66.0255ZM72.256 66.0255C72.2547 66.0203 72.252 66.0145 72.2506 66.0093C72.252 66.0145 72.2547 66.0203 72.256 66.0255ZM72.2493 66.0077C72.248 66.0025 72.2467 65.9983 72.244 65.9931C72.2453 65.9983 72.248 66.0025 72.2493 66.0077ZM72.244 65.9931C72.2387 65.9775 72.232 65.9613 72.2253 65.9468C72.232 65.9613 72.2387 65.9775 72.244 65.9931ZM72.2253 65.9468C72.2213 65.9373 72.2173 65.9264 72.212 65.9171C72.2173 65.9264 72.2213 65.9373 72.2253 65.9468ZM72.2107 65.9119C72.2093 65.9093 72.208 65.9066 72.2067 65.905C72.208 65.9077 72.2093 65.9093 72.2107 65.9119ZM72.2027 65.8973C72.2027 65.8957 72.2027 65.8946 72.2027 65.8946C72.2027 65.8946 72.2027 65.8957 72.2027 65.8973Z" fill="#DEBAA1"/>
<path id="path1082" d="M73.4813 81.2655C73.48 81.2655 73.48 81.2655 73.4787 81.2655C73.3627 81.264 73.2466 81.2239 73.1506 81.1374C73.1466 81.1332 73.1427 81.1291 73.1387 81.1255L73.0946 81.0734L73.2186 80.7931L73.9107 73.8562C73.7013 71.216 72.148 68.0135 71.4733 66.0228L71.4653 66.0255C71.3573 65.7264 71.2706 65.3267 71.1266 64.996C71.5973 65.1334 71.996 65.4504 72.2027 65.8947C72.2027 65.8947 72.2027 65.8958 72.2027 65.8974C72.204 65.8999 72.2053 65.9026 72.2067 65.9051C72.208 65.9067 72.2093 65.9094 72.2107 65.9119C72.2107 65.9135 72.212 65.916 72.212 65.9171C72.2173 65.9264 72.2213 65.9374 72.2253 65.9468C72.232 65.9614 72.2387 65.9775 72.244 65.9931C72.2467 65.9983 72.248 66.0026 72.2493 66.0078L72.2506 66.0094C72.252 66.0146 72.2546 66.0203 72.256 66.0255L72.264 66.0228C72.94 68.0135 74.4933 71.216 74.7013 73.8562L74.0093 80.7931C74.008 80.7999 74.008 80.8078 74.0067 80.8146C74.0053 80.8255 74.004 80.8359 74.0013 80.8452C73.9507 81.0988 73.7213 81.2624 73.488 81.2655C73.4853 81.2655 73.484 81.2655 73.4813 81.2655Z" fill="#D3583A"/>
<path id="path1084" d="M73.6773 81.3649L73.548 81.2785L73.6253 81.0957C73.764 81.0411 73.856 80.9228 73.8707 80.7785L74.5627 73.8411C74.488 72.9197 74.2267 71.7931 73.764 70.4228L73.852 70.2468L74.028 70.3332C74.4987 71.7264 74.764 72.8744 74.8413 73.8452L74.1467 80.8067C74.1227 81.052 73.964 81.2624 73.7307 81.3572L73.6773 81.3649Z" fill="#B14430"/>
<path id="path1086" d="M84.4986 24.9453L84.6306 24.9266V23.9093L82.4827 9.08397L82.2053 9.12264L84.4986 24.9453Z" fill="#223C50"/>
<path id="path1088" d="M84.3787 2.09866L83.7413 18.5613L83.9866 19.4573L84.656 2.208L84.3787 2.09866Z" fill="#223C50"/>
</g>
</svg>
