<svg width="170" height="64" viewBox="0 0 170 64" fill="none" xmlns="http://www.w3.org/2000/svg">
<g id="Group 7">
<path id="path324" d="M169.449 63.8253H0.667999L11.4813 48.6347H158.637L169.449 63.8253Z" fill="#FBC341"/>
<path id="path326" d="M169.449 63.8253H0.667999L11.4813 48.6347H158.637L169.449 63.8253Z" fill="#FBC341"/>
<path id="path328" d="M166.291 59.388H49.26C49.4346 59.112 49.5373 58.78 49.5373 58.4227C49.5373 58.4174 49.5373 58.4107 49.5373 58.4053C49.5373 58.4053 49.5373 58.404 49.5373 58.4027C49.5373 58.3973 49.5373 58.392 49.5373 58.3867C49.5373 58.3854 49.5373 58.3854 49.5373 58.384C49.5373 58.3787 49.5373 58.3733 49.5373 58.3667C49.5333 58.24 49.516 58.116 49.488 57.9973L74.8906 54.0894C75.5546 53.988 75.5346 53.0254 74.8666 52.9494L50.564 50.2147L50.712 49.352C50.9946 49.1987 51.22 48.944 51.348 48.6347H158.637L166.291 59.388ZM45.7986 49.6773L44.9907 49.5867C45.2867 49.5654 45.5573 49.5467 45.796 49.532L45.7986 49.6773ZM38.0453 48.8053L36.5266 48.6347H38.2387C38.152 48.672 38.088 48.7333 38.0453 48.8053Z" fill="#DC9632"/>
<path id="path330" d="M51.2373 33.624L50.248 33.5453C48.88 33.4373 47.848 32.2293 47.956 30.86L49.592 10.1453C49.7 8.776 50.908 7.74534 52.2773 7.85334L53.2667 7.93065C54.636 8.03865 55.6667 9.248 55.5587 10.616L53.9227 31.3306C53.8147 32.7 52.6067 33.732 51.2373 33.624Z" fill="#D4533A"/>
<path id="path332" d="M53.9747 30.6693C53.8893 30.0547 53.6147 29.4867 53.2027 29.04L53.4893 25.4067L53.8027 21.4427L53.972 21.6973L54.724 21.1773L53.9747 30.6693Z" fill="#C9432E"/>
<path id="path334" d="M48.06 30.568L48.4293 46.6387L48.3667 46.9653L51.2427 47.456L53.96 31.5773C54.2373 29.9547 53.1373 28.4 51.5147 28.1227C49.892 27.8454 48.3373 28.9453 48.06 30.568Z" fill="#D4533A"/>
<path id="path338" d="M51.2693 47.304C51.2213 47.22 51.1653 47.14 51.1027 47.068L52.4827 39.0027C52.484 38.9973 52.484 38.9907 52.4853 38.9854C52.4853 38.9827 52.4867 38.98 52.4867 38.976C52.4867 38.976 52.4867 38.9747 52.4867 38.9733C52.544 38.6213 52.5467 38.2707 52.5 37.932L53.184 29.2747L53.2187 29.0627C53.812 29.7173 54.116 30.6227 53.964 31.5547V31.556C53.9627 31.5627 53.9613 31.5707 53.96 31.5773L51.2693 47.304Z" fill="#C9432E"/>
<path id="path340" d="M50.1533 46.5933V46.5867C48.4467 46.5254 45.592 46.0667 43.4893 46.5107L38.2493 48.6293C37.9307 48.7587 37.892 49.2067 38.1933 49.3733C39.7053 50.2053 45.072 49.504 46.4813 49.504H49.9947L50.08 49.5134C50.844 49.5134 51.4627 48.8587 51.4627 48.0494C51.4627 47.268 50.8827 46.6347 50.1533 46.5933Z" fill="#D4533A"/>
<path id="path342" d="M51.4627 48.0347V48.0334V48.0347ZM51.4627 48.0187C51.4627 48.0187 51.4613 48.0174 51.4613 48.016C51.4613 48.0174 51.4627 48.0187 51.4627 48.0187ZM51.4613 48.0027V48.0014V48.0027ZM51.46 47.972V47.9707V47.972Z" fill="#F3C2AE"/>
<path id="path344" d="M41.0813 49.78C39.8533 49.78 38.756 49.6827 38.1933 49.3733C38.0413 49.2893 37.976 49.1333 37.9893 48.9827C38.592 49.132 39.4227 49.184 40.3213 49.184C41.3547 49.184 42.4787 49.116 43.4547 49.0467C44.4307 48.9787 45.26 48.9107 45.7013 48.9107C45.7027 48.9107 45.7027 48.9107 45.704 48.9107H45.7813L45.796 49.532C45.3627 49.5573 44.8213 49.6 44.224 49.6413C43.244 49.7107 42.116 49.78 41.0813 49.78ZM50.712 49.352L51.1027 47.0693C51.3107 47.3093 51.4427 47.6226 51.46 47.9706V47.972C51.46 47.976 51.4613 47.9813 51.4613 47.9867C51.4613 47.992 51.4613 47.996 51.4613 48.0013V48.0026C51.4613 48.008 51.4613 48.012 51.4613 48.016C51.4613 48.0173 51.4627 48.0187 51.4627 48.0187C51.4627 48.024 51.4627 48.028 51.4627 48.0333V48.0346C51.4627 48.04 51.4627 48.044 51.4627 48.0493C51.4627 48.6173 51.1573 49.1093 50.712 49.352Z" fill="#C9432E"/>
<path id="path346" d="M132.005 50.8907C131.389 50.8907 130.777 50.7907 130.195 50.5947L128.061 49.8747C127.091 49.5467 126.227 48.9627 125.561 48.1827L122.748 44.884C122.295 44.3533 121.467 44.3813 121.051 44.9413L119.623 46.8627L104.731 45.3733C102.161 45.1173 99.5653 45.3787 97.0973 46.1413L94.7907 46.856L95.0387 46.6187L94.6027 41.2387C94.54 40.4667 94.6067 39.688 94.8 38.9387C94.9587 38.3253 95.032 37.6933 95.02 37.06L94.9253 32.404C94.972 31.9187 95.0093 31.4333 95.028 30.9467H94.896L94.8413 28.2187H89.5253V53.872H102.121C105.017 53.872 107.909 53.6387 110.768 53.176L121.863 51.3787L128.109 52.8667C129.252 53.1387 130.423 53.276 131.597 53.276H133.352V52.2373C133.352 51.4947 132.749 50.8907 132.005 50.8907Z" fill="#D4533A"/>
<path id="path348" d="M110.469 45.948L104.731 45.3733C102.161 45.1173 99.5653 45.3787 97.0973 46.1413L94.7907 46.856L95.0387 46.6187L94.6027 41.2387C94.54 40.4667 94.6067 39.688 94.8 38.9387C94.9587 38.3253 95.032 37.6933 95.02 37.06L94.9253 32.404C94.972 31.9187 95.0093 31.4333 95.028 30.9467H94.896L94.8413 28.2187H89.5253V53.872H102.121C104.917 53.872 107.707 53.6507 110.469 53.2187V51.1947L103.917 49.5573L110.469 48.22V45.948Z" fill="#223C50"/>
<path id="path350" d="M108.648 51.5627L108.523 51.536C108.368 51.4667 108.299 51.284 108.368 51.1307L109.972 47.5667C110.041 47.412 110.224 47.344 110.379 47.412C110.532 47.4814 110.601 47.664 110.532 47.8187L108.928 51.3827L108.648 51.5627Z" fill="#223C50"/>
<path id="path352" d="M110.143 51.608C110.02 51.608 109.903 51.532 109.856 51.4107L108.471 47.756C108.411 47.5973 108.489 47.42 108.648 47.3613C108.807 47.3 108.984 47.38 109.044 47.5387L110.429 51.1933C110.491 51.3506 110.411 51.528 110.252 51.588L110.143 51.608Z" fill="#223C50"/>
<path id="path354" d="M106.887 51.6906L106.761 51.664C106.607 51.5933 106.537 51.412 106.607 51.2573L108.211 47.6933C108.28 47.5386 108.463 47.4707 108.616 47.54C108.772 47.6093 108.84 47.7907 108.771 47.9453L107.167 51.5093L106.887 51.6906Z" fill="#223C50"/>
<path id="path356" d="M108.381 51.7347C108.257 51.7347 108.141 51.66 108.095 51.5373L106.709 47.8827C106.648 47.724 106.728 47.548 106.887 47.488C107.045 47.4267 107.223 47.5067 107.283 47.6653L108.668 51.32C108.728 51.4774 108.649 51.6547 108.491 51.7147L108.381 51.7347Z" fill="#223C50"/>
<path id="path358" d="M105.197 51.6906L105.072 51.664C104.917 51.5933 104.848 51.412 104.917 51.2573L106.521 47.6933C106.592 47.5386 106.773 47.4707 106.928 47.54C107.083 47.6093 107.151 47.7907 107.081 47.9453L105.477 51.5093L105.197 51.6906Z" fill="#223C50"/>
<path id="path360" d="M106.693 51.7347C106.569 51.7347 106.452 51.66 106.405 51.5373L105.02 47.8827C104.96 47.724 105.039 47.548 105.197 47.488C105.356 47.4267 105.533 47.5067 105.593 47.6653L106.979 51.32C107.04 51.4774 106.96 51.6547 106.801 51.7147L106.693 51.7347Z" fill="#223C50"/>
<path id="path362" d="M47.744 12.3547L53.972 21.6973L56.84 19.7133L60.1453 20.2413C61.548 20.4667 62.9787 20.0706 64.0667 19.1573L65.772 17.728L75.6973 18.72L81.024 26.072L93.2453 17.7133L79.8133 6.16665C75.004 2.36931 69.056 0.303984 62.928 0.303984C58.3467 0.303984 53.9053 1.87864 50.3467 4.76264L48.6947 6.10265C46.8107 7.62798 46.3987 10.3373 47.744 12.3547Z" fill="#F0724E"/>
<path id="path364" d="M47.2813 8.35606L43.1653 16.732L47.7346 20.1427L48.4493 19.6561L50.1547 20.2507L50.1387 19.792C50.112 19.0107 50.488 18.2694 51.1346 17.8294L54.0293 12.1881L47.2813 8.35606Z" fill="#F0724E"/>
<path id="path366" d="M47.0973 16.708C46.876 16.6387 46.6453 16.5907 46.4106 16.5653C46.6533 16.4893 46.8893 16.4413 47.1213 16.416L47.0973 16.708Z" fill="#D3583A"/>
<path id="path368" d="M40.0773 21.324C43.4733 20.1746 45.4 16.7933 44.3773 13.772C43.356 10.7493 39.7733 9.232 36.376 10.3813C32.9773 11.5293 31.052 14.9107 32.0747 17.9333C33.096 20.9547 36.6787 22.472 40.0773 21.324Z" fill="#682B22"/>
<path id="path370" d="M37.5827 12.032L37.452 11.9973L37.3693 11.6547C37.724 11.0707 37.816 10.504 37.6453 9.97198C37.252 8.75731 35.624 8.05599 35.6067 8.04932C35.48 7.99599 35.4213 7.84933 35.4747 7.72266C35.528 7.596 35.6747 7.53733 35.8013 7.58933C35.876 7.62133 37.6533 8.38533 38.1173 9.81733C38.3373 10.4933 38.228 11.1987 37.7946 11.9133L37.5827 12.032Z" fill="#682B22"/>
<path id="path372" d="M44.5266 16.0814C44.404 16.0814 44.296 15.9893 44.28 15.864C44.2626 15.728 44.3586 15.6027 44.496 15.5854C45.1733 15.4987 45.6733 15.2174 45.9813 14.7507C46.6866 13.6867 46.2186 11.976 46.2146 11.9587C46.1773 11.8267 46.2533 11.6894 46.3866 11.652C46.5226 11.612 46.656 11.692 46.6933 11.824C46.716 11.9027 47.228 13.7667 46.3973 15.024C46.0066 15.6173 45.388 15.972 44.5586 16.08L44.5266 16.0814Z" fill="#682B22"/>
<path id="path374" d="M44.3253 15.7667C44.1973 15.7667 44.088 15.668 44.0773 15.5387C44.0666 15.4013 44.168 15.2813 44.3053 15.2707C45.136 15.2013 45.6946 14.9173 45.968 14.424C46.5906 13.2973 45.6293 11.4133 45.6186 11.3946C45.556 11.2733 45.604 11.1226 45.7253 11.0586C45.848 10.9973 45.9986 11.044 46.0613 11.1653C46.1066 11.252 47.1547 13.308 46.4027 14.6667C46.044 15.3133 45.352 15.684 44.3453 15.7653L44.3253 15.7667Z" fill="#682B22"/>
<path id="path376" d="M37.0187 28.1014C40.2067 27.8147 42.4827 24.1467 42.1027 19.9067C41.7227 15.668 38.8293 12.4627 35.6413 12.7494C32.4533 13.0347 30.1773 16.704 30.5573 20.9427C30.9387 25.1827 33.832 28.3867 37.0187 28.1014Z" fill="#682B22"/>
<path id="path378" d="M31.436 20.7827C31.088 16.9121 32.9587 13.5267 35.7133 12.7481L35.6413 12.7494C32.4533 13.0347 30.1773 16.704 30.5573 20.9427C30.9387 25.1827 33.832 28.3867 37.0187 28.1014C37.296 28.076 37.5627 28.0174 37.8253 27.9427C34.6653 28.1747 31.812 24.9907 31.436 20.7827Z" fill="#B14B3C"/>
<path id="path380" d="M35.144 16.9174C37.588 16.0907 38.9373 13.5467 38.1547 11.2347C37.3733 8.92269 34.7573 7.7187 32.312 8.5467C29.868 9.37337 28.52 11.9173 29.3027 14.2293C30.084 16.5413 32.6987 17.7454 35.144 16.9174Z" fill="#682B22"/>
<path id="path382" d="M35.424 16.308C32.9787 17.1347 30.364 15.9307 29.5827 13.6187C29.256 12.6574 29.3053 11.6574 29.6413 10.7547C29.0627 11.8 28.9013 13.044 29.3027 14.2293C30.084 16.5413 32.6987 17.7454 35.144 16.9174C36.572 16.4347 37.6213 15.364 38.0947 14.0987C37.544 15.092 36.616 15.904 35.424 16.308Z" fill="#B14B3C"/>
<path id="path384" d="M35.6253 26.86C35.364 26.86 35.1453 26.6573 35.1307 26.392C35.1147 26.1173 35.324 25.8827 35.5973 25.8667C35.616 25.8653 37.592 25.724 38.8106 24.0134C40.0093 22.332 40.132 19.7307 39.1747 16.284C39.1013 16.02 39.256 15.7454 39.5213 15.672C39.7867 15.6014 40.06 15.7534 40.1347 16.0187C41.1787 19.7787 41.0013 22.668 39.6106 24.6067C38.1066 26.7027 35.752 26.8547 35.6533 26.86H35.6253Z" fill="#682B22"/>
<path id="path386" d="M38.304 20.0653L39.232 19.296C39.232 19.296 40.8866 17.7893 39.9266 15.6706L38.34 15.296L36.848 14.8786L36.0786 15.836L36.4946 18.12L38.2666 19.856L38.304 20.0653Z" fill="#682B22"/>
<path id="path388" d="M35.5227 23.84C35.5227 23.84 37.4 26.5773 41.3827 25.832C41.724 25.7693 42.076 25.7933 42.4067 25.9027L44.9427 26.736C45.112 26.792 45.2987 26.7547 45.4333 26.6387C45.572 26.5213 45.636 26.3387 45.604 26.16L45.5267 25.74L45.564 25.5827L45.672 25.4413L46 25.38L46.34 25.5907L46.6587 25.2494L47.1693 25.196L47.4667 25.1933C47.8133 25.1893 47.9373 24.8853 48.2093 24.6707L49.456 24.6627C50.4053 24.484 51.0227 23.5587 50.8213 22.6134L50.688 21.9894C50.472 20.976 50.1067 20.0013 49.604 19.096L49.2427 18.4467C48.624 17.336 47.48 16.62 46.2107 16.548L44.6027 16.456C44.068 13.52 40.9493 11.8067 38.2013 12.972C36.324 13.7693 34.656 15.1013 34.5 17.3253C34.5 17.3253 33.9627 21.1453 35.5227 23.84Z" fill="#F0724E"/>
<path id="path390" d="M46.2586 23.7027C46.2653 23.944 46.2547 24.6533 45.9387 25.204C45.9387 25.204 45.632 25.472 45.9307 25.7894C45.9307 25.7894 46.344 25.916 46.684 25.3867C46.684 25.3867 47.228 25.5213 47.408 25.404C47.408 25.404 47.7493 25.3533 47.4 24.8333C47.4 24.8333 46.8667 23.9094 46.336 23.652L46.2586 23.7027Z" fill="#B73C2B"/>
<path id="path392" d="M45.384 26.676C45.4013 26.6653 45.4173 26.652 45.4333 26.6387C45.548 26.5413 45.612 26.3987 45.612 26.252C45.612 26.3987 45.548 26.5413 45.4333 26.6387C45.4173 26.652 45.4013 26.6653 45.384 26.676Z" fill="#DEBAA1"/>
<path id="path394" d="M45.1053 26.7587C45.0587 26.7587 45.012 26.7534 44.9667 26.74L44.9293 26.7307C44.9293 26.7307 45.028 26.6134 44.5693 26.0814C44.5693 26.0814 44.1626 25.7494 44.492 25.0627C44.5506 24.94 44.564 24.7947 44.5173 24.6654L44.34 24.4547C44.34 24.4547 44.548 24.3414 44.772 24.3414C44.96 24.3414 45.1587 24.4214 45.2547 24.7134C45.2547 24.7134 45.4866 25.3254 45.5266 25.74L45.5307 25.7627L45.604 26.16C45.6093 26.1907 45.612 26.2214 45.612 26.252C45.612 26.3987 45.548 26.5414 45.4333 26.6387C45.4173 26.652 45.4013 26.6654 45.384 26.676C45.3013 26.7307 45.204 26.7587 45.1053 26.7587Z" fill="#D3583A"/>
<path id="path396" d="M41.7733 24.9094C41.5453 24.7694 41.4093 24.548 41.308 24.3214L41.1907 23.968L41.1533 23.7867L41.1387 23.6947L41.1267 23.6134C41.092 23.3907 41.0467 23.1693 40.9853 22.96L40.8693 22.6667L40.6893 22.484L40.6693 22.4774L40.616 22.3734L40.7 22.3174L40.816 22.3293L40.9213 22.376L41.0093 22.4427L41.08 22.5174L41.2773 22.8534C41.376 23.084 41.4307 23.3213 41.4667 23.5627C41.4867 23.6907 41.4907 23.788 41.5133 23.9013L41.58 24.2267C41.6347 24.4373 41.7093 24.6533 41.832 24.832L41.8373 24.84L41.8253 24.908L41.7733 24.9094Z" fill="#682B22"/>
<path id="path398" d="M41.856 24.0267C42.0747 23.9867 42.2667 24.0414 42.2867 24.1494C42.3067 24.2574 42.1453 24.3787 41.9266 24.4174C41.7093 24.4574 41.516 24.4013 41.4973 24.2933C41.4773 24.1853 41.6387 24.0653 41.856 24.0267Z" fill="#682B22"/>
<path id="path400" d="M42.4573 24.388L42.4613 24.4067L42.424 24.4534L42.3773 24.4174C42.3773 24.4147 42.3546 24.2334 42.2226 24.152C42.1386 24.1 42.0253 24.0974 41.8853 24.1467L41.832 24.1214L41.8573 24.068C42.0226 24.0107 42.16 24.0147 42.268 24.0814C42.4066 24.168 42.448 24.3334 42.4573 24.388Z" fill="#682B22"/>
<path id="path402" d="M40.028 25.348C39.8866 25.2733 39.8186 25.1667 39.7706 25.052L39.6533 24.696C39.5826 24.46 39.5386 24.2147 39.5093 23.9707C39.4826 23.7253 39.4746 23.4787 39.496 23.2347C39.512 22.9907 39.5586 22.7507 39.6253 22.5187L39.6773 22.4893L39.708 22.528V22.5293C39.72 22.7666 39.7253 22.9986 39.7653 23.2266C39.7973 23.4533 39.8426 23.6773 39.904 23.896C39.9613 24.116 40.036 24.3293 40.1186 24.5387L40.2546 24.8453C40.2986 24.9453 40.3306 25.056 40.304 25.188L40.2973 25.22L40.0773 25.3653L40.028 25.348Z" fill="#682B22"/>
<path id="path404" d="M45.136 25.9573C45.0547 25.8426 44.9973 25.72 44.9707 25.5827C44.944 25.4507 44.9453 25.2907 44.9907 25.168L44.9867 24.8427L44.76 24.596L44.7493 24.556L44.7787 24.5413C44.9107 24.5613 45.0533 24.6427 45.124 24.7813C45.1987 24.92 45.188 25.0787 45.144 25.216C45.096 25.3333 45.0693 25.4413 45.0853 25.5626L45.2107 25.9L45.212 25.904L45.2 25.9693L45.136 25.9573Z" fill="#682B22"/>
<path id="path406" d="M35.3547 26.6733C38.2187 26.416 40.2467 22.9373 39.8853 18.904C39.5227 14.8693 36.908 11.8067 34.044 12.064C31.1813 12.3213 29.1533 15.8 29.5147 19.8333C29.8773 23.868 32.492 26.9293 35.3547 26.6733Z" fill="#682B22"/>
<path id="path408" d="M35.608 26.368C32.7493 26.624 30.124 23.412 29.7453 19.1947C29.644 18.0573 29.72 16.968 29.9347 15.972C29.5547 17.1213 29.3893 18.4427 29.5147 19.8333C29.8773 23.868 32.492 26.9293 35.3547 26.6733C36.8227 26.5413 38.0667 25.56 38.8867 24.0947C38.0787 25.3933 36.9373 26.2493 35.608 26.368Z" fill="#B14B3C"/>
<path id="path410" d="M36.4787 22.416C36.4787 22.416 37.3627 22.5787 38.1533 20.728C38.1533 20.728 38.6973 19.8507 39.408 19.9853C39.408 19.9853 41.272 20.6546 41.636 19.5586C41.636 19.5586 42.024 18.7027 41.4307 18.444C41.4307 18.444 39.8 18.044 40.1387 16.672C40.1387 16.672 40.4067 15.2333 42.4307 15.484C42.4307 15.484 43.4853 15.592 44.0106 16.456C44.0106 16.456 46.32 16.8427 46.552 13.756C46.552 13.756 45.184 9.91466 39.576 10.668C37.2466 10.9813 35.212 12.46 34.2827 14.6187C33.756 15.844 33.4427 17.4467 33.6653 19.5093C33.6653 19.5093 33.8787 22.1227 35.3853 22.5613C35.3853 22.5613 35.676 22.76 36.4787 22.416Z" fill="#682B22"/>
<path id="path412" d="M41.6987 17.9014C41.4693 17.8187 40.7067 17.4987 40.804 16.8854C40.804 16.8854 41 15.9747 41.932 15.9747C42.2347 15.9747 42.616 16.0707 43.092 16.3267C43.092 16.3267 44.1013 16.804 43.9813 17.2094L43.948 17.3214L43.7107 17.2547C43.5093 17.212 43.3107 17.192 43.1227 17.192C42.432 17.192 41.8653 17.464 41.6987 17.9014Z" fill="#BE462D"/>
<path id="path414" d="M44.3907 17.0947C44.56 17.064 44.7227 17.176 44.752 17.3453C44.784 17.5147 44.6707 17.6773 44.5013 17.708C44.3333 17.7387 44.1707 17.6267 44.14 17.4573C44.1093 17.288 44.2213 17.1253 44.3907 17.0947Z" fill="#923C1D"/>
<path id="path416" d="M52.444 20.76C52.1386 20.76 51.8333 20.716 51.536 20.6253C50.7053 20.3733 50.0106 19.7827 49.628 19.004L47.1946 14.0454L47.22 13.8894C47.8066 10.1734 50.0187 6.97336 53.2893 5.11336L59.0787 1.82003C59.3147 1.6827 59.62 1.76668 59.756 2.00668C59.892 2.24535 59.808 2.54936 59.5693 2.68536L53.7813 5.97869C50.8213 7.66269 48.804 10.54 48.228 13.8907L50.5213 18.5653C50.7867 19.1053 51.2493 19.4987 51.8253 19.6733C52.4 19.8467 53.004 19.7773 53.524 19.4747L57.2933 17.2827C57.5306 17.1454 57.8347 17.2253 57.9733 17.4627C58.1133 17.7 58.032 18.0054 57.7946 18.1427L54.024 20.3347C53.5413 20.616 52.9946 20.76 52.444 20.76Z" fill="white"/>
<path id="path418" d="M67.1253 0.634676C65.7427 0.418676 64.3413 0.304012 62.928 0.304012L62.7787 0.310684V19.9333C63.24 19.744 63.676 19.4853 64.0667 19.1573L65.772 17.728L67.1253 17.8627V0.634676Z" fill="#3D7195"/>
<path id="path420" d="M56.84 19.7134L60.1453 20.2414C61.548 20.4667 62.9787 20.0707 64.0667 19.1573L65.4533 17.996V0.425337C64.616 0.34667 63.7747 0.304016 62.928 0.304016C61.3773 0.304016 59.84 0.484013 58.3493 0.834681" fill="white"/>
<path id="path422" d="M133.295 54.8507C132.679 54.8507 132.067 54.7507 131.483 54.5533L129.351 53.8333C128.379 53.5053 127.515 52.9213 126.849 52.1413L124.036 48.8427C123.584 48.312 122.755 48.34 122.339 48.9L120.912 50.8227L106.019 49.3333C103.449 49.076 100.853 49.3373 98.3866 50.1L96.08 50.8147L96.328 50.5787L95.8906 45.1973C95.828 44.4253 95.8946 43.6467 96.088 42.896C96.2466 42.284 96.3213 41.652 96.308 41.0187L96.2147 36.3626C96.26 35.8773 96.1653 35.392 96.1853 34.9053L96.1147 31.4027L96.3573 30.5653C97.8506 25.416 96.092 19.956 91.7506 16.26L79.8133 6.16666L75.7693 18.6946L81.024 26.072L81.38 32.636C81.644 37.5013 82.74 42.2813 84.6027 46.824C85.192 49.124 85.92 51.3893 86.796 53.604L87.6827 55.844C88.1573 57.0427 89.3147 57.8307 90.6053 57.8307H103.409C106.305 57.8307 109.197 57.5987 112.056 57.136L123.152 55.3373L129.397 56.8253C130.54 57.0973 131.711 57.2347 132.885 57.2347H134.64V56.196C134.64 55.4533 134.037 54.8507 133.295 54.8507Z" fill="#F0724E"/>
<path id="path424" d="M75.7693 18.6946L81.024 26.072L81.38 32.636C81.644 37.5013 82.74 42.2813 84.6027 46.824C85.192 49.124 85.92 51.3893 86.796 53.604L87.6827 55.844C88.1573 57.0427 89.3147 57.8307 90.6053 57.8307H103.409C106.205 57.8307 108.996 57.6093 111.757 57.1773V55.1533L105.205 53.516L111.757 52.1787V49.9067L106.019 49.3333C103.449 49.076 100.853 49.3373 98.3866 50.1L96.08 50.8147L96.328 50.5787L95.8906 45.1973C95.828 44.4253 95.8946 43.6467 96.088 42.896C96.2466 42.284 96.3213 41.652 96.308 41.0187L96.2147 36.3626C96.26 35.8773 96.1653 35.392 96.1853 34.9053L96.1147 31.4027L96.3573 30.5653C97.8506 25.416 96.092 19.956 91.7506 16.26L83.0973 8.944" fill="#3D7195"/>
<path id="path426" d="M76.9613 20.3667L84.856 10.4307L84.3453 9.99869L76.5573 19.8014L76.9613 20.3667Z" fill="#223C50"/>
<path id="path428" d="M109.936 55.5227L109.811 55.4946C109.656 55.4253 109.587 55.244 109.657 55.0893L111.26 51.5253C111.331 51.3706 111.512 51.3026 111.667 51.3706C111.821 51.4413 111.889 51.6227 111.82 51.7773L110.217 55.3413L109.936 55.5227Z" fill="#3D7195"/>
<path id="path430" d="M111.432 55.5667C111.308 55.5667 111.192 55.492 111.144 55.3693L109.759 51.7147C109.699 51.556 109.779 51.38 109.937 51.32C110.095 51.2587 110.272 51.3387 110.332 51.4973L111.719 55.152C111.779 55.3094 111.699 55.4867 111.54 55.5467L111.432 55.5667Z" fill="#3D7195"/>
<path id="path432" d="M108.175 55.6493L108.049 55.6214C107.895 55.5534 107.825 55.3707 107.895 55.216L109.5 51.652C109.569 51.4987 109.751 51.4293 109.905 51.4987C110.06 51.568 110.128 51.7507 110.059 51.904L108.455 55.468L108.175 55.6493Z" fill="#3D7195"/>
<path id="path434" d="M109.669 55.6947C109.547 55.6947 109.429 55.6187 109.384 55.496L107.997 51.8413C107.937 51.684 108.017 51.5067 108.175 51.4453C108.333 51.3853 108.511 51.4653 108.571 51.624L109.957 55.2773C110.017 55.4373 109.937 55.6133 109.779 55.6733L109.669 55.6947Z" fill="#3D7195"/>
<path id="path436" d="M106.485 55.6493L106.36 55.6214C106.205 55.5534 106.137 55.3707 106.207 55.216L107.809 51.652C107.88 51.4987 108.061 51.4293 108.216 51.4987C108.371 51.568 108.44 51.7507 108.369 51.904L106.767 55.468L106.485 55.6493Z" fill="#3D7195"/>
<path id="path438" d="M107.981 55.6947C107.857 55.6947 107.741 55.6187 107.695 55.496L106.308 51.8413C106.248 51.684 106.328 51.5067 106.487 51.4453C106.644 51.3853 106.821 51.4653 106.881 51.624L108.268 55.2773C108.328 55.4373 108.248 55.6133 108.089 55.6733L107.981 55.6947Z" fill="#3D7195"/>
<path id="path440" d="M49.272 41.4147L48.1067 41.3227C46.492 41.196 45.276 39.7707 45.404 38.156L47.332 13.7333C47.46 12.1187 48.8853 10.9027 50.4987 11.0306L51.6653 11.1227C53.2787 11.2507 54.4947 12.6747 54.3667 14.2893L52.4387 38.712C52.3107 40.3267 50.8867 41.5427 49.272 41.4147Z" fill="#F0724E"/>
<path id="path442" d="M53.4893 25.4067L53.8026 21.4427L53.4893 25.4067Z" fill="#AE3623"/>
<path id="path444" d="M53.8027 21.4427L53.884 20.412L53.8027 21.4427ZM53.9787 19.2093L54.3253 14.8267C54.324 14.8413 54.3227 14.856 54.3213 14.872L53.9787 19.2093Z" fill="#D3583A"/>
<path id="path446" d="M53.884 20.412L53.9786 19.2093L53.884 20.412Z" fill="#DEC2B3"/>
<path id="path448" d="M52.5 37.9307C52.3853 37.1027 51.9787 36.3467 51.3707 35.7947L53.036 14.712C53.1667 13.0534 52.112 11.564 50.5893 11.076C50.676 11.0707 50.7613 11.068 50.848 11.068C50.9253 11.068 51.004 11.0707 51.0827 11.0774C53.0013 11.228 54.4506 12.9107 54.3253 14.8267L53.9786 19.2094L53.884 20.412L53.8027 21.4427L53.4893 25.4067L52.5 37.9307Z" fill="#D3583A"/>
<path id="path450" d="M45.5266 37.812L45.9613 56.7587C45.9413 56.8814 45.916 57.0094 45.888 57.144L49.2786 57.724L52.4826 39.0027C52.8093 37.0894 51.512 35.256 49.6 34.9294C47.6866 34.6027 45.8533 35.8987 45.5266 37.812Z" fill="#F0724E"/>
<path id="path452" d="M51.1027 47.068L52.4827 39.0027C52.484 38.9974 52.484 38.9907 52.4853 38.9854C52.484 38.9907 52.484 38.9974 52.4827 39.0027L51.1027 47.068Z" fill="#AE3623"/>
<path id="path456" d="M49.3093 57.544C49.0746 57.128 48.6787 56.8267 48.2133 56.7333L51.6093 36.0373C52.308 36.808 52.6653 37.8747 52.4867 38.9733C52.4867 38.9747 52.4867 38.976 52.4867 38.976C52.4867 38.98 52.4853 38.9827 52.4853 38.9853C52.484 38.9907 52.484 38.9973 52.4827 39.0027L51.1027 47.068L50.712 49.352L50.564 50.2147L49.3093 57.544Z" fill="#D3583A"/>
<path id="path458" d="M47.9947 56.7054V56.6974C45.9813 56.6254 42.616 56.0854 40.1387 56.608L33.96 59.1067C33.584 59.2587 33.5373 59.788 33.8933 59.9827C35.6773 60.964 42.004 60.1374 43.6653 60.1374L47.8067 60.1387L47.908 60.1494C48.808 60.1494 49.5373 59.3761 49.5373 58.4227C49.5373 57.5001 48.8533 56.7547 47.9947 56.7054Z" fill="#F0724E"/>
<path id="path460" d="M49.26 59.388C49.4346 59.112 49.5373 58.78 49.5373 58.4227C49.5373 58.78 49.4346 59.112 49.26 59.388ZM49.5373 58.4053C49.5373 58.4053 49.5373 58.404 49.5373 58.4027C49.5373 58.404 49.5373 58.4053 49.5373 58.4053ZM49.5373 58.3867C49.5373 58.3854 49.5373 58.3854 49.5373 58.384C49.5373 58.3854 49.5373 58.3854 49.5373 58.3867Z" fill="#C17123"/>
<path id="path462" d="M37.3 60.4627C35.852 60.4627 34.5573 60.348 33.8933 59.9827C33.7133 59.884 33.6373 59.7 33.6533 59.524C34.364 59.6987 35.3427 59.76 36.404 59.76C37.6213 59.76 38.9453 59.68 40.0973 59.5987C41.248 59.5187 42.2253 59.4387 42.7467 59.4387H42.748H46.8893L46.9907 59.4494C47.8907 59.4494 48.62 58.676 48.62 57.724C48.62 57.3693 48.5173 57.0427 48.3453 56.7693C49.0146 56.9667 49.5133 57.6 49.5373 58.3667C49.5373 58.3733 49.5373 58.3787 49.5373 58.384C49.5373 58.3854 49.5373 58.3854 49.5373 58.3867C49.5373 58.392 49.5373 58.3973 49.5373 58.4027C49.5373 58.404 49.5373 58.4053 49.5373 58.4053C49.5373 58.4107 49.5373 58.4174 49.5373 58.4227C49.5373 58.78 49.4346 59.112 49.26 59.388C48.9666 59.8467 48.4707 60.1494 47.908 60.1494L47.8067 60.1387L43.6653 60.1373C42.6227 60.1373 39.7413 60.4627 37.3 60.4627Z" fill="#D3583A"/>
</g>
</svg>
