<svg width="169" height="81" viewBox="0 0 169 81" fill="none" xmlns="http://www.w3.org/2000/svg">
<g id="Group 5">
<path id="path1614" d="M168.896 80.2907H0.114624L10.9267 65.1H158.084L168.896 80.2907Z" fill="#FBC341"/>
<path id="path1616" d="M168.713 80.036L31.392 75.6107H39.576C40.0893 75.6107 40.5973 75.492 41.0586 75.2654L41.8026 74.8987L114.548 69.9227C114.752 70.5907 115.345 71.0747 116.044 71.0747L116.141 71.064H120.14C120.644 71.064 121.592 71.1427 122.709 71.2214C123.825 71.3001 125.108 71.3774 126.287 71.3774C127.684 71.3774 128.933 71.2667 129.575 70.9147C129.917 70.7254 129.873 70.216 129.511 70.0694L127.036 69.068L159.335 66.8587L168.713 80.036Z" fill="#DC9632"/>
<path id="path1618" d="M114.36 27.3293L113.592 14.316L119.335 13.8973L119.679 14.6987L121.452 15.12L121.189 15.5014C120.743 16.1533 120.659 16.988 120.971 17.7134L121.584 25.152L114.36 27.3293Z" fill="#F0724E"/>
<path id="path1620" d="M120.876 17.4493C120.687 16.8013 120.792 16.0973 121.171 15.5293C120.792 16.0987 120.688 16.8013 120.876 17.4493ZM121.172 15.528C121.175 15.524 121.177 15.52 121.18 15.516C121.177 15.52 121.175 15.524 121.172 15.528Z" fill="#DEBAA1"/>
<path id="path1622" d="M119.484 17.6013C118.412 17.6013 117.18 17.3067 116.263 16.2213C116.785 16.4787 117.351 16.6067 117.919 16.6067C118.529 16.6067 119.14 16.4573 119.695 16.1586L120.356 15.8027C120.735 15.5987 121.099 15.372 121.449 15.124L121.189 15.5013C121.185 15.5067 121.183 15.5107 121.18 15.516C121.177 15.52 121.175 15.524 121.172 15.528C121.171 15.528 121.171 15.528 121.171 15.5293C120.792 16.0973 120.687 16.8013 120.876 17.4493C120.485 17.532 120.004 17.6013 119.484 17.6013Z" fill="#D3583A"/>
<path id="path1624" d="M113.461 8.728C115.727 11.5533 115.528 15.4773 113.015 17.4933C110.501 19.508 106.628 18.852 104.363 16.0267C102.095 13.2027 102.296 9.27867 104.807 7.26267C107.32 5.248 111.195 5.904 113.461 8.728Z" fill="#682B22"/>
<path id="path1626" d="M103.188 18.148C102.724 18.148 102.389 18.092 102.356 18.0867C102.22 18.0627 102.129 17.9347 102.152 17.8C102.176 17.664 102.305 17.5707 102.44 17.596C102.46 17.5987 104.225 17.8893 105.221 17.0667C105.657 16.7067 105.887 16.1747 105.903 15.4827C105.905 15.3467 106.025 15.26 106.156 15.24C106.293 15.244 106.403 15.3573 106.4 15.4947C106.38 16.3373 106.091 16.996 105.536 17.452C104.837 18.028 103.871 18.148 103.188 18.148Z" fill="#682B22"/>
<path id="path1628" d="M113.759 20.4707L113.573 20.3867L113.593 20.036C113.607 20.024 114.936 18.8227 114.915 17.532C114.907 16.9667 114.632 16.4547 114.101 16.012L114.071 15.6614L114.42 15.6294C115.068 16.1707 115.401 16.808 115.413 17.5254C115.435 19.0454 113.985 20.352 113.924 20.408L113.759 20.4707Z" fill="#682B22"/>
<path id="path1630" d="M112.904 20.6573L112.689 20.532L112.78 20.1934C112.799 20.1827 114.643 19.0974 114.724 17.8C114.76 17.232 114.437 16.6867 113.768 16.176L113.721 15.828L114.071 15.78C114.88 16.3974 115.268 17.088 115.22 17.8334C115.123 19.396 113.115 20.5747 113.028 20.6227L112.904 20.6573Z" fill="#682B22"/>
<path id="path1632" d="M114.543 1.30004C117.1 3.27604 117.043 7.63467 114.415 11.0347C111.785 14.436 107.581 15.5894 105.024 13.6134C102.468 11.6374 102.527 7.27732 105.153 3.87732C107.783 0.477316 111.985 -0.677296 114.543 1.30004Z" fill="#682B22"/>
<path id="path1634" d="M105.813 4.49069C103.415 7.59469 103.164 11.4934 105.084 13.6534L105.025 13.6134C102.468 11.6374 102.527 7.27734 105.153 3.87734C107.783 0.477339 111.985 -0.677273 114.543 1.30006C114.765 1.47206 114.961 1.66673 115.143 1.87207C112.581 -0.0426006 108.421 1.11469 105.813 4.49069Z" fill="#B14B3C"/>
<path id="path1636" d="M106.868 9.79602C108.499 11.828 108.261 14.7254 106.34 16.268C104.417 17.8094 101.537 17.412 99.908 15.38C98.276 13.3467 98.5133 10.4494 100.435 8.9067C102.357 7.36536 105.237 7.76269 106.868 9.79602Z" fill="#682B22"/>
<path id="path1638" d="M106.775 10.4667C105.144 8.43471 102.264 8.03605 100.341 9.57872C99.5413 10.2201 99.0387 11.0974 98.836 12.0481C98.912 10.8441 99.4506 9.69738 100.435 8.90671C102.357 7.36538 105.237 7.7627 106.868 9.79604C107.82 10.9827 108.132 12.464 107.847 13.7987C107.917 12.6547 107.569 11.4574 106.775 10.4667Z" fill="#B14B3C"/>
<path id="path1640" d="M110.289 13.3973C110.153 13.3973 110.017 13.3413 109.919 13.232C109.736 13.028 109.753 12.7133 109.957 12.5307C112.653 10.1107 113.963 7.82538 113.851 5.73604C113.736 3.60804 112.139 2.436 112.123 2.424C111.9 2.264 111.849 1.95334 112.009 1.72934C112.169 1.50534 112.479 1.45599 112.704 1.61599C112.785 1.67466 114.703 3.08266 114.844 5.68266C114.973 8.08666 113.553 10.64 110.623 13.2707L110.289 13.3973Z" fill="#682B22"/>
<path id="path1642" d="M111.268 8.8347L111.639 9.99469C111.639 9.99469 112.228 12.1761 110.259 13.4561L108.705 12.9134L107.209 12.4574L107.076 11.224L108.671 9.50671L111.123 8.99336L111.268 8.8347Z" fill="#682B22"/>
<path id="path1644" d="M110.953 4.11064C110.953 4.11064 114.039 2.80269 117.023 5.60269C117.28 5.84136 117.592 6.01199 117.932 6.09866L120.543 6.76799C120.717 6.81333 120.856 6.94534 120.909 7.11734C120.961 7.29334 120.917 7.48401 120.793 7.61868L120.499 7.93466L120.445 8.08668L120.46 8.26666C120.469 8.39599 120.577 8.49599 120.705 8.49866L121.111 8.50266L121.195 8.96666L121.601 9.28935L121.852 9.45334C122.145 9.64668 122.084 9.97199 122.2 10.3027L123.256 10.988C123.968 11.6547 123.989 12.7773 123.305 13.472L122.852 13.932C122.117 14.676 121.276 15.3067 120.356 15.8027L119.695 16.1586C118.565 16.768 117.203 16.756 116.084 16.1267L114.665 15.3307C112.615 17.5387 109.028 17.3013 107.324 14.8147C106.16 13.116 105.465 11.076 106.54 9.09866C106.54 9.09866 108.161 5.55597 110.953 4.11064Z" fill="#F0724E"/>
<path id="path1646" d="M121.463 10.3694C121.112 10.3694 120.703 10.3214 120.388 10.1401C120.948 10.0614 121.599 9.72404 121.599 9.72404C121.772 9.64804 121.871 9.57606 121.923 9.50939C122.136 9.70539 122.095 10.0014 122.2 10.3027C122.2 10.3027 121.872 10.3694 121.463 10.3694Z" fill="#D3583A"/>
<path id="path1648" d="M120.015 10.0654C120.152 9.86268 120.528 9.2547 120.559 8.61337C120.559 8.61337 120.443 8.2187 120.869 8.1107C120.869 8.1107 121.291 8.22802 121.292 8.86268C121.292 8.86268 121.828 9.04403 121.917 9.2427C121.917 9.2427 122.18 9.47068 121.599 9.72401C121.599 9.72401 120.643 10.22 120.052 10.1507L120.015 10.0654Z" fill="#B73C2B"/>
<path id="path1650" d="M120.499 7.93469L120.793 7.61871C120.883 7.52138 120.931 7.39603 120.931 7.26803C120.931 7.39603 120.883 7.52138 120.793 7.61871L120.516 7.91737L120.499 7.93469ZM120.909 7.11737C120.907 7.11204 120.905 7.10669 120.904 7.10136C120.905 7.10669 120.907 7.11204 120.909 7.11737ZM120.903 7.10136C120.903 7.09869 120.901 7.09605 120.901 7.09472C120.901 7.09605 120.903 7.09869 120.903 7.10136ZM120.9 7.09068C120.899 7.08935 120.899 7.08804 120.899 7.08671C120.899 7.08804 120.899 7.08935 120.9 7.09068ZM120.896 7.08137C120.896 7.08004 120.896 7.08 120.896 7.08C120.896 7.08 120.896 7.08004 120.896 7.08137Z" fill="#DEBAA1"/>
<path id="path1652" d="M119.365 8.79871C119.02 8.79871 118.792 8.38272 118.792 8.38272L119.056 8.30004C119.165 8.21471 119.233 8.08405 119.249 7.94672C119.344 7.18405 119.869 7.12403 119.869 7.12403C120.549 6.9187 120.529 6.76674 120.529 6.76674L120.567 6.77735C120.716 6.82402 120.837 6.93469 120.896 7.08002C120.896 7.08002 120.896 7.08005 120.896 7.08139C120.896 7.08272 120.897 7.08539 120.899 7.08673C120.899 7.08806 120.899 7.08936 120.9 7.0907C120.9 7.09203 120.9 7.0934 120.901 7.09473C120.901 7.09607 120.903 7.09871 120.903 7.10138C120.904 7.10138 120.904 7.10138 120.904 7.10138C120.905 7.10671 120.907 7.11206 120.909 7.11739C120.924 7.16672 120.931 7.21738 120.931 7.26804C120.931 7.39604 120.883 7.52139 120.793 7.61873L120.499 7.93471C120.24 8.26538 119.709 8.66003 119.709 8.66003C119.587 8.76003 119.471 8.79871 119.365 8.79871Z" fill="#D3583A"/>
<path id="path1654" d="M116.853 6.60003C116.584 6.5947 116.348 6.70935 116.139 6.84801L115.847 7.08402L115.716 7.21865L115.652 7.28669L115.599 7.35068C115.448 7.52135 115.289 7.68533 115.124 7.83066L114.865 8.01602L114.612 8.07467L114.592 8.06934L114.491 8.12799L114.531 8.22269L114.637 8.27467L114.752 8.29199L114.861 8.28268L114.964 8.25732C115.093 8.21466 115.209 8.15335 115.313 8.08001C115.524 7.93735 115.697 7.76401 115.861 7.57868L116.084 7.31598L116.317 7.07601C116.479 6.92668 116.66 6.7827 116.861 6.69736L116.871 6.69333L116.896 6.62933L116.853 6.60003Z" fill="#682B22"/>
<path id="path1656" d="M116.444 7.39597C116.608 7.5493 116.803 7.60666 116.877 7.52533C116.953 7.44399 116.881 7.25464 116.717 7.1013C116.553 6.9493 116.36 6.89198 116.284 6.97331C116.208 7.05464 116.28 7.24397 116.444 7.39597Z" fill="#682B22"/>
<path id="path1658" d="M117.152 7.416L117.165 7.40135L117.159 7.34132L117.1 7.34803C117.097 7.34936 116.98 7.4907 116.824 7.48937L116.533 7.30799L116.475 7.30135L116.468 7.36137C116.577 7.50004 116.696 7.57202 116.824 7.57335C116.989 7.57469 117.113 7.45733 117.152 7.416Z" fill="#682B22"/>
<path id="path1660" d="M115.605 5.27731C115.445 5.26398 115.331 5.31736 115.227 5.38936L114.935 5.62803C114.745 5.79203 114.575 5.976 114.417 6.168C114.261 6.36133 114.12 6.56802 114.005 6.78669C113.887 7.00269 113.796 7.23337 113.725 7.4667L113.753 7.52002L113.801 7.5027L113.803 7.50133C113.941 7.30533 114.072 7.11201 114.231 6.94001C114.38 6.76401 114.541 6.59868 114.712 6.44535C114.88 6.28935 115.06 6.14798 115.244 6.01598L115.527 5.82803C115.619 5.76669 115.704 5.6907 115.753 5.56403L115.765 5.53337L115.659 5.28936L115.605 5.27731Z" fill="#682B22"/>
<path id="path1662" d="M120.284 7.5361C120.152 7.58943 120.037 7.66406 119.94 7.76539C119.845 7.86273 119.76 8.00006 119.733 8.12806L119.552 8.40407C119.471 8.47207 119.352 8.49472 119.224 8.49072L119.193 8.51875L119.211 8.54674C119.335 8.60141 119.5 8.61072 119.636 8.52939C119.775 8.45206 119.852 8.31207 119.888 8.17207C119.913 8.0454 119.947 7.94007 120.028 7.84407L120.316 7.62539L120.32 7.62275L120.345 7.56142L120.284 7.5361Z" fill="#682B22"/>
<path id="path1664" d="M112.352 1.60933C114.648 3.38533 114.481 7.44667 111.98 10.684C109.48 13.9187 105.589 15.1027 103.293 13.328C100.996 11.552 101.163 7.48934 103.663 4.25334C106.164 1.01868 110.055 -0.166666 112.352 1.60933Z" fill="#682B22"/>
<path id="path1666" d="M112.4 2.00669C110.107 0.234685 106.128 1.54 103.512 4.924C102.807 5.83467 102.28 6.80535 101.92 7.76935C102.223 6.58401 102.801 5.36936 103.663 4.25336C106.164 1.0187 110.055 -0.166646 112.352 1.60935C113.528 2.52002 114.053 4.0307 113.955 5.7227C113.973 4.1787 113.467 2.83202 112.4 2.00669Z" fill="#B14B3C"/>
<path id="path1668" d="M110.992 5.844C110.992 5.844 111.833 6.18537 111.5 8.18937C111.5 8.18937 111.485 9.23069 112.164 9.50269C112.164 9.50269 114.113 9.9467 113.828 11.0787C113.828 11.0787 113.692 12.0174 113.047 11.9147C113.047 11.9147 111.441 11.368 110.984 12.72C110.984 12.72 110.429 14.0907 112.289 14.9774C112.289 14.9774 113.245 15.4587 114.161 15.0094C114.161 15.0094 116.337 15.936 114.856 18.6894C114.856 18.6894 111.603 21.2134 107.241 17.5227C105.429 15.9907 104.503 13.6254 104.885 11.284C105.103 9.95337 105.708 8.42004 107.019 6.7867C107.019 6.7867 108.621 4.67868 110.141 5.12401C110.141 5.12401 110.497 5.11333 110.992 5.844Z" fill="#682B22"/>
<path id="path1670" d="M113.727 14.644C113.497 14.644 113.309 14.6201 113.309 14.6201C111.091 14.4481 111.665 12.9 111.665 12.9C111.819 12.5507 112.184 12.4667 112.501 12.4667C112.704 12.4667 112.887 12.5014 112.98 12.5227C112.859 13.1121 113.432 13.8254 114.34 14.1667L114.58 14.2387L114.545 14.3521C114.476 14.5947 114.059 14.644 113.727 14.644Z" fill="#BE462D"/>
<path id="path1672" d="M114.832 14.672C114.96 14.7907 115.159 14.7827 115.277 14.656C115.395 14.528 115.388 14.3293 115.26 14.2107C115.133 14.092 114.933 14.1 114.815 14.2267C114.697 14.3547 114.704 14.5533 114.832 14.672Z" fill="#923C1D"/>
<path id="path1674" d="M133.431 36.0894L123.284 23.812C122.297 22.6187 120.829 21.928 119.28 21.928H114.793C113.212 21.928 112.037 23.3853 112.375 24.9294C113.333 29.324 115.328 37.3894 116.388 41.64C116.629 42.6014 116.695 43.612 116.472 44.5774C115.687 47.992 112.501 49.9667 109.325 49.4507L109.076 49.4107C104.235 48.6254 99.5667 51.572 98.1933 56.2814L85.82 60.36C83.6626 61.072 81.4053 61.4347 79.132 61.4347C72.6467 61.4347 66.2066 62.512 60.076 64.624L58.5866 65.136C55.9986 66.028 52.2333 66.7214 49.1399 66.9334L47.3306 67.0067L44.0706 65.8267C42.4573 65.2413 40.688 66.1507 40.2226 67.804L39.6333 69.9054L34.2907 73.256L33.0733 73.5227C32.0906 73.7374 31.392 74.6067 31.392 75.6107H39.576C40.0893 75.6107 40.5973 75.492 41.0586 75.2653L46.244 72.7134L71.272 69.7054C72.992 69.4707 74.744 69.6934 76.348 70.3547C77.8866 70.9867 79.5307 71.3267 81.188 71.1694L106.944 68.7454C113.404 68.1374 119.305 64.828 123.195 59.6347L130.223 50.2507C131.175 48.98 131.688 47.436 131.688 45.848V42.7667L133.205 41.228C134.587 39.8267 134.685 37.6067 133.431 36.0894Z" fill="#F0724E"/>
<path id="path1676" d="M133.205 41.228C133.205 41.228 119.617 40.644 116.103 40.4933C116.203 40.896 116.3 41.2854 116.388 41.64C116.629 42.6014 116.695 43.612 116.472 44.5774C116.391 44.9334 116.277 45.2707 116.145 45.5933L131.225 48.3734C131.521 47.568 131.688 46.7174 131.688 45.848V42.7667H131.689L133.205 41.228Z" fill="#223C50"/>
<path id="path1678" d="M113.839 48.4587C112.54 49.3347 110.931 49.712 109.325 49.4507L109.076 49.4107C104.235 48.6254 99.5667 51.572 98.1933 56.2814L85.82 60.36C83.6626 61.072 81.4053 61.4347 79.132 61.4347C72.6467 61.4347 66.2066 62.512 60.0759 64.624L58.5866 65.136C56.864 65.7294 54.62 66.232 52.4 66.5654V67.7774C54.8746 67.756 60.624 67.812 60.624 67.812L52.4 70.54V71.9734L71.272 69.7054C72.992 69.4707 74.7439 69.6934 76.3479 70.3547C77.8866 70.9867 79.5307 71.3267 81.188 71.1694L106.944 68.7454C113.404 68.1374 119.305 64.828 123.195 59.6347L113.839 48.4587Z" fill="#3D7195"/>
<path id="path1680" d="M111.332 49.4454L121.619 61.5201C121.821 61.3014 122.019 61.0734 122.213 60.8467L112.301 49.212C111.985 49.3174 111.661 49.392 111.332 49.4454Z" fill="#223C50"/>
<path id="path1682" d="M116.587 43.8467C116.567 44.092 116.528 44.336 116.472 44.5774C116.084 46.2654 115.109 47.6013 113.839 48.4587" fill="#3D7195"/>
<path id="path1684" d="M133.431 36.0894L123.284 23.812C122.297 22.6187 120.829 21.928 119.28 21.928H114.793C113.212 21.928 112.037 23.3853 112.375 24.9293C113.333 29.324 115.328 37.3894 116.388 41.64C116.569 42.3614 116.651 43.1094 116.587 43.8467L131.688 44.7547V42.7667H131.689L133.205 41.228C134.587 39.8267 134.685 37.6067 133.431 36.0894Z" fill="#3D7195"/>
<path id="path1686" d="M119.289 25.6027C119.289 27.556 117.705 29.14 115.751 29.14C113.797 29.14 112.213 27.556 112.213 25.6027C112.213 23.648 113.797 22.064 115.751 22.064C117.705 22.064 119.289 23.648 119.289 25.6027Z" fill="#F0724E"/>
<path id="path1688" d="M116.388 41.64C116.569 42.3614 116.651 43.1094 116.587 43.8467L131.688 44.7547V42.7667H131.689L116.388 41.64Z" fill="white"/>
<path id="path1690" d="M114.011 51.7787L115.137 51.8293C116.699 51.9 118.035 50.6787 118.104 49.1173L119.167 25.4894C119.237 23.928 118.016 22.5934 116.455 22.5227L115.327 22.472C113.765 22.4013 112.429 23.6227 112.36 25.184L111.299 48.812C111.229 50.3733 112.449 51.708 114.011 51.7787Z" fill="#F0724E"/>
<path id="path1692" d="M111.587 49.8653C111.392 49.42 111.293 48.9227 111.317 48.3973L112.328 25.904C112.412 24.0307 114.016 22.4973 115.891 22.4973C116.052 22.504 116.208 22.5267 116.361 22.556C114.845 22.8427 113.657 24.1427 113.585 25.748L112.601 47.6573C112.015 48.236 111.643 49.02 111.587 49.8653Z" fill="#D3583A"/>
<path id="path1694" d="M118.344 49.5107L117.923 67.8027C117.944 67.9187 117.968 68.044 117.995 68.1734L114.72 68.7333L111.628 50.6587C111.312 48.812 112.565 47.0427 114.412 46.7267C116.257 46.4107 118.028 47.664 118.344 49.5107Z" fill="#F0724E"/>
<path id="path1696" d="M114.691 68.5613L114.381 66.7494L111.628 50.6587C111.445 49.588 111.791 48.5467 112.471 47.796L115.751 67.7774C115.3 67.8667 114.917 68.1587 114.691 68.5613Z" fill="#D3583A"/>
<path id="path1698" d="M115.96 67.7507V67.7427C117.904 67.672 121.152 67.1507 123.545 67.656L129.511 70.0693C129.873 70.216 129.917 70.7254 129.575 70.9147C128.393 71.564 125.148 71.392 122.709 71.2214C121.592 71.1427 120.644 71.064 120.14 71.064H116.141L116.044 71.0747C115.176 71.0747 114.471 70.3294 114.471 69.408C114.471 68.5187 115.132 67.7974 115.96 67.7507Z" fill="#F0724E"/>
<path id="path1700" d="M114.472 69.392C114.472 69.3907 114.472 69.3907 114.472 69.3894C114.472 69.3907 114.472 69.3907 114.472 69.392ZM114.472 69.3734C114.472 69.3734 114.472 69.372 114.472 69.3707C114.472 69.372 114.472 69.3734 114.472 69.3734ZM114.473 69.32V69.3187V69.32Z" fill="#DC9632"/>
<path id="path1702" d="M126.287 71.3774C125.108 71.3774 123.825 71.3 122.709 71.2214C121.592 71.1427 120.644 71.064 120.14 71.064H116.141L116.044 71.0747C115.176 71.0747 114.471 70.3294 114.471 69.408C114.471 69.4027 114.472 69.3973 114.472 69.392C114.472 69.3907 114.472 69.3907 114.472 69.3894C114.472 69.384 114.472 69.3787 114.472 69.3734C114.472 69.3734 114.472 69.372 114.472 69.3707C114.472 69.3654 114.472 69.36 114.472 69.3547C114.472 69.3427 114.473 69.3307 114.473 69.32V69.3187C114.509 68.5947 114.985 68 115.623 67.812C115.456 68.076 115.357 68.3907 115.357 68.7333C115.357 69.6533 116.061 70.4 116.929 70.4L117.028 70.388H121.027C121.529 70.388 122.472 70.4667 123.585 70.544C124.696 70.6214 125.975 70.7 127.149 70.7C128.175 70.7 129.12 70.64 129.805 70.4707C129.821 70.6414 129.747 70.8187 129.575 70.9147C128.933 71.2667 127.684 71.3774 126.287 71.3774Z" fill="#D3583A"/>
<path id="path1704" d="M56.6946 70.1107L56.5839 70.1067C56.4373 70.0694 56.3493 69.92 56.3853 69.7734L57.2386 66.4107C57.276 66.264 57.424 66.176 57.572 66.2134C57.7186 66.2507 57.8066 66.3987 57.7706 66.5467L56.9173 69.908L56.6946 70.1107Z" fill="#3D7195"/>
<path id="path1706" d="M57.9706 69.9467L57.6867 69.8094L55.9907 66.7774C55.9174 66.6454 55.9654 66.4774 56.096 66.404C56.228 66.3307 56.396 66.3774 56.4706 66.5094L58.1654 69.5427C58.2387 69.6734 58.192 69.8414 58.06 69.916L57.9706 69.9467Z" fill="#3D7195"/>
<path id="path1708" d="M55.2186 70.4654L55.108 70.46C54.9613 70.4227 54.872 70.2734 54.9106 70.1267L55.7627 66.764C55.8 66.6174 55.948 66.528 56.096 66.5654C56.2427 66.6027 56.3319 66.752 56.2946 66.8987L55.4413 70.2614L55.2186 70.4654Z" fill="#3D7195"/>
<path id="path1710" d="M56.4934 70.3L56.2107 70.1627L54.516 67.1307C54.4413 66.9987 54.488 66.832 54.6214 66.7574C54.752 66.684 54.9187 66.7307 54.9934 66.8627L56.6893 69.8947C56.7627 70.028 56.716 70.1947 56.584 70.268L56.4934 70.3Z" fill="#3D7195"/>
<path id="path1712" d="M53.7866 70.696L53.676 70.6907C53.528 70.6534 53.44 70.504 53.4773 70.3574L54.3306 66.996C54.3666 66.8494 54.516 66.76 54.664 66.7974C54.8093 66.8334 54.8986 66.984 54.8613 67.1307L54.0093 70.4934L53.7866 70.696Z" fill="#3D7195"/>
<path id="path1714" d="M55.0613 70.5307L54.7786 70.3933L53.0826 67.3613C53.0093 67.2293 53.056 67.0627 53.188 66.988C53.32 66.9147 53.4866 66.9613 53.5613 67.0933L55.256 70.1267C55.3306 70.2587 55.2826 70.4253 55.1506 70.5L55.0613 70.5307Z" fill="#3D7195"/>
</g>
</svg>
