<svg width="178" height="97" viewBox="0 0 178 97" fill="none" xmlns="http://www.w3.org/2000/svg">
<g id="Group 16">
<path id="path1822" d="M177.36 96.9135H8.57996L19.3933 81.7212H166.548L177.36 96.9135Z" fill="#FBC341"/>
<path id="path1824" d="M172.649 90.2947L167.216 82.6588L172.649 90.2947Z" fill="#DEBAA1"/>
<path id="path1826" d="M176.561 95.7905L86.9173 91.3947C87.6586 91.1093 88.448 90.9624 89.2426 90.9624H92.624C93.664 90.9624 94.5587 90.2905 94.8773 89.3441L167.216 82.6588L172.649 90.2947L176.561 95.7905Z" fill="#DC9632"/>
<path id="path1828" d="M166.46 28.5373L164.565 24.112C164.241 23.3573 163.776 22.6693 163.195 22.0867C162.612 21.5053 162.147 20.8173 161.823 20.0613L160.492 16.9533C160.004 15.8133 158.721 15.24 157.547 15.636C157.111 15.7827 155.7 16.9707 155.415 17.3307L149.585 17.3613C148.131 17.3693 146.675 17.2933 145.227 17.1333L137.543 16.2827C133.301 15.556 128.937 16.2507 125.132 18.2627L125.02 18.3213L107.864 15.4133C107.864 15.4133 103.159 7.78667 93.4226 13.14L99.7506 27.908L123.568 26.928C125.367 26.8173 127.104 26.2253 128.596 25.212C130.08 24.2067 131.804 23.616 133.591 23.5L148.385 22.54L157.125 22.192L166.184 31.1213L166.376 30.7507C166.735 30.0627 166.765 29.2507 166.46 28.5373Z" fill="#D4533A"/>
<path id="path1830" d="M144.276 20.208L151.329 18.4787V17.352L149.585 17.3614C148.131 17.3694 146.675 17.2933 145.227 17.1333L137.543 16.2827C133.301 15.556 128.937 16.2507 125.132 18.2627L125.02 18.3214L107.864 15.4134C107.864 15.4134 103.159 7.78669 93.4226 13.14L99.7506 27.908L123.568 26.928C125.367 26.8174 127.104 26.2254 128.596 25.212C130.08 24.2067 131.804 23.616 133.591 23.5L148.385 22.54L151.329 22.4227V21.4267L144.276 20.208Z" fill="#223C50"/>
<path id="path1832" d="M149.305 21.7867L149.188 21.7627C149.036 21.6987 148.965 21.5254 149.028 21.3734L150.493 17.9094C150.557 17.7574 150.731 17.688 150.883 17.7507C151.033 17.8147 151.104 17.9894 151.04 18.14L149.577 21.604L149.305 21.7867Z" fill="#223C50"/>
<path id="path1834" d="M150.697 21.8174C150.577 21.8187 150.463 21.7454 150.417 21.6254L149.095 18.0974C149.037 17.944 149.116 17.772 149.269 17.7147C149.421 17.656 149.593 17.7347 149.652 17.888L150.973 21.416C151.031 21.5694 150.953 21.7414 150.8 21.7987L150.697 21.8174Z" fill="#223C50"/>
<path id="path1836" d="M147.665 21.9227L147.547 21.9C147.396 21.836 147.325 21.6613 147.389 21.5107L148.853 18.0453C148.917 17.8947 149.089 17.8227 149.243 17.888C149.393 17.952 149.465 18.1267 149.401 18.2773L147.936 21.7427L147.665 21.9227Z" fill="#223C50"/>
<path id="path1838" d="M149.059 21.9547C148.937 21.956 148.823 21.8814 148.777 21.7614L147.456 18.2347C147.399 18.0814 147.476 17.9094 147.631 17.852C147.783 17.7947 147.955 17.872 148.013 18.0267L149.335 21.5534C149.392 21.7067 149.313 21.8787 149.16 21.936L149.059 21.9547Z" fill="#223C50"/>
<path id="path1840" d="M146.092 21.9374L145.973 21.9147C145.823 21.8494 145.752 21.676 145.816 21.524L147.28 18.0601C147.344 17.9094 147.517 17.8374 147.669 17.9014C147.82 17.9654 147.892 18.1387 147.828 18.2907L146.363 21.7547L146.092 21.9374Z" fill="#223C50"/>
<path id="path1842" d="M147.485 21.9693C147.363 21.9707 147.251 21.896 147.204 21.776L145.883 18.248C145.825 18.0934 145.904 17.9227 146.057 17.8653C146.211 17.808 146.381 17.8853 146.439 18.0387L147.76 21.5667C147.819 21.72 147.741 21.892 147.587 21.9493L147.485 21.9693Z" fill="#223C50"/>
<path id="path1844" d="M56.0386 14.0307L44.1333 14.364L43.1987 19.6427L43.9093 20.0347L44.1293 21.7173L44.508 21.512C44.876 21.3094 45.2893 21.224 45.6946 21.2547C46.792 21.3374 47.8826 21.4787 48.9813 21.4454L53.8573 21.296L56.0386 14.0307Z" fill="#F0724E"/>
<path id="path1846" d="M44.5466 21.4907C44.856 21.3293 45.1946 21.2493 45.532 21.2493C45.5866 21.2493 45.6413 21.2507 45.6946 21.2547C45.9213 21.272 46.1466 21.292 46.3706 21.312C46.3613 21.344 46.3506 21.376 46.3413 21.408C46.0813 21.3027 45.808 21.2493 45.5333 21.2493C45.1946 21.2493 44.856 21.3293 44.5466 21.4907Z" fill="#DEBAA1"/>
<path id="path1848" d="M44.1346 21.7147C44.26 21.5721 44.3813 21.424 44.4973 21.2747L46.404 21.2014C46.3933 21.2387 46.3826 21.2761 46.3706 21.3121C46.1466 21.2921 45.9213 21.272 45.6947 21.2547C45.6413 21.2507 45.5867 21.2494 45.532 21.2494C45.1947 21.2494 44.856 21.3294 44.5467 21.4907C44.5334 21.4974 44.5213 21.5041 44.508 21.5121L44.1346 21.7147Z" fill="#D3583A"/>
<path id="path1850" d="M38.972 13.7094C41.372 16.0774 45.0253 16.2654 47.1307 14.132C49.236 11.9974 48.9973 8.34804 46.5973 5.98004C44.1973 3.61337 40.5453 3.42403 38.44 5.5587C36.3346 7.6947 36.5733 11.3427 38.972 13.7094Z" fill="#682B22"/>
<path id="path1852" d="M46.1773 7.84534L45.9093 7.83466C45.772 7.82399 45.6706 7.70399 45.6813 7.56799C45.692 7.42933 45.8133 7.32133 45.948 7.33866C46.5866 7.38666 47.096 7.22934 47.4667 6.86267C48.3173 6.02267 48.2173 4.36799 48.216 4.35199C48.2053 4.21466 48.3093 4.096 48.448 4.08666C48.5893 4.07333 48.7027 4.18133 48.7107 4.31866C48.7173 4.39599 48.828 6.21733 47.816 7.21733C47.3933 7.63466 46.844 7.84534 46.1773 7.84534Z" fill="#682B22"/>
<path id="path1854" d="M47.1987 16.388L46.928 16.3707C46.2613 16.2933 45.6986 15.9213 45.256 15.2667L45.324 14.9213L45.6693 14.988C46.0267 15.516 46.4693 15.8147 46.9866 15.8773C48.1733 16.024 49.4053 14.9093 49.4173 14.8973L49.7693 14.9133L49.7533 15.264C49.7 15.312 48.5094 16.388 47.1987 16.388Z" fill="#682B22"/>
<path id="path1856" d="M47.3053 16.2253H47.2333C46.5333 16.196 45.9267 15.7693 45.4293 14.9547L45.5133 14.612L45.8559 14.6947C46.2586 15.3587 46.7293 15.7053 47.2533 15.7267L47.3053 15.728C48.4853 15.728 49.6266 14.1773 49.6386 14.1613L49.9853 14.1053L50.0399 14.4533C49.9879 14.5253 48.7413 16.2253 47.3053 16.2253Z" fill="#682B22"/>
<path id="path1858" d="M31.9907 14.0054C33.5787 16.5614 37.6186 16.9214 41.0173 14.812C44.4146 12.7027 45.8853 8.92004 44.2987 6.36404C42.712 3.80937 38.6706 3.44803 35.272 5.55737C31.8733 7.6667 30.4053 11.4494 31.9907 14.0054Z" fill="#682B22"/>
<path id="path1860" d="M35.7759 6.22668C38.8799 4.30135 42.5133 4.44001 44.3293 6.42401L44.2987 6.36402C42.712 3.80935 38.6706 3.44801 35.272 5.55734C31.8733 7.66668 30.4053 11.4493 31.9907 14.0053C32.1293 14.2267 32.292 14.4254 32.464 14.6147C30.9346 12.06 32.4039 8.32001 35.7759 6.22668Z" fill="#B14B3C"/>
<path id="path1862" d="M40.588 7.70801C42.3147 9.41201 45.0214 9.46934 46.632 7.83601C48.2427 6.20267 48.148 3.49735 46.4213 1.79468C44.6947 0.090682 41.9893 0.0333376 40.3786 1.66667C38.768 3.3 38.8613 6.00401 40.588 7.70801Z" fill="#682B22"/>
<path id="path1864" d="M41.2187 7.68535C39.492 5.98135 39.3986 3.27736 41.0093 1.64402C41.6786 0.965356 42.5387 0.584014 43.4387 0.485347C42.316 0.440014 41.204 0.830678 40.3786 1.66668C38.768 3.30001 38.8613 6.00402 40.588 7.70802C41.596 8.70269 42.9386 9.13202 44.2013 8.99469C43.136 8.95202 42.0613 8.51601 41.2187 7.68535Z" fill="#B14B3C"/>
<path id="path1866" d="M36.852 14.8C36.568 14.8 36.2907 14.7787 36.016 14.7347C33.6053 14.3547 32.476 12.4307 32.4306 12.3493C32.2946 12.1107 32.376 11.808 32.6133 11.672C32.8547 11.532 33.1547 11.616 33.2933 11.8533C33.3027 11.868 34.248 13.456 36.1866 13.7533C38.0933 14.0547 40.3213 13.0547 42.804 10.804C43.0053 10.62 43.32 10.636 43.5053 10.8373C43.6907 11.04 43.6746 11.356 43.4706 11.54C41.084 13.7067 38.8613 14.8 36.852 14.8Z" fill="#682B22"/>
<path id="path1868" d="M39.28 11.6907L40.3187 12.144C40.3187 12.144 42.2814 12.8973 43.6547 11.196L43.3 9.70534L43.0214 8.27734L41.892 8.036L40.1494 9.34933L39.44 11.5707L39.28 11.6907Z" fill="#682B22"/>
<path id="path1870" d="M34.936 10.9493C34.936 10.9493 33.4306 13.6813 35.7399 16.7106C35.9359 16.9706 36.0639 17.2773 36.1119 17.5986L36.4827 20.0813C36.508 20.248 36.6173 20.388 36.772 20.452C36.9293 20.5186 37.1106 20.496 37.2466 20.3933L37.5666 20.1506L37.7133 20.116L37.8786 20.1466C37.9973 20.168 38.08 20.276 38.0693 20.3973L38.0346 20.7706L38.4573 20.8946L38.716 21.3013L38.8453 21.548C38.9946 21.8386 39.3026 21.8133 39.5973 21.952L40.132 22.9946C40.6813 23.7173 41.7187 23.844 42.4267 23.276L42.896 22.9013C43.6547 22.292 44.3187 21.5733 44.8653 20.768L45.2573 20.1893C45.9293 19.2026 46.0479 17.94 45.5733 16.844L44.9706 15.4546C47.2106 13.7653 47.332 10.4226 45.1933 8.6093C43.7307 7.36797 41.908 6.53063 39.9746 7.33863C39.9746 7.33863 36.54 8.5013 34.936 10.9493Z" fill="#F0724E"/>
<path id="path1872" d="M39.5973 21.952C39.3293 21.8267 39.0507 21.836 38.8907 21.62C38.932 21.5934 38.9787 21.5507 39.028 21.4827L39.7066 21.4574C39.6626 21.7454 39.5973 21.952 39.5973 21.952Z" fill="#D3583A"/>
<path id="path1874" d="M39.5854 19.9067C39.3854 20.0133 38.7867 20.304 38.1907 20.2707C38.1907 20.2707 37.836 20.1267 37.696 20.512C37.696 20.512 37.764 20.912 38.352 20.9733C38.352 20.9733 38.4693 21.4867 38.6427 21.588C38.6427 21.588 38.8307 21.8547 39.12 21.3413C39.12 21.3413 39.6693 20.5027 39.6613 19.948L39.5854 19.9067Z" fill="#B73C2B"/>
<path id="path1876" d="M36.6786 16.648C36.6986 16.3987 36.8279 16.1907 36.9759 16.0107L37.2226 15.7614L37.36 15.6547L37.4293 15.6027L37.4933 15.5587C37.6653 15.436 37.832 15.304 37.9826 15.164L38.18 14.944L38.2559 14.7147L38.2533 14.6947L38.3186 14.6067L38.4012 14.6533L38.4399 14.756L38.4453 14.864L38.4266 14.9653L38.3933 15.0573L38.1946 15.3627C38.0426 15.544 37.8653 15.6907 37.68 15.8227L37.4146 16.0053L37.1706 16.1974C37.0172 16.3334 36.8666 16.4867 36.7679 16.664L36.7626 16.6747L36.7012 16.692L36.6786 16.648Z" fill="#682B22"/>
<path id="path1878" d="M37.456 16.3453C37.5813 16.512 37.616 16.696 37.532 16.7587C37.4507 16.8213 37.2813 16.7373 37.156 16.5707C37.0306 16.404 36.9959 16.2187 37.0786 16.156C37.1613 16.0933 37.3293 16.1787 37.456 16.3453Z" fill="#682B22"/>
<path id="path1880" d="M37.4053 17.004L37.3907 17.0146L37.336 17.0026L37.348 16.948C37.3493 16.9466 37.4906 16.852 37.504 16.7066L37.3654 16.42L37.364 16.3653L37.4187 16.364L37.5827 16.7146C37.568 16.868 37.448 16.972 37.4053 17.004Z" fill="#682B22"/>
<path id="path1882" d="M35.5733 15.368C35.5773 15.2187 35.6373 15.1174 35.7133 15.028L35.9613 14.78C36.132 14.62 36.3173 14.4787 36.5107 14.352C36.7053 14.2267 36.9093 14.1147 37.1227 14.028C37.3347 13.94 37.5573 13.8774 37.7786 13.8347L37.8253 13.8667L37.8053 13.9094L37.804 13.9107C37.6093 14.02 37.4173 14.1227 37.244 14.252C37.0653 14.3747 36.8973 14.508 36.74 14.652C36.58 14.792 36.4307 14.9454 36.2907 15.1027L36.0907 15.3467C36.0254 15.4267 35.9467 15.4987 35.824 15.532L35.7947 15.54L35.58 15.4174L35.5733 15.368Z" fill="#682B22"/>
<path id="path1884" d="M37.2186 19.9147L37.4639 19.6173C37.5639 19.5387 37.6973 19.4733 37.8199 19.46L38.0906 19.3187L38.2026 19.024L38.232 18.9973L38.2559 19.0173L38.1999 19.4093C38.1159 19.5293 37.9773 19.5867 37.8453 19.608L37.5279 19.7067L37.2986 19.9533L37.296 19.9573L37.2359 19.9733L37.2186 19.9147Z" fill="#682B22"/>
<path id="path1886" d="M32.4866 12.0053C33.9132 14.3013 37.6893 14.5333 40.9226 12.5267C44.1573 10.52 45.624 7.02932 44.1986 4.73466C42.7746 2.43866 38.9973 2.20533 35.7626 4.21333C32.528 6.22 31.0626 9.70933 32.4866 12.0053Z" fill="#682B22"/>
<path id="path1888" d="M32.8506 12.0867C31.4266 9.796 33.0159 6.236 36.3973 4.13734C37.3079 3.572 38.2559 3.17467 39.1839 2.93467C38.0572 3.10134 36.8786 3.52135 35.7626 4.21335C32.528 6.22001 31.0626 9.70934 32.4866 12.0053C33.2172 13.1813 34.5666 13.812 36.1426 13.8813C34.7106 13.7507 33.5119 13.1533 32.8506 12.0867Z" fill="#B14B3C"/>
<path id="path1890" d="M36.536 11.1506C36.536 11.1506 36.7721 11.9627 38.6601 11.844C38.6601 11.844 39.6267 11.9293 39.8134 12.584C39.8134 12.584 40.0374 14.4306 41.1134 14.2733C41.1134 14.2733 41.9961 14.2386 41.9627 13.632C41.9627 13.632 41.6094 12.0907 42.9054 11.7973C42.9054 11.7973 44.2254 11.416 44.8694 13.22C44.8694 13.22 45.2254 14.1506 44.7214 14.9573C44.7214 14.9573 45.372 17.06 48.0614 15.9506C48.0614 15.9506 50.708 13.18 47.7067 8.78931C46.4613 6.96665 44.3601 5.88266 42.1547 6.01466C40.9041 6.08799 39.4254 6.50265 37.7881 7.55998C37.7881 7.55998 35.6841 8.84399 35.9521 10.2947C35.9521 10.2947 35.908 10.6226 36.536 11.1506Z" fill="#682B22"/>
<path id="path1892" d="M43.756 14.5814C43.4826 14 43.0346 13.6227 42.604 13.6227C42.58 13.6227 42.556 13.624 42.5306 13.6267C42.5026 13.3987 42.4506 12.624 43.0066 12.4454C43.0066 12.4454 43.116 12.4173 43.2733 12.4173C43.6986 12.4173 44.4787 12.6213 44.4413 14.132C44.4413 14.132 44.4453 14.328 44.42 14.556L43.756 14.5814Z" fill="#BE462D"/>
<path id="path1894" d="M44.3452 15.5453C44.4426 15.676 44.4173 15.86 44.288 15.956C44.1573 16.0533 43.9733 16.028 43.8773 15.8987C43.7799 15.7693 43.8052 15.5853 43.9346 15.488C44.0639 15.3907 44.2479 15.4173 44.3452 15.5453Z" fill="#923C1D"/>
<path id="path1896" d="M101.933 12.492C101.933 12.492 94.9573 10.0573 89.2773 16.3867H71.428L69.4547 15.704C64.86 14.1173 60.0133 13.3827 55.152 13.536L53.2294 13.5974C52.7 13.6147 52.2813 14.048 52.2813 14.5774V18.3787C52.2813 19.696 52.824 20.9547 53.784 21.8587L63.9173 31.4027C65.352 32.7533 67.3987 33.2373 69.288 32.6707L72.7267 31.6387L87.9866 30.1134C89.3573 29.976 90.5333 31.0787 90.4866 32.4533L89.3187 53.992C89.268 55.5187 89.544 57.0227 89.964 58.4907C90.3453 59.8213 90.512 61.2053 90.4587 62.5893L90.1253 71.128L89.1346 85.8025L77.36 90.616L77.624 90.9384C78.1147 91.5384 78.8507 91.8864 79.6267 91.8864H84.4387C85.2733 91.8864 86.0973 91.7171 86.8733 91.4119C87.628 91.1145 88.432 90.9624 89.2426 90.9624H92.624C93.8627 90.9624 94.896 90.0093 94.9947 88.7733C95.0307 88.3145 94.4946 86.5504 94.276 86.1452L94.4373 85.3572H94.4387L97.8027 68.9255C98.7693 64.204 98.5066 59.3147 97.04 54.7253L96.872 54.2013L101.933 39.9134L104.855 27.2573C104.855 27.2573 109.885 14.9254 101.933 12.492Z" fill="#F0724E"/>
<path id="path1898" d="M101.933 12.492C101.933 12.492 94.9573 10.0574 89.2773 16.3867H85.932L85.916 30.32L87.9867 30.1134C89.3573 29.976 90.5333 31.0787 90.4867 32.4534L89.32 53.9614C89.2707 55.4094 89.464 56.8574 89.8907 58.2427C90.3227 59.6494 90.516 61.12 90.4587 62.5894L90.1253 71.128L89.5747 79.2958H90.72L93.028 72.4442L94.1813 79.2958H95.68L97.8027 68.9264C98.768 64.2054 98.5066 59.3147 97.04 54.7254L96.872 54.2014L101.933 39.9147L104.855 27.2574C104.855 27.2574 109.885 14.9254 101.933 12.492Z" fill="#3D7195"/>
<path id="path1900" d="M73.2827 16.3867H71.428L69.4547 15.704C64.86 14.1173 60.0133 13.3827 55.152 13.536L53.2294 13.5973C52.7 13.6147 52.2813 14.048 52.2813 14.5773V18.3787C52.2813 19.696 52.824 20.9547 53.784 21.8587L63.9173 31.4027C65.352 32.7533 67.3987 33.2373 69.288 32.6707L72.7267 31.6387L74.3987 31.472L73.2827 16.3867Z" fill="#3D7195"/>
<path id="path1902" d="M73.2827 16.3867H71.428L72.7267 31.6387L74.3987 31.472L73.2827 16.3867Z" fill="white"/>
<path id="path1904" d="M56.3453 13.7254C54.0133 13.584 52.008 15.3614 51.868 17.696C51.728 20.0267 53.5053 22.0307 55.8373 22.172C58.1706 22.312 60.1746 20.5347 60.3146 18.2013C60.4546 15.8693 58.6786 13.864 56.3453 13.7254Z" fill="#F0724E"/>
<path id="path1906" d="M29.6093 19.0387L29.568 17.9254C29.5093 16.3867 30.72 15.0787 32.26 15.02L55.5587 14.132C57.0987 14.0734 58.4067 15.284 58.4654 16.824L58.508 17.936C58.5667 19.476 57.3546 20.784 55.8146 20.8427L32.516 21.732C30.976 21.7907 29.668 20.5787 29.6093 19.0387Z" fill="#F0724E"/>
<path id="path1908" d="M58.4893 17.4413L58.4839 17.3307C58.4853 17.348 58.4866 17.364 58.4866 17.38C58.488 17.4014 58.488 17.4213 58.4893 17.4413Z" fill="#D3583A"/>
<path id="path1910" d="M32.9426 21.712C32.756 21.712 32.572 21.696 32.392 21.6667C33.104 21.6334 33.8813 21.368 34.56 20.6467C34.6347 20.572 34.7039 20.4934 34.7706 20.412L55.2666 19.6307C56.8493 19.5707 58.1387 18.4094 58.432 16.9147C58.4573 17.052 58.476 17.1894 58.484 17.3307L58.4893 17.4414C58.5253 19.26 57.084 20.7934 55.2586 20.8627L33.072 21.7094C33.028 21.7107 32.9853 21.712 32.9426 21.712Z" fill="#D3583A"/>
<path id="path1912" d="M32.9813 15.0427L14.9706 14.072C14.8586 14.0427 14.7373 14.0107 14.612 13.9734L13.8134 17.1494L31.344 21.5574C33.1347 22.008 34.9694 20.9107 35.4187 19.1187C35.8694 17.328 34.7733 15.4934 32.9813 15.0427Z" fill="#F0724E"/>
<path id="path1914" d="M31.5893 21.6107C31.52 21.5974 31.452 21.584 31.3853 21.568C31.4506 21.5827 31.5173 21.5974 31.5826 21.608C31.5853 21.6094 31.588 21.6094 31.5893 21.6107Z" fill="#DEBAA1"/>
<path id="path1916" d="M32.2373 21.6693C32.0119 21.6693 31.7946 21.648 31.5893 21.6107C31.5879 21.6093 31.5853 21.6093 31.5826 21.608C31.7746 21.6427 31.968 21.6587 32.1573 21.6587C32.2133 21.6587 32.2693 21.6573 32.324 21.6546C32.3466 21.6586 32.3693 21.6626 32.392 21.6666C32.34 21.6693 32.2879 21.6693 32.2373 21.6693Z" fill="#D3583A"/>
<path id="path1918" d="M32.3919 21.6667C32.3693 21.6627 32.3466 21.6587 32.324 21.6547C33.1746 21.612 33.9733 21.244 34.56 20.6467C33.8813 21.368 33.1039 21.6334 32.3919 21.6667Z" fill="#B8442B"/>
<path id="path1920" d="M32.1573 21.6587C31.968 21.6587 31.7746 21.6427 31.5826 21.608C31.5173 21.5974 31.4506 21.5827 31.3853 21.568C31.372 21.564 31.3573 21.5614 31.344 21.5574L13.824 17.152C13.8826 17.16 13.9413 17.1627 14 17.1627C14.572 17.1627 15.1133 16.824 15.4 16.2867L34.9693 20.1374C34.8373 20.328 34.7013 20.4974 34.56 20.6467C33.9733 21.244 33.1746 21.612 32.324 21.6547C32.2693 21.6574 32.2133 21.6587 32.1573 21.6587Z" fill="#D3583A"/>
<path id="path1922" d="M14.5533 13.9173L14.5547 13.9107C12.7187 13.3587 9.752 12.044 7.34134 11.9373L1.04264 12.7867C0.658637 12.8387 0.487994 13.3213 0.766661 13.5893C2.17066 14.936 8.19732 15.6853 9.72799 16.084L13.5413 17.0813L13.6333 17.116C14.4613 17.332 15.3213 16.7853 15.5533 15.8947C15.7786 15.032 15.332 14.1693 14.5533 13.9173Z" fill="#F0724E"/>
<path id="path1924" d="M15.5574 15.8813C15.5574 15.8787 15.5587 15.876 15.5587 15.8747C15.5587 15.8773 15.5574 15.8787 15.5574 15.8813ZM15.56 15.8693C15.596 15.724 15.612 15.5787 15.612 15.4373C15.612 15.5787 15.596 15.724 15.56 15.8693ZM15.612 15.4333C15.612 15.4307 15.612 15.428 15.612 15.4267C15.612 15.428 15.612 15.4307 15.612 15.4333Z" fill="#D3583A"/>
<path id="path1926" d="M14 17.1627C13.8787 17.1627 13.7547 17.148 13.6333 17.116L13.5413 17.0814L9.72799 16.084C8.19732 15.6854 2.17066 14.936 0.766661 13.5894C0.626661 13.4547 0.599986 13.264 0.658653 13.1027C2.67465 14.2067 7.67868 14.8507 9.05468 15.2094L12.868 16.2067L12.9587 16.2414C13.0813 16.2734 13.204 16.288 13.3267 16.288C14.028 16.288 14.6813 15.7787 14.88 15.02C14.9667 14.6894 14.952 14.3587 14.86 14.0614C15.3187 14.3401 15.6053 14.8574 15.612 15.4267C15.612 15.4281 15.612 15.4307 15.612 15.4334C15.612 15.4347 15.612 15.436 15.612 15.4374C15.612 15.5787 15.596 15.724 15.56 15.8694C15.56 15.8707 15.5587 15.8734 15.5587 15.8747C15.5587 15.876 15.5574 15.8787 15.5574 15.8814C15.556 15.8854 15.5546 15.8907 15.5533 15.8947C15.356 16.6534 14.7013 17.1627 14 17.1627Z" fill="#D3583A"/>
<path id="path1928" d="M86.6573 30.2467L87.8667 30.1254V16.3867H86.6573V30.2467Z" fill="#223C50"/>
<path id="path1930" d="M94.8707 75.3624L94.8373 75.4785C94.7587 75.6239 94.58 75.6775 94.4334 75.5999L91.1214 73.8212C90.976 73.7441 90.9214 73.5655 90.9987 73.4187C91.0774 73.2744 91.2574 73.2197 91.4027 73.2988L94.7147 75.0775L94.8707 75.3624Z" fill="#3D7195"/>
<path id="path1932" d="M95.0306 73.9786C95.0213 74.0999 94.9373 74.2078 94.8133 74.2427L91.1786 75.2307C91.0199 75.2734 90.8573 75.1802 90.8133 75.0212C90.7706 74.864 90.864 74.6999 91.0226 74.6562L94.6573 73.6682C94.8147 73.6255 94.9786 73.7187 95.0226 73.876L95.0306 73.9786Z" fill="#3D7195"/>
<path id="path1934" d="M94.856 77.0094L94.8213 77.1255C94.744 77.2692 94.564 77.3228 94.4187 77.2468L91.1053 75.4681C90.9613 75.3895 90.9053 75.2108 90.9827 75.064C91.0613 74.9187 91.2426 74.865 91.3866 74.9427L94.7 76.7212L94.856 77.0094Z" fill="#3D7195"/>
<path id="path1936" d="M95.016 75.6255C95.0053 75.7468 94.9213 75.8536 94.7986 75.8864L91.1626 76.8744C91.0053 76.9171 90.8413 76.8255 90.7986 76.6666C90.7546 76.5094 90.8493 76.3452 91.0066 76.3026L94.6413 75.3135C94.8 75.2692 94.9639 75.3624 95.0066 75.5228L95.016 75.6255Z" fill="#3D7195"/>
<path id="path1938" d="M94.7227 78.5775L94.6893 78.6922C94.6107 78.8374 94.4306 78.8906 94.2866 78.8135L90.972 77.0332C90.828 76.9572 90.7733 76.7786 90.852 76.6322C90.9293 76.4864 91.1093 76.4332 91.2533 76.5108L94.568 78.2895L94.7227 78.5775Z" fill="#3D7195"/>
<path id="path1940" d="M94.884 77.1931C94.8733 77.3135 94.7893 77.4197 94.6653 77.4545L91.0306 78.4427C90.872 78.4853 90.7093 78.3931 90.6653 78.2348C90.624 78.076 90.716 77.9135 90.8746 77.8692L94.5093 76.8812C94.6679 76.8373 94.8306 76.9306 94.8733 77.0894L94.884 77.1931Z" fill="#3D7195"/>
</g>
</svg>
