<svg width="170" height="33" viewBox="0 0 170 33" fill="none" xmlns="http://www.w3.org/2000/svg">
<g id="Group 9">
<path id="path602" d="M169.727 32.8093H0.945343L11.7584 17.62H158.913L169.727 32.8093Z" fill="#FBC341"/>
<path id="path604" d="M169.584 32.6093L45.214 28.2627L60.124 28.1547C60.4183 28.2507 60.7271 28.3 61.0396 28.3C61.4505 28.3 61.8672 28.2133 62.2631 28.0307L62.7719 27.7973C62.7792 27.7933 62.7869 27.7894 62.7943 27.7867L71.5505 23.7507C71.574 23.74 71.5979 23.7294 71.6213 23.7174L71.7839 23.6427L72.338 23.5933L73.3912 23.948C73.4875 23.9627 73.5828 23.9693 73.6765 23.9693C74.2271 23.9693 74.7364 23.7333 75.0921 23.3453L80.0755 22.8973C80.6245 22.8493 80.5953 22.036 80.0437 22.0267L75.624 21.9534L75.6344 21.868L79.3683 20.1467C80.176 21.1933 81.4193 21.8693 82.8041 21.9293L92.0027 22.3253L91.9896 23.2387C91.9891 23.2653 91.9891 23.2934 91.9891 23.32C91.9864 25.6134 93.2875 27.7133 95.3493 28.7333L96.572 29.3373C97.3467 29.72 98.1973 29.9187 99.06 29.9187H103.44H106.909C108.003 29.9187 109.093 29.784 110.153 29.516L116.423 27.9347V27.44L127.088 23.3053L129.556 24.5827C130.052 24.9414 130.641 25.1267 131.235 25.1267C131.565 25.1267 131.896 25.0694 132.215 24.9534L135.063 24.788C135.251 24.7187 135.412 24.596 135.528 24.4333C135.652 24.26 135.713 24.0573 135.712 23.8573C135.712 23.5907 135.603 23.328 135.395 23.136L130.681 19.9133C130.267 19.528 129.721 19.316 129.156 19.316C128.579 19.316 128.024 19.0947 127.605 18.696L127.1 18.216L144.908 17.62H158.913L169.584 32.6093ZM116.149 23.5573C116.164 23.556 116.179 23.556 116.192 23.5547C116.179 23.556 116.164 23.556 116.149 23.5573ZM116.207 23.5547C116.216 23.5534 116.227 23.5534 116.236 23.552C116.227 23.5534 116.216 23.5534 116.207 23.5547ZM116.252 23.552C116.261 23.5507 116.272 23.5507 116.283 23.5494C116.272 23.5507 116.261 23.5507 116.252 23.552ZM116.295 23.5494C116.307 23.548 116.319 23.548 116.329 23.5467C116.319 23.548 116.307 23.548 116.295 23.5494ZM116.339 23.5467C116.353 23.5453 116.368 23.544 116.383 23.544C116.368 23.544 116.353 23.5453 116.339 23.5467ZM116.389 23.5427C116.401 23.5427 116.413 23.5413 116.427 23.54C116.415 23.5413 116.401 23.5427 116.389 23.5427ZM116.437 23.54C116.448 23.5387 116.46 23.5387 116.471 23.5373C116.46 23.5387 116.448 23.5387 116.437 23.54ZM116.481 23.5373C116.493 23.536 116.505 23.5347 116.519 23.5347C116.505 23.5347 116.493 23.536 116.481 23.5373ZM116.525 23.5333C116.555 23.5307 116.584 23.5293 116.615 23.5267C116.584 23.5293 116.555 23.5307 116.525 23.5333ZM116.619 23.5267C116.632 23.5253 116.645 23.524 116.659 23.5227C116.645 23.524 116.632 23.5253 116.619 23.5267ZM116.664 23.5227C116.677 23.5214 116.692 23.52 116.705 23.5187C116.692 23.52 116.677 23.5214 116.664 23.5227ZM116.708 23.5187C121.656 23.0854 124.269 20.3573 125.495 18.5C124.271 20.3573 121.657 23.084 116.708 23.5187Z" fill="#DC9632"/>
<path id="path606" d="M61.4645 20.408L61.0541 19.5174C60.4855 18.284 61.0303 16.8107 62.2625 16.2427L80.9172 7.64402C82.1505 7.07735 83.624 7.62003 84.1921 8.85336L84.6021 9.74402C85.1708 10.976 84.6271 12.4494 83.3948 13.0187L64.7396 21.616C63.5068 22.1854 62.0333 21.64 61.4645 20.408Z" fill="#D4533A"/>
<path id="path608" d="M63.4735 15.8L47.8989 18.9507L47.5708 18.9467L47.5921 21.8307L63.5161 21.716C65.1432 21.704 66.4645 20.3627 66.4531 18.736C66.4412 17.1093 65.1005 15.788 63.4735 15.8Z" fill="#D4533A"/>
<path id="path610" d="M47.6063 21.8307C48.1453 21.7573 48.5869 21.3453 48.7407 20.7987L55.7703 20.7C56.0339 21.0947 56.3323 21.452 56.662 21.7653L47.6063 21.8307Z" fill="#C9432E"/>
<path id="path612" d="M47.5079 18.912V18.9054C45.8203 18.84 43 18.3747 40.9208 18.816L35.7364 20.9334C35.4208 21.0627 35.3817 21.512 35.6792 21.6787C36.7063 22.2547 39.5355 22.1067 41.6558 21.9587C42.6198 21.892 43.437 21.8254 43.8724 21.8254L47.3454 21.8334L47.4298 21.8427C48.1844 21.844 48.797 21.188 48.799 20.376C48.8 19.5907 48.2282 18.9547 47.5079 18.912Z" fill="#D4533A"/>
<path id="path614" d="M38.5792 22.0933C37.3469 22.0933 36.2421 21.9947 35.6792 21.6787C35.603 21.636 35.5489 21.5747 35.5161 21.5053C35.5489 21.5747 35.603 21.636 35.6792 21.6787C36.2421 21.9947 37.3469 22.0933 38.5792 22.0933C39.5953 22.0933 40.6973 22.0253 41.6557 21.9587C42.614 21.892 43.4276 21.8253 43.8645 21.8253C43.8672 21.8253 43.8697 21.8253 43.8724 21.8253L47.3453 21.8333L47.4297 21.8427C47.4303 21.8427 47.4312 21.8427 47.4317 21.8427C47.4906 21.8427 47.5489 21.8387 47.6062 21.8307C47.5489 21.8387 47.4906 21.8427 47.4317 21.8427C47.4312 21.8427 47.4303 21.8427 47.4297 21.8427L47.3453 21.8333L43.8724 21.8253C43.8697 21.8253 43.8672 21.8253 43.8645 21.8253C43.4276 21.8253 42.614 21.892 41.6557 21.9587C40.6973 22.0253 39.5953 22.0933 38.5792 22.0933Z" fill="#F09B31"/>
<path id="path616" d="M38.5792 22.0933C37.3469 22.0933 36.2421 21.9947 35.6792 21.6787C35.6031 21.636 35.5489 21.5747 35.5161 21.5053C35.5156 21.504 35.5145 21.5027 35.514 21.5013C35.4833 21.4347 35.4719 21.36 35.4787 21.288C36.0839 21.44 36.9208 21.4933 37.8265 21.4933C38.8401 21.4933 39.9385 21.4267 40.8932 21.3613C41.8469 21.2947 42.6573 21.2293 43.0948 21.2293C43.0979 21.2293 43.1011 21.2293 43.1041 21.2293L46.5771 21.2373L46.6615 21.2453C46.6625 21.2453 46.6631 21.2453 46.664 21.2453C47.4172 21.2453 48.0287 20.5907 48.0307 19.7787C48.0312 19.4773 47.9459 19.1987 47.8016 18.9667C48.376 19.14 48.7995 19.7013 48.7989 20.376C48.7969 21.124 48.2776 21.7387 47.6063 21.8307C47.5489 21.8387 47.4907 21.8427 47.4317 21.8427C47.4312 21.8427 47.4303 21.8427 47.4297 21.8427L47.3453 21.8333L43.8724 21.8253C43.8697 21.8253 43.8672 21.8253 43.8645 21.8253C43.4276 21.8253 42.614 21.892 41.6557 21.9587C40.6973 22.0253 39.5953 22.0933 38.5792 22.0933Z" fill="#C9432E"/>
<path id="path618" d="M129.156 19.316C128.579 19.316 128.024 19.0947 127.605 18.696L126.163 17.3267C125.403 18.9067 122.735 23.2227 116.149 23.5573L116.285 25.404L109.993 27.9347L116.423 26.772V27.44L127.088 23.3053L129.556 24.5827C130.327 25.1387 131.323 25.2787 132.215 24.9533L135.063 24.788C135.251 24.7187 135.412 24.596 135.528 24.4333C135.817 24.0293 135.76 23.472 135.395 23.136L130.681 19.9133C130.267 19.528 129.721 19.316 129.156 19.316Z" fill="#F0724E"/>
<path id="path620" d="M79.0693 9.37867L69.6276 13.256L73.2203 18.5347L74.1531 18.2827L75.7407 19.5333L75.8912 19.0413C76.1489 18.204 76.8177 17.5587 77.6625 17.328L82.1557 16.108L79.0693 9.37867Z" fill="#F0724E"/>
<path id="path622" d="M74.0208 14.8413C73.7511 14.6147 73.4505 14.42 73.1251 14.2653C73.6683 14.2827 74.1563 14.3974 74.5917 14.5787L74.0208 14.8413Z" fill="#D3583A"/>
<path id="path624" d="M64.6812 16.9907C68.6973 17.0147 71.9703 14.1387 71.9912 10.5667C72.0125 6.99334 68.7735 4.08003 64.7573 4.0547C60.7417 4.03069 57.4688 6.90802 57.4473 10.48C57.4265 14.052 60.6645 16.968 64.6812 16.9907Z" fill="#682B22"/>
<path id="path626" d="M66.6546 4.41469C66.5588 5.04135 66.2114 5.608 65.6202 6.09867L65.4041 6.08002L65.424 5.86267C66.0421 5.34934 66.3645 4.75069 66.3754 4.08803C66.4036 2.59869 64.8937 1.22669 64.8792 1.21335L64.8672 0.996002L65.0833 0.984023C65.1495 1.04402 66.7131 2.46266 66.6823 4.092L66.6546 4.41469Z" fill="#682B22"/>
<path id="path628" d="M74.9792 9.76801C74.8745 10.4533 74.5521 11.796 73.5964 12.5293C72.9948 12.992 72.2448 13.1347 71.3651 12.952L71.2464 12.7707L71.4276 12.6507C72.2156 12.8134 72.8823 12.692 73.4088 12.2867C74.5927 11.3787 74.7213 9.34533 74.7213 9.324L74.8833 9.18002L75.0281 9.34135C75.0265 9.36401 75.0161 9.52667 74.9792 9.76801Z" fill="#682B22"/>
<path id="path630" d="M74.588 10.3067C74.4844 10.9813 74.2432 11.6907 73.724 12.1587C73.1412 12.684 72.3125 12.8133 71.2604 12.544L71.1495 12.3587L71.3364 12.2467C72.2823 12.488 73.0172 12.3827 73.5183 11.9307C74.6385 10.9227 74.3 8.50935 74.2969 8.48402L74.426 8.30935L74.6005 8.44001C74.6093 8.50134 74.7317 9.37068 74.588 10.3067Z" fill="#682B22"/>
<path id="path632" d="M58.9697 23.048C62.4489 23.9107 66.1979 20.8573 67.3421 16.2307C68.4875 11.604 66.5953 7.156 63.1161 6.29467C59.6374 5.43334 55.8885 8.48669 54.7432 13.1134C53.5989 17.74 55.4912 22.188 58.9697 23.048Z" fill="#682B22"/>
<path id="path634" d="M55.7306 13.264C56.776 9.03868 59.9921 6.1387 63.1921 6.3187L63.1156 6.29468C59.6374 5.43335 55.8885 8.4867 54.7432 13.1134C53.5989 17.74 55.4912 22.188 58.9702 23.048C59.2724 23.124 59.5765 23.1587 59.8812 23.176C56.4521 22.268 54.5942 17.856 55.7306 13.264Z" fill="#B14B3C"/>
<path id="path636" d="M61.0677 10.5267C63.9579 10.5427 66.3131 8.34137 66.3297 5.60937C66.3459 2.87603 64.0161 0.646689 61.126 0.63069C58.2364 0.613357 55.8807 2.81337 55.8645 5.5467C55.8484 8.28004 58.1776 10.5094 61.0677 10.5267Z" fill="#682B22"/>
<path id="path638" d="M61.5864 9.98137C58.6973 9.96537 56.3672 7.73603 56.3833 5.00403C56.3907 3.8667 56.8063 2.82535 57.4921 1.99335C56.4979 2.88802 55.8729 4.14671 55.8645 5.54671C55.8484 8.28004 58.1776 10.5094 61.0677 10.5267C62.7552 10.536 64.2573 9.78671 65.2208 8.61871C64.2751 9.46938 62.9953 9.99071 61.5864 9.98137Z" fill="#B14B3C"/>
<path id="path640" d="M66.2104 13.464C65.726 16.6267 64.5979 18.8507 62.8453 20.0907C60.5839 21.6933 58.1484 21.0253 58.0459 20.996C57.8828 20.9493 57.786 20.784 57.8349 20.6174C57.8807 20.4547 58.05 20.36 58.2136 20.4067C58.236 20.412 60.4812 21.02 62.4984 19.584C64.45 18.1974 65.5661 15.424 65.8156 11.3427C65.8276 11.168 65.9719 11.044 66.1412 11.0547C66.3104 11.0654 66.4391 11.2107 66.4292 11.38C66.3833 12.1147 66.3115 12.8093 66.2104 13.464Z" fill="#682B22"/>
<path id="path642" d="M63.2636 15.012L64.527 14.5347C64.527 14.5347 66.8281 13.5454 66.5854 10.952L65.0426 9.97603L63.6166 8.98804L62.4526 9.72271L62.0588 12.292L63.3 14.776" fill="#682B22"/>
<path id="path644" d="M58.9407 17.992C58.9407 17.992 59.9297 21.576 64.4183 22.24C64.8027 22.2987 65.1661 22.4534 65.476 22.688L67.8563 24.496C68.0151 24.6173 68.226 24.6454 68.4115 24.5734C68.6 24.4974 68.736 24.328 68.7661 24.128L68.8391 23.6547L68.9355 23.504L69.1011 23.392L69.4713 23.4467L69.7541 23.7947L70.2156 23.5494L70.7755 23.68L71.0917 23.784C71.4609 23.9067 71.7021 23.6307 72.0693 23.5027L73.3912 23.948C74.4615 24.1067 75.4527 23.3534 75.5839 22.2787L75.6713 21.5694C75.8125 20.4187 75.7817 19.252 75.5787 18.1107L75.4339 17.292C75.1849 15.8907 74.2355 14.7134 72.9188 14.1747L71.2489 13.4907C71.7552 10.1867 69.0797 7.23468 65.7448 7.46668C63.4656 7.62402 61.2136 8.42537 60.2369 10.7214C60.2369 10.7214 58.274 14.5707 58.9407 17.992Z" fill="#F0724E"/>
<path id="path646" d="M71.5505 23.7507L71.6213 23.7173C71.5979 23.7293 71.574 23.74 71.5505 23.7507Z" fill="#D3583A"/>
<path id="path648" d="M70.3573 21.7667C70.276 22.024 70.0063 22.7693 69.4703 23.2387C69.4703 23.2387 69.0473 23.4107 69.2484 23.856C69.2484 23.856 69.6401 24.14 70.1912 23.704C70.1912 23.704 70.7188 24.0454 70.9531 23.9867C70.9531 23.9867 71.3328 24.056 71.1527 23.3787C71.1527 23.3787 70.9245 22.2067 70.4573 21.74L70.3573 21.7667Z" fill="#B73C2B"/>
<path id="path650" d="M65.1683 21.4053C64.9781 21.1747 64.9145 20.8907 64.8907 20.6133C64.8797 20.4733 64.8823 20.3347 64.8953 20.196L64.9219 19.9907L64.9391 19.8894L64.9563 19.7973C65.0005 19.5507 65.0339 19.2987 65.0459 19.0547C65.0511 18.932 65.0479 18.812 65.0303 18.7027L64.9057 18.4427L64.8875 18.428L64.8693 18.3L64.9787 18.2693L65.0969 18.3253L65.1921 18.4147L65.2599 18.516L65.3079 18.6214C65.3593 18.764 65.386 18.908 65.3937 19.0467C65.4136 19.328 65.3844 19.6 65.3349 19.868C65.3093 20.0107 65.2787 20.116 65.2604 20.244C65.2375 20.3653 65.2229 20.4893 65.2125 20.612C65.1937 20.856 65.1948 21.1107 65.2579 21.344L65.2609 21.3573L65.2235 21.4214L65.1683 21.4053Z" fill="#682B22"/>
<path id="path652" d="M65.5781 20.5013C65.8234 20.5373 66.0073 20.668 65.989 20.7894C65.9702 20.912 65.7557 20.9787 65.5104 20.9413C65.265 20.904 65.0812 20.7747 65.1005 20.652C65.1188 20.5307 65.3328 20.464 65.5781 20.5013Z" fill="#682B22"/>
<path id="path654" d="M66.0833 21.104L66.0797 21.1253L66.0235 21.16L65.9875 21.104C65.988 21.1013 66.0303 20.9027 65.9203 20.768C65.8505 20.6827 65.7307 20.6387 65.5645 20.6387L65.5177 20.5933L65.564 20.5467C65.7599 20.544 65.9041 20.6 65.9932 20.7094C66.1093 20.8534 66.0927 21.0413 66.0833 21.104Z" fill="#682B22"/>
<path id="path656" d="M63.1598 21.232C63.0374 21.1013 63.0047 20.9653 62.9953 20.8253C62.9921 20.6853 62.9948 20.5454 63.0021 20.408C63.0136 20.1307 63.0563 19.856 63.1145 19.5854C63.176 19.316 63.2573 19.052 63.3677 18.8013C63.4755 18.5493 63.6125 18.3107 63.7672 18.0894L63.8317 18.0787L63.8511 18.1307L63.8505 18.1333C63.776 18.388 63.6984 18.636 63.6568 18.8907C63.6073 19.1427 63.5745 19.3974 63.5598 19.6507C63.539 19.904 63.5412 20.1574 63.5521 20.4094C63.5579 20.5347 63.5693 20.66 63.5833 20.784C63.5937 20.9067 63.5869 21.0333 63.5104 21.164L63.4921 21.1947L63.2063 21.2693L63.1598 21.232Z" fill="#682B22"/>
<path id="path658" d="M68.3453 23.7427C68.3016 23.5907 68.286 23.44 68.3073 23.2854C68.3265 23.136 68.3869 22.968 68.4797 22.856L68.5942 22.5094L68.4437 22.164L68.4473 22.1174L68.4844 22.1134C68.6166 22.1827 68.738 22.3213 68.762 22.4947C68.7896 22.668 68.7213 22.832 68.625 22.96C68.5312 23.068 68.4636 23.172 68.4369 23.3067C68.4088 23.4373 68.4109 23.5827 68.4448 23.7094L68.4458 23.7134L68.4088 23.7787L68.3453 23.7427Z" fill="#682B22"/>
<path id="path660" d="M57.7297 20.9293C60.8546 21.7027 64.2713 18.76 65.3614 14.3587C66.4505 9.95599 64.8 5.75869 61.675 4.98535C58.55 4.21335 55.1333 7.15466 54.0442 11.5573C52.9541 15.9613 54.6046 20.156 57.7297 20.9293Z" fill="#682B22"/>
<path id="path662" d="M58.1088 20.6987C54.988 19.9267 53.3828 15.5694 54.5224 10.9654C54.8286 9.72535 55.3078 8.59871 55.8984 7.62271C55.0765 8.70004 54.4197 10.0387 54.0442 11.5573C52.9541 15.9613 54.6046 20.156 57.7297 20.9293C59.3312 21.3253 61.0073 20.7427 62.4093 19.4907C61.0802 20.5707 59.5598 21.0574 58.1088 20.6987Z" fill="#B14B3C"/>
<path id="path664" d="M60.474 16.8333C60.474 16.8333 61.3505 17.3293 62.8625 15.6587C62.8625 15.6587 63.7578 14.928 64.4609 15.3293C64.4609 15.3293 66.1901 16.7187 66.976 15.692C66.976 15.692 67.7 14.9267 67.1661 14.436C67.1661 14.436 65.5844 13.416 66.4448 12.088C66.4448 12.088 67.2541 10.664 69.3046 11.6694C69.3046 11.6694 70.3823 12.1667 70.6224 13.2734C70.6224 13.2734 72.9265 14.5267 74.2989 11.3427C74.2989 11.3427 74.2521 6.77601 68.0412 5.52668C65.4609 5.00934 62.7667 5.83203 60.9953 7.77736C59.9896 8.88269 59.0729 10.4653 58.5562 12.7293C58.5562 12.7293 57.8281 15.5747 59.2631 16.588C59.2631 16.588 59.4978 16.9053 60.474 16.8333Z" fill="#682B22"/>
<path id="path666" d="M70.2407 14.168L70.0131 14.0107C69.5396 13.7253 69.0412 13.5854 68.6104 13.5854C68.2031 13.5854 67.8563 13.7107 67.6479 13.96C67.4344 13.7893 66.7443 13.1707 67.0708 12.5573C67.0708 12.5573 67.4521 11.928 68.1584 11.928C68.5667 11.928 69.0833 12.1387 69.6979 12.8013C69.6979 12.8013 70.5912 13.676 70.3172 14.06L70.2407 14.168Z" fill="#BE462D"/>
<path id="path668" d="M70.7912 14.088C70.9817 14.1187 71.1125 14.2973 71.0833 14.4867C71.0541 14.6773 70.876 14.808 70.6855 14.7787C70.4948 14.7507 70.3645 14.572 70.3937 14.3813C70.4224 14.1907 70.6011 14.06 70.7912 14.088Z" fill="#923C1D"/>
<path id="path670" d="M78.5303 18.3734L77.4609 13.728C76.8265 10.9733 78.4172 8.19603 81.1125 7.34803L88.6844 4.96535C93.9188 3.31735 99.2907 2.14271 104.735 1.45604L109.949 0.797348C114.369 0.240015 118.828 1.50402 122.296 4.30269L123.264 5.0827C126.729 7.88003 128 12.5907 126.411 16.7507C126.411 16.7507 124.22 23.1467 116.149 23.5573L116.285 25.404L109.993 27.9347L116.423 26.772V27.9347L110.153 29.516C109.093 29.784 108.003 29.9187 106.909 29.9187H99.06C98.1973 29.9187 97.3467 29.72 96.572 29.3374L95.3493 28.7333C93.2631 27.7013 91.9557 25.564 91.9896 23.2387L92.0027 22.3253L82.8041 21.9293C80.7421 21.84 78.9937 20.3854 78.5303 18.3734Z" fill="#F0724E"/>
<path id="path672" d="M94.1369 3.43201C92.5052 3.83735 90.8849 4.2867 89.2771 4.78003L88.2391 22.164L92.0027 22.3253L91.9896 23.2387C91.9557 25.564 93.2631 27.7013 95.348 28.7333L96.572 29.3374C97.3467 29.72 98.1973 29.9187 99.06 29.9187H102.537L94.1369 3.43201Z" fill="white"/>
<path id="path674" d="M94.1369 3.43201C93.4188 3.61068 92.7027 3.79734 91.988 3.99201L100.421 29.9187H102.537L94.1369 3.43201Z" fill="#3D7195"/>
<path id="path676" d="M126.411 16.7507C128 12.5907 126.729 7.88003 123.264 5.0827L122.296 4.30269C119.38 1.95069 115.764 0.697371 112.06 0.685369L114.22 1.5867C114.808 1.83204 114.995 2.57469 114.593 3.06935L109.472 9.3787C108.924 10.0547 108.625 10.8987 108.625 11.768C108.625 12.7814 108.031 13.7 107.107 14.1174L95.724 19.2454C94.2287 19.9174 92.9427 20.9827 92.0027 22.3253L91.9896 23.2387C91.9557 25.564 93.2631 27.7013 95.3493 28.7333L96.572 29.3374C97.3467 29.72 98.1973 29.9187 99.06 29.9187H106.909C108.003 29.9187 109.093 29.784 110.153 29.516L116.423 27.9347V26.772L109.993 27.9347L116.285 25.404L116.149 23.5573C124.22 23.1467 126.411 16.7507 126.411 16.7507Z" fill="#3D7195"/>
<path id="path678" d="M126.411 16.7507C128 12.5907 126.729 7.88003 123.264 5.0827L122.296 4.30269C119.38 1.95069 115.764 0.697371 112.06 0.685369L114.22 1.5867C114.808 1.83204 114.995 2.57469 114.593 3.06935L109.472 9.3787C108.924 10.0547 108.625 10.8987 108.625 11.768C108.625 12.7814 108.031 13.7 107.107 14.1174L95.724 19.2454C94.2287 19.9174 92.9427 20.9827 92.0027 22.3253L91.9896 23.2387C91.9557 25.564 93.2631 27.7013 95.3493 28.7333L96.572 29.3374C97.3467 29.72 98.1973 29.9187 99.06 29.9187H106.909C108.003 29.9187 109.093 29.784 110.153 29.516L116.423 27.9347V26.772L109.993 27.9347L116.285 25.404L116.149 23.5573C124.22 23.1467 126.411 16.7507 126.411 16.7507Z" fill="#3D7195"/>
<path id="path680" d="M114.403 28.0214L114.324 28.0227L114.176 27.8014L114.647 25.4547L114.868 25.3067L115.016 25.5293L114.545 27.8747L114.403 28.0214Z" fill="#3D7195"/>
<path id="path682" d="M115.301 27.844L115.103 27.764L113.777 25.7733L113.829 25.5133L114.089 25.5653L115.416 27.556L115.364 27.816L115.301 27.844Z" fill="#3D7195"/>
<path id="path684" d="M113.368 28.3373L113.289 28.3387L113.141 28.1174L113.612 25.7707L113.833 25.624L113.981 25.8454L113.511 28.192L113.368 28.3373Z" fill="#3D7195"/>
<path id="path686" d="M114.267 28.16L114.068 28.0814L112.743 26.088L112.795 25.828L113.055 25.88L114.381 27.872L114.329 28.1333L114.267 28.16Z" fill="#3D7195"/>
<path id="path688" d="M112.36 28.568L112.281 28.5693L112.135 28.348L112.605 26.0013L112.827 25.8547L112.973 26.076L112.503 28.4214L112.36 28.568Z" fill="#3D7195"/>
<path id="path690" d="M113.259 28.3907L113.06 28.3107L111.733 26.3187L111.787 26.0587L112.047 26.112L113.373 28.1027L113.321 28.3627L113.259 28.3907Z" fill="#3D7195"/>
<path id="path692" d="M108.361 12.8947C109.045 12.6867 109.795 12.3867 109.795 11.4907C109.795 10.6987 110.069 9.92401 110.568 9.31068L115.688 3.00134C115.947 2.68267 116.037 2.27201 115.937 1.87467C115.839 1.48134 115.571 1.16934 115.199 1.00801C114.401 0.852008 113.592 0.754683 112.775 0.71735L114.928 1.61602C115.109 1.69335 115.241 1.84667 115.289 2.03734C115.337 2.22934 115.293 2.42535 115.169 2.58001L110.048 8.88936C109.455 9.62269 109.127 10.5453 109.127 11.4907C109.127 11.7893 108.959 11.9533 108.6 12.1013C108.564 12.38 108.483 12.6467 108.361 12.8947Z" fill="#223C50"/>
<path id="path694" d="M76.8708 16.8333L76.7823 16.82C76.6167 16.7707 76.5213 16.596 76.5703 16.4293L76.6688 16.0987C77.9521 11.7453 81.2527 8.18535 85.4969 6.57602L90.1688 4.80535C90.3303 4.74535 90.512 4.82536 90.5729 4.9867C90.6349 5.14936 90.5536 5.33067 90.3907 5.392L85.7188 7.16267C81.6579 8.70267 78.4979 12.1094 77.2703 16.276L77.1719 16.608C77.1312 16.7454 77.0068 16.8333 76.8708 16.8333Z" fill="white"/>
<path id="path696" d="M58.3573 26.5894L57.8677 25.5267C57.1901 24.0573 57.8391 22.3 59.3093 21.6227L81.5593 11.3667C83.0292 10.6907 84.7864 11.3387 85.464 12.808L85.9536 13.8707C86.6312 15.3413 85.9828 17.0987 84.5131 17.776L62.2631 28.0307C60.7932 28.7093 59.0355 28.06 58.3573 26.5894Z" fill="#F0724E"/>
<path id="path698" d="M62.7719 27.7973L71.5484 23.752C71.5494 23.7507 71.55 23.7507 71.5505 23.7507L62.7942 27.7867C62.7869 27.7894 62.7792 27.7933 62.7719 27.7973Z" fill="#C17123"/>
<path id="path700" d="M71.7833 23.6427L72.0803 23.5067L71.7839 23.6427H71.7833Z" fill="#DC9632"/>
<path id="path702" d="M71.6213 23.7173C71.6224 23.7173 71.6229 23.7173 71.6235 23.7173L71.7833 23.6427H71.7839L71.6213 23.7173ZM75.6344 21.868L79.3683 20.1467L75.6344 21.868Z" fill="#C17123"/>
<path id="path704" d="M72.0803 23.5067L75.6344 21.868L72.0803 23.5067Z" fill="#D3583A"/>
<path id="path706" d="M71.5484 23.752L71.6235 23.7173C71.6229 23.7173 71.6224 23.7173 71.6213 23.7173L71.5505 23.7507C71.55 23.7507 71.5495 23.7507 71.5484 23.752Z" fill="#B8442B"/>
<path id="path708" d="M79.3683 20.1467L83.1536 18.4027L79.3683 20.1467ZM85.7088 13.34L85.7016 13.324C85.7041 13.3293 85.7068 13.3347 85.7088 13.34Z" fill="#D3583A"/>
<path id="path710" d="M61.3484 28.1093C62.2172 27.9827 63.1833 27.536 63.814 26.416C63.9385 26.2067 64.0417 25.984 64.1213 25.7507L83.4927 16.8214C85.0041 16.1254 85.7869 14.476 85.4688 12.9107C85.5536 13.0427 85.6339 13.1773 85.7016 13.324L85.7088 13.34C86.5213 15.1013 85.7443 17.208 83.9817 18.0214L83.1536 18.4027L79.3683 20.1467L75.6344 21.868L72.0803 23.5067L71.7833 23.6427L71.6235 23.7174L71.5484 23.752L62.7719 27.7973C62.3104 28.0053 61.8265 28.1053 61.3484 28.1093Z" fill="#D3583A"/>
<path id="path712" d="M60.7531 21.0933L42.1787 24.8534C42.0547 24.8534 41.9235 24.852 41.7864 24.848L41.812 28.288L60.8047 28.1494C62.7448 28.1374 64.3213 26.536 64.3073 24.596C64.2932 22.656 62.6937 21.08 60.7531 21.0933Z" fill="#F0724E"/>
<path id="path714" d="M60.124 28.1547L60.8047 28.1494C60.812 28.1494 60.8197 28.1494 60.8271 28.1494C60.8197 28.1494 60.8125 28.1494 60.8047 28.1494L60.124 28.1547ZM60.8276 28.1494C60.9937 28.1467 61.1573 28.1333 61.3172 28.1093C61.3208 28.1093 61.324 28.1093 61.3276 28.1093C61.3344 28.1093 61.3417 28.1093 61.3484 28.1093C61.1693 28.1347 60.9948 28.148 60.8276 28.1494Z" fill="#D3583A"/>
<path id="path716" d="M61.3276 28.1093C61.324 28.1093 61.3208 28.1093 61.3172 28.1093C62.3781 27.9453 63.2855 27.304 63.814 26.416C63.1833 27.536 62.2172 27.9827 61.3484 28.1093C61.3417 28.1093 61.3344 28.1093 61.3276 28.1093Z" fill="#B8442B"/>
<path id="path718" d="M41.8297 28.288C42.4927 28.196 43.0317 27.6747 43.1979 26.9933L64.1167 25.7507C64.0281 25.996 63.926 26.216 63.814 26.416C63.2855 27.304 62.3781 27.9453 61.3172 28.1093C61.1573 28.1333 60.9937 28.1467 60.8276 28.1494H60.8271C60.8197 28.1494 60.812 28.1494 60.8047 28.1494L60.124 28.1547L45.214 28.2627L41.8297 28.288Z" fill="#D3583A"/>
<path id="path720" d="M41.7115 24.8067V24.7973C39.6984 24.72 36.335 24.1653 33.8542 24.692L27.6714 27.2173C27.2954 27.3707 27.2479 27.908 27.6036 28.1067C28.8282 28.7933 32.2031 28.6173 34.7323 28.44C35.8818 28.36 36.8563 28.28 37.3755 28.2813L41.5172 28.2906L41.6177 28.3027C42.5177 28.3027 43.2484 27.52 43.2506 26.552C43.2527 25.616 42.5703 24.8573 41.7115 24.8067Z" fill="#F0724E"/>
<path id="path722" d="M31.0604 28.6C29.5912 28.6 28.2745 28.4827 27.6036 28.1067C27.424 28.0053 27.3473 27.8187 27.364 27.6387C28.086 27.8213 29.0849 27.8854 30.1656 27.8854C31.3729 27.8854 32.6817 27.8067 33.8197 27.728C34.9568 27.6493 35.9234 27.5707 36.4453 27.5707C36.45 27.5707 36.4546 27.5707 36.4588 27.5707L40.601 27.5787L40.7021 27.5894C40.7026 27.5894 40.7036 27.5894 40.7041 27.5894C41.6026 27.5894 42.3328 26.808 42.3349 25.84C42.3354 25.48 42.2338 25.148 42.0609 24.8707C42.7473 25.0787 43.2521 25.748 43.2505 26.552C43.2484 27.5187 42.5188 28.3027 41.6197 28.3027C41.6193 28.3027 41.6188 28.3027 41.6177 28.3027L41.5172 28.2907L37.3754 28.2814C37.3729 28.2814 37.3702 28.2814 37.3682 28.2814C36.8469 28.2814 35.876 28.3613 34.7322 28.44C33.589 28.52 32.2729 28.6 31.0604 28.6Z" fill="#D3583A"/>
<path id="path724" d="M109.993 27.9347L112.215 27.0413L112.355 27.2507L112.3 27.5173L109.993 27.9347ZM116.423 27.44V26.772L115.057 27.0187L114.796 26.6253L114.932 25.948L116.285 25.404C116.285 25.404 124.277 24.92 126.161 17.3293C126.163 17.3293 126.163 17.328 126.163 17.3267L127.605 18.696C128.024 19.0947 128.579 19.316 129.156 19.316C129.721 19.316 130.267 19.528 130.681 19.9133L135.395 23.136C135.603 23.328 135.712 23.5907 135.712 23.8573C135.713 24.0573 135.652 24.26 135.528 24.4333C135.412 24.596 135.251 24.7187 135.063 24.788L132.215 24.9533C131.896 25.0693 131.565 25.1267 131.235 25.1267C130.641 25.1267 130.052 24.9413 129.556 24.5827L127.088 23.3053L116.423 27.44ZM114.501 26.1827L114.469 26.1347L114.515 26.116L114.501 26.1827Z" fill="#E45A3E"/>
<path id="path726" d="M106.909 29.9187H103.44L116.149 23.5573L116.285 25.404L114.932 25.948L115.016 25.5293L114.868 25.3067L114.647 25.4547L114.515 26.116L114.469 26.1347L114.089 25.5653L113.829 25.5134L113.803 25.644L113.612 25.7707L113.467 26.4987L113.055 25.88L112.795 25.828L112.783 25.8827L112.605 26.0014L112.459 26.7307L112.047 26.112L111.787 26.0587L111.733 26.3187L112.215 27.0414L109.993 27.9347L112.3 27.5174L112.135 28.348L112.281 28.5694L112.36 28.568L112.503 28.4214L112.649 27.6933L113.06 28.3107L113.259 28.3907L113.321 28.3627L113.327 28.3374H113.368L113.511 28.192L113.657 27.4627L114.068 28.0814L114.267 28.16L114.329 28.1333L114.351 28.0214H114.403L114.545 27.8747L114.691 27.1467L115.103 27.764L115.301 27.844L115.364 27.816L115.416 27.556L115.057 27.0187L116.423 26.772V27.44V27.9347L110.153 29.516C109.093 29.784 108.003 29.9187 106.909 29.9187ZM126.161 17.3293C126.163 17.3293 126.163 17.328 126.163 17.3267C126.163 17.328 126.163 17.3293 126.161 17.3293Z" fill="#355970"/>
<path id="path728" d="M112.909 27.408L112.753 27.172L112.829 26.7947L113.131 26.672L113.363 27.02L113.299 27.3373L112.909 27.408Z" fill="#E45A3E"/>
<path id="path730" d="M113.197 27.84L112.909 27.408L113.299 27.3374L113.197 27.84ZM112.829 26.7947L112.917 26.352L113.131 26.672L112.829 26.7947Z" fill="#355970"/>
<path id="path732" d="M113.947 27.22L113.761 26.9414L113.876 26.3734L114.113 26.2774L114.396 26.704L114.307 27.1547L113.947 27.22Z" fill="#E45A3E"/>
<path id="path734" d="M114.213 27.62L113.947 27.22L114.307 27.1547L114.213 27.62ZM113.876 26.3733L113.945 26.0267L114.113 26.2773L113.876 26.3733Z" fill="#355970"/>
<path id="path736" d="M114.351 28.0214L114.381 27.872L114.213 27.62L114.307 27.1547L114.396 26.704L114.691 27.1467L114.545 27.8747L114.403 28.0214H114.351ZM114.796 26.6253L114.501 26.1827L114.515 26.116L114.647 25.4547L114.868 25.3067L115.016 25.5293L114.932 25.948L114.796 26.6253Z" fill="#355970"/>
<path id="path738" d="M115.301 27.844L115.103 27.764L114.691 27.1467L114.396 26.704L114.113 26.2773L113.945 26.0266L113.981 25.8453L113.833 25.624L113.803 25.644L113.829 25.5133L114.089 25.5653L114.469 26.1347L114.501 26.1827L114.796 26.6253L115.057 27.0187L115.416 27.556L115.364 27.816L115.301 27.844Z" fill="#355970"/>
<path id="path740" d="M113.327 28.3373L113.373 28.1027L113.197 27.84L113.299 27.3373L113.363 27.02L113.657 27.4627L113.511 28.192L113.368 28.3373H113.327ZM113.761 26.9413L113.467 26.4987L113.612 25.7707L113.803 25.644L113.833 25.624L113.981 25.8453L113.945 26.0267L113.876 26.3733L113.761 26.9413Z" fill="#355970"/>
<path id="path742" d="M114.267 28.16L114.068 28.0814L113.657 27.4627L113.363 27.02L113.131 26.672L112.917 26.352L112.973 26.076L112.827 25.8547L112.783 25.8827L112.795 25.828L113.055 25.88L113.467 26.4987L113.761 26.9414L113.947 27.22L114.213 27.62L114.381 27.872L114.351 28.0214L114.329 28.1333L114.267 28.16Z" fill="#355970"/>
<path id="path744" d="M112.281 28.5693L112.135 28.348L112.3 27.5174L112.355 27.2507L112.649 27.6933L112.503 28.4214L112.36 28.568L112.281 28.5693ZM112.753 27.172L112.459 26.7307L112.605 26.0013L112.783 25.8827L112.827 25.8547L112.973 26.076L112.917 26.352L112.829 26.7947L112.753 27.172Z" fill="#355970"/>
<path id="path746" d="M113.259 28.3907L113.06 28.3107L112.649 27.6933L112.355 27.2507L112.215 27.0413L111.733 26.3187L111.787 26.0587L112.047 26.112L112.459 26.7307L112.753 27.172L112.909 27.408L113.197 27.84L113.373 28.1027L113.327 28.3373L113.321 28.3627L113.259 28.3907Z" fill="#355970"/>
<path id="path748" d="M116.172 23.5573C116.157 23.5573 116.149 23.5573 116.149 23.5573C116.164 23.556 116.179 23.556 116.192 23.5547C116.197 23.5547 116.201 23.5547 116.207 23.5547C116.216 23.5533 116.227 23.5533 116.236 23.552C116.241 23.552 116.247 23.552 116.252 23.552C116.261 23.5507 116.272 23.5507 116.283 23.5493C116.287 23.5493 116.291 23.5493 116.295 23.5493C116.307 23.548 116.319 23.548 116.329 23.5467C116.333 23.5467 116.336 23.5467 116.339 23.5467C116.353 23.5453 116.368 23.544 116.383 23.544C116.385 23.544 116.387 23.5427 116.389 23.5427C116.401 23.5427 116.415 23.5413 116.427 23.54C116.429 23.54 116.433 23.54 116.437 23.54C116.448 23.5387 116.46 23.5387 116.471 23.5373C116.475 23.5373 116.479 23.5373 116.481 23.5373C116.493 23.536 116.505 23.5347 116.519 23.5347C116.52 23.5333 116.523 23.5333 116.525 23.5333C116.555 23.5307 116.584 23.5293 116.615 23.5266C116.616 23.5266 116.617 23.5266 116.619 23.5266C116.632 23.5253 116.645 23.524 116.659 23.5227C116.661 23.5227 116.661 23.5227 116.664 23.5227C116.677 23.5213 116.692 23.52 116.705 23.5187C116.707 23.5187 116.707 23.5187 116.708 23.5187C121.657 23.084 124.271 20.3573 125.495 18.5C125.776 18.072 125.984 17.6906 126.131 17.3946C123.215 23.4573 116.607 23.5573 116.172 23.5573Z" fill="#E45A3E"/>
<path id="path750" d="M116.192 23.5547C116.197 23.5547 116.201 23.5547 116.207 23.5547C116.201 23.5547 116.197 23.5547 116.192 23.5547ZM116.236 23.552C116.241 23.552 116.247 23.552 116.252 23.552C116.247 23.552 116.241 23.552 116.236 23.552ZM116.283 23.5493C116.287 23.5493 116.291 23.5493 116.295 23.5493C116.291 23.5493 116.287 23.5493 116.283 23.5493ZM116.329 23.5467C116.333 23.5467 116.336 23.5467 116.339 23.5467C116.336 23.5467 116.333 23.5467 116.329 23.5467ZM116.383 23.544C116.385 23.544 116.387 23.5427 116.389 23.5427C116.387 23.5427 116.385 23.544 116.383 23.544ZM116.427 23.54C116.429 23.54 116.433 23.54 116.437 23.54C116.433 23.54 116.429 23.54 116.427 23.54ZM116.471 23.5373C116.475 23.5373 116.479 23.5373 116.481 23.5373C116.479 23.5373 116.475 23.5373 116.471 23.5373ZM116.519 23.5347C116.52 23.5333 116.523 23.5333 116.525 23.5333C116.523 23.5333 116.52 23.5333 116.519 23.5347ZM116.615 23.5267C116.616 23.5267 116.616 23.5267 116.619 23.5267C116.617 23.5267 116.616 23.5267 116.615 23.5267ZM116.659 23.5227C116.661 23.5227 116.661 23.5227 116.664 23.5227C116.661 23.5227 116.661 23.5227 116.659 23.5227ZM116.705 23.5187C116.707 23.5187 116.707 23.5187 116.708 23.5187C116.707 23.5187 116.707 23.5187 116.705 23.5187ZM125.495 18.5C125.797 18.0387 126.016 17.632 126.163 17.3267C126.152 17.3493 126.141 17.372 126.131 17.3947C125.984 17.6907 125.776 18.072 125.495 18.5Z" fill="#355970"/>
<path id="path752" d="M116.285 25.404L116.149 23.5573C116.149 23.5573 116.157 23.5573 116.172 23.5573C116.607 23.5573 123.215 23.4573 126.131 17.3946C126.141 17.372 126.152 17.3506 126.161 17.3293C124.277 24.92 116.285 25.404 116.285 25.404Z" fill="#DA4732"/>
<path id="path754" d="M116.285 25.404L116.149 23.5573L116.285 25.404ZM126.131 17.3946C126.141 17.372 126.152 17.3493 126.163 17.3266C126.163 17.328 126.163 17.3293 126.161 17.3293C126.152 17.3507 126.141 17.372 126.131 17.3946Z" fill="#304855"/>
</g>
</svg>
