<svg width="965" height="500" viewBox="0 0 965 500" fill="none" xmlns="http://www.w3.org/2000/svg">
<path d="M0 440.439H904.412V104.075H0V440.439Z" fill="#8EBEE9"/>
<path d="M63 242.173H64.5937V252.827H70.8641L70.6412 254.193H63V242.173Z" fill="#18392F"/>
<path d="M190 242.173H191.594V252.827H197.864L197.641 254.193H190V242.173Z" fill="#18392F"/>
<path d="M81.8042 242.173V254.193H80.2104V242.173H81.8042Z" fill="#18392F"/>
<path d="M93.6923 242.173H101.415V243.539H95.262V247.437H101.031V248.804H95.262V254.193H93.6923V242.173Z" fill="#18392F"/>
<path d="M119.616 248.573H113.638V252.827H120.205L119.998 254.193H112.074V242.173H119.904V243.539H113.638V247.208H119.616V248.573Z" fill="#18392F"/>
<path d="M131.885 250.845C132.212 252.289 133.196 253.067 134.938 253.067C136.814 253.067 137.556 252.188 137.556 251.052C137.556 249.847 136.964 249.171 134.554 248.589C131.721 247.9 130.738 246.931 130.738 245.24C130.738 243.455 132.056 242 134.738 242C137.601 242 138.778 243.656 138.94 245.232H137.318C137.102 244.163 136.434 243.285 134.681 243.285C133.217 243.285 132.394 243.944 132.394 245.092C132.394 246.219 133.073 246.664 135.18 247.175C138.608 248.008 139.212 249.343 139.212 250.884C139.212 252.824 137.777 254.343 134.836 254.343C131.814 254.343 130.512 252.692 130.264 250.845H131.885Z" fill="#18392F"/>
<path d="M152.622 243.539H148.74V242.173H158.114V243.539H154.226V254.193H152.622V243.539Z" fill="#18392F"/>
<path d="M172.124 254.193V249.783L172.042 249.464L167.808 242.173H169.63C170.722 244.124 172.465 247.223 173.012 248.28C173.532 247.241 175.325 244.115 176.462 242.173H178.165L173.797 249.491C173.756 249.565 173.728 249.629 173.728 249.8V254.193H172.124Z" fill="#18392F"/>
<path d="M215.073 248.573H209.096V252.827H215.661L215.454 254.193H207.532V242.173H215.36V243.539H209.096V247.208H215.073V248.573Z" fill="#18392F"/>
<path d="M594.675 151.251C542.067 207.578 512.877 289.323 443.74 323.383C375.545 356.979 295.269 339.731 225.679 375.994C196.517 391.19 170.253 413.219 152.177 440.439H904.412V104.075H653.457C631.852 117.12 611.932 132.774 594.675 151.251Z" fill="#F8E7F4"/>
<path d="M712.176 182.61C739.329 175.07 749.623 151.131 773.755 141.468C784.2 137.286 795.569 136.014 806.803 135.398C839.714 133.592 872.663 137.33 904.412 145.766V104.076H653.457C631.852 117.12 611.932 132.774 594.675 151.251C571.972 175.558 553.631 204.595 534.559 232.494C562.507 213.998 585.507 194.879 622.304 190.048C651.979 186.154 683.079 190.691 712.176 182.61Z" fill="#F89B9A"/>
<path d="M904.412 320.936C880.787 320.562 857.269 322.083 834.115 326.96C815.531 330.874 796.627 337.38 783.412 351.024C774.333 360.399 768.604 372.466 760.712 382.86C747.871 399.774 729.089 412.083 708.459 417.11C685.2 422.775 661.305 419.299 637.333 415.823C616.421 412.79 595.449 409.758 574.789 412.795C548.549 416.651 524.937 429.948 500.491 440.439H904.412V320.936Z" fill="#E0B597"/>
<path d="M401.555 417.4C368.969 417.4 342.552 410.912 342.552 402.911C342.552 394.911 368.969 388.423 401.555 388.423C434.14 388.423 460.556 394.911 460.556 402.911C460.556 410.912 434.14 417.4 401.555 417.4Z" fill="#9F8481"/>
<path d="M724.68 399.074C707.177 399.074 692.989 395.59 692.989 391.292C692.989 386.995 707.177 383.511 724.68 383.511C739.388 383.511 751.756 385.972 755.328 389.308C752.976 391.876 750.479 394.31 747.855 396.599C742.069 398.122 733.828 399.074 724.68 399.074Z" fill="#9F8481"/>
<path d="M747.855 396.599C750.479 394.31 752.976 391.876 755.328 389.308C756.007 389.942 756.368 390.606 756.368 391.292C756.368 393.343 753.136 395.21 747.855 396.599Z" fill="#936C54"/>
<path d="M429.505 390.203C426.821 390.772 424.119 391.223 421.381 391.286C417.103 391.383 412.68 390.5 409.192 388.022C407.281 386.663 405.76 384.876 404.503 382.894C404.264 383.198 404.045 383.522 403.783 383.806C399.92 388.026 393.697 390.184 388.636 392.359C381.367 395.483 373.771 397.844 366.009 399.387C363.928 399.802 361.341 400.672 361.195 402.791C370.699 407.283 381.608 407.628 392.107 407.069C402.603 406.509 413.159 405.13 423.583 406.48C424.617 406.615 425.689 406.772 426.685 406.466C428.735 405.83 429.717 403.49 430.019 401.364C430.544 397.668 429.825 393.928 429.505 390.203Z" fill="#F47580"/>
<path d="M406.456 320.526C405.405 305.344 405.659 289.94 405.447 274.688C397.952 267.931 393.088 258.795 388.171 249.986C386.516 247.022 384.745 243.967 382.295 241.686C382.264 241.807 382.251 241.931 382.213 242.052C381.723 243.644 380.729 245.024 379.944 246.494C377.025 251.962 377.096 258.58 378.42 264.636C379.744 270.691 382.221 276.426 383.947 282.379C388.884 299.415 391.089 317.046 394.239 334.494C397.008 349.844 399.989 365.156 403.105 380.44C403.333 381.562 403.552 382.686 403.783 383.806C404.045 383.522 404.264 383.198 404.503 382.894C404.739 382.591 405.003 382.311 405.215 381.988C406.475 380.071 407.211 377.862 407.879 375.666C409.519 370.272 410.824 364.779 411.797 359.227C409.689 346.367 407.347 333.394 406.456 320.526Z" fill="#D75052"/>
<path d="M405.215 381.988C406.475 380.071 407.211 377.862 407.879 375.666C409.519 370.272 410.823 364.779 411.799 359.227C412.745 353.835 413.381 348.388 413.687 342.922C414.372 330.676 413.312 318.314 414.793 306.112C415.424 300.915 416.4 295.939 416.883 290.63C417.132 287.876 417.459 285.131 417.851 282.394C418.277 279.404 418.784 276.424 419.399 273.467C419.976 270.686 420.736 267.77 422.76 265.778C425.007 263.568 428.333 262.951 431.457 262.538C440.055 261.402 448.717 261.028 457.393 260.979C464.403 260.94 471.42 261.108 478.421 261.288C487.315 261.519 496.207 261.748 505.099 261.976C507.508 258.62 510.407 255.614 513.673 253.082C516.533 250.864 519.997 249.872 523.116 248.319C525.657 249.063 528.2 249.804 530.716 250.61C540.341 253.684 550.043 257.959 556.523 265.714C559.868 269.718 562.205 274.495 563.819 279.458C565.589 284.906 566.495 290.828 565.332 296.388C591.136 309.115 615.983 324.444 644.176 329.384C652.469 330.838 660.913 331.355 669.172 332.996C687.899 336.72 705.388 346.156 724.408 347.716C724.707 349.783 724.887 351.827 724.245 353.79C723.577 355.831 722.095 357.49 720.652 359.082C718.869 361.052 717.032 363.058 715.019 364.796C714.712 364.131 714.343 363.498 713.849 362.954C712.101 361.024 709.381 360.37 706.827 359.87C694.885 357.532 682.747 356.42 670.619 355.607C649.409 354.186 627.983 353.735 607.132 349.216C602.241 348.156 597.151 345.888 592.217 345.354C587.559 344.847 582.9 344.607 578.217 343.76C568.235 341.959 558.357 339.183 549.319 334.496C542.211 330.81 536.448 325.74 530.004 321.126C527.453 319.299 524.708 318.371 522.284 316.254C520.919 315.062 519.617 313.795 518.387 312.464C508.048 312.555 497.74 311.219 487.776 308.312C479.339 305.851 471.108 302.752 462.799 299.9C457.735 298.16 452.091 295.59 446.711 295.144C446.232 295.106 445.729 295.092 445.296 295.302C444.261 295.799 444.156 297.203 444.184 298.351C444.697 319.655 439.999 340.188 433.996 360.494C431.173 370.042 428.689 379.916 429.468 389.844L429.504 390.203C426.821 390.772 424.119 391.223 421.381 391.286C417.103 391.383 412.68 390.5 409.192 388.022C407.281 386.663 405.76 384.875 404.503 382.894C404.739 382.591 405.003 382.311 405.215 381.988Z" fill="#272626"/>
<path d="M505.099 261.976C496.207 261.748 487.315 261.519 478.421 261.288C471.42 261.108 464.403 260.94 457.393 260.979C458.16 257.215 459.527 253.544 460.941 249.955C464.665 240.512 468.559 231.138 472.577 221.818C475.649 223.539 478.765 225.198 481.753 227.056C488.689 231.368 494.945 236.762 502.155 240.6C508.744 244.108 515.929 246.216 523.116 248.319C519.997 249.872 516.533 250.864 513.673 253.082C510.407 255.614 507.508 258.62 505.099 261.976Z" fill="#F47580"/>
<path d="M720.652 359.082C722.095 357.49 723.577 355.831 724.245 353.79C724.887 351.827 724.707 349.783 724.408 347.716L724.721 347.756C730.371 348.192 737.22 348.576 739.845 353.596C742.108 357.923 739.68 363.256 736.491 366.955C733.303 370.652 729.235 373.823 727.479 378.379C726.168 381.783 726.261 385.731 724.267 388.784C720.975 393.818 713.839 394.112 707.829 393.86C706.221 393.795 704.544 393.707 703.147 392.91C701.749 392.111 700.755 390.36 701.353 388.867C701.96 387.356 703.765 386.814 705.287 386.23C712.469 383.468 717.143 375.314 715.895 367.719C715.729 366.714 715.444 365.718 715.019 364.796C717.032 363.058 718.869 361.052 720.652 359.082Z" fill="#F47580"/>
<path d="M413.6 232.003C414.869 235.102 415.636 238.407 415.86 241.748C415.976 243.468 415.947 245.212 415.549 246.89C415.187 248.415 414.527 249.851 413.872 251.276C412.095 255.142 410.316 259.008 408.537 262.874C407.985 264.076 407.333 265.378 406.119 265.906C403.853 266.887 401.563 264.58 400.355 262.424C396.944 256.346 395.42 249.415 392.896 242.918C392.481 241.852 392.011 240.755 391.147 240.004C390.479 239.423 389.631 239.099 388.801 238.787C386.623 237.967 384.445 237.144 382.269 236.324C387.605 232.034 392.324 227.444 393.895 220.134C394.645 216.638 394.24 213.095 393.125 209.707C393.859 210.49 394.691 211.142 395.731 211.167C396.631 211.19 397.464 210.727 398.244 210.279C398.753 209.987 399.261 209.695 399.771 209.404C402.457 213.532 405.144 217.662 407.831 221.791C409.967 225.074 412.115 228.379 413.6 232.003Z" fill="#F47580"/>
<path d="M245.637 144.914C253.283 147.266 261.427 147.196 269.424 147.356C302.596 148.014 335.676 152.97 367.601 161.999C397.612 170.488 427.552 182.496 450.644 204.198C451.76 205.248 452.856 206.32 453.948 207.399C448.095 211.036 441.991 214.186 435.364 215.988C428.007 217.991 419.848 218.104 412.645 215.411C408.299 213.784 405.073 211.119 402.227 207.995C399.663 205.182 397.405 201.999 394.943 198.824C392.364 195.498 389.744 192.131 386.389 189.586C382.319 186.499 377.391 184.792 372.54 183.19C345.784 174.346 318.483 167.155 290.843 161.672C287.521 161.014 284.085 160.38 280.777 161.1C277.789 161.751 275.144 163.46 272.257 164.47C269.081 165.58 265.759 165.916 262.425 165.496C261.521 165.382 256.172 164.508 258.653 162.382C259.535 161.627 261.043 162.115 261.921 161.356C262.449 160.332 261.847 159.018 260.896 158.367C259.171 157.187 256.373 156.95 254.404 155.967C251.871 154.702 249.281 153.552 246.704 152.382C245.599 151.879 233.004 146.215 233.617 145.42C236.253 142.034 241.535 143.651 245.637 144.914Z" fill="#F47580"/>
<path d="M382.092 236.466L382.269 236.324C384.445 237.144 386.623 237.967 388.801 238.787C389.631 239.099 390.479 239.423 391.147 240.004C392.011 240.755 392.481 241.852 392.896 242.918C395.42 249.415 396.944 256.346 400.355 262.424C401.563 264.58 403.853 266.887 406.119 265.906C407.333 265.378 407.985 264.076 408.537 262.874C410.316 259.008 412.095 255.142 413.872 251.276C414.527 249.851 415.187 248.415 415.549 246.89C415.947 245.212 415.976 243.468 415.86 241.748C415.636 238.407 414.869 235.102 413.6 232.003C412.115 228.379 409.967 225.074 407.831 221.791C405.144 217.662 402.457 213.532 399.771 209.404C400.589 208.934 401.408 208.464 402.227 207.995C405.073 211.119 408.299 213.784 412.645 215.411C419.848 218.104 428.007 217.991 435.364 215.988C441.991 214.186 448.095 211.036 453.948 207.399C457.003 210.412 460.033 213.451 463.447 216.04C466.321 218.222 469.427 220.052 472.577 221.818C468.559 231.138 464.665 240.512 460.941 249.955C459.527 253.544 458.16 257.215 457.393 260.979C448.717 261.028 440.055 261.402 431.457 262.538C428.333 262.951 425.007 263.568 422.76 265.778C420.736 267.77 419.976 270.686 419.399 273.467C418.784 276.424 418.277 279.404 417.851 282.394C415.527 281.427 413.26 280.346 411.117 279.027C409.043 277.751 407.196 276.263 405.447 274.688C397.952 267.931 393.088 258.795 388.171 249.986C386.515 247.022 384.745 243.967 382.295 241.686C382.732 239.97 382.573 238.198 382.092 236.466Z" fill="#815A1D"/>
<path d="M332.023 231.57C333.36 233.576 335.333 235.059 337.295 236.463C340.603 238.831 344.033 241.116 347.867 242.476C351.701 243.839 356.019 244.21 359.812 242.74C359.951 242.687 360.076 242.61 360.212 242.552C361.199 243.17 362.223 243.692 363.275 244.058C362.523 246.316 361.881 248.671 362.365 250.979C363.083 254.395 365.753 256.575 366.337 260.126C366.948 263.851 366.535 267.748 365.011 271.212C364.235 272.976 363.181 274.682 362.988 276.599C362.679 279.675 364.521 283.259 362.511 285.608C361.613 286.658 360.2 287.064 358.927 287.599C356.591 288.582 353.769 290.307 351.848 291.951C349.299 294.134 347.635 298.314 343.515 297.066C341.632 296.494 340.127 295.114 338.513 293.986C336.9 292.859 334.909 291.935 333.012 292.462C332.06 292.724 331.213 293.339 330.232 293.463C326.305 293.956 324.656 286.896 320.72 287.316C319.515 287.446 318.501 288.308 317.311 288.538C314.859 289.011 312.688 286.607 312.156 284.167C311.623 281.727 312.147 279.188 312.007 276.694C311.829 273.548 310.516 270.443 308.4 268.108C306.249 265.734 304.115 265.611 304.231 261.942C304.461 254.655 304.955 246.691 309.883 241.318C310.791 240.327 311.857 239.414 312.347 238.162C312.927 236.679 312.585 235.012 312.723 233.424C313.084 229.27 317.301 225.863 321.439 226.383C322.06 226.462 322.74 226.604 323.277 226.284C323.74 226.01 323.961 225.47 324.151 224.968C325.26 222.048 326.368 219.131 327.475 216.212C328.687 213.023 331.141 209.794 333.995 207.526C332.789 210.167 331.916 212.986 331.208 215.81C329.888 221.071 329.016 227.056 332.023 231.57Z" fill="#2A1B19"/>
<path d="M365.309 239.008C367.445 240.4 369.547 242.036 371.848 242.319C370.603 243.402 369.135 244.219 367.522 244.494C366.063 244.742 364.644 244.532 363.275 244.058C362.223 243.692 361.199 243.17 360.212 242.552C362.143 241.73 363.819 240.49 365.309 239.008Z" fill="#F47580"/>
<path d="M339.501 212.94C339.947 210.751 341.665 209.08 343.3 207.556C345.615 205.396 347.929 203.236 350.245 201.078C351.772 199.652 353.323 198.211 355.168 197.235C356.045 196.771 356.979 196.444 357.935 196.182C359.332 195.796 360.783 195.572 362.231 195.467C373.504 194.647 385.044 199.692 392.101 208.52C392.42 208.919 392.765 209.323 393.125 209.707C394.24 213.095 394.645 216.638 393.895 220.134C392.324 227.444 387.605 232.034 382.269 236.324L382.092 236.466C380.589 237.668 379.047 238.854 377.507 240.067C376.307 241.012 375.047 241.986 373.549 242.287C372.967 242.404 372.403 242.388 371.848 242.319C369.547 242.036 367.445 240.4 365.309 239.008C364.801 238.676 364.291 238.356 363.773 238.079C360.483 236.312 356.572 236.054 353.195 234.46C347.365 231.708 344.084 225.543 341.2 219.78C340.128 217.636 339.024 215.288 339.501 212.94Z" fill="#F47580"/>
<path d="M331.208 215.81C331.916 212.986 332.789 210.167 333.995 207.526C334.756 205.858 335.623 204.246 336.753 202.795C341.599 196.58 350.407 194.108 357.935 196.182C356.979 196.444 356.045 196.771 355.168 197.235C353.323 198.211 351.772 199.652 350.245 201.078C347.929 203.236 345.615 205.396 343.3 207.556C341.665 209.08 339.947 210.751 339.501 212.94C339.024 215.288 340.128 217.636 341.2 219.78C344.084 225.543 347.365 231.708 353.195 234.46C356.572 236.054 360.483 236.312 363.773 238.079C364.291 238.356 364.801 238.676 365.309 239.008C363.819 240.49 362.143 241.73 360.212 242.552C360.076 242.61 359.951 242.687 359.812 242.74C356.019 244.21 351.701 243.839 347.867 242.476C344.033 241.116 340.603 238.831 337.295 236.463C335.333 235.059 333.36 233.576 332.023 231.57C329.016 227.056 329.888 221.071 331.208 215.81Z" fill="#2A1B19"/>
<path d="M328.269 233.939C330.844 238.595 335.612 241.974 340.859 242.86C343.229 243.262 345.663 243.083 347.996 242.514L347.867 242.476C344.033 241.116 340.603 238.831 337.295 236.463C335.333 235.059 333.36 233.576 332.023 231.57C329.016 227.056 329.888 221.071 331.208 215.81C331.916 212.986 332.789 210.167 333.995 207.526C331.141 209.794 328.687 213.023 327.475 216.212C326.955 217.583 326.435 218.955 325.913 220.327C325.5 225.096 325.964 229.774 328.269 233.939Z" fill="#D8AF7C"/>
<path d="M394.688 225.907C395.852 223.427 395.96 220.596 395.94 217.859C395.923 215.62 395.813 213.386 395.652 211.154C394.651 211.096 393.84 210.47 393.125 209.707C394.24 213.095 394.645 216.638 393.895 220.134C392.324 227.444 387.604 232.034 382.269 236.324C382.584 236.443 382.9 236.563 383.216 236.682C385.339 235.162 387.425 233.594 389.431 231.923C391.495 230.203 393.545 228.336 394.688 225.907Z" fill="#D75052"/>
<path d="M826.091 290.047C827.365 289.116 828.771 288.254 830.341 288.091C833.476 287.767 836.281 290.41 837.336 293.38C838.391 296.351 838.151 299.599 838.108 302.751C838.057 306.571 838.347 310.508 840.024 313.939C841.701 317.37 845.028 320.21 848.845 320.354C845.961 315.947 845.393 310.464 845.008 305.212C844.623 299.96 844.285 294.504 841.757 289.884C839.229 285.264 833.787 281.764 828.743 283.276C826.849 283.843 825.211 285.038 823.689 286.299C819.777 289.538 816.347 293.358 813.545 297.594C815.791 286.122 812.705 273.718 805.348 264.632C801.82 260.276 797.353 256.619 794.645 251.711C789.355 242.115 791.939 230.348 792.104 219.391C785.105 230.362 784.397 245.062 790.307 256.655C796.435 268.672 808.953 277.352 811.919 290.511C807.756 279.256 794.621 274.576 786.136 266.091C780.772 260.727 777.277 253.783 774.467 246.735C772.623 256.366 776.636 266.88 784.428 272.834C788.169 275.692 792.597 277.506 796.528 280.096C804.548 285.382 807.195 292.234 811.353 300.294C813.656 304.756 815.072 302.694 817.6 299.182C820.093 295.716 822.605 292.594 826.091 290.047Z" fill="#5A9180"/>
<path d="M931.425 438.622C935.399 435.036 937.915 430.186 939.888 425.271C941.081 422.298 942.124 419.116 941.64 415.958C941.156 412.799 938.704 409.712 935.439 409.466C932.031 409.207 929.223 411.907 927.011 414.447C924.799 416.988 922.227 419.808 918.809 419.922C920.792 417.602 922.772 415.281 924.752 412.962C928.951 408.046 933.279 401.966 932.568 395.25C932.024 390.102 928.799 385.291 924.181 382.738C922.612 381.87 920.748 381.246 919.02 381.742C913.031 383.459 915.901 394.8 909.933 396.583C911.897 387.956 916.708 380 917.58 371.204C918.845 358.439 910.585 345.334 898.336 340.667C893.345 348.536 897.251 358.999 894.553 367.87C887.595 358.351 899.476 343.188 892.039 334.019C890.579 332.218 888.543 330.962 886.549 329.742C882.991 327.562 879.431 325.382 875.872 323.203C874.468 322.343 872.675 321.468 871.251 322.299C869.868 323.103 869.763 324.982 869.82 326.551C870.047 332.839 870.275 339.127 870.503 345.415C870.555 346.864 869.819 348.942 868.412 348.467C867.613 348.195 867.376 347.223 867.28 346.404C866.597 340.592 866.815 334.683 867.924 328.934C868.385 326.547 868.991 324.032 868.161 321.743C866.228 316.402 858.569 316.123 853.991 312.636C850.717 310.143 848.367 305.612 844.213 305.664C842.491 308.61 845.219 312.028 846.157 315.295C847.009 318.256 846.321 321.4 846.092 324.468C845.629 330.68 847.127 337.019 850.332 342.406C848.768 343.196 846.755 342.278 845.784 340.846C844.811 339.414 844.615 337.627 844.445 335.916C843.717 328.568 842.989 321.219 842.261 313.868C842.028 311.511 841.757 309.046 840.412 307.074C838.196 303.826 833.823 302.876 829.884 302.194C824.509 301.263 818.964 300.334 813.635 301.486C816.024 311.864 819.936 321.908 825.215 331.216C823.688 332.26 821.721 330.688 820.659 329.192C816.431 323.238 813.915 316.138 813.471 308.908C813.223 304.859 812.896 299.708 808.967 298.379C806.253 297.462 801.728 298.354 798.808 298.187C794.023 297.914 789.236 297.636 784.449 297.362C782.244 297.236 779.783 297.191 778.128 298.618C776.157 300.318 776.228 303.26 776.156 305.824C776.056 309.399 775.375 312.959 774.145 316.327C772.693 320.307 770.487 324.738 772.469 328.492C773.732 330.883 776.459 332.258 779.181 332.68C781.904 333.103 784.68 332.723 787.421 332.447C793.936 331.791 800.515 331.724 807.04 332.25C808.181 332.342 809.385 332.475 810.296 333.15C811.207 333.824 811.643 335.232 810.895 336.075C810.248 336.802 809.109 336.784 808.128 336.708C800.755 336.143 793.383 335.579 786.009 335.014C782.755 334.763 779.435 334.499 776.427 333.259C773.996 332.258 771.839 330.643 769.311 329.902C767.621 331.702 767.979 334.574 768.993 336.803C770.307 339.692 772.08 342.036 772.295 345.295C772.488 348.27 770.589 350.096 773.821 352.564C775.463 353.816 777.549 354.351 779.588 354.768C785.405 355.959 791.371 356.451 797.309 356.231C801.547 356.074 805.801 355.555 810.013 356.026C814.227 356.495 818.524 358.112 821.093 361.402C813.551 361.662 806.007 361.923 798.464 362.184C793.093 362.37 787.423 362.49 782.713 359.968C779.347 358.164 775.353 355.051 772.268 357.283C775.672 363.779 779.395 370.118 783.419 376.267C783.936 377.056 784.481 377.867 785.287 378.379C786.644 379.244 788.409 379.075 790.019 378.874C802.899 377.262 815.78 375.651 828.661 374.039C823.272 378.771 815.636 380.162 808.392 380.478C801.147 380.795 793.781 380.242 786.731 381.894C786.313 384.663 788.344 387.215 790.559 388.996C792.772 390.779 795.367 392.266 796.835 394.672C797.756 396.184 798.197 398.011 799.485 399.244C801.635 401.303 805.284 400.848 807.896 399.382C810.509 397.915 812.569 395.647 815.16 394.144C821.149 390.668 828.713 391.836 835.56 393.115C826.515 394.219 817.735 397.344 810.085 402.181C808.039 403.476 805.957 405.042 805.201 407.303C804.736 408.693 804.831 410.202 805.051 411.648C805.763 416.33 807.761 420.817 810.784 424.521C812.647 426.802 815.789 428.929 818.417 427.539C820.564 426.406 820.973 423.64 822.159 421.56C823.236 419.667 825.032 418.278 826.84 417.021C832.821 412.859 839.44 409.571 846.408 407.297C842.179 410.827 837.259 413.471 832.744 416.647C828.228 419.823 823.979 423.722 821.941 428.774C818.125 438.23 826.2 449.145 836.051 451.131C840.791 452.086 846.007 450.275 849.059 446.612C853.059 441.814 853.649 434.212 859.235 431.283C856.753 437.902 853.879 444.362 851.504 451.012C851.021 452.366 850.559 453.804 850.851 455.21C851.145 456.63 852.177 457.8 853.309 458.738C859.207 463.622 867.857 463.533 875.468 462.179C882.091 460.999 888.568 459.055 894.731 456.411C900.892 453.766 903.079 450.522 907.544 445.833C911.008 442.193 913.568 442.688 917.837 443.081C922.977 443.552 927.496 442.167 931.425 438.622Z" fill="#18392F"/>
<path d="M938.84 407.415C941.464 405.986 944.024 404.411 946.271 402.443C950.92 398.367 954.073 392.622 955.011 386.511C952.115 387.792 949.217 389.075 946.32 390.356C948.312 386.876 952.753 385.716 955.679 382.972C960.921 378.054 960.087 369.654 958.847 362.572C953.817 366.332 948.549 369.772 943.083 372.864C945.553 366.806 955.061 366.18 957.416 360.078C958.647 356.891 957.431 353.339 956.221 350.144C954.355 345.218 951.801 349.002 949.095 350.85C948.269 351.414 938.396 355.698 938.157 354.542C937.524 351.476 941.22 349.398 944.296 348.814C947.369 348.231 951.151 347.578 952.16 344.615C952.58 343.376 952.365 342.024 952.147 340.736C951.555 337.248 950.915 333.639 948.931 330.71C948.375 329.888 947.629 329.082 946.647 328.94C945.781 328.814 944.939 329.234 944.164 329.64C940.012 331.823 935.859 334.004 931.707 336.187C930.4 334.646 931.219 332.146 932.756 330.836C934.295 329.526 936.327 328.998 938.159 328.144C939.989 327.292 941.808 325.84 942.021 323.831C942.135 322.756 941.764 321.696 941.401 320.682C939.969 316.687 938.539 312.692 937.109 308.696C936.945 308.242 936.74 307.738 936.295 307.544C935.632 307.258 934.932 307.831 934.436 308.358C931.529 311.432 928.625 314.508 925.719 317.584C924.599 315.963 925.405 313.652 926.772 312.232C928.137 310.811 929.968 309.918 931.408 308.574C934.296 305.878 935.297 301.623 934.945 297.688C934.593 293.751 933.067 290.03 931.557 286.379C931.263 285.666 930.916 284.895 930.231 284.542C928.832 283.826 927.343 285.28 926.441 286.566C924.328 289.582 922.213 292.598 920.1 295.615C918.848 291.172 923.78 287.604 925.515 283.327C927.693 277.947 924.577 272.008 921.561 267.048C920.544 265.374 919.389 263.583 917.544 262.922C916.635 266.619 915.725 270.316 914.815 274.015C914.425 275.6 913.253 277.627 911.743 277.006C913.319 271.858 914.912 266.575 914.6 261.199C914.289 255.824 911.669 250.25 906.816 247.918C906.391 247.714 905.911 247.532 905.453 247.656C904.583 247.895 904.367 249.01 904.313 249.911C904.148 252.723 904.137 255.584 903.937 258.383C903.879 259.198 902.356 264.691 902.412 264.803C900.396 260.778 901.881 255.984 901.943 251.484C902.04 244.347 898.107 237.29 891.984 233.619C891.584 239.624 891.185 245.631 890.785 251.636C888.872 250.692 888.199 248.242 888.395 246.118C888.589 243.994 889.427 241.97 889.657 239.851C890.276 234.143 884.345 225.219 878.279 224.844C877.891 229.642 877.503 234.442 877.115 239.24C877.012 240.526 876.224 242.28 875.025 241.798C873.857 236.608 874.711 231.116 873.468 225.944C872.224 220.772 867.491 215.635 862.333 216.936C862.468 222.863 862.265 228.799 861.729 234.703C860.996 235.272 859.84 234.778 859.395 233.963C858.949 233.148 859.009 232.162 859.08 231.236C859.303 228.342 859.525 225.448 859.748 222.554C859.897 220.619 860.036 218.608 859.34 216.798C857.728 212.606 852.58 211.25 848.16 210.464C848.893 216.226 849.625 221.986 850.357 227.748C849.071 228.039 847.84 226.88 847.476 225.612C847.115 224.344 847.351 222.995 847.412 221.679C847.644 216.803 845.268 211.88 841.307 209.03C837.347 206.179 831.924 205.487 827.375 207.252C831.707 212.372 834.824 218.512 836.4 225.03C834.549 225.748 832.924 223.643 831.984 221.895C829.14 216.604 825.66 211.656 821.644 207.192C820.204 210.598 818.765 214.006 817.327 217.412C817.063 218.035 816.795 218.71 816.94 219.37C817.108 220.139 817.785 220.675 818.417 221.143C823.745 225.091 829.073 229.039 834.4 232.986C832.216 234.132 829.468 233.667 827.339 232.424C825.208 231.184 823.565 229.272 821.965 227.398C820.167 225.291 818.367 223.183 816.569 221.075C816.412 224.766 816.261 228.522 817.196 232.095C818.132 235.668 820.333 239.098 823.705 240.603C829.497 243.188 836.813 239.52 842.391 242.539C835.733 243.504 828.987 243.864 822.265 243.616C821.653 246.82 824.527 249.82 827.675 250.674C830.823 251.527 834.151 250.859 837.385 250.436C840.62 250.015 844.144 249.908 846.88 251.684C840.365 252.334 833.799 252.443 827.267 252.01C827.079 256.547 831.188 260.352 835.603 261.419C840.019 262.487 844.64 261.49 849.072 260.492C849.832 261.128 849.643 262.431 848.936 263.127C848.231 263.82 847.2 264.052 846.221 264.204C841.856 264.891 837.34 264.608 833.091 263.386C834.86 268.332 838.701 273.706 843.923 273.134C846.289 272.874 848.332 271.396 850.609 270.706C852.887 270.018 855.971 270.564 856.656 272.843C853.051 273.742 849.445 274.638 845.841 275.536C844.889 275.774 843.876 276.046 843.224 276.779C842.716 277.347 842.499 278.122 842.444 278.88C842.087 283.858 847.956 287.106 852.944 287.007C857.932 286.908 862.781 284.848 867.76 285.162C867.687 285.823 867.612 286.483 867.536 287.143C862.153 290.911 855.056 292.111 848.735 290.326C850.245 297.015 857.661 301.75 864.365 300.308C867.44 299.648 870.204 297.908 873.291 297.3C876.301 296.707 879.524 297.267 882.159 298.839C874.472 300.012 866.787 301.186 859.1 302.358C858.443 302.458 857.7 302.612 857.359 303.184C857.192 303.463 857.153 303.796 857.143 304.12C857.019 307.97 860.545 311.159 864.303 312.002C868.061 312.844 871.965 311.915 875.696 310.968C879.428 310.02 883.309 309.042 887.087 309.79C885.963 310.5 884.621 310.762 883.315 311.011C877.948 312.034 872.579 313.056 867.212 314.079C865.876 314.332 864.343 314.739 863.8 315.984C863.427 316.839 863.656 317.822 863.891 318.724C864.955 322.807 867.227 327.83 871.437 327.562C873.236 327.447 874.776 326.312 876.356 325.447C882.032 322.339 889.421 322.659 894.809 326.246C888.608 325.348 882.245 325.568 876.121 326.894C874.432 327.259 872.596 327.826 871.697 329.303C871.163 330.183 871.053 331.251 871.033 332.282C870.951 336.448 871.117 342.627 875.844 344.172C878.621 345.08 881.631 344.499 884.536 344.194C887.716 343.86 891.007 343.886 894.015 344.971C897.021 346.058 899.72 348.347 900.672 351.399C894.627 348.308 887.767 346.83 880.984 347.151C879.503 347.222 877.84 347.476 876.968 348.679C876.393 349.472 876.301 350.514 876.313 351.494C876.412 360.211 883.876 368.222 892.565 368.934C895.376 369.164 898.22 368.722 901.019 369.078C903.816 369.431 906.755 370.855 907.736 373.499C899.44 373.779 891.083 372.038 883.591 368.467C883.492 371.802 885.175 374.896 886.808 377.803C888.524 380.859 890.24 383.912 891.955 386.966C893.836 390.312 895.984 393.9 899.564 395.291C905.912 397.754 912.871 392.046 919.571 393.26C915.451 394.395 911.331 395.53 907.211 396.664C905.859 397.036 904.439 397.45 903.472 398.466C901.663 400.367 902.232 403.536 903.585 405.786C911.569 419.05 928.272 413.147 938.66 407.514L938.84 407.415Z" fill="#236953"/>
<path d="M609.395 70.6137C604.403 67.539 598.659 65.8671 593.604 62.8964C588.549 59.9257 583.975 55.0337 583.883 49.1724C583.767 41.951 590.692 36.2124 597.805 34.9631C604.917 33.7137 612.139 35.775 619.125 37.6084C626.109 39.4417 633.549 41.0537 640.459 38.9524C648.569 36.4857 654.507 29.3244 662.463 26.3964C678.253 20.5857 695.944 33.0124 712.245 28.835C723.161 26.039 731.572 16.1657 742.759 14.8084C752.343 13.6444 761.391 19.0177 770.865 20.8604C784.332 23.479 798.197 18.831 810.339 12.443C823.028 5.76703 836.875 -3.19298 850.544 1.1377C864.876 5.67769 870.921 22.303 881.673 32.8124C888.872 39.8497 898.609 44.2337 908.649 44.959C914.357 45.371 920.265 44.6657 925.68 46.519C929.871 47.9537 933.405 50.8084 936.768 53.6924C950.984 65.8804 964.805 81.8044 964.14 100.519C963.757 111.291 958.556 121.224 953.475 130.731C950.999 135.364 948.416 140.128 944.333 143.434C937.024 149.354 926.557 149.318 917.337 147.458C908.119 145.598 899.065 142.199 889.661 142.39C877.283 142.639 865.399 149.114 853.081 147.86C840.013 146.532 829.152 136.779 816.229 134.418C796.172 130.754 774.305 145.307 756.028 136.271C746.791 131.703 740.899 121.95 731.565 117.578C725.851 114.9 719.371 114.496 713.071 114.136C702.073 113.506 689.992 115.026 681.216 107.563C675.059 102.327 671.872 96.8497 663.561 94.9364C654.083 92.755 644.152 95.1497 634.955 91.1297C624.736 86.6617 618.741 76.371 609.395 70.6137Z" fill="#162D29"/>
<path d="M771.547 39.1631C770.013 35.6364 768.288 32.1724 766.023 29.0671C761.331 22.6391 754.324 17.9391 746.597 16.0378C747.909 19.8978 749.221 23.7591 750.532 27.6191C746.3 24.6671 745.32 18.8404 742.139 14.7778C736.432 7.49109 725.569 7.60043 716.347 8.37909C720.591 15.2564 724.399 22.4058 727.739 29.7658C720.253 25.9058 720.539 13.6458 712.984 9.92578C709.041 7.98444 704.348 9.13644 700.116 10.3218C693.584 12.1524 698.144 15.8578 700.201 19.5378C700.829 20.6618 705.193 33.8084 703.683 33.9831C699.683 34.4444 697.439 29.4671 697.043 25.4591C696.648 21.4511 696.243 16.5271 692.56 14.8951C691.023 14.2138 689.263 14.3338 687.585 14.4671C683.045 14.8271 678.348 15.2338 674.364 17.4418C673.247 18.0618 672.129 18.9244 671.833 20.1671C671.575 21.2631 672.016 22.3898 672.448 23.4298C674.769 29.0031 677.091 34.5778 679.412 40.1511C677.288 41.6511 674.177 40.3138 672.673 38.1924C671.171 36.0711 670.725 33.4044 669.843 30.9591C668.959 28.5138 667.305 26.0151 664.755 25.5124C663.391 25.2444 661.989 25.5978 660.644 25.9471C655.359 27.3244 650.075 28.7004 644.791 30.0778C644.187 30.2338 643.517 30.4404 643.219 30.9898C642.776 31.8071 643.431 32.7684 644.047 33.4644C647.657 37.5418 651.268 41.6204 654.879 45.6978C652.671 46.9471 649.801 45.6484 648.137 43.7337C646.472 41.8191 645.537 39.3737 643.977 37.3724C640.853 33.3604 635.513 31.5898 630.427 31.5898C625.343 31.5898 620.396 33.1217 615.541 34.6378C614.593 34.9351 613.567 35.2898 613.035 36.1298C611.957 37.8391 613.649 39.9164 615.195 41.2191C618.82 44.2751 622.445 47.3298 626.071 50.3844C620.232 51.4818 616.223 44.7484 610.936 42.0364C604.291 38.6271 596.319 41.9417 589.616 45.2391C587.352 46.3524 584.925 47.6284 583.864 49.9164C588.501 51.5071 593.136 53.0964 597.773 54.6858C599.763 55.3684 602.225 57.1017 601.255 58.9684C594.836 56.3577 588.245 53.7098 581.32 53.4951C574.395 53.2778 566.947 55.9978 563.403 61.9524C563.091 62.4751 562.803 63.0711 562.912 63.6697C563.117 64.8124 564.52 65.2178 565.668 65.3884C569.256 65.9231 572.924 66.2644 576.487 66.8417C577.527 67.0111 584.393 69.5924 584.543 69.5324C579.152 71.6564 573.177 69.2017 567.415 68.6084C558.276 67.6657 548.777 71.9018 543.371 79.3298C551.024 80.5298 558.68 81.7311 566.333 82.9311C564.903 85.2751 561.685 85.8578 558.983 85.3618C556.283 84.8684 553.785 83.5644 551.093 83.0258C543.848 81.5804 531.728 88.1618 530.553 95.8964C536.66 96.9431 542.767 97.9884 548.873 99.0351C550.512 99.3164 552.671 100.526 551.913 102.007C545.128 102.911 538.185 101.19 531.412 102.191C524.639 103.192 517.509 108.672 518.588 115.432C526.203 115.939 533.788 116.876 541.297 118.242C541.943 119.247 541.177 120.672 540.08 121.148C538.984 121.627 537.728 121.438 536.548 121.24C532.863 120.623 529.179 120.006 525.495 119.39C523.031 118.976 520.468 118.568 518.067 119.254C512.509 120.842 510.183 127.283 508.667 132.86C516.137 132.582 523.607 132.303 531.077 132.024C531.303 133.706 529.677 135.152 528.009 135.471C526.343 135.792 524.64 135.335 522.959 135.103C516.736 134.248 510.153 136.732 506.044 141.482C501.936 146.234 500.428 153.106 502.171 159.139C509.229 154.172 517.459 150.879 525.996 149.606C526.705 152.06 523.819 153.903 521.469 154.907C514.361 157.948 507.62 161.843 501.436 166.48C505.639 168.715 509.841 170.951 514.044 173.187C514.813 173.595 515.647 174.018 516.511 173.907C517.516 173.778 518.279 172.97 518.953 172.214C524.624 165.836 530.296 159.459 535.967 153.082C537.184 156.012 536.273 159.48 534.437 162.07C532.603 164.659 529.965 166.546 527.377 168.383C524.469 170.448 521.561 172.512 518.653 174.578C523.367 175.199 528.164 175.823 532.853 175.032C537.541 174.244 542.191 171.815 544.507 167.663C548.483 160.534 544.619 150.736 549.129 143.931C549.601 152.578 549.293 161.266 548.204 169.856C552.241 171.007 556.416 167.666 557.871 163.728C559.325 159.79 558.849 155.446 558.679 151.251C558.508 147.056 558.775 142.526 561.365 139.223C561.453 147.647 560.841 156.08 559.536 164.404C565.333 165.166 570.681 160.334 572.556 154.795C574.429 149.256 573.68 143.218 572.911 137.42C573.811 136.52 575.461 136.912 576.269 137.898C577.079 138.882 577.257 140.23 577.343 141.5C577.721 147.178 576.843 152.934 574.789 158.24C581.332 156.538 588.661 152.228 588.524 145.47C588.464 142.407 586.801 139.618 586.18 136.62C585.557 133.622 586.611 129.73 589.611 129.112C590.349 133.838 591.087 138.562 591.827 143.287C592.021 144.534 592.255 145.862 593.119 146.784C593.788 147.499 594.757 147.867 595.724 148.024C602.063 149.051 606.9 141.9 607.345 135.494C607.789 129.087 605.703 122.635 606.676 116.287C607.515 116.459 608.353 116.631 609.191 116.802C613.404 124.134 614.131 133.371 611.116 141.271C619.864 140.099 626.787 131.135 625.705 122.374C625.211 118.359 623.296 114.614 622.871 110.588C622.456 106.662 623.541 102.594 625.859 99.3951C626.483 109.383 627.105 119.371 627.729 129.359C627.783 130.214 627.896 131.184 628.588 131.687C628.927 131.931 629.351 132.02 629.764 132.071C634.685 132.672 639.179 128.515 640.689 123.794C642.199 119.074 641.456 113.963 640.668 109.068C639.88 104.175 639.071 99.0871 640.463 94.3311C641.244 95.8538 641.427 97.6031 641.596 99.3057C642.292 106.304 642.988 113.303 643.685 120.303C643.857 122.043 644.201 124.056 645.737 124.896C646.789 125.471 648.077 125.29 649.26 125.091C654.617 124.195 661.315 121.859 661.455 116.428C661.513 114.111 660.235 112.007 659.305 109.882C655.971 102.248 657.228 92.8098 662.443 86.3151C660.581 94.1631 660.136 102.344 661.135 110.348C661.409 112.555 661.925 114.974 663.715 116.295C664.781 117.082 666.14 117.343 667.459 117.487C672.792 118.072 680.731 118.566 683.253 112.683C684.736 109.226 684.335 105.302 684.277 101.54C684.215 97.4257 684.623 93.2097 686.359 89.4791C688.096 85.7484 691.339 82.5511 695.36 81.6804C690.708 89.0778 688.024 97.7017 687.661 106.434C687.581 108.342 687.719 110.503 689.159 111.755C690.111 112.584 691.435 112.82 692.692 112.918C703.88 113.792 715.005 105.139 716.912 94.0817C717.529 90.5044 717.288 86.8071 718.064 83.2604C718.84 79.7151 721 76.1084 724.503 75.1551C723.912 85.8218 720.723 96.3364 715.287 105.532C719.549 106.04 723.711 104.239 727.627 102.476C731.737 100.628 735.848 98.7778 739.96 96.9284C744.467 94.9004 749.312 92.5564 751.504 88.1271C755.389 80.2724 748.868 70.6951 751.192 62.2458C752.176 67.6578 753.159 73.0697 754.141 78.4804C754.464 80.2551 754.831 82.1257 756.023 83.4791C758.252 86.0177 762.38 85.6497 765.419 84.1724C783.339 75.4577 777.684 53.3671 771.651 39.4044L771.547 39.1631Z" fill="#236953"/>
<path d="M737.229 331.071C734.783 329.588 732.779 327.468 730.364 325.934C727.951 324.402 724.808 323.504 722.244 324.768C719.083 326.324 718.133 330.608 719.173 333.974C720.213 337.34 722.716 340.016 725.067 342.639C727.415 345.264 729.772 348.135 730.397 351.602C731.132 355.672 729.344 359.843 729.843 363.948C730.835 372.096 740.165 377.011 741.98 385.016C743.195 390.376 740.781 396.224 742.681 401.383C744.308 405.803 748.655 408.534 751.564 412.238C755.696 417.5 756.764 424.554 756.693 431.246C756.62 438.24 755.811 446.246 760.733 451.215C765.893 456.426 774.456 455.352 781.411 457.68C786.067 459.239 790.136 462.49 792.687 466.687C794.135 469.074 795.143 471.795 797.153 473.733C798.708 475.233 800.735 476.133 802.735 476.95C811.189 480.41 821.177 482.864 829.153 478.412C833.744 475.848 836.899 471.379 839.895 467.059C841.356 464.952 842.848 462.771 843.375 460.263C844.317 455.772 841.973 451.238 839.115 447.648C836.255 444.06 832.764 440.887 830.755 436.762C828.109 431.334 828.275 424.734 824.989 419.666C821.505 414.288 814.855 411.745 810.953 406.659C804.9 398.768 806.352 386.038 798.36 380.114C794.323 377.12 788.777 376.734 784.801 373.655C782.368 371.77 780.751 369.047 779.192 366.392C776.471 361.758 774.444 356.175 769.251 354.026C765.608 352.519 762.521 352.355 759.841 349.172C756.785 345.543 755.615 340.699 751.821 337.602C747.608 334.159 741.807 333.847 737.229 331.071Z" fill="#7CB9A2"/>
<path d="M570.636 384.083C569.329 381.54 567.353 379.394 565.992 376.878C564.631 374.362 563.956 371.167 565.396 368.695C567.169 365.651 571.509 365.003 574.793 366.275C578.079 367.548 580.573 370.231 583.027 372.758C585.48 375.286 588.18 377.836 591.595 378.702C595.603 379.719 599.889 378.226 603.949 379.011C612.008 380.57 616.259 390.22 624.119 392.588C629.381 394.176 635.384 392.176 640.397 394.431C644.691 396.363 647.115 400.89 650.605 404.05C655.567 408.54 662.528 410.098 669.208 410.493C676.191 410.909 684.233 410.66 688.848 415.916C693.687 421.428 692.016 429.895 693.853 436.995C695.083 441.748 698.041 446.036 702.051 448.872C704.331 450.484 706.973 451.68 708.768 453.821C710.156 455.476 710.912 457.56 711.587 459.612C714.448 468.287 716.2 478.423 711.201 486.069C708.324 490.469 703.645 493.304 699.127 495.991C696.923 497.302 694.643 498.638 692.104 498.988C687.56 499.616 683.199 496.962 679.819 493.859C676.439 490.755 673.517 487.052 669.543 484.759C664.311 481.742 657.716 481.446 652.889 477.815C647.768 473.964 645.695 467.151 640.896 462.906C633.445 456.315 620.644 456.875 615.293 448.491C612.588 444.252 612.589 438.693 609.796 434.515C608.085 431.955 605.483 430.151 602.943 428.411C598.509 425.374 593.081 422.962 591.301 417.631C590.052 413.891 590.103 410.8 587.116 407.906C583.709 404.603 578.959 403.096 576.133 399.098C572.993 394.654 573.087 388.846 570.636 384.083Z" fill="#1C4B3F"/>
<path d="M875.96 197.794C866.984 193.562 858.275 186.979 848.379 187.726C845.461 187.946 842.604 188.816 839.679 188.834C836.193 188.854 832.716 187.612 830.032 185.39C829.352 184.826 828.635 184.166 827.751 184.148C826.055 184.114 825.313 186.554 826.163 188.023C827.013 189.492 828.687 190.226 830.148 191.086C836.932 195.082 840.764 203.348 848.131 206.124C851.605 207.432 855.48 207.336 858.971 208.602C863.708 210.318 867.321 214.382 872.084 216.023C875.76 217.29 879.765 216.995 883.641 216.686C888.299 216.312 892.953 215.94 897.609 215.568C898.785 215.472 900.025 215.391 901.089 215.9C902.088 216.378 902.785 217.308 903.669 217.974C909.524 222.378 919.081 213.448 924.701 218.147C920.215 223.402 911.135 219.003 904.937 222.058C902.475 223.272 900.747 225.547 898.775 227.458C891.783 234.23 881.303 236.719 874.901 244.052C872.789 246.471 871.227 249.311 869.68 252.127C864.812 260.987 859.945 269.85 855.079 278.71C854.261 280.195 853.603 282.395 855.039 283.296C856.137 283.986 857.545 283.24 858.619 282.511C862.671 279.754 866.721 276.999 870.773 274.243C872.613 272.99 874.505 271.687 875.697 269.807C877.377 267.16 877.412 263.794 878.675 260.923C881.653 254.15 890.279 252.011 895.159 246.448C897.024 244.323 898.289 241.748 899.924 239.44C905.204 231.992 913.879 227.858 922.169 224.032C922.752 223.763 923.405 223.488 924.019 223.684C925.357 224.111 925.127 226.119 924.363 227.302C921.556 231.656 915.963 233.116 911.793 236.192C905.831 240.592 903.109 248.02 898.925 254.136C895.229 259.539 890.291 264.023 886.748 269.528C883.207 275.036 881.204 282.246 884.107 288.114C884.384 288.672 884.723 289.234 885.255 289.558C886.523 290.326 888.235 289.33 888.872 287.992C889.511 286.655 889.443 285.107 889.623 283.636C890.932 272.895 904.433 268.16 909.077 258.386C910.129 256.172 910.689 253.755 911.641 251.498C913.563 246.944 916.985 243.224 920.216 239.482C923.445 235.742 926.624 231.727 927.881 226.948C931.139 214.559 919.123 210.996 909.755 208.124C898.496 204.672 886.685 202.848 875.96 197.794Z" fill="#439087"/>
<path d="M807.499 444.881C800.335 443.358 792.8 442.303 786.716 438.223C784.48 436.724 782.509 434.855 780.263 433.371C774.272 429.415 766.083 427.934 762.556 421.681C760.772 418.522 760.596 414.738 759.623 411.242C757.853 404.897 753.233 399.403 747.285 396.572C745.86 395.894 744.337 395.344 743.148 394.304C741.961 393.266 741.175 391.555 741.759 390.088C748.793 392.775 755.825 395.462 762.859 398.147C766.56 399.56 770.34 401.021 773.355 403.591C780.101 409.348 781.6 419.334 787.579 425.884C794.929 433.94 807.264 435.087 816.043 441.559C819.357 444.002 822.517 447.345 826.631 447.467C828.216 442.736 823.368 438.275 818.672 436.591C813.976 434.907 808.501 434.212 805.28 430.403C803.704 428.542 802.893 426.148 801.445 424.187C798.903 420.738 794.629 418.9 792.041 415.484C787.62 409.648 789.335 401.139 786.208 394.52C783.508 388.8 777.675 385.37 773.1 381.003C768.524 376.635 765.017 369.511 768.388 364.16C770.219 369.246 772.776 374.334 777.151 377.507C780.541 379.967 784.713 381.05 788.487 382.868C796.308 386.639 802.42 393.803 804.913 402.119C806.119 406.134 806.539 410.442 808.56 414.114C811.233 418.974 816.345 422.06 819.324 426.74C820.773 429.016 821.701 431.645 823.511 433.647C825.319 435.648 828.505 436.84 830.728 435.31C828.42 428.115 823.021 422.286 820.311 415.234C816.923 406.415 818.033 396.591 819.193 387.216C820.585 385.954 822.973 387.012 823.867 388.667C824.76 390.32 824.711 392.3 825.035 394.151C825.961 399.44 829.955 403.704 831.443 408.864C833.428 415.745 830.756 423.393 833.079 430.166C833.201 430.523 833.357 430.9 833.679 431.096C834.568 431.64 835.465 430.403 835.783 429.41C839.212 418.69 842.679 407.735 842.505 396.482C842.444 392.498 841.928 388.46 842.745 384.56C843.429 381.303 845.011 378.316 846.176 375.199C847.292 372.211 848.039 369.07 849.515 366.243C850.991 363.415 853.387 360.844 856.503 360.159C856.524 372.955 856.535 385.878 853.728 398.36C852.237 404.992 849.968 411.417 847.704 417.826C844.679 426.388 841.653 434.951 838.628 443.514C841.053 441.954 842.759 439.522 844.403 437.151C849.024 430.486 853.663 423.795 857.328 416.558C858.923 413.407 860.329 410.162 861.733 406.921C862.803 410.817 860.205 414.675 859.333 418.622C858.289 423.357 859.755 428.429 858.388 433.081C856.583 439.216 850.445 442.915 844.617 445.547C838.775 448.186 835.52 457.786 828.555 454.816C825.273 453.417 822.617 450.435 819.415 448.781C815.691 446.858 811.58 445.751 807.499 444.881Z" fill="#205F47"/>
<path d="M885.883 429.831C887.916 420.722 891.915 412.27 895.459 403.562C898.405 396.322 901.393 388.884 901.601 381.071C901.771 374.739 900.099 368.519 898.407 362.415C897 357.348 895.569 352.287 894.113 347.232C893.615 345.498 892.847 343.492 891.096 343.046C889.292 346.667 890.811 350.958 891.857 354.864C896.137 370.852 891.863 387.74 887.599 403.731C884.644 414.814 881.689 425.898 878.733 436.98C878.033 427.963 881.571 419.166 882.223 410.145C882.888 400.95 880.545 391.832 878.221 382.911C876.527 376.404 874.828 369.884 872.492 363.58C870.795 358.999 868.751 354.496 867.92 349.683C867.313 346.167 867.371 342.571 867.579 339.01C865.311 341.379 865.215 345.026 865.256 348.304C865.331 354.291 865.408 360.312 866.521 366.194C868.659 377.496 874.52 387.794 877.053 399.014C879.916 411.685 878.412 424.909 876.297 437.723C873.336 432.328 874.001 425.774 873.297 419.659C872.656 414.104 870.836 408.766 869.243 403.406C864.075 386.028 861.2 367.971 860.721 349.85C858.592 352.304 858.459 355.858 858.432 359.107C858.325 372.266 858.267 385.731 862.593 398.159C864.32 403.119 866.716 407.817 868.632 412.707C871.723 420.595 873.548 428.976 874.02 437.435C871.189 430.95 868.359 424.464 865.529 417.978C863.184 412.599 860.832 407.211 857.965 402.091C854.868 396.56 851.156 391.312 849.003 385.351C845.631 376.012 846.203 365.259 840.98 356.815C841.568 362.102 842.155 367.387 842.743 372.674C843.275 377.459 843.813 382.28 845.263 386.872C846.553 390.963 848.541 394.794 850.521 398.598C858.019 413.022 865.516 427.443 873.013 441.864C871.829 442.403 870.487 441.636 869.435 440.872C860.02 434.042 852.319 424.864 847.228 414.407C844.825 409.469 843.003 404.276 840.952 399.183C836.724 388.679 831.512 378.57 825.408 369.032C822.391 364.322 818.82 359.484 813.551 357.61C817.119 363.484 820.688 369.359 824.256 375.235C828.823 382.751 833.412 390.312 836.644 398.491C839.256 405.095 840.955 412.033 843.584 418.631C846.213 425.227 849.931 431.638 855.643 435.857C859.483 438.691 864.115 440.457 867.517 443.806C870.873 447.114 872.781 449.291 877.613 447.654C881.325 446.397 884.244 443.566 886.925 440.822C899.2 428.274 911.655 415.479 919.744 399.902C921.589 396.347 923.235 392.402 922.597 388.447C906.644 398.218 900.137 417.702 889.133 432.828C887.981 434.411 886.655 436.036 884.784 436.606C885.011 434.3 885.389 432.046 885.883 429.831Z" fill="#529881"/>
<path d="M713.663 460.369C703.424 451.845 691.539 445.775 679.944 439.021C670.304 433.403 660.444 427.6 653.399 418.948C647.691 411.939 644.159 403.451 640.753 395.076C637.927 388.122 635.133 381.152 632.372 374.171C631.424 371.775 630.545 368.839 632.135 366.81C637.331 369.33 639.352 375.504 641.575 380.834C650.669 402.636 670.219 418 688.975 432.359C701.975 442.314 714.976 452.267 727.976 462.221C720.909 451.416 709.244 444.555 700.643 434.926C691.877 425.111 686.58 412.763 681.432 400.652C677.677 391.82 673.915 382.97 671.061 373.807C668.987 367.15 667.372 360.279 664.116 354.114C661.739 349.611 658.54 345.595 655.2 341.752C659.831 342.454 663.116 346.491 665.928 350.235C671.061 357.066 676.221 363.94 680.089 371.559C687.524 386.198 689.872 402.946 696.785 417.838C704.592 434.654 717.817 448.292 731.377 460.936C730.024 452.257 723.559 445.427 719.025 437.902C714.909 431.064 712.313 423.443 709.444 415.993C700.141 391.848 687.652 368.931 672.4 348.026C676.947 348.95 680.193 352.847 683.056 356.498C694.644 371.28 706.447 386.45 712.388 404.269C714.757 411.38 716.144 418.78 718.241 425.978C721.623 437.587 726.863 448.654 733.701 458.626C731.248 448.827 728.795 439.029 726.34 429.233C724.304 421.107 722.267 412.967 721.045 404.681C719.727 395.728 719.349 386.562 716.587 377.946C712.26 364.45 702.243 352.795 700.787 338.698C704.729 345.186 708.672 351.672 712.615 358.159C716.185 364.032 719.777 369.954 722.141 376.407C724.247 382.155 725.337 388.218 726.417 394.244C730.512 417.081 734.605 439.919 738.699 462.757C740.507 462.333 741.356 460.298 741.88 458.516C746.571 442.588 747.276 425.504 743.916 409.246C742.331 401.569 739.864 394.11 737.744 386.566C733.367 371.006 730.449 355.036 729.039 338.936C728.343 330.982 728.161 322.402 732.487 315.691C733.573 325.442 734.659 335.192 735.745 344.943C737.135 357.419 738.536 369.967 742.009 382.03C744.813 391.771 748.94 401.093 751.716 410.843C754.493 420.591 755.879 431.079 753.096 440.826C751.227 447.376 747.529 453.409 746.605 460.159C745.692 466.823 745.432 470.948 738.544 473.308C733.252 475.123 727.487 474.466 722.064 473.702C697.252 470.215 672.023 466.607 649.301 456.046C644.117 453.636 638.82 450.611 636.093 445.586C662.641 442.727 686.977 459.081 712.601 466.59C715.281 467.375 718.199 468.058 720.811 467.069C718.544 464.66 716.152 462.442 713.663 460.369Z" fill="#529881"/>
<path d="M961.195 98.1777C955.633 100.683 949.692 102.368 943.68 103.428C937.657 104.474 931.569 104.975 925.505 105.296C919.439 105.612 913.38 105.748 907.347 105.916C901.313 106.087 895.292 106.34 889.268 106.656C877.227 107.32 865.204 108.33 853.22 109.662C841.229 110.935 829.271 112.522 817.369 114.475C805.468 116.42 793.617 118.692 781.839 121.292C770.079 123.923 758.381 126.852 746.983 130.69C735.612 134.568 724.461 139.192 714.108 145.286C703.715 151.29 694.216 158.86 686.205 167.86L685.593 167.344C693.363 158.026 702.695 149.935 713.133 143.664C718.285 140.415 723.727 137.663 729.227 135.064C734.768 132.551 740.425 130.308 746.161 128.298C757.635 124.28 769.384 121.138 781.204 118.463C793.023 115.787 804.913 113.436 816.861 111.415C828.809 109.388 840.817 107.719 852.864 106.383C864.916 105.108 877.003 104.159 889.107 103.556C895.159 103.272 901.216 103.05 907.269 102.911C913.32 102.774 919.351 102.672 925.359 102.39C937.385 101.811 949.235 100.39 960.927 97.423L961.195 98.1777Z" fill="#1D4F45"/>
<path d="M756.029 126.412C754.552 130.61 755.519 134.748 756.941 138.598C757.672 140.554 758.537 142.507 759.301 144.591C760.06 146.663 760.693 148.92 761.009 151.203C761.675 155.754 761.341 160.467 759.827 164.768C758.355 169.063 755.873 173.023 752.481 175.864C754.559 171.975 756.04 168.026 756.857 163.963C757.636 159.906 757.829 155.782 757.249 151.76C756.725 147.77 754.932 143.912 753.969 139.467C753.473 137.27 753.224 134.918 753.483 132.63C753.716 130.346 754.563 128.07 756.029 126.412Z" fill="#1D4F45"/>
<path d="M769.251 124.218C766.745 128.098 767.143 132.599 768.287 136.567C769.547 140.564 771.697 144.463 773.157 148.962C773.896 151.202 774.385 153.62 774.499 156.011C774.605 158.411 774.352 160.811 773.771 163.114C772.632 167.706 770.201 171.986 766.691 174.932C768.883 170.936 770.248 166.778 770.745 162.554C771.212 158.326 770.885 154.132 769.545 150.139C768.224 146.108 766.031 142.024 765.267 137.243C764.888 134.87 764.912 132.414 765.511 130.078C766.08 127.75 767.384 125.551 769.251 124.218Z" fill="#1D4F45"/>
<path d="M782.697 120.098C781.087 124.963 781.995 129.292 783.367 133.416C784.852 137.475 786.939 141.67 788.572 146.578C789.388 149.016 790.084 151.687 790.348 154.348C790.629 157.015 790.516 159.707 790.061 162.315C789.127 167.511 786.909 172.49 783.215 176.087C783.881 171.01 784.2 166.42 783.895 161.93C783.735 159.692 783.431 157.512 783.039 155.372C782.639 153.224 782.135 151.171 781.375 149.02C779.903 144.744 777.709 140.111 777.283 134.614C777.072 131.908 777.257 129.131 778.121 126.518C778.949 123.923 780.523 121.494 782.697 120.098Z" fill="#1D4F45"/>
<path d="M800.4 116.396C798.543 121.248 798.939 125.714 799.797 130.122C800.248 132.328 800.887 134.444 801.535 136.726C802.183 138.986 802.836 141.336 803.476 143.791C804.092 146.244 804.701 148.816 804.932 151.53C805.177 154.246 804.988 157.06 804.372 159.702C803.161 164.987 800.428 169.914 796.269 173.088C797.596 168.079 798.312 163.486 798.233 158.991C798.205 156.744 797.967 154.596 797.607 152.427C797.243 150.248 796.745 148.011 796.121 145.7C795.528 143.387 794.801 141.01 794.292 138.482C793.769 135.983 793.468 133.246 793.609 130.532C793.741 127.823 794.248 125.076 795.351 122.548C796.423 120.027 798.172 117.754 800.4 116.396Z" fill="#1D4F45"/>
<path d="M815.34 113.739C814.864 116.166 814.463 118.436 814.209 120.67C813.983 122.906 813.86 125.079 813.916 127.21C814.064 131.52 814.576 135.376 815.675 139.714C816.745 144.008 818.305 148.699 818.145 153.968C818.083 156.544 817.625 159.164 816.617 161.584C815.619 163.99 813.956 166.184 811.813 167.446C812.589 165.082 812.883 162.915 812.817 160.767C812.792 158.636 812.457 156.555 811.989 154.504C811.001 150.474 809.509 146.288 808.308 141.582C807.716 139.239 807.156 136.746 807.019 134.136C806.86 131.54 807.159 128.943 807.761 126.459C808.991 121.507 811.528 116.892 815.34 113.739Z" fill="#1D4F45"/>
<path d="M834.723 110.702C832.988 115.863 831.711 120.687 831.055 125.531C830.46 130.362 830.128 135.096 830.56 139.814C830.979 144.422 832.637 149.396 832.815 155.099C832.931 157.938 832.601 160.904 831.629 163.639C830.651 166.359 828.928 168.924 826.537 170.324C827.583 167.783 827.875 165.346 827.803 162.956C827.744 160.562 827.312 158.255 826.693 155.947C825.435 151.33 823.6 146.375 823.001 140.591C822.377 134.948 822.961 129.143 825.065 123.923C827.108 118.719 830.329 113.964 834.723 110.702Z" fill="#1D4F45"/>
<path d="M851.031 108.091C848.98 113.722 847.932 119.147 847.956 124.456C847.965 127.118 848.245 129.643 848.713 132.231C849.16 134.835 849.833 137.536 850.487 140.394C851.137 143.242 851.783 146.274 851.961 149.486C852.151 152.728 851.704 155.954 850.889 158.954C849.204 164.979 846.28 170.202 842.593 174.93C843.191 168.938 844.485 163.298 844.801 157.902C844.967 155.204 844.907 152.616 844.617 150.087C844.311 147.532 843.747 144.89 843.083 142.108C842.431 139.334 841.712 136.414 841.34 133.287C840.957 130.155 841.124 126.846 841.793 123.763C843.107 117.58 846.297 111.838 851.031 108.091Z" fill="#1D4F45"/>
<path d="M864.751 106.435C864.363 112.588 864.469 118.338 865.371 123.883C865.821 126.662 866.457 129.304 867.188 132.019C867.913 134.747 868.768 137.538 869.588 140.459C870.399 143.376 871.203 146.423 871.587 149.656C872.019 152.871 871.855 156.302 871.207 159.439C869.903 165.787 867.147 171.308 863.661 176.387C864.001 170.203 865.097 164.33 865.063 158.788C865.071 156.003 864.8 153.418 864.301 150.746C863.816 148.076 863.085 145.346 862.279 142.531C861.468 139.718 860.592 136.803 859.937 133.73C859.288 130.643 859.024 127.371 859.179 124.192C859.483 117.832 861.263 111.559 864.751 106.435Z" fill="#1D4F45"/>
<path d="M877.405 106.51C877.444 113.132 878.496 119.243 880.711 124.754C882.955 130.222 886.241 135.599 888.744 141.974C891.255 148.24 892.915 154.884 893.179 161.608C893.469 168.307 892.724 175.067 890.32 181.284C889.384 174.708 888.483 168.494 887.055 162.432C885.599 156.398 883.973 150.491 881.692 144.804C880.571 141.979 879.187 139.168 877.872 136.152C876.573 133.143 875.412 129.902 874.747 126.456C873.427 119.583 874.253 112.384 877.405 106.51Z" fill="#1D4F45"/>
<path d="M892.217 103.664C892.717 111.088 895.324 117.49 898.549 123.656C901.844 129.766 905.651 135.852 908.855 142.672C910.463 146.058 911.916 149.675 912.893 153.391C913.904 157.099 914.423 160.924 914.564 164.734C914.857 172.338 913.516 180.003 910.219 186.687C910.245 179.255 909.811 172.231 908.449 165.424C907.007 158.623 905.047 152.191 901.991 145.934C898.969 139.655 895.167 133.328 892.829 126.052C891.664 122.439 890.8 118.674 890.589 114.838C890.372 111.019 890.811 107.12 892.217 103.664Z" fill="#1D4F45"/>
<path d="M904.216 103.236C905.071 110.154 907.7 116.01 910.879 121.679C914.105 127.287 917.771 132.892 920.912 139.192C922.493 142.316 923.937 145.652 924.956 149.134C925.995 152.598 926.568 156.187 926.724 159.768C927.052 166.915 925.804 174.132 922.584 180.34C922.524 173.376 922.024 166.847 920.595 160.559C919.167 154.255 917.119 148.412 914.131 142.62C911.169 136.828 907.5 130.98 905.212 124.198C904.051 120.844 903.205 117.319 902.924 113.738C902.643 110.166 902.985 106.506 904.216 103.236Z" fill="#1D4F45"/>
<path d="M745.516 130.308C745.104 134.231 746.381 137.631 747.671 141.178C748.323 142.948 749.001 144.768 749.509 146.712C749.989 148.68 750.268 150.692 750.375 152.711C750.575 156.742 750.077 160.834 748.639 164.586C747.273 168.346 745.107 171.815 742.211 174.458C743.735 170.852 744.96 167.342 745.683 163.735C746.052 161.938 746.312 160.134 746.46 158.327C746.612 156.524 746.699 154.711 746.58 152.908C746.473 151.106 746.236 149.315 745.88 147.547L744.691 142.01C744.316 140.099 744.004 138.111 744.049 136.08C744.051 134.063 744.54 132.002 745.516 130.308Z" fill="#1D4F45"/>
<path d="M739.293 131.347C737.724 134.635 737.609 138.011 737.923 141.331C738.3 144.648 739.048 148.039 739.42 151.7C739.833 155.378 739.652 159.207 738.619 162.771C737.631 166.338 735.973 169.723 733.549 172.447C734.495 168.938 735.233 165.572 735.597 162.186C735.936 158.796 736.013 155.467 735.643 152.103C735.268 148.724 734.536 145.142 734.828 141.359C734.957 139.482 735.331 137.596 736.049 135.839C736.747 134.082 737.86 132.47 739.293 131.347Z" fill="#1D4F45"/>
<path d="M729.164 135.918C728.013 139.055 727.696 142.151 728.219 145.035C728.755 147.939 729.903 150.923 730.413 154.416C730.679 156.16 730.691 158.026 730.423 159.778C730.155 161.542 729.605 163.216 728.901 164.776C727.492 167.907 725.563 170.619 723.28 173.06C724.105 169.81 725.255 166.772 725.995 163.764C726.725 160.744 727.105 157.863 726.656 154.971C726.217 152.042 725.063 148.854 725.132 145.252C725.152 141.656 726.641 138.136 729.164 135.918Z" fill="#1D4F45"/>
<path d="M713.771 146.816C713.849 148.008 714.573 148.788 715.273 149.395C716.023 150.012 716.936 150.5 717.913 151.276C719.904 152.828 721.28 155.1 721.965 157.53C722.692 159.944 722.764 162.631 721.917 164.987C721.143 167.343 719.624 169.444 717.553 170.635C718.312 168.388 718.785 166.363 718.907 164.358C718.991 162.359 718.876 160.462 718.321 158.608C717.757 156.763 716.813 155.084 715.703 153.442C715.128 152.631 714.284 151.711 713.721 150.519C713.139 149.352 713.021 147.802 713.771 146.816Z" fill="#1D4F45"/>
<path d="M704.972 150.136C705.389 152.235 706.257 153.846 707.375 155.002C708.487 156.135 710.172 157.224 711.567 159.314C712.931 161.36 713.405 163.836 713.088 166.019C712.815 168.216 712.02 170.223 710.699 171.928C710.409 169.794 710.323 167.843 710.012 166.054C709.663 164.274 709.256 162.694 708.397 161.411C707.605 160.147 705.884 158.915 704.792 156.706C703.713 154.535 703.765 151.944 704.972 150.136Z" fill="#1D4F45"/>
<path d="M697.965 155.582C698.456 157.091 699.076 158.303 699.864 159.307C700.615 160.258 701.68 161.103 702.675 162.586C703.167 163.324 703.54 164.227 703.688 165.107C703.845 165.994 703.777 166.868 703.608 167.674C703.263 169.291 702.541 170.671 701.524 171.895C701.351 170.304 701.431 168.83 701.305 167.506C701.157 166.171 700.933 165.095 700.297 164.156C699.665 163.187 698.409 162.087 697.812 160.391C697.22 158.795 697.229 157.007 697.965 155.582Z" fill="#1D4F45"/>
<path d="M693.68 160.419C694.321 161.546 695.025 162.248 695.736 163.13C696.464 163.974 697.139 165.006 697.549 166.339C697.996 167.684 697.941 169.216 697.428 170.398C696.951 171.607 696.231 172.599 695.232 173.431C695.072 172.134 695.179 170.972 695.168 169.932C695.132 168.878 695.107 168.036 694.832 167.194C694.552 166.332 694.016 165.39 693.681 164.207C693.331 163.074 693.073 161.61 693.68 160.419Z" fill="#1D4F45"/>
<path d="M698.281 154.088C697.369 153.134 697.52 151.504 697.885 150.411C698.221 149.227 698.808 148.344 699.16 147.515C699.531 146.644 699.793 145.706 700.205 144.728C700.591 143.746 700.997 142.699 701.717 141.663C702.245 142.803 702.453 143.935 702.481 145.108C702.537 146.284 702.264 147.48 701.784 148.627C701.299 149.822 700.619 150.742 699.94 151.491C699.283 152.291 698.639 152.879 698.281 154.088Z" fill="#1D4F45"/>
<path d="M705.524 149.24C704.709 148.176 704.727 146.654 704.972 145.452C705.191 144.2 705.709 143.164 706.072 142.215C706.423 141.275 706.628 140.318 706.907 139.303C707.152 138.279 707.34 137.211 707.605 135.934C708.544 136.855 709.033 138.096 709.213 139.368C709.425 140.651 709.195 141.982 708.747 143.198C708.313 144.408 707.756 145.412 707.133 146.3C706.536 147.216 705.955 148.012 705.524 149.24Z" fill="#1D4F45"/>
<path d="M712.34 144.035C711.801 143.398 711.548 142.464 711.604 141.567C711.651 140.666 711.925 139.791 712.331 139.003C713.156 137.378 714.423 136.322 715.376 135.286C716.345 134.263 716.951 133.211 717.633 131.908C718.284 130.623 718.832 129.164 719.688 127.728C720.068 129.347 720.135 130.959 719.827 132.622C719.585 134.27 718.653 135.991 717.477 137.21C716.349 138.458 715.192 139.388 714.245 140.316C713.327 141.308 712.467 142.374 712.34 144.035Z" fill="#1D4F45"/>
<path d="M722.361 138.559C721.756 137.803 721.463 136.743 721.499 135.71C721.519 134.667 721.811 133.65 722.249 132.714C723.143 130.807 724.595 129.478 725.772 128.207C726.958 126.948 727.859 125.628 728.744 124.15C729.597 122.667 730.279 121.062 730.961 119.254C731.536 121.108 731.432 123.143 730.873 125.039C730.348 126.944 729.204 128.732 727.871 130.135C726.58 131.559 725.28 132.714 724.227 133.931C723.215 135.196 722.34 136.626 722.361 138.559Z" fill="#1D4F45"/>
<path d="M692.249 159.827C691.347 158.979 691.344 157.496 691.544 156.45C691.724 155.315 692.112 154.5 692.339 153.678C692.575 152.83 692.708 151.931 693.016 150.991C693.293 150.048 693.596 149.048 694.215 148.031C694.849 149.034 695.164 150.056 695.319 151.131C695.5 152.204 695.385 153.323 695.087 154.424C694.803 155.564 694.273 156.563 693.703 157.303C693.159 158.106 692.592 158.694 692.249 159.827Z" fill="#1D4F45"/>
<path d="M735.046 133.13C734.399 132.252 734.143 131.034 734.257 129.886C734.351 128.734 734.752 127.59 735.284 126.599C736.346 124.563 737.766 123.122 738.72 121.479C739.718 119.819 740.506 118.016 741.348 116.17C742.17 114.314 742.941 112.383 743.993 110.482C744.167 112.643 743.987 114.764 743.546 116.872C743.124 118.984 742.307 121.048 741.159 122.952C740.027 124.927 738.464 126.455 737.22 127.88C736.016 129.326 734.964 130.955 735.046 133.13Z" fill="#1D4F45"/>
<path d="M745.519 129.547C744.881 127.278 745.148 124.738 746.103 122.466C746.569 121.324 747.265 120.24 748.029 119.315C748.801 118.394 749.616 117.586 750.351 116.79C751.811 115.232 752.899 113.502 753.999 111.591C755.072 109.686 756.031 107.624 757.291 105.635C757.231 107.98 756.855 110.266 756.112 112.519C755.407 114.762 754.108 116.966 752.452 118.714C750.837 120.475 749.313 121.847 748.151 123.558C746.972 125.286 746.108 127.282 745.519 129.547Z" fill="#1D4F45"/>
<path d="M757.027 125.014C756.175 122.487 756.021 119.642 756.853 116.899C757.267 115.539 757.98 114.198 758.904 113.095C759.821 112 760.844 111.099 761.792 110.238C763.673 108.552 765.249 106.739 766.727 104.711C768.177 102.68 769.404 100.468 770.577 98.0657C770.629 100.748 769.908 103.435 768.712 105.887C767.549 108.355 765.719 110.558 763.715 112.34C761.733 114.138 760.071 115.631 759.011 117.756C757.921 119.874 757.381 122.374 757.027 125.014Z" fill="#1D4F45"/>
<path d="M770.669 122.596C769.893 121.43 769.532 119.903 769.668 118.416C769.779 116.923 770.277 115.464 771.043 114.159C772.615 111.431 775.205 109.915 776.993 108.198C778.796 106.526 779.971 104.274 781.196 101.874C782.399 99.4857 783.577 96.8578 785.473 94.7551C784.691 97.4431 784.184 100.059 783.336 102.739C782.532 105.39 781.2 108.176 778.96 110.26C776.803 112.311 774.499 113.623 772.953 115.478C771.389 117.368 770.275 119.803 770.669 122.596Z" fill="#1D4F45"/>
<path d="M781.877 119.552C780.701 116.776 780.868 113.39 782.191 110.448C782.857 108.962 783.835 107.626 784.875 106.508C785.927 105.394 787.027 104.428 788.024 103.476C789.036 102.523 789.892 101.588 790.661 100.546C791.448 99.5124 792.155 98.379 792.84 97.191C794.201 94.8084 795.341 92.1524 796.887 89.5764C796.956 92.5684 796.608 95.5097 795.66 98.419C795.192 99.8724 794.557 101.307 793.692 102.639C792.833 103.979 791.735 105.187 790.656 106.215C788.484 108.316 786.397 109.958 784.883 111.974C783.363 114.054 782.335 116.599 781.877 119.552Z" fill="#1D4F45"/>
<path d="M799.292 115.019C798.716 112.654 799.78 110.078 801.031 108.144C802.283 106.111 803.815 104.571 805.047 102.931C806.299 101.258 807.376 99.483 808.552 97.7004C809.685 95.8884 810.744 94.0044 812.02 92.003C812.38 94.3564 812.047 96.723 811.356 98.9684C810.689 101.235 809.495 103.314 808.088 105.208C806.669 107.151 805.008 108.734 803.415 110.119C801.833 111.564 800.38 112.91 799.292 115.019Z" fill="#1D4F45"/>
<path d="M813.969 112.908C813.352 111.714 813.268 110.25 813.508 108.894C813.74 107.52 814.28 106.231 814.952 105.062C816.293 102.692 818.149 101.092 819.575 99.5778C820.964 98.0765 822.055 96.4431 823.283 94.6978C824.484 92.9271 825.547 91.0005 826.861 88.6885C828.071 91.0845 828.141 93.8418 827.579 96.4351C827.043 99.0578 825.591 101.48 823.773 103.431C822.009 105.384 820.215 106.803 818.519 108.046C816.861 109.366 815.272 110.61 813.969 112.908Z" fill="#1D4F45"/>
<path d="M833.411 108.679C833.083 106.896 833.927 104.942 834.989 103.478C836.048 101.968 837.312 100.743 838.337 99.5844C839.352 98.4484 840.151 97.3484 840.933 96.1351C841.723 94.9497 842.4 93.6604 842.991 92.3137C844.147 89.5937 844.824 86.6578 845.624 83.5644C846.401 80.4698 847.024 77.1897 848.295 73.8764C849.537 77.1857 850.129 80.5404 850.233 84.0391C850.356 87.5271 849.673 91.1511 848.237 94.5391C847.517 96.2324 846.631 97.8871 845.476 99.3871C844.351 100.88 842.848 102.203 841.301 103.168C839.777 104.123 838.316 104.802 836.965 105.567C835.627 106.343 834.364 107.164 833.411 108.679Z" fill="#1D4F45"/>
<path d="M849.981 107.786C849.004 106.551 848.767 104.71 849.087 103.067C849.391 101.396 850.151 99.8578 851.136 98.5071C853.132 95.8031 855.656 94.2724 857.396 92.6364C859.097 91.0551 860.308 89.0484 861.656 86.7631C862.984 84.4764 864.153 81.8644 865.939 79.3218C866.616 82.3404 866.632 85.3084 866.008 88.3591C865.42 91.3884 863.789 94.4791 861.312 96.7778C858.92 99.0458 856.473 100.414 854.464 101.756C853.476 102.439 852.544 103.239 851.736 104.183C850.944 105.136 850.259 106.248 849.981 107.786Z" fill="#1D4F45"/>
<path d="M864.033 106.564C863.412 105.248 863.771 103.538 864.369 102.236C864.957 100.891 865.759 99.7631 866.343 98.7564C867.463 96.7444 868.592 94.8671 869.572 92.7671C870.535 90.6751 871.295 88.4324 872.365 86.1871C873.416 83.9311 874.48 81.5791 876.188 79.3164C876.952 82.0378 877.065 84.6698 876.857 87.3298C876.669 89.9925 875.913 92.6138 874.756 95.1325C873.665 97.6605 872.056 100.123 869.785 101.884C868.675 102.763 867.609 103.367 866.625 104.016C865.657 104.678 864.721 105.311 864.033 106.564Z" fill="#1D4F45"/>
<path d="M878.359 105.336C877.701 104.063 878.087 102.374 878.624 101.128C879.188 99.8245 879.753 98.7791 880.189 97.7818C881.036 95.7138 881.913 93.7751 882.673 91.6711C883.38 89.5511 883.916 87.3378 884.741 85.0818C885.533 82.8124 886.343 80.4631 887.757 78.0924C888.852 80.6231 889.24 83.1671 889.325 85.7591C889.421 88.3578 888.919 90.9618 888.072 93.5004C887.243 96.0378 885.968 98.5684 883.963 100.5C883.457 100.967 882.928 101.448 882.415 101.842C881.884 102.218 881.392 102.56 880.9 102.882C879.948 103.554 879.021 104.111 878.359 105.336Z" fill="#1D4F45"/>
<path d="M187.202 338.689H91.3448C85.0792 338.689 80 333.609 80 327.344C80 321.079 85.0792 316 91.3448 316H187.202C193.467 316 198.547 321.079 198.547 327.344C198.547 333.609 193.467 338.689 187.202 338.689Z" fill="#F8E7F4"/>
<path d="M103.736 332.425L100.168 322.625H101.564L103.291 327.512C103.795 328.949 104.299 330.399 104.517 331.295H104.545C104.751 330.491 105.307 328.979 105.821 327.557L107.618 322.625H108.959L105.272 332.425H103.736Z" fill="#8EBEE9"/>
<path d="M113.127 322.625V332.425H111.829V322.625H113.127Z" fill="#8EBEE9"/>
<path d="M117.689 329.697C117.954 330.872 118.757 331.508 120.178 331.508C121.707 331.508 122.314 330.792 122.314 329.865C122.314 328.883 121.83 328.332 119.865 327.857C117.555 327.295 116.754 326.504 116.754 325.127C116.754 323.669 117.827 322.484 120.015 322.484C122.349 322.484 123.31 323.832 123.442 325.12H122.118C121.943 324.249 121.397 323.532 119.967 323.532C118.774 323.532 118.105 324.071 118.105 325.003C118.105 325.923 118.657 326.287 120.375 326.703C123.171 327.383 123.665 328.471 123.665 329.728C123.665 331.309 122.491 332.548 120.094 332.548C117.629 332.548 116.567 331.201 116.366 329.697H117.689Z" fill="#8EBEE9"/>
<path d="M128.259 322.625V332.425H126.961V322.625H128.259Z" fill="#8EBEE9"/>
<path d="M134.334 323.739H131.167V322.625H138.811V323.739H135.642V332.425H134.334V323.739Z" fill="#8EBEE9"/>
<path d="M146.566 332.425V322.625H148.286C149.693 324.917 152.75 329.792 153.301 330.857H153.319C153.225 329.599 153.234 328.053 153.234 326.452V322.625H154.462V332.425H152.846C151.551 330.299 148.362 325.053 147.749 323.953H147.727C147.798 325.071 147.801 326.732 147.801 328.5V332.425H146.566Z" fill="#8EBEE9"/>
<path d="M159.25 327.483C159.25 329.6 160.334 331.457 162.441 331.457C164.718 331.457 165.622 329.583 165.622 327.489C165.622 325.376 164.595 323.591 162.445 323.591C160.222 323.591 159.25 325.391 159.25 327.483ZM166.982 327.469C166.982 330.167 165.473 332.567 162.383 332.567C159.499 332.567 157.889 330.337 157.889 327.525C157.889 324.721 159.533 322.484 162.497 322.484C165.257 322.484 166.982 324.556 166.982 327.469Z" fill="#8EBEE9"/>
<path d="M172.015 332.425L169.389 322.625H170.759C171.522 325.835 172.582 329.889 172.761 331.011H172.777C173.034 329.745 174.379 325.127 175.021 322.625H176.285C176.873 324.813 178.211 329.792 178.431 330.96H178.446C178.759 329.267 180.129 324.639 180.67 322.625H181.954L179.093 332.425H177.697C177.105 330.172 175.843 325.499 175.603 324.324H175.589C175.295 325.787 174.034 330.173 173.405 332.425H172.015Z" fill="#8EBEE9"/>
</svg>
