<svg width="170" height="80" viewBox="0 0 170 80" fill="none" xmlns="http://www.w3.org/2000/svg">
<g id="Group 3">
<path id="path1360" d="M169.144 79.9987H0.362671L11.1774 64.8067H158.332L169.144 79.9987Z" fill="#FBC341"/>
<path id="path1362" d="M167.056 77.0627L38.0667 73.7467C38.4227 73.524 38.6906 73.1587 38.7986 72.724L140.465 68.4854C140.327 69.228 139.864 69.8827 139.191 70.2574L137.717 71.076L137.536 71.1227H136.835C135.511 71.1227 134.437 72.1947 134.437 73.5187C134.437 73.7254 134.604 73.8921 134.809 73.8921H144.439C144.577 73.8921 144.704 73.8147 144.768 73.6921L147.647 68.1854L160.36 67.6561L163.453 72.0014L167.056 77.0627Z" fill="#DC9632"/>
<path id="path1364" d="M39.8546 22.58L29.604 14.8547L26.132 19.3334L26.6013 20.052L25.9787 21.7347L26.4347 21.728C27.212 21.716 27.9427 22.104 28.3667 22.7547L34.1307 27.3147L39.8546 22.58Z" fill="#F0724E"/>
<path id="path1366" d="M28.2013 22.5333C27.848 22.1133 27.3533 21.8373 26.8133 21.7546C27.3533 21.8373 27.8493 22.1133 28.2026 22.5333C28.2026 22.5333 28.2026 22.5333 28.2013 22.5333ZM26.8106 21.7546C26.8066 21.7533 26.8026 21.7519 26.7986 21.7519C26.8026 21.7519 26.8066 21.7533 26.8106 21.7546ZM26.7946 21.7519C26.7906 21.7506 26.7866 21.7506 26.7826 21.7493C26.7866 21.7506 26.7906 21.7506 26.7946 21.7519ZM26.7773 21.7493C26.7746 21.7493 26.7706 21.748 26.7666 21.748C26.7706 21.748 26.7746 21.7493 26.7773 21.7493ZM26.7613 21.7466C26.7573 21.7466 26.7546 21.7466 26.7506 21.7453C26.7546 21.7466 26.7573 21.7466 26.7613 21.7466ZM26.744 21.7453C26.7333 21.744 26.7213 21.7426 26.7093 21.7413C26.7213 21.7426 26.7333 21.744 26.744 21.7453ZM26.7026 21.74C26.7 21.74 26.6973 21.74 26.6946 21.74C26.6973 21.74 26.7 21.74 26.7026 21.74ZM26.6853 21.7387C26.6826 21.7387 26.68 21.7373 26.6773 21.7373C26.68 21.7373 26.6826 21.7387 26.6853 21.7387ZM26.6693 21.7373C26.6666 21.7373 26.664 21.736 26.6613 21.736C26.664 21.736 26.6666 21.7373 26.6693 21.7373ZM26.6519 21.7346C26.6493 21.7346 26.6466 21.7346 26.644 21.7346C26.6466 21.7346 26.6493 21.7346 26.6519 21.7346ZM25.9839 21.7346L26.4346 21.728C26.4466 21.728 26.4573 21.728 26.4693 21.728C26.4573 21.728 26.4466 21.728 26.4346 21.728L25.9839 21.7346ZM26.6346 21.7346C26.632 21.7346 26.6306 21.7333 26.628 21.7333C26.6293 21.7333 26.632 21.7346 26.6346 21.7346ZM26.616 21.7333C26.6146 21.7333 26.6133 21.7333 26.6106 21.7333C26.612 21.7333 26.6146 21.7333 26.616 21.7333ZM26.5946 21.732C26.5933 21.732 26.592 21.732 26.5906 21.7307C26.592 21.732 26.5933 21.732 26.5946 21.732ZM26.5773 21.7307C26.576 21.7307 26.5733 21.7307 26.572 21.7307C26.5733 21.7307 26.576 21.7307 26.5773 21.7307ZM26.56 21.7307C26.5586 21.7307 26.556 21.7293 26.5546 21.7293C26.556 21.7293 26.5586 21.7307 26.56 21.7307ZM26.544 21.7293C26.5413 21.7293 26.5386 21.7293 26.5373 21.7293C26.5386 21.7293 26.5413 21.7293 26.544 21.7293ZM26.5266 21.7293C26.524 21.7293 26.5226 21.728 26.52 21.728C26.5226 21.728 26.524 21.7293 26.5266 21.7293ZM26.5093 21.728C26.5066 21.728 26.5053 21.728 26.5026 21.728C26.5053 21.728 26.5066 21.728 26.5093 21.728ZM26.492 21.728C26.4893 21.728 26.488 21.728 26.4866 21.728C26.488 21.728 26.4893 21.728 26.492 21.728Z" fill="#DEBAA1"/>
<path id="path1368" d="M28.2026 22.5333C27.8493 22.1133 27.3533 21.8373 26.8133 21.7546C26.812 21.7546 26.812 21.7546 26.8106 21.7546C26.8066 21.7533 26.8026 21.7519 26.7986 21.7519C26.7973 21.7519 26.796 21.7519 26.7946 21.7519C26.7906 21.7506 26.7866 21.7506 26.7826 21.7493C26.7813 21.7493 26.78 21.7493 26.7773 21.7493C26.7746 21.7493 26.7706 21.748 26.7666 21.748C26.7653 21.7466 26.7626 21.7466 26.7613 21.7466C26.7573 21.7466 26.7546 21.7466 26.7506 21.7453C26.7479 21.7453 26.7466 21.7453 26.744 21.7453C26.7333 21.744 26.7213 21.7426 26.7093 21.7413C26.7066 21.7399 26.7053 21.74 26.7026 21.74C26.7 21.74 26.6973 21.74 26.6946 21.74C26.6906 21.7386 26.6879 21.7387 26.6853 21.7387C26.6826 21.7387 26.68 21.7373 26.6773 21.7373C26.6746 21.7373 26.672 21.7373 26.6693 21.7373C26.6666 21.7373 26.664 21.736 26.6613 21.736C26.6573 21.736 26.6546 21.736 26.6519 21.7346C26.6493 21.7346 26.6466 21.7346 26.644 21.7346C26.6413 21.7346 26.6373 21.7346 26.6346 21.7346C26.632 21.7346 26.6293 21.7333 26.628 21.7333C26.624 21.7333 26.62 21.7333 26.616 21.7333C26.6146 21.7333 26.612 21.7333 26.6106 21.7333C26.6053 21.732 26.6 21.732 26.5946 21.732C26.5933 21.732 26.592 21.732 26.5906 21.7307C26.5866 21.7307 26.5813 21.7307 26.5773 21.7307C26.576 21.7307 26.5733 21.7307 26.572 21.7307C26.568 21.7307 26.564 21.7307 26.56 21.7307C26.5586 21.7307 26.556 21.7293 26.5546 21.7293C26.5506 21.7293 26.5466 21.7293 26.544 21.7293C26.5413 21.7293 26.5386 21.7293 26.5373 21.7293C26.5333 21.7293 26.5306 21.7293 26.5266 21.7293C26.524 21.7293 26.5226 21.728 26.52 21.728C26.516 21.728 26.5133 21.728 26.5093 21.728C26.5066 21.728 26.5053 21.728 26.5026 21.728C26.4986 21.728 26.4946 21.728 26.492 21.728C26.4893 21.728 26.488 21.728 26.4866 21.728C26.48 21.728 26.4746 21.728 26.4693 21.728C26.4573 21.728 26.4466 21.728 26.4346 21.728L25.9839 21.7346C26.3773 21.584 26.7626 21.408 27.1373 21.2093L27.788 20.8613C28.844 20.3 29.5586 19.2613 29.7106 18.0826C30.288 20.0773 29.0613 21.6933 28.2026 22.5333Z" fill="#D3583A"/>
<path id="path1370" d="M25.096 11.7C26.1773 15.0974 29.5026 17.0734 32.524 16.112C35.5466 15.152 37.1213 11.6187 36.04 8.22134C34.9613 4.82267 31.636 2.84666 28.6133 3.80799C25.5907 4.76799 24.0173 8.30138 25.096 11.7Z" fill="#682B22"/>
<path id="path1372" d="M35.9226 10.0613C35.452 10.0613 34.972 9.90932 34.4906 9.60398L34.4147 9.26134L34.756 9.184C35.332 9.54666 35.892 9.6493 36.4213 9.48797C37.6373 9.11997 38.364 7.51464 38.3707 7.49864C38.4267 7.37331 38.5747 7.31602 38.6987 7.37202C38.8253 7.42802 38.8813 7.57468 38.8253 7.70001C38.7933 7.77468 38.0027 9.52801 36.5693 9.96401C36.3573 10.028 36.14 10.0613 35.9226 10.0613Z" fill="#682B22"/>
<path id="path1374" d="M33.136 18.6014C32.5293 18.6014 31.8173 18.4947 31.2413 18.0987C30.6573 17.6987 30.316 17.076 30.2266 16.2494C30.2106 16.1134 30.308 15.9907 30.4467 15.9761C30.592 15.9614 30.7053 16.06 30.72 16.196C30.796 16.872 31.0653 17.3734 31.524 17.6894C32.5706 18.4081 34.2746 17.9734 34.2933 17.9694C34.4293 17.9321 34.5613 18.0147 34.596 18.1467C34.632 18.28 34.552 18.4161 34.4186 18.4507C34.3773 18.4627 33.8266 18.6014 33.136 18.6014Z" fill="#682B22"/>
<path id="path1376" d="M32.8134 18.4014C32.3907 18.4014 31.9667 18.3227 31.5973 18.1094C30.9613 17.7427 30.604 17.0467 30.5413 16.0454C30.532 15.908 30.6373 15.7893 30.7733 15.78C30.908 15.7667 31.0293 15.876 31.0373 16.0133C31.0907 16.8387 31.3627 17.4 31.8467 17.6787C32.9534 18.3187 34.8453 17.3974 34.8627 17.388C34.9893 17.328 35.1373 17.3787 35.196 17.5014C35.2573 17.624 35.2067 17.7734 35.084 17.8347C35.0213 17.8667 33.9214 18.4014 32.8134 18.4014Z" fill="#682B22"/>
<path id="path1378" d="M18.416 8.53735C18.6413 11.7107 22.248 14.0401 26.468 13.7387C30.688 13.4387 33.9253 10.6214 33.6986 7.44803C33.4733 4.2747 29.8693 1.94533 25.648 2.24666C21.428 2.54666 18.1907 5.36269 18.416 8.53735Z" fill="#682B22"/>
<path id="path1380" d="M25.792 3.12132C29.6453 2.84666 32.976 4.76665 33.7 7.51865L33.6987 7.44801C33.4734 4.27468 29.8694 1.94531 25.648 2.24665C21.428 2.54665 18.1907 5.364 18.4173 8.53734C18.436 8.812 18.4893 9.07998 18.5587 9.34131C18.3853 6.19731 21.6027 3.41866 25.792 3.12132Z" fill="#B14B3C"/>
<path id="path1382" d="M29.5653 6.87735C30.3427 9.32269 32.848 10.7094 35.1587 9.97338C37.472 9.23871 38.716 6.66136 37.9387 4.21602C37.1613 1.77069 34.656 0.385394 32.3453 1.12006C30.032 1.85473 28.788 4.43335 29.5653 6.87735Z" fill="#682B22"/>
<path id="path1384" d="M30.1667 7.16673C29.3893 4.72139 30.6347 2.14537 32.9467 1.40937C33.908 1.10404 34.9013 1.16935 35.7907 1.52135C34.7627 0.926684 33.5293 0.742715 32.3453 1.12005C30.032 1.85472 28.788 4.43334 29.5653 6.87734C30.02 8.30534 31.064 9.36806 32.3134 9.86139C31.3374 9.29606 30.5453 8.35873 30.1667 7.16673Z" fill="#B14B3C"/>
<path id="path1386" d="M26.244 12.4454C24.4454 12.4454 22.9733 12.0227 21.8413 11.18C19.784 9.64534 19.676 7.30136 19.672 7.20136C19.6613 6.92803 19.8747 6.69868 20.1494 6.68802C20.4067 6.66135 20.6547 6.88939 20.6667 7.16406C20.6667 7.18406 20.772 9.14802 22.448 10.3907C24.0974 11.612 26.68 11.7814 30.1213 10.8921C30.3893 10.8227 30.6573 10.984 30.7267 11.2493C30.796 11.516 30.636 11.7881 30.3693 11.8561C28.8467 12.2494 27.4694 12.4454 26.244 12.4454Z" fill="#682B22"/>
<path id="path1388" d="M26.3787 9.96135L27.128 10.8974C27.128 10.8974 28.5933 12.5693 30.7173 11.6533L31.1186 10.0826L31.5626 8.60933L30.624 7.82665L28.3467 8.19736L26.588 9.92665" fill="#682B22"/>
<path id="path1390" d="M22.6787 7.12664C22.6787 7.12664 19.9226 8.94263 20.592 12.916C20.6466 13.256 20.6173 13.6053 20.504 13.932L19.6293 16.4373C19.5706 16.6053 19.6027 16.7893 19.716 16.9266C19.8307 17.0666 20.0106 17.1346 20.1893 17.104L20.608 17.0373L20.7626 17.0773L20.9027 17.1853L20.9573 17.5133L20.7413 17.848L21.0747 18.1706L21.1186 18.6787L21.116 18.9746C21.1147 19.32 21.4133 19.4467 21.6213 19.7227L21.608 20.9613C21.7667 21.908 22.6746 22.5387 23.6186 22.356L24.2427 22.2346C25.252 22.0386 26.228 21.6933 27.1373 21.2093L27.788 20.8613C28.904 20.268 29.6373 19.1453 29.732 17.884L29.852 16.2867C32.78 15.8093 34.54 12.74 33.4307 9.98933C32.6733 8.10667 31.38 6.42531 29.1733 6.22931C29.1733 6.22931 25.3853 5.62664 22.6787 7.12664Z" fill="#F0724E"/>
<path id="path1392" d="M21.6213 19.7227C21.432 19.4721 21.168 19.344 21.1226 19.0627C21.2053 19.056 21.3186 19.016 21.476 18.9147C21.476 18.9147 22.108 18.564 22.4773 18.1467C22.4253 18.9227 21.6213 19.7227 21.6213 19.7227Z" fill="#D3583A"/>
<path id="path1394" d="M22.6186 17.8014C22.3786 17.804 21.6746 17.7787 21.1333 17.456C21.1333 17.456 20.8706 17.1454 20.5506 17.4374C20.5506 17.4374 20.4173 17.8454 20.9373 18.192C20.9373 18.192 20.7933 18.7307 20.908 18.9133C20.908 18.9133 20.952 19.252 21.476 18.9147C21.476 18.9147 22.4026 18.4014 22.668 17.8787L22.6186 17.8014Z" fill="#B73C2B"/>
<path id="path1396" d="M20.1067 17.1121C19.956 17.1121 19.8133 17.0454 19.716 16.9267C19.7067 16.916 19.6987 16.9054 19.6907 16.8947C19.6987 16.9054 19.7067 16.916 19.716 16.9267C19.8133 17.0454 19.956 17.1121 20.1067 17.1121C20.1333 17.1121 20.1613 17.1094 20.1893 17.1041C20.1613 17.1094 20.1333 17.1121 20.1067 17.1121ZM19.6907 16.8934C19.6893 16.892 19.688 16.8894 19.6866 16.888C19.688 16.8894 19.6893 16.892 19.6907 16.8934ZM19.6853 16.8854C19.684 16.884 19.684 16.8827 19.6827 16.8827C19.684 16.8827 19.684 16.884 19.6853 16.8854Z" fill="#DEBAA1"/>
<path id="path1398" d="M20.1066 17.1121C19.956 17.1121 19.8133 17.0454 19.716 16.9267C19.7066 16.916 19.6986 16.9054 19.6906 16.8947C19.6906 16.8947 19.6906 16.8947 19.6906 16.8934C19.6893 16.892 19.6879 16.8894 19.6866 16.888C19.6866 16.8867 19.6853 16.8854 19.6853 16.8854C19.6839 16.884 19.684 16.8827 19.6826 16.8827C19.6013 16.7587 19.5813 16.6041 19.6239 16.4614L19.6333 16.424C19.6333 16.424 19.6453 16.4334 19.676 16.4334C19.7453 16.4334 19.9146 16.3867 20.2866 16.0787C20.2866 16.0787 20.4519 15.8827 20.7839 15.8827C20.9253 15.8827 21.0973 15.9187 21.2986 16.0187C21.3733 16.0574 21.456 16.0787 21.5386 16.0787C21.592 16.0787 21.6439 16.0694 21.6946 16.052L21.9066 15.88C21.9066 15.88 22.2733 16.5854 21.6333 16.7854C21.6333 16.7854 21.0213 17.0041 20.608 17.0374L20.5839 17.0401L20.1893 17.1041C20.1613 17.1094 20.1333 17.1121 20.1066 17.1121Z" fill="#D3583A"/>
<path id="path1400" d="M21.5027 13.32C21.644 13.0973 21.8667 12.9654 22.0947 12.8694L22.448 12.7587L22.6293 12.7254L22.72 12.7106L22.8027 12.7013C23.0227 12.6707 23.2453 12.6293 23.4547 12.5733L23.7467 12.464L23.932 12.288L23.9387 12.268L24.0427 12.2173L24.0973 12.3013L24.084 12.416L24.0347 12.5213L23.968 12.6067L23.892 12.676L23.5547 12.8653C23.3227 12.9587 23.0854 13.008 22.8454 13.04C22.7174 13.0573 22.6214 13.06 22.508 13.08L22.184 13.14C21.9733 13.192 21.7574 13.2626 21.5787 13.38L21.5694 13.3853L21.5027 13.372V13.32Z" fill="#682B22"/>
<path id="path1402" d="M22.3787 13.4186C22.4147 13.6359 22.356 13.828 22.248 13.8453C22.1387 13.8626 22.024 13.6999 21.9866 13.4826C21.952 13.2653 22.0106 13.0746 22.1186 13.0573C22.2266 13.0399 22.3427 13.2013 22.3787 13.4186Z" fill="#682B22"/>
<path id="path1404" d="M22.008 14.0106L21.988 14.0133L21.9427 13.976L21.98 13.9307C21.9827 13.9307 22.1627 13.9107 22.2467 13.7813C22.3 13.6987 22.304 13.5853 22.256 13.4453L22.2827 13.3933L22.336 13.4186C22.3907 13.5853 22.384 13.7214 22.3147 13.828C22.2267 13.964 22.0627 14.0013 22.008 14.0106Z" fill="#682B22"/>
<path id="path1406" d="M21.0973 11.5774C21.1746 11.4387 21.2813 11.3734 21.3973 11.3267L21.7506 11.2187C21.988 11.152 22.2333 11.112 22.476 11.088C22.72 11.0667 22.9666 11.0627 23.208 11.0867C23.4506 11.1094 23.6893 11.1587 23.9173 11.2294L23.9453 11.2814L23.9066 11.3121H23.9053C23.668 11.3187 23.4387 11.3201 23.2107 11.3561C22.984 11.3827 22.76 11.4241 22.5426 11.4814C22.3226 11.5334 22.1093 11.604 21.9 11.6827L21.592 11.8121C21.492 11.8547 21.3826 11.8827 21.252 11.8547L21.22 11.8467L21.08 11.6267L21.0973 11.5774Z" fill="#682B22"/>
<path id="path1408" d="M20.3986 16.644C20.5146 16.5653 20.6386 16.5107 20.7746 16.4867C20.9066 16.4627 21.0653 16.4666 21.1853 16.5133L21.5093 16.516L21.7586 16.2947L21.7986 16.284L21.812 16.3147C21.7907 16.4453 21.7066 16.5853 21.5666 16.6533C21.428 16.724 21.2706 16.712 21.1373 16.6653C21.02 16.616 20.9146 16.5867 20.792 16.6013L20.4546 16.7186L20.4506 16.7213L20.3866 16.7067L20.3986 16.644Z" fill="#682B22"/>
<path id="path1410" d="M19.8653 6.90939C20.0693 9.76006 23.4893 11.8387 27.5053 11.5534C31.5226 11.2667 34.6133 8.72405 34.4106 5.87339C34.2066 3.02272 30.7866 0.94271 26.7693 1.22938C22.7533 1.51604 19.6626 4.05739 19.8653 6.90939Z" fill="#682B22"/>
<path id="path1412" d="M20.164 7.16531C19.9626 4.31997 23.2013 1.76931 27.4026 1.47065C28.532 1.38931 29.6146 1.48533 30.6013 1.71733C29.4666 1.31866 28.1546 1.13064 26.7693 1.22931C22.7533 1.51597 19.6626 4.05732 19.8653 6.90932C19.9706 8.37065 20.9213 9.62534 22.3626 10.4667C21.0866 9.64001 20.2586 8.48931 20.164 7.16531Z" fill="#B14B3C"/>
<path id="path1414" d="M24.0774 8.10398C24.0774 8.10398 23.8987 8.98001 25.7227 9.80001C25.7227 9.80001 26.5854 10.356 26.4387 11.0587C26.4387 11.0587 25.74 12.9 26.8227 13.2813C26.8227 13.2813 27.6667 13.684 27.9334 13.0986C27.9334 13.0986 28.3613 11.484 29.7187 11.8466C29.7187 11.8466 31.144 12.14 30.8573 14.1466C30.8573 14.1466 30.732 15.192 29.8627 15.6986C29.8627 15.6986 29.4374 17.988 32.5 18.2733C32.5 18.2733 36.344 16.984 35.696 11.396C35.4267 9.07597 33.9947 7.02667 31.8654 6.06401C30.6574 5.51601 29.0707 5.17597 27.0173 5.35997C27.0173 5.35997 24.416 5.52532 23.952 7.01466C23.952 7.01466 23.748 7.29998 24.0774 8.10398Z" fill="#682B22"/>
<path id="path1416" d="M29.1867 15.6667C29.1627 15.6667 29.1387 15.6641 29.1147 15.6561L29.004 15.6214L29.0747 15.3854C29.2894 14.456 29.0187 13.596 28.468 13.3747C28.5494 13.1627 28.8454 12.4921 29.3787 12.4921C29.416 12.4921 29.4547 12.4961 29.4947 12.5027C29.4947 12.5027 31.0774 12.876 30.0094 14.788C30.0094 14.788 29.5733 15.6681 29.1867 15.6667Z" fill="#BE462D"/>
<path id="path1418" d="M29.2213 16.0654C29.2493 16.2334 29.1347 16.3921 28.9653 16.4201C28.796 16.4481 28.6374 16.3335 28.6094 16.1641C28.5827 15.9948 28.696 15.8361 28.864 15.8081C29.0333 15.7814 29.1933 15.8961 29.2213 16.0654Z" fill="#923C1D"/>
<path id="path1420" d="M148.763 58.1427L144.523 56.5387L128.087 48.468C124.684 46.7974 120.857 46.1907 117.103 46.7267C114.415 47.112 111.673 46.9107 109.069 46.1374L87.432 39.7187L86.9906 37.3467C86.348 33.9013 83.364 31.3881 79.86 31.3387L70.5613 32.1254C67.7733 32.4507 64.4706 30.94 62.0453 29.5254L45.92 20.1187C43.4573 18.6813 40.6533 17.924 37.8013 17.9254C35.704 17.9254 34.0053 19.6253 34.0053 21.7213V32.5467L43.3186 43.2467C44.012 44.0413 45.0146 44.4974 46.0693 44.4974H46.3333C47.264 44.4974 48.16 44.1427 48.8373 43.5027C49.7546 42.6347 51.0573 42.3054 52.2773 42.6294L59.312 44.4974L79.724 51.9493C89.0813 55.1987 98.9906 56.5547 108.876 55.94L116.536 55.4654L140.509 62.188V68.0147C140.509 68.9467 140.004 69.8053 139.191 70.2573L137.717 71.076L137.536 71.1227H136.835C135.511 71.1227 134.437 72.1947 134.437 73.5187C134.437 73.7253 134.604 73.892 134.809 73.892H144.439C144.577 73.892 144.704 73.8147 144.768 73.692L149.532 64.5787L149.616 64.4721L149.888 64.2293C151.92 62.4227 151.307 59.104 148.763 58.1427Z" fill="#F0724E"/>
<path id="path1422" d="M55.3387 43.4427L52.9147 42.7987L55.3387 43.4427ZM58.9293 27.708L57.2 26.6987L58.9293 27.708Z" fill="#DEBAA1"/>
<path id="path1424" d="M55.3387 43.4427L52.9147 42.7987L57.2 26.6987L58.9293 27.708C57.768 32.8907 56.2067 39.8014 55.3387 43.4427Z" fill="#D3583A"/>
<path id="path1426" d="M50.052 42.7454L50.0533 42.7427C50.464 42.588 50.9 42.5067 51.3414 42.5067C51.6534 42.5067 51.968 42.5467 52.2774 42.6293C51.9694 42.548 51.6574 42.508 51.348 42.508C50.904 42.508 50.4653 42.5894 50.052 42.7454Z" fill="#DEBAA1"/>
<path id="path1428" d="M136.997 59.4373L129.108 53.6093L138.463 55.5427L139.091 53.872L128.085 48.468C124.684 46.7973 120.857 46.1907 117.103 46.7267C114.415 47.112 111.673 46.9107 109.069 46.1373L87.432 39.7187L86.9906 37.3466C86.348 33.9013 83.364 31.388 79.8613 31.3387L70.5613 32.1254C70.1 32.1787 69.6267 32.1827 69.144 32.1453L65.076 46.6013L79.724 51.9493C89.0826 55.1987 98.9907 56.5547 108.876 55.94L116.536 55.464L136.397 61.0347L136.997 59.4373Z" fill="#3D7195"/>
<path id="path1430" d="M37.8013 17.9254C35.704 17.9254 34.0053 19.6253 34.0053 21.7213V32.5467L43.3186 43.2467C44.012 44.0413 45.0146 44.4974 46.0693 44.4974H46.3333C47.264 44.4974 48.16 44.1427 48.8373 43.5027C49.7546 42.6347 51.0573 42.3053 52.2773 42.6293L52.9147 42.7987L57.2 26.6987L45.92 20.1187C43.4573 18.6813 40.6533 17.924 37.8013 17.9254Z" fill="#3D7195"/>
<path id="path1432" d="M34.3333 27.9574V26.6707C34.3333 24.8801 35.784 23.4308 37.5747 23.4308H39.136C40.9253 23.4308 42.376 24.8801 42.376 26.6707V27.9574C42.376 29.7467 40.9253 31.1987 39.136 31.1987H37.5747C35.784 31.1987 34.3333 29.7467 34.3333 27.9574Z" fill="#F0724E"/>
<path id="path1434" d="M55.2627 25.568L50.94 42.5293C51.3813 42.48 51.8347 42.512 52.2773 42.6293L52.9147 42.7986L57.2 26.6986L55.2627 25.568Z" fill="white"/>
<path id="path1436" d="M39.316 54.4814L38.176 54.532C36.5987 54.6027 35.2493 53.3694 35.1787 51.792L34.1053 27.916C34.0347 26.3387 35.268 24.9893 36.8467 24.9187L37.9853 24.8667C39.564 24.7961 40.9133 26.0294 40.9827 27.6067L42.056 51.4827C42.128 53.0613 40.8947 54.4107 39.316 54.4814Z" fill="#F0724E"/>
<path id="path1438" d="M41.52 39.5454L41.1147 30.5241L41.52 39.5454Z" fill="#325569"/>
<path id="path1440" d="M41.1147 30.524L41.0067 28.1227C41.008 28.1414 41.008 28.1586 41.0093 28.1773L41.1147 30.524Z" fill="#D3583A"/>
<path id="path1442" d="M41.7547 52.4214C41.672 51.6161 41.304 50.872 40.74 50.316L39.7453 28.1774C39.672 26.5547 38.472 25.24 36.94 24.952C37.0947 24.9227 37.2533 24.9001 37.4147 24.8934C37.468 24.8907 37.52 24.8894 37.572 24.8894C39.3773 24.8894 40.896 26.3094 41.0067 28.1228L41.1147 30.5241L41.52 39.5454L42.0293 50.9134C42.0547 51.4467 41.9533 51.9601 41.7547 52.4214Z" fill="#D3583A"/>
<path id="path1444" d="M34.9373 52.1881L35.3626 70.6721C35.3413 70.7908 35.3173 70.916 35.2906 71.0467L38.5973 71.6121L41.7226 53.3494C42.0426 51.4827 40.7773 49.6947 38.9107 49.3761C37.044 49.0561 35.256 50.3227 34.9373 52.1881Z" fill="#F0724E"/>
<path id="path1446" d="M39.7626 64.8067L41.7226 53.3493C41.7506 53.1853 41.7666 53.0227 41.7706 52.8614C41.7666 53.0227 41.7506 53.1853 41.7226 53.3493L39.7626 64.8067Z" fill="#DEBAA1"/>
<path id="path1448" d="M41.7707 52.8614C41.7707 52.8521 41.772 52.8427 41.772 52.8334C41.772 52.8427 41.7707 52.8521 41.7707 52.8614ZM41.772 52.8254C41.772 52.8214 41.772 52.8187 41.772 52.8147C41.772 52.8187 41.772 52.8214 41.772 52.8254ZM41.772 52.7987C41.772 52.7974 41.772 52.7947 41.772 52.7934C41.772 52.7947 41.772 52.7974 41.772 52.7987Z" fill="#D3583A"/>
<path id="path1450" d="M38.628 71.4374C38.3986 71.0321 38.012 70.7374 37.5573 70.6467L40.8707 50.4561C41.44 51.0841 41.7773 51.9134 41.772 52.7934C41.772 52.7947 41.772 52.7974 41.772 52.7987C41.772 52.8041 41.772 52.8094 41.772 52.8147C41.772 52.8187 41.772 52.8214 41.772 52.8254C41.772 52.8281 41.772 52.8308 41.772 52.8334C41.772 52.8428 41.7707 52.8521 41.7707 52.8614C41.7667 53.0227 41.7506 53.1854 41.7226 53.3494L39.7627 64.8067L38.628 71.4374Z" fill="#D3583A"/>
<path id="path1452" d="M37.3453 70.62V70.612C35.3813 70.5414 32.0987 70.0133 29.6813 70.524L23.6533 72.9627C23.2867 73.1107 23.2427 73.6254 23.588 73.8174C25.3293 74.7734 31.5013 73.968 33.1227 73.968H37.1627L37.26 73.9787C38.14 73.9787 38.8506 73.224 38.8506 72.2947C38.8506 71.3947 38.184 70.6667 37.3453 70.62Z" fill="#F0724E"/>
<path id="path1454" d="M38.8507 72.2787C38.8507 72.2774 38.8507 72.2774 38.8507 72.276C38.8507 72.276 38.8507 72.2774 38.8507 72.2787ZM38.8494 72.26C38.8494 72.2587 38.8494 72.2587 38.8494 72.2573C38.8494 72.2587 38.8494 72.2587 38.8494 72.26ZM38.8494 72.2413C38.8494 72.24 38.8494 72.24 38.8494 72.24C38.8494 72.24 38.8494 72.24 38.8494 72.2413Z" fill="#DC9632"/>
<path id="path1456" d="M26.912 74.2854C25.5 74.2854 24.236 74.1734 23.588 73.8174C23.4133 73.7214 23.3387 73.5414 23.3547 73.368C24.048 73.54 25.004 73.6001 26.04 73.6001C28.416 73.6001 31.212 73.2854 32.2267 73.2854H36.268L36.3653 73.296C37.244 73.296 37.956 72.5427 37.956 71.612C37.956 71.2667 37.856 70.948 37.688 70.6827C38.3413 70.8747 38.8267 71.492 38.8493 72.24C38.8493 72.24 38.8493 72.24 38.8493 72.2413C38.8493 72.2467 38.8493 72.252 38.8493 72.2574C38.8493 72.2587 38.8493 72.2587 38.8493 72.26C38.8507 72.2654 38.8506 72.2707 38.8506 72.276C38.8506 72.2774 38.8506 72.2774 38.8506 72.2787C38.8506 72.284 38.8506 72.2894 38.8506 72.2947C38.8506 72.4427 38.832 72.588 38.7987 72.724C38.6907 73.1587 38.4227 73.524 38.0667 73.7467C37.8293 73.8933 37.5547 73.9787 37.26 73.9787L37.1627 73.968H33.1227C32.1053 73.968 29.2947 74.2854 26.912 74.2854Z" fill="#D3583A"/>
<path id="path1458" d="M133.675 58.064L133.569 57.9974L133.567 57.5733L136.248 54.864L136.671 54.8614L136.673 55.284L133.992 57.9947L133.675 58.064Z" fill="#3D7195"/>
<path id="path1460" d="M135.027 58.616C134.913 58.5733 134.832 58.464 134.831 58.3373L134.809 54.5253C134.808 54.3587 134.943 54.224 135.108 54.224C135.272 54.2213 135.408 54.356 135.409 54.5213L135.429 58.3333C135.431 58.5 135.297 58.6346 135.132 58.6346L135.027 58.616Z" fill="#3D7195"/>
<path id="path1462" d="M132.021 57.58L131.916 57.512L131.913 57.0893L134.593 54.3787L135.019 54.376L135.02 54.8L132.339 57.5106L132.021 57.58Z" fill="#3D7195"/>
<path id="path1464" d="M133.372 58.1307C133.259 58.088 133.179 57.98 133.177 57.852L133.157 54.04C133.156 53.8746 133.289 53.74 133.455 53.7387C133.62 53.7373 133.755 53.8707 133.755 54.036L133.776 57.8493C133.777 58.0133 133.644 58.1493 133.479 58.1493L133.372 58.1307Z" fill="#3D7195"/>
<path id="path1466" d="M130.477 57.004L130.372 56.9374L130.369 56.5133L133.051 53.8027L133.473 53.8001L133.476 54.224L130.796 56.9347L130.477 57.004Z" fill="#3D7195"/>
<path id="path1468" d="M131.828 57.5547C131.715 57.5133 131.635 57.404 131.635 57.276L131.613 53.4641C131.612 53.2974 131.745 53.164 131.911 53.1627C132.076 53.1614 132.211 53.2947 132.211 53.46L132.233 57.2734C132.233 57.4374 132.1 57.5734 131.935 57.5734L131.828 57.5547Z" fill="#3D7195"/>
</g>
</svg>
