<svg width="170" height="122" viewBox="0 0 170 122" fill="none" xmlns="http://www.w3.org/2000/svg">
<g id="Group 13">
<path id="path860" d="M169.727 121.485H0.945343L11.7584 106.295H158.913L169.727 121.485Z" fill="#FBC341"/>
<path id="path862" d="M168.428 119.661L32.786 117.242H41.5177C41.488 117.036 41.4265 116.844 41.3385 116.668L128.2 110.847L128.679 112.201L127.995 115.145C127.745 116.217 128.557 117.242 129.659 117.242H132.056C132.377 117.242 132.693 117.159 132.972 117.001C133.253 116.843 133.568 116.762 133.888 116.762C133.948 116.762 134.008 116.765 134.068 116.771L138.955 117.242H144.384C144.772 117.242 145.087 116.926 145.087 116.537V115.835H144.676C144.257 115.835 143.848 115.705 143.504 115.465C143.161 115.224 142.752 115.093 142.333 115.093H141.945C141.697 115.093 141.452 115.049 141.221 114.961L137.449 113.526C135.928 112.948 134.701 111.845 133.956 110.46L160.608 108.674L167.012 117.672L168.428 119.661Z" fill="#DC9632"/>
<path id="path864" d="M85.5297 50.1173L89.5849 37.86L95.0227 39.576L95.0453 40.44L96.524 41.4746L96.1413 41.732C95.492 42.1666 95.1107 42.9053 95.1307 43.6866L92.9745 50.756L85.5297 50.1173Z" fill="#F0724E"/>
<path id="path866" d="M95.1413 43.4094C95.1413 43.4094 95.1413 43.4094 95.14 43.4094C95.1773 43.0254 95.3107 42.6587 95.524 42.3454C95.3107 42.6587 95.1773 43.0254 95.1413 43.4094ZM95.5293 42.3374C95.5306 42.336 95.5307 42.3347 95.532 42.3334C95.5307 42.3347 95.5306 42.336 95.5293 42.3374Z" fill="#DEBAA1"/>
<path id="path868" d="M95.14 43.4094C94.3653 43.276 93.2719 42.9614 92.4203 42.2107L92.5417 41.472C93.0245 41.6947 93.5547 41.8147 94.0964 41.8134C94.2391 41.8134 94.3827 41.8054 94.5267 41.7894L95.2653 41.7027C95.6867 41.6534 96.1053 41.5787 96.5173 41.4787L96.1413 41.732C95.8987 41.8947 95.6933 42.1 95.532 42.3334C95.5307 42.3347 95.5307 42.336 95.5293 42.3374C95.528 42.34 95.5253 42.3427 95.524 42.3454C95.3107 42.6587 95.1773 43.0254 95.14 43.4094Z" fill="#D3583A"/>
<path id="path870" d="M91.5079 32.6693C92.5599 36.0987 90.9401 39.6373 87.8901 40.572C84.8407 41.508 81.5156 39.4853 80.4636 36.0573C79.412 32.6293 81.0317 29.0893 84.0812 28.1547C87.1317 27.22 90.4563 29.2413 91.5079 32.6693Z" fill="#682B22"/>
<path id="path872" d="M80.2093 37.92C79.0265 37.92 77.9197 37.2534 77.8625 37.2187L77.7803 36.8774L78.1224 36.7947C78.1369 36.8054 79.6588 37.7147 80.874 37.3254C81.4057 37.1534 81.8115 36.7494 82.0787 36.1187C82.1323 35.992 82.2787 35.932 82.4047 35.9867C82.5312 36.0414 82.5907 36.1881 82.5364 36.3134C82.2093 37.0841 81.7011 37.584 81.024 37.8014C80.7568 37.8867 80.4812 37.92 80.2093 37.92Z" fill="#682B22"/>
<path id="path874" d="M87.576 43.604L87.3427 43.4413C87.2959 43.312 87.362 43.1693 87.4912 43.1213C87.5079 43.116 89.1693 42.496 89.6224 41.3027C89.8208 40.7787 89.7557 40.2093 89.4312 39.608C89.3651 39.4853 89.4109 39.336 89.5312 39.2707C89.6527 39.2053 89.8036 39.2507 89.8688 39.3693C90.2661 40.1067 90.3401 40.816 90.0869 41.48C89.5516 42.8893 87.738 43.5613 87.6615 43.5893L87.576 43.604Z" fill="#682B22"/>
<path id="path876" d="M86.7213 43.4626C86.6005 43.4626 86.4943 43.3733 86.476 43.2506C86.4557 43.1146 86.55 42.9866 86.6855 42.968C86.7073 42.9653 88.8011 42.6413 89.3489 41.4786C89.5891 40.9706 89.4932 40.352 89.064 39.6386L89.1489 39.2973L89.4912 39.3813C90.0109 40.2466 90.1145 41.024 89.7989 41.6933C89.1355 43.096 86.8547 43.4466 86.7579 43.46L86.7213 43.4626Z" fill="#682B22"/>
<path id="path878" d="M95.2227 26.2294C96.8533 28.984 95.204 32.9733 91.5417 35.1413C87.8781 37.308 83.588 36.8334 81.9579 34.0787C80.3281 31.324 81.976 27.3333 85.6396 25.1667C89.3021 22.9987 93.5932 23.4747 95.2227 26.2294Z" fill="#682B22"/>
<path id="path880" d="M86.0219 25.972C82.6771 27.9507 81.0208 31.4467 81.9979 34.1373L81.9579 34.0787C80.3281 31.324 81.976 27.3333 85.6396 25.1667C89.3021 22.9987 93.5932 23.4747 95.2227 26.2293C95.364 26.4693 95.472 26.72 95.5653 26.9747C93.9084 24.276 89.6579 23.82 86.0219 25.972Z" fill="#B14B3C"/>
<path id="path882" d="M85.0511 31.24C85.8073 33.7067 84.5292 36.2867 82.1969 37.0027C79.8636 37.7187 77.3584 36.2987 76.6016 33.8307C75.8453 31.3627 77.1224 28.784 79.4557 28.068C81.7891 27.352 84.2937 28.772 85.0511 31.24Z" fill="#682B22"/>
<path id="path884" d="M84.7188 31.8227C83.9625 29.356 81.4573 27.936 79.1245 28.6507C78.1536 28.9494 77.3697 29.572 76.8349 30.372C77.3443 29.2934 78.2604 28.4347 79.4557 28.068C81.7891 27.352 84.2937 28.772 85.0511 31.24C85.4927 32.6814 85.2369 34.1574 84.486 35.2814C84.9708 34.2534 85.088 33.0267 84.7188 31.8227Z" fill="#B14B3C"/>
<path id="path886" d="M87.0631 35.8467C86.8609 35.8467 86.6708 35.7213 86.5959 35.5213C86.5016 35.2627 86.6328 34.976 86.8912 34.8813C90.2473 33.6453 92.2864 32.028 92.9511 30.072C93.6287 28.0827 92.5891 26.3973 92.5781 26.3787C92.4323 26.148 92.5011 25.8413 92.7323 25.6933C92.9651 25.5467 93.2703 25.6147 93.4183 25.8453C93.4713 25.928 94.724 27.928 93.9005 30.3747C93.1396 32.636 90.8964 34.4667 87.2349 35.8147L87.0631 35.8467Z" fill="#682B22"/>
<path id="path888" d="M89.4516 31.9667L89.3688 33.1694C89.3688 33.1694 89.1125 35.3907 86.8317 35.8494L85.6011 34.78L84.3907 33.8134L84.7188 32.6307L86.8151 31.6347L89.2593 32.0574L89.4516 31.9667Z" fill="#682B22"/>
<path id="path890" d="M90.8907 27.5027C90.8907 27.5027 94.2088 27.428 95.9293 31.096C96.0787 31.4107 96.304 31.6827 96.584 31.8867L98.7427 33.4587C98.888 33.5627 98.9667 33.736 98.9507 33.9134C98.936 34.0934 98.8253 34.252 98.6613 34.3307L98.276 34.5147L98.1707 34.636L98.1173 34.8054C98.08 34.928 98.1413 35.06 98.26 35.108L98.6307 35.26L98.5387 35.7187L98.7947 36.164L98.9653 36.4094C99.164 36.692 98.9907 36.9694 98.9747 37.316L99.696 38.3334C100.107 39.2067 99.716 40.248 98.832 40.6374L98.2467 40.8947C97.2987 41.3107 96.2933 41.5827 95.2653 41.7027L94.5267 41.7894C93.2645 41.936 92.0145 41.4267 91.2145 40.4387L90.2011 39.1867C87.5052 40.468 84.2921 38.9374 83.6344 36.0254C83.1844 34.036 83.2912 31.904 85.0047 30.4774C85.0047 30.4774 87.7921 27.812 90.8907 27.5027Z" fill="#F0724E"/>
<path id="path892" d="M98.9747 37.316C98.9747 37.316 97.8547 37.116 97.3667 36.504C97.6253 36.568 97.9253 36.584 98.168 36.584C98.4347 36.584 98.6333 36.5641 98.6333 36.5641C98.82 36.5574 98.9373 36.5267 99.0107 36.4854C99.0467 36.5614 99.06 36.6374 99.06 36.716C99.06 36.9 98.9853 37.0934 98.9747 37.316Z" fill="#D3583A"/>
<path id="path894" d="M97.0507 36.2987C97.2507 36.1627 97.8187 35.74 98.0827 35.1614C98.0827 35.1614 98.12 34.7547 98.552 34.8134C98.552 34.8134 98.896 35.0747 98.6653 35.6587C98.6653 35.6587 99.092 36.0227 99.1027 36.2374C99.1027 36.2374 99.26 36.544 98.6333 36.564C98.6333 36.564 97.5733 36.6707 97.0533 36.3907L97.0507 36.2987Z" fill="#B73C2B"/>
<path id="path896" d="M97.0853 34.9267C96.6187 34.9267 96.54 34.3027 96.54 34.3027L96.8133 34.3227C96.9453 34.2854 97.056 34.1907 97.1227 34.0694C97.3813 33.5947 97.7107 33.5267 97.8813 33.5267C97.9507 33.5267 97.9933 33.5374 97.9933 33.5374C98.1133 33.548 98.2133 33.552 98.2973 33.552C98.7053 33.552 98.7307 33.4507 98.7307 33.4507L98.7613 33.4747C98.884 33.5734 98.956 33.7227 98.9533 33.8814C98.9533 33.8814 98.9533 33.8827 98.9533 33.884C98.9533 33.8854 98.9533 33.8867 98.9533 33.888C98.952 33.8907 98.952 33.892 98.952 33.8934C98.952 33.8947 98.952 33.896 98.952 33.896C98.952 33.8987 98.952 33.9014 98.952 33.904C98.952 33.9067 98.952 33.9107 98.9507 33.9134C98.936 34.0934 98.8253 34.252 98.6613 34.3307L98.2973 34.504L98.276 34.5147C97.916 34.724 97.284 34.8934 97.284 34.8934C97.2107 34.916 97.1453 34.9267 97.0853 34.9267Z" fill="#D3583A"/>
<path id="path898" d="M95.4093 31.9533C95.1627 31.8493 94.904 31.868 94.66 31.9187C94.5387 31.9453 94.42 31.9827 94.3052 32.028L94.1369 32.1053L94.0531 32.1453L93.9792 32.1853C93.7792 32.2853 93.5724 32.3787 93.3667 32.452L93.062 32.5293L92.8073 32.4893L92.7907 32.476L92.676 32.4947L92.6787 32.5947L92.7568 32.6827L92.8563 32.7413L92.9604 32.7733L93.064 32.7867C93.1984 32.7947 93.3287 32.78 93.45 32.7507C93.6953 32.696 93.9208 32.6013 94.1375 32.4893L94.44 32.3293L94.7427 32.1933C94.9453 32.116 95.164 32.0507 95.38 32.0453L95.3907 32.044L95.4387 31.996L95.4093 31.9533Z" fill="#682B22"/>
<path id="path900" d="M94.74 32.5347C94.836 32.736 94.9933 32.86 95.0933 32.812C95.192 32.7653 95.1947 32.5653 95.1 32.364C95.0053 32.164 94.8467 32.04 94.748 32.0867C94.648 32.136 94.6453 32.336 94.74 32.5347Z" fill="#682B22"/>
<path id="path902" d="M95.3867 32.8121L95.4027 32.804L95.4187 32.7481L95.3627 32.7307C95.36 32.7321 95.2 32.8187 95.0573 32.7601C94.9653 32.7214 94.8973 32.6307 94.856 32.488L94.804 32.4601L94.776 32.5121C94.8253 32.6801 94.9093 32.7894 95.0267 32.8374C95.1773 32.9 95.3347 32.8374 95.3867 32.8121Z" fill="#682B22"/>
<path id="path904" d="M94.7453 30.28C94.6027 30.208 94.4773 30.2147 94.3547 30.244C94.2344 30.276 94.1161 30.3147 93.9984 30.356C93.7651 30.4374 93.5407 30.544 93.3251 30.664C93.1109 30.7854 92.9057 30.9227 92.7193 31.0814C92.5312 31.2387 92.3631 31.416 92.2136 31.6054L92.2208 31.664L92.2693 31.6667L92.2713 31.6654C92.4713 31.536 92.662 31.4067 92.8703 31.3054C93.0735 31.1974 93.2817 31.104 93.4953 31.028C93.7063 30.944 93.9245 30.8814 94.1421 30.8254L94.4707 30.756L94.776 30.596L94.7987 30.5734L94.7893 30.3094L94.7453 30.28Z" fill="#682B22"/>
<path id="path906" d="M98.224 34.0693C98.084 34.0707 97.9507 34.096 97.8227 34.1547C97.7 34.2093 97.572 34.3053 97.5 34.4133L97.2333 34.6L96.8987 34.56L96.8613 34.5747L96.8667 34.6067C96.96 34.7027 97.1093 34.7707 97.2627 34.7467C97.4187 34.7267 97.5413 34.6253 97.6267 34.5107L97.8747 34.2587L98.2213 34.1627H98.2253L98.2707 34.1147L98.224 34.0693Z" fill="#682B22"/>
<path id="path908" d="M93.0917 25.712C94.556 28.188 92.9177 31.864 89.4312 33.9267C85.9453 35.9893 81.9328 35.656 80.4688 33.1827C79.0046 30.7067 80.6432 27.0293 84.1297 24.9667C87.615 22.9053 91.6276 23.2387 93.0917 25.712Z" fill="#682B22"/>
<path id="path910" d="M92.9917 26.096C91.5297 23.6253 87.3901 23.3707 83.7448 25.528C82.7631 26.1093 81.9235 26.8067 81.2396 27.564C81.9511 26.584 82.9271 25.6787 84.1297 24.9667C87.6151 22.9053 91.6276 23.2387 93.0917 25.712C93.8427 26.98 93.7729 28.564 93.0625 30.084C93.6443 28.6707 93.6713 27.2453 92.9917 26.096Z" fill="#B14B3C"/>
<path id="path912" d="M90.2921 29.112C90.2921 29.112 90.9421 29.7347 89.9016 31.456C89.9016 31.456 89.5068 32.4107 90.0312 32.9094C90.0312 32.9094 91.6636 34.0294 90.986 34.9667C90.986 34.9667 90.5183 35.7827 89.9615 35.452C89.9615 35.452 88.6839 34.3614 87.7683 35.4374C87.7683 35.4374 86.7573 36.4947 88.1432 37.9907C88.1432 37.9907 88.8464 38.7854 89.8541 38.7067C89.8541 38.7067 91.5172 40.356 89.1473 42.3467C89.1473 42.3467 85.2297 43.4787 82.5661 38.4867C81.4604 36.4147 81.4719 33.8987 82.6817 31.884C83.3688 30.74 84.4864 29.5494 86.2901 28.5254C86.2901 28.5254 88.5369 27.172 89.7729 28.1387C89.7729 28.1387 90.1036 28.2587 90.2921 29.112Z" fill="#682B22"/>
<path id="path914" d="M90.5953 38.64C90.6693 38.7974 90.8557 38.864 91.0104 38.7894C91.1661 38.7147 91.2323 38.528 91.1584 38.3734C91.0849 38.2187 90.8984 38.152 90.7427 38.2254C90.588 38.3 90.5213 38.4854 90.5953 38.64Z" fill="#923C1D"/>
<path id="path916" d="M99.0213 78.7546C105.564 77.26 117.532 76.5066 124.244 76.5066C127.605 76.5066 130.431 79.028 130.809 82.368L133.201 108.055C133.483 110.529 135.121 112.64 137.449 113.526L141.221 114.961C141.452 115.049 141.697 115.093 141.945 115.093H142.333C142.752 115.093 143.161 115.224 143.504 115.465C143.848 115.705 144.257 115.835 144.676 115.835H145.087V116.537C145.087 116.926 144.772 117.242 144.384 117.242H138.955L134.068 116.771C133.688 116.735 133.305 116.813 132.972 117.001C132.693 117.159 132.377 117.242 132.056 117.242H129.659C128.557 117.242 127.745 116.217 127.995 115.145L128.679 112.201L123.589 97.7826C122.779 95.4864 122.635 88.3733 123.169 86L112.021 87.448C110.556 87.8093 109.137 88.3413 107.796 89.032C105.673 90.1266 103.367 90.817 100.993 91.0717L88.1219 92.4452L99.0213 78.7546Z" fill="#F0724E"/>
<path id="path918" d="M127.94 96.2785L131.037 103.981H132.739L130.809 82.368C130.431 79.028 127.605 76.5067 124.244 76.5067C117.532 76.5067 105.564 77.26 99.0213 78.7547L88.1219 92.4452L100.993 91.0717C103.367 90.8171 105.673 90.1267 107.796 89.032C109.137 88.3413 110.556 87.8093 112.021 87.448L123.169 86C122.635 88.3733 122.779 95.4864 123.589 97.7827L125.777 103.981H127.464L127.94 96.2785Z" fill="#223C50"/>
<path id="path920" d="M90.9855 92.14L96.236 91.5785V91.5802L90.9855 92.14Z" fill="#DEBAA1"/>
<path id="path922" d="M90.9855 92.14C91.0073 92.1239 91.0297 92.1093 91.0516 92.0931C93.6615 91.4973 95.8933 89.816 97.188 87.4733L100.173 82.0693C100.849 80.8453 101.387 79.5533 101.777 78.2173C106.844 77.3653 113.639 76.832 119.192 76.616L96.236 91.5802L90.9855 92.14Z" fill="#1D2F38"/>
<path id="path924" d="M84.4969 51.824L89.9473 69.6186C90.6151 71.8013 89.9 74.1693 88.136 75.616L86.4803 76.9746C82.7188 77.6973 79.6459 80.4053 78.4527 84.044L78.0417 85.2973L70.4969 90.1893C68.4197 91.5348 66.4541 93.0468 64.6203 94.7077L63.6255 95.6108H63.1115C58.9031 95.6108 48.3505 101.76 44.5927 103.655L35.6579 108.157L33.9391 107.709C32.2864 107.279 30.9349 108.323 30.9349 110.031V113.176C30.9349 114.393 31.6396 116.095 32.5005 116.957L32.786 117.242H41.5177C41.3828 116.31 40.586 115.621 39.6464 115.621H38.0016L36.0093 113.549V113.305C36.0093 112.56 36.5312 111.916 37.2609 111.76C44.15 110.3 57.5516 104.25 64.5864 103.953L65.0495 103.933C66.8989 103.855 68.7213 103.456 70.4349 102.755L74.5896 101.056C80.3896 98.6826 85.9104 95.6774 91.0516 92.093C93.6615 91.4973 95.8933 89.816 97.188 87.4733L100.173 82.0693C101.348 79.9426 102.104 77.612 102.4 75.2L103.684 64.7733C103.779 64.0053 103.752 63.2266 103.605 62.4666L103.124 59.9653L103.939 58.852C104.583 57.972 104.644 56.7933 104.095 55.8506C103.069 54.0946 101.661 52.592 99.9747 51.4573L91.7131 45.8946C91.0688 45.4613 90.2697 45.3253 89.5183 45.5226L87.7552 45.9826C85.2063 46.6493 83.7245 49.304 84.4969 51.824Z" fill="#F0724E"/>
<path id="path926" d="M89.9672 69.7094L89.9473 69.6187L88.736 65.664L89.9473 69.6187C89.9563 69.648 89.9651 69.6787 89.974 69.708L89.9672 69.7094Z" fill="#DEBAA1"/>
<path id="path928" d="M89.974 69.708C89.9651 69.6787 89.9563 69.648 89.9473 69.6187L88.736 65.664L103.539 62.1187L103.605 62.4667C103.695 62.9293 103.74 63.4 103.74 63.8707C103.74 64.172 103.721 64.4733 103.684 64.7733L103.493 66.3253L89.974 69.708Z" fill="#D3583A"/>
<path id="path930" d="M88.5885 75.2C88.4469 75.3467 88.2964 75.4853 88.136 75.616L86.4807 76.9747C82.7188 77.6973 79.6459 80.4053 78.4527 84.044L78.0417 85.2973L70.4969 90.1893C68.4197 91.5348 66.4552 93.0468 64.6203 94.7077L63.6255 95.6108H63.1115C58.9031 95.6108 48.3506 101.76 44.5927 103.655L42.1198 104.901L42.7391 106.407L51.0541 104.265L43.7307 108.819L44.4042 110.459C49.3729 108.691 59.9708 104.148 64.5869 103.953L65.0495 103.933C66.8989 103.855 68.7214 103.456 70.435 102.755L74.5891 101.056C80.3896 98.6827 85.9099 95.6775 91.0516 92.0931C93.6615 91.4973 95.8933 89.816 97.188 87.4733L100.173 82.0693C101.348 79.9427 102.104 77.612 102.4 75.2H88.5885Z" fill="#3D7195"/>
<path id="path932" d="M103.605 62.4667L103.124 59.9654L103.939 58.852C104.588 57.9627 104.636 56.7734 104.079 55.824C103.571 54.9587 102.971 54.156 102.289 53.428L100.849 52.76C98.9587 51.884 97.3253 50.5374 96.104 48.8507L92.3161 46.3014L95.7573 54.06C96.5907 55.9374 95.752 58.1374 93.8803 58.984L87.5645 61.84L89.7084 68.84L103.735 63.6227C103.723 63.2347 103.679 62.848 103.605 62.4667Z" fill="white"/>
<path id="path934" d="M103.605 62.4667L103.408 61.4387L89.1251 66.9347L89.7084 68.84L103.735 63.6227C103.723 63.2347 103.679 62.848 103.605 62.4667Z" fill="#3D7195"/>
<path id="path936" d="M92.4505 26.0254L91.4349 25.8587C90.0287 25.628 88.6896 26.588 88.4588 27.9947L84.9667 49.2733C84.7364 50.68 85.6979 52.0187 87.1041 52.2493L88.1197 52.416C89.526 52.6467 90.8651 51.6854 91.0964 50.2787L94.588 29.0013C94.8187 27.5947 93.8568 26.2547 92.4505 26.0254Z" fill="#F0724E"/>
<path id="path938" d="M92.8421 39.64L94.0047 32.5547L92.8421 39.64ZM94.0735 32.136L94.2937 30.7934L94.0735 32.136ZM94.3853 30.2373L94.508 29.488C94.5067 29.4947 94.5053 29.5014 94.504 29.5094L94.3853 30.2373Z" fill="#D3583A"/>
<path id="path940" d="M94.0047 32.5547L94.0735 32.136L94.0047 32.5547Z" fill="#59231C"/>
<path id="path942" d="M94.2937 30.7933L94.3853 30.2373L94.2937 30.7933Z" fill="#59231C"/>
<path id="path944" d="M88.1145 52.3734C87.9489 52.3734 87.7807 52.36 87.612 52.332C87.4672 52.308 87.3281 52.272 87.1912 52.2294C88.5948 52.1334 89.8099 51.0813 90.0469 49.6373L93.1516 30.7173C93.3875 30.54 93.5937 30.3307 93.7667 30.1C94.2979 29.4213 94.448 28.7187 94.4053 28.0907C94.5427 28.5307 94.584 29.0054 94.508 29.488L94.3853 30.2374L94.2937 30.7934L94.0735 32.136L94.0047 32.5547L92.8421 39.64L91.1797 49.7707C90.9307 51.288 89.6057 52.3734 88.1145 52.3734Z" fill="#D3583A"/>
<path id="path946" d="M88.4167 29.42L85.1099 13.072L84.9729 12.756L87.7708 11.5987L94.1568 27.048C94.8093 28.6267 94.0516 30.452 92.4735 31.104C90.8948 31.756 89.0693 31 88.4167 29.42Z" fill="#F0724E"/>
<path id="path948" d="M94.2109 27.1866C94.2104 27.1866 94.2099 27.1853 94.2099 27.1853C94.1932 27.14 94.1755 27.0933 94.1568 27.048C94.1755 27.0933 94.1937 27.14 94.2109 27.1866Z" fill="#59231C"/>
<path id="path950" d="M94.4053 28.0907C94.3987 28.0694 94.392 28.0467 94.384 28.0254C94.3667 27.744 94.3088 27.4614 94.2099 27.1854C94.2099 27.1854 94.2104 27.1867 94.2109 27.1867C94.3099 27.4587 94.384 27.7654 94.4053 28.0907Z" fill="#D3583A"/>
<path id="path952" d="M93.7667 30.1C94.2079 29.5093 94.4333 28.772 94.384 28.0253C94.392 28.0467 94.3987 28.0693 94.4053 28.0906C94.448 28.7186 94.2979 29.4213 93.7667 30.1Z" fill="#B8442B"/>
<path id="path954" d="M93.3453 30.5547L87.1948 13.1667C87.5912 12.8734 87.8224 12.4227 87.8224 11.964C87.8224 11.8454 87.8073 11.7267 87.7751 11.6094L94.1568 27.048C94.1755 27.0934 94.1932 27.14 94.2099 27.1854C94.3088 27.4614 94.3667 27.744 94.384 28.0254C94.4333 28.772 94.2079 29.5093 93.7667 30.1C93.6464 30.2533 93.5068 30.4054 93.3453 30.5547Z" fill="#D3583A"/>
<path id="path956" d="M84.913 12.7093L84.9062 12.712C84.1541 11.1067 82.5541 8.56801 82.1322 6.37601L82.065 0.498668C82.0604 0.140001 82.4797 -0.0813255 82.763 0.138675C84.1828 1.24267 85.677 6.65734 86.2478 8.00401L87.6718 11.36L87.7156 11.4373C88.0245 12.1667 87.6401 13.0267 86.8552 13.3613C86.0969 13.6827 85.2478 13.388 84.913 12.7093Z" fill="#F0724E"/>
<path id="path958" d="M86.2235 13.4907C85.7781 13.4907 85.3593 13.3013 85.086 12.9707C85.1677 12.9827 85.2511 12.9893 85.3355 12.9893C85.5437 12.9893 85.7579 12.9493 85.9645 12.86C86.7495 12.528 87.1344 11.668 86.8251 10.9387L86.7812 10.8613L85.3573 7.50533C84.8437 6.29466 83.5833 1.80266 82.3021 0.105326C82.3667 0.0719919 82.4385 0.0519886 82.5115 0.0519886C82.5973 0.0519886 82.6855 0.0786591 82.7631 0.138659C84.1828 1.24266 85.6771 6.65732 86.2479 8.00399L87.6719 11.36L87.7156 11.4373C87.788 11.608 87.8224 11.7867 87.8224 11.964C87.8224 12.4227 87.5912 12.8733 87.1948 13.1667C87.0921 13.2427 86.9787 13.308 86.8552 13.3613C86.6473 13.4493 86.4323 13.4907 86.2235 13.4907Z" fill="#D3583A"/>
<path id="path960" d="M102.255 76.1707L87.5959 76.06L86.9369 76.6L87.1891 76.7254L102.123 76.8387C102.169 76.6174 102.215 76.3947 102.255 76.1707Z" fill="#223C50"/>
<path id="path962" d="M48.0645 107.711L47.938 107.737C47.7688 107.735 47.6328 107.595 47.6355 107.425L47.6844 103.519C47.6869 103.349 47.826 103.213 47.9948 103.215C48.1645 103.217 48.3 103.357 48.2979 103.526L48.2495 107.433C48.2473 107.559 48.1719 107.664 48.0645 107.711Z" fill="#3D7195"/>
<path id="path964" d="M49.4531 107.156L49.1115 107.088L46.3828 104.292C46.2645 104.169 46.2672 103.974 46.388 103.857C46.5093 103.738 46.7036 103.743 46.8224 103.862L49.5511 106.66C49.6693 106.781 49.6667 106.976 49.5448 107.093L49.4531 107.156Z" fill="#3D7195"/>
<path id="path966" d="M46.5 108.529L46.374 108.556C46.2041 108.553 46.0683 108.415 46.0708 108.245L46.1197 104.337C46.1224 104.168 46.262 104.032 46.4303 104.033C46.6005 104.036 46.736 104.176 46.7339 104.345L46.6844 108.252C46.6828 108.377 46.6073 108.483 46.5 108.529Z" fill="#3D7195"/>
<path id="path968" d="M47.8885 107.974L47.5469 107.908L44.8177 105.109C44.7 104.988 44.7021 104.795 44.8235 104.676C44.9437 104.557 45.1396 104.56 45.2573 104.681L47.986 107.479C48.1041 107.6 48.1016 107.796 47.9807 107.913L47.8885 107.974Z" fill="#3D7195"/>
<path id="path970" d="M44.9511 109.204L44.8251 109.229C44.6557 109.226 44.5197 109.086 44.5224 108.919L44.5708 105.011C44.5735 104.841 44.7125 104.707 44.8812 104.708C45.0516 104.709 45.1869 104.849 45.1849 105.019L45.1355 108.925C45.1344 109.05 45.0588 109.157 44.9511 109.204Z" fill="#3D7195"/>
<path id="path972" d="M46.3401 108.648L45.9979 108.583L43.2688 105.784C43.1511 105.662 43.1531 105.469 43.2751 105.35C43.3953 105.232 43.5907 105.235 43.7084 105.356L46.4369 108.153C46.5552 108.274 46.5536 108.469 46.4317 108.586L46.3401 108.648Z" fill="#3D7195"/>
<path id="path974" d="M130.505 98.952L130.491 99.0801C130.437 99.24 130.261 99.3254 130.101 99.2706L126.4 98.017C126.24 97.9624 126.155 97.7878 126.208 97.628C126.263 97.4681 126.437 97.3812 126.597 97.4348L130.299 98.6905L130.505 98.952Z" fill="#223C50"/>
<path id="path976" d="M130.408 97.4597C130.419 97.5827 130.356 97.7051 130.237 97.7624L126.733 99.4931C126.581 99.5692 126.397 99.5067 126.323 99.3545C126.247 99.2025 126.309 99.0187 126.461 98.9441L129.967 97.2135C130.117 97.1384 130.303 97.1999 130.377 97.3536L130.408 97.4597Z" fill="#223C50"/>
<path id="path978" d="M130.801 100.693L130.787 100.82C130.732 100.98 130.557 101.068 130.397 101.013L126.696 99.7572C126.535 99.7025 126.449 99.528 126.504 99.3681C126.557 99.2077 126.732 99.1228 126.892 99.1775L130.593 100.431L130.801 100.693Z" fill="#223C50"/>
<path id="path980" d="M130.703 99.1999C130.715 99.3239 130.651 99.4468 130.532 99.5051L127.028 101.235C126.876 101.309 126.693 101.248 126.617 101.095C126.543 100.944 126.605 100.759 126.757 100.685L130.261 98.9545C130.413 98.8801 130.597 98.9411 130.672 99.0931L130.703 99.1999Z" fill="#223C50"/>
<path id="path982" d="M130.963 102.373L130.948 102.501C130.893 102.662 130.72 102.749 130.559 102.695L126.859 101.438C126.697 101.384 126.612 101.211 126.665 101.049C126.72 100.889 126.895 100.804 127.055 100.859L130.756 102.112L130.963 102.373Z" fill="#223C50"/>
<path id="path984" d="M130.864 100.881C130.876 101.005 130.812 101.128 130.695 101.187L127.191 102.916C127.039 102.991 126.855 102.928 126.779 102.777C126.704 102.625 126.767 102.441 126.919 102.365L130.423 100.636C130.576 100.561 130.759 100.624 130.835 100.774L130.864 100.881Z" fill="#223C50"/>
</g>
</svg>
