<svg width="169" height="96" viewBox="0 0 169 96" fill="none" xmlns="http://www.w3.org/2000/svg">
<g id="Group 11">
<path id="path1942" d="M168.772 95.3627H-0.0093689L10.804 80.172H157.96L168.772 95.3627Z" fill="#FBC341"/>
<path id="path1944" d="M167.305 93.3027L160.196 83.3134L167.305 93.3027Z" fill="#DEBAA1"/>
<path id="path1946" d="M167.305 93.3027L46.2067 88.5427C46.7547 88.372 47.1666 87.92 47.296 87.372L123.371 84.6373L123.557 84.7293C123.975 84.9347 124.207 85.3894 124.131 85.8494L123.699 88.4293H134.005V86.5267L131.067 84.3613L160.196 83.3134L167.305 93.3027ZM42.62 88.4013L40.1653 88.3053L41.564 88.1707C41.62 88.1653 41.6746 88.1627 41.7306 88.1627C42.0333 88.1627 42.332 88.24 42.5973 88.3894C42.6053 88.3934 42.6133 88.3973 42.62 88.4013Z" fill="#DC9632"/>
<path id="path1948" d="M82.756 26.128L82.1373 12.3613L77.1093 12.568L76.8893 15.688L75.3907 16.2293L75.656 16.5347C76.1093 17.056 76.264 17.772 76.0653 18.4333L76.268 24.9533L82.756 26.128Z" fill="#F0724E"/>
<path id="path1950" d="M76.7773 18.224C76.88 18.192 76.9827 18.1587 77.0853 18.124L77.704 17.9107C78.764 17.5427 79.5627 16.6587 79.82 15.568L80.1453 14.184C80.1493 14.184 80.1533 14.184 80.156 14.184C80.1493 14.5107 80.22 14.9467 80.5427 15.3547C80.532 15.4627 80.5213 15.5414 80.5093 15.5814C79.8453 17.7627 78.0773 18.2107 76.7773 18.224Z" fill="#D3583A"/>
<path id="path1952" d="M76.6106 9.50402C77.088 12.6334 79.7306 14.824 82.5133 14.4C85.2973 13.976 87.1653 11.0947 86.688 7.96668C86.2093 4.83735 83.5666 2.64536 80.7839 3.07069C78.0013 3.49469 76.1333 6.37602 76.6106 9.50402Z" fill="#682B22"/>
<path id="path1954" d="M86.6306 9.61603C86.1026 9.61603 85.5946 9.40537 85.1186 8.98537L85.096 8.63602L85.4467 8.61203C85.8947 9.00536 86.3653 9.16935 86.8427 9.10268C87.9467 8.95068 88.7987 7.65335 88.8067 7.63869L89.1506 7.56668L89.2253 7.91069C89.1853 7.97202 88.244 9.41068 86.9147 9.59468L86.6306 9.61603Z" fill="#682B22"/>
<path id="path1956" d="M83.4827 16.7547C82.9107 16.7547 81.8053 16.6587 81.0933 15.984C80.6333 15.5467 80.416 14.948 80.4506 14.2013C80.4573 14.0653 80.5773 13.9427 80.7107 13.9653C80.848 13.972 80.9547 14.0867 80.948 14.2253C80.92 14.82 81.084 15.2907 81.436 15.624C82.1333 16.284 83.3707 16.2667 83.7133 16.2507C83.7707 16.2467 83.8027 16.244 83.804 16.2454C83.9547 16.224 84.0627 16.3307 84.0773 16.468C84.0907 16.604 83.9906 16.7254 83.8546 16.74C83.836 16.7414 83.6947 16.7547 83.4827 16.7547Z" fill="#682B22"/>
<path id="path1958" d="M83.016 16.516C82.4587 16.516 81.8573 16.408 81.408 16.0453C80.892 15.628 80.672 14.9613 80.756 14.064C80.768 13.9266 80.8853 13.824 81.028 13.8386C81.1627 13.852 81.264 13.972 81.252 14.1093C81.1853 14.8307 81.3426 15.352 81.72 15.6573C82.5893 16.3613 84.3627 15.82 84.38 15.8147C84.5133 15.776 84.6507 15.848 84.692 15.9773C84.7333 16.1093 84.66 16.248 84.528 16.2906C84.48 16.3066 83.7933 16.516 83.016 16.516Z" fill="#682B22"/>
<path id="path1960" d="M71.1906 5.808C70.9493 8.62266 73.7893 11.1627 77.5306 11.4813C81.2733 11.8027 84.5013 9.77999 84.7413 6.96532C84.9813 4.15066 82.1426 1.61065 78.4013 1.29198C74.6587 0.97065 71.4306 2.99333 71.1906 5.808Z" fill="#682B22"/>
<path id="path1962" d="M78.4053 2.0787C81.8213 2.36937 84.4773 4.51468 84.732 7.02802L84.7413 6.96535C84.9813 4.15069 82.1426 1.61068 78.4013 1.29201C74.6586 0.972014 71.4306 2.99336 71.1906 5.80803C71.1693 6.05203 71.18 6.29469 71.204 6.53202C71.4866 3.75069 74.692 1.76003 78.4053 2.0787Z" fill="#B14B3C"/>
<path id="path1964" d="M81.1947 5.89333C81.5387 8.144 83.5427 9.70668 85.672 9.38135C87.8014 9.05602 89.2494 6.96802 88.9054 4.71735C88.5614 2.46669 86.556 0.903999 84.4267 1.22933C82.2987 1.55467 80.852 3.64133 81.1947 5.89333Z" fill="#682B22"/>
<path id="path1966" d="M81.6827 6.23069C81.3387 3.97869 82.7867 1.8907 84.916 1.5667C85.8014 1.4307 86.6627 1.62669 87.3947 2.05735C86.576 1.39335 85.5187 1.06269 84.4267 1.22936C82.2987 1.55469 80.852 3.64136 81.1947 5.89336C81.396 7.20802 82.1653 8.28402 83.1933 8.89069C82.4147 8.25869 81.8507 7.32803 81.6827 6.23069Z" fill="#B14B3C"/>
<path id="path1968" d="M79.4653 10.516C76.912 10.516 75.0067 9.88665 73.788 8.63731C72.1773 6.98798 72.4093 4.89332 72.42 4.80532C72.4533 4.53065 72.7093 4.34398 72.972 4.36931C73.2453 4.40398 73.44 4.64933 73.4093 4.92133C73.4067 4.93866 73.2293 6.652 74.5107 7.95333C75.7747 9.23866 77.9987 9.73598 81.1227 9.43598C81.3933 9.41598 81.6387 9.60933 81.6653 9.88266C81.692 10.1573 81.492 10.4 81.2173 10.4253C80.6027 10.4853 80.02 10.516 79.4653 10.516Z" fill="#682B22"/>
<path id="path1970" d="M77.9747 8.1573L78.5027 9.08266C78.5027 9.08266 79.5573 10.7493 81.5453 10.2413L82.1147 8.91866L82.7067 7.688L81.992 6.87198L79.944 6.88266L78.1627 8.156L77.9747 8.1573Z" fill="#682B22"/>
<path id="path1972" d="M75.1213 5.15999C75.1213 5.15999 72.456 6.37201 72.4933 9.94802C72.4947 10.2547 72.4187 10.556 72.2747 10.8267L71.1613 12.9027C71.0867 13.0413 71.0893 13.208 71.1707 13.344C71.252 13.4813 71.4 13.5667 71.56 13.5653L71.9373 13.564L72.068 13.62L72.1747 13.7347L72.1774 14.0293L71.9414 14.2933L72.1907 14.6227L72.1573 15.0747L72.1147 15.3333C72.0654 15.636 72.3093 15.7893 72.4547 16.0587L72.2707 17.1427C72.28 17.9947 72.9894 18.6733 73.8414 18.6427L74.4053 18.624C75.3173 18.5907 76.2213 18.4227 77.0853 18.124L77.704 17.9107C78.764 17.5427 79.5627 16.6587 79.82 15.568L80.1454 14.184C82.78 14.1694 84.748 11.7227 84.1547 9.15602C83.7493 7.40136 82.8493 5.74667 80.94 5.27067C80.94 5.27067 77.7027 4.21866 75.1213 5.15999Z" fill="#F0724E"/>
<path id="path1974" d="M72.4546 16.0587C72.3226 15.8133 72.108 15.664 72.108 15.412C72.116 15.412 72.124 15.412 72.132 15.412C72.204 15.412 72.3026 15.3907 72.4386 15.3307C72.4386 15.3307 73.04 15.1107 73.4213 14.7973C73.2693 15.4693 72.4546 16.0587 72.4546 16.0587Z" fill="#D3583A"/>
<path id="path1976" d="M73.5946 14.512C73.384 14.48 72.7693 14.3613 72.34 14.004C72.34 14.004 72.1533 13.696 71.832 13.908C71.832 13.908 71.6587 14.248 72.0667 14.6227C72.0667 14.6227 71.8653 15.076 71.94 15.2494C71.94 15.2494 71.932 15.5533 72.4387 15.3307C72.4387 15.3307 73.3213 15.008 73.628 14.5854L73.5946 14.512Z" fill="#B73C2B"/>
<path id="path1978" d="M72.0733 13.568C72.0253 13.568 71.98 13.5667 71.9373 13.564H71.916L71.56 13.5653C71.5586 13.5653 71.5573 13.5653 71.556 13.5653C71.3973 13.5653 71.2507 13.48 71.1707 13.344C71.0933 13.2147 71.0893 13.0573 71.1533 12.9227L71.168 12.892C71.168 12.892 71.1813 12.908 71.2306 12.908C71.3066 12.908 71.4653 12.8707 71.788 12.68C71.788 12.68 71.9173 12.568 72.1413 12.568C72.2867 12.568 72.4693 12.6133 72.684 12.7667L73.0266 12.8507L73.236 12.7307C73.236 12.7307 73.4613 13.3987 72.8707 13.484C72.8707 13.484 72.428 13.568 72.0733 13.568Z" fill="#D3583A"/>
<path id="path1980" d="M73.236 10.428C73.3906 10.252 73.604 10.168 73.816 10.1147L74.1413 10.0667L74.3053 10.0627H74.3866L74.46 10.0654C74.6573 10.0694 74.8587 10.064 75.0493 10.0427L75.3213 9.98672L75.508 9.86002L75.5173 9.84271L75.6147 9.81204L75.6506 9.89336L75.6226 9.99336L75.5666 10.0787L75.4946 10.1427L75.4186 10.1947L75.0973 10.3134C74.8813 10.3627 74.6666 10.3734 74.452 10.368L74.1493 10.3574L73.8586 10.3654C73.6653 10.3814 73.468 10.4134 73.2933 10.4907L73.284 10.4947L73.228 10.4734L73.236 10.428Z" fill="#682B22"/>
<path id="path1982" d="M73.9893 10.6373C73.9906 10.832 73.9133 10.9907 73.8146 10.9907C73.7186 10.992 73.6386 10.8333 73.6386 10.6387C73.6373 10.4427 73.7146 10.284 73.812 10.2827C73.9093 10.2827 73.9879 10.44 73.9893 10.6373Z" fill="#682B22"/>
<path id="path1984" d="M73.5827 11.104L73.5653 11.1027L73.5307 11.064L73.5707 11.0293L73.8227 10.936C73.8813 10.8693 73.9014 10.772 73.8787 10.6427L73.9107 10.6L73.952 10.6307C73.9773 10.7827 73.9533 10.9027 73.8773 10.9854L73.5827 11.104Z" fill="#682B22"/>
<path id="path1986" d="M73.1213 8.84404L73.4173 8.6667L73.744 8.62005C73.9613 8.59338 74.1813 8.59337 74.3973 8.60537C74.6147 8.62004 74.8293 8.6507 75.0387 8.70537C75.2493 8.75737 75.4507 8.83603 75.6413 8.92803L75.6586 8.97737L75.6213 8.9987H75.6186C75.4106 8.97203 75.2093 8.94271 75.0053 8.94271C74.8027 8.93471 74.6 8.94003 74.4013 8.96136C74.2013 8.97469 74.004 9.00804 73.8093 9.04804L73.524 9.11872L73.2173 9.10937L73.192 9.0987L73.0973 8.88538L73.1213 8.84404Z" fill="#682B22"/>
<path id="path1988" d="M71.808 13.1907C71.92 13.1373 72.036 13.1067 72.1587 13.104L72.516 13.1854L72.8 13.232L73.048 13.072L73.0853 13.0693L73.0933 13.0973C73.056 13.208 72.964 13.32 72.8307 13.3613C72.6987 13.404 72.564 13.3693 72.452 13.3107L72.1573 13.2067L71.8467 13.2627L71.8427 13.2653L71.788 13.244L71.808 13.1907Z" fill="#682B22"/>
<path id="path1990" d="M72.6866 4.58135C72.4693 7.10935 75.1827 9.40534 78.744 9.70801C82.304 10.0133 85.3653 8.20935 85.5813 5.68268C85.7987 3.15468 83.0853 0.860021 79.5253 0.554687C75.964 0.250687 72.9026 2.05335 72.6866 4.58135Z" fill="#682B22"/>
<path id="path1992" d="M72.9133 4.84802C73.128 2.32402 76.3213 0.534693 80.0453 0.854693C81.048 0.938693 81.984 1.17335 82.816 1.51202C81.876 1.00535 80.752 0.660027 79.5253 0.554693C75.964 0.250693 72.9026 2.05335 72.6866 4.58135C72.576 5.87602 73.2373 7.10802 74.384 8.04535C73.38 7.14402 72.812 6.02135 72.9133 4.84802Z" fill="#B14B3C"/>
<path id="path1994" d="M76.2133 6.21068C76.2133 6.21068 75.936 6.95332 77.4213 7.92399C77.4213 7.92399 78.1013 8.53066 77.876 9.12799C77.876 9.12799 77.008 10.6453 77.9053 11.1307C77.9053 11.1307 78.5893 11.5987 78.9053 11.124C78.9053 11.124 79.504 9.76534 80.6427 10.2707C80.6427 10.2707 81.8533 10.7253 81.3227 12.4453C81.3227 12.4453 81.0693 13.3453 80.2373 13.6693C80.2373 13.6693 79.5467 15.6173 82.1933 16.292C82.1933 16.292 85.7427 15.692 85.9467 10.7027C86.0307 8.632 85.0587 6.63733 83.3253 5.49866C82.3413 4.852 80.996 4.33334 79.1707 4.21068C79.1707 4.21068 76.8653 3.99601 76.2533 5.23867C76.2533 5.23867 76.036 5.46001 76.2133 6.21068Z" fill="#682B22"/>
<path id="path1996" d="M79.6866 13.552C79.652 13.552 79.6186 13.544 79.5866 13.528L79.4947 13.4827L79.588 13.2853C79.9067 12.5 79.7867 11.7093 79.336 11.4387C79.4293 11.2747 79.744 10.784 80.1693 10.784C80.2293 10.784 80.292 10.7947 80.3573 10.816C80.3573 10.816 81.692 11.3613 80.4907 12.8906C80.4907 12.8906 80.0226 13.552 79.6866 13.552Z" fill="#BE462D"/>
<path id="path1998" d="M79.624 13.9013C79.624 14.0533 79.5013 14.1773 79.3506 14.1787C79.1973 14.1787 79.0747 14.056 79.0747 13.9053C79.0733 13.752 79.1947 13.6293 79.348 13.628C79.4987 13.628 79.6226 13.7507 79.624 13.9013Z" fill="#923C1D"/>
<path id="path2000" d="M89.1213 49.2827L87.14 47.4147L86.972 45.6747C86.6413 42.24 87.1893 38.78 88.5653 35.5973C89.6773 33.0253 90.2494 30.2627 90.2494 27.472V24.0573C90.2494 23.3413 89.76 22.7187 89.064 22.5493L84.396 21.4187H76.5893L70.62 22.1174C69.9907 22.1907 69.516 22.724 69.516 23.3573V31.58L67.8467 35.588C67.3734 36.7214 68.0373 37.9973 69.2573 38.3053C69.8413 38.4507 70.248 38.9613 70.248 39.544V43.276C70.248 45.2987 70.1827 44.9627 70.044 47.3854L89.1213 49.2827Z" fill="#F0724E"/>
<path id="path2002" d="M87.0787 40.9467C87.0747 40.9467 87.072 40.9467 87.0693 40.9467C87.2467 39.6547 87.548 38.38 87.9707 37.1386L87.976 37.144C87.5547 38.384 87.2547 39.656 87.0787 40.9467ZM69.2427 38.3013C69.24 38.3 69.2373 38.3 69.2347 38.2986C69.2373 38.2986 69.24 38.3 69.2427 38.3013ZM69.2267 38.2973C69.224 38.296 69.2213 38.2946 69.2173 38.2946C69.2213 38.2946 69.224 38.296 69.2267 38.2973ZM69.212 38.292C69.208 38.292 69.2053 38.2907 69.2013 38.2893C69.2053 38.2907 69.208 38.292 69.212 38.292ZM69.1987 38.2893C69.1853 38.2853 69.1733 38.2813 69.1613 38.2773C69.1733 38.2813 69.1853 38.2853 69.1987 38.2893ZM69.1587 38.2773C69.1547 38.276 69.1507 38.2746 69.1467 38.2733C69.1507 38.2746 69.1547 38.276 69.1587 38.2773ZM69.1427 38.272C69.14 38.2706 69.136 38.2706 69.132 38.2693C69.136 38.2706 69.14 38.2706 69.1427 38.272ZM69.128 38.268C69.124 38.2666 69.1213 38.2653 69.1173 38.264C69.1213 38.2653 69.124 38.2666 69.128 38.268ZM69.116 38.264C69.1093 38.2613 69.104 38.26 69.0973 38.2573C69.104 38.26 69.1093 38.2613 69.116 38.264ZM69.088 38.2547C69.0866 38.2533 69.084 38.2533 69.0827 38.252C69.084 38.2533 69.0866 38.2533 69.088 38.2547ZM69.072 38.2493C69.0707 38.248 69.0693 38.248 69.068 38.248C69.0693 38.248 69.0707 38.248 69.072 38.2493Z" fill="#DEBAA1"/>
<path id="path2004" d="M87.0693 40.9467C82.176 40.9467 74.316 40.9467 70.248 40.9467V39.544L87.3266 39.472C87.4946 38.684 87.7093 37.904 87.9706 37.1373V37.1386C87.548 38.38 87.2466 39.6547 87.0693 40.9467Z" fill="#D3583A"/>
<path id="path2006" d="M74.6373 52.296C68.464 50.884 57.168 50.172 50.8346 50.172C47.6626 50.172 44.996 52.552 44.6373 55.704L42.3813 79.9467C42.116 82.2814 40.5693 84.2734 38.3706 85.1094L34.8133 86.464C34.5947 86.5467 34.3626 86.5894 34.1293 86.5894H33.7626C33.3666 86.5894 32.9813 86.7107 32.6573 86.9387C32.3333 87.1667 31.948 87.288 31.552 87.288H31.164V87.952C31.164 88.3187 31.4613 88.616 31.828 88.616H36.952L41.564 88.1707C41.9213 88.1373 42.2826 88.212 42.5973 88.3894C42.86 88.5374 43.1586 88.616 43.4613 88.616H45.7253C46.7626 88.616 47.5306 87.648 47.296 86.6373L46.6493 83.86L51.4533 70.2507C52.2173 68.0854 52.3547 61.3707 51.8493 59.132L62.3693 60.4987C63.752 60.84 65.0906 61.3413 66.3573 61.9933C68.3613 63.0267 70.5373 63.6787 72.7787 63.9187L84.924 65.2147L74.6373 52.296Z" fill="#D4533A"/>
<path id="path2008" d="M47.3467 68.832L44.424 76.1013H42.8173L44.6373 55.704C44.996 52.552 47.6626 50.172 50.8346 50.172C57.168 50.172 68.464 50.884 74.6373 52.296L84.924 65.2147L72.7787 63.9187C70.5373 63.6787 68.3613 63.0266 66.3573 61.9933C65.0906 61.3413 63.752 60.84 62.3693 60.4986L51.8493 59.132C52.3547 61.3707 52.2173 68.0853 51.4533 70.2507L49.388 76.1013H47.7973L47.3467 68.832Z" fill="#223C50"/>
<path id="path2010" d="M84.1827 65.136L77.2667 64.3973L55.6027 50.276C60.2947 50.4573 65.9253 50.8813 70.484 51.5453C70.6133 52.012 70.7706 52.4707 70.9533 52.9213C73.3226 58.7493 75.488 63.824 81.636 64.5547C82.3187 64.636 82.8347 64.6493 83.1053 64.6493C83.2427 64.6493 83.3173 64.6453 83.3173 64.6453L84.1827 65.136Z" fill="#1D2F38"/>
<path id="path2012" d="M44.9253 71.3547L44.9387 71.4747C44.9907 71.6267 45.1547 71.708 45.3067 71.656L48.8 70.472C48.9507 70.42 49.0307 70.256 48.98 70.1054C48.9293 69.9534 48.7653 69.872 48.6133 69.9227L45.1213 71.108L44.9253 71.3547Z" fill="#223C50"/>
<path id="path2014" d="M45.0186 69.9467L45.1786 70.2333L48.4853 71.8653C48.6293 71.9373 48.8026 71.8787 48.8733 71.7347C48.944 71.592 48.8853 71.4174 48.7426 71.348L45.4346 69.7147C45.292 69.6427 45.1173 69.7014 45.0466 69.8467L45.0186 69.9467Z" fill="#223C50"/>
<path id="path2016" d="M44.6467 72.9974L44.66 73.1187C44.712 73.2694 44.876 73.352 45.028 73.3L48.5213 72.116C48.672 72.064 48.752 71.9 48.7013 71.7494C48.6507 71.596 48.4853 71.516 48.3347 71.5667L44.8427 72.7507L44.6467 72.9974Z" fill="#223C50"/>
<path id="path2018" d="M44.74 71.5894L44.9 71.876L48.2067 73.5094C48.3507 73.5814 48.524 73.5227 48.5946 73.3774C48.6653 73.236 48.6066 73.0613 48.464 72.9907L45.156 71.3587C45.0133 71.2867 44.8387 71.3454 44.768 71.4894L44.74 71.5894Z" fill="#223C50"/>
<path id="path2020" d="M44.4933 74.584L44.508 74.704C44.5587 74.8573 44.724 74.9373 44.8747 74.8867L48.368 73.7013C48.52 73.6507 48.6 73.4867 48.5493 73.3347C48.4987 73.184 48.3333 73.1027 48.1827 73.1533L44.6893 74.3373L44.4933 74.584Z" fill="#223C50"/>
<path id="path2022" d="M44.5867 73.176L44.748 73.464L48.0547 75.096C48.1973 75.1667 48.3707 75.108 48.4414 74.9653C48.5134 74.8213 48.4547 74.6467 48.3094 74.5773L45.004 72.944C44.86 72.8733 44.6867 72.932 44.616 73.076L44.5867 73.176Z" fill="#223C50"/>
<path id="path2024" d="M86.308 43.8227C86.1747 43.8227 86.8147 44.088 86.8147 44.2213V46.4507C86.8147 46.888 87.0533 47.2893 87.4373 47.4987C89.32 48.5267 90.9026 50.0293 92.024 51.86L93.596 54.4267C94.0027 55.0907 94.472 55.7147 94.996 56.2907L106.687 69.0973C110.464 70.0413 114.019 71.724 117.141 74.048L126.825 81.2493L126.833 81.2413L134.005 86.5267V88.4293H123.699L124.131 85.8493C124.207 85.3893 123.975 84.9347 123.557 84.7293L110.052 78.0787C108.789 77.4573 107.44 77.0427 106.067 76.7293C104.515 76.3747 103.021 75.796 101.633 75.012L83.3173 64.6453C83.3173 64.6453 82.6653 64.6773 81.636 64.5547C75.488 63.824 73.3226 58.7493 70.9533 52.9213C70.2466 51.1813 69.9333 49.304 70.0413 47.428L70.24 43.9773L86.308 43.8227Z" fill="#F0724E"/>
<path id="path2026" d="M120.14 83.0467L118.069 82.0267L120.14 83.0467Z" fill="#DC9632"/>
<path id="path2028" d="M122.827 78.276L120.083 76.236H120.084L122.827 78.276Z" fill="#DEBAA1"/>
<path id="path2030" d="M120.14 83.0467L118.069 82.0267L114.981 80.5067C115.609 79.616 116.061 78.992 116.061 78.992L120.084 76.236L122.827 78.276L120.14 83.0467Z" fill="#D3583A"/>
<path id="path2032" d="M70.044 47.3853H87.284L87.4373 47.4987C89.32 48.5267 90.9027 50.0293 92.024 51.86L93.596 54.4266C94.0027 55.0906 94.472 55.7146 94.996 56.2906L106.687 69.0973C110.464 70.0413 114.019 71.724 117.141 74.048L121.867 77.5627L118.593 82.2853L110.053 78.08C108.789 77.4573 107.44 77.0427 106.067 76.7293C104.515 76.3747 103.021 75.796 101.635 75.012L83.3173 64.6453C83.3173 64.6453 82.6653 64.6773 81.6373 64.5547C75.3307 63.8053 73.8827 59.972 70.9827 52.9427C70.2573 51.1867 69.9347 49.284 70.044 47.3853Z" fill="#3D7195"/>
<path id="path2034" d="M89.1333 48.6414H69.972L70.0186 47.8187H87.9427C88.3573 48.072 88.7533 48.344 89.1333 48.6414Z" fill="#223C50"/>
<path id="path2036" d="M49.1653 24.7707L49.2213 23.8347C49.2986 22.5387 50.4213 21.5427 51.7173 21.6213L71.32 22.7933C72.6146 22.8707 73.612 23.9933 73.5333 25.2893L73.4773 26.2253C73.4013 27.5213 72.2773 28.5173 70.9813 28.44L51.3787 27.2667C50.0827 27.1907 49.0866 26.0667 49.1653 24.7707Z" fill="#F0724E"/>
<path id="path2038" d="M60.5373 27.8147L51.848 27.296C51.8294 27.2946 51.8107 27.2933 51.7933 27.292L60.5373 27.8147Z" fill="#DEBAA1"/>
<path id="path2040" d="M69.516 28.352L60.5374 27.8147L51.7933 27.292C51.6173 27.2773 51.4454 27.248 51.28 27.2027C51.328 27.2053 51.376 27.2067 51.424 27.2067C51.976 27.2067 52.58 27.0387 53.148 26.556C53.2294 26.4907 53.3054 26.4213 53.3787 26.3467L69.516 27.3133V28.352Z" fill="#D3583A"/>
<path id="path2042" d="M52.32 21.6987L37.3027 19.404L37.0107 19.292L36.0813 21.888L50.412 27.0253C51.876 27.5493 53.504 26.7814 54.028 25.316C54.5533 23.852 53.784 22.2253 52.32 21.6987Z" fill="#F0724E"/>
<path id="path2044" d="M50.6133 27.0894C50.544 27.0694 50.476 27.048 50.412 27.0253L36.092 21.892L50.412 27.0253C50.476 27.048 50.5413 27.068 50.6053 27.0867C50.608 27.088 50.6107 27.0894 50.6133 27.0894Z" fill="#DEBAA1"/>
<path id="path2046" d="M51.28 27.2027C51.044 27.1907 50.82 27.1494 50.6134 27.0894C50.6107 27.0894 50.608 27.088 50.6053 27.0867C50.8107 27.144 51.0173 27.176 51.2227 27.1867C51.2413 27.192 51.2614 27.1974 51.28 27.2027Z" fill="#D3583A"/>
<path id="path2048" d="M51.424 27.2067C51.376 27.2067 51.328 27.2053 51.28 27.2027C51.2613 27.1973 51.2413 27.192 51.2227 27.1867C51.268 27.1893 51.3133 27.1893 51.36 27.1893C52.0133 27.1893 52.6467 26.9613 53.148 26.556C52.58 27.0387 51.976 27.2067 51.424 27.2067Z" fill="#B8442B"/>
<path id="path2050" d="M51.36 27.1893C51.3133 27.1893 51.268 27.1893 51.2226 27.1867C51.0173 27.176 50.8107 27.144 50.6053 27.0867C50.5413 27.068 50.476 27.048 50.412 27.0253L36.092 21.892C36.1786 21.9106 36.2666 21.92 36.3533 21.92C36.792 21.92 37.2187 21.6866 37.48 21.296L53.5653 26.1346C53.4293 26.296 53.2893 26.436 53.148 26.556C52.6467 26.9613 52.0133 27.1893 51.36 27.1893Z" fill="#D3583A"/>
<path id="path2052" d="M36.9653 19.24L36.968 19.2333C35.4733 18.62 33.0946 17.2734 31.084 16.9854L25.7347 17.18C25.408 17.192 25.2253 17.5827 25.4373 17.8307C26.5027 19.0747 31.4933 20.1973 32.744 20.6587L35.8573 21.808L35.9307 21.8454C36.6067 22.0934 37.3733 21.7067 37.6413 20.9774C37.9013 20.2747 37.5973 19.5147 36.9653 19.24Z" fill="#F0724E"/>
<path id="path2054" d="M36.092 21.892C36.0387 21.88 35.984 21.8653 35.9307 21.8453L35.8573 21.808L32.744 20.6586C31.4933 20.1973 26.5027 19.0746 25.4373 17.8306C25.38 17.764 25.3507 17.6867 25.3467 17.608C25.352 17.6867 25.38 17.764 25.4373 17.8306C26.5027 19.0746 31.4933 20.1973 32.744 20.6586L35.8573 21.808L35.9307 21.8453C35.984 21.8653 36.0387 21.88 36.092 21.892Z" fill="#DEBAA1"/>
<path id="path2056" d="M37.6467 20.9653C37.6467 20.964 37.6467 20.964 37.648 20.9627C37.6467 20.964 37.6467 20.964 37.6467 20.9653ZM37.652 20.9507C37.652 20.9494 37.652 20.948 37.6533 20.9467C37.652 20.948 37.652 20.9494 37.652 20.9507ZM37.656 20.936C37.6573 20.9347 37.6573 20.9333 37.6573 20.932C37.6573 20.9333 37.6573 20.9347 37.656 20.936ZM37.66 20.924C37.6613 20.9227 37.6613 20.9214 37.6627 20.9187C37.6613 20.9214 37.6613 20.9227 37.66 20.924ZM37.6653 20.9093C37.6653 20.908 37.6667 20.9067 37.6667 20.9053C37.6667 20.9067 37.6653 20.908 37.6653 20.9093ZM37.6707 20.8947C37.6707 20.8933 37.6707 20.892 37.6707 20.8907C37.6707 20.892 37.6707 20.8933 37.6707 20.8947ZM37.6747 20.8787V20.8773V20.8787ZM37.6787 20.8653V20.864V20.8653ZM37.6827 20.8507V20.8493V20.8507Z" fill="#D3583A"/>
<path id="path2058" d="M36.3533 21.92C36.2666 21.92 36.1786 21.9107 36.092 21.892C36.0386 21.88 35.984 21.8653 35.9306 21.8453L35.8573 21.808L32.744 20.6587C31.4933 20.1973 26.5026 19.0747 25.4373 17.8307C25.38 17.764 25.352 17.6867 25.3467 17.608C25.3427 17.5413 25.3573 17.4733 25.3866 17.4133C26.984 18.5053 31.1266 19.456 32.2506 19.8693L35.364 21.02L35.4373 21.056C35.5773 21.108 35.72 21.132 35.8613 21.132C36.408 21.132 36.936 20.768 37.148 20.1907C37.248 19.9187 37.2627 19.6413 37.2107 19.3853C37.6373 19.7067 37.836 20.284 37.6827 20.8493V20.8507C37.6813 20.8547 37.68 20.8587 37.6787 20.864V20.8653C37.6773 20.8693 37.676 20.8733 37.6747 20.8773V20.8787C37.6733 20.8827 37.672 20.8867 37.6706 20.8907C37.6706 20.892 37.6706 20.8933 37.6706 20.8947C37.6693 20.8973 37.668 20.9013 37.6666 20.9053C37.6666 20.9067 37.6653 20.908 37.6653 20.9093C37.664 20.912 37.6626 20.916 37.6626 20.9187C37.6613 20.9213 37.6613 20.9227 37.66 20.924C37.66 20.9267 37.6586 20.9293 37.6573 20.932C37.6573 20.9333 37.6573 20.9347 37.656 20.936C37.6546 20.94 37.6546 20.944 37.6533 20.9467C37.652 20.948 37.652 20.9493 37.652 20.9507C37.6506 20.9547 37.6493 20.9587 37.648 20.9627C37.6467 20.964 37.6467 20.964 37.6467 20.9653C37.6453 20.9693 37.644 20.9733 37.6413 20.9773C37.4293 21.5573 36.9013 21.92 36.3533 21.92Z" fill="#D3583A"/>
<path id="path2060" d="M84.396 21.4187H76.5893L70.62 22.1173C69.9907 22.1907 69.516 22.724 69.516 23.3573V31.58L67.8467 35.588C67.3734 36.7214 68.0373 37.9973 69.2573 38.3053C69.8413 38.4507 70.248 38.9613 70.248 39.544L87.3267 39.472C87.608 38.1493 88.0227 36.852 88.5653 35.5973C89.6773 33.0253 90.2494 30.2627 90.2494 27.472V24.0573C90.2494 23.3413 89.76 22.7187 89.064 22.5493L84.396 21.4187Z" fill="#3D7195"/>
<path id="path2062" d="M69.7253 38.5373C70.0413 38.7747 70.248 39.1373 70.248 39.544L87.3267 39.472C87.3947 39.1573 87.4787 38.848 87.568 38.5373H69.7253Z" fill="white"/>
<path id="path2064" d="M86.9747 22.7854C88.5907 22.564 90.0493 23.9693 90.232 25.9253C90.4147 27.88 89.252 29.6453 87.636 29.8653C86.0213 30.0867 84.5627 28.6813 84.38 26.7267C84.1973 24.7707 85.36 23.0054 86.9747 22.7854Z" fill="#F0724E"/>
<path id="path2066" d="M109.843 26.0707L109.829 25.1334C109.809 23.8347 108.733 22.7894 107.436 22.8067L87.8013 23.0907C86.5026 23.1107 85.4573 24.1881 85.4746 25.4841L85.488 26.4214C85.508 27.7201 86.584 28.7654 87.8813 28.748L107.519 28.464C108.815 28.4454 109.863 27.3667 109.843 26.0707Z" fill="#F0724E"/>
<path id="path2068" d="M90.212 28.7133L97.7 28.6053L90.212 28.7133Z" fill="#DEBAA1"/>
<path id="path2070" d="M89.4827 28.724L90.212 28.7134L89.4827 28.724Z" fill="#325569"/>
<path id="path2072" d="M88.3173 28.7413L89.4827 28.724L88.3506 28.7413C88.3386 28.7413 88.328 28.7413 88.3173 28.7413Z" fill="#D3583A"/>
<path id="path2074" d="M88.3093 28.7413C86.7733 28.7413 85.504 27.496 85.4813 25.9533C85.48 25.82 85.4907 25.6893 85.5067 25.56C85.816 26.7907 86.932 27.7053 88.248 27.7053C88.2613 27.7053 88.2747 27.7053 88.2893 27.704L105.563 27.4547C105.632 27.5307 105.704 27.6013 105.78 27.6693C106.369 28.2187 107.016 28.4027 107.601 28.4027C107.608 28.4027 107.615 28.4027 107.621 28.4027C107.436 28.444 107.245 28.4667 107.049 28.4707L97.7 28.6053L90.212 28.7133L89.4827 28.724L88.3173 28.7413C88.3146 28.7413 88.312 28.7413 88.3093 28.7413Z" fill="#D3583A"/>
<path id="path2076" d="M106.829 22.86L121.935 21.2454L122.233 21.1467L123.044 23.7827L108.496 28.2653C107.009 28.7227 105.417 27.8813 104.96 26.3947C104.501 24.9093 105.344 23.3173 106.829 22.86Z" fill="#F0724E"/>
<path id="path2078" d="M108.289 28.3214C108.292 28.3214 108.293 28.32 108.296 28.3187C108.353 28.3067 108.409 28.2907 108.467 28.2747C108.409 28.292 108.349 28.3067 108.289 28.3214Z" fill="#DEBAA1"/>
<path id="path2080" d="M107.621 28.4027C107.64 28.3987 107.659 28.3947 107.677 28.3907C107.883 28.3893 108.089 28.3667 108.296 28.3187C108.293 28.32 108.292 28.3214 108.289 28.3214C108.081 28.3707 107.856 28.4013 107.621 28.4027Z" fill="#D3583A"/>
<path id="path2082" d="M107.601 28.4027C107.016 28.4027 106.369 28.2187 105.78 27.6693C106.295 28.1267 106.968 28.3907 107.669 28.3907C107.672 28.3907 107.675 28.3907 107.677 28.3907C107.659 28.3947 107.64 28.3987 107.621 28.4027C107.615 28.4027 107.608 28.4027 107.601 28.4027Z" fill="#B8442B"/>
<path id="path2084" d="M107.669 28.3907C106.968 28.3907 106.295 28.1267 105.78 27.6694C105.645 27.544 105.513 27.3987 105.385 27.232L121.672 23.1267C121.925 23.5467 122.367 23.804 122.825 23.804C122.895 23.804 122.964 23.7974 123.033 23.7854L108.496 28.2654C108.487 28.268 108.476 28.272 108.467 28.2747C108.409 28.2907 108.353 28.3067 108.296 28.3187C108.089 28.3667 107.883 28.3894 107.677 28.3907C107.675 28.3907 107.672 28.3907 107.669 28.3907Z" fill="#D3583A"/>
<path id="path2086" d="M122.28 21.096L122.279 21.0894C123.799 20.544 126.236 19.308 128.257 19.112L133.593 19.548C133.917 19.5747 134.083 19.972 133.861 20.2107C132.74 21.4053 127.703 22.3027 126.433 22.7053L123.271 23.7133L123.196 23.7467C122.509 23.9653 121.76 23.5427 121.527 22.804C121.299 22.088 121.637 21.3427 122.28 21.096Z" fill="#F0724E"/>
<path id="path2088" d="M123.033 23.7854C123.088 23.776 123.143 23.7627 123.196 23.7467L123.271 23.7134L126.433 22.7054C127.703 22.3027 132.74 21.4054 133.861 20.2107C133.973 20.0907 133.987 19.9293 133.931 19.796C133.987 19.9293 133.973 20.0907 133.861 20.2107C132.74 21.4054 127.703 22.3027 126.433 22.7054L123.271 23.7134L123.196 23.7467C123.143 23.7627 123.088 23.776 123.033 23.7854Z" fill="#DEBAA1"/>
<path id="path2090" d="M122.825 23.804C122.257 23.804 121.719 23.4107 121.527 22.804C121.331 22.1893 121.555 21.5547 122.028 21.232C121.964 21.484 121.967 21.7627 122.053 22.0373C122.247 22.6453 122.787 23.0387 123.353 23.0387C123.476 23.0387 123.601 23.02 123.724 22.98L123.8 22.948L126.963 21.94C128.104 21.5774 132.284 20.8133 133.931 19.796C133.987 19.9293 133.973 20.0907 133.861 20.2107C132.74 21.4054 127.703 22.3027 126.433 22.7054L123.271 23.7134L123.196 23.7467C123.143 23.7627 123.088 23.776 123.033 23.7854C122.964 23.7974 122.895 23.804 122.825 23.804Z" fill="#D3583A"/>
<path id="path2092" d="M77.704 28.132H78.7586C81.6186 28.132 83.9573 25.7934 83.9573 22.9334V21.4187H76.5893L72.5067 21.8974V22.9334C72.5067 25.7934 74.8453 28.132 77.704 28.132Z" fill="#F0724E"/>
</g>
</svg>
